<?xml version="1.0" standalone="no"?>
<!DOCTYPE svg PUBLIC "-//W3C//DTD SVG 1.1//EN" "http://www.w3.org/Graphics/SVG/1.1/DTD/svg11.dtd">
<svg xmlns="http://www.w3.org/2000/svg"><metadata>This SVG WebFont was generated by YouWorkForThem.
Copyright (c) 2010 by Dino dos Santos _DSType. All rights reserved.</metadata><defs><font horiz-adv-x="1228" id="ywftsvg"><font-face ascent="1536" bbox="-166 -563 3400 1954" cap-height="1434" descent="-512" font-family="" font-stretch="normal" font-weight="900" panose-1="2 0 5 3 7 0 0 2 0 4" underline-position="0" underline-thickness="0" unicode-range="U+0020-FB04" units-per-em="2048" x-height="1024"/><missing-glyph d="M223 510q0 139 94 233l-153 185l14 16l158 -184q88 74 196.5 74t196.5 -74l154 184l18 -16l-153 -183q98 -94 98 -235t-96 -234l149 -176l-18 -18l-152 178q-84 -72 -196.5 -72t-196.5 72l-152 -178l-16 18l149 176q-94 95 -94 234zM246 510q0 -121 85 -209t203 -88 t202.5 88t84.5 209t-85 210t-203 89t-202.5 -89t-84.5 -210z" horiz-adv-x="1064"/><glyph d="M1352 1372q-74 0 -98.5 -71.5t-24.5 -235.5v-41h153v-133h-153v-748q0 -39 23.5 -51t119.5 -20v-72h-645v72q68 8 85 20t17 51v748h-102v92l102 41v20q0 156 80 261q-68 68 -170 67q-207 0 -207 -307v-41h123v-133h-123v-748q0 -39 24 -51t120 -20v-72h-645v72 q68 8 85 20t17 51v748h-102v92l102 41v20q0 221 160.5 336t398.5 115t379 -59q125 59 271 59t252 -62.5t106 -148.5q0 -59 -38 -98t-106 -39t-100.5 28.5t-32.5 63.5l11 66q0 29 -21.5 48t-60.5 19z" glyph-name="uniFB00" horiz-adv-x="1392" unicode="ff"/><glyph d="M1229 1044v-901q0 -39 17.5 -51t84.5 -20v-72h-604v72q68 8 85 20t17 51v656q0 51 -15 70.5t-69 21.5h-213v-748q0 -39 24 -51t120 -20v-72h-645v72q68 8 85 20t17 51v748h-102v92l102 41v20q0 221 160.5 336t396.5 115t377 -57.5t141 -167.5q0 -66 -45 -115t-144 -49 t-144.5 34t-45.5 74q0 18 10.5 42t10.5 48t-26.5 46t-84.5 22q-207 0 -207 -307v-41h553l103 20h41z" glyph-name="uniFB01" horiz-adv-x="1341" unicode="fi"/><glyph d="M1229 1495v-1352q0 -39 17.5 -51t84.5 -20v-72h-604v72q68 8 85 20t17 51v1213q-43 16 -90 16q-207 0 -207 -307v-41h154v-133h-154v-748q0 -39 24 -51t120 -20v-72h-645v72q68 8 85 20t17 51v748h-102v92l102 41v20q0 221 161.5 336t389.5 115t356 -47l148 47h41z" glyph-name="uniFB02" horiz-adv-x="1341" unicode="fl"/><glyph d="M1925 1044v-901q0 -39 17.5 -51t85.5 -20v-72h-605v72q68 8 85.5 20t17.5 51v656q0 51 -15.5 70.5t-68.5 21.5h-213v-748q0 -39 23.5 -51t119.5 -20v-72h-645v72q68 8 85 20t17 51v748h-102v92l102 41v20q0 150 82 259q-66 70 -172 69q-207 0 -207 -307v-41h123v-133 h-123v-748q0 -39 24 -51t120 -20v-72h-645v72q68 8 85 20t17 51v748h-102v92l102 41v20q0 221 161 336t406 115t379 -63q135 63 339 63t345.5 -57.5t141.5 -167.5q0 -66 -44.5 -115t-144.5 -49t-145 34t-45 74q0 18 10 42t10 48t-26.5 46t-83.5 22q-207 0 -207 -307v-41h553 l102 20h41z" glyph-name="uniFB03" horiz-adv-x="2037" unicode="ffi"/><glyph d="M1925 1495v-1352q0 -39 17.5 -51t85.5 -20v-72h-605v72q68 8 85.5 20t17.5 51v1213q-43 16 -90 16q-207 0 -207 -307v-41h153v-133h-153v-748q0 -39 23.5 -51t119.5 -20v-72h-645v72q68 8 85 20t17 51v748h-102v92l102 41v20q0 150 82 259q-66 70 -172 69 q-207 0 -207 -307v-41h123v-133h-123v-748q0 -39 24 -51t120 -20v-72h-645v72q68 8 85 20t17 51v748h-102v92l102 41v20q0 221 161 336t406 115t379 -63q135 63 332 63t326 -47l147 47h41z" glyph-name="uniFB04" horiz-adv-x="2037" unicode="ffl"/><glyph d="M1915 1044q127 0 207 -74.5t80 -232.5v-594q0 -39 17 -51t85 -20v-72h-584v72q53 8 67.5 20t14.5 51v543q0 113 -92 113q-75 0 -110.5 -28.5t-43.5 -33.5v-594q0 -39 17.5 -51t85.5 -20v-72h-604v72q68 8 85 20t17 51v1188h-328v-1177q0 -39 17.5 -51.5t85.5 -20.5v-82 h-625v82q68 8 85.5 20.5t17.5 51.5v1177h-31q-207 0 -266 -256h-82l10 359h1079l396 61h40l-10 -666h10q162 215 359 215z" glyph-name="T_h.liga" horiz-adv-x="2314" unicode="Th"/><glyph d="M1925 1044v-901q0 -254 -159.5 -413.5t-352.5 -159.5q-63 0 -108 33t-45 91t29.5 90t78.5 32t96 -43t67.5 -43t28.5 27.5t-13 177.5t-21 208v656q0 57 -17.5 74.5t-85.5 17.5h-194v-748q0 -39 23.5 -51t119.5 -20v-72h-645v72q68 8 85 20t17 51v748h-102v92l102 41v20 q0 150 82 259q-66 70 -172 69q-207 0 -207 -307v-41h123v-133h-123v-748q0 -39 24 -51t120 -20v-72h-645v72q68 8 85 20t17 51v748h-102v92l102 41v20q0 221 161 336t406 115t379 -63q135 63 339 63t345.5 -57.5t141.5 -167.5q0 -66 -44.5 -115t-144.5 -49t-145 34t-45 74 q0 18 10 42t10 48t-26.5 46t-83.5 22q-207 0 -207 -307v-41h553l102 20h41z" glyph-name="f_f_j.liga" horiz-adv-x="2037" unicode="ffj"/><glyph d="M1229 1044v-901q0 -254 -160 -413.5t-352 -159.5q-63 0 -108.5 33t-45.5 91t30 90t79 32t96 -43t67.5 -43t28.5 28.5t-13.5 181t-21.5 203.5v656q0 57 -17 74.5t-85 17.5h-195v-748q0 -39 24 -51t120 -20v-72h-645v72q68 8 85 20t17 51v748h-102v92l102 41v20 q0 221 160.5 336t396.5 115t377 -57.5t141 -167.5q0 -66 -45 -115t-144 -49t-144.5 34t-45.5 74q0 18 10.5 42t10.5 48t-26.5 46t-84.5 22q-207 0 -207 -307v-41h553l103 20h41z" glyph-name="f_j.liga" horiz-adv-x="1341" unicode="fj"/><glyph d="M1915 1044q127 0 207 -74.5t80 -232.5v-594q0 -39 17 -51t85 -20v-72h-584v72q53 8 67.5 20t14.5 51v543q0 113 -92 113q-75 0 -110.5 -28.5t-43.5 -33.5v-594q0 -39 17.5 -51t85.5 -20v-72h-604v72q68 8 85 20t17 51v1188h-328v-1177q0 -39 17.5 -51.5t85.5 -20.5v-82 h-625v82q68 8 85.5 20.5t17.5 51.5v1177h-31q-207 0 -266 -256h-82l10 359h1079l396 61h40l-10 -666h10q162 215 359 215zM416 1884l205 -133l204 133h133l-256 -368h-163l-256 368h133z" glyph-name="Tcaron_h.liga" horiz-adv-x="2314" unicode="Ťh"/><glyph d="M596 -61q184 0 184 -185q0 -113 -85 -194.5t-199 -122.5l-35 78q145 63 145 116q0 31 -33 31q-61 0 -101 36t-40 99.5t49 102.5t115 39zM1915 1044q127 0 207 -74.5t80 -232.5v-594q0 -39 17 -51t85 -20v-72h-584v72q53 8 67.5 20t14.5 51v543q0 113 -92 113 q-75 0 -110.5 -28.5t-43.5 -33.5v-594q0 -39 17.5 -51t85.5 -20v-72h-604v72q68 8 85 20t17 51v1188h-328v-1177q0 -39 17.5 -51.5t85.5 -20.5v-82h-625v82q68 8 85.5 20.5t17.5 51.5v1177h-31q-207 0 -266 -256h-82l10 359h1079l396 61h40l-10 -666h10q162 215 359 215z " glyph-name="Tcommaaccent_h.liga" horiz-adv-x="2314" unicode="Ţh"/><glyph d="M223 510q0 139 94 233l-153 185l14 16l158 -184q88 74 196.5 74t196.5 -74l154 184l18 -16l-153 -183q98 -94 98 -235t-96 -234l149 -176l-18 -18l-152 178q-84 -72 -196.5 -72t-196.5 72l-152 -178l-16 18l149 176q-94 95 -94 234zM246 510q0 -121 85 -209t203 -88 t202.5 88t84.5 209t-85 210t-203 89t-202.5 -89t-84.5 -210z" glyph-name=".notdef" horiz-adv-x="1064"/><glyph glyph-name="glyph1" horiz-adv-x="0"/><glyph glyph-name="glyph2" horiz-adv-x="681"/><glyph glyph-name="space" horiz-adv-x="471" unicode=" "/><glyph d="M123 1311q0 184 186.5 184t186.5 -184q0 -84 -56.5 -414.5t-79.5 -486.5h-102q-20 135 -77.5 470.5t-57.5 430.5zM143 153q0 67 48.5 115.5t114.5 48.5t115.5 -49.5t49.5 -115.5t-49 -114t-116 -48t-115 48t-48 115z" glyph-name="exclam" horiz-adv-x="618" unicode="!"/><glyph d="M268 1556q47 0 78 -28.5t25 -73.5l-39 -328h-125l-41 328q-6 45 24.5 73.5t77.5 28.5zM575.5 1556q47.5 0 78 -28.5t24.5 -73.5l-39 -328h-125l-41 328q-6 45 24.5 73.5t78 28.5z" glyph-name="quotedbl" horiz-adv-x="843" unicode="&quot;"/><glyph d="M51 563h291v195h-291v133h291v293h133v-293h195v293h133v-293h293v-133h-293v-195h293v-133h-293v-291h-133v291h-195v-291h-133v291h-291v133zM475 758v-195h195v195h-195z" glyph-name="numbersign" horiz-adv-x="1146" unicode="#"/><glyph d="M51 963q0 195 158 291t381 98l24 184h91l-27 -190q154 -18 264 -78l21 -332h-80q-53 150 -96.5 210t-124.5 73l-44 -312q18 -10 75 -41.5t83.5 -49t74.5 -50.5t73.5 -63.5t66.5 -88.5t41 -196t-113 -283.5t-423 -154.5l-25 -185h-90l25 187q-180 16 -322 96l-21 371h82 q49 -164 115 -246t162 -90l51 379q-29 18 -88 50.5t-133.5 77.5t-137.5 127t-63 216zM623 287q0 80 -68 143l-41 -305q109 39 109 162zM461 1096q0 -68 76 -133l34 256q-110 -14 -110 -123z" glyph-name="dollar" horiz-adv-x="1083" unicode="$"/><glyph d="M1100 1434h141l-717 -1434h-143zM1218 614q142 0 234 -92t90 -225t-100.5 -225t-239.5 -92t-232 92t-87 225q0 133 96.5 225t238.5 92zM1135 297q0 -139 16 -192.5t61 -53.5t60.5 53.5t15.5 192.5t-15.5 191.5t-60.5 52.5t-61 -52.5t-16 -191.5zM420 1454q141 0 233 -92 t90 -225t-100 -225.5t-239.5 -92.5t-232.5 92.5t-87 225.5q0 133 97.5 225t238.5 92zM336 1136.5q0 -139.5 16.5 -192.5t61.5 -53t60 53t15 192.5t-15 191.5t-60 52t-61.5 -52t-16.5 -191.5z" glyph-name="percent" horiz-adv-x="1624" unicode="%"/><glyph d="M471 414q0 -142 65.5 -216.5t174.5 -74.5t184 49l-373 473q-51 -89 -51 -231zM840 1179q0 152 -92 152q-50 0 -80.5 -43t-30.5 -108q0 -117 106 -252q39 31 68 103.5t29 147.5zM600 -20q-222 0 -349.5 93t-127.5 269q0 123 96 226.5t227 160.5q-162 211 -162 374t127 257 t293 94t277 -79t111 -192t-58.5 -194.5t-226.5 -140.5l328 -399q39 85 57 151t-13.5 99.5t-154.5 48.5v71h512v-71q-119 -14 -163 -47t-74 -120t-93 -221l176 -217q39 -49 61.5 -57t57.5 -14v-72h-463l-69 80q-147 -100 -369 -100z" glyph-name="ampersand" horiz-adv-x="1597" unicode="&amp;"/><glyph d="M268 1556q47 0 78 -28.5t25 -73.5l-39 -328h-125l-41 328q-6 45 24.5 73.5t77.5 28.5z" glyph-name="quotesingle" horiz-adv-x="536" unicode="'"/><glyph d="M102 696q0 256 145.5 520.5t315.5 421.5h123q-225 -391 -225 -942t225 -942h-123q-170 158 -315.5 422t-145.5 520z" glyph-name="parenleft" horiz-adv-x="727" unicode="("/><glyph d="M625 696q0 -256 -145.5 -520t-315.5 -422h-123q225 391 225 942t-225 942h123q170 -158 315.5 -422t145.5 -520z" glyph-name="parenright" horiz-adv-x="727" unicode=")"/><glyph d="M164 1167.5q0 24.5 15.5 51t28.5 26.5t63 -23.5t137 -33.5q-59 45 -115.5 64.5t-66.5 30.5t-2 54.5t53 54t58 0.5t25.5 -62.5t77.5 -121.5q-7 94 -38 140.5t-31 60.5t29.5 29.5t54 15.5t54.5 -15.5t30 -35.5q0 -8 -31.5 -54t-38.5 -141q65 69 77.5 121.5t25.5 61.5 t42.5 3t47.5 -22t24 -47t-4 -42t-66.5 -30.5t-115.5 -64.5q86 10 136 33.5t63 23.5t28.5 -26.5t15.5 -51t-14.5 -51t-28.5 -26.5t-64 23.5t-136 33.5q65 -49 118.5 -66.5t63.5 -28.5t4 -42t-23 -47t-47 -22.5t-51 7.5q-6 4 -18 56.5t-78 121.5q7 -94 38.5 -140t31.5 -54 q0 -20 -30 -35.5t-54.5 -15.5t-54 15.5t-29.5 29.5t31 60.5t38 139.5q-66 -69 -78 -121.5t-25 -61.5t-43 -3t-47 22t-23.5 47t3.5 43t63.5 28.5t119.5 66.5q-87 -10 -137 -33.5t-63 -23.5t-28.5 26.5t-15.5 51z" glyph-name="asterisk" horiz-adv-x="905" unicode="*"/><glyph d="M639 1063v-334h334v-133h-334v-332h-133v332h-332v133h332v334h133z" glyph-name="plus" horiz-adv-x="1146" unicode="+"/><glyph d="M266 317q102 0 143.5 -71.5t41.5 -163.5q0 -150 -85 -249t-200 -140l-35 78q88 41 137 90t49 88q0 51 -66 51t-107.5 45t-41.5 113t49 113.5t115 45.5z" glyph-name="comma" horiz-adv-x="552" unicode=","/><glyph d="M123 614h717v-133h-717v133z" glyph-name="hyphen" horiz-adv-x="962" unicode="-"/><glyph d="M102 153q0 67 49 115.5t115 48.5t115 -49.5t49 -115.5t-49 -114t-116 -48t-115 48t-48 115z" glyph-name="period" horiz-adv-x="532" unicode="."/><glyph d="M623 1454h90l-492 -1474h-92z" glyph-name="slash" horiz-adv-x="839" unicode="/"/><glyph d="M61 665.5q0 278.5 159 482.5t404.5 204t404.5 -204t159 -482.5t-159 -482t-404.5 -203.5t-404.5 203.5t-159 482zM748 666q0 299 -28 431t-95.5 132t-95 -132t-27.5 -431t27.5 -431.5t95 -132.5t95.5 132.5t28 431.5z" glyph-name="zero" horiz-adv-x="1249" unicode="0"/><glyph d="M225 154v921l-164 -41l-41 92l543 226h82v-1198q0 -35 40 -48.5t124 -23.5v-82h-758v82q134 12 154 33t20 39z" glyph-name="one" horiz-adv-x="870" unicode="1"/><glyph d="M399 1229q-51 0 -81.5 -31t-30.5 -64t25.5 -70.5t25.5 -78.5t-44 -62.5t-108 -21.5t-99.5 32t-35.5 81q0 133 125.5 235.5t325.5 102.5t330.5 -105.5t130.5 -283.5q0 -336 -564 -666h605v-297h-963v121q502 406 502 831q0 106 -37 191.5t-107 85.5z" glyph-name="two" horiz-adv-x="1064" unicode="2"/><glyph d="M993 369q0 -174 -148.5 -281.5t-350.5 -107.5t-327.5 102t-125.5 235q0 49 36 81t100 32q151 0 151 -92q0 -33 -26 -71.5t-26 -70.5t31 -63t82 -31q78 0 131 75t53 181q0 168 -57 222.5t-168 54.5v123q225 0 225 256q0 215 -143 215q-51 0 -82 -31t-31 -64t26 -70.5 t26 -78.5t-43 -62.5t-108 -21.5t-100.5 32t-35.5 81q0 133 125 235.5t323 102.5t310 -88t112 -240q0 -106 -100 -199.5t-258 -113.5v-4q201 -23 300 -113t99 -225z" glyph-name="three" horiz-adv-x="1054" unicode="3"/><glyph d="M993 0h-420v328h-532v51l686 973h266v-901h113v-123h-113v-328zM573 451v501l-360 -501h360z" glyph-name="four" horiz-adv-x="1167" unicode="4"/><glyph d="M942 1331v-297h-647l-8 -143q180 0 315 -32t208 -78t116 -111.5t55 -117.5t12 -112q0 -215 -152.5 -337.5t-420.5 -122.5q-160 0 -269.5 85t-109.5 201q0 72 39.5 118t111.5 46t104 -28.5t32 -60.5t-26 -71.5t-26 -75.5t39 -64t84 -28q98 0 146.5 68t48.5 152 q0 147 -86 225t-303 78h-41l24 706h754z" glyph-name="five" horiz-adv-x="1054" unicode="5"/><glyph d="M707 410q0 133 -39 215t-95 82q-37 0 -81 -19q-15 -282 25 -434t87 -152q103 1 103 308zM1106 451q0 -217 -151.5 -344t-368.5 -127t-371 153.5t-154 388.5q0 317 230.5 552t568.5 298l31 -92q-102 -29 -178 -82t-144 -140.5t-77 -258.5q35 29 103 50t132 21 q188 0 283.5 -118.5t95.5 -300.5z" glyph-name="six" horiz-adv-x="1167" unicode="6"/><glyph d="M266 1034q-68 0 -91 -27.5t-42 -95.5h-82l10 420h912v-174l-363 -1157h-450l618 1034h-512z" glyph-name="seven" horiz-adv-x="1013" unicode="7"/><glyph d="M80 1016q0 148 139 242t363 94t321.5 -98.5t97.5 -192.5t-71.5 -173t-192.5 -112q80 -39 124 -65.5t128 -96.5t84 -235q0 -106 -43 -186t-153 -146.5t-340 -66.5t-358 101t-128 241q0 106 72 191t194 108q-111 70 -174 158.5t-63 236.5zM418 331q0 -116 38 -172.5 t91 -56.5q117 0 117 181q0 84 -54.5 139t-163.5 121q-28 -96 -28 -212zM664 1065q0 164 -93 164q-35 0 -68.5 -46t-33.5 -118q0 -135 154 -227q41 135 41 227z" glyph-name="eight" horiz-adv-x="1124" unicode="8"/><glyph d="M461 922q0 -133 39 -215t94 -82q37 0 82 18q15 283 -25.5 434.5t-87.5 151.5q-102 0 -102 -307zM61 881q0 217 152.5 344t368.5 127t370 -154t154 -389q0 -317 -230.5 -551.5t-568.5 -298.5l-31 92q102 29 178 82t144.5 141t77.5 258q-35 -29 -103.5 -50t-132.5 -21 q-188 0 -283.5 119t-95.5 301z" glyph-name="nine" horiz-adv-x="1167" unicode="9"/><glyph d="M102 153q0 67 49 115.5t115 48.5t115 -49.5t49 -115.5t-49 -114t-116 -48t-115 48t-48 115zM102 718q0 67 49 115t115 48t115 -48.5t49 -114.5t-49 -115.5t-116 -49.5t-115 49t-48 116z" glyph-name="colon" horiz-adv-x="532" unicode=":"/><glyph d="M113 718q0 67 48.5 115t114.5 48t115 -48.5t49 -114.5t-49 -115.5t-116 -49.5t-114.5 49t-47.5 116zM266 317q102 0 143.5 -71.5t41.5 -163.5q0 -150 -85 -249t-200 -140l-35 78q88 41 137 90t49 88q0 51 -66 51t-107.5 45t-41.5 113t49 113.5t115 45.5z" glyph-name="semicolon" horiz-adv-x="552" unicode=";"/><glyph d="M809 967l-449 -299l449 -306v-157l-635 424v71l635 426v-159z" glyph-name="less" horiz-adv-x="983" unicode="&lt;"/><glyph d="M174 870h799v-133h-799v133zM174 584h799v-133h-799v133z" glyph-name="equal" horiz-adv-x="1146" unicode="="/><glyph d="M623 668l-449 299v159l635 -426v-71l-635 -424v157z" glyph-name="greater" horiz-adv-x="983" unicode=">"/><glyph d="M410 1372q-51 0 -82 -30.5t-31 -63.5t25.5 -71.5t25.5 -78.5t-43 -62t-107 -22t-100.5 32t-36.5 81q0 133 125 235.5t326 102.5t331 -105.5t130 -274.5t-122 -276.5t-296 -162.5l-20 -266h-103l-39 307q160 123 160 379q0 106 -36.5 191t-106.5 85zM317 153 q0 67 48.5 115.5t114.5 48.5t115.5 -49.5t49.5 -115.5t-49 -114t-116 -48t-115 48t-48 115z" glyph-name="question" horiz-adv-x="1054" unicode="?"/><glyph d="M1069 721q-74 0 -141.5 -172t-67.5 -330q0 -121 72 -121q39 0 80 40t59 130l84 420q-47 33 -86 33zM1411 121q80 0 158 115.5t78 293.5q0 236 -173.5 374t-412.5 138q-274 0 -457.5 -195.5t-183.5 -485.5t174 -441t448 -151t453 145l27 -61q-244 -203 -566 -203 q-371 0 -602 193.5t-231 486.5q0 164 81 355.5t326 315t514 123.5q391 0 538 -198.5t147 -386.5q0 -244 -137.5 -399.5t-319.5 -155.5q-98 0 -148.5 43t-54.5 108q-31 -72 -96.5 -113.5t-159.5 -41.5t-156.5 74.5t-62.5 203.5q0 229 131 381t319 152q63 0 95 -12.5 t41.5 -15.5t28 -12.5t19.5 -10.5l42 -25l133 53h43l-98 -528q-23 -119 63 -119z" glyph-name="at" horiz-adv-x="1851" unicode="@"/><glyph d="M1434 0h-656v82q70 8 89.5 30.5t-3.5 102.5l-71 195h-414l-51 -164q-29 -88 7 -118t167 -46v-82h-492v82q88 16 117 33.5t47 79.5l395 1249h260l482 -1270q18 -49 37.5 -62.5t85.5 -29.5v-82zM567 1014l-151 -482h332l-177 482h-4z" glyph-name="A" horiz-adv-x="1443" unicode="A"/><glyph d="M799 0h-758v82q68 8 85 20.5t17 51.5v1126q0 39 -17 51t-85 21v82h696q225 0 348 -95.5t123 -253.5q0 -119 -79.5 -208t-206.5 -123v-4q180 -45 264 -143.5t84 -227.5q0 -172 -123 -275.5t-348 -103.5zM563 102h92q174 0 174 287q0 137 -45 217t-129 80h-92v-584z M563 809h92q66 0 99.5 69.5t33.5 186.5q0 266 -133 266h-92v-522z" glyph-name="B" horiz-adv-x="1331" unicode="B"/><glyph d="M854 102q164 0 246 86t119 232h81l-20 -318q-197 -123 -430 -122q-340 0 -564.5 207.5t-224.5 529t224.5 529.5t564.5 208q233 0 430 -123l20 -317h-81q-37 145 -119 231t-246 86t-258 -147.5t-94 -467t94 -467t258 -147.5z" glyph-name="C" horiz-adv-x="1361" unicode="C"/><glyph d="M563 102h144q184 0 255.5 152t71.5 463t-71.5 462.5t-255.5 151.5h-144v-1229zM707 0h-666v82q68 8 85 20.5t17 51.5v1126q0 39 -17 51t-85 21v82h666q201 0 374.5 -88.5t283.5 -254t110 -374.5t-110 -375t-283.5 -254t-374.5 -88z" glyph-name="D" horiz-adv-x="1536" unicode="D"/><glyph d="M778 1331h-215v-532h82q193 0 215 205h82v-533h-82q-23 205 -215 205h-82v-574h215q113 0 189.5 57.5t128.5 198.5h82l-21 -358h-1116v82q68 8 85 20.5t17 51.5v1126q0 39 -17 51t-85 21v82h1096l10 -359h-82q-59 256 -287 256z" glyph-name="E" horiz-adv-x="1218" unicode="E"/><glyph d="M143 154v1126q0 39 -17 51t-85 21v82h1096l10 -359h-82q-59 256 -287 256h-215v-573h82q193 0 215 205h82v-533h-82q-23 205 -215 205h-82v-481q0 -39 17.5 -51.5t85.5 -20.5v-82h-625v82q68 8 85 20.5t17 51.5z" glyph-name="F" horiz-adv-x="1177" unicode="F"/><glyph d="M829 102q47 0 93 13v407q0 39 -17.5 51.5t-85.5 20.5v82h625v-82q-68 -8 -85.5 -20.5t-17.5 -51.5v-532h-81l-78 63q-178 -74 -373 -73q-336 0 -542 205.5t-206 529.5t224.5 531.5t564.5 207.5q233 0 430 -123l20 -317h-81q-37 145 -119 231t-246 86t-258 -147.5 t-94 -466.5q-1 -615 327 -615z" glyph-name="G" horiz-adv-x="1464" unicode="G"/><glyph d="M1044 154v522h-481v-522q0 -39 17.5 -51.5t85.5 -20.5v-82h-625v82q68 8 85 20.5t17 51.5v1126q0 39 -17 51t-85 21v82h625v-82q-68 -8 -85.5 -20.5t-17.5 -51.5v-481h481v481q0 39 -17 51t-85 21v82h625v-82q-68 -8 -85.5 -20.5t-17.5 -51.5v-1126q0 -39 17.5 -51.5 t85.5 -20.5v-82h-625v82q68 8 85 20.5t17 51.5z" glyph-name="H" horiz-adv-x="1607" unicode="H"/><glyph d="M143 154v1126q0 39 -17 51t-85 21v82h625v-82q-68 -8 -85.5 -20.5t-17.5 -51.5v-1126q0 -39 17.5 -51.5t85.5 -20.5v-82h-625v82q68 8 85 20.5t17 51.5z" glyph-name="I" horiz-adv-x="706" unicode="I"/><glyph d="M348 573v707q0 39 -17.5 51t-84.5 21v82h624v-82q-68 -8 -85 -20.5t-17 -51.5v-707q0 -248 -140.5 -420.5t-402.5 -172.5q-205 0 -205 133q0 47 28 74.5t70 27.5t80 -34t68 -66.5t54 -32.5t35.5 14.5t11.5 55.5t-9.5 140t-9.5 281z" glyph-name="J" horiz-adv-x="890" unicode="J"/><glyph d="M143 154v1126q0 39 -17 51t-85 21v82h625v-82q-68 -8 -85.5 -20.5t-17.5 -51.5v-539q47 12 117 99l291 372q50 77 0.5 106.5t-123.5 33.5v82h565v-82q-115 -16 -169 -39t-107 -84l-283 -355q137 -104 262 -290l268 -402q10 -14 17.5 -25.5t14.5 -19.5t13.5 -15 t10.5 -11.5t9 -8.5t8.5 -6t22.5 -7t25 -7v-82h-542q-72 100 -164 266l-137 250q-45 78 -99 86v-448q0 -39 17.5 -51.5t85.5 -20.5v-82h-625v82q68 8 85 20.5t17 51.5z" glyph-name="K" horiz-adv-x="1525" unicode="K"/><glyph d="M143 154v1126q0 39 -17 51t-85 21v82h625v-82q-68 -8 -85.5 -20.5t-17.5 -51.5v-1178h195q113 0 189.5 57.5t127.5 198.5h82l-20 -358h-1096v82q68 8 85 20.5t17 51.5z" glyph-name="L" horiz-adv-x="1177" unicode="L"/><glyph d="M317 154q0 -39 26 -51.5t138 -20.5v-82h-461v82q113 8 138.5 20.5t25.5 51.5v1126q0 39 -25.5 51t-138.5 21v82h584l328 -942l276 942h523v-82q-68 -8 -85.5 -20.5t-17.5 -51.5v-1126q0 -39 17.5 -51.5t85.5 -20.5v-82h-625v82q68 8 85 20.5t17 51.5l21 870l-307 -1034 h-267l-338 1034v-870z" glyph-name="M" horiz-adv-x="1771" unicode="M"/><glyph d="M1280 -10h-225l-738 1106v-942q0 -39 26 -51.5t138 -20.5v-82h-461v82q113 8 138.5 20.5t25.5 51.5v1126q0 39 -25.5 51t-138.5 21v82h584l543 -789v635q0 39 -25.5 51t-138.5 21v82h461v-82q-113 -8 -138.5 -20.5t-25.5 -51.5v-1290z" glyph-name="N" horiz-adv-x="1464" unicode="N"/><glyph d="M829.5 -20q-307.5 0 -538 210.5t-230.5 526t230.5 526.5t538 211t537.5 -211t230 -526.5t-230 -526t-537.5 -210.5zM829.5 1331q-184.5 0 -256 -151.5t-71.5 -462.5t71.5 -463t256 -152t256 152t71.5 463t-71.5 462.5t-256 151.5z" glyph-name="O" horiz-adv-x="1658" unicode="O"/><glyph d="M655 1331h-92v-635h72q104 0 139 84t35 232q0 320 -154 319zM41 1434h717q227 0 359 -108.5t132 -278.5t-100 -277.5t-220 -152t-274 -44.5h-92v-419q0 -39 17.5 -51.5t85.5 -20.5v-82h-625v82q68 8 85 20.5t17 51.5v1126q0 39 -17 51t-85 21v82z" glyph-name="P" horiz-adv-x="1269" unicode="P"/><glyph d="M61 717q0 315 230.5 526t538 211t537.5 -211t230 -514t-199.5 -508t-482.5 -235q258 -98 428 -99q111 0 162 62l92 -51q-68 -160 -138 -234t-186 -74t-277.5 92.5t-323.5 313.5q-258 53 -434.5 251t-176.5 470zM829.5 1331q-184.5 0 -256 -151.5t-71.5 -462.5t71.5 -463 t256 -152t256 152t71.5 463t-71.5 462.5t-256 151.5z" glyph-name="Q" horiz-adv-x="1658" unicode="Q"/><glyph d="M41 1434h696q227 0 359.5 -108.5t132.5 -281.5q0 -125 -84 -235.5t-238 -159.5q111 -33 169.5 -87t101.5 -132l135 -246q43 -73 68.5 -84.5t52.5 -17.5v-82h-492q-86 129 -143 264l-62 146q-66 154 -112 204h-62v-460q0 -39 17.5 -51.5t85.5 -20.5v-82h-625v82 q68 8 85 20.5t17 51.5v1126q0 39 -17 51t-85 21v82zM635 1331h-72v-594h51q106 0 140 67.5t34 211.5q0 316 -153 315z" glyph-name="R" horiz-adv-x="1454" unicode="R"/><glyph d="M635 1321q-57 0 -115.5 -39t-58.5 -117t63.5 -135t153.5 -104t180 -103.5t153.5 -152t63.5 -219.5q0 -236 -158.5 -353.5t-388.5 -117.5q-113 0 -237.5 28.5t-208.5 73.5l-21 389h82q53 -186 131 -272t193 -86q80 0 139.5 49t59.5 139t-63.5 153.5t-154 109.5 t-180.5 99.5t-153.5 144.5t-63.5 216q0 209 150.5 319.5t381.5 110.5t400 -92l21 -369h-82q-61 182 -116.5 255t-170.5 73z" glyph-name="S" horiz-adv-x="1126" unicode="S"/><glyph d="M860 1331h-31v-1177q0 -39 17.5 -51.5t85.5 -20.5v-82h-625v82q68 8 85.5 20.5t17.5 51.5v1177h-31q-207 0 -266 -256h-82l10 359h1157l10 -359h-82q-59 256 -266 256z" glyph-name="T" horiz-adv-x="1239" unicode="T"/><glyph d="M143 553v727q0 39 -17 51t-85 21v82h625v-82q-68 -8 -85.5 -20.5t-17.5 -51.5v-707q0 -193 86 -285.5t232 -92.5q348 0 348 378v707q0 39 -29 51t-156 21v82h482v-82q-113 -8 -138.5 -20.5t-25.5 -51.5v-727q0 -270 -159 -421.5t-415 -151.5q-311 0 -478 152.5 t-167 420.5z" glyph-name="U" horiz-adv-x="1546" unicode="U"/><glyph d="M0 1434h655v-82q-70 -8 -89 -31t3 -102l293 -799h4l240 768q29 88 -7 117.5t-167 46.5v82h491v-82q-88 -16 -116.5 -34t-46.5 -79l-396 -1249h-260l-481 1270q-18 49 -37.5 62t-85.5 30v82z" glyph-name="V" horiz-adv-x="1423" unicode="V"/><glyph d="M0 1434h655v-82q-45 -6 -66.5 -16.5t-31.5 -39t12 -77.5l262 -758h5l157 500l-82 299l-8 24q-8 24 -22.5 32.5t-22.5 14t-20.5 8.5t-49.5 13v82h646v-82q-68 -8 -86.5 -33t0.5 -100l190 -758h4l199 727q25 90 -10 118.5t-164 45.5v82h491v-82q-90 -16 -117.5 -35 t-46.5 -78l-354 -1249h-280l-203 739l-234 -739h-260l-440 1270q-16 49 -35.5 62t-87.5 30v82z" glyph-name="W" horiz-adv-x="2058" unicode="W"/><glyph d="M573 0h-553v82q123 14 166 37.5t90 95.5l279 426l-340 578q-37 63 -69.5 90.5t-104.5 42.5v82h666v-82q-37 -6 -56 -25t25 -98l158 -273l129 211q55 88 36.5 130t-129.5 55v82h523v-82q-111 -16 -146 -32.5t-76 -80.5l-266 -410l369 -634q46 -79 72 -89t67 -24v-82h-676 v82q51 12 83.5 33.5t-32.5 130.5l-161 272l-148 -252q-49 -78 -29.5 -124t123.5 -60v-82z" glyph-name="X" horiz-adv-x="1433" unicode="X"/><glyph d="M492 154v419l-369 687q-23 43 -48.5 64.5t-74.5 27.5v82h655v-82q-111 -13 -107.5 -55t21.5 -78l252 -492h4l199 461q39 90 14.5 118.5t-147.5 45.5v82h491v-82q-141 -27 -165.5 -54.5t-38.5 -58.5l-267 -600v-485q0 -39 17.5 -51.5t85.5 -20.5v-82h-625v82 q68 8 85.5 20.5t17.5 51.5z" glyph-name="Y" horiz-adv-x="1382" unicode="Y"/><glyph d="M768 102q217 0 307 256h82l-20 -358h-1106v143l676 1188h-273q-219 0 -280 -256h-82l10 359h1055v-144l-656 -1188h287z" glyph-name="Z" horiz-adv-x="1187" unicode="Z"/><glyph d="M696 -102v-103h-594v1843h594v-102h-184v-1638h184z" glyph-name="bracketleft" horiz-adv-x="737" unicode="["/><glyph d="M129 1454h90l494 -1474h-92z" glyph-name="backslash" horiz-adv-x="839" unicode="\"/><glyph d="M41 1536v102h594v-1843h-594v103h184v1638h-184z" glyph-name="bracketright" horiz-adv-x="737" unicode="]"/><glyph d="M522 1198l-246 -235h-133l297 471h164l297 -471h-133z" glyph-name="asciicircum" horiz-adv-x="1044" unicode="^"/><glyph d="M123 -61h799v-134h-799v134z" glyph-name="underscore" horiz-adv-x="1044" unicode="_"/><glyph d="M164 1395q0 43 29.5 75.5t83.5 32.5t88 -51l178 -276l-51 -50l-275 187q-53 39 -53 82z" glyph-name="grave" horiz-adv-x="706" unicode="`"/><glyph d="M973 205q0 -41 41 -41q27 0 61 20l10 -82q-152 -123 -321 -122q-92 0 -141.5 40.5t-49.5 102.5v20h-4q-92 -164 -282 -163q-113 0 -179.5 70t-66.5 182t121 209.5t411 111.5v184q0 70 -37.5 122t-101.5 52t-95.5 -31.5t-31.5 -64.5t25.5 -70.5t25.5 -72.5t-41 -61.5 t-102 -26.5t-102 27.5t-41 84.5q0 111 136 229.5t338 118.5t316.5 -91t110.5 -226v-522zM449 326q0 -90 73 -90q31 0 51 20v195q-51 -8 -87.5 -43.5t-36.5 -81.5z" glyph-name="a" horiz-adv-x="1095" unicode="a"/><glyph d="M1178 509q0 -239 -148 -384t-362 -145t-351 122l-153 -112h-62v1290q0 53 -16 68.5t-86 23.5v72l461 51h41l-10 -604h10q98 153 276 153t289 -148t111 -387zM584 840q-43 0 -82 -31v-471q0 -236 123 -236q133 0 133 390q0 170 -48 259t-126 89z" glyph-name="b" horiz-adv-x="1208" unicode="b"/><glyph d="M614 922q-174 0 -174 -390q0 -170 82 -243.5t206 -73.5t235 61l41 -98q-80 -90 -156 -131q-125 -68 -285 -67q-254 0 -393 150.5t-139 371.5q0 166 86 293t210 188t257 61q190 0 294.5 -88t104.5 -188q0 -63 -41 -108.5t-120 -45.5t-112.5 28t-33.5 60t20.5 65t20.5 67 t-29 61t-74 27z" glyph-name="c" horiz-adv-x="1024" unicode="c"/><glyph d="M625 184q43 0 82 31v471q0 236 -123 236q-133 0 -133 -390q0 -170 48 -259t126 -89zM1106 1495v-1300q0 -53 16.5 -68.5t85.5 -24.5v-71l-440 -51h-41l-10 153h-10q-99 -153 -277 -153t-288.5 148t-110.5 385t147.5 384t353.5 147q92 0 175 -40v276q0 53 -16.5 68.5 t-86.5 23.5v72l461 51h41z" glyph-name="d" horiz-adv-x="1218" unicode="d"/><glyph d="M608 1044q158 0 277 -85t119 -263q0 -53 -13 -123h-561v-20q0 -170 88 -254t211 -84t234 61l41 -98q-80 -90 -156 -131q-125 -68 -285 -67q-254 0 -393 150.5t-139 371.5q0 166 86 293t209.5 188t281.5 61zM573 922q-117 0 -137 -215h215q14 43 15 92q-1 123 -93 123z " glyph-name="e" horiz-adv-x="1034" unicode="e"/><glyph d="M655 1372q-74 0 -98.5 -71.5t-24.5 -235.5v-41h154v-133h-154v-748q0 -39 24 -51t120 -20v-72h-645v72q68 8 85 20t17 51v748h-102v92l102 41v20q0 217 151.5 334t360.5 117q147 0 253 -62.5t106 -148.5q0 -59 -38 -98t-106 -39t-100.5 28.5t-32.5 63.5l10 66 q0 29 -21.5 48t-60.5 19z" glyph-name="f" horiz-adv-x="696" unicode="f"/><glyph d="M512 338q-57 0 -125 10q-29 -29 -29 -57q0 -53 93 -55l274 -11q186 -6 273 -95t87 -212q0 -180 -177 -264t-478 -84q-195 0 -312.5 48t-117.5 134q0 102 166 193q-94 61 -94 178q0 78 73.5 145.5t157.5 104.5q-111 41 -176.5 121.5t-65.5 195.5q0 154 126 254t325 100 q137 0 242 -49l311 31v-133h-182q70 -88 69 -197q0 -154 -121.5 -256t-318.5 -102zM246 -166q0 -141 256 -141q94 0 164.5 25.5t70.5 84.5q0 74 -123 84l-354 27q-14 -39 -14 -80zM420 717q0 -256 102 -256q53 0 62.5 53.5t9.5 149.5q0 258 -92 258q-82 0 -82 -205z" glyph-name="g" horiz-adv-x="1085" unicode="g"/><glyph d="M31 0v72q68 8 85 20t17 51v1137q0 53 -16.5 68.5t-85.5 23.5v72l461 51h40l-10 -666h10q162 215 359 215q127 0 207 -74.5t80 -232.5v-594q0 -39 17 -51t85 -20v-72h-584v72q53 8 67.5 20t14.5 51v543q0 113 -92 113q-75 0 -110.5 -28.5t-43.5 -33.5v-594q0 -39 17.5 -51 t85.5 -20v-72h-604z" glyph-name="h" horiz-adv-x="1290" unicode="h"/><glyph d="M102 1286q0 88 62.5 136t159 48t158 -48t61.5 -136t-61.5 -134t-158.5 -46t-159 46t-62 134zM532 1044v-901q0 -39 17.5 -51t85.5 -20v-72h-604v72q68 8 85 20t17 51v645q0 53 -16.5 68.5t-85.5 24.5v71l461 92h40z" glyph-name="i" horiz-adv-x="645" unicode="i"/><glyph d="M522 1044v-901q0 -254 -159.5 -413.5t-352.5 -159.5q-63 0 -108 33t-45 91t29.5 90t79.5 32t95 -43t67 -43t30 29.5t-13.5 174t-21.5 209.5v645q0 53 -16.5 68.5t-86.5 24.5v71l461 92h41zM92 1286q0 88 62.5 136t159 48t157.5 -48t61 -136t-61 -134t-159 -46t-159 46 t-61 134z" glyph-name="j" horiz-adv-x="624" unicode="j"/><glyph d="M532 1495v-911q39 0 61.5 12t55.5 51l139 178q41 49 17.5 84t-109.5 43v72h502v-72q-145 -23 -173 -37t-56 -53l-119 -155l324 -570q14 -25 31.5 -39t25.5 -16t39 -10v-72h-492l-184 410q-18 45 -62 49v-316q0 -39 17.5 -51t85.5 -20v-72h-604v72q68 8 85 20t17 51v1137 q0 53 -16.5 68.5t-85.5 23.5v72l461 51h40z" glyph-name="k" horiz-adv-x="1269" unicode="k"/><glyph d="M532 1495v-1352q0 -39 17.5 -51t85.5 -20v-72h-604v72q68 8 85 20t17 51v1137q0 53 -16.5 68.5t-85.5 23.5v72l461 51h40z" glyph-name="l" horiz-adv-x="645" unicode="l"/><glyph d="M31 0v72q68 8 85 20t17 51v645q0 53 -16.5 68.5t-85.5 24.5v71l461 92h40l-10 -215h10q78 104 156 159.5t182.5 55.5t179 -51t97.5 -159h12q80 102 157.5 156t191.5 54t194 -74.5t80 -232.5v-594q0 -39 17.5 -51t84.5 -20v-72h-563v72q39 8 50 20t11 51v543 q0 113 -82 113q-63 0 -143 -62v-594q0 -39 17.5 -51t85.5 -20v-72h-564v72q39 8 50.5 20t11.5 51v543q0 113 -82 113q-59 0 -144 -62v-594q0 -39 17.5 -51t85.5 -20v-72h-604z" glyph-name="m" horiz-adv-x="1894" unicode="m"/><glyph d="M31 0v72q68 8 85 20t17 51v645q0 53 -16.5 68.5t-85.5 24.5v71l461 92h40l-10 -215h10q162 215 359 215q127 0 207 -74.5t80 -232.5v-594q0 -39 17 -51t85 -20v-72h-584v72q53 8 67.5 20t14.5 51v543q0 113 -92 113q-75 0 -110.5 -28.5t-43.5 -33.5v-594q0 -39 17.5 -51 t85.5 -20v-72h-604z" glyph-name="n" horiz-adv-x="1290" unicode="n"/><glyph d="M573.5 -20q-241.5 0 -392 152.5t-150.5 379.5t150.5 379.5t392 152.5t392 -152.5t150.5 -379.5t-150.5 -379.5t-392 -152.5zM573.5 922q-63.5 0 -93 -93.5t-29.5 -316.5t29.5 -316.5t93 -93.5t93 93.5t29.5 316.5t-29.5 316.5t-93 93.5z" glyph-name="o" horiz-adv-x="1146" unicode="o"/><glyph d="M1198 511q0 -237 -147.5 -384t-354.5 -147q-92 0 -174 40v-286q0 -39 17.5 -51.5t85.5 -20.5v-72h-605v72q68 8 85.5 20.5t17.5 51.5v1054q0 53 -16.5 68.5t-86.5 24.5v71l461 92h41l-10 -153h10q98 153 276 153t289 -148t111 -385zM604 840q-43 0 -82 -31v-471 q0 -236 123 -236q133 0 133 390q0 170 -48 259t-126 89z" glyph-name="p" unicode="p"/><glyph d="M625 184q43 0 82 31v471q0 236 -123 236q-133 0 -133 -390q0 -170 48 -259t126 -89zM31 515q0 239 147.5 384t361.5 145t351 -122l153 112h62v-1300q0 -39 17.5 -51.5t84.5 -20.5v-72h-604v72q68 8 84.5 20.5t18.5 51.5l10 399h-10q-99 -153 -277 -153t-288.5 148 t-110.5 387z" glyph-name="q" horiz-adv-x="1208" unicode="q"/><glyph d="M31 0v72q68 8 85 20t17 51v645q0 53 -16.5 68.5t-85.5 24.5v71l461 92h40l-10 -235h10q47 113 101.5 174t128.5 61t122 -46t48 -121t-40 -122.5t-114 -47.5q-37 0 -82.5 15t-81.5 15t-82 -20v-574q0 -39 24 -51t120 -20v-72h-645z" glyph-name="r" horiz-adv-x="942" unicode="r"/><glyph d="M492 922q-33 0 -63 -20.5t-30 -66.5t46.5 -87t113 -79t133 -82t112.5 -117t46 -163q0 -150 -118 -238.5t-343 -88.5q-80 0 -178 20t-160 51l-20 277h82q25 -76 64.5 -125t95.5 -75t106 -26q113 0 113 103q0 67 -124.5 131.5t-225.5 151t-101 249.5q0 133 100.5 220 t296.5 87t330 -63l20 -264h-81q-53 111 -100.5 158t-114.5 47z" glyph-name="s" horiz-adv-x="880" unicode="s"/><glyph d="M522 891v-553q0 -127 13 -152q17 -39 79 -39t144 17l10 -62q-154 -123 -369 -122q-129 0 -202.5 60t-73.5 185v666h-103v92l103 41l297 307h102v-307h215v-133h-215z" glyph-name="t" horiz-adv-x="778" unicode="t"/><glyph d="M768 788q0 55 -22.5 69.5t-120.5 23.5v71l501 92h41v-849q0 -53 16.5 -68.5t86.5 -24.5v-71l-441 -51h-41l-10 215h-10q-162 -215 -358 -215q-127 0 -207 74.5t-80 232.5v501q0 53 -16.5 68.5t-86.5 24.5v71l461 92h41v-706q0 -113 92 -113q75 0 102 21.5t38.5 30 t13.5 10.5v501z" glyph-name="u" horiz-adv-x="1280" unicode="u"/><glyph d="M0 1024h645v-72q-78 -8 -100.5 -29.5t-1.5 -72.5l172 -432h4l151 432q18 53 -7 73.5t-105 28.5v72h409v-72q-96 -18 -115.5 -35.5t-37.5 -66.5l-316 -860h-206l-400 880q-25 53 -36 63.5t-56 18.5v72z" glyph-name="v" horiz-adv-x="1167" unicode="v"/><glyph d="M0 1024h645v-72q-76 -8 -97.5 -28.5t-4.5 -73.5l131 -432h4l203 616h204l265 -616h4l110 432q14 55 -9 74.5t-103 27.5v72h409v-72q-96 -18 -116 -35t-37 -67l-275 -860h-207l-252 557l-217 -557h-206l-359 880q-23 53 -35 63.5t-57 18.5v72z" glyph-name="w" horiz-adv-x="1761" unicode="w"/><glyph d="M451 0h-431v72q70 6 110 13.5t75 57.5l213 297l-264 441q-20 35 -42 50t-71 21v72h604v-72q-37 -6 -52 -13t-15 -31.5t26 -67.5l76 -127l96 127q39 47 30 75.5t-79 36.5v72h399v-72q-57 -12 -91 -22t-83 -70l-204 -258l286 -469q18 -29 41 -41t72 -20v-72h-604v72 q41 8 57.5 20.5t-16.5 71.5l-97 158l-118 -179q-25 -39 -10.5 -51t92.5 -20v-72z" glyph-name="x" horiz-adv-x="1167" unicode="x"/><glyph d="M174 -430q-74 0 -124 36t-50 87t33 87t79 36t102 -20.5t89 -20.5q133 0 209 184l-420 911q-25 53 -36 63.5t-56 18.5v72h645v-72q-78 -8 -100.5 -29.5t-1.5 -72.5l172 -432h4l151 432q18 53 -7 73.5t-105 28.5v72h409v-72q-61 -12 -93.5 -22t-59.5 -80l-287 -778 q-184 -502 -553 -502z" glyph-name="y" horiz-adv-x="1167" unicode="y"/><glyph d="M666 123q82 0 116.5 44t67.5 171h102l-20 -338h-901v102l430 799h-133q-80 0 -111 -42t-63 -173h-103l10 338h861v-102l-426 -799h170z" glyph-name="z" horiz-adv-x="983" unicode="z"/><glyph d="M584 58q0 -48 11 -89t41 -60.5t58.5 -24.5t83.5 -7v-82q-352 0 -437 54.5t-119 112.5t-34 133t24 180.5t24 193.5t-36 123t-159 57v99q117 23 156 63.5t39 116.5t-24 205t-24 205t34 134t119.5 112t436.5 54v-82q-106 -4 -150 -39.5t-44 -162.5q0 -27 17 -185.5 t11 -207.5q-22 -206 -366 -263q344 -53 366 -262q6 -49 -11 -189.5t-17 -188.5z" glyph-name="braceleft" horiz-adv-x="819" unicode="{"/><glyph d="M174 -205v1884h133v-1884h-133z" glyph-name="bar" horiz-adv-x="481" unicode="|"/><glyph d="M236 1354q0 127 -44.5 162.5t-150.5 39.5v82q351 0 436.5 -54t119.5 -112.5t34 -134.5t-23.5 -204.5t-23.5 -204.5t39 -117t155 -63v-99q-123 -23 -158.5 -57.5t-35.5 -122.5t23.5 -193.5t23.5 -180.5t-34 -133t-119 -112.5t-437 -54.5v82q55 2 84 7t70 32t41 164 q0 27 -17.5 167t-11.5 189q22 209 366 262q-344 57 -366 263q-6 49 11.5 207.5t17.5 185.5z" glyph-name="braceright" horiz-adv-x="819" unicode="}"/><glyph d="M412 1372q35 0 160.5 -41t175.5 -41q92 0 143 51l92 -51q-45 -90 -118.5 -178t-145.5 -88q-43 0 -162 41t-175 41t-146 -72l-93 51q61 119 135 203t134 84z" glyph-name="asciitilde" horiz-adv-x="1126" unicode="~"/><glyph d="M496 -246q0 -184 -186.5 -184t-186.5 184q0 82 56 401.5t79 469.5h102q23 -162 79.5 -475t56.5 -396zM143 882q0 67 48.5 114.5t114.5 47.5t115.5 -48t49.5 -114t-49 -115.5t-116 -49.5t-115 49t-48 116z" glyph-name="exclamdown" horiz-adv-x="618" unicode="¡"/><glyph d="M502 389v82q-195 10 -323 134t-128 308.5t128 307t323 133.5v80h71v-80q135 -10 240 -72l12 -190h-49q-43 170 -203 188v-733q160 18 203 188h49l-12 -190q-98 -63 -240 -74v-82h-71zM315 913q0 -334 187 -366v731q-84 -12 -135.5 -101.5t-51.5 -263.5z" glyph-name="cent" horiz-adv-x="876" unicode="¢"/><glyph d="M61 727h123q-82 119 -82 225q0 201 144.5 305.5t364.5 104.5t376 -86l21 -348h-82q-57 170 -106.5 235.5t-155.5 65.5q-68 0 -110 -44t-42 -106t48 -171t58 -181h242v-133h-239q-16 -117 -97 -268q96 -4 200.5 -32t135.5 -28q86 0 122 37t56 107h82q-51 -451 -311 -451 q-84 0 -151.5 29.5t-137 78t-125.5 68.5q-135 -156 -241 -155q-37 0 -70 25.5t-33 74.5q0 160 264 225q23 57 23 127t-59 162h-218v133z" glyph-name="sterling" horiz-adv-x="1171" unicode="£"/><glyph d="M223 510q0 139 94 233l-153 185l14 16l158 -184q88 74 196.5 74t196.5 -74l154 184l18 -16l-153 -183q98 -94 98 -235t-96 -234l149 -176l-18 -18l-152 178q-84 -72 -196.5 -72t-196.5 72l-152 -178l-16 18l149 176q-94 95 -94 234zM246 510q0 -121 85 -209t203 -88 t202.5 88t84.5 209t-85 210t-203 89t-202.5 -89t-84.5 -210z" glyph-name="currency" horiz-adv-x="1064" unicode="¤"/><glyph d="M297 625h158l-295 540q-23 41 -44.5 60.5t-64.5 25.5v80h629v-80q-97 -13 -95.5 -52.5t19.5 -74.5l227 -430h5l178 404q37 84 14.5 110.5t-139.5 42.5v80h467v-80q-68 -12 -115 -25.5t-78 -80.5l-233 -520h196v-133h-204v-347q0 -35 14 -46t74 -19v-80h-596v80 q57 8 72.5 19.5t15.5 45.5v347h-205v133z" glyph-name="yen" horiz-adv-x="1406" unicode="¥"/><glyph d="M307 1679v-737h-133v737h133zM307 532v-737h-133v737h133z" glyph-name="brokenbar" horiz-adv-x="481" unicode="¦"/><glyph d="M584 1352q-102 0 -169 -84t-67 -234q0 -322 182 -639l-38 -37q-131 133 -270.5 351.5t-139.5 395.5t107.5 273.5t265.5 96.5t266 -82t108 -205q0 -82 -81 -82q-27 0 -49.5 17t-22.5 43t25.5 52.5t25.5 58.5t-38.5 53.5t-104.5 21.5zM328 82q102 0 168.5 84t66.5 233 q0 322 -182 639l39 37q131 -133 270 -351t139 -395t-107.5 -273.5t-265.5 -96.5t-266 82t-108 205q0 82 82 82q27 0 49.5 -16.5t22.5 -43.5t-26 -53.5t-26 -58.5t39 -53t105 -21z" glyph-name="section" horiz-adv-x="911" unicode="§"/><glyph d="M164 1259q0 58 38 96t96 38t96 -38t38 -97t-38 -95.5t-96 -36.5t-96 37.5t-38 95.5zM524 1259q0 58 39 96t96.5 38t96.5 -38t39 -96t-39 -95.5t-96.5 -37.5t-96.5 37.5t-39 95.5z" glyph-name="dieresis" horiz-adv-x="958" unicode="¨"/><glyph d="M82 836q0 256 182 437t438 181t437.5 -181t181.5 -437t-181.5 -438.5t-437.5 -182.5t-438 182.5t-182 438.5zM143 835.5q0 -231.5 164 -395.5t395.5 -164t395.5 164t164 395.5t-164 395.5t-395.5 164t-395.5 -164t-164 -395.5zM745 532q145 0 185 158h41l-10 -158 q-94 -61 -216 -61q-172 0 -283.5 104.5t-111.5 264t111.5 264t283.5 104.5q113 0 216 -61l10 -160h-41q-18 74 -59.5 117t-125.5 43q-174 0 -174 -307.5t174 -307.5z" glyph-name="copyright" horiz-adv-x="1402" unicode="©"/><glyph d="M41 737h676v-92h-676v92zM621 942q0 -25 24 -24q18 0 37 12l6 -49q-92 -74 -192 -74q-55 0 -85 24.5t-30 61.5v12h-2q-55 -98 -170 -98q-68 0 -108 41.5t-40 109.5t73 126.5t247 66.5v111q0 43 -22.5 73.5t-61.5 30.5t-57.5 -19.5t-18.5 -38.5t15.5 -42.5t15.5 -43.5 t-24.5 -36.5t-61.5 -16.5q-86 0 -86 67t82 138.5t203 71.5t189.5 -54.5t66.5 -136.5v-313zM305 1010q0 -49 45 -49q19 0 31 12v117q-31 -6 -53.5 -27t-22.5 -53z" glyph-name="ordfeminine" horiz-adv-x="757" unicode="ª"/><glyph d="M809 850l-264 -299l264 -305v-158l-635 424v72l635 426v-160zM1321 850l-264 -299l264 -305v-158l-635 424v72l635 426v-160z" glyph-name="guillemotleft" horiz-adv-x="1495" unicode="«"/><glyph d="M1059 625v-465h-154v311h-721v154h875z" glyph-name="logicalnot" horiz-adv-x="1222" unicode="¬"/><glyph d="M123 614h717v-133h-717v133z" glyph-name="uni00AD" horiz-adv-x="962" unicode="­"/><glyph d="M82 836q0 256 182 437t438 181t437.5 -181t181.5 -437t-181.5 -438.5t-437.5 -182.5t-438 182.5t-182 438.5zM143 835.5q0 -231.5 164 -395.5t395.5 -164t395.5 164t164 395.5t-164 395.5t-395.5 164t-395.5 -164t-164 -395.5zM385 1214h348q113 0 179.5 -54t66.5 -128 t-43 -129t-119 -82q90 -27 135 -108l68 -123q25 -43 61 -51v-41h-245q-45 70 -72 131l-31 73q-39 82 -57 103h-31v-232q0 -18 9.5 -25t41.5 -9v-41h-311v41q33 2 42 9t9 25v564q0 20 -8 26t-43 11v40zM682 1163h-37v-297h27q53 0 69.5 34t16.5 110q0 153 -76 153z" glyph-name="registered" horiz-adv-x="1402" unicode="®"/><glyph d="M164 1255h635v-129h-635v129z" glyph-name="macron" horiz-adv-x="962" unicode="¯"/><glyph d="M61 1144q0 87 59.5 147.5t146.5 60.5t147.5 -60.5t60.5 -147.5t-60.5 -146.5t-147.5 -59.5t-146.5 59.5t-59.5 146.5zM160 1145q0 -45 31.5 -77t76.5 -32t77 32t32 78t-31 76.5t-77 30.5t-77.5 -31.5t-31.5 -76.5z" glyph-name="degree" horiz-adv-x="536" unicode="°"/><glyph d="M174 389h332v215h-332v133h332v334h133v-334h334v-133h-334v-215h334v-133h-799v133z" glyph-name="plusminus" horiz-adv-x="1146" unicode="±"/><glyph d="M282 1577q-37 0 -55 -18.5t-18 -37.5t15.5 -43t15.5 -42q0 -55 -86 -55.5t-86 67.5q0 80 74.5 141.5t195.5 61.5t198.5 -63.5t77.5 -170.5q0 -199 -338 -399h363v-178h-578v71q301 246 301 500q0 63 -21.5 114.5t-58.5 51.5z" glyph-name="uni00B2" horiz-adv-x="700" unicode="²"/><glyph d="M633 1050q0 -93 -89.5 -158t-211.5 -65t-196.5 61.5t-74.5 141.5q0 68 86 68t86 -56q0 -18 -15 -41t-15 -43t18.5 -38.5t56.5 -18.5t70.5 45t32.5 127t-35 115t-100 33v73q135 0 135 154q0 129 -86 129q-31 0 -49.5 -18.5t-18.5 -37.5t15.5 -43t15.5 -42q0 -55 -86 -55.5 t-86 67.5q0 80 75 141.5t193 61.5t186 -53.5t68 -129.5t-60.5 -132t-154.5 -70v-2q240 -28 240 -214z" glyph-name="uni00B3" horiz-adv-x="694" unicode="³"/><glyph d="M429 1503q54 0 83.5 -32.5t29.5 -75.5t-53 -82l-274 -187l-51 50l178 276q33 51 87 51z" glyph-name="acute" horiz-adv-x="706" unicode="´"/><glyph d="M768 788q0 55 -22.5 69.5t-120.5 23.5v71l501 92h41v-849q0 -53 16.5 -68.5t86.5 -24.5v-71l-441 -51h-41l-10 215h-10q-162 -215 -358 -215q-33 0 -60 6q-49 -416 -340 -416q-63 0 -108 33t-45 91t29.5 90t79.5 32t95 -43t67 -43t30 29.5t-13.5 174t-21.5 209.5v645 q0 53 -16.5 68.5t-86.5 24.5v71l461 92h41v-706q0 -113 92 -113q75 0 102 21.5t38.5 30t13.5 10.5v501z" glyph-name="uni00B5" horiz-adv-x="1280" unicode="µ"/><glyph d="M512 154v460q-229 0 -350 129t-121 299t110.5 281t278.5 111h358v-1434h-378v82q68 8 85 20.5t17 51.5zM901 0v1434h379v-82q-68 -8 -85 -20.5t-17 -51.5v-1126q0 -39 17 -51.5t85 -20.5v-82h-379z" glyph-name="paragraph" horiz-adv-x="1320" unicode="¶"/><glyph d="M201 509q0 67 48 116t115 49t115.5 -50t48.5 -116t-49 -114t-115 -48t-114.5 48t-48.5 115z" glyph-name="periodcentered" horiz-adv-x="729" unicode="·"/><glyph d="M326 0v-74q86 -10 151.5 -57t65.5 -145q0 -172 -361 -240l-18 110q66 14 97.5 38t31.5 72t-55 79l6 217h82z" glyph-name="cedilla" horiz-adv-x="706" unicode="¸"/><glyph d="M246 932v565l-178 -24l-7 43l388 135h49v-719q0 -25 24.5 -32t134.5 -11v-49h-577v49q113 4 139.5 11t26.5 32z" glyph-name="uni00B9" horiz-adv-x="718" unicode="¹"/><glyph d="M41 737h676v-92h-676v92zM376.5 807q-145.5 0 -235.5 91t-90 228.5t90 228.5t235.5 91t235.5 -91t90 -228.5t-90 -228.5t-235.5 -91zM377 1372q-74 0 -74 -245.5t74 -245.5t74 245.5t-74 245.5z" glyph-name="ordmasculine" horiz-adv-x="757" unicode="º"/><glyph d="M950 551l-264 299v160l635 -426v-72l-635 -424v158zM438 551l-264 299v160l635 -426v-72l-635 -424v158z" glyph-name="guillemotright" horiz-adv-x="1495" unicode="»"/><glyph d="M1360 0v197h-320v30l412 584h160v-541h67v-73h-67v-197h-252zM246 727v565l-178 -24l-7 43l388 135h49v-719q0 -25 24.5 -32t134.5 -11v-49h-577v49q113 4 139.5 11t26.5 32zM1114 1454h90l-491 -1474h-92zM1360 270v301l-217 -301h217z" glyph-name="onequarter" horiz-adv-x="1740" unicode="¼"/><glyph d="M246 727v565l-178 -24l-7 43l388 135h49v-719q0 -25 24.5 -32t134.5 -11v-49h-577v49q113 4 139.5 11t26.5 32zM1323 737q-37 0 -55.5 -18.5t-18.5 -37.5t15.5 -43t15.5 -42q0 -55 -86 -55t-86 67q0 80 74.5 141.5t195.5 61.5t199 -63.5t78 -169.5q0 -199 -338 -400h362 v-178h-577v72q301 246 301 499q0 63 -21.5 114.5t-58.5 51.5zM1114 1454h90l-491 -1474h-92z" glyph-name="onehalf" horiz-adv-x="1740" unicode="½"/><glyph d="M1360 0v197h-320v30l412 584h160v-541h67v-73h-67v-197h-252zM633 845q0 -93 -89.5 -157.5t-211.5 -64.5t-196.5 61t-74.5 141q0 68 86 68t86 -55q0 -18 -15 -42t-15 -44t18.5 -38t56.5 -18t70.5 45t32.5 127t-35 115t-100 33v74q135 0 135 153q0 129 -86 129 q-31 0 -49.5 -18.5t-18.5 -37.5t15.5 -43t15.5 -42q0 -55 -86 -55t-86 67q0 80 75 141.5t193 61.5t186 -54t68 -130t-60.5 -131.5t-154.5 -69.5v-2q240 -28 240 -214zM1114 1454h90l-491 -1474h-92zM1360 270v301l-217 -301h217z" glyph-name="threequarters" horiz-adv-x="1740" unicode="¾"/><glyph d="M645 -307q51 0 82 30.5t31 63.5t-25.5 71t-25.5 78t43.5 62t107.5 22t99.5 -31.5t35.5 -80.5q0 -133 -125.5 -235.5t-325.5 -102.5t-330 105.5t-130 274.5t122 276.5t296 162.5l20 236h103l39 -277q-160 -123 -160 -379q0 -106 36.5 -191t106.5 -85zM737 882 q0 -67 -48 -116t-115 -49t-115.5 49t-48.5 116t49 114.5t115 47.5t114.5 -47.5t48.5 -114.5z" glyph-name="questiondown" horiz-adv-x="1054" unicode="¿"/><glyph d="M371 1808q0 49 31.5 83t88.5 34t93 -55l196 -305l-51 -49l-303 206q-55 37 -55 86zM1434 0h-656v82q70 8 89.5 30.5t-3.5 102.5l-71 195h-414l-51 -164q-29 -88 7 -118t167 -46v-82h-492v82q88 16 117 33.5t47 79.5l395 1249h260l482 -1270q18 -49 37.5 -62.5t85.5 -29.5 v-82zM567 1014l-151 -482h332l-177 482h-4z" glyph-name="Agrave" horiz-adv-x="1443" unicode="À"/><glyph d="M905 1925q57 0 89 -33.5t32 -83.5t-55 -86l-303 -206l-52 49l197 305q35 55 92 55zM1434 0h-656v82q70 8 89.5 30.5t-3.5 102.5l-71 195h-414l-51 -164q-29 -88 7 -118t167 -46v-82h-492v82q88 16 117 33.5t47 79.5l395 1249h260l482 -1270q18 -49 37.5 -62.5t85.5 -29.5 v-82zM567 1014l-151 -482h332l-177 482h-4z" glyph-name="Aacute" horiz-adv-x="1443" unicode="Á"/><glyph d="M686 1649l-205 -133h-133l256 368h164l256 -368h-133zM1434 0h-656v82q70 8 89.5 30.5t-3.5 102.5l-71 195h-414l-51 -164q-29 -88 7 -118t167 -46v-82h-492v82q88 16 117 33.5t47 79.5l395 1249h260l482 -1270q18 -49 37.5 -62.5t85.5 -29.5v-82zM567 1014l-151 -482 h332l-177 482h-4z" glyph-name="Acircumflex" horiz-adv-x="1443" unicode="Â"/><glyph d="M549 1864q35 0 161 -41t175 -41q92 0 143 51l92 -51q-45 -90 -118.5 -178t-145.5 -88q-43 0 -162 41t-175 41t-146 -72l-92 51q61 119 134.5 203t133.5 84zM1434 0h-656v82q70 8 89.5 30.5t-3.5 102.5l-71 195h-414l-51 -164q-29 -88 7 -118t167 -46v-82h-492v82 q88 16 117 33.5t47 79.5l395 1249h260l482 -1270q18 -49 37.5 -62.5t85.5 -29.5v-82zM567 1014l-151 -482h332l-177 482h-4z" glyph-name="Atilde" horiz-adv-x="1443" unicode="Ã"/><glyph d="M348 1648.5q0 63.5 41 103.5t102 40t102.5 -40t41.5 -103.5t-41.5 -102.5t-103.5 -39t-102 39t-40 102.5zM748 1648q0 62 41.5 103t103 41t102.5 -41t41 -103t-41 -101.5t-103 -39.5t-103 39.5t-41 101.5zM1434 0h-656v82q70 8 89.5 30.5t-3.5 102.5l-71 195h-414 l-51 -164q-29 -88 7 -118t167 -46v-82h-492v82q88 16 117 33.5t47 79.5l395 1249h260l482 -1270q18 -49 37.5 -62.5t85.5 -29.5v-82zM567 1014l-151 -482h332l-177 482h-4z" glyph-name="Adieresis" horiz-adv-x="1443" unicode="Ä"/><glyph d="M489 1597q0 95 59.5 155t146.5 60t147.5 -60t60.5 -154t-74 -154l482 -1270q18 -49 37.5 -62.5t85.5 -29.5v-82h-656v82q70 8 89.5 30.5t-3.5 102.5l-71 195h-414l-51 -164q-29 -88 7 -118t167 -46v-82h-492v82q88 16 117 33.5t47 79.5l393 1245q-78 62 -78 157z M567 1014l-151 -482h332l-177 482h-4zM588 1606q0 -45 31.5 -77t76.5 -32t77 32t32 77t-32 76.5t-77 31.5t-76.5 -31.5t-31.5 -76.5z" glyph-name="Aring" horiz-adv-x="1443" unicode="Å"/><glyph d="M799 154v276h-320l-100 -184q-78 -139 123 -164v-82h-492v82q96 18 140.5 38.5t74.5 74.5l676 1239h891l10 -359h-82q-59 256 -286 256h-215v-532h81q193 0 216 205h81v-533h-81q-23 205 -216 205h-81v-574h215q113 0 189.5 57.5t127.5 198.5h82l-21 -358h-1116v82 q68 8 85.5 20.5t17.5 51.5zM799 1006h-4l-248 -453h252v453z" glyph-name="AE" horiz-adv-x="1873" unicode="Æ"/><glyph d="M854 102q164 0 246 86t119 232h81l-20 -318q-193 -121 -420 -122v-62q88 -10 163 -63.5t75 -151.5q0 -193 -391 -266l-21 112q154 31 154 123q0 61 -72 97l6 215q-311 23 -512 226.5t-201 515.5t224.5 520t564.5 208q233 0 430 -123l20 -317h-81q-37 145 -119 231 t-246 86t-258 -147.5t-94 -467t94 -467t258 -147.5z" glyph-name="Ccedilla" horiz-adv-x="1361" unicode="Ç"/><glyph d="M328 1808q0 49 31.5 83t88.5 34t93 -55l196 -305l-51 -49l-303 206q-55 37 -55 86zM778 1331h-215v-532h82q193 0 215 205h82v-533h-82q-23 205 -215 205h-82v-574h215q113 0 189.5 57.5t128.5 198.5h82l-21 -358h-1116v82q68 8 85 20.5t17 51.5v1126q0 39 -17 51t-85 21 v82h1096l10 -359h-82q-59 256 -287 256z" glyph-name="Egrave" unicode="È"/><glyph d="M883 1925q57 0 89 -33.5t32 -83.5t-56 -86l-303 -206l-51 49l197 305q35 55 92 55zM778 1331h-215v-532h82q193 0 215 205h82v-533h-82q-23 205 -215 205h-82v-574h215q113 0 189.5 57.5t128.5 198.5h82l-21 -358h-1116v82q68 8 85 20.5t17 51.5v1126q0 39 -17 51t-85 21 v82h1096l10 -359h-82q-59 256 -287 256z" glyph-name="Eacute" unicode="É"/><glyph d="M635 1649l-205 -133h-133l256 368h164l256 -368h-133zM778 1331h-215v-532h82q193 0 215 205h82v-533h-82q-23 205 -215 205h-82v-574h215q113 0 189.5 57.5t128.5 198.5h82l-21 -358h-1116v82q68 8 85 20.5t17 51.5v1126q0 39 -17 51t-85 21v82h1096l10 -359h-82 q-59 256 -287 256z" glyph-name="Ecircumflex" unicode="Ê"/><glyph d="M291 1648.5q0 63.5 41 103.5t102 40t102.5 -40t41.5 -103.5t-41 -102.5t-103 -39t-102.5 39t-40.5 102.5zM690 1648q0 62 42 103t103.5 41t102.5 -41t41 -103t-41 -101.5t-103 -39.5t-103.5 39.5t-41.5 101.5zM778 1331h-215v-532h82q193 0 215 205h82v-533h-82 q-23 205 -215 205h-82v-574h215q113 0 189.5 57.5t128.5 198.5h82l-21 -358h-1116v82q68 8 85 20.5t17 51.5v1126q0 39 -17 51t-85 21v82h1096l10 -359h-82q-59 256 -287 256z" glyph-name="Edieresis" unicode="Ë"/><glyph d="M141 1925q57 0 92 -55l197 -305l-51 -49l-303 206q-56 37 -56 86t32 83t89 34zM143 154v1126q0 39 -17 51t-85 21v82h625v-82q-68 -8 -85.5 -20.5t-17.5 -51.5v-1126q0 -39 17.5 -51.5t85.5 -20.5v-82h-625v82q68 8 85 20.5t17 51.5z" glyph-name="Igrave" horiz-adv-x="706" unicode="Ì"/><glyph d="M596 1925q57 0 89 -33.5t32 -83.5t-55 -86l-304 -206l-51 49l197 305q35 55 92 55zM143 154v1126q0 39 -17 51t-85 21v82h625v-82q-68 -8 -85.5 -20.5t-17.5 -51.5v-1126q0 -39 17.5 -51.5t85.5 -20.5v-82h-625v82q68 8 85 20.5t17 51.5z" glyph-name="Iacute" horiz-adv-x="706" unicode="Í"/><glyph d="M352 1649l-205 -133h-133l256 368h164l256 -368h-133zM143 154v1126q0 39 -17 51t-85 21v82h625v-82q-68 -8 -85.5 -20.5t-17.5 -51.5v-1126q0 -39 17.5 -51.5t85.5 -20.5v-82h-625v82q68 8 85 20.5t17 51.5z" glyph-name="Icircumflex" horiz-adv-x="706" unicode="Î"/><glyph d="M8 1648.5q0 63.5 41 103.5t103 40t102.5 -40t40.5 -103.5t-41 -102.5t-103 -39t-102.5 39t-40.5 102.5zM408 1648q0 62 42 103t103 41t102 -41t41 -103t-41 -101.5t-103 -39.5t-103 39.5t-41 101.5zM139 154v1126q0 39 -17.5 51t-84.5 21v82h625v-82q-68 -8 -85.5 -20.5 t-17.5 -51.5v-1126q0 -39 17.5 -51.5t85.5 -20.5v-82h-625v82q68 8 85 20.5t17 51.5z" glyph-name="Idieresis" horiz-adv-x="706" unicode="Ï"/><glyph d="M707 0h-666v82q68 8 85 20.5t17 51.5v516h-92v102h92v508q0 39 -17 51t-85 21v82h666q201 0 374.5 -88.5t283.5 -254t110 -374.5t-110 -375t-283.5 -254t-374.5 -88zM563 102h144q184 0 255.5 152t71.5 463t-71.5 462.5t-255.5 151.5h-144v-559h144v-102h-144v-568z" glyph-name="Eth" horiz-adv-x="1536" unicode="Ð"/><glyph d="M647 1864q35 0 161 -41t175 -41q92 0 143 51l93 -51q-45 -90 -119 -178t-146 -88q-43 0 -161.5 41t-174.5 41t-147 -72l-92 51q61 119 135 203t133 84zM1300 -10h-225l-737 1106v-942q0 -39 25.5 -51.5t138.5 -20.5v-82h-461v82q113 8 138.5 20.5t25.5 51.5v1126 q0 39 -25.5 51t-138.5 21v82h584l542 -789v635q0 39 -25.5 51t-137.5 21v82h460v-82q-113 -8 -138.5 -20.5t-25.5 -51.5v-1290z" glyph-name="Ntilde" horiz-adv-x="1533" unicode="Ñ"/><glyph d="M502 1808q0 49 31.5 83t88.5 34t93 -55l196 -305l-51 -49l-303 206q-55 37 -55 86zM829.5 -20q-307.5 0 -538 210.5t-230.5 526t230.5 526.5t538 211t537.5 -211t230 -526.5t-230 -526t-537.5 -210.5zM829.5 1331q-184.5 0 -256 -151.5t-71.5 -462.5t71.5 -463t256 -152 t256 152t71.5 463t-71.5 462.5t-256 151.5z" glyph-name="Ograve" horiz-adv-x="1658" unicode="Ò"/><glyph d="M1092 1925q58 0 89 -33.5t31 -83.5t-55 -86l-303 -206l-51 49l196 305q35 55 93 55zM829.5 -20q-307.5 0 -538 210.5t-230.5 526t230.5 526.5t538 211t537.5 -211t230 -526.5t-230 -526t-537.5 -210.5zM829.5 1331q-184.5 0 -256 -151.5t-71.5 -462.5t71.5 -463t256 -152 t256 152t71.5 463t-71.5 462.5t-256 151.5z" glyph-name="Oacute" horiz-adv-x="1658" unicode="Ó"/><glyph d="M829 1649l-204 -133h-133l256 368h163l256 -368h-133zM829.5 -20q-307.5 0 -538 210.5t-230.5 526t230.5 526.5t538 211t537.5 -211t230 -526.5t-230 -526t-537.5 -210.5zM829.5 1331q-184.5 0 -256 -151.5t-71.5 -462.5t71.5 -463t256 -152t256 152t71.5 463 t-71.5 462.5t-256 151.5z" glyph-name="Ocircumflex" horiz-adv-x="1658" unicode="Ô"/><glyph d="M698 1864q35 0 161 -41t175 -41q92 0 144 51l92 -51q-45 -90 -119 -178t-145 -88q-43 0 -162.5 41t-175.5 41t-146 -72l-92 51q61 119 135 203t133 84zM829.5 -20q-307.5 0 -538 210.5t-230.5 526t230.5 526.5t538 211t537.5 -211t230 -526.5t-230 -526t-537.5 -210.5z M829.5 1331q-184.5 0 -256 -151.5t-71.5 -462.5t71.5 -463t256 -152t256 152t71.5 463t-71.5 462.5t-256 151.5z" glyph-name="Otilde" horiz-adv-x="1658" unicode="Õ"/><glyph d="M485 1648.5q0 63.5 40.5 103.5t102.5 40t103 -40t41 -103.5t-41 -102.5t-103 -39t-102.5 39t-40.5 102.5zM885 1648q0 62 42 103t103.5 41t102.5 -41t41 -103t-41 -101.5t-103 -39.5t-103.5 39.5t-41.5 101.5zM829.5 -20q-307.5 0 -538 210.5t-230.5 526t230.5 526.5 t538 211t537.5 -211t230 -526.5t-230 -526t-537.5 -210.5zM829.5 1331q-184.5 0 -256 -151.5t-71.5 -462.5t71.5 -463t256 -152t256 152t71.5 463t-71.5 462.5t-256 151.5z" glyph-name="Odieresis" horiz-adv-x="1658" unicode="Ö"/><glyph d="M952 969l-309 -310l309 -309l-82 -80l-309 308l-307 -308l-80 82l307 307l-307 308l80 82l307 -308l309 308z" glyph-name="multiply" horiz-adv-x="1126" unicode="×"/><glyph d="M829 -20q-115 0 -239 36l-45 -98h-144l68 150q-184 94 -296 265t-112 384q0 315 230.5 526t537.5 211q123 0 246 -41l45 103h142l-68 -152q182 -94 292.5 -265t110.5 -382q0 -315 -230.5 -526t-537.5 -211zM829 1331q-184 0 -255.5 -151.5t-71.5 -455.5t61 -448l449 998 q-74 57 -183 57zM829 102q184 0 256 152t72 453t-59 444l-447 -995q72 -54 178 -54z" glyph-name="Oslash" horiz-adv-x="1658" unicode="Ø"/><glyph d="M553 1808q0 49 31.5 83t89.5 34t92 -55l197 -305l-52 -49l-303 206q-55 37 -55 86zM143 553v727q0 39 -17 51t-85 21v82h625v-82q-68 -8 -85.5 -20.5t-17.5 -51.5v-707q0 -193 86 -285.5t232 -92.5q348 0 348 378v707q0 39 -29 51t-156 21v82h482v-82 q-113 -8 -138.5 -20.5t-25.5 -51.5v-727q0 -270 -159 -421.5t-415 -151.5q-311 0 -478 152.5t-167 420.5z" glyph-name="Ugrave" horiz-adv-x="1536" unicode="Ù"/><glyph d="M1044 1925q58 0 89.5 -33.5t31.5 -83.5t-55 -86l-303 -206l-51 49l196 305q34 55 92 55zM143 553v727q0 39 -17 51t-85 21v82h625v-82q-68 -8 -85.5 -20.5t-17.5 -51.5v-707q0 -193 86 -285.5t232 -92.5q348 0 348 378v707q0 39 -29 51t-156 21v82h482v-82 q-113 -8 -138.5 -20.5t-25.5 -51.5v-727q0 -270 -159 -421.5t-415 -151.5q-311 0 -478 152.5t-167 420.5z" glyph-name="Uacute" horiz-adv-x="1536" unicode="Ú"/><glyph d="M838 1649l-205 -133h-133l256 368h164l256 -368h-134zM143 553v727q0 39 -17 51t-85 21v82h625v-82q-68 -8 -85.5 -20.5t-17.5 -51.5v-707q0 -193 86 -285.5t232 -92.5q348 0 348 378v707q0 39 -29 51t-156 21v82h482v-82q-113 -8 -138.5 -20.5t-25.5 -51.5v-727 q0 -270 -159 -421.5t-415 -151.5q-311 0 -478 152.5t-167 420.5z" glyph-name="Ucircumflex" horiz-adv-x="1536" unicode="Û"/><glyph d="M510 1648.5q0 63.5 40 103.5t102 40t103.5 -40t41.5 -103.5t-41.5 -102.5t-103.5 -39t-102 39t-40 102.5zM909 1648q0 62 42 103t103.5 41t102.5 -41t41 -103t-41 -101.5t-103 -39.5t-103.5 39.5t-41.5 101.5zM143 553v727q0 39 -17 51t-85 21v82h625v-82 q-68 -8 -85.5 -20.5t-17.5 -51.5v-707q0 -193 86 -285.5t232 -92.5q348 0 348 378v707q0 39 -29 51t-156 21v82h482v-82q-113 -8 -138.5 -20.5t-25.5 -51.5v-727q0 -270 -159 -421.5t-415 -151.5q-311 0 -478 152.5t-167 420.5z" glyph-name="Udieresis" horiz-adv-x="1536" unicode="Ü"/><glyph d="M966 1925q58 0 89.5 -33.5t31.5 -83.5t-55 -86l-303 -206l-51 49l196 305q34 55 92 55zM492 154v419l-369 687q-23 43 -48.5 64.5t-74.5 27.5v82h655v-82q-111 -13 -107.5 -55t21.5 -78l252 -492h4l199 461q39 90 14.5 118.5t-147.5 45.5v82h491v-82 q-141 -27 -165.5 -54.5t-38.5 -58.5l-267 -600v-485q0 -39 17.5 -51.5t85.5 -20.5v-82h-625v82q68 8 85.5 20.5t17.5 51.5z" glyph-name="Yacute" horiz-adv-x="1382" unicode="Ý"/><glyph d="M143 154v1126q0 39 -17 51t-85 21v82h625v-82q-68 -8 -85.5 -20.5t-17.5 -51.5v-133h195q227 0 359 -108.5t132 -278.5t-101 -270.5t-220 -141.5t-273 -41h-92v-153q0 -39 17.5 -51.5t85.5 -20.5v-82h-625v82q68 8 85 20.5t17 51.5zM655 1044h-92v-614h72q106 0 140 76 t34 221q0 317 -154 317z" glyph-name="Thorn" horiz-adv-x="1269" unicode="Þ"/><glyph d="M1085 1243q0 -68 -39.5 -124t-88 -89t-88.5 -82t-40 -98t46.5 -91t113 -82t133 -86t112.5 -120t46 -164q0 -145 -114 -236t-284 -91t-278 71l-20 277h82q78 -236 190 -236q39 0 62.5 25.5t23.5 72.5t-53 98.5t-115.5 88.5t-116 102.5t-53.5 147.5t41 167t82 177t41 196 q0 205 -113 205q-74 0 -98.5 -71.5t-24.5 -235.5v-1065h-501v72q68 8 85 20t17 51v748h-102v92l102 41v20q0 111 50 200t172.5 170t324.5 81q201 0 303 -76t102 -176z" glyph-name="germandbls" horiz-adv-x="1310" unicode="ß"/><glyph d="M973 205q0 -41 41 -41q27 0 61 20l10 -82q-152 -123 -321 -122q-92 0 -141.5 40.5t-49.5 102.5v20h-4q-92 -164 -282 -163q-113 0 -179.5 70t-66.5 182t121 209.5t411 111.5v184q0 70 -37.5 122t-101.5 52t-95.5 -31.5t-31.5 -64.5t25.5 -70.5t25.5 -72.5t-41 -61.5 t-102 -26.5t-102 27.5t-41 84.5q0 111 136 229.5t338 118.5t316.5 -91t110.5 -226v-522zM449 326q0 -90 73 -90q31 0 51 20v195q-51 -8 -87.5 -43.5t-36.5 -81.5zM256 1395q0 43 30 75.5t84 32.5t87 -51l178 -276l-51 -50l-275 187q-53 39 -53 82z" glyph-name="agrave" horiz-adv-x="1095" unicode="à"/><glyph d="M973 205q0 -41 41 -41q27 0 61 20l10 -82q-152 -123 -321 -122q-92 0 -141.5 40.5t-49.5 102.5v20h-4q-92 -164 -282 -163q-113 0 -179.5 70t-66.5 182t121 209.5t411 111.5v184q0 70 -37.5 122t-101.5 52t-95.5 -31.5t-31.5 -64.5t25.5 -70.5t25.5 -72.5t-41 -61.5 t-102 -26.5t-102 27.5t-41 84.5q0 111 136 229.5t338 118.5t316.5 -91t110.5 -226v-522zM449 326q0 -90 73 -90q31 0 51 20v195q-51 -8 -87.5 -43.5t-36.5 -81.5zM736 1503q54 0 84 -32.5t30 -75.5t-53 -82l-275 -187l-51 50l178 276q33 51 87 51z" glyph-name="aacute" horiz-adv-x="1095" unicode="á"/><glyph d="M973 205q0 -41 41 -41q27 0 61 20l10 -82q-152 -123 -321 -122q-92 0 -141.5 40.5t-49.5 102.5v20h-4q-92 -164 -282 -163q-113 0 -179.5 70t-66.5 182t121 209.5t411 111.5v184q0 70 -37.5 122t-101.5 52t-95.5 -31.5t-31.5 -64.5t25.5 -70.5t25.5 -72.5t-41 -61.5 t-102 -26.5t-102 27.5t-41 84.5q0 111 136 229.5t338 118.5t316.5 -91t110.5 -226v-522zM449 326q0 -90 73 -90q31 0 51 20v195q-51 -8 -87.5 -43.5t-36.5 -81.5zM537 1237l-181 -111h-133l232 332h163l232 -332h-133z" glyph-name="acircumflex" horiz-adv-x="1095" unicode="â"/><glyph d="M973 205q0 -41 41 -41q27 0 61 20l10 -82q-152 -123 -321 -122q-92 0 -141.5 40.5t-49.5 102.5v20h-4q-92 -164 -282 -163q-113 0 -179.5 70t-66.5 182t121 209.5t411 111.5v184q0 70 -37.5 122t-101.5 52t-95.5 -31.5t-31.5 -64.5t25.5 -70.5t25.5 -72.5t-41 -61.5 t-102 -26.5t-102 27.5t-41 84.5q0 111 136 229.5t338 118.5t316.5 -91t110.5 -226v-522zM449 326q0 -90 73 -90q31 0 51 20v195q-51 -8 -87.5 -43.5t-36.5 -81.5zM430 1456q37 0 148.5 -37t146.5 -37q96 0 139 43l92 -51q-39 -78 -111.5 -163t-121.5 -85t-157 37t-140 37 q-55 0 -64 -5l-88 -56l-92 51q39 82 116 174t132 92z" glyph-name="atilde" horiz-adv-x="1095" unicode="ã"/><glyph d="M973 205q0 -41 41 -41q27 0 61 20l10 -82q-152 -123 -321 -122q-92 0 -141.5 40.5t-49.5 102.5v20h-4q-92 -164 -282 -163q-113 0 -179.5 70t-66.5 182t121 209.5t411 111.5v184q0 70 -37.5 122t-101.5 52t-95.5 -31.5t-31.5 -64.5t25.5 -70.5t25.5 -72.5t-41 -61.5 t-102 -26.5t-102 27.5t-41 84.5q0 111 136 229.5t338 118.5t316.5 -91t110.5 -226v-522zM449 326q0 -90 73 -90q31 0 51 20v195q-51 -8 -87.5 -43.5t-36.5 -81.5zM227 1259q0 58 38 96t96 38t96.5 -38t38.5 -97t-38 -95.5t-96 -36.5t-96.5 37.5t-38.5 95.5zM588 1259 q0 58 39 96t96 38t96 -38t39 -96t-39 -95.5t-96 -37.5t-96 37.5t-39 95.5z" glyph-name="adieresis" horiz-adv-x="1095" unicode="ä"/><glyph d="M973 205q0 -41 41 -41q27 0 61 20l10 -82q-152 -123 -321 -122q-92 0 -141.5 40.5t-49.5 102.5v20h-4q-92 -164 -282 -163q-113 0 -179.5 70t-66.5 182t121 209.5t411 111.5v184q0 70 -37.5 122t-101.5 52t-95.5 -31.5t-31.5 -64.5t25.5 -70.5t25.5 -72.5t-41 -61.5 t-102 -26.5t-102 27.5t-41 84.5q0 111 136 229.5t338 118.5t316.5 -91t110.5 -226v-522zM449 326q0 -90 73 -90q31 0 51 20v195q-51 -8 -87.5 -43.5t-36.5 -81.5zM360 1316q0 81 54.5 136t135.5 55t136 -55t55 -136t-55 -135.5t-136 -54.5t-135.5 54.5t-54.5 135.5z M455 1318q0 -40 28.5 -68.5t68.5 -28.5t67.5 28.5t27.5 68.5t-27.5 67.5t-68.5 27.5t-68.5 -27.5t-27.5 -67.5z" glyph-name="aring" horiz-adv-x="1095" unicode="å"/><glyph d="M1141 1044q167 0 286 -85t119 -263q0 -53 -12 -123h-561v-20q0 -170 88 -254t211 -84t233 61l41 -98q-80 -90 -155 -131q-125 -68 -285 -67q-291 0 -438 204q-162 -205 -381 -204q-113 0 -179.5 70t-66.5 182t121 209.5t411 111.5v184q0 70 -37.5 122t-101.5 52 t-95.5 -31.5t-31.5 -64.5t25.5 -70.5t25.5 -72.5t-41 -61.5t-102 -26.5t-102 27.5t-41 84.5q0 111 136 229.5t326 118.5t308 -77q132 77 299 77zM1116 922q-117 0 -137 -215h215q14 43 14 92q0 123 -92 123zM449 317q0 -81 79 -81q41 0 82 57q-29 68 -35 160 q-59 -12 -92.5 -47t-33.5 -89z" glyph-name="ae" horiz-adv-x="1576" unicode="æ"/><glyph d="M614 922q-174 0 -174 -390q0 -170 82 -243.5t206 -73.5t235 61l41 -98q-82 -92 -166 -137q-117 -59 -267 -61v-54q86 -10 151.5 -57t65.5 -145q0 -172 -360 -240l-18 110q66 14 97.5 38t31.5 72t-56 79l6 201q-219 23 -338.5 167.5t-119.5 330.5t86 313t210 188t257 61 q190 0 294.5 -88t104.5 -188q0 -63 -41 -108.5t-120 -45.5t-112.5 28t-33.5 60t20.5 65t20.5 67t-29 61t-74 27z" glyph-name="ccedilla" horiz-adv-x="1024" unicode="ç"/><glyph d="M608 1044q158 0 277 -85t119 -263q0 -53 -13 -123h-561v-20q0 -170 88 -254t211 -84t234 61l41 -98q-80 -90 -156 -131q-125 -68 -285 -67q-254 0 -393 150.5t-139 371.5q0 166 86 293t209.5 188t281.5 61zM573 922q-117 0 -137 -215h215q14 43 15 92q-1 123 -93 123z M281 1395q0 43 29.5 75.5t83.5 32.5t87 -51l178 -276l-51 -50l-274 187q-53 39 -53 82z" glyph-name="egrave" horiz-adv-x="1034" unicode="è"/><glyph d="M608 1044q158 0 277 -85t119 -263q0 -53 -13 -123h-561v-20q0 -170 88 -254t211 -84t234 61l41 -98q-80 -90 -156 -131q-125 -68 -285 -67q-254 0 -393 150.5t-139 371.5q0 166 86 293t209.5 188t281.5 61zM573 922q-117 0 -137 -215h215q14 43 15 92q-1 123 -93 123z M746 1503q54 0 84 -32.5t30 -75.5t-53 -82l-275 -187l-51 50l178 276q33 51 87 51z" glyph-name="eacute" horiz-adv-x="1034" unicode="é"/><glyph d="M608 1044q158 0 277 -85t119 -263q0 -53 -13 -123h-561v-20q0 -170 88 -254t211 -84t234 61l41 -98q-80 -90 -156 -131q-125 -68 -285 -67q-254 0 -393 150.5t-139 371.5q0 166 86 293t209.5 188t281.5 61zM573 922q-117 0 -137 -215h215q14 43 15 92q-1 123 -93 123z M559 1237l-180 -111h-133l231 332h164l231 -332h-133z" glyph-name="ecircumflex" horiz-adv-x="1034" unicode="ê"/><glyph d="M608 1044q158 0 277 -85t119 -263q0 -53 -13 -123h-561v-20q0 -170 88 -254t211 -84t234 61l41 -98q-80 -90 -156 -131q-125 -68 -285 -67q-254 0 -393 150.5t-139 371.5q0 166 86 293t209.5 188t281.5 61zM573 922q-117 0 -137 -215h215q14 43 15 92q-1 123 -93 123z M252 1259q0 58 38 96t96 38t96 -38t38 -97t-38 -95.5t-96 -36.5t-96 37.5t-38 95.5zM612 1259q0 58 39 96t96.5 38t96.5 -38t39 -96t-39 -95.5t-96.5 -37.5t-96.5 37.5t-39 95.5z" glyph-name="edieresis" horiz-adv-x="1034" unicode="ë"/><glyph d="M532 1044v-901q0 -39 17.5 -51t85.5 -20v-72h-604v72q68 8 85 20t17 51v645q0 53 -16.5 68.5t-85.5 24.5v71l461 92h40zM39 1395q0 43 29.5 75.5t83.5 32.5t88 -51l178 -276l-51 -50l-275 187q-53 39 -53 82z" glyph-name="igrave" horiz-adv-x="645" unicode="ì"/><glyph d="M532 1044v-901q0 -39 17.5 -51t85.5 -20v-72h-604v72q68 8 85 20t17 51v645q0 53 -16.5 68.5t-85.5 24.5v71l461 92h40zM532 1503q54 0 83.5 -32.5t29.5 -75.5t-53 -82l-275 -187l-51 50l178 276q34 51 88 51z" glyph-name="iacute" horiz-adv-x="645" unicode="í"/><glyph d="M324 1237l-181 -111h-133l232 332h164l231 -332h-133zM532 1044v-901q0 -39 17.5 -51t85.5 -20v-72h-604v72q68 8 85 20t17 51v645q0 53 -16.5 68.5t-85.5 24.5v71l461 92h40z" glyph-name="icircumflex" horiz-adv-x="645" unicode="î"/><glyph d="M532 1044v-901q0 -39 17.5 -51t85.5 -20v-72h-604v72q68 8 85 20t17 51v645q0 53 -16.5 68.5t-85.5 24.5v71l461 92h40zM12 1259q0 58 38 96t96 38t96.5 -38t38.5 -97t-38.5 -95.5t-96.5 -36.5t-96 37.5t-38 95.5zM373 1259q0 58 39 96t96 38t96 -38t39 -96t-39 -95.5 t-96 -37.5t-96 37.5t-39 95.5z" glyph-name="idieresis" horiz-adv-x="645" unicode="ï"/><glyph d="M1075 563q0 -264 -152.5 -423.5t-387.5 -159.5q-199 0 -351.5 127t-152.5 335t133 338.5t358 130.5q51 0 123 -12q-20 139 -88 260l-260 -104v112l197 78q-96 113 -248 158l30 92q212 -39 396 -178l291 117v-113l-201 -80q145 -137 229 -314t84 -364zM430 410 q0 -307 102 -308q59 0 91 127t32 287t-6 246q-31 6 -55 6q-164 0 -164 -358z" glyph-name="eth" horiz-adv-x="1105" unicode="ð"/><glyph d="M31 0v72q68 8 85 20t17 51v645q0 53 -16.5 68.5t-85.5 24.5v71l461 92h40l-10 -215h10q162 215 359 215q127 0 207 -74.5t80 -232.5v-594q0 -39 17 -51t85 -20v-72h-584v72q53 8 67.5 20t14.5 51v543q0 113 -92 113q-75 0 -110.5 -28.5t-43.5 -33.5v-594q0 -39 17.5 -51 t85.5 -20v-72h-604zM516 1456q37 0 148.5 -37t146.5 -37q96 0 139 43l92 -51q-39 -78 -111.5 -163t-121.5 -85t-157 37t-140 37q-55 0 -64 -5l-88 -56l-92 51q39 82 116 174t132 92z" glyph-name="ntilde" horiz-adv-x="1290" unicode="ñ"/><glyph d="M573.5 -20q-241.5 0 -392 152.5t-150.5 379.5t150.5 379.5t392 152.5t392 -152.5t150.5 -379.5t-150.5 -379.5t-392 -152.5zM573.5 922q-63.5 0 -93 -93.5t-29.5 -316.5t29.5 -316.5t93 -93.5t93 93.5t29.5 316.5t-29.5 316.5t-93 93.5zM244 1395q0 43 29.5 75.5 t83.5 32.5t87 -51l179 -276l-52 -50l-274 187q-53 39 -53 82z" glyph-name="ograve" horiz-adv-x="1146" unicode="ò"/><glyph d="M573.5 -20q-241.5 0 -392 152.5t-150.5 379.5t150.5 379.5t392 152.5t392 -152.5t150.5 -379.5t-150.5 -379.5t-392 -152.5zM573.5 922q-63.5 0 -93 -93.5t-29.5 -316.5t29.5 -316.5t93 -93.5t93 93.5t29.5 316.5t-29.5 316.5t-93 93.5zM755 1503q54 0 83.5 -32.5 t29.5 -75.5t-53 -82l-274 -187l-52 50l179 276q33 51 87 51z" glyph-name="oacute" horiz-adv-x="1146" unicode="ó"/><glyph d="M573.5 -20q-241.5 0 -392 152.5t-150.5 379.5t150.5 379.5t392 152.5t392 -152.5t150.5 -379.5t-150.5 -379.5t-392 -152.5zM573.5 922q-63.5 0 -93 -93.5t-29.5 -316.5t29.5 -316.5t93 -93.5t93 93.5t29.5 316.5t-29.5 316.5t-93 93.5zM573 1237l-180 -111h-133l232 332 h163l232 -332h-133z" glyph-name="ocircumflex" horiz-adv-x="1146" unicode="ô"/><glyph d="M573.5 -20q-241.5 0 -392 152.5t-150.5 379.5t150.5 379.5t392 152.5t392 -152.5t150.5 -379.5t-150.5 -379.5t-392 -152.5zM573.5 922q-63.5 0 -93 -93.5t-29.5 -316.5t29.5 -316.5t93 -93.5t93 93.5t29.5 316.5t-29.5 316.5t-93 93.5zM434 1456q37 0 148.5 -37 t146.5 -37q96 0 139 43l93 -51q-39 -78 -112 -163t-122 -85t-157 37t-140 37q-55 0 -75 -12t-76 -49l-93 51q39 82 116 174t132 92z" glyph-name="otilde" horiz-adv-x="1146" unicode="õ"/><glyph d="M573.5 -20q-241.5 0 -392 152.5t-150.5 379.5t150.5 379.5t392 152.5t392 -152.5t150.5 -379.5t-150.5 -379.5t-392 -152.5zM573.5 922q-63.5 0 -93 -93.5t-29.5 -316.5t29.5 -316.5t93 -93.5t93 93.5t29.5 316.5t-29.5 316.5t-93 93.5zM258 1259q0 58 38 96t96 38 t96 -38t38 -97t-38 -95.5t-96 -36.5t-96 37.5t-38 95.5zM618 1259q0 58 39 96t96.5 38t96.5 -38t39 -96t-39 -95.5t-96.5 -37.5t-96.5 37.5t-39 95.5z" glyph-name="odieresis" horiz-adv-x="1146" unicode="ö"/><glyph d="M430 368q0 62 45 107t107 45t108.5 -45t46.5 -107t-46 -108.5t-108 -46.5t-107.5 46.5t-45.5 108.5zM430 957q0 62 45 107.5t107 45.5t108.5 -45t46.5 -107t-46 -108.5t-108 -46.5t-107.5 46t-45.5 108zM174 729h799v-133h-799v133z" glyph-name="divide" horiz-adv-x="1146" unicode="÷"/><glyph d="M573 -20q-74 0 -145 16l-27 -78h-82l35 100q-150 59 -236.5 191.5t-86.5 302.5q0 227 150.5 379.5t391.5 152.5q74 0 132 -14l26 76h80l-33 -96q156 -57 247 -191.5t91 -306.5q0 -227 -150.5 -379.5t-392.5 -152.5zM573 102q123 0 123 368q0 181 -12 269l-197 -569 q29 -68 86 -68zM573 922q-122 0 -122 -356q0 -169 6 -247l192 551q-29 52 -76 52z" glyph-name="oslash" horiz-adv-x="1146" unicode="ø"/><glyph d="M768 788q0 55 -22.5 69.5t-120.5 23.5v71l501 92h41v-849q0 -53 16.5 -68.5t86.5 -24.5v-71l-441 -51h-41l-10 215h-10q-162 -215 -358 -215q-127 0 -207 74.5t-80 232.5v501q0 53 -16.5 68.5t-86.5 24.5v71l461 92h41v-706q0 -113 92 -113q75 0 102 21.5t38.5 30 t13.5 10.5v501zM299 1395q0 43 29.5 75.5t83.5 32.5t88 -51l178 -276l-51 -50l-275 187q-53 39 -53 82z" glyph-name="ugrave" horiz-adv-x="1280" unicode="ù"/><glyph d="M768 788q0 55 -22.5 69.5t-120.5 23.5v71l501 92h41v-849q0 -53 16.5 -68.5t86.5 -24.5v-71l-441 -51h-41l-10 215h-10q-162 -215 -358 -215q-127 0 -207 74.5t-80 232.5v501q0 53 -16.5 68.5t-86.5 24.5v71l461 92h41v-706q0 -113 92 -113q75 0 102 21.5t38.5 30 t13.5 10.5v501zM865 1503q54 0 84 -32.5t30 -75.5t-53 -82l-275 -187l-51 50l178 276q33 51 87 51z" glyph-name="uacute" horiz-adv-x="1280" unicode="ú"/><glyph d="M768 788q0 55 -22.5 69.5t-120.5 23.5v71l501 92h41v-849q0 -53 16.5 -68.5t86.5 -24.5v-71l-441 -51h-41l-10 215h-10q-162 -215 -358 -215q-127 0 -207 74.5t-80 232.5v501q0 53 -16.5 68.5t-86.5 24.5v71l461 92h41v-706q0 -113 92 -113q75 0 102 21.5t38.5 30 t13.5 10.5v501zM608 1237l-180 -111h-133l231 332h164l232 -332h-134z" glyph-name="ucircumflex" horiz-adv-x="1280" unicode="û"/><glyph d="M768 788q0 55 -22.5 69.5t-120.5 23.5v71l501 92h41v-849q0 -53 16.5 -68.5t86.5 -24.5v-71l-441 -51h-41l-10 215h-10q-162 -215 -358 -215q-127 0 -207 74.5t-80 232.5v501q0 53 -16.5 68.5t-86.5 24.5v71l461 92h41v-706q0 -113 92 -113q75 0 102 21.5t38.5 30 t13.5 10.5v501zM330 1259q0 58 38 96t96 38t96 -38t38 -97t-38 -95.5t-96 -36.5t-96 37.5t-38 95.5zM690 1259q0 58 39 96t96.5 38t96.5 -38t39 -96t-39 -95.5t-96.5 -37.5t-96.5 37.5t-39 95.5z" glyph-name="udieresis" horiz-adv-x="1280" unicode="ü"/><glyph d="M174 -430q-74 0 -124 36t-50 87t33 87t79 36t102 -20.5t89 -20.5q133 0 209 184l-420 911q-25 53 -36 63.5t-56 18.5v72h645v-72q-78 -8 -100.5 -29.5t-1.5 -72.5l172 -432h4l151 432q18 53 -7 73.5t-105 28.5v72h409v-72q-61 -12 -93.5 -22t-59.5 -80l-287 -778 q-184 -502 -553 -502zM906 1503q54 0 84 -32.5t30 -75.5t-53 -82l-275 -187l-51 50l178 276q33 51 87 51z" glyph-name="yacute" horiz-adv-x="1167" unicode="ý"/><glyph d="M1178 511q0 -237 -147.5 -384t-354.5 -147q-92 0 -174 40v-286q0 -39 17.5 -51.5t84.5 -20.5v-72h-604v72q68 8 85 20.5t17 51.5v1546q0 53 -16 68.5t-86 23.5v72l461 51h41l-10 -604h10q98 153 276 153t289 -148t111 -385zM584 840q-43 0 -82 -31v-471q0 -236 123 -236 q133 0 133 390q0 170 -48 259t-126 89z" glyph-name="thorn" horiz-adv-x="1208" unicode="þ"/><glyph d="M174 -430q-74 0 -124 36t-50 87t33 87t79 36t102 -20.5t89 -20.5q133 0 209 184l-420 911q-25 53 -36 63.5t-56 18.5v72h645v-72q-78 -8 -100.5 -29.5t-1.5 -72.5l172 -432h4l151 432q18 53 -7 73.5t-105 28.5v72h409v-72q-61 -12 -93.5 -22t-59.5 -80l-287 -778 q-184 -502 -553 -502zM346 1269q0 58 38 96t96 38t96 -38t38 -97t-38 -95t-96 -36t-96 37t-38 95zM707 1269q0 58 38.5 96t96 38t96.5 -38t39 -96t-39 -95t-96.5 -37t-96 37t-38.5 95z" glyph-name="ydieresis" horiz-adv-x="1167" unicode="ÿ"/><glyph d="M1434 0h-656v82q70 8 89.5 30.5t-3.5 102.5l-71 195h-414l-51 -164q-29 -88 7 -118t167 -46v-82h-492v82q88 16 117 33.5t47 79.5l395 1249h260l482 -1270q18 -49 37.5 -62.5t85.5 -29.5v-82zM567 1014l-151 -482h332l-177 482h-4zM352 1659h697v-133h-697v133z" glyph-name="Amacron" horiz-adv-x="1443" unicode="Ā"/><glyph d="M973 205q0 -41 41 -41q27 0 61 20l10 -82q-152 -123 -321 -122q-92 0 -141.5 40.5t-49.5 102.5v20h-4q-92 -164 -282 -163q-113 0 -179.5 70t-66.5 182t121 209.5t411 111.5v184q0 70 -37.5 122t-101.5 52t-95.5 -31.5t-31.5 -64.5t25.5 -70.5t25.5 -72.5t-41 -61.5 t-102 -26.5t-102 27.5t-41 84.5q0 111 136 229.5t338 118.5t316.5 -91t110.5 -226v-522zM449 326q0 -90 73 -90q31 0 51 20v195q-51 -8 -87.5 -43.5t-36.5 -81.5zM219 1255h635v-129h-635v129z" glyph-name="amacron" horiz-adv-x="1095" unicode="ā"/><glyph d="M1434 0h-656v82q70 8 89.5 30.5t-3.5 102.5l-71 195h-414l-51 -164q-29 -88 7 -118t167 -46v-82h-492v82q88 16 117 33.5t47 79.5l395 1249h260l482 -1270q18 -49 37.5 -62.5t85.5 -29.5v-82zM567 1014l-151 -482h332l-177 482h-4zM699 1536q-136 0 -210.5 96.5 t-74.5 212.5h129q27 -109 157 -109t158 109h129q0 -115 -76 -212t-212 -97z" glyph-name="Abreve" horiz-adv-x="1443" unicode="Ă"/><glyph d="M973 205q0 -41 41 -41q27 0 61 20l10 -82q-152 -123 -321 -122q-92 0 -141.5 40.5t-49.5 102.5v20h-4q-92 -164 -282 -163q-113 0 -179.5 70t-66.5 182t121 209.5t411 111.5v184q0 70 -37.5 122t-101.5 52t-95.5 -31.5t-31.5 -64.5t25.5 -70.5t25.5 -72.5t-41 -61.5 t-102 -26.5t-102 27.5t-41 84.5q0 111 136 229.5t338 118.5t316.5 -91t110.5 -226v-522zM449 326q0 -90 73 -90q31 0 51 20v195q-51 -8 -87.5 -43.5t-36.5 -81.5zM563 1126q-119 0 -190.5 85t-71.5 194h129q18 -88 133 -88t133 88h129q0 -109 -71.5 -194t-190.5 -85z" glyph-name="abreve" horiz-adv-x="1095" unicode="ă"/><glyph d="M1116 -492q-215 0 -215 193q0 72 54.5 151.5t150.5 147.5h-328v82q70 8 89.5 30.5t-3.5 102.5l-71 195h-414l-51 -164q-29 -88 7 -118t167 -46v-82h-492v82q88 16 117 33.5t47 79.5l395 1249h260l482 -1270q18 -49 37.5 -62.5t85.5 -29.5v-82h-215q-117 -106 -117 -229 q0 -74 51.5 -100.5t157.5 12.5v-93q-27 -35 -86.5 -58.5t-108.5 -23.5zM567 1014l-151 -482h332l-177 482h-4z" glyph-name="Aogonek" horiz-adv-x="1443" unicode="Ą"/><glyph d="M774 -446q-201 0 -201 176q0 129 160 252q-78 6 -119 45t-41 96v20h-4q-92 -164 -282 -163q-113 0 -179.5 70t-66.5 182t121 209.5t411 111.5v184q0 70 -37.5 122t-101.5 52t-95.5 -31.5t-31.5 -64.5t25.5 -70.5t25.5 -72.5t-41 -61.5t-102 -26.5t-102 27.5t-41 84.5 q0 111 136 229.5t338 118.5t316.5 -91t110.5 -226v-522q0 -41 41 -41q27 0 61 20l10 -82q-109 -90 -227 -112q-92 -96 -92 -195q0 -66 46 -88.5t142 12.5v-92q-23 -31 -79 -52t-101 -21zM449 326q0 -90 73 -90q31 0 51 20v195q-51 -8 -87.5 -43.5t-36.5 -81.5z" glyph-name="aogonek" horiz-adv-x="1095" unicode="ą"/><glyph d="M854 102q164 0 246 86t119 232h81l-20 -318q-197 -123 -430 -122q-340 0 -564.5 207.5t-224.5 529t224.5 529.5t564.5 208q233 0 430 -123l20 -317h-81q-37 145 -119 231t-246 86t-258 -147.5t-94 -467t94 -467t258 -147.5zM1036 1925q57 0 89 -33.5t32 -83.5t-55 -86 l-303 -206l-51 49l196 305q35 55 92 55z" glyph-name="Cacute" horiz-adv-x="1361" unicode="Ć"/><glyph d="M614 922q-174 0 -174 -390q0 -170 82 -243.5t206 -73.5t235 61l41 -98q-80 -90 -156 -131q-125 -68 -285 -67q-254 0 -393 150.5t-139 371.5q0 166 86 293t210 188t257 61q190 0 294.5 -88t104.5 -188q0 -63 -41 -108.5t-120 -45.5t-112.5 28t-33.5 60t20.5 65t20.5 67 t-29 61t-74 27zM765 1503q54 0 83.5 -32.5t29.5 -75.5t-53 -82l-274 -187l-51 50l178 276q33 51 87 51z" glyph-name="cacute" horiz-adv-x="1024" unicode="ć"/><glyph d="M854 102q164 0 246 86t119 232h81l-20 -318q-197 -123 -430 -122q-340 0 -564.5 207.5t-224.5 529t224.5 529.5t564.5 208q233 0 430 -123l20 -317h-81q-37 145 -119 231t-246 86t-258 -147.5t-94 -467t94 -467t258 -147.5zM836 1649l-205 -133h-133l256 368h164 l256 -368h-134z" glyph-name="Ccircumflex" horiz-adv-x="1361" unicode="Ĉ"/><glyph d="M614 922q-174 0 -174 -390q0 -170 82 -243.5t206 -73.5t235 61l41 -98q-80 -90 -156 -131q-125 -68 -285 -67q-254 0 -393 150.5t-139 371.5q0 166 86 293t210 188t257 61q190 0 294.5 -88t104.5 -188q0 -63 -41 -108.5t-120 -45.5t-112.5 28t-33.5 60t20.5 65t20.5 67 t-29 61t-74 27zM557 1237l-180 -111h-133l231 332h164l231 -332h-133z" glyph-name="ccircumflex" horiz-adv-x="1024" unicode="ĉ"/><glyph d="M854 102q164 0 246 86t119 232h81l-20 -318q-197 -123 -430 -122q-340 0 -564.5 207.5t-224.5 529t224.5 529.5t564.5 208q233 0 430 -123l20 -317h-81q-37 145 -119 231t-246 86t-258 -147.5t-94 -467t94 -467t258 -147.5zM690 1669.5q0 63.5 40 103t102 39.5 t103.5 -39.5t41.5 -103t-41.5 -102.5t-103.5 -39t-102 39t-40 102.5z" glyph-name="Cdotaccent" horiz-adv-x="1361" unicode="Ċ"/><glyph d="M614 922q-174 0 -174 -390q0 -170 82 -243.5t206 -73.5t235 61l41 -98q-80 -90 -156 -131q-125 -68 -285 -67q-254 0 -393 150.5t-139 371.5q0 166 86 293t210 188t257 61q190 0 294.5 -88t104.5 -188q0 -63 -41 -108.5t-120 -45.5t-112.5 28t-33.5 60t20.5 65t20.5 67 t-29 61t-74 27zM459 1267.5q0 63.5 41 103.5t102 40t102 -40t41 -103.5t-40.5 -102.5t-102.5 -39t-102.5 39t-40.5 102.5z" glyph-name="cdotaccent" horiz-adv-x="1024" unicode="ċ"/><glyph d="M854 102q164 0 246 86t119 232h81l-20 -318q-197 -123 -430 -122q-340 0 -564.5 207.5t-224.5 529t224.5 529.5t564.5 208q233 0 430 -123l20 -317h-81q-37 145 -119 231t-246 86t-258 -147.5t-94 -467t94 -467t258 -147.5zM590 1884l205 -133l204 133h134l-256 -368 h-164l-256 368h133z" glyph-name="Ccaron" horiz-adv-x="1361" unicode="Č"/><glyph d="M614 922q-174 0 -174 -390q0 -170 82 -243.5t206 -73.5t235 61l41 -98q-80 -90 -156 -131q-125 -68 -285 -67q-254 0 -393 150.5t-139 371.5q0 166 86 293t210 188t257 61q190 0 294.5 -88t104.5 -188q0 -63 -41 -108.5t-120 -45.5t-112.5 28t-33.5 60t20.5 65t20.5 67 t-29 61t-74 27zM406 1458l180 -110l180 110h133l-231 -332h-164l-232 332h134z" glyph-name="ccaron" horiz-adv-x="1024" unicode="č"/><glyph d="M563 102h144q184 0 255.5 152t71.5 463t-71.5 462.5t-255.5 151.5h-144v-1229zM707 0h-666v82q68 8 85 20.5t17 51.5v1126q0 39 -17 51t-85 21v82h666q201 0 374.5 -88.5t283.5 -254t110 -374.5t-110 -375t-283.5 -254t-374.5 -88zM479 1884l205 -133l205 133h133 l-256 -368h-164l-256 368h133z" glyph-name="Dcaron" horiz-adv-x="1556" unicode="Ď"/><glyph d="M625 184q43 0 82 31v471q0 236 -123 236q-133 0 -133 -390q0 -170 48 -259t126 -89zM1106 1495v-1300q0 -53 16.5 -68.5t85.5 -24.5v-71l-440 -51h-41l-10 153h-10q-99 -153 -277 -153t-288.5 148t-110.5 385t147.5 384t353.5 147q92 0 175 -40v276q0 53 -16.5 68.5 t-86.5 23.5v72l461 51h41zM1352 1495q184 0 184 -184q0 -113 -85 -195t-200 -123l-34 78q145 63 145 117q0 31 -33 31q-61 0 -101 35.5t-40 99t49 102.5t115 39z" glyph-name="dcaron" horiz-adv-x="1546" unicode="ď"/><glyph d="M707 0h-666v82q68 8 85 20.5t17 51.5v516h-92v102h92v508q0 39 -17 51t-85 21v82h666q201 0 374.5 -88.5t283.5 -254t110 -374.5t-110 -375t-283.5 -254t-374.5 -88zM563 102h144q184 0 255.5 152t71.5 463t-71.5 462.5t-255.5 151.5h-144v-559h144v-102h-144v-568z" glyph-name="Dcroat" horiz-adv-x="1536" unicode="Đ"/><glyph d="M1106 1495v-272h102v-103h-102v-925q0 -53 16.5 -68.5t85.5 -24.5v-71l-440 -51h-41l-10 153h-10q-99 -153 -277 -153t-288.5 148t-110.5 385t147.5 384t353.5 147q92 0 175 -40v116h-154v103h154v57q0 53 -16.5 68.5t-86.5 23.5v72l461 51h41zM625 184q43 0 82 31v471 q0 236 -123 236q-133 0 -133 -390q0 -170 48 -259t126 -89z" glyph-name="dcroat" horiz-adv-x="1218" unicode="đ"/><glyph d="M778 1331h-215v-532h82q193 0 215 205h82v-533h-82q-23 205 -215 205h-82v-574h215q113 0 189.5 57.5t128.5 198.5h82l-21 -358h-1116v82q68 8 85 20.5t17 51.5v1126q0 39 -17 51t-85 21v82h1096l10 -359h-82q-59 256 -287 256zM283 1659h696v-133h-696v133z" glyph-name="Emacron" horiz-adv-x="1218" unicode="Ē"/><glyph d="M608 1044q158 0 277 -85t119 -263q0 -53 -13 -123h-561v-20q0 -170 88 -254t211 -84t234 61l41 -98q-80 -90 -156 -131q-125 -68 -285 -67q-254 0 -393 150.5t-139 371.5q0 166 86 293t209.5 188t281.5 61zM573 922q-117 0 -137 -215h215q14 43 15 92q-1 123 -93 123z M238 1255h634v-129h-634v129z" glyph-name="emacron" horiz-adv-x="1034" unicode="ē"/><glyph d="M778 1331h-215v-532h82q193 0 215 205h82v-533h-82q-23 205 -215 205h-82v-574h215q113 0 189.5 57.5t128.5 198.5h82l-21 -358h-1116v82q68 8 85 20.5t17 51.5v1126q0 39 -17 51t-85 21v82h1096l10 -359h-82q-59 256 -287 256zM640 1536q-136 0 -211 96.5t-75 212.5h129 q27 -109 158 -109t158 109h129q0 -115 -76 -212t-212 -97z" glyph-name="Ebreve" horiz-adv-x="1218" unicode="Ĕ"/><glyph d="M608 1044q158 0 277 -85t119 -263q0 -53 -13 -123h-561v-20q0 -170 88 -254t211 -84t234 61l41 -98q-80 -90 -156 -131q-125 -68 -285 -67q-254 0 -393 150.5t-139 371.5q0 166 86 293t209.5 188t281.5 61zM573 922q-117 0 -137 -215h215q14 43 15 92q-1 123 -93 123z M583.5 1126q-118.5 0 -190 85t-71.5 194h129q18 -88 132.5 -88t133.5 88h129q0 -109 -72 -194t-190.5 -85z" glyph-name="ebreve" horiz-adv-x="1034" unicode="ĕ"/><glyph d="M778 1331h-215v-532h82q193 0 215 205h82v-533h-82q-23 205 -215 205h-82v-574h215q113 0 189.5 57.5t128.5 198.5h82l-21 -358h-1116v82q68 8 85 20.5t17 51.5v1126q0 39 -17 51t-85 21v82h1096l10 -359h-82q-59 256 -287 256zM500 1669.5q0 63.5 41 103t102 39.5 t102 -39.5t41 -103t-41 -102.5t-103 -39t-102 39t-40 102.5z" glyph-name="Edotaccent" horiz-adv-x="1218" unicode="Ė"/><glyph d="M608 1044q158 0 277 -85t119 -263q0 -53 -13 -123h-561v-20q0 -170 88 -254t211 -84t234 61l41 -98q-80 -90 -156 -131q-125 -68 -285 -67q-254 0 -393 150.5t-139 371.5q0 166 86 293t209.5 188t281.5 61zM573 922q-117 0 -137 -215h215q14 43 15 92q-1 123 -93 123z M440 1267.5q0 63.5 40 103.5t102 40t103.5 -40t41.5 -103.5t-41 -102.5t-103 -39t-102.5 39t-40.5 102.5z" glyph-name="edotaccent" horiz-adv-x="1034" unicode="ė"/><glyph d="M1055 -492q-215 0 -215 193q0 72 54 151.5t150 147.5h-1003v82q68 8 85 20.5t17 51.5v1126q0 39 -17 51t-85 21v82h1096l10 -359h-82q-59 256 -287 256h-215v-532h82q193 0 215 205h82v-533h-82q-23 205 -215 205h-82v-574h215q113 0 189.5 57.5t128.5 198.5h82l-21 -358 q-117 -106 -117 -229q0 -74 51.5 -100.5t157.5 12.5v-93q-27 -35 -86 -58.5t-108 -23.5z" glyph-name="Eogonek" horiz-adv-x="1218" unicode="Ę"/><glyph d="M563 -20q-254 0 -393 150.5t-139 371.5q0 166 86 293t209.5 188t281.5 61t277 -85t119 -263q0 -53 -13 -123h-561v-20q0 -170 88 -254t211 -84t234 61l41 -98q-190 -162 -234.5 -243.5t-44.5 -143.5t46 -84t142 12v-92q-23 -31 -79 -52t-101 -21q-201 0 -201 176 q0 61 44 130t120 126l2 8q-72 -14 -135 -14zM573 922q-117 0 -137 -215h215q14 43 15 92q-1 123 -93 123z" glyph-name="eogonek" horiz-adv-x="1034" unicode="ę"/><glyph d="M778 1331h-215v-532h82q193 0 215 205h82v-533h-82q-23 205 -215 205h-82v-574h215q113 0 189.5 57.5t128.5 198.5h82l-21 -358h-1116v82q68 8 85 20.5t17 51.5v1126q0 39 -17 51t-85 21v82h1096l10 -359h-82q-59 256 -287 256zM424 1884l205 -133l205 133h133l-256 -368 h-164l-256 368h133z" glyph-name="Ecaron" horiz-adv-x="1218" unicode="Ě"/><glyph d="M608 1044q158 0 277 -85t119 -263q0 -53 -13 -123h-561v-20q0 -170 88 -254t211 -84t234 61l41 -98q-80 -90 -156 -131q-125 -68 -285 -67q-254 0 -393 150.5t-139 371.5q0 166 86 293t209.5 188t281.5 61zM573 922q-117 0 -137 -215h215q14 43 15 92q-1 123 -93 123z M408 1458l180 -110l180 110h133l-231 -332h-164l-232 332h134z" glyph-name="ecaron" horiz-adv-x="1034" unicode="ě"/><glyph d="M829 102q47 0 93 13v407q0 39 -17.5 51.5t-85.5 20.5v82h625v-82q-68 -8 -85.5 -20.5t-17.5 -51.5v-532h-81l-78 63q-178 -74 -373 -73q-336 0 -542 205.5t-206 529.5t224.5 531.5t564.5 207.5q233 0 430 -123l20 -317h-81q-37 145 -119 231t-246 86t-258 -147.5 t-94 -466.5q-1 -615 327 -615zM801 1649l-205 -133h-133l256 368h164l256 -368h-133z" glyph-name="Gcircumflex" horiz-adv-x="1464" unicode="Ĝ"/><glyph d="M512 338q-57 0 -125 10q-29 -29 -29 -57q0 -53 93 -55l274 -11q186 -6 273 -95t87 -212q0 -180 -177 -264t-478 -84q-195 0 -312.5 48t-117.5 134q0 102 166 193q-94 61 -94 178q0 78 73.5 145.5t157.5 104.5q-111 41 -176.5 121.5t-65.5 195.5q0 154 126 254t325 100 q137 0 242 -49l311 31v-133h-182q70 -88 69 -197q0 -154 -121.5 -256t-318.5 -102zM246 -166q0 -141 256 -141q94 0 164.5 25.5t70.5 84.5q0 74 -123 84l-354 27q-14 -39 -14 -80zM420 717q0 -256 102 -256q53 0 62.5 53.5t9.5 149.5q0 258 -92 258q-82 0 -82 -205z M520 1237l-180 -111h-133l231 332h164l232 -332h-134z" glyph-name="gcircumflex" horiz-adv-x="1085" unicode="ĝ"/><glyph d="M829 102q47 0 93 13v407q0 39 -17.5 51.5t-85.5 20.5v82h625v-82q-68 -8 -85.5 -20.5t-17.5 -51.5v-532h-81l-78 63q-178 -74 -373 -73q-336 0 -542 205.5t-206 529.5t224.5 531.5t564.5 207.5q233 0 430 -123l20 -317h-81q-37 145 -119 231t-246 86t-258 -147.5 t-94 -466.5q-1 -615 327 -615zM818 1536q-136 0 -211 96.5t-75 212.5h130q28 -109 158 -109t157 109h129q0 -115 -76 -212t-212 -97z" glyph-name="Gbreve" horiz-adv-x="1464" unicode="Ğ"/><glyph d="M512 338q-57 0 -125 10q-29 -29 -29 -57q0 -53 93 -55l274 -11q186 -6 273 -95t87 -212q0 -180 -177 -264t-478 -84q-195 0 -312.5 48t-117.5 134q0 102 166 193q-94 61 -94 178q0 78 73.5 145.5t157.5 104.5q-111 41 -176.5 121.5t-65.5 195.5q0 154 126 254t325 100 q137 0 242 -49l311 31v-133h-182q70 -88 69 -197q0 -154 -121.5 -256t-318.5 -102zM246 -166q0 -141 256 -141q94 0 164.5 25.5t70.5 84.5q0 74 -123 84l-354 27q-14 -39 -14 -80zM420 717q0 -256 102 -256q53 0 62.5 53.5t9.5 149.5q0 258 -92 258q-82 0 -82 -205z M538.5 1126q-118.5 0 -190.5 85t-72 194h130q18 -88 132.5 -88t133.5 88h129q0 -109 -72 -194t-190.5 -85z" glyph-name="gbreve" horiz-adv-x="1085" unicode="ğ"/><glyph d="M829 102q47 0 93 13v407q0 39 -17.5 51.5t-85.5 20.5v82h625v-82q-68 -8 -85.5 -20.5t-17.5 -51.5v-532h-81l-78 63q-178 -74 -373 -73q-336 0 -542 205.5t-206 529.5t224.5 531.5t564.5 207.5q233 0 430 -123l20 -317h-81q-37 145 -119 231t-246 86t-258 -147.5 t-94 -466.5q-1 -615 327 -615zM676 1669.5q0 63.5 41 103t102 39.5t102.5 -39.5t41.5 -103t-41.5 -102.5t-103.5 -39t-102 39t-40 102.5z" glyph-name="Gdotaccent" horiz-adv-x="1464" unicode="Ġ"/><glyph d="M512 338q-57 0 -125 10q-29 -29 -29 -57q0 -53 93 -55l274 -11q186 -6 273 -95t87 -212q0 -180 -177 -264t-478 -84q-195 0 -312.5 48t-117.5 134q0 102 166 193q-94 61 -94 178q0 78 73.5 145.5t157.5 104.5q-111 41 -176.5 121.5t-65.5 195.5q0 154 126 254t325 100 q137 0 242 -49l311 31v-133h-182q70 -88 69 -197q0 -154 -121.5 -256t-318.5 -102zM246 -166q0 -141 256 -141q94 0 164.5 25.5t70.5 84.5q0 74 -123 84l-354 27q-14 -39 -14 -80zM420 717q0 -256 102 -256q53 0 62.5 53.5t9.5 149.5q0 258 -92 258q-82 0 -82 -205z M375 1267.5q0 63.5 40 103.5t102 40t103.5 -40t41.5 -103.5t-41 -102.5t-103 -39t-102.5 39t-40.5 102.5z" glyph-name="gdotaccent" horiz-adv-x="1085" unicode="ġ"/><glyph d="M784 -61q184 0 185 -185q0 -113 -85 -194.5t-200 -122.5l-35 78q145 63 146 116q0 31 -33 31q-61 0 -101 36t-40 99.5t48.5 102.5t114.5 39zM829 102q47 0 93 13v407q0 39 -17.5 51.5t-85.5 20.5v82h625v-82q-68 -8 -85.5 -20.5t-17.5 -51.5v-532h-81l-78 63 q-178 -74 -373 -73q-336 0 -542 205.5t-206 529.5t224.5 531.5t564.5 207.5q233 0 430 -123l20 -317h-81q-37 145 -119 231t-246 86t-258 -147.5t-94 -466.5q-1 -615 327 -615z" glyph-name="Gcommaaccent" horiz-adv-x="1464" unicode="Ģ"/><glyph d="M512 338q-57 0 -125 10q-29 -29 -29 -57q0 -53 93 -55l274 -11q186 -6 273 -95t87 -212q0 -180 -177 -264t-478 -84q-195 0 -312.5 48t-117.5 134q0 102 166 193q-94 61 -94 178q0 78 73.5 145.5t157.5 104.5q-111 41 -176.5 121.5t-65.5 195.5q0 154 126 254t325 100 q137 0 242 -49l311 31v-133h-182q70 -88 69 -197q0 -154 -121.5 -256t-318.5 -102zM246 -166q0 -141 256 -141q94 0 164.5 25.5t70.5 84.5q0 74 -123 84l-354 27q-14 -39 -14 -80zM420 717q0 -256 102 -256q53 0 62.5 53.5t9.5 149.5q0 258 -92 258q-82 0 -82 -205z M524 1126q-184 0 -184 185q0 113 85 194.5t200 122.5l34 -78q-145 -63 -145 -116q0 -31 33 -31q61 0 101 -36t40 -99.5t-49 -102.5t-115 -39z" glyph-name="gcommaaccent" horiz-adv-x="1085" unicode="ģ"/><glyph d="M1044 154v522h-481v-522q0 -39 17.5 -51.5t85.5 -20.5v-82h-625v82q68 8 85 20.5t17 51.5v1126q0 39 -17 51t-85 21v82h625v-82q-68 -8 -85.5 -20.5t-17.5 -51.5v-481h481v481q0 39 -17 51t-85 21v82h625v-82q-68 -8 -85.5 -20.5t-17.5 -51.5v-1126q0 -39 17.5 -51.5 t85.5 -20.5v-82h-625v82q68 8 85 20.5t17 51.5zM803 1649l-205 -133h-133l256 368h164l256 -368h-133z" glyph-name="Hcircumflex" horiz-adv-x="1607" unicode="Ĥ"/><glyph d="M31 0v72q68 8 85 20t17 51v1137q0 53 -16.5 68.5t-85.5 23.5v72l461 51h40l-10 -666h10q162 215 359 215q127 0 207 -74.5t80 -232.5v-594q0 -39 17 -51t85 -20v-72h-584v72q53 8 67.5 20t14.5 51v543q0 113 -92 113q-75 0 -110.5 -28.5t-43.5 -33.5v-594q0 -39 17.5 -51 t85.5 -20v-72h-604zM317 1667l-180 -111h-133l232 332h163l232 -332h-133z" glyph-name="hcircumflex" horiz-adv-x="1290" unicode="ĥ"/><glyph d="M143 154v843h-92v103h92v180q0 39 -17 51t-85 21v82h625v-82q-68 -8 -85.5 -20.5t-17.5 -51.5v-180h481v180q0 39 -17 51t-85 21v82h625v-82q-68 -8 -85.5 -20.5t-17.5 -51.5v-180h103v-103h-103v-843q0 -39 17.5 -51.5t85.5 -20.5v-82h-625v82q68 8 85 20.5t17 51.5v522 h-481v-522q0 -39 17.5 -51.5t85.5 -20.5v-82h-625v82q68 8 85 20.5t17 51.5zM563 997v-198h481v198h-481z" glyph-name="Hbar" horiz-adv-x="1607" unicode="Ħ"/><glyph d="M31 0v72q68 8 85 20t17 51v977h-102v103h102v57q0 53 -16.5 68.5t-85.5 23.5v72l461 51h40l-4 -272h158v-103h-160l-4 -291h10q162 215 359 215q127 0 207 -74.5t80 -232.5v-594q0 -39 17 -51t85 -20v-72h-584v72q53 8 67.5 20t14.5 51v543q0 113 -92 113 q-75 0 -110.5 -28.5t-43.5 -33.5v-594q0 -39 17.5 -51t85.5 -20v-72h-604z" glyph-name="hbar" horiz-adv-x="1290" unicode="ħ"/><glyph d="M143 154v1126q0 39 -17 51t-85 21v82h625v-82q-68 -8 -85.5 -20.5t-17.5 -51.5v-1126q0 -39 17.5 -51.5t85.5 -20.5v-82h-625v82q68 8 85 20.5t17 51.5zM201 1864q35 0 160.5 -41t175.5 -41q92 0 143 51l92 -51q-45 -90 -118.5 -178t-145.5 -88q-43 0 -162 41t-175 41 t-146 -72l-93 51q61 119 135 203t134 84z" glyph-name="Itilde" horiz-adv-x="706" unicode="Ĩ"/><glyph d="M193 1456q37 0 148.5 -37t145.5 -37q96 0 140 43l92 -51q-39 -78 -111 -163t-122 -85t-158 37t-140 37q-53 0 -75 -12.5t-76 -48.5l-92 51q39 82 115.5 174t132.5 92zM532 1044v-901q0 -39 17.5 -51t85.5 -20v-72h-604v72q68 8 85 20t17 51v645q0 53 -16.5 68.5 t-85.5 24.5v71l461 92h40z" glyph-name="itilde" horiz-adv-x="645" unicode="ĩ"/><glyph d="M143 154v1126q0 39 -17 51t-85 21v82h625v-82q-68 -8 -85.5 -20.5t-17.5 -51.5v-1126q0 -39 17.5 -51.5t85.5 -20.5v-82h-625v82q68 8 85 20.5t17 51.5zM4 1659h696v-133h-696v133z" glyph-name="Imacron" horiz-adv-x="706" unicode="Ī"/><glyph d="M-2 1255h635v-129h-635v129zM532 1044v-901q0 -39 17.5 -51t85.5 -20v-72h-604v72q68 8 85 20t17 51v645q0 53 -16.5 68.5t-85.5 24.5v71l461 92h40z" glyph-name="imacron" horiz-adv-x="645" unicode="ī"/><glyph d="M143 154v1126q0 39 -17 51t-85 21v82h625v-82q-68 -8 -85.5 -20.5t-17.5 -51.5v-1126q0 -39 17.5 -51.5t85.5 -20.5v-82h-625v82q68 8 85 20.5t17 51.5zM351 1536q-136 0 -210.5 96.5t-74.5 212.5h129q27 -109 157 -109t158 109h129q0 -115 -76 -212t-212 -97z" glyph-name="Ibreve" horiz-adv-x="706" unicode="Ĭ"/><glyph d="M319.5 1126q-118.5 0 -190.5 85t-72 194h129q18 -88 133 -88t134 88h129q0 -109 -72 -194t-190.5 -85zM532 1044v-901q0 -39 17.5 -51t85.5 -20v-72h-604v72q68 8 85 20t17 51v645q0 53 -16.5 68.5t-85.5 24.5v71l461 92h40z" glyph-name="ibreve" horiz-adv-x="645" unicode="ĭ"/><glyph d="M358 -492q-215 0 -215 193q0 72 54.5 151.5t150.5 147.5h-307v82q68 8 85 20.5t17 51.5v1126q0 39 -17 51t-85 21v82h625v-82q-68 -8 -85.5 -20.5t-17.5 -51.5v-1126q0 -39 17.5 -51.5t85.5 -20.5v-82h-205q-117 -106 -117 -229q0 -74 51.5 -100.5t157.5 12.5v-93 q-27 -35 -86 -58.5t-109 -23.5z" glyph-name="Iogonek" horiz-adv-x="706" unicode="Į"/><glyph d="M334 -446q-201 0 -201 176q0 66 49 137.5t137 132.5h-288v72q68 8 85 20t17 51v645q0 53 -16.5 68.5t-85.5 24.5v71l461 92h40v-901q0 -39 17.5 -51t85.5 -20v-72h-205q-104 -98 -104 -205q0 -66 46 -88.5t142 12.5v-92q-23 -31 -79 -52t-101 -21zM102 1286 q0 88 62.5 136t159 48t158 -48t61.5 -136t-61.5 -134t-158.5 -46t-159 46t-62 134z" glyph-name="iogonek" horiz-adv-x="645" unicode="į"/><glyph d="M143 154v1126q0 39 -17 51t-85 21v82h625v-82q-68 -8 -85.5 -20.5t-17.5 -51.5v-1126q0 -39 17.5 -51.5t85.5 -20.5v-82h-625v82q68 8 85 20.5t17 51.5zM209 1669.5q0 63.5 41 103t102 39.5t102.5 -39.5t41.5 -103t-41 -102.5t-103 -39t-102.5 39t-40.5 102.5z" glyph-name="Idotaccent" horiz-adv-x="706" unicode="İ"/><glyph d="M532 1044v-901q0 -39 17.5 -51t85.5 -20v-72h-604v72q68 8 85 20t17 51v645q0 53 -16.5 68.5t-85.5 24.5v71l461 92h40z" glyph-name="dotlessi" horiz-adv-x="645" unicode="ı"/><glyph d="M143 154v1126q0 39 -17 51t-85 21v82h625v-82q-68 -8 -85.5 -20.5t-17.5 -51.5v-1126q0 -39 17.5 -51.5t85.5 -20.5v-82h-625v82q68 8 85 20.5t17 51.5zM1024 573v707q0 39 -17.5 51t-84.5 21v82h624v-82q-68 -8 -85 -20.5t-17 -51.5v-707q0 -248 -140.5 -420.5 t-402.5 -172.5q-205 0 -205 133q0 47 28 74.5t70 27.5t79.5 -34t68 -66.5t54.5 -32.5t35 14.5t11 55.5t-9 147t-9 274z" glyph-name="IJ" horiz-adv-x="1566" unicode="Ĳ"/><glyph d="M1126 1044v-901q0 -254 -159.5 -413.5t-352.5 -159.5q-63 0 -108 33t-45 91t29.5 90t78.5 32t96.5 -43t68 -43t28.5 29.5t-13.5 174t-21.5 209.5v645q0 53 -16.5 68.5t-85.5 24.5v71l460 92h41zM696 1286q0 88 62.5 136t159 48t158 -48t61.5 -136t-61.5 -134t-158.5 -46 t-159 46t-62 134zM102 1286q0 88 62.5 136t159 48t158 -48t61.5 -136t-61.5 -134t-158.5 -46t-159 46t-62 134zM532 1044v-901q0 -39 17.5 -51t85.5 -20v-72h-604v72q68 8 85 20t17 51v645q0 53 -16.5 68.5t-85.5 24.5v71l461 92h40z" glyph-name="ij" unicode="ĳ"/><glyph d="M348 573v707q0 39 -17.5 51t-84.5 21v82h624v-82q-68 -8 -85 -20.5t-17 -51.5v-707q0 -248 -140.5 -420.5t-402.5 -172.5q-205 0 -205 133q0 47 28 74.5t70 27.5t80 -34t68 -66.5t54 -32.5t35.5 14.5t11.5 55.5t-9.5 140t-9.5 281zM549 1649l-205 -133h-133l256 368h164 l256 -368h-133z" glyph-name="Jcircumflex" horiz-adv-x="890" unicode="Ĵ"/><glyph d="M522 1044v-901q0 -254 -159.5 -413.5t-352.5 -159.5q-63 0 -108 33t-45 91t29.5 90t79.5 32t95 -43t67 -43t30 29.5t-13.5 174t-21.5 209.5v645q0 53 -16.5 68.5t-86.5 24.5v71l461 92h41zM322 1237l-181 -111h-133l232 332h163l232 -332h-133z" glyph-name="jcircumflex" horiz-adv-x="624" unicode="ĵ"/><glyph d="M764 -41q184 0 184 -184q0 -113 -85 -195t-199 -123l-35 78q145 63 145 117q0 31 -33 31q-61 0 -101 35.5t-40 99t49 102.5t115 39zM143 154v1126q0 39 -17 51t-85 21v82h625v-82q-68 -8 -85.5 -20.5t-17.5 -51.5v-539q47 12 117 99l291 372q50 77 0.5 106.5t-123.5 33.5 v82h565v-82q-115 -16 -169 -39t-107 -84l-283 -355q137 -104 262 -290l268 -402q10 -14 17.5 -25.5t14.5 -19.5t13.5 -15t10.5 -11.5t9 -8.5t8.5 -6t22.5 -7t25 -7v-82h-542q-72 100 -164 266l-137 250q-45 78 -99 86v-448q0 -39 17.5 -51.5t85.5 -20.5v-82h-625v82 q68 8 85 20.5t17 51.5z" glyph-name="Kcommaaccent" horiz-adv-x="1525" unicode="Ķ"/><glyph d="M532 1495v-911q39 0 61.5 12t55.5 51l139 178q41 49 17.5 84t-109.5 43v72h502v-72q-145 -23 -173 -37t-56 -53l-119 -155l324 -570q14 -25 31.5 -39t25.5 -16t39 -10v-72h-492l-184 410q-18 45 -62 49v-316q0 -39 17.5 -51t85.5 -20v-72h-604v72q68 8 85 20t17 51v1137 q0 53 -16.5 68.5t-85.5 23.5v72l461 51h40zM631 -61q184 0 184 -185q0 -113 -85 -194.5t-200 -122.5l-34 78q145 63 145 116q0 31 -33 31q-61 0 -101 36t-40 99.5t49 102.5t115 39z" glyph-name="kcommaaccent" horiz-adv-x="1269" unicode="ķ"/><glyph d="M143 154v1126q0 39 -17 51t-85 21v82h625v-82q-68 -8 -85.5 -20.5t-17.5 -51.5v-1178h195q113 0 189.5 57.5t127.5 198.5h82l-20 -358h-1096v82q68 8 85 20.5t17 51.5zM576 1925q58 0 89 -33.5t31 -83.5t-55 -86l-303 -206l-51 49l196 305q35 55 93 55z" glyph-name="Lacute" horiz-adv-x="1177" unicode="Ĺ"/><glyph d="M532 1495v-1352q0 -39 17.5 -51t85.5 -20v-72h-604v72q68 8 85 20t17 51v1137q0 53 -16.5 68.5t-85.5 23.5v72l461 51h40zM529 1954q54 0 84 -33t30 -76t-53 -82l-275 -186l-51 49l178 277q33 51 87 51z" glyph-name="lacute" horiz-adv-x="645" unicode="ĺ"/><glyph d="M627 -37q184 0 184 -184q0 -113 -85 -195t-200 -123l-34 78q145 63 145 117q0 31 -33 31q-61 0 -101 35.5t-40 99t49 102.5t115 39zM143 154v1126q0 39 -17 51t-85 21v82h625v-82q-68 -8 -85.5 -20.5t-17.5 -51.5v-1178h195q113 0 189.5 57.5t127.5 198.5h82l-20 -358 h-1096v82q68 8 85 20.5t17 51.5z" glyph-name="Lcommaaccent" horiz-adv-x="1177" unicode="Ļ"/><glyph d="M532 1495v-1352q0 -39 17.5 -51t85.5 -20v-72h-604v72q68 8 85 20t17 51v1137q0 53 -16.5 68.5t-85.5 23.5v72l461 51h40zM317 -61q184 0 185 -185q0 -113 -85 -194.5t-200 -122.5l-35 78q145 63 146 116q0 31 -33 31q-61 0 -101 36t-40 99.5t48.5 102.5t114.5 39z" glyph-name="lcommaaccent" horiz-adv-x="645" unicode="ļ"/><glyph d="M893 1434q184 0 184 -185q0 -113 -85 -194.5t-199 -122.5l-35 78q145 63 145 116q0 31 -33 31q-61 0 -101 36t-40 99.5t49 102.5t115 39zM143 154v1126q0 39 -17 51t-85 21v82h625v-82q-68 -8 -85.5 -20.5t-17.5 -51.5v-1178h195q113 0 189.5 57.5t127.5 198.5h82 l-20 -358h-1096v82q68 8 85 20.5t17 51.5z" glyph-name="Lcaron" horiz-adv-x="1177" unicode="Ľ"/><glyph d="M532 1495v-1352q0 -39 17.5 -51t85.5 -20v-72h-604v72q68 8 85 20t17 51v1137q0 53 -16.5 68.5t-85.5 23.5v72l461 51h40zM778 1495q184 0 185 -184q0 -113 -85 -195t-200 -123l-35 78q145 63 145 117q0 31 -32 31q-61 0 -101.5 35.5t-40.5 99t49 102.5t115 39z" glyph-name="lcaron" horiz-adv-x="972" unicode="ľ"/><glyph d="M143 154v1126q0 39 -17 51t-85 21v82h625v-82q-68 -8 -85.5 -20.5t-17.5 -51.5v-1178h195q113 0 189.5 57.5t127.5 198.5h82l-20 -358h-1096v82q68 8 85 20.5t17 51.5zM649 763.5q0 63.5 40.5 103.5t102.5 40t103 -40t41 -103.5t-41 -102t-103 -38.5t-102.5 38.5 t-40.5 102z" glyph-name="Ldot" horiz-adv-x="1177" unicode="Ŀ"/><glyph d="M532 1495v-1352q0 -39 17.5 -51t85.5 -20v-72h-604v72q68 8 85 20t17 51v1137q0 53 -16.5 68.5t-85.5 23.5v72l461 51h40zM614 788.5q0 63.5 41 103.5t103 40t102.5 -40t40.5 -103.5t-41 -102.5t-103 -39t-102.5 39t-40.5 102.5z" glyph-name="ldot" horiz-adv-x="911" unicode="ŀ"/><glyph d="M143 154v430l-102 -41v112l102 41v584q0 39 -17 51t-85 21v82h625v-82q-68 -8 -85.5 -20.5t-17.5 -51.5v-416l144 58v-113l-144 -57v-650h195q113 0 189.5 57.5t127.5 198.5h82l-20 -358h-1096v82q68 8 85 20.5t17 51.5z" glyph-name="Lslash" horiz-adv-x="1177" unicode="Ł"/><glyph d="M532 1495v-637l103 43v-113l-103 -43v-602q0 -39 17.5 -51t85.5 -20v-72h-604v72q68 8 85 20t17 51v441l-102 -41v112l102 41v584q0 53 -16.5 68.5t-85.5 23.5v72l461 51h40z" glyph-name="lslash" horiz-adv-x="645" unicode="ł"/><glyph d="M1280 -10h-225l-738 1106v-942q0 -39 26 -51.5t138 -20.5v-82h-461v82q113 8 138.5 20.5t25.5 51.5v1126q0 39 -25.5 51t-138.5 21v82h584l543 -789v635q0 39 -25.5 51t-138.5 21v82h461v-82q-113 -8 -138.5 -20.5t-25.5 -51.5v-1290zM1024 1925q57 0 89 -33.5t32 -83.5 t-55 -86l-304 -206l-51 49l197 305q35 55 92 55z" glyph-name="Nacute" horiz-adv-x="1464" unicode="Ń"/><glyph d="M31 0v72q68 8 85 20t17 51v645q0 53 -16.5 68.5t-85.5 24.5v71l461 92h40l-10 -215h10q162 215 359 215q127 0 207 -74.5t80 -232.5v-594q0 -39 17 -51t85 -20v-72h-584v72q53 8 67.5 20t14.5 51v543q0 113 -92 113q-75 0 -110.5 -28.5t-43.5 -33.5v-594q0 -39 17.5 -51 t85.5 -20v-72h-604zM863 1503q54 0 84 -32.5t30 -75.5t-53 -82l-275 -187l-51 50l178 276q33 51 87 51z" glyph-name="nacute" horiz-adv-x="1290" unicode="ń"/><glyph d="M690 -61q184 0 184 -185q0 -113 -84.5 -194.5t-199.5 -122.5l-35 78q145 63 145 116q0 31 -32 31q-61 0 -101.5 36t-40.5 99.5t49 102.5t115 39zM1280 -10h-225l-738 1106v-942q0 -39 26 -51.5t138 -20.5v-82h-461v82q113 8 138.5 20.5t25.5 51.5v1126q0 39 -25.5 51 t-138.5 21v82h584l543 -789v635q0 39 -25.5 51t-138.5 21v82h461v-82q-113 -8 -138.5 -20.5t-25.5 -51.5v-1290z" glyph-name="Ncommaaccent" horiz-adv-x="1464" unicode="Ņ"/><glyph d="M31 0v72q68 8 85 20t17 51v645q0 53 -16.5 68.5t-85.5 24.5v71l461 92h40l-10 -215h10q162 215 359 215q127 0 207 -74.5t80 -232.5v-594q0 -39 17 -51t85 -20v-72h-584v72q53 8 67.5 20t14.5 51v543q0 113 -92 113q-75 0 -110.5 -28.5t-43.5 -33.5v-594q0 -39 17.5 -51 t85.5 -20v-72h-604zM649 -61q184 0 185 -185q0 -113 -85 -194.5t-200 -122.5l-35 78q145 63 145 116q0 31 -32 31q-61 0 -101.5 36t-40.5 99.5t49 102.5t115 39z" glyph-name="ncommaaccent" horiz-adv-x="1290" unicode="ņ"/><glyph d="M1280 -10h-225l-738 1106v-942q0 -39 26 -51.5t138 -20.5v-82h-461v82q113 8 138.5 20.5t25.5 51.5v1126q0 39 -25.5 51t-138.5 21v82h584l543 -789v635q0 39 -25.5 51t-138.5 21v82h461v-82q-113 -8 -138.5 -20.5t-25.5 -51.5v-1290zM588 1884l205 -133l204 133h133 l-256 -368h-163l-256 368h133z" glyph-name="Ncaron" horiz-adv-x="1464" unicode="Ň"/><glyph d="M31 0v72q68 8 85 20t17 51v645q0 53 -16.5 68.5t-85.5 24.5v71l461 92h40l-10 -215h10q162 215 359 215q127 0 207 -74.5t80 -232.5v-594q0 -39 17 -51t85 -20v-72h-584v72q53 8 67.5 20t14.5 51v543q0 113 -92 113q-75 0 -110.5 -28.5t-43.5 -33.5v-594q0 -39 17.5 -51 t85.5 -20v-72h-604zM477 1458l180 -110l181 110h133l-232 -332h-164l-231 332h133z" glyph-name="ncaron" horiz-adv-x="1290" unicode="ň"/><glyph d="M317 154q0 -39 26 -51.5t138 -20.5v-82h-461v82q113 8 138.5 20.5t25.5 51.5v1126q0 39 -25.5 51t-138.5 21v82h584l543 -707v553q0 39 -25.5 51t-138.5 21v82h461v-82q-113 -8 -138.5 -20.5t-25.5 -51.5v-1137q0 -254 -159.5 -413.5t-352.5 -159.5q-63 0 -108.5 33 t-45.5 91t30 90t76 32t99 -43t121 -43t137.5 65.5t69.5 184.5v20l-830 1096v-942z" glyph-name="Eng" horiz-adv-x="1464" unicode="Ŋ"/><glyph d="M1178 737v-594q0 -254 -160 -413.5t-352 -159.5q-63 0 -108.5 33t-45.5 91t30 90t80 32t95 -43t66 -43t29.5 28.5t-13 181t-21.5 203.5v543q0 113 -92 113q-75 0 -110.5 -28.5t-43.5 -33.5v-594q0 -39 17.5 -51t85.5 -20v-72h-604v72q68 8 85 20t17 51v645 q0 53 -16.5 68.5t-85.5 24.5v71l461 92h40l-10 -215h10q162 215 359 215q127 0 207 -74.5t80 -232.5z" glyph-name="eng" horiz-adv-x="1280" unicode="ŋ"/><glyph d="M829.5 -20q-307.5 0 -538 210.5t-230.5 526t230.5 526.5t538 211t537.5 -211t230 -526.5t-230 -526t-537.5 -210.5zM829.5 1331q-184.5 0 -256 -151.5t-71.5 -462.5t71.5 -463t256 -152t256 152t71.5 463t-71.5 462.5t-256 151.5zM481 1659h697v-133h-697v133z" glyph-name="Omacron" horiz-adv-x="1658" unicode="Ō"/><glyph d="M573.5 -20q-241.5 0 -392 152.5t-150.5 379.5t150.5 379.5t392 152.5t392 -152.5t150.5 -379.5t-150.5 -379.5t-392 -152.5zM573.5 922q-63.5 0 -93 -93.5t-29.5 -316.5t29.5 -316.5t93 -93.5t93 93.5t29.5 316.5t-29.5 316.5t-93 93.5zM256 1255h635v-129h-635v129z" glyph-name="omacron" horiz-adv-x="1146" unicode="ō"/><glyph d="M829.5 -20q-307.5 0 -538 210.5t-230.5 526t230.5 526.5t538 211t537.5 -211t230 -526.5t-230 -526t-537.5 -210.5zM829.5 1331q-184.5 0 -256 -151.5t-71.5 -462.5t71.5 -463t256 -152t256 152t71.5 463t-71.5 462.5t-256 151.5zM828 1536q-136 0 -210.5 96.5 t-74.5 212.5h129q28 -109 158 -109t157 109h129q0 -115 -76 -212t-212 -97z" glyph-name="Obreve" horiz-adv-x="1658" unicode="Ŏ"/><glyph d="M573.5 -20q-241.5 0 -392 152.5t-150.5 379.5t150.5 379.5t392 152.5t392 -152.5t150.5 -379.5t-150.5 -379.5t-392 -152.5zM573.5 922q-63.5 0 -93 -93.5t-29.5 -316.5t29.5 -316.5t93 -93.5t93 93.5t29.5 316.5t-29.5 316.5t-93 93.5zM573.5 1126q-118.5 0 -190.5 85 t-72 194h129q18 -88 133 -88t134 88h129q0 -109 -72 -194t-190.5 -85z" glyph-name="obreve" horiz-adv-x="1146" unicode="ŏ"/><glyph d="M829.5 -20q-307.5 0 -538 210.5t-230.5 526t230.5 526.5t538 211t537.5 -211t230 -526.5t-230 -526t-537.5 -210.5zM829.5 1331q-184.5 0 -256 -151.5t-71.5 -462.5t71.5 -463t256 -152t256 152t71.5 463t-71.5 462.5t-256 151.5zM836 1925q58 0 89 -33.5t31 -81.5 t-55 -88l-303 -206l-51 49l196 305q35 55 93 55zM1184 1925q57 0 88.5 -33.5t31.5 -81.5t-55 -88l-303 -206l-51 49l197 305q35 55 92 55z" glyph-name="Ohungarumlaut" horiz-adv-x="1658" unicode="Ő"/><glyph d="M573.5 -20q-241.5 0 -392 152.5t-150.5 379.5t150.5 379.5t392 152.5t392 -152.5t150.5 -379.5t-150.5 -379.5t-392 -152.5zM573.5 922q-63.5 0 -93 -93.5t-29.5 -316.5t29.5 -316.5t93 -93.5t93 93.5t29.5 316.5t-29.5 316.5t-93 93.5zM562 1503q54 0 84 -32.5t30 -75.5 t-53 -82l-275 -187l-51 50l178 276q33 51 87 51zM886 1503q54 0 83.5 -32.5t29.5 -75.5t-53 -82l-274 -187l-51 50l178 276q33 51 87 51z" glyph-name="ohungarumlaut" horiz-adv-x="1146" unicode="ő"/><glyph d="M1597 1331h-215v-532h82q193 0 215 205h82v-533h-82q-23 205 -215 205h-82v-574h215q113 0 190 57.5t128 198.5h82l-21 -358h-970q-96 -20 -177 -20q-307 0 -537.5 210.5t-230.5 526t230.5 526.5t537.5 211q82 0 181 -20h946l10 -359h-82q-59 256 -287 256zM829 1331 q-184 0 -255.5 -151.5t-71.5 -462.5t71.5 -463t255.5 -152q66 0 97.5 43t36.5 97v915q-4 88 -43.5 131t-90.5 43z" glyph-name="OE" horiz-adv-x="2037" unicode="Œ"/><glyph d="M1274 1044q188 0 307 -85t119 -263q0 -53 -12 -123h-562v-20q0 -170 89 -254t211 -84t233 61l41 -98q-80 -90 -156 -131q-125 -68 -284 -67q-209 0 -347 108q-145 -109 -340 -108q-242 0 -392 152.5t-150 379.5t150.5 379.5t374.5 152.5t374 -122q156 122 344 122z M573.5 922q-63.5 0 -93 -93.5t-29.5 -316.5t29.5 -316.5t93 -93.5t93 93.5t29.5 316.5t-29.5 316.5t-93 93.5zM1362 799q0 123 -92 123q-117 0 -137 -215h215q14 43 14 92z" glyph-name="oe" horiz-adv-x="1730" unicode="œ"/><glyph d="M41 1434h696q227 0 359.5 -108.5t132.5 -281.5q0 -125 -84 -235.5t-238 -159.5q111 -33 169.5 -87t101.5 -132l135 -246q43 -73 68.5 -84.5t52.5 -17.5v-82h-492q-86 129 -143 264l-62 146q-66 154 -112 204h-62v-460q0 -39 17.5 -51.5t85.5 -20.5v-82h-625v82 q68 8 85 20.5t17 51.5v1126q0 39 -17 51t-85 21v82zM635 1331h-72v-594h51q106 0 140 67.5t34 211.5q0 316 -153 315zM838 1925q58 0 89 -33.5t31 -83.5t-55 -86l-303 -206l-51 49l196 305q35 55 93 55z" glyph-name="Racute" horiz-adv-x="1454" unicode="Ŕ"/><glyph d="M31 0v72q68 8 85 20t17 51v645q0 53 -16.5 68.5t-85.5 24.5v71l461 92h40l-10 -235h10q47 113 101.5 174t128.5 61t122 -46t48 -121t-40 -122.5t-114 -47.5q-37 0 -82.5 15t-81.5 15t-82 -20v-574q0 -39 24 -51t120 -20v-72h-645zM560 1503q54 0 84 -32.5t30 -75.5 t-53 -82l-275 -187l-51 50l178 276q33 51 87 51z" glyph-name="racute" horiz-adv-x="942" unicode="ŕ"/><glyph d="M745 -61q184 0 185 -185q0 -113 -85 -194.5t-200 -122.5l-35 78q145 63 146 116q0 31 -33 31q-61 0 -101 36t-40 99.5t48.5 102.5t114.5 39zM41 1434h696q227 0 359.5 -108.5t132.5 -281.5q0 -125 -84 -235.5t-238 -159.5q111 -33 169.5 -87t101.5 -132l135 -246 q43 -73 68.5 -84.5t52.5 -17.5v-82h-492q-86 129 -143 264l-62 146q-66 154 -112 204h-62v-460q0 -39 17.5 -51.5t85.5 -20.5v-82h-625v82q68 8 85 20.5t17 51.5v1126q0 39 -17 51t-85 21v82zM635 1331h-72v-594h51q106 0 140 67.5t34 211.5q0 316 -153 315z" glyph-name="Rcommaaccent" horiz-adv-x="1454" unicode="Ŗ"/><glyph d="M31 0v72q68 8 85 20t17 51v645q0 53 -16.5 68.5t-85.5 24.5v71l461 92h40l-10 -235h10q47 113 101.5 174t128.5 61t122 -46t48 -121t-40 -122.5t-114 -47.5q-37 0 -82.5 15t-81.5 15t-82 -20v-574q0 -39 24 -51t120 -20v-72h-645zM313 -61q184 0 185 -185 q0 -113 -85 -194.5t-200 -122.5l-35 78q145 63 146 116q0 31 -33 31q-61 0 -101 36t-40 99.5t48.5 102.5t114.5 39z" glyph-name="rcommaaccent" horiz-adv-x="942" unicode="ŗ"/><glyph d="M41 1434h696q227 0 359.5 -108.5t132.5 -281.5q0 -125 -84 -235.5t-238 -159.5q111 -33 169.5 -87t101.5 -132l135 -246q43 -73 68.5 -84.5t52.5 -17.5v-82h-492q-86 129 -143 264l-62 146q-66 154 -112 204h-62v-460q0 -39 17.5 -51.5t85.5 -20.5v-82h-625v82 q68 8 85 20.5t17 51.5v1126q0 39 -17 51t-85 21v82zM635 1331h-72v-594h51q106 0 140 67.5t34 211.5q0 316 -153 315zM430 1884l205 -133l205 133h133l-256 -368h-164l-256 368h133z" glyph-name="Rcaron" horiz-adv-x="1454" unicode="Ř"/><glyph d="M31 0v72q68 8 85 20t17 51v645q0 53 -16.5 68.5t-85.5 24.5v71l461 92h40l-10 -235h10q47 113 101.5 174t128.5 61t122 -46t48 -121t-40 -122.5t-114 -47.5q-37 0 -82.5 15t-81.5 15t-82 -20v-574q0 -39 24 -51t120 -20v-72h-645zM317 1458l181 -110l180 110h133 l-231 -332h-164l-232 332h133z" glyph-name="rcaron" horiz-adv-x="942" unicode="ř"/><glyph d="M635 1321q-57 0 -115.5 -39t-58.5 -117t63.5 -135t153.5 -104t180 -103.5t153.5 -152t63.5 -219.5q0 -236 -158.5 -353.5t-388.5 -117.5q-113 0 -237.5 28.5t-208.5 73.5l-21 389h82q53 -186 131 -272t193 -86q80 0 139.5 49t59.5 139t-63.5 153.5t-154 109.5 t-180.5 99.5t-153.5 144.5t-63.5 216q0 209 150.5 319.5t381.5 110.5t400 -92l21 -369h-82q-61 182 -116.5 255t-170.5 73zM774 1925q57 0 89 -33.5t32 -83.5t-55 -86l-303 -206l-52 49l197 305q35 55 92 55z" glyph-name="Sacute" horiz-adv-x="1126" unicode="Ś"/><glyph d="M492 922q-33 0 -63 -20.5t-30 -66.5t46.5 -87t113 -79t133 -82t112.5 -117t46 -163q0 -150 -118 -238.5t-343 -88.5q-80 0 -178 20t-160 51l-20 277h82q25 -76 64.5 -125t95.5 -75t106 -26q113 0 113 103q0 67 -124.5 131.5t-225.5 151t-101 249.5q0 133 100.5 220 t296.5 87t330 -63l20 -264h-81q-53 111 -100.5 158t-114.5 47zM654 1503q54 0 84 -32.5t30 -75.5t-53 -82l-275 -187l-51 50l178 276q33 51 87 51z" glyph-name="sacute" horiz-adv-x="880" unicode="ś"/><glyph d="M635 1321q-57 0 -115.5 -39t-58.5 -117t63.5 -135t153.5 -104t180 -103.5t153.5 -152t63.5 -219.5q0 -236 -158.5 -353.5t-388.5 -117.5q-113 0 -237.5 28.5t-208.5 73.5l-21 389h82q53 -186 131 -272t193 -86q80 0 139.5 49t59.5 139t-63.5 153.5t-154 109.5 t-180.5 99.5t-153.5 144.5t-63.5 216q0 209 150.5 319.5t381.5 110.5t400 -92l21 -369h-82q-61 182 -116.5 255t-170.5 73zM567 1649l-205 -133h-133l256 368h164l256 -368h-133z" glyph-name="Scircumflex" horiz-adv-x="1126" unicode="Ŝ"/><glyph d="M492 922q-33 0 -63 -20.5t-30 -66.5t46.5 -87t113 -79t133 -82t112.5 -117t46 -163q0 -150 -118 -238.5t-343 -88.5q-80 0 -178 20t-160 51l-20 277h82q25 -76 64.5 -125t95.5 -75t106 -26q113 0 113 103q0 67 -124.5 131.5t-225.5 151t-101 249.5q0 133 100.5 220 t296.5 87t330 -63l20 -264h-81q-53 111 -100.5 158t-114.5 47zM449 1237l-181 -111h-133l232 332h163l232 -332h-133z" glyph-name="scircumflex" horiz-adv-x="880" unicode="ŝ"/><glyph d="M635 1321q-57 0 -115.5 -39t-58.5 -117t63.5 -135t153.5 -104t180 -103.5t153.5 -152t63.5 -219.5q0 -223 -143.5 -340t-358.5 -129v-64q88 -10 163 -63.5t75 -151.5q0 -193 -391 -266l-21 112q154 31 154 123q0 61 -72 97l4 213q-238 10 -403 100l-21 389h82 q53 -186 131 -272t193 -86q80 0 139.5 49t59.5 139t-63.5 153.5t-154 109.5t-180.5 99.5t-153.5 144.5t-63.5 216q0 209 150.5 319.5t381.5 110.5t400 -92l21 -369h-82q-61 182 -116.5 255t-170.5 73z" glyph-name="Scedilla" horiz-adv-x="1126" unicode="Ş"/><glyph d="M492 922q-33 0 -63 -20.5t-30 -66.5t46.5 -87t113 -79t133 -82t112.5 -117t46 -163q0 -143 -108.5 -230t-313.5 -95v-56q86 -10 151.5 -57t65.5 -145q0 -172 -360 -240l-19 110q66 14 97.5 38t31.5 72t-55 79l4 199q-182 12 -293 69l-20 277h82q25 -76 64.5 -125 t95.5 -75t106 -26q113 0 113 103q0 67 -124.5 131.5t-225.5 151t-101 249.5q0 133 100.5 220t296.5 87t330 -63l20 -264h-81q-53 111 -100.5 158t-114.5 47z" glyph-name="scedilla" horiz-adv-x="880" unicode="ş"/><glyph d="M358 1884l205 -133l205 133h133l-256 -368h-164l-256 368h133zM635 1321q-57 0 -115.5 -39t-58.5 -117t63.5 -135t153.5 -104t180 -103.5t153.5 -152t63.5 -219.5q0 -236 -158.5 -353.5t-388.5 -117.5q-113 0 -237.5 28.5t-208.5 73.5l-21 389h82q53 -186 131 -272 t193 -86q80 0 139.5 49t59.5 139t-63.5 153.5t-154 109.5t-180.5 99.5t-153.5 144.5t-63.5 216q0 209 150.5 319.5t381.5 110.5t400 -92l21 -369h-82q-61 182 -116.5 255t-170.5 73z" glyph-name="Scaron" horiz-adv-x="1126" unicode="Š"/><glyph d="M492 922q-33 0 -63 -20.5t-30 -66.5t46.5 -87t113 -79t133 -82t112.5 -117t46 -163q0 -150 -118 -238.5t-343 -88.5q-80 0 -178 20t-160 51l-20 277h82q25 -76 64.5 -125t95.5 -75t106 -26q113 0 113 103q0 67 -124.5 131.5t-225.5 151t-101 249.5q0 133 100.5 220 t296.5 87t330 -63l20 -264h-81q-53 111 -100.5 158t-114.5 47zM272 1458l181 -110l180 110h133l-231 -332h-164l-232 332h133z" glyph-name="scaron" horiz-adv-x="880" unicode="š"/><glyph d="M612 -61q184 0 185 -185q0 -113 -85 -194.5t-200 -122.5l-35 78q145 63 146 116q0 31 -33 31q-61 0 -101 36t-40 99.5t48.5 102.5t114.5 39zM860 1331h-31v-1177q0 -39 17.5 -51.5t85.5 -20.5v-82h-625v82q68 8 85.5 20.5t17.5 51.5v1177h-31q-207 0 -266 -256h-82 l10 359h1157l10 -359h-82q-59 256 -266 256z" glyph-name="Tcommaaccent" horiz-adv-x="1239" unicode="Ţ"/><glyph d="M522 891v-553q0 -127 13 -152q17 -39 79 -39t144 17l10 -62q-154 -123 -369 -122q-129 0 -202.5 60t-73.5 185v666h-103v92l103 41l297 307h102v-307h215v-133h-215zM371 -61q184 0 184 -185q0 -113 -85 -194.5t-200 -122.5l-34 78q145 63 145 116q0 31 -33 31 q-61 0 -101 36t-40 99.5t49 102.5t115 39z" glyph-name="tcommaaccent" horiz-adv-x="778" unicode="ţ"/><glyph d="M860 1331h-31v-1177q0 -39 17.5 -51.5t85.5 -20.5v-82h-625v82q68 8 85.5 20.5t17.5 51.5v1177h-31q-207 0 -266 -256h-82l10 359h1157l10 -359h-82q-59 256 -266 256zM418 1884l205 -133l204 133h134l-256 -368h-164l-256 368h133z" glyph-name="Tcaron" horiz-adv-x="1239" unicode="Ť"/><glyph d="M522 891v-553q0 -127 13 -152q17 -39 79 -39t144 17l10 -62q-154 -123 -369 -122q-129 0 -202.5 60t-73.5 185v666h-103v92l103 41l297 307h102v-307h215v-133h-215zM727 1577q184 0 184 -184q0 -113 -85 -195t-199 -123l-35 78q145 63 145 117q0 31 -32 30 q-61 0 -101.5 36t-40.5 99.5t49 102.5t115 39z" glyph-name="tcaron" horiz-adv-x="778" unicode="ť"/><glyph d="M860 1331h-31v-559h144v-102h-144v-516q0 -39 17.5 -51.5t85.5 -20.5v-82h-625v82q68 8 85.5 20.5t17.5 51.5v516h-144v102h144v559h-31q-207 0 -266 -256h-82l10 359h1157l10 -359h-82q-59 256 -266 256z" glyph-name="Tbar" horiz-adv-x="1239" unicode="Ŧ"/><glyph d="M522 891v-283h215v-102h-215v-168q0 -127 13 -152q17 -39 79 -39t144 17l10 -62q-154 -123 -369 -122q-129 0 -202.5 60t-73.5 185v281h-103v102h103v283h-103v92l103 41l297 307h102v-307h215v-133h-215z" glyph-name="tbar" horiz-adv-x="778" unicode="ŧ"/><glyph d="M143 553v727q0 39 -17 51t-85 21v82h625v-82q-68 -8 -85.5 -20.5t-17.5 -51.5v-707q0 -193 86 -285.5t232 -92.5q348 0 348 378v707q0 39 -29 51t-156 21v82h482v-82q-113 -8 -138.5 -20.5t-25.5 -51.5v-727q0 -270 -159 -421.5t-415 -151.5q-311 0 -478 152.5 t-167 420.5zM690 1864q35 0 161 -41t175 -41q92 0 143 51l93 -51q-45 -90 -119 -178t-146 -88q-43 0 -162 41t-175 41t-146 -72l-92 51q61 119 135 203t133 84z" glyph-name="Utilde" horiz-adv-x="1546" unicode="Ũ"/><glyph d="M768 788q0 55 -22.5 69.5t-120.5 23.5v71l501 92h41v-849q0 -53 16.5 -68.5t86.5 -24.5v-71l-441 -51h-41l-10 215h-10q-162 -215 -358 -215q-127 0 -207 74.5t-80 232.5v501q0 53 -16.5 68.5t-86.5 24.5v71l461 92h41v-706q0 -113 92 -113q75 0 102 21.5t38.5 30 t13.5 10.5v501zM526 1456q37 0 148.5 -37t146.5 -37q96 0 140 43l92 -51q-39 -78 -112 -163t-122 -85t-157 37t-140 37q-53 0 -75 -12.5t-76 -48.5l-92 51q39 82 115.5 174t131.5 92z" glyph-name="utilde" horiz-adv-x="1280" unicode="ũ"/><glyph d="M143 553v727q0 39 -17 51t-85 21v82h625v-82q-68 -8 -85.5 -20.5t-17.5 -51.5v-707q0 -193 86 -285.5t232 -92.5q348 0 348 378v707q0 39 -29 51t-156 21v82h482v-82q-113 -8 -138.5 -20.5t-25.5 -51.5v-727q0 -270 -159 -421.5t-415 -151.5q-311 0 -478 152.5 t-167 420.5zM489 1659h697v-133h-697v133z" glyph-name="Umacron" horiz-adv-x="1546" unicode="Ū"/><glyph d="M768 788q0 55 -22.5 69.5t-120.5 23.5v71l501 92h41v-849q0 -53 16.5 -68.5t86.5 -24.5v-71l-441 -51h-41l-10 215h-10q-162 -215 -358 -215q-127 0 -207 74.5t-80 232.5v501q0 53 -16.5 68.5t-86.5 24.5v71l461 92h41v-706q0 -113 92 -113q75 0 102 21.5t38.5 30 t13.5 10.5v501zM334 1255h635v-129h-635v129z" glyph-name="umacron" horiz-adv-x="1280" unicode="ū"/><glyph d="M143 553v727q0 39 -17 51t-85 21v82h625v-82q-68 -8 -85.5 -20.5t-17.5 -51.5v-707q0 -193 86 -285.5t232 -92.5q348 0 348 378v707q0 39 -29 51t-156 21v82h482v-82q-113 -8 -138.5 -20.5t-25.5 -51.5v-727q0 -270 -159 -421.5t-415 -151.5q-311 0 -478 152.5 t-167 420.5zM847 1536q-136 0 -211 96.5t-75 212.5h129q27 -109 158 -109t158 109h129q0 -115 -76 -212t-212 -97z" glyph-name="Ubreve" horiz-adv-x="1546" unicode="Ŭ"/><glyph d="M768 788q0 55 -22.5 69.5t-120.5 23.5v71l501 92h41v-849q0 -53 16.5 -68.5t86.5 -24.5v-71l-441 -51h-41l-10 215h-10q-162 -215 -358 -215q-127 0 -207 74.5t-80 232.5v501q0 53 -16.5 68.5t-86.5 24.5v71l461 92h41v-706q0 -113 92 -113q75 0 102 21.5t38.5 30 t13.5 10.5v501zM651 1126q-119 0 -190.5 85t-71.5 194h129q18 -88 133 -88t133 88h129q0 -109 -71.5 -194t-190.5 -85z" glyph-name="ubreve" horiz-adv-x="1280" unicode="ŭ"/><glyph d="M143 553v727q0 39 -17 51t-85 21v82h625v-82q-68 -8 -85.5 -20.5t-17.5 -51.5v-707q0 -193 86 -285.5t232 -92.5q348 0 348 378v707q0 39 -29 51t-156 21v82h482v-82q-113 -8 -138.5 -20.5t-25.5 -51.5v-727q0 -270 -159 -421.5t-415 -151.5q-311 0 -478 152.5 t-167 420.5zM643 1693q0 87 59.5 147.5t146.5 60.5t147.5 -60.5t60.5 -147.5t-60.5 -146.5t-147.5 -59.5t-146.5 59.5t-59.5 146.5zM741 1694q0 -45 32 -77t77 -32t76.5 32t31.5 78t-30.5 76.5t-76.5 30.5t-78 -31.5t-32 -76.5z" glyph-name="Uring" horiz-adv-x="1546" unicode="Ů"/><glyph d="M768 788q0 55 -22.5 69.5t-120.5 23.5v71l501 92h41v-849q0 -53 16.5 -68.5t86.5 -24.5v-71l-441 -51h-41l-10 215h-10q-162 -215 -358 -215q-127 0 -207 74.5t-80 232.5v501q0 53 -16.5 68.5t-86.5 24.5v71l461 92h41v-706q0 -113 92 -113q75 0 102 21.5t38.5 30 t13.5 10.5v501zM465 1316q0 81 54 136t135 55t136.5 -55t55.5 -136t-55.5 -135.5t-136.5 -54.5t-135 54.5t-54 135.5zM559 1318q0 -40 28.5 -68.5t68.5 -28.5t68 28.5t28 68.5t-28 67.5t-69 27.5t-68.5 -27.5t-27.5 -67.5z" glyph-name="uring" horiz-adv-x="1280" unicode="ů"/><glyph d="M143 553v727q0 39 -17 51t-85 21v82h625v-82q-68 -8 -85.5 -20.5t-17.5 -51.5v-707q0 -193 86 -285.5t232 -92.5q348 0 348 378v707q0 39 -29 51t-156 21v82h482v-82q-113 -8 -138.5 -20.5t-25.5 -51.5v-727q0 -270 -159 -421.5t-415 -151.5q-311 0 -478 152.5 t-167 420.5zM862 1925q57 0 89 -33.5t32 -81.5t-55 -88l-303 -206l-52 49l197 305q35 55 92 55zM1210 1925q57 0 89 -33.5t32 -81.5t-55 -88l-303 -206l-51 49l196 305q35 55 92 55z" glyph-name="Uhungarumlaut" horiz-adv-x="1546" unicode="Ű"/><glyph d="M768 788q0 55 -22.5 69.5t-120.5 23.5v71l501 92h41v-849q0 -53 16.5 -68.5t86.5 -24.5v-71l-441 -51h-41l-10 215h-10q-162 -215 -358 -215q-127 0 -207 74.5t-80 232.5v501q0 53 -16.5 68.5t-86.5 24.5v71l461 92h41v-706q0 -113 92 -113q75 0 102 21.5t38.5 30 t13.5 10.5v501zM675 1503q54 0 83.5 -32.5t29.5 -75.5t-53 -82l-274 -187l-51 50l178 276q33 51 87 51zM998 1503q54 0 84 -32.5t30 -75.5t-53 -82l-275 -187l-51 50l178 276q33 51 87 51z" glyph-name="uhungarumlaut" horiz-adv-x="1280" unicode="ű"/><glyph d="M809 -492q-215 0 -215 193q0 141 176 279q-303 4 -465 155.5t-162 417.5v727q0 39 -17 51t-85 21v82h625v-82q-68 -8 -85.5 -20.5t-17.5 -51.5v-707q0 -193 86 -285.5t232 -92.5q348 0 348 378v707q0 39 -29 51t-156 21v82h482v-82q-113 -8 -138.5 -20.5t-25.5 -51.5 v-727q0 -240 -126 -387.5t-339 -177.5q-102 -102 -102 -217q0 -74 51.5 -100.5t157.5 12.5v-93q-27 -35 -86.5 -58.5t-108.5 -23.5z" glyph-name="Uogonek" horiz-adv-x="1546" unicode="Ų"/><glyph d="M825 -446q-201 0 -200 176q0 131 163 254l-10 211h-10q-162 -215 -358 -215q-127 0 -207 74.5t-80 232.5v501q0 53 -16.5 68.5t-86.5 24.5v71l461 92h41v-706q0 -113 92 -113q75 0 102 21.5t38.5 30t13.5 10.5v501q0 55 -22.5 69.5t-120.5 23.5v71l501 92h41v-849 q0 -53 16.5 -68.5t86.5 -24.5v-71l-361 -41q-92 -92 -92 -195q0 -66 46.5 -88.5t142.5 12.5v-92q-23 -31 -79.5 -52t-101.5 -21z" glyph-name="uogonek" horiz-adv-x="1280" unicode="ų"/><glyph d="M0 1434h655v-82q-45 -6 -66.5 -16.5t-31.5 -39t12 -77.5l262 -758h5l157 500l-82 299l-8 24q-8 24 -22.5 32.5t-22.5 14t-20.5 8.5t-49.5 13v82h646v-82q-68 -8 -86.5 -33t0.5 -100l190 -758h4l199 727q25 90 -10 118.5t-164 45.5v82h491v-82q-90 -16 -117.5 -35 t-46.5 -78l-354 -1249h-280l-203 739l-234 -739h-260l-440 1270q-16 49 -35.5 62t-87.5 30v82zM1110 1649l-205 -133h-133l256 368h164l256 -368h-133z" glyph-name="Wcircumflex" horiz-adv-x="2058" unicode="Ŵ"/><glyph d="M0 1024h645v-72q-76 -8 -97.5 -28.5t-4.5 -73.5l131 -432h4l203 616h204l265 -616h4l110 432q14 55 -9 74.5t-103 27.5v72h409v-72q-96 -18 -116 -35t-37 -67l-275 -860h-207l-252 557l-217 -557h-206l-359 880q-23 53 -35 63.5t-57 18.5v72zM971 1237l-180 -111h-134 l232 332h164l231 -332h-133z" glyph-name="wcircumflex" horiz-adv-x="1761" unicode="ŵ"/><glyph d="M492 154v419l-369 687q-23 43 -48.5 64.5t-74.5 27.5v82h655v-82q-111 -13 -107.5 -55t21.5 -78l252 -492h4l199 461q39 90 14.5 118.5t-147.5 45.5v82h491v-82q-141 -27 -165.5 -54.5t-38.5 -58.5l-267 -600v-485q0 -39 17.5 -51.5t85.5 -20.5v-82h-625v82 q68 8 85.5 20.5t17.5 51.5zM788 1649l-204 -133h-133l256 368h163l256 -368h-133z" glyph-name="Ycircumflex" horiz-adv-x="1382" unicode="Ŷ"/><glyph d="M174 -430q-74 0 -124 36t-50 87t33 87t79 36t102 -20.5t89 -20.5q133 0 209 184l-420 911q-25 53 -36 63.5t-56 18.5v72h645v-72q-78 -8 -100.5 -29.5t-1.5 -72.5l172 -432h4l151 432q18 53 -7 73.5t-105 28.5v72h409v-72q-61 -12 -93.5 -22t-59.5 -80l-287 -778 q-184 -502 -553 -502zM684 1237l-180 -111h-133l231 332h164l231 -332h-133z" glyph-name="ycircumflex" horiz-adv-x="1167" unicode="ŷ"/><glyph d="M424 1648.5q0 63.5 40 103.5t102 40t103.5 -40t41.5 -103.5t-41.5 -102.5t-103.5 -39t-102 39t-40 102.5zM823 1648q0 62 42 103t103.5 41t102.5 -41t41 -103t-41 -101.5t-103 -39.5t-103.5 39.5t-41.5 101.5zM492 154v419l-369 687q-23 43 -48.5 64.5t-74.5 27.5v82h655 v-82q-111 -13 -107.5 -55t21.5 -78l252 -492h4l199 461q39 90 14.5 118.5t-147.5 45.5v82h491v-82q-141 -27 -165.5 -54.5t-38.5 -58.5l-267 -600v-485q0 -39 17.5 -51.5t85.5 -20.5v-82h-625v82q68 8 85.5 20.5t17.5 51.5z" glyph-name="Ydieresis" horiz-adv-x="1382" unicode="Ÿ"/><glyph d="M768 102q217 0 307 256h82l-20 -358h-1106v143l676 1188h-273q-219 0 -280 -256h-82l10 359h1055v-144l-656 -1188h287zM844 1925q57 0 88.5 -33.5t31.5 -83.5t-55 -86l-303 -206l-51 49l197 305q35 55 92 55z" glyph-name="Zacute" horiz-adv-x="1187" unicode="Ź"/><glyph d="M666 123q82 0 116.5 44t67.5 171h102l-20 -338h-901v102l430 799h-133q-80 0 -111 -42t-63 -173h-103l10 338h861v-102l-426 -799h170zM722 1503q54 0 84 -32.5t30 -75.5t-54 -82l-274 -187l-51 50l178 276q33 51 87 51z" glyph-name="zacute" horiz-adv-x="983" unicode="ź"/><glyph d="M768 102q217 0 307 256h82l-20 -358h-1106v143l676 1188h-273q-219 0 -280 -256h-82l10 359h1055v-144l-656 -1188h287zM487 1669.5q0 63.5 40.5 103t102.5 39.5t103 -39.5t41 -103t-41 -102.5t-103 -39t-102.5 39t-40.5 102.5z" glyph-name="Zdotaccent" horiz-adv-x="1187" unicode="Ż"/><glyph d="M666 123q82 0 116.5 44t67.5 171h102l-20 -338h-901v102l430 799h-133q-80 0 -111 -42t-63 -173h-103l10 338h861v-102l-426 -799h170zM373 1267.5q0 63.5 41 103.5t102 40t102 -40t41 -103.5t-40.5 -102.5t-102.5 -39t-102.5 39t-40.5 102.5z" glyph-name="zdotaccent" horiz-adv-x="983" unicode="ż"/><glyph d="M451 1884l204 -133l205 133h133l-256 -368h-164l-256 368h134zM768 102q217 0 307 256h82l-20 -358h-1106v143l676 1188h-273q-219 0 -280 -256h-82l10 359h1055v-144l-656 -1188h287z" glyph-name="Zcaron" horiz-adv-x="1187" unicode="Ž"/><glyph d="M666 123q82 0 116.5 44t67.5 171h102l-20 -338h-901v102l430 799h-133q-80 0 -111 -42t-63 -173h-103l10 338h861v-102l-426 -799h170zM338 1458l180 -110l180 110h133l-231 -332h-164l-231 332h133z" glyph-name="zcaron" horiz-adv-x="983" unicode="ž"/><glyph d="M608 -20q-233 0 -390 114.5t-157 354.5q0 72 21 169h842v37q0 264 -133.5 399.5t-325.5 135.5t-348 -92l-47 104q104 109 196 160q166 92 382 92t381 -102.5t244 -265t79 -348.5t-65.5 -331t-173 -236t-239 -141t-266.5 -50zM623 109q240 0 288 358h-454 q-17 -72 -17 -161t53.5 -143t129.5 -54z" glyph-name="uni018F" horiz-adv-x="1413" unicode="Ə"/><glyph d="M111 -270q56 0 41 160.5t-5 252.5l80 748h-102l8 92l109 41q24 236 188 353.5t373 117.5q139 0 237.5 -59.5t98.5 -141.5q0 -61 -41.5 -104t-111.5 -43t-100 25.5t-30 51.5t9 48t9 39q0 61 -74 61t-106 -71.5t-49 -235.5l-4 -41h154l-15 -133h-153l-80 -748 q-27 -254 -203 -413.5t-369 -159.5q-59 0 -100 28t-41 86t34 95t86 37t94 -43t63 -43z" glyph-name="florin" horiz-adv-x="696" unicode="ƒ"/><glyph d="M799 154v276h-320l-100 -184q-78 -139 123 -164v-82h-492v82q96 18 140.5 38.5t74.5 74.5l676 1239h891l10 -359h-82q-59 256 -286 256h-215v-532h81q193 0 216 205h81v-533h-81q-23 205 -216 205h-81v-574h215q113 0 189.5 57.5t127.5 198.5h82l-21 -358h-1116v82 q68 8 85.5 20.5t17.5 51.5zM799 1006h-4l-248 -453h252v453zM1352 1925q57 0 88.5 -33.5t31.5 -83.5t-55 -86l-303 -206l-51 49l197 305q35 55 92 55z" glyph-name="AEacute" horiz-adv-x="1873" unicode="Ǽ"/><glyph d="M1141 1044q167 0 286 -85t119 -263q0 -53 -12 -123h-561v-20q0 -170 88 -254t211 -84t233 61l41 -98q-80 -90 -155 -131q-125 -68 -285 -67q-291 0 -438 204q-162 -205 -381 -204q-113 0 -179.5 70t-66.5 182t121 209.5t411 111.5v184q0 70 -37.5 122t-101.5 52 t-95.5 -31.5t-31.5 -64.5t25.5 -70.5t25.5 -72.5t-41 -61.5t-102 -26.5t-102 27.5t-41 84.5q0 111 136 229.5t326 118.5t308 -77q132 77 299 77zM1116 922q-117 0 -137 -215h215q14 43 14 92q0 123 -92 123zM449 317q0 -81 79 -81q41 0 82 57q-29 68 -35 160 q-59 -12 -92.5 -47t-33.5 -89zM1066 1503q54 0 84 -32.5t30 -75.5t-54 -82l-274 -187l-51 50l178 276q33 51 87 51z" glyph-name="aeacute" horiz-adv-x="1576" unicode="ǽ"/><glyph d="M1118 1925q57 0 89 -33.5t32 -83.5t-55 -86l-303 -206l-52 49l197 305q35 55 92 55zM829 -20q-115 0 -239 36l-45 -98h-144l68 150q-184 94 -296 265t-112 384q0 315 230.5 526t537.5 211q123 0 246 -41l45 103h142l-68 -152q182 -94 292.5 -265t110.5 -382 q0 -315 -230.5 -526t-537.5 -211zM829 1331q-184 0 -255.5 -151.5t-71.5 -455.5t61 -448l449 998q-74 57 -183 57zM829 102q184 0 256 152t72 453t-59 444l-447 -995q72 -54 178 -54z" glyph-name="Oslashacute" horiz-adv-x="1658" unicode="Ǿ"/><glyph d="M773 1503q54 0 84 -32.5t30 -75.5t-53 -82l-275 -187l-51 50l178 276q33 51 87 51zM573 -20q-74 0 -145 16l-27 -78h-82l35 100q-150 59 -236.5 191.5t-86.5 302.5q0 227 150.5 379.5t391.5 152.5q74 0 132 -14l26 76h80l-33 -96q156 -57 247 -191.5t91 -306.5 q0 -227 -150.5 -379.5t-392.5 -152.5zM573 102q123 0 123 367q0 180 -12 270l-197 -569q29 -68 86 -68zM573 922q-122 0 -122 -357q0 -170 6 -246l192 551q-29 52 -76 52z" glyph-name="oslashacute" horiz-adv-x="1146" unicode="ǿ"/><glyph d="M555 -61q184 0 184 -185q0 -113 -85 -194.5t-199 -122.5l-35 78q145 63 145 116q0 31 -33 31q-61 0 -101 36t-40 99.5t49 102.5t115 39zM635 1321q-57 0 -115.5 -39t-58.5 -117t63.5 -135t153.5 -104t180 -103.5t153.5 -152t63.5 -219.5q0 -236 -158.5 -353.5 t-388.5 -117.5q-113 0 -237.5 28.5t-208.5 73.5l-21 389h82q53 -186 131 -272t193 -86q80 0 139.5 49t59.5 139t-63.5 153.5t-154 109.5t-180.5 99.5t-153.5 144.5t-63.5 216q0 209 150.5 319.5t381.5 110.5t400 -92l21 -369h-82q-61 182 -116.5 255t-170.5 73z" glyph-name="Scommaaccent" horiz-adv-x="1126" unicode="Ș"/><glyph d="M492 922q-33 0 -63 -20.5t-30 -66.5t46.5 -87t113 -79t133 -82t112.5 -117t46 -163q0 -150 -118 -238.5t-343 -88.5q-80 0 -178 20t-160 51l-20 277h82q25 -76 64.5 -125t95.5 -75t106 -26q113 0 113 103q0 67 -124.5 131.5t-225.5 151t-101 249.5q0 133 100.5 220 t296.5 87t330 -63l20 -264h-81q-53 111 -100.5 158t-114.5 47zM438 -61q184 0 185 -185q0 -113 -85 -194.5t-200 -122.5l-35 78q145 63 146 116q0 31 -33 31q-61 0 -101.5 36t-40.5 99.5t49 102.5t115 39z" glyph-name="scommaaccent" horiz-adv-x="880" unicode="ș"/><glyph d="M612 -61q184 0 185 -185q0 -113 -85 -194.5t-200 -122.5l-35 78q145 63 146 116q0 31 -33 31q-61 0 -101 36t-40 99.5t48.5 102.5t114.5 39zM860 1331h-31v-1177q0 -39 17.5 -51.5t85.5 -20.5v-82h-625v82q68 8 85.5 20.5t17.5 51.5v1177h-31q-207 0 -266 -256h-82 l10 359h1157l10 -359h-82q-59 256 -266 256z" glyph-name="uni021A" horiz-adv-x="1239" unicode="Ț"/><glyph d="M522 891v-553q0 -127 13 -152q17 -39 79 -39t144 17l10 -62q-154 -123 -369 -122q-129 0 -202.5 60t-73.5 185v666h-103v92l103 41l297 307h102v-307h215v-133h-215zM371 -61q184 0 184 -185q0 -113 -85 -194.5t-200 -122.5l-34 78q145 63 145 116q0 31 -33 31 q-61 0 -101 36t-40 99.5t49 102.5t115 39z" glyph-name="uni021B" horiz-adv-x="778" unicode="ț"/><glyph d="M522 1044v-901q0 -254 -159.5 -413.5t-352.5 -159.5q-63 0 -108 33t-45 91t29.5 90t79.5 32t95 -43t67 -43t30 29.5t-13.5 174t-21.5 209.5v645q0 53 -16.5 68.5t-86.5 24.5v71l461 92h41z" glyph-name="uni0237" horiz-adv-x="624" unicode="ȷ"/><glyph d="M426 -20q-158 0 -276.5 85t-118.5 263q0 53 12 123h561v20q0 170 -88 254t-211 84t-233 -61l-41 98q80 90 155 131q125 68 285 67q254 0 393.5 -150.5t139.5 -371.5q0 -166 -86.5 -293t-210 -188t-281.5 -61zM461 102q113 0 137 215h-215q-14 -43 -14 -92q0 -123 92 -123 z" glyph-name="uni0259" horiz-adv-x="1034" unicode="ə"/><glyph d="M20 819v43q41 4 51.5 12.5t10.5 30.5v682q0 33 -10.5 42t-51.5 13v44l277 30h25l-7 -399h7q96 129 215 129q76 0 124 -45t48 -139v-357q0 -23 10 -31t51 -12v-43h-350v43q33 4 41 12.5t8 30.5v326q0 68 -55 67q-45 0 -92 -36v-357q0 -23 10 -31t51 -12v-43h-363z" glyph-name="uni02B0" horiz-adv-x="780" unicode="ʰ"/><glyph d="M317 1446v-541q0 -152 -96 -248t-211 -96q-37 0 -64.5 19.5t-27.5 58.5q0 70 68 70q29 0 56.5 -26t39.5 -26t17 19t-8 97t-13 132v387q0 33 -10.5 42t-51.5 14v43l277 55h24zM59 1591.5q0 53.5 38 82t95.5 28.5t94.5 -28.5t37 -82t-37 -81t-95 -27.5t-95.5 27.5t-37.5 81 z" glyph-name="uni02B2" horiz-adv-x="385" unicode="ʲ"/><glyph d="M1039 1384q-7 0 -15 -2t-11 -4t-8.5 -4t-7.5 -5t-6 -6t-6 -8t-5 -11.5t-5 -14.5l-164 -516h-125l-151 334l-129 -334h-125l-215 528q-12 31 -20.5 38t-35.5 12v43h387v-43q-45 -4 -58 -17.5t-3 -44.5l78 -260h4l121 371h123l157 -371h4l66 260q8 33 -6.5 45t-61.5 17v43 h246v-43q-21 -7 -28 -7z" glyph-name="uni02B7" horiz-adv-x="1077" unicode="ʷ"/><glyph d="M115 561q-45 0 -75 21.5t-30 52.5t19 52.5t47 21.5t63 -12.5t54 -12.5q80 0 124 111l-251 546q-14 31 -21.5 38t-34.5 12v43h387v-43q-47 -4 -60 -17.5t-1 -44.5l102 -260h4l90 260q12 33 -3 45t-64 17v43h246v-43q-37 -8 -56.5 -14t-36.5 -48l-172 -467 q-111 -301 -331 -301z" glyph-name="uni02B8" horiz-adv-x="720" unicode="ʸ"/><glyph d="M477 1237l-180 -111h-133l231 332h164l232 -332h-134z" glyph-name="circumflex" horiz-adv-x="954" unicode="ˆ"/><glyph d="M297 1458l180 -110l180 110h134l-232 -332h-164l-231 332h133z" glyph-name="caron" horiz-adv-x="954" unicode="ˇ"/><glyph d="M164 1255h635v-129h-635v129z" glyph-name="uni02C9" horiz-adv-x="962" unicode="ˉ"/><glyph d="M426 1126q-119 0 -190.5 85t-71.5 194h129q18 -88 133 -88t133 88h129q0 -109 -71.5 -194t-190.5 -85z" glyph-name="breve" horiz-adv-x="851" unicode="˘"/><glyph d="M164 1267.5q0 63.5 41 103.5t102 40t102.5 -40t41.5 -103.5t-41.5 -102.5t-103.5 -39t-102 39t-40 102.5z" glyph-name="dotaccent" horiz-adv-x="614" unicode="˙"/><glyph d="M164 1316q0 81 54 136t135 55t136.5 -55t55.5 -136t-55.5 -135.5t-136.5 -54.5t-135 54.5t-54 135.5zM258 1318q0 -40 28.5 -68.5t68.5 -28.5t68 28.5t28 68.5t-28 67.5t-69 27.5t-68.5 -27.5t-27.5 -67.5z" glyph-name="ring" horiz-adv-x="708" unicode="˚"/><glyph d="M365 -446q-201 0 -201 176q0 66 49 137.5t137 132.5h111q-104 -98 -105 -205q0 -66 46.5 -88.5t142.5 12.5v-92q-23 -31 -79 -52t-101 -21z" glyph-name="ogonek" horiz-adv-x="708" unicode="˛"/><glyph d="M412 1456q37 0 148.5 -37t146.5 -37q96 0 139 43l92 -51q-39 -78 -111.5 -163t-122.5 -85t-158 37t-140 37q-53 0 -74.5 -12.5t-75.5 -48.5l-92 51q39 82 115.5 174t132.5 92z" glyph-name="tilde" horiz-adv-x="1101" unicode="˜"/><glyph d="M429 1503q54 0 83.5 -32.5t29.5 -75.5t-53 -82l-274 -187l-51 50l178 276q33 51 87 51zM753 1503q54 0 83.5 -32.5t29.5 -75.5t-53 -82l-274 -187l-52 50l179 276q33 51 87 51z" glyph-name="hungarumlaut" horiz-adv-x="1030" unicode="˝"/><glyph d="M268 819h-258v43q65 6 82 15.5t29 27.5l127 178l-158 265q-20 37 -67 43v43h362v-43q-33 -6 -39 -15.5t14 -52.5l46 -76l57 76q47 59 -29 68v43h240v-43q-54 -12 -71 -23.5t-34 -32.5l-123 -155l172 -281q16 -29 68 -37v-43h-362v43q20 4 26 6t11 14.5t-13 35.5l-57 94 l-72 -107q-14 -23 -6 -31t55 -12v-43z" glyph-name="uni02E3" horiz-adv-x="696" unicode="ˣ"/><glyph d="M164 706.5q0 63.5 41 103.5t102 40t102.5 -40t41.5 -103.5t-41.5 -102.5t-103.5 -39t-102 39t-40 102.5z" glyph-name="uni037E" horiz-adv-x="614" unicode=";"/><glyph d="M256 123h606l-315 891h-4zM1337 0h-1296l504 1444h260z" glyph-name="Delta" horiz-adv-x="1378" unicode="Δ"/><glyph d="M256 123h606l-315 891h-4zM1337 0h-1296l504 1444h260z" glyph-name="Delta" horiz-adv-x="1378" unicode="∆"/><glyph d="M783.5 1331q-177.5 0 -214.5 -155t-37 -295q0 -139 9.5 -212t43 -175t173.5 -152v-342h-676l-21 358h82q10 -85 49 -121.5t97.5 -39t120.5 -2.5h225v38q-233 53 -383 216t-150 391q0 270 210 442t507 172t507 -172t210 -442q0 -227 -149.5 -390t-382.5 -217v-38h225 q173 0 214.5 39t51.5 124h82l-21 -358h-675v342q131 47 178 170t47 328q0 304 -72.5 397.5t-250 93.5z" glyph-name="Omega" horiz-adv-x="1638" unicode="Ω"/><glyph d="M783.5 1331q-177.5 0 -214.5 -155t-37 -295q0 -139 9.5 -212t43 -175t173.5 -152v-342h-676l-21 358h82q10 -85 49 -121.5t97.5 -39t120.5 -2.5h225v38q-233 53 -383 216t-150 391q0 270 210 442t507 172t507 -172t210 -442q0 -227 -149.5 -390t-382.5 -217v-38h225 q173 0 214.5 39t51.5 124h82l-21 -358h-675v342q131 47 178 170t47 328q0 304 -72.5 397.5t-250 93.5z" glyph-name="Omega" horiz-adv-x="1638" unicode="Ω"/><glyph d="M768 788q0 55 -22.5 69.5t-120.5 23.5v71l501 92h41v-849q0 -53 16.5 -68.5t86.5 -24.5v-71l-441 -51h-41l-10 215h-10q-162 -215 -358 -215q-33 0 -60 6q-49 -416 -340 -416q-63 0 -108 33t-45 91t29.5 90t79.5 32t95 -43t67 -43t30 29.5t-13.5 174t-21.5 209.5v645 q0 53 -16.5 68.5t-86.5 24.5v71l461 92h41v-706q0 -113 92 -113q75 0 102 21.5t38.5 30t13.5 10.5v501z" glyph-name="mu" horiz-adv-x="1280" unicode="μ"/><glyph d="M801 901h-248v-747q0 -39 17.5 -51.5t84.5 -20.5v-82h-624v82q68 8 85 20.5t17 51.5v716q0 39 -17.5 51.5t-84.5 20.5v82h1292v-82q-68 -8 -85 -20.5t-17 -51.5v-716q0 -39 17 -51.5t85 -20.5v-82h-625v82q68 8 85.5 20.5t17.5 51.5v747z" glyph-name="pi" horiz-adv-x="1333" unicode="π"/><glyph d="M223 510q0 139 94 233l-153 185l14 16l158 -184q88 74 196.5 74t196.5 -74l154 184l18 -16l-153 -183q98 -94 98 -235t-96 -234l149 -176l-18 -18l-152 178q-84 -72 -196.5 -72t-196.5 72l-152 -178l-16 18l149 176q-94 95 -94 234zM246 510q0 -121 85 -209t203 -88 t202.5 88t84.5 209t-85 210t-203 89t-202.5 -89t-84.5 -210z" glyph-name="sigma1" horiz-adv-x="1064" unicode="ς"/><glyph d="M223 510q0 139 94 233l-153 185l14 16l158 -184q88 74 196.5 74t196.5 -74l154 184l18 -16l-153 -183q98 -94 98 -235t-96 -234l149 -176l-18 -18l-152 178q-84 -72 -196.5 -72t-196.5 72l-152 -178l-16 18l149 176q-94 95 -94 234zM246 510q0 -121 85 -209t203 -88 t202.5 88t84.5 209t-85 210t-203 89t-202.5 -89t-84.5 -210z" glyph-name="sigma" horiz-adv-x="1064" unicode="σ"/><glyph d="M0 1434h655v-82q-45 -6 -66.5 -16.5t-31.5 -39t12 -77.5l262 -758h5l157 500l-82 299l-8 24q-8 24 -22.5 32.5t-22.5 14t-20.5 8.5t-49.5 13v82h646v-82q-68 -8 -86.5 -33t0.5 -100l190 -758h4l199 727q25 90 -10 118.5t-164 45.5v82h491v-82q-90 -16 -117.5 -35 t-46.5 -78l-354 -1249h-280l-203 739l-234 -739h-260l-440 1270q-16 49 -35.5 62t-87.5 30v82zM760 1808q0 49 31 83t89 34t93 -55l196 -305l-51 -49l-303 206q-55 37 -55 86z" glyph-name="Wgrave" horiz-adv-x="2058" unicode="Ẁ"/><glyph d="M0 1024h645v-72q-76 -8 -97.5 -28.5t-4.5 -73.5l131 -432h4l203 616h204l265 -616h4l110 432q14 55 -9 74.5t-103 27.5v72h409v-72q-96 -18 -116 -35t-37 -67l-275 -860h-207l-252 557l-217 -557h-206l-359 880q-23 53 -35 63.5t-57 18.5v72zM732 1503q54 0 87 -51 l178 -276l-51 -50l-274 187q-54 39 -54 82t30 75.5t84 32.5z" glyph-name="wgrave" horiz-adv-x="1761" unicode="ẁ"/><glyph d="M0 1434h655v-82q-45 -6 -66.5 -16.5t-31.5 -39t12 -77.5l262 -758h5l157 500l-82 299l-8 24q-8 24 -22.5 32.5t-22.5 14t-20.5 8.5t-49.5 13v82h646v-82q-68 -8 -86.5 -33t0.5 -100l190 -758h4l199 727q25 90 -10 118.5t-164 45.5v82h491v-82q-90 -16 -117.5 -35 t-46.5 -78l-354 -1249h-280l-203 739l-234 -739h-260l-440 1270q-16 49 -35.5 62t-87.5 30v82zM1323 1925q57 0 89 -33.5t32 -83.5t-55 -86l-304 -206l-51 49l197 305q35 55 92 55z" glyph-name="Wacute" horiz-adv-x="2058" unicode="Ẃ"/><glyph d="M0 1024h645v-72q-76 -8 -97.5 -28.5t-4.5 -73.5l131 -432h4l203 616h204l265 -616h4l110 432q14 55 -9 74.5t-103 27.5v72h409v-72q-96 -18 -116 -35t-37 -67l-275 -860h-207l-252 557l-217 -557h-206l-359 880q-23 53 -35 63.5t-57 18.5v72zM1193 1503q54 0 83.5 -32.5 t29.5 -75.5t-53 -82l-274 -187l-51 50l178 276q33 51 87 51z" glyph-name="wacute" horiz-adv-x="1761" unicode="ẃ"/><glyph d="M0 1434h655v-82q-45 -6 -66.5 -16.5t-31.5 -39t12 -77.5l262 -758h5l157 500l-82 299l-8 24q-8 24 -22.5 32.5t-22.5 14t-20.5 8.5t-49.5 13v82h646v-82q-68 -8 -86.5 -33t0.5 -100l190 -758h4l199 727q25 90 -10 118.5t-164 45.5v82h491v-82q-90 -16 -117.5 -35 t-46.5 -78l-354 -1249h-280l-203 739l-234 -739h-260l-440 1270q-16 49 -35.5 62t-87.5 30v82zM764 1648.5q0 63.5 40 103.5t102 40t103.5 -40t41.5 -103.5t-41.5 -102.5t-103.5 -39t-102 39t-40 102.5zM1163 1648q0 62 42 103t103.5 41t102.5 -41t41 -103t-41 -101.5 t-103 -39.5t-103.5 39.5t-41.5 101.5z" glyph-name="Wdieresis" horiz-adv-x="2058" unicode="Ẅ"/><glyph d="M0 1024h645v-72q-76 -8 -97.5 -28.5t-4.5 -73.5l131 -432h4l203 616h204l265 -616h4l110 432q14 55 -9 74.5t-103 27.5v72h409v-72q-96 -18 -116 -35t-37 -67l-275 -860h-207l-252 557l-217 -557h-206l-359 880q-23 53 -35 63.5t-57 18.5v72zM641 1259q0 58 38 96t96 38 t96 -38t38 -97t-37.5 -95.5t-95.5 -36.5t-96.5 37.5t-38.5 95.5zM1001 1259q0 58 39 96t96.5 38t96.5 -38t39 -96t-39 -95.5t-96.5 -37.5t-96.5 37.5t-39 95.5z" glyph-name="wdieresis" horiz-adv-x="1761" unicode="ẅ"/><glyph d="M492 154v419l-369 687q-23 43 -48.5 64.5t-74.5 27.5v82h655v-82q-111 -13 -107.5 -55t21.5 -78l252 -492h4l199 461q39 90 14.5 118.5t-147.5 45.5v82h491v-82q-141 -27 -165.5 -54.5t-38.5 -58.5l-267 -600v-485q0 -39 17.5 -51.5t85.5 -20.5v-82h-625v82 q68 8 85.5 20.5t17.5 51.5zM516 1925q57 0 92 -55l197 -305l-51 -49l-303 206q-55 37 -55 86t31.5 83t88.5 34z" glyph-name="Ygrave" horiz-adv-x="1382" unicode="Ỳ"/><glyph d="M174 -430q-74 0 -124 36t-50 87t33 87t79 36t102 -20.5t89 -20.5q133 0 209 184l-420 911q-25 53 -36 63.5t-56 18.5v72h645v-72q-78 -8 -100.5 -29.5t-1.5 -72.5l172 -432h4l151 432q18 53 -7 73.5t-105 28.5v72h409v-72q-61 -12 -93.5 -22t-59.5 -80l-287 -778 q-184 -502 -553 -502zM307 1395q0 43 30 75.5t84 32.5t87 -51l178 -276l-51 -50l-275 187q-53 39 -53 82z" glyph-name="ygrave" horiz-adv-x="1167" unicode="ỳ"/><glyph glyph-name="uni2009" horiz-adv-x="20" unicode=" "/><glyph d="M123 614h921v-133h-921v133z" glyph-name="figuredash" horiz-adv-x="1167" unicode="‒"/><glyph d="M123 614h921v-133h-921v133z" glyph-name="endash" horiz-adv-x="1167" unicode="–"/><glyph d="M123 614h1126v-133h-1126v133z" glyph-name="emdash" horiz-adv-x="1372" unicode="—"/><glyph d="M287 829q-102 0 -143.5 72t-41.5 164q0 150 85 249t200 140l35 -78q-88 -41 -137 -90t-49 -88q0 -51 66 -51t107.5 -45t41.5 -113t-49 -114t-115 -46z" glyph-name="quoteleft" horiz-adv-x="552" unicode="‘"/><glyph d="M266 1454q102 0 143.5 -71.5t41.5 -163.5q0 -150 -85 -249.5t-200 -140.5l-35 78q88 41 137 90.5t49 87.5q0 51 -66 51t-107.5 45t-41.5 113t49 114t115 46z" glyph-name="quoteright" horiz-adv-x="552" unicode="’"/><glyph d="M266 317q102 0 143.5 -71.5t41.5 -163.5q0 -150 -85 -249t-200 -140l-35 78q88 41 137 90t49 88q0 51 -66 51t-107.5 45t-41.5 113t49 113.5t115 45.5z" glyph-name="quotesinglbase" horiz-adv-x="552" unicode="‚"/><glyph d="M696 829q-102 0 -143 72t-41 164q0 150 85 249t200 140l34 -78q-88 -41 -137 -90t-49 -88q1 -51 67 -51t107 -45t41 -113t-49 -114t-115 -46zM287 829q-102 0 -143.5 72t-41.5 164q0 150 85 249t200 140l35 -78q-88 -41 -137 -90t-49 -88q0 -51 66 -51t107.5 -45 t41.5 -113t-49 -114t-115 -46z" glyph-name="quotedblleft" horiz-adv-x="962" unicode="“"/><glyph d="M266 1454q102 0 143.5 -71.5t41.5 -163.5q0 -150 -85 -249.5t-200 -140.5l-35 78q88 41 137 90.5t49 87.5q0 51 -66 51t-107.5 45t-41.5 113t49 114t115 46zM676 1454q102 0 143 -71.5t41 -163.5q0 -150 -85 -249.5t-200 -140.5l-34 78q88 41 137 90.5t49 87.5 q-1 51 -67 51t-107 45t-41 113t49 114t115 46z" glyph-name="quotedblright" horiz-adv-x="962" unicode="”"/><glyph d="M266 317q102 0 143.5 -71.5t41.5 -163.5q0 -150 -85 -249t-200 -140l-35 78q88 41 137 90t49 88q0 51 -66 51t-107.5 45t-41.5 113t49 113.5t115 45.5zM676 317q102 0 143 -71.5t41 -163.5q0 -150 -85 -249t-200 -140l-34 78q88 41 137 90t49 88q-1 51 -67 51t-107 45 t-41 113t49 113.5t115 45.5z" glyph-name="quotedblbase" horiz-adv-x="962" unicode="„"/><glyph d="M1014 928.5q0 60.5 -45 60.5q-56 0 -144 -88t-113 -115.5t-46 -48.5h-103q-21 21 -46 48.5t-50 52t-39 38t-69 63.5t-99 50q-45 0 -45 -60.5t-19.5 -88t-59.5 -27.5t-67.5 25.5t-27.5 87.5t57.5 110.5t161.5 48.5t303 -122q-16 51 -75.5 158.5t-59.5 148.5q0 90 52 137 t134 47t134.5 -47t52.5 -137q0 -41 -59.5 -149.5t-75.5 -157.5q193 123 300 123t164.5 -49.5t57.5 -110.5t-27.5 -87t-67.5 -26t-59.5 27.5t-19.5 88zM666 -20h-103q0 113 -67.5 297t-67.5 235q0 90 52 137t134 47t134.5 -47t52.5 -137q0 -51 -67.5 -235t-67.5 -297z" glyph-name="dagger" unicode="†"/><glyph d="M1014 928.5q0 60.5 -45 60.5q-56 0 -144 -88t-113 -115.5t-46 -48.5h-103q-21 21 -46 48.5t-50 52t-39 38t-69 63.5t-99 50q-45 0 -45 -60.5t-19.5 -88t-59.5 -27.5t-67.5 25.5t-27.5 87.5t57.5 110.5t161.5 48.5t303 -122q-16 51 -75.5 158.5t-59.5 148.5q0 90 52 137 t134 47t134.5 -47t52.5 -137q0 -41 -59.5 -149.5t-75.5 -157.5q193 123 300 123t164.5 -49.5t57.5 -110.5t-27.5 -87t-67.5 -26t-59.5 27.5t-19.5 88zM215 504.5q0 -60.5 45 -60.5q55 0 143.5 88.5t108.5 110.5t51 53h103q31 -31 51 -53t44.5 -47t39 -38t70 -63.5 t99.5 -50.5t44 60.5t19.5 88.5t59.5 28t67.5 -25.5t27.5 -87.5t-57 -111t-165 -49t-300 123q16 -49 75.5 -157.5t59.5 -149.5q0 -90 -52.5 -137t-134.5 -47t-134 47t-52 137q0 41 59.5 148.5t75.5 158.5q-199 -123 -303 -123t-161.5 49t-57.5 111t27.5 87.5t67.5 25.5 t59.5 -28t19.5 -88.5z" glyph-name="daggerdbl" unicode="‡"/><glyph d="M102 663q0 101 71 171.5t172 70.5t172 -71.5t71 -172t-71 -171t-173 -70.5t-172 71t-70 172z" glyph-name="bullet" horiz-adv-x="690" unicode="•"/><glyph d="M102 153q0 67 49 115.5t115 48.5t115 -49.5t49 -115.5t-49 -114t-116 -48t-115 48t-48 115z" glyph-name="onedotenleader" horiz-adv-x="532" unicode="․"/><glyph d="M102 153q0 67 49 115.5t115 48.5t115 -49.5t49 -115.5t-49 -114t-116 -48t-115 48t-48 115zM512 153q0 67 48 115.5t115 48.5t116 -49.5t49 -115.5t-50 -114t-116 -48t-114 48t-48 115z" glyph-name="twodotenleader" horiz-adv-x="942" unicode="‥"/><glyph d="M102 153q0 67 49 115.5t115 48.5t115 -49.5t49 -115.5t-49 -114t-116 -48t-115 48t-48 115zM512 153q0 67 48 115.5t115 48.5t116 -49.5t49 -115.5t-50 -114t-116 -48t-114 48t-48 115zM922 153q0 67 48 115.5t114 48.5t115.5 -49.5t49.5 -115.5t-49 -114t-116 -48 t-114.5 48t-47.5 115z" glyph-name="ellipsis" horiz-adv-x="1351" unicode="…"/><glyph d="M1100 1434h141l-717 -1434h-143zM1218 614q142 0 234 -92t90 -225t-100.5 -225t-239.5 -92t-232 92t-87 225q0 133 96.5 225t238.5 92zM1135 297q0 -139 16 -192.5t61 -53.5t60.5 53.5t15.5 192.5t-15.5 191.5t-60.5 52.5t-61 -52.5t-16 -191.5zM420 1454q141 0 233 -92 t90 -225t-100 -225.5t-239.5 -92.5t-232.5 92.5t-87 225.5q0 133 97.5 225t238.5 92zM336 1136.5q0 -139.5 16.5 -192.5t61.5 -53t60 53t15 192.5t-15 191.5t-60 52t-61.5 -52t-16.5 -191.5zM1946 614q142 0 233.5 -92t89.5 -225t-100 -225t-239.5 -92t-232.5 92t-87 225 q0 133 97 225t239 92zM1862 297q0 -139 16 -192.5t60 -53.5t60.5 53.5t16.5 192.5t-15 191.5t-60.5 52.5t-61.5 -52.5t-16 -191.5z" glyph-name="perthousand" horiz-adv-x="2351" unicode="‰"/><glyph d="M809 850l-264 -299l264 -305v-158l-635 424v72l635 426v-160z" glyph-name="guilsinglleft" horiz-adv-x="983" unicode="‹"/><glyph d="M438 551l-264 299v160l635 -426v-72l-635 -424v158z" glyph-name="guilsinglright" horiz-adv-x="983" unicode="›"/><glyph d="M123 1311q0 184 186.5 184t186.5 -184q0 -84 -56.5 -414.5t-79.5 -486.5h-102q-20 135 -77.5 470.5t-57.5 430.5zM143 153q0 67 48.5 115.5t114.5 48.5t115.5 -49.5t49.5 -115.5t-49 -114t-116 -48t-115 48t-48 115zM573 1311q0 184 186.5 184t186.5 -184q0 -81 -56 -413 t-79 -488h-102q-20 135 -78 469.5t-58 431.5zM594 153q0 67 48 115.5t115 48.5t116 -49.5t49 -115.5t-50 -114t-116 -48t-114 48t-48 115z" glyph-name="exclamdbl" horiz-adv-x="1069" unicode="‼"/><glyph d="M623 1454h90l-492 -1474h-92z" glyph-name="fraction" horiz-adv-x="839" unicode="⁄"/><glyph d="M61 1239q0 168 95.5 290t243 122t242.5 -122t95 -290t-95 -290t-242.5 -122t-243 122t-95.5 290zM473 1239q0 178 -16.5 258t-57.5 80t-57 -80t-16 -258t16 -258t57 -80t57.5 80t16.5 258z" glyph-name="uni2070" horiz-adv-x="798" unicode="⁰"/><glyph d="M633 840h-252v196h-320v31l412 584h160v-541h67v-74h-67v-196zM381 1110v301l-217 -301h217z" glyph-name="uni2074" horiz-adv-x="761" unicode="⁴"/><glyph d="M602 1638v-178h-389l-4 -86q269 0 346.5 -89t77.5 -181q0 -129 -91 -203t-253 -74q-96 0 -162 51.5t-66 120.5q0 43 24 71t67 28q82 0 81 -58q0 -16 -15 -39t-15 -45t23.5 -38.5t49.5 -16.5q59 0 88 41t29 90q0 88 -51 135t-182 47h-25l15 424h452z" glyph-name="uni2075" horiz-adv-x="694" unicode="⁵"/><glyph d="M449 1085q0 80 -24 129.5t-56 49.5q-18 0 -50 -11q-6 -115 10.5 -233.5t57.5 -118.5q62 0 62 184zM688 1099q0 -120 -91 -196t-221 -76t-222.5 92.5t-92.5 233.5q0 190 138.5 330.5t341.5 179.5l18 -55q-223 -63 -240 -289q55 43 155 43t157 -71.5t57 -191.5z" glyph-name="uni2076" horiz-adv-x="749" unicode="⁶"/><glyph d="M190 1460q-41 0 -55 -16.5t-24 -57.5h-50l7 252h546v-104l-217 -694h-270l371 620h-308z" glyph-name="uni2077" horiz-adv-x="675" unicode="⁷"/><glyph d="M78 1442q0 96 84 152.5t198 56.5t192.5 -45t78.5 -133q0 -53 -43 -101.5t-115 -66.5q151 -74 176 -131.5t25 -106.5q0 -123 -88 -181.5t-230 -58.5t-218.5 60.5t-76.5 134.5t43 125t115 65q-141 89 -141 230zM281 1043q0 -73 23.5 -107.5t53.5 -34.5q70 0 70 109 q0 51 -33 84.5t-98 70.5q-16 -49 -16 -122zM428 1479q0 98 -55 98q-20 0 -41 -27.5t-21 -70.5q0 -80 92 -138q25 83 25 138z" glyph-name="uni2078" horiz-adv-x="735" unicode="⁸"/><glyph d="M301 1393q0 -80 23.5 -129.5t56.5 -49.5q18 0 49 11q6 115 -10.5 233.5t-57.5 118.5q-61 0 -61 -184zM61 1379q0 120 91.5 196t221.5 76t222 -92.5t92 -233.5q0 -190 -138 -330.5t-341 -179.5l-19 55q223 63 240 289q-54 -43 -154 -43t-157.5 71.5t-57.5 191.5z" glyph-name="uni2079" horiz-adv-x="749" unicode="⁹"/><glyph d="M20 819v43q41 4 51.5 12.5t10.5 30.5v387q0 33 -10.5 42t-51.5 14v43l277 55h25l-7 -129h7q96 129 215 129q76 0 124 -45t48 -139v-357q0 -23 10 -31t51 -12v-43h-350v43q33 4 41 12.5t8 30.5v326q0 68 -55 67q-45 0 -92 -36v-357q0 -23 10 -31t51 -12v-43h-363z" glyph-name="uni207F" horiz-adv-x="780" unicode="ⁿ"/><glyph d="M61 194.5q0 167.5 95.5 289.5t243 122t242.5 -122t95 -289.5t-95 -289.5t-242.5 -122t-243 122t-95.5 289.5zM473 194.5q0 178.5 -16.5 258t-57.5 79.5t-57 -79.5t-16 -258t16 -258t57 -79.5t57.5 79.5t16.5 258z" glyph-name="uni2080" horiz-adv-x="798" unicode="₀"/><glyph d="M246 -113v566l-178 -25l-7 43l388 135h49v-719q0 -25 24.5 -32t134.5 -11v-49h-577v49q113 4 139.5 11t26.5 32z" glyph-name="uni2081" horiz-adv-x="718" unicode="₁"/><glyph d="M282 532q-37 0 -55 -18t-18 -38t15.5 -43t15.5 -42q0 -55 -86 -55t-86 67q0 80 74.5 141.5t195.5 61.5t198.5 -63.5t77.5 -169.5q0 -199 -338 -400h363v-178h-578v72q301 246 301 500q0 63 -21.5 114t-58.5 51z" glyph-name="uni2082" horiz-adv-x="700" unicode="₂"/><glyph d="M633 5q0 -93 -89.5 -157.5t-211.5 -64.5t-196.5 61.5t-74.5 141.5q0 68 86 67.5t86 -55.5q0 -18 -15 -42t-15 -44t18.5 -37.5t56.5 -17.5t70.5 44.5t32.5 126.5t-35 115t-100 33v74q135 0 135 153q0 129 -86 129q-31 0 -49.5 -18t-18.5 -38t15.5 -43t15.5 -42 q0 -55 -86 -55t-86 67q0 80 75 141.5t193 61.5t186 -53t68 -129t-60.5 -132t-154.5 -71v-2q240 -28 240 -214z" glyph-name="uni2083" horiz-adv-x="694" unicode="₃"/><glyph d="M633 -205h-252v197h-320v31l412 583h160v-540h67v-74h-67v-197zM381 66v301l-217 -301h217z" glyph-name="uni2084" horiz-adv-x="761" unicode="₄"/><glyph d="M602 594v-178h-389l-4 -86q268 0 346 -89.5t78 -181.5q0 -129 -91 -202.5t-253 -73.5q-96 0 -162 51t-66 121q0 43 24 70.5t67 27.5q82 0 81 -57q0 -16 -15 -39t-15 -45t23.5 -38.5t49.5 -16.5q59 0 88 41t29 90q0 88 -51 135t-182 47h-25l15 424h452z" glyph-name="uni2085" horiz-adv-x="694" unicode="₅"/><glyph d="M449 41q0 80 -24 129t-56 49q-18 0 -50 -10q-6 -115 10.5 -233.5t57.5 -118.5q62 0 62 184zM688 55q0 -120 -91 -196t-221 -76t-222.5 92t-92.5 234q0 190 138.5 330.5t341.5 178.5l18 -55q-223 -63 -240 -289q55 43 155 43t157 -71t57 -191z" glyph-name="uni2086" horiz-adv-x="749" unicode="₆"/><glyph d="M190 416q-41 0 -55 -16.5t-24 -57.5h-50l7 252h546v-105l-217 -694h-270l371 621h-308z" glyph-name="uni2087" horiz-adv-x="675" unicode="₇"/><glyph d="M78 397q0 96 84 152.5t198 56.5t192.5 -45t78.5 -133q0 -53 -43 -101t-115 -67q151 -74 176 -131t25 -106q0 -123 -88 -181.5t-230 -58.5t-218.5 60.5t-76.5 134.5t43 125t115 65q-141 88 -141 229zM281 -1q0 -73 23.5 -107.5t53.5 -34.5q70 0 70 108q0 51 -33 85t-98 71 q-16 -49 -16 -122zM428 434q0 98 -55 98q-20 0 -41 -27.5t-21 -70.5q0 -80 92 -137q25 82 25 137z" glyph-name="uni2088" horiz-adv-x="735" unicode="₈"/><glyph d="M301 348q0 -80 23.5 -129t56.5 -49q18 0 49 10q6 115 -10.5 233.5t-57.5 118.5q-61 0 -61 -184zM61 335q0 120 91.5 195.5t221.5 75.5t222 -92t92 -233q0 -190 -138 -330.5t-341 -179.5l-19 55q223 63 240 289q-54 -43 -154 -43t-157.5 71.5t-57.5 191.5z" glyph-name="uni2089" horiz-adv-x="749" unicode="₉"/><glyph d="M799 102q156 0 231.5 79t110.5 214h80l-19 -301q-176 -115 -403 -114q-326 0 -537 195.5t-211 496.5t211 495.5t537 194.5q219 0 403 -115l21 -301h-82q-20 86 -54 141l-460 -919q66 -66 172 -66zM492 672q0 -152 22 -264l406 813q-63 18 -121 18q-307 0 -307 -567z M532 330q27 -78 58 -119l463 926q-37 43 -84 65z" glyph-name="colonmonetary" horiz-adv-x="1273" unicode="₡"/><glyph d="M51 870h109q66 223 260 357.5t437 134.5t427 -115l21 -301h-82q-33 135 -109 214t-233 79q-248 0 -297 -369h266l-41 -133h-236v-65q0 -61 2 -88h275l-41 -133h-221q53 -348 293 -349q156 0 231.5 79t110.5 214h80l-19 -301q-176 -114 -420 -114t-436 128t-262 343h-115 v133h86q-4 57 -4 94t2 59h-84v133z" glyph-name="franc" horiz-adv-x="1355" unicode="₣"/><glyph d="M51 870h109q66 223 260 357.5t437 134.5t427 -115l21 -301h-82q-33 135 -109 214t-233 79q-248 0 -297 -369h266l-41 -133h-236v-65q0 -61 2 -88h275l-41 -133h-221q53 -348 293 -349q156 0 231.5 79t110.5 214h80l-19 -301q-176 -114 -420 -114t-436 128t-262 343h-115 v133h86q-4 57 -4 94t2 59h-84v133z" glyph-name="lira" horiz-adv-x="1355" unicode="₤"/><glyph d="M51 870h109q66 223 260 357.5t437 134.5t427 -115l21 -301h-82q-33 135 -109 214t-233 79q-248 0 -297 -369h266l-41 -133h-236v-65q0 -61 2 -88h275l-41 -133h-221q53 -348 293 -349q156 0 231.5 79t110.5 214h80l-19 -301q-176 -114 -420 -114t-436 128t-262 343h-115 v133h86q-4 57 -4 94t2 59h-84v133z" glyph-name="peseta" horiz-adv-x="1355" unicode="₧"/><glyph d="M51 870h109q66 223 260 357.5t437 134.5t427 -115l21 -301h-82q-33 135 -109 214t-233 79q-248 0 -297 -369h266l-41 -133h-236v-65q0 -61 2 -88h275l-41 -133h-221q53 -348 293 -349q156 0 231.5 79t110.5 214h80l-19 -301q-176 -114 -420 -114t-436 128t-262 343h-115 v133h86q-4 57 -4 94t2 59h-84v133z" glyph-name="Euro" horiz-adv-x="1355" unicode="€"/><glyph d="M395 317q0 -276 162 -276q72 0 129 59q66 61 107 211h36q-43 -172 -135 -260q-72 -71 -167 -71t-162.5 50t-98.5 134q-20 72 -20 219v106l-162 -170l-25 23l187 203v497q0 211 78 310q86 102 186 102t151.5 -55.5t51.5 -153.5t-64 -228t-254 -355v-345zM395 1112v-395 q266 319 267 495q0 84 -38 133.5t-95.5 50t-95.5 -57.5t-38 -226z" glyph-name="afii61289" horiz-adv-x="888" unicode="ℓ"/><glyph d="M1300 -10h-225l-737 1106v-942q0 -39 25.5 -51.5t138.5 -20.5v-82h-461v82q113 8 138.5 20.5t25.5 51.5v1126q0 39 -25.5 51t-138.5 21v82h584l542 -789v635q0 39 -25.5 51t-137.5 21v82h460v-82q-113 -8 -138.5 -20.5t-25.5 -51.5v-1290zM1475 737h675v-92h-675v92z M1810.5 807q-145.5 0 -235.5 91t-90 228.5t90 228.5t235.5 91t235.5 -91t90 -228.5t-90 -228.5t-235.5 -91zM1810.5 1372q-73.5 0 -73.5 -245.5t73.5 -245.5t73.5 245.5t-73.5 245.5z" glyph-name="afii61352" horiz-adv-x="2191" unicode="№"/><glyph d="M498 1382h-17v-589q0 -18 9.5 -25.5t41.5 -9.5v-41h-311v41q33 2 42 9t9 26v589h-16q-102 0 -133 -129h-41l6 181h578l6 -181h-41q-31 129 -133 129zM860 793q0 -18 13.5 -25.5t68.5 -9.5v-41h-229v41q55 2 68.5 9t13.5 26v563q0 20 -13.5 26.5t-68.5 10.5v41h291 l163 -471l140 471h260v-41q-35 -4 -43 -10.5t-8 -26.5v-563q0 -18 9 -25.5t42 -9.5v-41h-312v41q33 2 42.5 9.5t9.5 25.5l10 436l-154 -518h-133l-170 518v-436z" glyph-name="trademark" horiz-adv-x="1648" unicode="™"/><glyph d="M352 715v-482q160 -160 375 -159q324 0 500 321l90 -53q-131 -195 -262 -278.5t-328 -83.5q-295 0 -481.5 209.5t-186.5 528.5t186.5 527.5t474.5 208.5t475.5 -193.5t201.5 -545.5h-1045zM352 813h752v387q-162 158 -380 158t-372 -158v-387z" glyph-name="estimated" horiz-adv-x="1456" unicode="℮"/><glyph d="M246 727v565l-178 -24l-7 43l388 135h49v-719q0 -25 24.5 -32t134.5 -11v-49h-577v49q113 4 139.5 11t26.5 32zM1679 210q0 -93 -89 -157.5t-211 -64.5t-196.5 61.5t-74.5 140.5q0 68 86 68t86 -55q0 -18 -15.5 -41.5t-15.5 -43.5t18.5 -38.5t57.5 -18.5t70.5 45.5 t31.5 127.5t-34.5 114.5t-100.5 32.5v74q135 0 135 153q0 129 -86 129q-31 0 -49 -18.5t-18 -37.5t15.5 -43t15.5 -42q0 -55 -86 -55t-86 67q0 80 74.5 141.5t193.5 61.5t186.5 -53t67.5 -130t-60.5 -132.5t-154.5 -69.5v-2q239 -28 239 -214zM1114 1454h90l-491 -1474h-92z " glyph-name="onethird" horiz-adv-x="1740" unicode="⅓"/><glyph d="M282 1372q-37 0 -55 -18.5t-18 -37.5t15.5 -43t15.5 -42q0 -55 -86 -55t-86 67q0 80 74.5 141.5t195.5 61.5t198.5 -63.5t77.5 -170.5q0 -199 -338 -399h363v-178h-578v72q301 246 301 499q0 63 -21.5 114.5t-58.5 51.5zM1679 210q0 -93 -89 -157.5t-211 -64.5 t-196.5 61.5t-74.5 140.5q0 68 86 68t86 -55q0 -18 -15.5 -41.5t-15.5 -43.5t18.5 -38.5t57.5 -18.5t70.5 45.5t31.5 127.5t-34.5 114.5t-100.5 32.5v74q135 0 135 153q0 129 -86 129q-31 0 -49 -18.5t-18 -37.5t15.5 -43t15.5 -42q0 -55 -86 -55t-86 67q0 80 74.5 141.5 t193.5 61.5t186.5 -53t67.5 -130t-60.5 -132.5t-154.5 -69.5v-2q239 -28 239 -214zM1114 1454h90l-491 -1474h-92z" glyph-name="twothirds" horiz-adv-x="1740" unicode="⅔"/><glyph d="M1083 602q0 96 83.5 152.5t197.5 56.5t193 -45t79 -133q0 -53 -43 -101.5t-114 -66.5q152 -74 176 -131.5t24 -106.5q0 -123 -88 -181t-229 -58t-218 60t-77 134t43 125t115 66q-142 88 -142 229zM246 727v565l-178 -24l-7 43l388 135h49v-719q0 -25 24.5 -32t134.5 -11 v-49h-577v49q113 4 139.5 11t26.5 32zM1104 1454h90l-492 -1474h-92zM1286 204q0 -73 23.5 -108t54.5 -35q70 0 70 109q0 51 -33 85t-98 71q-17 -49 -17 -122zM1434 639q0 98 -56 98q-20 0 -40.5 -27.5t-20.5 -70.5q0 -80 92 -137q25 82 25 137z" glyph-name="oneeighth" horiz-adv-x="1740" unicode="⅛"/><glyph d="M1083 602q0 96 83.5 152.5t197.5 56.5t193 -45t79 -133q0 -53 -43 -101.5t-114 -66.5q152 -74 176 -131.5t24 -106.5q0 -123 -88 -181t-229 -58t-218 60t-77 134t43 125t115 66q-142 88 -142 229zM633 845q0 -93 -89.5 -157.5t-211.5 -64.5t-196.5 61t-74.5 141 q0 68 86 68t86 -55q0 -18 -15 -42t-15 -44t18.5 -38t56.5 -18t70.5 45t32.5 127t-35 115t-100 33v74q135 0 135 153q0 129 -86 129q-31 0 -49.5 -18.5t-18.5 -37.5t15.5 -43t15.5 -42q0 -55 -86 -55t-86 67q0 80 75 141.5t193 61.5t186 -54t68 -130t-60.5 -131.5 t-154.5 -69.5v-2q240 -28 240 -214zM1053 1454h90l-492 -1474h-92zM1286 204q0 -73 23.5 -108t54.5 -35q70 0 70 109q0 51 -33 85t-98 71q-17 -49 -17 -122zM1434 639q0 98 -56 98q-20 0 -40.5 -27.5t-20.5 -70.5q0 -80 92 -137q25 82 25 137z" glyph-name="threeeighths" horiz-adv-x="1740" unicode="⅜"/><glyph d="M1083 602q0 96 83.5 152.5t197.5 56.5t193 -45t79 -133q0 -53 -43 -101.5t-114 -66.5q152 -74 176 -131.5t24 -106.5q0 -123 -88 -181t-229 -58t-218 60t-77 134t43 125t115 66q-142 88 -142 229zM602 1434v-179h-389l-4 -86q269 0 346.5 -89t77.5 -181 q0 -129 -91 -202.5t-253 -73.5q-96 0 -162 51t-66 121q0 43 24 70.5t67 27.5q82 0 81 -57q0 -14 -15 -38t-15 -46t23.5 -39t49.5 -17q59 0 88 41t29 90q0 88 -51 135.5t-182 47.5h-25l15 424h452zM1053 1454h90l-492 -1474h-92zM1286 204q0 -73 23.5 -108t54.5 -35 q70 0 70 109q0 51 -33 85t-98 71q-17 -49 -17 -122zM1434 639q0 98 -56 98q-20 0 -40.5 -27.5t-20.5 -70.5q0 -80 92 -137q25 82 25 137z" glyph-name="fiveeighths" horiz-adv-x="1740" unicode="⅝"/><glyph d="M1083 602q0 96 83.5 152.5t197.5 56.5t193 -45t79 -133q0 -53 -43 -101.5t-114 -66.5q152 -74 176 -131.5t24 -106.5q0 -123 -88 -181t-229 -58t-218 60t-77 134t43 125t115 66q-142 88 -142 229zM190 1255q-41 0 -55 -16t-24 -57h-50l7 252h546v-105l-217 -694h-270 l371 620h-308zM971 1454h90l-492 -1474h-92zM1286 204q0 -73 23.5 -108t54.5 -35q70 0 70 109q0 51 -33 85t-98 71q-17 -49 -17 -122zM1434 639q0 98 -56 98q-20 0 -40.5 -27.5t-20.5 -70.5q0 -80 92 -137q25 82 25 137z" glyph-name="seveneighths" horiz-adv-x="1740" unicode="⅞"/><glyph d="M408 240q0 -137 63 -138q55 0 138.5 179t115.5 481q-31 6 -55 6q-113 0 -187.5 -130t-74.5 -398zM585 1311q-56 0 -93.5 -31t-45.5 -64t8.5 -67.5t16.5 -54.5q0 -57 -50 -84t-114 -27q-123 0 -123 92q0 131 128 245t298 114q238 0 377 -195t139 -521t-199.5 -532 t-480.5 -206q-172 0 -293.5 103t-121.5 282q0 225 169 385.5t429 160.5q53 0 121 -12q12 62 -7.5 183.5t-60.5 175t-97 53.5z" glyph-name="partialdiff" horiz-adv-x="1157" unicode="∂"/><glyph d="M975 1311h-412v-1690q0 -39 17.5 -51t85.5 -21v-81h-625v81q68 8 85 20.5t17 51.5v1659q0 39 -17 51t-85 21v82h1456v-82q-68 -8 -85 -20.5t-17 -51.5v-1659q0 -39 17.5 -51t84.5 -21v-81h-625v81q68 8 85.5 20.5t17.5 51.5v1690z" glyph-name="product" horiz-adv-x="1538" unicode="∏"/><glyph d="M778 1331h-286l348 -606l-348 -623h286q113 0 189.5 57.5t128.5 198.5h82l-21 -358h-1116v164l317 557l-317 549v164h1096l10 -359h-82q-59 256 -287 256z" glyph-name="summation" horiz-adv-x="1218" unicode="∑"/><glyph d="M174 727h799v-133h-799v133z" glyph-name="minus" horiz-adv-x="1146" unicode="−"/><glyph d="M623 1454h90l-492 -1474h-92z" glyph-name="uni2215" horiz-adv-x="839" unicode="∕"/><glyph d="M164 706.5q0 63.5 41 103.5t102 40t102.5 -40t41.5 -103.5t-41.5 -102.5t-103.5 -39t-102 39t-40 102.5z" glyph-name="uni2219" horiz-adv-x="614" unicode="∙"/><glyph d="M3400 1843v-153h-1770l-719 -1895h-235l-324 993h-229v113h520l258 -850l676 1792h1823z" glyph-name="radical" horiz-adv-x="1556" unicode="√"/><glyph d="M503 389q-144 0 -231.5 91t-87.5 226.5t87 226.5t231 91t253 -59.5t220 -165.5q125 109 225 167t228 58t215.5 -91t87.5 -226.5t-87.5 -226.5t-216.5 -91t-229 57.5t-223 165.5q-109 -104 -218.5 -163.5t-253.5 -59.5zM504 901q-88 0 -142.5 -58.5t-54.5 -136t54.5 -136 t142.5 -58.5t175 50t193 145q-106 94 -193 144t-175 50zM1409 901q-90 0 -167 -49t-173 -145q96 -96 173 -145.5t167 -49.5t144.5 58.5t54.5 136t-54.5 136t-144.5 58.5z" glyph-name="infinity" horiz-adv-x="1914" unicode="∞"/><glyph d="M111 -270q56 0 41 160.5t-5 252.5l97 901q23 217 186.5 334t372.5 117q139 0 237.5 -59.5t98.5 -141.5q0 -61 -41.5 -104t-111.5 -43t-100 25.5t-30 51.5t9 48t9 39q0 61 -74 61t-105.5 -70.5t-49.5 -236.5l-98 -922q-27 -254 -203 -413.5t-369 -159.5q-59 0 -100 28 t-41 86t34 95t86 37t94 -43t63 -43z" glyph-name="integral" horiz-adv-x="696" unicode="∫"/><glyph d="M410 993q41 0 164.5 -76.5t166.5 -76.5t84 39t66 84l92 -52q-45 -88 -118 -177t-129 -89t-177 77t-170 77q-77 -1 -153 -144l-93 52q45 92 124 189t143 97zM410 686q41 0 164.5 -77t166.5 -77t84 39t66 84l92 -51q-45 -88 -118 -177t-129 -89t-177 77t-170 77 q-77 -1 -153 -144l-93 51q45 92 124 189.5t143 97.5z" glyph-name="approxequal" horiz-adv-x="1126" unicode="≈"/><glyph d="M174 584h299l45 153h-344v133h383l98 340h142l-99 -340h275v-133h-314l-45 -153h359v-133h-395l-97 -336h-143l96 336h-260v133z" glyph-name="notequal" horiz-adv-x="1146" unicode="≠"/><glyph d="M973 203h-799v133h578l-578 307v72l799 426v-160l-613 -299l613 -305v-174z" glyph-name="lessequal" horiz-adv-x="1146" unicode="≤"/><glyph d="M973 336v-133h-799v174l612 305l-612 299v160l799 -426v-72l-578 -307h578z" glyph-name="greaterequal" horiz-adv-x="1146" unicode="≥"/><glyph d="M604 -61l-399 766l399 765h45l400 -765l-400 -766h-45zM457 705l170 -332l170 332l-170 331z" glyph-name="lozenge" horiz-adv-x="1253" unicode="◊"/><glyph d="M164 1259q0 58 38 96t96 38t96 -38t38 -97t-38 -95.5t-96 -36.5t-96 37.5t-38 95.5zM844 1259q0 58 39 96t96 38t96 -38t39 -96t-38 -95.5t-96 -37.5t-97 37.5t-39 95.5zM729 1509q53 0 83 -32.5t30 -77.5t-51 -80l-277 -184l-51 47l178 276q35 51 88 51z" glyph-name="uniF6D7" horiz-adv-x="1277" unicode=""/><glyph d="M426 1126q-119 0 -190.5 85t-71.5 194h129q18 -88 133 -88t133 88h129q0 -109 -71.5 -194t-190.5 -85z" glyph-name="glyph433" horiz-adv-x="851"/><glyph d="M328 -61q184 0 184 -185q0 -113 -85 -194.5t-200 -122.5l-34 78q145 63 145 116q0 31 -33 31q-61 0 -101 36t-40 99.5t49 102.5t115 39z" glyph-name="glyph434" horiz-adv-x="675"/><glyph d="M328 -61q184 0 184 -185q0 -113 -85 -194.5t-200 -122.5l-34 78q145 63 145 116q0 31 -33 31q-61 0 -101 36t-40 99.5t49 102.5t115 39z" glyph-name="glyph435" horiz-adv-x="675"/><glyph d="M1114 1259q0 -58 -38 -95.5t-96 -37.5t-96 36t-38 96t38 97.5t96 37.5t96 -38t38 -96zM434 1259q0 -58 -39 -95.5t-97 -37.5t-96 37t-38 95t39 96.5t96 38.5t96 -38t39 -96zM436 1399q0 45 30 77.5t83 32.5t88 -51l178 -276l-51 -47l-277 184q-51 35 -51 80z" glyph-name="glyph436" horiz-adv-x="1277"/><glyph d="M601 1503q54 0 87 -51l178 -276l-51 -50l-274 187q-53 39 -53 82t29.5 75.5t83.5 32.5zM164 1395q0 43 29.5 75.5t83.5 32.5t88 -51l178 -276l-51 -50l-275 187q-53 39 -53 82z" glyph-name="glyph437" horiz-adv-x="1030"/><glyph d="M477 1237l-180 -111h-133l231 332h164l232 -332h-134z" glyph-name="glyph438" horiz-adv-x="954"/><glyph d="M452 1925q58 0 89.5 -33.5t31.5 -83.5t-55 -86l-303 -206l-51 49l196 305q34 55 92 55z" glyph-name="glyph439" horiz-adv-x="737"/><glyph d="M450 1536q-136 0 -211 96.5t-75 212.5h129q27 -109 157 -109t158 109h129q0 -115 -75.5 -212t-211.5 -97z" glyph-name="glyph440" horiz-adv-x="901"/><glyph d="M450 1536q-136 0 -211 96.5t-75 212.5h129q27 -109 157 -109t158 109h129q0 -115 -75.5 -212t-211.5 -97z" glyph-name="glyph441" horiz-adv-x="901"/><glyph d="M297 1884l205 -133l205 133h133l-256 -368h-164l-256 368h133z" glyph-name="glyph442" horiz-adv-x="1003"/><glyph d="M317 0v-82q88 -10 163 -63.5t75 -151.5q0 -193 -391 -266l-21 112q154 31 154 123q0 61 -72 97l6 231h86z" glyph-name="glyph443" horiz-adv-x="706"/><glyph d="M502 1649l-205 -133h-133l256 368h164l256 -368h-133z" glyph-name="glyph444" horiz-adv-x="1003"/><glyph d="M164 1648.5q0 63.5 41 103.5t102 40t102.5 -40t41.5 -103.5t-41.5 -102.5t-103.5 -39t-102 39t-40 102.5zM563 1648q0 62 42 103t103.5 41t102.5 -41t41 -103t-41 -101.5t-103 -39.5t-103.5 39.5t-41.5 101.5z" glyph-name="glyph445" horiz-adv-x="1015"/><glyph d="M164 1648.5q0 63.5 41 103.5t102 40t102.5 -40t41.5 -103.5t-41.5 -102.5t-103.5 -39t-102 39t-40 102.5zM891 1648q0 62 42 103t103.5 41t102.5 -41t41 -103t-41 -101.5t-103 -39.5t-103.5 39.5t-41.5 101.5zM772 1925q57 0 89 -33.5t32 -81.5t-55 -88l-303 -206l-52 49 l197 305q35 55 92 55z" glyph-name="glyph446" horiz-adv-x="1343"/><glyph d="M1180 1648.5q0 -63.5 -40 -102.5t-102 -39t-103.5 39t-41.5 102.5t41 103.5t102 40t102.5 -40t41.5 -103.5zM453 1648q0 -62 -41.5 -101.5t-103.5 -39.5t-103 39.5t-41 101.5t41 103t102.5 41t103.5 -41t42 -103zM451 1810q0 47 31.5 81t88.5 34t93 -55l196 -305l-51 -49 l-303 206q-55 41 -55 88z" glyph-name="glyph447" horiz-adv-x="1343"/><glyph d="M164 1669.5q0 63.5 41 103t102 39.5t102.5 -39.5t41.5 -103t-41.5 -102.5t-103.5 -39t-102 39t-40 102.5z" glyph-name="glyph448" horiz-adv-x="614"/><glyph d="M452 1925q58 0 89.5 -33.5t31.5 -81.5t-55 -88l-303 -206l-51 49l196 305q34 55 92 55zM801 1925q57 0 89 -33.5t32 -81.5t-56 -88l-303 -206l-51 49l197 305q35 55 92 55z" glyph-name="glyph449" horiz-adv-x="1085"/><glyph d="M164 1808q0 49 31 83t89 34t93 -55l196 -305l-51 -49l-303 206q-55 37 -55 86z" glyph-name="glyph450" horiz-adv-x="737"/><glyph d="M512 1810q0 47 31 81t89 34t93 -55l197 -305l-52 -49l-303 206q-55 41 -55 88zM164 1810q0 47 31 81t89 34t93 -55l196 -305l-51 -49l-303 206q-55 41 -55 88z" glyph-name="glyph451" horiz-adv-x="1085"/><glyph d="M502 1649l-205 -133h-133l256 368h164l256 -368h-133z" glyph-name="glyph452" horiz-adv-x="1003"/><glyph d="M164 1659h696v-133h-696v133z" glyph-name="glyph453" horiz-adv-x="1024"/><glyph d="M379 -492q-215 0 -215 193q0 72 54 151.5t151 147.5h112q-117 -106 -116 -229q0 -74 51 -100.5t157 12.5v-93q-27 -35 -86 -58.5t-108 -23.5z" glyph-name="glyph454" horiz-adv-x="708"/><glyph d="M164 1693q0 87 59.5 147.5t146.5 60.5t147.5 -60.5t60.5 -147.5t-60.5 -146.5t-147.5 -59.5t-146.5 59.5t-59.5 146.5zM262 1694q0 -45 32 -77t77 -32t76.5 32t31.5 78t-30.5 76.5t-76.5 30.5t-78 -31.5t-32 -76.5z" glyph-name="glyph455" horiz-adv-x="741"/><glyph d="M432 1864q35 0 161 -41t175 -41q92 0 143 51l93 -51q-45 -90 -119 -178t-146 -88q-43 0 -162 41t-175 41t-146 -72l-92 51q61 119 135 203t133 84z" glyph-name="glyph456" horiz-adv-x="1167"/><glyph d="M164 706.5q0 63.5 41 103.5t102 40t102.5 -40t41.5 -103.5t-41.5 -102.5t-103.5 -39t-102 39t-40 102.5z" glyph-name="glyph457" horiz-adv-x="614"/><glyph d="M580 942q0 -25 24 -24q18 0 37 12l6 -49q-92 -74 -192 -74q-55 0 -85 24.5t-30 61.5v12h-2q-55 -98 -170 -98q-68 0 -108 41.5t-40 109.5t73 126.5t247 66.5v111q0 43 -22.5 73.5t-61.5 30.5t-57.5 -19.5t-18.5 -38.5t15.5 -42.5t15.5 -43.5t-24.5 -36.5t-61.5 -16.5 q-86 0 -86 67t82 138.5t203 71.5t189.5 -54.5t66.5 -136.5v-313zM264 1010q0 -49 45 -49q19 0 31 12v117q-31 -6 -53.5 -27t-22.5 -53z" glyph-name="a.superior" horiz-adv-x="657"/><glyph d="M467 1446q107 0 173.5 -89t66.5 -233t-88.5 -230.5t-217.5 -86.5t-211 74l-92 -68h-37v774q0 33 -10 42t-51 13v44l276 30h25l-6 -362h6q59 92 166 92zM350 1323q-25 0 -49 -18v-283q0 -141 74 -141q80 0 80 233q0 102 -29 155.5t-76 53.5z" glyph-name="b.aalt" horiz-adv-x="727"/><glyph d="M371 1372q-104 0 -105 -233q0 -102 50 -146.5t122 -44.5t142 37l24 -59q-106 -119 -261 -119t-239 90t-84 230t102.5 229.5t223.5 89.5t183.5 -53.5t62.5 -101.5q0 -103 -105 -103q-39 0 -59 16.5t-20 35.5t12 38.5t12 40.5t-17 37t-44 16z" glyph-name="c.aalt" horiz-adv-x="614"/><glyph d="M377 930q25 0 49 18v283q0 141 -74 141q-80 0 -80 -233q0 -102 29 -155.5t76 -53.5zM666 1716v-780q0 -33 10 -42t51 -13v-43l-264 -31h-25l-6 92h-6q-59 -92 -166 -92t-173.5 89t-66.5 231t88.5 230.5t213.5 88.5q55 0 104 -25v166q0 33 -10 42t-51 13v44l276 30h25z " glyph-name="d.aalt" horiz-adv-x="737"/><glyph d="M344 1446q119 0 189.5 -51.5t70.5 -157.5q0 -35 -8 -74h-336v-12q0 -102 53 -152.5t125 -50.5t142 37l24 -59q-106 -119 -261 -119t-239 90t-84 230t102.5 229.5t221.5 89.5zM346 1372q-70 0 -82 -129h129q8 25 8 55q0 74 -55 74z" glyph-name="e.aalt" horiz-adv-x="624"/><glyph d="M322 1458v-24h92v-80h-92v-449q0 -25 14 -32t72 -11v-43h-388v43q41 4 51.5 12.5t10.5 30.5v449h-62v55l62 25v12q0 131 91 200.5t197 69.5t170 -38t64 -81q0 -90 -92 -90q-35 0 -54.5 16.5t-19.5 39.5l6 39q0 40 -46 40t-61 -43t-15 -141z" glyph-name="f.aalt" horiz-adv-x="440"/><glyph d="M317 1022q-39 0 -75 6q-16 -16 -17 -35q0 -31 56 -32l163 -7q113 -4 165.5 -57t52.5 -127q0 -209 -394 -209q-117 0 -187.5 28.5t-70.5 84.5t101 112q-57 33 -58 107q0 45 43 85t94 64q-143 51 -143 191q0 92 76 152.5t175 60.5t165 -31l186 21v-80h-110q43 -55 43 -133 t-73 -139.5t-192 -61.5zM158 719q0 -84 147 -84t148 65q0 46 -74 52l-211 14q-10 -29 -10 -47zM262 1234q0 -138 62 -138q31 0 37 34.5t6 86.5q0 156 -56 155q-49 0 -49 -138z" glyph-name="g.aalt" horiz-adv-x="671"/><glyph d="M63 1591.5q0 53.5 38 82t95.5 28.5t94.5 -28.5t37 -82t-37 -81t-95 -27.5t-95.5 27.5t-37.5 81zM322 1446v-541q0 -23 10 -31t51 -12v-43h-363v43q41 4 51.5 12.5t10.5 30.5v387q0 33 -10.5 42t-51.5 14v43l277 55h25z" glyph-name="i.aalt" horiz-adv-x="393"/><glyph d="M322 1716v-547q39 0 69 39l84 107q49 63 -55 76v43h301v-43q-10 -2 -27.5 -4.5t-23.5 -3.5t-17.5 -3t-15.5 -4t-12.5 -5t-12.5 -5t-9 -7t-9 -10.5t-10 -11.5l-72 -94l195 -342q16 -29 57 -39v-43h-295l-111 246q-14 27 -36 29v-189q0 -23 10 -31t51 -12v-43h-363v43 q41 4 51.5 12.5t10.5 30.5v682q0 33 -10.5 42t-51.5 13v44l277 30h25z" glyph-name="k.aalt" horiz-adv-x="763"/><glyph d="M322 1716v-811q0 -23 10 -31t51 -12v-43h-363v43q41 4 51.5 12.5t10.5 30.5v682q0 33 -10.5 42t-51.5 13v44l277 30h25z" glyph-name="l.aalt" horiz-adv-x="393"/><glyph d="M20 819v43q41 4 51.5 12.5t10.5 30.5v387q0 33 -10.5 42t-51.5 14v43l277 55h25l-7 -129h7q96 129 202 129q141 0 166 -127h8q49 63 94.5 95t113.5 32t116.5 -45t48.5 -139v-357q0 -23 10.5 -31t51.5 -12v-43h-338v43q23 4 29.5 12.5t6.5 30.5v326q0 68 -49 67 q-41 0 -86 -36v-357q0 -23 10.5 -31t51.5 -12v-43h-338v43q23 4 30 12.5t7 30.5v326q0 68 -49 67q-39 0 -86 -36v-357q0 -23 10 -31t51 -12v-43h-363z" glyph-name="m.aalt" horiz-adv-x="1142"/><glyph d="M346.5 807q-145.5 0 -236 91t-90.5 228.5t90.5 228.5t236 91t235.5 -91t90 -228.5t-90 -228.5t-235.5 -91zM346 1372q-74 0 -74 -245.5t74 -245.5t74 245.5t-74 245.5z" glyph-name="o.superior" horiz-adv-x="692"/><glyph d="M477 1446q107 0 173.5 -89t66.5 -231t-88 -230.5t-213 -88.5q-55 0 -105 24v-172q0 -23 10.5 -30.5t51.5 -12.5v-43h-363v43q41 4 51.5 12.5t10.5 30.5v633q0 33 -10.5 42t-51.5 14v43l277 55h24l-6 -92h6q59 92 166 92zM360 1323q-25 0 -49 -18v-283q0 -141 74 -141 q80 0 80 233q0 102 -29 155.5t-76 53.5z" glyph-name="p.aalt" horiz-adv-x="737"/><glyph d="M377 930q25 0 49 18v283q0 141 -74 141q-80 0 -80 -233q0 -102 29 -155.5t76 -53.5zM260 807q-107 0 -173.5 89t-66.5 232t88.5 230.5t217.5 87.5t211 -74l92 68h37v-781q0 -23 10 -30.5t51 -12.5v-43h-362v43q41 4 50 11t11 32l6 240h-6q-59 -92 -166 -92z" glyph-name="q.aalt" horiz-adv-x="727"/><glyph d="M20 819v43q41 4 51.5 12.5t10.5 30.5v387q0 33 -10.5 42t-51.5 14v43l277 55h25l-7 -141h7q29 68 61.5 104.5t76.5 36.5t72.5 -27t28.5 -73t-23.5 -74.5t-55.5 -28.5t-61 9.5t-51 9.5t-48 -13v-344q0 -25 14 -32t72 -11v-43h-388z" glyph-name="r.aalt" horiz-adv-x="571"/><glyph d="M297 1372q-55 0 -55 -53q0 -45 67.5 -83t135 -82.5t67.5 -142.5q0 -97 -70.5 -150.5t-196.5 -53.5t-212 43l-13 166h50q45 -135 159 -135q68 0 68 61q0 50 -93 94.5t-135 98t-42 130.5t60 129t179 52t197 -39l12 -158h-49q-33 66 -61.5 94.5t-67.5 28.5z" glyph-name="s.aalt" horiz-adv-x="532"/><glyph d="M311 1354v-332q0 -86 13 -100q12 -14 40 -14t89 10l6 -37q-92 -74 -221 -74q-166 0 -166 147v400h-62v55l62 25l178 184h61v-184h129v-80h-129z" glyph-name="t.aalt" horiz-adv-x="468"/><glyph d="M459 1292q0 33 -13.5 42t-72.5 14v43l301 55h24v-510q0 -33 10.5 -42t51.5 -13v-43l-264 -31h-25l-6 129h-6q-96 -129 -215 -129q-76 0 -124 45t-48 139v301q0 33 -10.5 42t-51.5 14v43l277 55h24v-424q0 -68 56 -68q45 0 92 37v301z" glyph-name="u.aalt" horiz-adv-x="770"/><glyph d="M10 1434h387v-43q-47 -4 -60 -17.5t-1 -44.5l102 -260h4l90 260q12 33 -3 45t-64 17v43h246v-43q-68 -13 -77 -28t-16 -34l-188 -516h-125l-239 528q-14 31 -21.5 38t-34.5 12v43z" glyph-name="v.aalt" horiz-adv-x="720"/><glyph d="M401 893q49 0 71 26.5t40 102.5h61l-12 -203h-541v62l259 479h-80q-49 0 -66.5 -24.5t-38.5 -104.5h-61l6 203h516v-62l-256 -479h102z" glyph-name="z.aalt" horiz-adv-x="593"/><glyph d="M2519 511q0 -237 -147.5 -384t-354.5 -147q-92 0 -174 40v-286q0 -39 17.5 -51.5t85.5 -20.5v-72h-605v72q68 8 85.5 20.5t17.5 51.5v266h-492q-86 129 -143 264l-61 146q-66 154 -113 204h-62v-460q0 -39 17.5 -51.5t85.5 -20.5v-82h-625v82q68 8 85.5 20.5t17.5 51.5 v1126q0 39 -17.5 51t-85.5 21v82h697q227 0 359 -108.5t132 -281.5q0 -125 -84 -235.5t-237 -159.5q111 -33 169 -87t101 -132l135 -246q41 -76 121 -98v702q0 53 -16.5 68.5t-86.5 24.5v71l461 92h41l-10 -153h10q98 153 276 153t289 -148t111 -385zM1925 840 q-43 0 -82 -31v-471q0 -236 123 -236q133 0 133 390q0 170 -48 259t-126 89zM645 1331h-72v-594h52q106 0 140 67.5t34 211.5q0 316 -154 315z" glyph-name="glyph481" horiz-adv-x="2570"/><glyph d="M492 512q0 -410 122.5 -410t122.5 410t-122.5 410t-122.5 -410zM51 512q0 248 169 390t394.5 142t394.5 -142t169 -390t-169 -390t-394.5 -142t-394.5 142t-169 390z" glyph-name="zero.tnum.oldstyle"/><glyph d="M424 154v634l-297 -40l-10 71l645 225h82v-890q0 -23 5 -32t39 -20.5t222 -19.5v-82h-963v82q186 7 225.5 18t45.5 22.5t6 31.5z" glyph-name="one.tnum.oldstyle"/><glyph d="M510 922q-58 0 -94.5 -32t-36.5 -64t25.5 -69.5t25.5 -78.5t-43 -62.5t-107 -21.5t-100.5 31.5t-36.5 81.5q0 133 128 235t329 102t328 -83.5t127 -223.5q0 -68 -39 -129t-112 -122t-412 -189h604v-297h-963v121q16 16 92 81.5t103.5 91t89 86t89.5 99.5t78 116t50 183 q0 61 -33.5 102.5t-91.5 41.5z" glyph-name="two.tnum.oldstyle"/><glyph d="M1090 61q0 -174 -148.5 -281.5t-374.5 -107.5q-180 0 -305 102.5t-125 235.5q0 49 35.5 81t99.5 32t108 -21.5t44 -62.5t-25.5 -79t-25.5 -70t30.5 -63.5t81.5 -31.5q78 0 131.5 75t53.5 181q0 168 -58.5 222.5t-167.5 54.5v123q225 0 226 256q0 215 -144 215 q-51 0 -81.5 -31t-30.5 -64t25.5 -70.5t25.5 -78.5t-43.5 -62.5t-107.5 -21.5t-100 31.5t-36 81.5q0 133 125 235t323 102t310.5 -88t112.5 -239q0 -106 -100.5 -199.5t-258.5 -114.5v-4q201 -23 300.5 -113t99.5 -225z" glyph-name="three.tnum.oldstyle"/><glyph d="M1034 -307h-420v307h-532v51l686 993h266v-921h113v-123h-113v-307zM614 123v522l-360 -522h360z" glyph-name="four.tnum.oldstyle"/><glyph d="M1038 1024v-297h-647l-8 -143q180 0 315.5 -32t208 -78t115.5 -111.5t55.5 -117.5t12.5 -112q0 -215 -153 -338t-421 -123q-160 0 -269.5 85t-109.5 202q0 72 39 118t112 46t104.5 -28.5t31.5 -60.5t-25.5 -71t-25.5 -75t39 -64.5t84 -28.5q98 0 146 67.5t48 151.5 q0 147 -86 225t-303 78h-41l25 707h753z" glyph-name="five.tnum.oldstyle"/><glyph d="M737 410q0 133 -39 215t-94 82q-35 0 -82 -19q-15 -283 25.5 -434.5t87.5 -151.5q102 1 102 308zM1137 451q0 -217 -153.5 -344t-367.5 -127t-369 153.5t-155 388.5q0 317 230.5 552t568.5 298l31 -92q-102 -29 -178 -82t-144.5 -141.5t-77.5 -257.5q35 29 103.5 50 t132.5 21q188 0 283.5 -118.5t95.5 -300.5z" glyph-name="six.tnum.oldstyle"/><glyph d="M369 727q-68 0 -91.5 -27.5t-41.5 -95.5h-82l10 420h911v-174l-362 -1157h-451l619 1034h-512z" glyph-name="seven.tnum.oldstyle"/><glyph d="M131 1016q0 148 139.5 242t363.5 94t321.5 -98.5t97.5 -192.5t-72 -173t-193 -112q80 -39 124 -65.5t128 -96.5t84 -235q0 -106 -43 -186t-153 -146.5t-340 -66.5t-358 101t-128 241q0 106 72 191t195 108q-111 70 -174.5 158.5t-63.5 236.5zM469 331q0 -116 38 -172.5 t91 -56.5q117 0 117 181q0 84 -54.5 139t-162.5 121q-29 -96 -29 -212zM715 1065q0 164 -92 164q-35 0 -69 -46t-34 -118q0 -135 154 -227q41 135 41 227z" glyph-name="eight.tnum.oldstyle"/><glyph d="M492 614q0 -133 38.5 -215t94.5 -82q35 0 82 19q15 278 -25.5 432t-87.5 154q-102 -1 -102 -308zM92 573q0 217 152.5 344t367.5 127t370 -153.5t155 -388.5q0 -317 -230.5 -552t-568.5 -298l-31 92q102 29 178 82t144.5 141.5t77.5 257.5q-35 -29 -103.5 -50t-132.5 -21 q-188 0 -283.5 118.5t-95.5 300.5z" glyph-name="nine.tnum.oldstyle"/><glyph d="M199 510q0 139 94 233l-154 185l15 16l157 -184q88 74 196.5 74t197.5 -74l153 184l19 -16l-154 -183q98 -94 98 -235t-96 -234l149 -176l-18 -18l-151 178q-84 -72 -197 -72t-197 72l-151 -178l-17 18l150 176q-94 95 -94 234zM221 510q0 -121 85 -209t203 -88t203 88 t85 209t-85 210t-203 89t-203 -89t-85 -210z" glyph-name="glyph492" horiz-adv-x="1013"/><glyph d="M723 -160v142q-270 10 -442 157.5t-172 372.5t172 372.5t442 157.5v156h82v-156q152 -8 295 -86l18 -239h-76q-27 92 -79 150.5t-158 68.5v-848q180 18 237 219h72l-14 -239q-133 -76 -295 -86v-142h-82zM520 512q0 -399 203 -424v848q-96 -14 -149.5 -110.5 t-53.5 -313.5z" glyph-name="glyph493"/><glyph d="M1042 348q0 -184 -140 -274t-341 -94l-24 -144h-80l24 146q-137 12 -262 73l-16 293h73q45 -121 95.5 -182.5t128.5 -69.5l45 262q-23 14 -109.5 57.5t-168 114t-81.5 191.5t75 194.5t176.5 100t226.5 28.5l24 144h80l-27 -148q123 -14 220 -59l18 -260h-72 q-45 104 -85 151.5t-99 55.5l-35 -203q14 -8 72.5 -39t122.5 -70.5t111.5 -104t47.5 -163.5zM659 213q0 49 -43 92l-34 -199q77 27 77 107zM571 850q0 -41 45 -80l27 160q-72 -14 -72 -80z" glyph-name="glyph494"/><glyph d="M76 670h90q57 170 226 272t375 102t366 -88l18 -239h-76q-29 102 -90 161.5t-194 59.5q-92 0 -150.5 -60.5t-79.5 -207.5h207l-37 -117h-178v-41q0 -43 2 -63h213l-37 -117h-166q39 -246 226 -246q129 0 192.5 59.5t91.5 161.5h72l-14 -239q-153 -88 -359 -88t-371 95 t-229 257h-98v117h69q-4 20 -4 55t2 49h-67v117z" glyph-name="glyph495"/><glyph d="M76 670h90q57 170 226 272t375 102t366 -88l18 -239h-76q-29 102 -90 161.5t-194 59.5q-92 0 -150.5 -60.5t-79.5 -207.5h207l-37 -117h-178v-41q0 -43 2 -63h213l-37 -117h-166q39 -246 226 -246q129 0 192.5 59.5t91.5 161.5h72l-14 -239q-153 -88 -359 -88t-371 95 t-229 257h-98v117h69q-4 20 -4 55t2 49h-67v117z" glyph-name="glyph496"/><glyph d="M162 561h84q-55 76 -56 154q0 168 127 248.5t318 80.5t326 -65l18 -277h-76q-57 144 -94 186t-103 42t-98.5 -26.5t-32.5 -71.5t40 -126t47 -145h196v-115h-205q-16 -72 -67 -163q80 -4 160.5 -25.5t118.5 -21.5t72 19t41 31.5t21 43.5h74q-39 -365 -266 -365 q-74 0 -130 23.5t-114.5 63.5t-99.5 57q-119 -129 -213 -129q-33 0 -63.5 21.5t-30.5 66.5q0 137 233 192q8 27 8 70t-59 116h-176v115z" glyph-name="glyph497"/><glyph d="M258 506h115l-240 387q-31 51 -82 61v70h555v-70q-109 -14 -57 -98l182 -293h4l139 275q31 66 11.5 85t-117.5 31v70h408v-70q-110 -20 -132 -38t-34 -42l-189 -368h154v-117h-162v-274q0 -23 11.5 -31t54.5 -14v-70h-523v70q41 6 52.5 14t11.5 31v274h-162v117z" glyph-name="glyph498"/><glyph d="M76 670h90q57 170 226 272t375 102t366 -88l18 -239h-76q-29 102 -90 161.5t-194 59.5q-92 0 -150.5 -60.5t-79.5 -207.5h207l-37 -117h-178v-41q0 -43 2 -63h213l-37 -117h-166q39 -246 226 -246q129 0 192.5 59.5t91.5 161.5h72l-14 -239q-153 -88 -359 -88t-371 95 t-229 257h-98v117h69q-4 20 -4 55t2 49h-67v117z" glyph-name="glyph499"/><glyph d="M76 670h90q57 170 226 272t375 102t366 -88l18 -239h-76q-29 102 -90 161.5t-194 59.5q-92 0 -150.5 -60.5t-79.5 -207.5h207l-37 -117h-178v-41q0 -43 2 -63h213l-37 -117h-166q39 -246 226 -246q129 0 192.5 59.5t91.5 161.5h72l-14 -239q-153 -88 -359 -88t-371 95 t-229 257h-98v117h69q-4 20 -4 55t2 49h-67v117z" glyph-name="glyph500"/><glyph d="M760 86q127 0 190.5 59.5t91.5 161.5h72l-14 -239q-152 -88 -342 -88q-283 0 -466 149.5t-183 382.5t183 382.5t466 149.5q182 0 342 -88l18 -239h-76q-31 102 -81 151l-386 -673q58 -109 185 -109zM526 373q10 -82 27 -129l373 653q-33 20 -80 31zM520 512q0 -43 2 -63 l277 487l-41 2q-113 0 -175.5 -94t-62.5 -332z" glyph-name="glyph501"/><glyph d="M240 -270q56 0 41 160.5t-5 252.5l80 748h-225l8 92l232 41q24 236 187 353.5t374 117.5q139 0 237.5 -59.5t98.5 -141.5q0 -61 -42 -104t-112 -43t-99.5 25.5t-29.5 51.5t9.5 48t9.5 39q0 61 -75 61t-106.5 -71.5t-48.5 -235.5l-4 -41h297l-14 -133h-297l-80 -748 q-27 -254 -203 -413.5t-369 -159.5q-59 0 -100 28t-41 86t34 95t86 37t93 -43t64 -43z" glyph-name="glyph502"/><glyph d="M92 563h291v195h-291v133h291v293h133v-293h195v293h133v-293h293v-133h-293v-195h293v-133h-293v-291h-133v291h-195v-291h-133v291h-291v133zM516 758v-195h195v195h-195z" glyph-name="glyph503"/><glyph d="M61 399q0 168 95.5 290t243 122t242.5 -122t95 -290t-95 -289.5t-242.5 -121.5t-243 121.5t-95.5 289.5zM473 399.5q0 178.5 -16.5 258t-57.5 79.5t-57 -79.5t-16 -258t16 -258.5t57 -80t57.5 80t16.5 258.5z" glyph-name="zero.dnom" horiz-adv-x="798"/><glyph d="M246 92v565l-178 -24l-7 43l388 135h49v-719q0 -25 24.5 -32t134.5 -11v-49h-577v49q113 4 139.5 11t26.5 32z" glyph-name="one.dnom" horiz-adv-x="718"/><glyph d="M282 737q-37 0 -55 -18.5t-18 -37.5t15.5 -43t15.5 -42q0 -55 -86 -55t-86 67q0 80 74.5 141.5t195.5 61.5t198.5 -63.5t77.5 -169.5q0 -199 -338 -400h363v-178h-578v72q301 246 301 499q0 63 -21.5 114.5t-58.5 51.5z" glyph-name="two.dnom" horiz-adv-x="700"/><glyph d="M633 210q0 -93 -89.5 -157.5t-211.5 -64.5t-196.5 61.5t-74.5 140.5q0 68 86 68t86 -55q0 -18 -15 -41.5t-15 -43.5t18.5 -38.5t56.5 -18.5t70.5 45.5t32.5 127.5t-35 114.5t-100 32.5v74q135 0 135 153q0 129 -86 129q-31 0 -49.5 -18.5t-18.5 -37.5t15.5 -43t15.5 -42 q0 -55 -86 -55t-86 67q0 80 75 141.5t193 61.5t186 -53t68 -130t-60.5 -132.5t-154.5 -69.5v-2q240 -28 240 -214z" glyph-name="three.dnom" horiz-adv-x="694"/><glyph d="M633 0h-252v197h-320v30l412 584h160v-541h67v-73h-67v-197zM381 270v301l-217 -301h217z" glyph-name="four.dnom" horiz-adv-x="761"/><glyph d="M602 799v-178h-389l-4 -86q268 0 346 -89.5t78 -181.5q0 -129 -91 -202.5t-253 -73.5q-96 0 -162 51t-66 121q0 43 24 70.5t67 27.5q82 0 81 -57q0 -16 -15 -39.5t-15 -45.5t23.5 -38.5t49.5 -16.5q59 0 88 41t29 91q0 88 -51 135t-182 47h-25l15 424h452z" glyph-name="five.dnom" horiz-adv-x="694"/><glyph d="M449 246q0 80 -24 129t-56 49q-18 0 -50 -10q-6 -115 10.5 -234t57.5 -119q62 1 62 185zM688 259q0 -120 -91 -195.5t-221 -75.5t-222.5 92t-92.5 233q0 190 138.5 330.5t341.5 179.5l18 -55q-223 -63 -240 -289q55 43 155 43t157 -71.5t57 -191.5z" glyph-name="six.dnom" horiz-adv-x="749"/><glyph d="M190 621q-41 0 -55 -16.5t-24 -57.5h-50l7 252h546v-105l-217 -694h-270l371 621h-308z" glyph-name="seven.dnom" horiz-adv-x="675"/><glyph d="M78 602q0 96 84 152.5t198 56.5t192.5 -45t78.5 -133q0 -53 -43 -101.5t-115 -66.5q151 -74 176 -131.5t25 -106.5q0 -123 -88 -181t-230 -58t-218.5 60t-76.5 134t43 125t115 66q-141 88 -141 229zM281 204q0 -73 23.5 -108t53.5 -35q70 0 70 109q0 51 -33 85t-98 71 q-16 -49 -16 -122zM428 639q0 98 -55 98q-20 0 -41 -27.5t-21 -70.5q0 -80 92 -137q25 82 25 137z" glyph-name="eight.dnom" horiz-adv-x="735"/><glyph d="M301 553q0 -80 23.5 -129t56.5 -49q18 0 49 10q6 115 -10.5 233.5t-57.5 118.5q-61 0 -61 -184zM61 539q0 120 91.5 196t221.5 76t222 -92t92 -234q0 -190 -138 -330.5t-341 -179.5l-19 56q223 63 240 288q-54 -43 -154 -43t-157.5 71.5t-57.5 191.5z" glyph-name="nine.dnom" horiz-adv-x="749"/><glyph d="M61 1034q0 168 95.5 290t243 122t242.5 -122t95 -290t-95 -289.5t-242.5 -121.5t-243 121.5t-95.5 289.5zM473 1034q0 178 -16.5 258t-57.5 80t-57 -80t-16 -258t16 -258t57 -80t57.5 80t16.5 258z" glyph-name="zero.numr" horiz-adv-x="798"/><glyph d="M246 727v565l-178 -24l-7 43l388 135h49v-719q0 -25 24.5 -32t134.5 -11v-49h-577v49q113 4 139.5 11t26.5 32z" glyph-name="one.numr" horiz-adv-x="718"/><glyph d="M282 1372q-37 0 -55 -18.5t-18 -37.5t15.5 -43t15.5 -42q0 -55 -86 -55t-86 67q0 80 74.5 141.5t195.5 61.5t198.5 -63.5t77.5 -170.5q0 -199 -338 -399h363v-178h-578v72q301 246 301 499q0 63 -21.5 114.5t-58.5 51.5z" glyph-name="two.numr" horiz-adv-x="700"/><glyph d="M633 845q0 -93 -89.5 -157.5t-211.5 -64.5t-196.5 61t-74.5 141q0 68 86 68t86 -55q0 -18 -15 -42t-15 -44t18.5 -38t56.5 -18t70.5 45t32.5 127t-35 115t-100 33v74q135 0 135 153q0 129 -86 129q-31 0 -49.5 -18.5t-18.5 -37.5t15.5 -43t15.5 -42q0 -55 -86 -55t-86 67 q0 80 75 141.5t193 61.5t186 -54t68 -130t-60.5 -131.5t-154.5 -69.5v-2q240 -28 240 -214z" glyph-name="three.numr" horiz-adv-x="694"/><glyph d="M633 635h-252v196h-320v31l412 584h160v-541h67v-74h-67v-196zM381 905v301l-217 -301h217z" glyph-name="four.numr" horiz-adv-x="761"/><glyph d="M602 1434v-179h-389l-4 -86q269 0 346.5 -89t77.5 -181q0 -129 -91 -202.5t-253 -73.5q-96 0 -162 51t-66 121q0 43 24 70.5t67 27.5q82 0 81 -57q0 -14 -15 -38t-15 -46t23.5 -39t49.5 -17q59 0 88 41t29 90q0 88 -51 135.5t-182 47.5h-25l15 424h452z" glyph-name="five.numr" horiz-adv-x="694"/><glyph d="M449 881q0 80 -24 129t-56 49q-18 0 -50 -10q-6 -115 10.5 -234t57.5 -119q62 1 62 185zM688 894q0 -120 -91 -195.5t-221 -75.5t-222.5 92t-92.5 233q0 190 138.5 330.5t341.5 179.5l18 -55q-223 -63 -240 -289q55 43 155 43t157 -71.5t57 -191.5z" glyph-name="six.numr" horiz-adv-x="749"/><glyph d="M190 1255q-41 0 -55 -16t-24 -57h-50l7 252h546v-105l-217 -694h-270l371 620h-308z" glyph-name="seven.numr" horiz-adv-x="675"/><glyph d="M78 1237q0 96 84 152.5t198 56.5t192.5 -45t78.5 -133q0 -53 -43 -101.5t-115 -66.5q151 -74 176 -131.5t25 -106.5q0 -123 -88 -181t-230 -58t-218.5 59.5t-76.5 133.5t43 125.5t115 66.5q-141 88 -141 229zM281 839q0 -73 23.5 -108t53.5 -35q70 0 70 109q0 51 -33 85 t-98 71q-16 -49 -16 -122zM428 1274q0 98 -55 98q-20 0 -41 -27.5t-21 -70.5q0 -80 92 -137q25 82 25 137z" glyph-name="eight.numr" horiz-adv-x="735"/><glyph d="M301 1188q0 -80 23.5 -129t56.5 -49q18 0 49 10q6 115 -10.5 233.5t-57.5 118.5q-61 0 -61 -184zM61 1174q0 120 91.5 196t221.5 76t222 -92t92 -234q0 -190 -138 -330.5t-341 -179.5l-19 56q223 63 240 288q-54 -43 -154 -43t-157.5 71.5t-57.5 191.5z" glyph-name="nine.numr" horiz-adv-x="749"/><glyph d="M942 1104h129l-622 -1104h-132zM1023 473q122 0 201.5 -70.5t77.5 -172.5t-87 -174t-207.5 -72t-201.5 70.5t-76 173.5t87 174t206 71zM967 228q0 -110 10 -145.5t41 -35.5t39 35.5t8 145.5t-8 145t-40 35t-41 -35t-9 -145zM333 1038q122 0 200.5 -70.5t77.5 -173.5 t-85 -174t-206.5 -71t-201.5 71t-77 174t86 173.5t206 70.5zM276 792.5q0 -108.5 10.5 -144.5t41 -36t40 35t9.5 145.5t-9.5 145.5t-41.5 35t-41 -36t-9 -144.5z" glyph-name="glyph524" horiz-adv-x="1343"/><glyph d="M942 1104h129l-622 -1104h-132zM1023 473q122 0 201.5 -70.5t77.5 -172.5t-87 -174t-207.5 -72t-201.5 70.5t-76 173.5t87 174t206 71zM967 228q0 -110 10 -145.5t41 -35.5t39 35.5t8 145.5t-8 145t-40 35t-41 -35t-9 -145zM333 1038q122 0 200.5 -70.5t77.5 -173.5 t-85 -174t-206.5 -71t-201.5 71t-77 174t86 173.5t206 70.5zM276 792.5q0 -108.5 10.5 -144.5t41 -36t40 35t9.5 145.5t-9.5 145.5t-41.5 35t-41 -36t-9 -144.5zM1638 473q122 0 200.5 -70.5t77.5 -172.5t-86 -174t-208 -72t-201.5 70.5t-75.5 173.5t87 174t206 71z M1581 228q0 -110 10.5 -145.5t41 -35.5t38.5 35.5t8 145.5t-8 145t-40 35t-41 -35t-9 -145z" glyph-name="glyph525" horiz-adv-x="1957"/><glyph d="M123 614h1126v-133h-1126v133z" glyph-name="glyph526" horiz-adv-x="1372"/><glyph d="M164 1255h635v-129h-635v129z" glyph-name="glyph527" horiz-adv-x="962"/><glyph d="M1116 1202q0 -68 -40 -124t-88 -89t-88 -82t-40 -98t48 -87t118 -72t139.5 -73.5t117.5 -109.5t48 -160q0 -150 -109.5 -238.5t-295.5 -88.5t-291 71l-21 277h82q78 -236 191 -236q39 0 62.5 25.5t23.5 68.5t-35 79t-85 63.5t-99 58.5t-84 81t-35 125t41 160t82 177 t41 196q0 205 -113 205q-74 0 -98.5 -71.5t-24.5 -235.5v-1024h-522v72q68 8 85 20t17 51v707h-102v92l102 41v21q0 145 132.5 297.5t441.5 152.5q195 0 297 -76t102 -176z" glyph-name="glyph528" horiz-adv-x="1382"/><glyph d="M143 154v1126q0 39 -17 51t-85 21v82h625v-82q-68 -8 -85.5 -20.5t-17.5 -51.5v-1126q0 -39 17.5 -51.5t85.5 -20.5v-82h-625v82q68 8 85 20.5t17 51.5z" glyph-name="glyph529" horiz-adv-x="706"/><glyph d="M348 573v707q0 39 -17.5 51t-84.5 21v82h624v-82q-68 -8 -85 -20.5t-17 -51.5v-707q0 -248 -140.5 -420.5t-402.5 -172.5q-205 0 -205 133q0 47 28 74.5t70 27.5t80 -34t68 -66.5t54 -32.5t35.5 14.5t11.5 55.5t-9.5 140t-9.5 281z" glyph-name="glyph530" horiz-adv-x="890"/><glyph d="M1069 1049q-74 0 -141.5 -172t-67.5 -330q0 -121 72 -121q39 0 80 40t59 130l84 420q-47 33 -86 33zM1647 858q0 236 -173.5 374t-412.5 138q-274 0 -457.5 -195.5t-183.5 -485.5t174 -441.5t448 -151.5t453 146l27 -62q-244 -203 -566 -203q-371 0 -602 194t-231 486 q0 164 57.5 300.5t149.5 226.5t268.5 179t445.5 89q391 0 538 -198.5t147 -387.5q0 -244 -137.5 -399.5t-319.5 -155.5q-98 0 -148.5 43t-54.5 109q-31 -72 -96.5 -114t-159.5 -42t-156.5 75t-62.5 204q0 229 131 380.5t319 151.5q65 0 96 -12t52.5 -20t77.5 -44l133 54h43 l-98 -529q-23 -119 63 -118q80 0 158 115.5t78 293.5z" glyph-name="glyph531" horiz-adv-x="1851"/><glyph d="M471 414q0 -142 65.5 -216.5t174.5 -74.5t184 49l-373 473q-51 -89 -51 -231zM840 1179q0 152 -92 152q-50 0 -80.5 -43t-30.5 -108q0 -117 106 -252q39 31 68 103.5t29 147.5zM600 -20q-222 0 -349.5 93t-127.5 269q0 123 96 226.5t227 160.5q-162 211 -162 374t127 257 t293 94t277 -79t111 -192t-58.5 -194.5t-226.5 -140.5l328 -399q39 85 57 151t-13.5 99.5t-154.5 48.5v71h512v-71q-119 -14 -163 -47t-74 -120t-93 -221l176 -217q39 -49 61.5 -57t57.5 -14v-72h-463l-69 80q-147 -100 -369 -100z" glyph-name="glyph532" horiz-adv-x="1597"/><glyph d="M502 1649l-205 -133h-133l256 368h164l256 -368h-133z" glyph-name="glyph533" horiz-adv-x="1003"/><glyph d="M328 -61q184 0 184 -185q0 -113 -85 -194.5t-200 -122.5l-34 78q145 63 145 116q0 31 -33 31q-61 0 -101 36t-40 99.5t49 102.5t115 39z" glyph-name="glyph534" horiz-adv-x="675"/><glyph d="M164 1659h696v-133h-696v133z" glyph-name="glyph535" horiz-adv-x="1024"/><glyph d="M432 1864q35 0 161 -41t175 -41q92 0 143 51l93 -51q-45 -90 -119 -178t-146 -88q-43 0 -162 41t-175 41t-146 -72l-92 51q61 119 135 203t133 84z" glyph-name="glyph536" horiz-adv-x="1167"/><glyph d="M328 -61q184 0 184 -185q0 -113 -85 -194.5t-200 -122.5l-34 78q145 63 145 116q0 31 -33 31q-61 0 -101 36t-40 99.5t49 102.5t115 39z" glyph-name="glyph537" horiz-adv-x="675"/><glyph d="M102 1286q0 88 62.5 136t159 48t158 -48t61.5 -136t-61.5 -134t-158.5 -46t-159 46t-62 134zM532 1044v-901q0 -39 17.5 -51t85.5 -20v-72h-604v72q68 8 85 20t17 51v645q0 53 -16.5 68.5t-85.5 24.5v71l461 92h40z" glyph-name="glyph538" horiz-adv-x="645"/><glyph d="M344 1446q119 0 189.5 -51.5t70.5 -157.5q0 -35 -8 -74h-336v-12q0 -102 53 -152.5t125 -50.5t142 37l24 -59q-106 -119 -261 -119t-239 90t-84 230t102.5 229.5t221.5 89.5zM143 1690q0 30 19.5 50.5t52.5 20.5t55 -32l119 -185l-31 -28l-182 124q-33 20 -33 50z M346 1372q-70 0 -82 -129h129q8 25 8 55q0 74 -55 74z" glyph-name="egrave.aalt" horiz-adv-x="624"/><glyph d="M459 1292q0 33 -13.5 42t-72.5 14v43l301 55h24v-510q0 -33 10.5 -42t51.5 -13v-43l-264 -31h-25l-6 129h-6q-96 -129 -215 -129q-76 0 -124 45t-48 139v301q0 33 -10.5 42t-51.5 14v43l277 55h24v-424q0 -68 56 -68q45 0 92 37v301zM594 1690q0 -30 -33 -50l-182 -124 l-31 28l119 185q23 33 55 33t52 -21t20 -51z" glyph-name="uacute.aalt" horiz-adv-x="770"/><glyph d="M201 693q0 67 48 116t115 49t115.5 -49t48.5 -116t-49 -115t-115 -48t-114.5 48t-48.5 115z" glyph-name="periodcentered.aalt" horiz-adv-x="729"/><glyph d="M123 799h717v-133h-717v133z" glyph-name="hyphen.aalt" horiz-adv-x="962"/><glyph d="M123 799h921v-133h-921v133z" glyph-name="endash.aalt" horiz-adv-x="1167"/><glyph d="M123 799h1126v-133h-1126v133z" glyph-name="emdash.aalt" horiz-adv-x="1372"/><glyph d="M645 102q51 0 82 31t31 64t-25.5 70.5t-25.5 78.5t43.5 62.5t107.5 21.5t99.5 -31.5t35.5 -81.5q0 -133 -125.5 -235t-325.5 -102t-330 105t-130 275t122 276.5t296 162.5l20 266h103l39 -307q-160 -123 -160 -379q0 -106 36.5 -191.5t106.5 -85.5zM737 1322 q0 -67 -48 -116t-115 -49t-115.5 49t-48.5 116t49 115t115 48t114.5 -48t48.5 -115z" glyph-name="questiondown.aalt" horiz-adv-x="1054"/><glyph d="M496 164q0 -184 -186.5 -184t-186.5 184q0 95 57.5 430.5t77.5 470.5h102q23 -156 79.5 -487.5t56.5 -413.5zM143 1322q0 67 48.5 115t114.5 48t115.5 -48t49.5 -115t-49 -116t-116 -49t-115 49t-48 116z" glyph-name="exclamdown.aalt" horiz-adv-x="618"/><glyph d="M809 1034l-264 -299l264 -305v-158l-635 424v72l635 426v-160z" glyph-name="guilsinglleft.aalt" horiz-adv-x="983"/><glyph d="M438 735l-264 299v160l635 -426v-72l-635 -424v158z" glyph-name="guilsinglright.aalt" horiz-adv-x="983"/><glyph d="M809 1034l-264 -299l264 -305v-158l-635 424v72l635 426v-160zM1321 1034l-264 -299l264 -305v-158l-635 424v72l635 426v-160z" glyph-name="guillemotleft.aalt" horiz-adv-x="1495"/><glyph d="M950 735l-264 299v160l635 -426v-72l-635 -424v158zM438 735l-264 299v160l635 -426v-72l-635 -424v158z" glyph-name="guillemotright.aalt" horiz-adv-x="1495"/><glyph d="M102 696q0 256 145.5 520.5t315.5 421.5h123q-225 -391 -225 -942t225 -942h-123q-170 158 -315.5 422t-145.5 520z" glyph-name="parenleft.aalt" horiz-adv-x="727"/><glyph d="M625 696q0 -256 -145.5 -520t-315.5 -422h-123q225 391 225 942t-225 942h123q170 -158 315.5 -422t145.5 -520z" glyph-name="parenright.aalt" horiz-adv-x="727"/><glyph d="M696 -102v-103h-594v1843h594v-102h-184v-1638h184z" glyph-name="bracketleft.aalt" horiz-adv-x="737"/><glyph d="M41 1536v102h594v-1843h-594v103h184v1638h-184z" glyph-name="bracketright.aalt" horiz-adv-x="737"/><glyph d="M584 58q0 -48 11 -89t41 -60.5t58.5 -24.5t83.5 -7v-82q-352 0 -437 54.5t-119 112.5t-34 133t24 180.5t24 193.5t-36 123t-159 57v99q117 23 156 63.5t39 116.5t-24 205t-24 205t34 134t119.5 112t436.5 54v-82q-106 -4 -150 -39.5t-44 -162.5q0 -27 17 -185.5 t11 -207.5q-22 -206 -366 -263q344 -53 366 -262q6 -49 -11 -189.5t-17 -188.5z" glyph-name="braceleft.aalt" horiz-adv-x="819"/><glyph d="M236 1354q0 127 -44.5 162.5t-150.5 39.5v82q351 0 436.5 -54t119.5 -112.5t34 -134.5t-23.5 -204.5t-23.5 -204.5t39 -117t155 -63v-99q-123 -23 -158.5 -57.5t-35.5 -122.5t23.5 -193.5t23.5 -180.5t-34 -133t-119 -112.5t-437 -54.5v82q55 2 84 7t70 32t41 164 q0 27 -17.5 167t-11.5 189q22 209 366 262q-344 57 -366 263q-6 49 11.5 207.5t17.5 185.5z" glyph-name="braceright.aalt" horiz-adv-x="819"/><glyph d="M61 665.5q0 278.5 159 482.5t404.5 204t404.5 -204t159 -482.5t-159 -482t-404.5 -203.5t-404.5 203.5t-159 482zM625 1229q-123 0 -123 -483q0 -219 6 -324l217 649q-26 158 -100 158zM748 579q0 212 -7 306l-213 -645q27 -137 97 -138q123 0 123 477z" glyph-name="zero.zero" horiz-adv-x="1249"/><glyph d="M51 665.5q0 278.5 159 482.5t404.5 204t404.5 -204t159 -482.5t-159 -482t-404.5 -203.5t-404.5 203.5t-159 482zM737 666q0 299 -27.5 431t-95 132t-95 -132t-27.5 -431t27.5 -431.5t95 -132.5t95 132.5t27.5 431.5z" glyph-name="zero.tnum"/><glyph d="M51 665.5q0 278.5 159 482.5t404.5 204t404.5 -204t159 -482.5t-159 -482t-404.5 -203.5t-404.5 203.5t-159 482zM614 1229q-68 0 -95 -132t-27 -351t6 -324l217 649q-27 158 -101 158zM737 579q0 212 -6 306l-213 -645q27 -137 96 -138q123 0 123 477z" glyph-name="zero.zero.tnum"/><glyph d="M51 512q0 248 169 390t394.5 142t394.5 -142t169 -390t-169 -390t-394.5 -142t-394.5 142t-169 390zM614 102q123 0 123 410q0 125 -14 225l-188 -569q28 -66 79 -66zM492 512q0 -127 8 -199l186 557q-27 51 -72 52q-122 0 -122 -410z" glyph-name="zero.zero.tnum.oldstyle"/><glyph d="M424 154v942l-297 -41l-10 71l645 226h82v-1198q0 -23 5 -32t39 -20.5t222 -19.5v-82h-963v82q186 7 225.5 18t45.5 22.5t6 31.5z" glyph-name="one.tnum"/><glyph d="M492 1229q-51 0 -82 -31t-31 -64t25.5 -70.5t25.5 -78.5t-43 -62.5t-107 -21.5t-100.5 32t-36.5 81q0 133 125.5 235.5t325.5 102.5t330.5 -105.5t130.5 -283.5q0 -336 -563 -666h604v-297h-963v121q502 406 502 831q0 106 -36.5 191.5t-106.5 85.5z" glyph-name="two.tnum"/><glyph d="M1090 369q0 -174 -148.5 -281.5t-374.5 -107.5q-180 0 -305 102t-125 235q0 49 35.5 81t99.5 32t108 -21.5t44 -62.5t-25.5 -79.5t-25.5 -70.5t30.5 -63t81.5 -31q78 0 131.5 75t53.5 181q0 168 -58.5 222.5t-167.5 54.5v123q225 0 226 256q0 215 -144 215 q-51 0 -81.5 -31t-30.5 -64t25.5 -70.5t25.5 -78.5t-43.5 -62.5t-107.5 -21.5t-100 32t-36 81q0 133 125 235.5t323 102.5t310.5 -88t112.5 -240q0 -106 -100.5 -199.5t-258.5 -113.5v-4q201 -23 300.5 -113t99.5 -225z" glyph-name="three.tnum"/><glyph d="M1034 0h-420v328h-532v51l686 973h266v-901h113v-123h-113v-328zM614 451v501l-360 -501h360z" glyph-name="four.tnum"/><glyph d="M1038 1331v-297h-647l-8 -143q180 0 315.5 -32t208 -78t115.5 -111.5t55.5 -117.5t12.5 -112q0 -215 -153 -337.5t-421 -122.5q-160 0 -269.5 85t-109.5 201q0 72 39 118t112 46t104.5 -28.5t31.5 -60.5t-25.5 -71.5t-25.5 -75.5t39 -64t84 -28q98 0 146 68t48 152 q0 147 -86 225t-303 78h-41l25 706h753z" glyph-name="five.tnum"/><glyph d="M737 410q0 133 -39 215t-94 82q-35 0 -82 -19q-15 -283 25.5 -434.5t87.5 -151.5q102 1 102 308zM1137 451q0 -217 -153.5 -344t-367.5 -127t-369 153.5t-155 388.5q0 317 230.5 552t568.5 298l31 -92q-102 -29 -178 -82t-144.5 -141.5t-77.5 -257.5q35 29 103.5 50 t132.5 21q188 0 283.5 -118.5t95.5 -300.5z" glyph-name="six.tnum"/><glyph d="M369 1034q-68 0 -91.5 -27.5t-41.5 -95.5h-82l10 420h911v-174l-362 -1157h-451l619 1034h-512z" glyph-name="seven.tnum"/><glyph d="M131 1016q0 148 139.5 242t363.5 94t321.5 -98.5t97.5 -192.5t-72 -173t-193 -112q80 -39 124 -65.5t128 -96.5t84 -235q0 -106 -43 -186t-153 -146.5t-340 -66.5t-358 101t-128 241q0 106 72 191t195 108q-111 70 -174.5 158.5t-63.5 236.5zM469 331q0 -116 38 -172.5 t91 -56.5q117 0 117 181q0 84 -54.5 139t-162.5 121q-29 -96 -29 -212zM715 1065q0 164 -92 164q-35 0 -69 -46t-34 -118q0 -135 154 -227q41 135 41 227z" glyph-name="eight.tnum"/><glyph d="M492 922q0 -133 38.5 -215t94.5 -82q35 0 82 18q15 278 -25.5 432t-87.5 154q-102 0 -102 -307zM92 881q0 217 152.5 344t367.5 127t370 -154t155 -389q0 -317 -230.5 -551.5t-568.5 -298.5l-31 92q102 29 178 82t144.5 141t77.5 258q-35 -29 -103.5 -50t-132.5 -21 q-188 0 -283.5 119t-95.5 301z" glyph-name="nine.tnum"/><glyph d="M522 512q0 -410 123 -410t123 410t-123 410t-123 -410zM82 512q0 248 169 390t394 142t394 -142t169 -390t-169 -390t-394 -142t-394 142t-169 390z" glyph-name="zero.oldstyle" horiz-adv-x="1290"/><glyph d="M82 512q0 248 169 390t394 142t394 -142t169 -390t-169 -390t-394 -142t-394 142t-169 390zM645 102q123 0 123 410q0 125 -14 225l-189 -569q29 -66 80 -66zM522 512q0 -127 8 -199l187 557q-27 51 -72 52q-123 0 -123 -410z" glyph-name="zero.zero.oldstyle" horiz-adv-x="1290"/><glyph d="M266 154v614l-164 -41l-41 92l543 225h82v-890q0 -35 40 -48.5t124 -23.5v-82h-758v82q134 12 154 33t20 39z" glyph-name="one.oldstyle" horiz-adv-x="890"/><glyph d="M438 922q-58 0 -94.5 -32t-36.5 -64t25.5 -69.5t25.5 -78.5t-44 -62.5t-108 -21.5t-99 31.5t-35 81.5q0 133 128 235t328 102t327.5 -83.5t127.5 -223.5q0 -68 -39 -129t-112 -122t-412 -189h604v-297h-963v121q16 16 92 81.5t104 91t89.5 86t89 99.5t77.5 114.5 t50 184.5q0 61 -33.5 102.5t-91.5 41.5z" glyph-name="two.oldstyle" horiz-adv-x="1105"/><glyph d="M993 61q0 -174 -148.5 -281.5t-350.5 -107.5t-327.5 102.5t-125.5 235.5q0 49 36 81t100 32q151 0 151 -92q0 -33 -26 -71t-26 -70t31 -63.5t82 -31.5q78 0 131 75t53 181q0 168 -57 222.5t-168 54.5v123q225 0 225 256q0 215 -143 215q-51 0 -82 -31t-31 -64t26 -70.5 t26 -78.5t-43 -62.5t-108 -21.5t-100.5 31.5t-35.5 81.5q0 133 125 235t323 102t310 -88t112 -239q0 -106 -100 -199.5t-258 -114.5v-4q201 -23 300 -113t99 -225z" glyph-name="three.oldstyle" horiz-adv-x="1054"/><glyph d="M993 -307h-420v307h-532v51l686 993h266v-921h113v-123h-113v-307zM573 123v522l-360 -522h360z" glyph-name="four.oldstyle" horiz-adv-x="1167"/><glyph d="M942 1024v-297h-647l-8 -143q180 0 315 -32t208 -78t116 -111.5t55 -117.5t12 -112q0 -215 -152.5 -338t-420.5 -123q-160 0 -269.5 85t-109.5 202q0 72 39.5 118t111.5 46t104 -28.5t32 -60.5t-26 -71t-26 -75t39 -64.5t84 -28.5q98 0 146.5 67.5t48.5 151.5 q0 147 -86 225t-303 78h-41l24 707h754z" glyph-name="five.oldstyle" horiz-adv-x="1054"/><glyph d="M707 410q0 133 -39 215t-95 82q-37 0 -81 -19q-15 -282 25 -434t87 -152q103 1 103 308zM1106 451q0 -217 -151.5 -344t-368.5 -127t-371 153.5t-154 388.5q0 317 230.5 552t568.5 298l31 -92q-102 -29 -178 -82t-144 -140.5t-77 -258.5q35 29 103 50t132 21 q188 0 283.5 -118.5t95.5 -300.5z" glyph-name="six.oldstyle" horiz-adv-x="1167"/><glyph d="M266 727q-68 0 -91 -27.5t-42 -95.5h-82l10 420h912v-174l-363 -1157h-450l618 1034h-512z" glyph-name="seven.oldstyle" horiz-adv-x="1013"/><glyph d="M80 1016q0 148 139 242t363 94t321.5 -98.5t97.5 -192.5t-71.5 -173t-192.5 -112q80 -39 124 -65.5t128 -96.5t84 -235q0 -106 -43 -186t-153 -146.5t-340 -66.5t-358 101t-128 241q0 106 72 191t194 108q-111 70 -174 158.5t-63 236.5zM418 331q0 -116 38 -172.5 t91 -56.5q117 0 117 181q0 84 -54.5 139t-163.5 121q-28 -96 -28 -212zM664 1065q0 164 -93 164q-35 0 -68.5 -46t-33.5 -118q0 -135 154 -227q41 135 41 227z" glyph-name="eight.oldstyle" horiz-adv-x="1124"/><glyph d="M461 614q0 -133 39 -215t94 -82q37 0 82 19q15 283 -25.5 434.5t-87.5 151.5q-102 -1 -102 -308zM61 573q0 217 152.5 344t368.5 127t370 -153.5t154 -388.5q0 -317 -230.5 -552t-568.5 -298l-31 92q102 29 178 82t144.5 141.5t77.5 257.5q-35 -29 -103.5 -50t-132.5 -21 q-188 0 -283.5 118.5t-95.5 300.5z" glyph-name="nine.oldstyle" horiz-adv-x="1167"/><glyph d="M223 510q0 139 94 233l-153 185l14 16l158 -184q88 74 196.5 74t196.5 -74l154 184l18 -16l-153 -183q98 -94 98 -235t-96 -234l149 -176l-18 -18l-152 178q-84 -72 -196.5 -72t-196.5 72l-152 -178l-16 18l149 176q-94 95 -94 234zM246 510q0 -121 85 -209t203 -88 t202.5 88t84.5 209t-85 210t-203 89t-202.5 -89t-84.5 -210z" glyph-name="glyph583" horiz-adv-x="1064"/><glyph d="M938 348q0 -184 -140.5 -274t-340.5 -94l-25 -144h-80l25 146q-137 12 -262 73l-17 293h74q45 -121 95 -182.5t128 -69.5l45 262q-23 14 -109.5 58t-167.5 114t-81 191t74.5 194.5t176 100t226.5 28.5l25 144h80l-27 -148q123 -14 219 -59l18 -260h-71q-45 104 -85 151.5 t-100 55.5l-34 -203q14 -8 72.5 -39t122 -70t111.5 -105t48 -163zM555 213q0 49 -43 92l-35 -199q78 27 78 107zM467 850q0 -41 45 -80l27 160q-72 -14 -72 -80z" glyph-name="glyph584" horiz-adv-x="1019"/><glyph d="M696 -160v142q-270 10 -442 157.5t-172 372.5t172 372.5t442 157.5v156h82v-156q152 -8 295 -86l19 -239h-76q-27 92 -79 150.5t-159 68.5v-848q180 18 238 219h71l-14 -239q-133 -76 -295 -86v-142h-82zM494 512q0 -399 202 -424v848q-96 -14 -149 -110.5t-53 -313.5z " glyph-name="glyph585" horiz-adv-x="1173"/><glyph d="M76 670h90q57 170 226 272t375 102t366 -88l18 -239h-76q-29 102 -90 161.5t-194 59.5q-92 0 -150.5 -60.5t-79.5 -207.5h207l-37 -117h-178v-41q0 -43 2 -63h213l-37 -117h-166q39 -246 226 -246q129 0 192.5 59.5t91.5 161.5h72l-14 -239q-153 -88 -359 -88t-371 95 t-229 257h-98v117h69q-4 20 -4 55t2 49h-67v117z" glyph-name="glyph586"/><glyph d="M76 670h90q57 170 226 272t375 102t366 -88l18 -239h-76q-29 102 -90 161.5t-194 59.5q-92 0 -150.5 -60.5t-79.5 -207.5h207l-37 -117h-178v-41q0 -43 2 -63h213l-37 -117h-166q39 -246 226 -246q129 0 192.5 59.5t91.5 161.5h72l-14 -239q-153 -88 -359 -88t-371 95 t-229 257h-98v117h69q-4 20 -4 55t2 49h-67v117z" glyph-name="glyph587"/><glyph d="M76 670h90q57 170 226 272t375 102t366 -88l18 -239h-76q-29 102 -90 161.5t-194 59.5q-92 0 -150.5 -60.5t-79.5 -207.5h207l-37 -117h-178v-41q0 -43 2 -63h213l-37 -117h-166q39 -246 226 -246q129 0 192.5 59.5t91.5 161.5h72l-14 -239q-153 -88 -359 -88t-371 95 t-229 257h-98v117h69q-4 20 -4 55t2 49h-67v117z" glyph-name="glyph588"/><glyph d="M76 670h90q57 170 226 272t375 102t366 -88l18 -239h-76q-29 102 -90 161.5t-194 59.5q-92 0 -150.5 -60.5t-79.5 -207.5h207l-37 -117h-178v-41q0 -43 2 -63h213l-37 -117h-166q39 -246 226 -246q129 0 192.5 59.5t91.5 161.5h72l-14 -239q-153 -88 -359 -88t-371 95 t-229 257h-98v117h69q-4 20 -4 55t2 49h-67v117z" glyph-name="glyph589"/><glyph d="M2519 511q0 -237 -147.5 -384t-354.5 -147q-92 0 -174 40v-286q0 -39 17.5 -51.5t85.5 -20.5v-72h-605v72q68 8 85.5 20.5t17.5 51.5v266h-492q-86 129 -143 264l-61 146q-66 154 -113 204h-62v-460q0 -39 17.5 -51.5t85.5 -20.5v-82h-625v82q68 8 85.5 20.5t17.5 51.5 v1126q0 39 -17.5 51t-85.5 21v82h697q227 0 359 -108.5t132 -281.5q0 -125 -84 -235.5t-237 -159.5q111 -33 169 -87t101 -132l135 -246q41 -76 121 -98v702q0 53 -16.5 68.5t-86.5 24.5v71l461 92h41l-10 -153h10q98 153 276 153t289 -148t111 -385zM1925 840 q-43 0 -82 -31v-471q0 -236 123 -236q133 0 133 390q0 170 -48 259t-126 89zM645 1331h-72v-594h52q106 0 140 67.5t34 211.5q0 316 -154 315z" glyph-name="glyph590" horiz-adv-x="2570"/><glyph d="M162 561h84q-55 76 -56 154q0 168 127 248.5t318 80.5t326 -65l18 -277h-76q-57 144 -94 186t-103 42t-98.5 -26.5t-32.5 -71.5t40 -126t47 -145h196v-115h-205q-16 -72 -67 -163q80 -4 160.5 -25.5t118.5 -21.5t72 19t41 31.5t21 43.5h74q-39 -365 -266 -365 q-74 0 -130 23.5t-114.5 63.5t-99.5 57q-119 -129 -213 -129q-33 0 -63.5 21.5t-30.5 66.5q0 137 233 192q8 27 8 70t-59 116h-176v115z" glyph-name="glyph591"/><glyph d="M258 506h115l-240 387q-31 51 -82 61v70h555v-70q-109 -14 -57 -98l182 -293h4l139 275q31 66 11.5 85t-117.5 31v70h408v-70q-110 -20 -132 -38t-34 -42l-189 -368h154v-117h-162v-274q0 -23 11.5 -31t54.5 -14v-70h-523v70q41 6 52.5 14t11.5 31v274h-162v117z" glyph-name="glyph592"/><glyph d="M240 -270q56 0 41 160.5t-5 252.5l80 748h-225l8 92l232 41q24 236 187 353.5t374 117.5q139 0 237.5 -59.5t98.5 -141.5q0 -61 -42 -104t-112 -43t-99.5 25.5t-29.5 51.5t9.5 48t9.5 39q0 61 -75 61t-106.5 -71.5t-48.5 -235.5l-4 -41h297l-14 -133h-297l-80 -748 q-27 -254 -203 -413.5t-369 -159.5q-59 0 -100 28t-41 86t34 95t86 37t93 -43t64 -43z" glyph-name="glyph593"/><glyph d="M92 563h291v195h-291v133h291v293h133v-293h195v293h133v-293h293v-133h-293v-195h293v-133h-293v-291h-133v291h-195v-291h-133v291h-291v133zM516 758v-195h195v195h-195z" glyph-name="glyph594"/><glyph d="M2519 511q0 -237 -147.5 -384t-354.5 -147q-92 0 -174 40v-286q0 -39 17.5 -51.5t85.5 -20.5v-72h-605v72q68 8 85.5 20.5t17.5 51.5v266h-492q-86 129 -143 264l-61 146q-66 154 -113 204h-62v-460q0 -39 17.5 -51.5t85.5 -20.5v-82h-625v82q68 8 85.5 20.5t17.5 51.5 v1126q0 39 -17.5 51t-85.5 21v82h697q227 0 359 -108.5t132 -281.5q0 -125 -84 -235.5t-237 -159.5q111 -33 169 -87t101 -132l135 -246q41 -76 121 -98v702q0 53 -16.5 68.5t-86.5 24.5v71l461 92h41l-10 -153h10q98 153 276 153t289 -148t111 -385zM1925 840 q-43 0 -82 -31v-471q0 -236 123 -236q133 0 133 390q0 170 -48 259t-126 89zM645 1331h-72v-594h52q106 0 140 67.5t34 211.5q0 316 -154 315z" glyph-name="glyph595" horiz-adv-x="2570"/><glyph d="M760 86q127 0 190.5 59.5t91.5 161.5h72l-14 -239q-152 -88 -342 -88q-283 0 -466 149.5t-183 382.5t183 382.5t466 149.5q182 0 342 -88l18 -239h-76q-31 102 -81 151l-386 -673q58 -109 185 -109zM526 373q10 -82 27 -129l373 653q-33 20 -80 31zM520 512q0 -43 2 -63 l277 487l-41 2q-113 0 -175.5 -94t-62.5 -332z" glyph-name="glyph596"/><glyph d="M502 389v82q-195 10 -323 134t-128 308.5t128 307t323 133.5v80h71v-80q135 -10 240 -72l12 -190h-49q-43 170 -203 188v-733q160 18 203 188h49l-12 -190q-98 -63 -240 -74v-82h-71zM315 913q0 -334 187 -366v731q-84 -12 -135.5 -101.5t-51.5 -263.5z" glyph-name="glyph597" horiz-adv-x="876"/><glyph d="M61 727h123q-82 119 -82 225q0 201 144.5 305.5t364.5 104.5t376 -86l21 -348h-82q-57 170 -106.5 235.5t-155.5 65.5q-68 0 -110 -44t-42 -106t48 -171t58 -181h242v-133h-239q-16 -117 -97 -268q96 -4 200.5 -32t135.5 -28q86 0 122 37t56 107h82q-51 -451 -311 -451 q-84 0 -151.5 29.5t-137 78t-125.5 68.5q-135 -156 -241 -155q-37 0 -70 25.5t-33 74.5q0 160 264 225q23 57 23 127t-59 162h-218v133z" glyph-name="glyph598" horiz-adv-x="1171"/><glyph d="M297 625h158l-295 540q-23 41 -44.5 60.5t-64.5 25.5v80h629v-80q-97 -13 -95.5 -52.5t19.5 -74.5l227 -430h5l178 404q37 84 14.5 110.5t-139.5 42.5v80h467v-80q-68 -12 -115 -25.5t-78 -80.5l-233 -520h196v-133h-204v-347q0 -35 14 -46t74 -19v-80h-596v80 q57 8 72.5 19.5t15.5 45.5v347h-205v133z" glyph-name="glyph599" horiz-adv-x="1406"/><glyph d="M51 870h109q66 223 260 357.5t437 134.5t427 -115l21 -301h-82q-33 135 -109 214t-233 79q-248 0 -297 -369h266l-41 -133h-236v-65q0 -61 2 -88h275l-41 -133h-221q53 -348 293 -349q156 0 231.5 79t110.5 214h80l-19 -301q-176 -114 -420 -114t-436 128t-262 343h-115 v133h86q-4 57 -4 94t2 59h-84v133z" glyph-name="glyph600" horiz-adv-x="1355"/><glyph d="M51 870h109q66 223 260 357.5t437 134.5t427 -115l21 -301h-82q-33 135 -109 214t-233 79q-248 0 -297 -369h266l-41 -133h-236v-65q0 -61 2 -88h275l-41 -133h-221q53 -348 293 -349q156 0 231.5 79t110.5 214h80l-19 -301q-176 -114 -420 -114t-436 128t-262 343h-115 v133h86q-4 57 -4 94t2 59h-84v133z" glyph-name="glyph601" horiz-adv-x="1355"/><glyph d="M51 870h109q66 223 260 357.5t437 134.5t427 -115l21 -301h-82q-33 135 -109 214t-233 79q-248 0 -297 -369h266l-41 -133h-236v-65q0 -61 2 -88h275l-41 -133h-221q53 -348 293 -349q156 0 231.5 79t110.5 214h80l-19 -301q-176 -114 -420 -114t-436 128t-262 343h-115 v133h86q-4 57 -4 94t2 59h-84v133z" glyph-name="glyph602" horiz-adv-x="1355"/><glyph d="M51 870h109q66 223 260 357.5t437 134.5t427 -115l21 -301h-82q-33 135 -109 214t-233 79q-248 0 -297 -369h266l-41 -133h-236v-65q0 -61 2 -88h275l-41 -133h-221q53 -348 293 -349q156 0 231.5 79t110.5 214h80l-19 -301q-176 -114 -420 -114t-436 128t-262 343h-115 v133h86q-4 57 -4 94t2 59h-84v133z" glyph-name="glyph603" horiz-adv-x="1355"/><glyph d="M799 102q156 0 231.5 79t110.5 214h80l-19 -301q-176 -115 -403 -114q-326 0 -537 195.5t-211 496.5t211 495.5t537 194.5q219 0 403 -115l21 -301h-82q-20 86 -54 141l-460 -919q66 -66 172 -66zM492 672q0 -152 22 -264l406 813q-63 18 -121 18q-307 0 -307 -567z M532 330q27 -78 58 -119l463 926q-37 43 -84 65z" glyph-name="glyph604" horiz-adv-x="1273"/><glyph d="M2519 511q0 -237 -147.5 -384t-354.5 -147q-92 0 -174 40v-286q0 -39 17.5 -51.5t85.5 -20.5v-72h-605v72q68 8 85.5 20.5t17.5 51.5v266h-492q-86 129 -143 264l-61 146q-66 154 -113 204h-62v-460q0 -39 17.5 -51.5t85.5 -20.5v-82h-625v82q68 8 85.5 20.5t17.5 51.5 v1126q0 39 -17.5 51t-85.5 21v82h697q227 0 359 -108.5t132 -281.5q0 -125 -84 -235.5t-237 -159.5q111 -33 169 -87t101 -132l135 -246q41 -76 121 -98v702q0 53 -16.5 68.5t-86.5 24.5v71l461 92h41l-10 -153h10q98 153 276 153t289 -148t111 -385zM1925 840 q-43 0 -82 -31v-471q0 -236 123 -236q133 0 133 390q0 170 -48 259t-126 89zM645 1331h-72v-594h52q106 0 140 67.5t34 211.5q0 316 -154 315z" glyph-name="glyph605" horiz-adv-x="2570"/><glyph d="M111 -270q56 0 41 160.5t-5 252.5l80 748h-102l8 92l109 41q24 236 188 353.5t373 117.5q139 0 237.5 -59.5t98.5 -141.5q0 -61 -41.5 -104t-111.5 -43t-100 25.5t-30 51.5t9 48t9 39q0 61 -74 61t-106 -71.5t-49 -235.5l-4 -41h154l-15 -133h-153l-80 -748 q-27 -254 -203 -413.5t-369 -159.5q-59 0 -100 28t-41 86t34 95t86 37t94 -43t63 -43z" glyph-name="glyph606" horiz-adv-x="696"/><glyph d="M92 563h291v195h-291v133h291v293h133v-293h195v293h133v-293h293v-133h-293v-195h293v-133h-293v-291h-133v291h-195v-291h-133v291h-291v133zM516 758v-195h195v195h-195z" glyph-name="glyph607"/><glyph d="M61 1239q0 168 95.5 290t243 122t242.5 -122t95 -290t-95 -290t-242.5 -122t-243 122t-95.5 290zM399 901q74 1 74 281q0 120 -2 149l-123 -375q16 -55 51 -55zM399 1577q-41 0 -57 -80t-16 -258v-80l123 367q-15 51 -50 51z" glyph-name="uni2070.aalt" horiz-adv-x="704"/><glyph d="M61 194.5q0 167.5 95.5 289.5t243 122t242.5 -122t95 -289.5t-95 -289.5t-242.5 -122t-243 122t-95.5 289.5zM399 -143q74 1 74 281q0 120 -2 149l-123 -373q14 -57 51 -57zM399 532q-41 0 -57 -79.5t-16 -257.5v-80l123 366q-15 51 -50 51z" glyph-name="uni2080.aalt" horiz-adv-x="798"/></font>
</defs>
</svg>
