<?xml version="1.0" encoding="utf-8"?>
<!-- Generator: Adobe Illustrator 23.0.2, SVG Export Plug-In . SVG Version: 6.00 Build 0)  -->
<svg version="1.1" id="Layer_1" xmlns="http://www.w3.org/2000/svg" xmlns:xlink="http://www.w3.org/1999/xlink" x="0px" y="0px"
	 viewBox="0 0 403.7 294.5" style="enable-background:new 0 0 403.7 294.5;" xml:space="preserve">
<style type="text/css">
	.st0{fill:#383642;}
</style>
<g>
	<g>
		<g>
			<g>
				<path class="st0" d="M398.8,268.6C398.8,268.7,398.8,268.7,398.8,268.6c-0.2,0.9-0.3,1-1.2,1c-2.2,0-4.5,0-6.7,0
					c-0.3,0-0.6-0.1-0.9-0.1s-0.4,0.1-0.4,0.3c-0.1,0.9,0.1,1.7,1,2.1c0.4,0.2,1.2,0.4,1.7,0.5c0.8,0.1,1.3,0.3,2.1,0.1
					c0.5-0.1,0.6-0.4,0.5-0.8c-0.1-0.3-0.2-0.5-0.3-0.8c0-0.2,0-0.5,0.1-0.6c0.2-0.1,0.5-0.1,0.6,0c0.7,0.4,1,1,1,1.8
					c0,0.7-0.4,1.2-1.1,1.4c-0.6,0.2-2.1,0.4-3.4,0.1c-1.5-0.4-2.1-0.7-2.7-1c-0.6-0.4-1.1-1.2-1.2-1.9c-0.1-1,0-2,0.5-2.9
					c0.4-0.7,0.2-1.4,0.2-2c-0.1-0.9-0.3-2.1-0.3-3c0-1.2,0-2,0.2-3.2c0.1-0.7,0.5-1.3,0.8-2c0.5-1,1.1-2,1.9-2.8
					c0.5-0.6,1.2-0.9,1.9-1.1c1.2-0.3,2-1.1,2.7-2c0.2-0.3,0.4-0.6,0.3-1c0-1.2,0.4-2.2,1.2-3.1c0.2-0.2,0.4-0.4,0.6-0.5
					c0.8-0.2,1-0.9,1.4-1.5c0.1-0.3,0.3-0.5,0.5-0.8c0.2-0.2,0.5-0.6,0.7-0.4c0.1,0.2,0.3,0.6,0.3,0.8c0.1,0.5,0.2,0.7,0.1,1.2
					c0,0.4,0.2,0.6,0.6,0.7c0.5,0.1,1,0.4,1.3,0.9c0.2,0.3,0.5,0.6,0.8,0.6c0.7,0.2,0.6,0.5,0.5,1c-0.2,0.7-0.6,1.2-1.3,1.5
					c-0.6,0.3-0.8,0.7-0.7,1.4c0.2,1.1,0.2,2.1,0.3,3.2c0.1,1-0.3,2-1,2.8c-0.8,1-1.2,2.1-1.2,3.4c0,1.4,0,2.9,0,4.3
					c0,0.6,0.1,1.1,0.7,1.2c0.2,0,1,0.3,1.1,0.5s0.2,0.9-0.1,1c-0.1,0-0.4,0.1-0.8,0.1c-0.8,0.1-1.6,0.2-2.2-0.4
					C399,268.8,398.9,268.7,398.8,268.6z M398.5,268.2c-0.2-0.5-0.4-1.2-0.5-1.9c-0.2,0.4-0.6,1.1-1,1.5
					C397.6,267.9,398,268,398.5,268.2z"/>
			</g>
		</g>
		<g>
			<g>
				<g id="mvIV5B.tif_153_">
					<path class="st0" d="M154.4,102.6c0-1,0-2,0-3c0-1.2,0.4-1.6,1.6-1.6c1.2,0,1.7,0.4,1.7,1.7c0,1,0,1.9,0,2.9
						c0,0,0.1,0.1,0.3,0.2c0-0.4,0.1-0.7,0.1-1.1c0-0.7,0-1.4,0-2.1c0-1.4,1.4-2.2,2.6-1.4c0.4,0.2,0.6,0.8,0.7,1.2
						c0.1,1,0,2.1,0.1,3.1c0,0.1,0.1,0.1,0.2,0.4c0.1-0.5,0.1-0.8,0.1-1.1c0-2.2,0-4.3,0-6.5c0-0.5,0.4-1.2,0.9-1.5
						c0.4-0.2,1.2-0.2,1.6,0.1c0.4,0.2,0.7,0.8,0.7,1.3c0,5.6,0.1,11.3,0,16.9c0,2.6-2.3,4.9-5,5c-2,0.1-4,0.2-6,0
						c-3.3-0.4-5.1-2.6-6.2-5.4c-0.4-1.1-0.5-2.2-0.6-3.4c-0.1-2.1,0-4.2,0-6.3c1.8-0.2,3.2,1.1,3.2,2.9c0,0.9,0,1.9,0,2.8
						c0.1,0,0.2,0,0.3,0c0-0.3,0.1-0.6,0.1-0.9c0-4.6,0-9.1,0-13.7c0-1.1,0.5-1.7,1.3-1.8c1.1-0.2,1.9,0.6,1.9,1.8
						c0,2.8,0,5.7,0,8.5c0,0.3,0,0.7,0,1C154.1,102.6,154.2,102.6,154.4,102.6z"/>
				</g>
				<polygon class="st0" points="204.7,-52.2 213.3,-51.9 207.6,-41.3 214.3,-39.1 199.3,-21 205.3,-36.1 198,-38.7 				"/>
				<g id="JeGfOL.tif_8_">
					<path class="st0" d="M163.3-1.2c-2.5,2.4-4.9,4.8-7.4,7.2c-2.4-2.4-4.9-4.8-7.2-7.1c-1.1,1.1-2.2,2.2-3.4,3.3
						c2.4,2.3,4.8,4.7,7.3,7.2c-2.4,2.4-4.8,4.7-7.2,7c1.1,1.1,2.2,2.1,3.4,3.3c2.4-2.3,4.8-4.7,7.3-7.2c2.4,2.3,4.8,4.7,7.2,7
						c1.1-1,2.1-2.1,3.3-3.2c-2.4-2.3-4.8-4.7-7.4-7.2c2.5-2.4,4.9-4.8,7.3-7.2C165.6,1,164.5,0,163.3-1.2z"/>
				</g>
				<path class="st0" d="M308.7,60.1c-0.3-0.2-0.8-0.7-1.2-0.7c-0.4,0-1,0.5-1.2,0.7c-1.1,1.2-2.7,6.4-2.8,7.2
					c-0.1,0.3-0.4,0.5-0.5,0.8c-0.3-0.2-0.6-0.3-0.8-0.6c-1.4-2.5-2.2-5.2-1.4-8.1c0.4-1.6,0.4-3.1-0.1-4.6
					c-0.6-2.1-1.1-4.2-1.3-6.3c-0.4-3,1.1-5,4-5.3c0.9-0.1,1.8,0.3,2.7,0.3c1.4,0,2.9,0,4.3-0.2c3.2-0.5,5.7,1.5,5.5,4.7
					c-0.1,1.9-0.6,3.9-1.1,5.7c-0.6,2.2-0.8,4.3-0.3,6.5c0.6,2.6-0.3,5.1-1.5,7.4c-0.1,0.3-0.5,0.4-0.8,0.6
					c-0.2-0.2-0.4-0.5-0.5-0.7C311.4,66.6,309.7,61,308.7,60.1z"/>
				<path class="st0" d="M299.3-24.4c0.3-0.2,0.3-0.6,0.3-0.9c0.1-0.6,0.1-1.3,0.2-1.9s0.3-1.2,0.3-1.9c0.3-3.4,1.6-6.4,3.8-9
					c1.3-1.5,2.7-2.8,4.5-3.6c1.6-0.7,3.3-1.4,4.9-2.2c0.7-0.4,1.5-0.4,2.3-0.1c0.4,0.1,0.8,0.3,1.2,0.4s0.7,0.1,0.9,0.1
					c0.3,0,0.7-0.1,1,0c0.6,0.2,1,0,1.5-0.3c0.2-0.1-0.4-0.9-0.5-1.5c-0.1-0.4-0.3-0.5-0.6-0.5c-0.5,0-1,0-1.5-0.1
					c-0.1,0-0.1,0.1-0.2,0.1c-0.3,0.1-0.6,0.2-0.9,0.1c-0.7-0.2-1.5-0.5-2.2-0.8c-0.6-0.3-1.1-0.8-1.8-1.1c-1.7-0.9-3.4-1-5.2-0.3
					c-3.5,1.2-6.4,3.3-9,6.4c-0.4,0.5-0.9,1.3-1.4,2.1c-1,1.9-1.7,3.8-2.1,5.9c-0.6,3.4,0.4,6.3,2.5,9
					C297.9-23.7,298.5-23.9,299.3-24.4z"/>
				<path class="st0" d="M56.9,107.4c0.3,0,0.7-0.1,0.9-0.4h0.1c1.6,2.2,6.4,4.1,9.6,4.2c0.6,0,1,0.1,1.4-0.5
					c0.5-0.7,1.8-11.6,0.4-13.1c-1-1-10.7,2.2-11.4,4c-0.2-0.1-0.3-0.3-0.5-0.4c-0.3,0-0.7,0.1-1-0.1c-0.5-0.3-1-0.3-1.4-0.1
					c-0.3,0.2-0.7,0-0.9,0.1s-0.3,0.2-0.5,0.4c-0.7-1.8-10.4-5-11.4-4c-1.4,1.5-0.1,12.4,0.4,13.1c0.4,0.6,0.8,0.5,1.4,0.5
					c3.2-0.1,8-2,9.6-4.2h0.1c0.2,0.3,0.6,0.4,0.9,0.4l0.7-0.1l0.8,0.3c0.2,0.1,0.4,0,0.6-0.1L56.9,107.4z"/>
				<path class="st0" d="M58.4,18.7C58.4,18.7,58.4,18.8,58.4,18.7c-0.2,0.9-0.3,1-1.2,1c-2.2,0-4.5,0-6.7,0c-0.3,0-0.6-0.1-0.9-0.1
					s-0.4,0.1-0.4,0.3c-0.1,0.9,0.1,1.7,1,2.1c0.4,0.2,1.2,0.4,1.7,0.5c0.8,0.1,1.3,0.3,2.1,0.1c0.5-0.1,0.6-0.4,0.5-0.8
					c-0.1-0.3-0.2-0.5-0.3-0.8c0-0.2,0-0.5,0.1-0.6c0.2-0.1,0.5-0.1,0.6,0c0.7,0.4,1,1,1,1.8c0,0.7-0.4,1.2-1.1,1.4
					c-0.6,0.2-2.1,0.4-3.4,0.1c-1.5-0.4-2.1-0.7-2.7-1c-0.6-0.4-1.1-1.2-1.2-1.9c-0.1-1,0-2,0.5-2.9c0.4-0.7,0.2-1.4,0.2-2
					c-0.1-0.9-0.3-2.1-0.3-3c0-1.2,0-2,0.2-3.2c0.1-0.7,0.5-1.3,0.8-2c0.5-1,1.1-2,1.9-2.8C51.3,4.3,52,4,52.7,3.8
					c1.2-0.3,2-1.1,2.7-2c0.2-0.3,0.4-0.6,0.3-1c0-1.2,0.4-2.2,1.2-3.1c0.2-0.2,0.4-0.4,0.6-0.5c0.8-0.2,1-0.9,1.4-1.5
					c0.1-0.3,0.3-0.5,0.5-0.8c0.2-0.2,0.5-0.6,0.7-0.4c0.1,0.2,0.3,0.6,0.3,0.8c0.1,0.5,0.2,0.7,0.1,1.2c0,0.4,0.2,0.6,0.6,0.7
					c0.5,0.1,1,0.4,1.3,0.9c0.2,0.3,0.5,0.6,0.8,0.6c0.7,0.2,0.6,0.5,0.5,1c-0.2,0.7-0.6,1.2-1.3,1.5c-0.6,0.3-0.8,0.7-0.7,1.4
					c0.2,1.1,0.2,2.1,0.3,3.2c0.1,1-0.3,2-1,2.8c-0.8,1-1.2,2.1-1.2,3.4c0,1.4,0,2.9,0,4.3c0,0.6,0.1,1.1,0.7,1.2
					c0.2,0,1,0.3,1.1,0.5s0.2,0.9-0.1,1c-0.1,0-0.4,0.1-0.8,0.1C59.9,19.2,59.1,19.3,58.4,18.7C58.6,18.9,58.5,18.8,58.4,18.7z
					 M58.1,18.3c-0.2-0.5-0.4-1.2-0.5-1.9c-0.2,0.4-0.6,1.1-1,1.5C57.1,18,57.6,18.1,58.1,18.3z"/>
				<path class="st0" d="M358.5,1.2C358.5,1.2,358.5,1.1,358.5,1.2c-0.5-0.4-0.9-0.6-1.6-0.5c-1.9,0.1-3,0.9-3,0.9s0.8-1.8,3.6-1.7
					c-0.5-0.8-2.8-0.4-4-0.1c-0.1,0,1.8-3.8,2.3-4.3l0,0c-1.9,0.6-3.6,2.3-3.6,2.3c-0.1-1.5-0.6-3.9-1.1-4.5l0,0
					c-0.5,0.6-1,3.1-1.1,4.5c0,0-1.6-1.7-3.6-2.3l0,0c0.5,0.5,2.4,4.4,2.3,4.3c-1.2-0.3-3.5-0.6-4,0.1c2.8-0.1,3.6,1.7,3.6,1.7
					s-1.1-0.8-3-0.9c-0.6,0-1.1,0.1-1.5,0.5l0,0c0.9-0.2,4,1.8,4.2,3.2c0,0-1-0.3-1.3-0.4c-0.8-0.1-1.4,0-2.2,0.3
					c-0.2,0.1-0.6,0.3-0.7,0.5c1.5-0.6,3.7,0.2,4.5,1.3c0.2,0.3,0.4,0.7,0.4,0.9c-0.3-0.1-0.6-0.1-0.9-0.2c-1.3-0.2-2.6,0.3-3.2,1.4
					c0,0-0.1,0.1-0.1,0.2c1.1-1,2.6-1.3,3.8-0.4c-0.4,0-0.9-0.1-1.3,0.1c-0.4,0.2-0.8,0.4-1.1,0.7c0.9-0.3,1.9-0.3,2.8,0.2
					c-0.3,0.1-0.5,0.4-0.7,0.6c-0.6,0.3-1.2,0.5-1.4,1.2c-0.1,0.4-0.5,0.8-0.7,1.1s-0.5,0.5-0.6,0.8c-0.1,0.4-0.2,0.6-0.3,0.9
					c-0.2,0.3-0.2,0.7-0.3,1.1c-0.1,0.2-0.2,0.4-0.2,0.6c-0.1,0.3,0,0.5-0.1,0.8c-0.2,1-0.1,2.3-0.1,3.4c0,1.2,0.5,2.8,1.2,3.7
					c0.8,1.2,2,1.8,3.4,1.9c0.7,0.1,1.5,0.2,2.2,0.2l0,0c0.8-0.1,1.5-0.1,2.2-0.2c1.4-0.1,2.6-0.7,3.4-1.9c0.7-1,1.1-2.5,1.2-3.7
					c0-1.1,0.1-2.4-0.1-3.4c-0.1-0.2,0-0.5-0.1-0.8c0-0.2-0.1-0.4-0.2-0.6c-0.1-0.4-0.1-0.7-0.3-1.1c-0.2-0.3-0.2-0.5-0.3-0.9
					c-0.1-0.4-0.4-0.6-0.6-0.8c-0.3-0.3-0.6-0.7-0.7-1.1c-0.2-0.7-0.8-0.9-1.4-1.2c-0.3-0.1-0.4-0.4-0.7-0.6
					c0.9-0.5,1.8-0.6,2.8-0.2c-0.3-0.3-0.7-0.5-1.1-0.7S354.4,8,353.9,8c1.2-0.9,2.7-0.7,3.8,0.4c0-0.1-0.1-0.1-0.1-0.2
					c-0.6-1.1-1.9-1.6-3.2-1.4c-0.3,0-0.6,0.1-0.9,0.2c-0.1-0.2,0.2-0.6,0.4-0.9c0.7-1.1,2.9-2,4.5-1.3c-0.1-0.2-0.5-0.4-0.7-0.5
					c-0.7-0.2-1.4-0.4-2.2-0.3c-0.3,0-1.3,0.4-1.3,0.4C354.5,3,357.6,1,358.5,1.2z"/>
				<path class="st0" d="M264.5,5.1c-2,0.5-2.9,0.7-3.9,0.8c-0.2,0-0.3,0-0.5,0c-0.2,0-0.3,0-0.5,0c-0.9-0.1-1.9-0.3-3.9-0.8
					c-2.9-0.8-8-1-11-0.1c0,0.6,0.1,1.2,0.2,1.8c0,0.1,0.2,0.1,0.3,0.1c0.5,0.2,0.5,0.7,0.6,1.1c0.3,1.2,0.6,2.3,1,3.5
					s1.2,2,2.4,2.3c1.3,0.3,2.7,0.5,4,0.3c1.9-0.2,3.4-1,4.3-2.7c0.5-1,1-2.1,1.5-3.1c0.1-0.2,0.3-0.5,0.5-0.6
					c0.2-0.1,0.3-0.1,0.5-0.1c0.2,0,0.3,0,0.5,0.1c0.2,0.1,0.4,0.4,0.5,0.6c0.5,1,0.9,2.1,1.5,3.1c0.9,1.7,2.4,2.5,4.3,2.7
					c1.4,0.2,2.7,0,4-0.3c1.3-0.3,2.1-1.1,2.4-2.3c0.4-1.1,0.7-2.3,1-3.5c0.1-0.4,0.1-0.9,0.6-1.1c0.1,0,0.3,0,0.3-0.1
					c0.1-0.6,0.2-1.2,0.2-1.8C272.6,4.1,267.5,4.3,264.5,5.1z"/>
				<g>
					<g id="eelQ8H.tif_98_">
						<path class="st0" d="M265.1,92.7c0.3,0,0.6,0,0.9,0h0.1c0.6,0.1,1.1,0.2,1.7,0.4s1.1,0.5,1.5,0.9c0.6,0.7,0.9,1.5,0.8,2.3
							c-0.1,1.2-0.7,2.2-1.3,3.1c-0.1,0.2-0.3,0.4-0.5,0.6c0.2,0.2,0.4,0.3,0.6,0.5c0.2,0.2,0.4,0.3,0.5,0.5c0.4,0.4,0.4,1,0,1.3
							c-0.3,0.3-0.7,0.7-1,1c-0.1,0.1-0.1,0.2-0.1,0.3c0.4,0.9,0.7,1.7,0.8,2.7c0.2,1.9-0.1,3.7-1,5.4c-0.6,1.2-1.5,2.2-2.5,3
							c-0.9,0.7-1.9,1.3-3.1,1.6c-1.4,0.4-2.8,0.6-4.3,0.3c-1.7-0.3-3.1-0.9-4.5-1.9c-1.2-0.9-2.1-2-2.7-3.3
							c-0.6-1.2-0.9-2.4-0.9-3.7c0-1.1,0.2-2.2,0.5-3.3c0.5-1.3,1.2-2.5,2.2-3.5c0.7-0.7,1.6-1.3,2.5-1.8c1.1-0.5,2.3-0.8,3.5-0.9
							c1.3-0.1,2.6,0.1,3.9,0.5c0.2,0.1,0.4,0.1,0.5-0.1c0.3-0.4,0.7-0.7,1.1-1.1c0.4-0.4,1-0.4,1.5,0c0.1,0.1,0.2,0.2,0.3,0.3
							c0.2,0.2,0.4,0.4,0.6,0.6c0.2-0.3,0.3-0.5,0.5-0.7c0.3-0.6,0.6-1.1,0.7-1.8c0.1-0.4,0-0.8-0.4-1c-0.3-0.2-0.6-0.3-1-0.4
							c-1-0.3-1.9-0.2-2.9,0.2c-1,0.5-2.1,0.9-3.1,1.4c-0.8,0.4-1.6,0.7-2.5,0.8s-1.7,0.1-2.5-0.2c-0.6-0.2-1.2-0.6-1.7-1
							c-0.3-0.3-0.4-0.6-0.3-1c0.1-0.4,0.4-0.6,0.8-0.6c0.4,0,0.6,0.1,0.9,0.3c0.3,0.2,0.6,0.4,0.9,0.5c0.7,0.3,1.5,0.2,2.2-0.1
							c1-0.4,2-0.9,3-1.3c0.9-0.4,1.8-0.8,2.8-1C264.7,92.7,264.9,92.7,265.1,92.7z"/>
					</g>
					<path class="st0" d="M255,91.6l-0.2,1.5c0,0.3,0.3,0.5,0.6,0.3l1.2-0.9l-0.9,1.2c-0.2,0.2,0,0.6,0.3,0.5l1.5-0.2l-1.4,0.6
						c-0.3,0.1-0.3,0.5,0,0.6l1.4,0.6l-2.3-0.2l1.2,0.9l-1.2-0.3c-0.2-0.1-0.5,0.1-0.4,0.4l0.2,1.7l-0.6-1.3c-0.1-0.3-0.5-0.3-0.6,0
						l-0.6,1.3l0.2-1.5c0-0.3-0.3-0.5-0.6-0.3l-1.2,0.9l0.9-1.2c0.2-0.2,0-0.6-0.3-0.5l-1.5,0.2l1.4-0.6c0.3-0.1,0.3-0.5,0-0.6
						l-1.4-0.6l1.5,0.2c0.3,0,0.5-0.3,0.3-0.5l-0.9-1.2l1.2,0.9c0.2,0.2,0.6,0,0.6-0.3l-0.2-1.5l0.6,1.3c0.1,0.3,0.5,0.3,0.6,0
						L255,91.6z"/>
				</g>
				<g>
					<path class="st0" d="M192.2,57.8c-0.5,1.7-0.6,3.5-0.4,5.3c0.1,0.5,0.2,1,0.4,1.6c0.2,0.7,0.5,1.3,0.9,1.9
						c0.8,1.1,1.8,1.8,3.1,2.3c1,0.4,2.1,0.4,3.2,0.6c0.3,0,0.6,0,0.9,0c0.6-0.1,1.2-0.1,1.8-0.2c1.4-0.3,2.7-0.8,3.7-1.8
						c1.2-1.2,1.7-2.6,1.9-4.2c0.1-1.2,0-2.4-0.2-3.6c-0.2-1.3-0.7-2.6-1.2-3.9c-0.1-0.3-0.3-0.7-0.4-1c0-0.1,0-0.2,0.1-0.2
						s0.2-0.1,0.3-0.1c0.2,0,0.3,0,0.5,0c0.5,0,0.5,0,0.5-0.5c0-0.4,0-0.8,0-1.2c0-0.3-0.1-0.4-0.4-0.4c-1.2,0-2.4,0-3.5,0
						c-0.5,0-0.6,0.1-0.6,0.6c0,0.4,0.1,0.7,0.2,1c0.3,0.6,0.6,1.2,0.9,1.8c0.2,0.5,0.4,1,0.5,1.5c0.2,1,0.5,2.1,0.7,3.1
						c0.2,1.2,0.2,2.4-0.2,3.6c-0.4,1.5-1.5,2.3-3,2.7c-0.8,0.2-1.6,0.3-2.5,0.3c-1.5-0.1-2.7-0.7-3.7-1.9c-0.4-0.5-0.8-1.1-1-1.7
						c-0.1-0.5-0.2-1.1-0.3-1.6c-0.3-1.9,0.1-3.7,0.8-5.5c0.3-0.9,0.7-1.7,1.2-2.5c0.2-0.3,0.3-0.7,0.3-1.1c0-0.3-0.1-0.4-0.4-0.4
						c-0.7,0-1.3,0-2,0c-0.6,0-1.3,0-1.9,0c-0.2,0-0.4,0.1-0.4,0.3c0,0.5,0,0.9,0,1.4c0,0.2,0.1,0.3,0.3,0.3c0.3,0,0.5,0,0.8,0
						s0.3,0.1,0.2,0.4c-0.3,0.6-0.6,1.2-0.8,1.9C192.5,57,192.4,57.4,192.2,57.8z M192.6,63.2c0.1-0.3,0.1-0.5,0.2-0.6
						c0.1-0.2,0.2-0.2,0.4-0.1c0.3,0.2,0.5,1,0.3,1.3c-0.1,0.2-0.4,0.3-0.5,0.2C192.9,63.7,192.8,63.4,192.6,63.2z M192.7,60.1
						c0-0.3,0-0.5,0.1-0.6c0-0.1,0.2-0.3,0.2-0.3c0.1,0,0.3,0.1,0.4,0.2c0.2,0.3,0.1,0.9-0.3,1.1c-0.1,0-0.2,0-0.2,0
						C192.9,60.4,192.8,60.2,192.7,60.1z M193.1,57.6c-0.1-0.5,0.2-0.9,0.7-1.1c0.1,0.1,0.1,0.1,0.2,0.2c0.2,0.3,0,1-0.3,1.2
						c-0.1,0.1-0.2,0.1-0.3,0.1C193.3,57.8,193.2,57.7,193.1,57.6z M193.6,65.1c0.1-0.1,0.1-0.2,0.2-0.2c0.2,0,0.4,0,0.5,0.1
						c0.2,0.2,0.3,0.4,0.4,0.7c0.1,0.2,0,0.3-0.1,0.4c-0.1,0-0.3,0.1-0.3,0C193.9,65.8,193.8,65.5,193.6,65.1z M195.3,67
						c-0.1-0.2-0.1-0.3,0.1-0.3c0.3-0.1,1,0.2,1.1,0.4v0.1c0,0.4-0.2,0.5-0.5,0.4C195.7,67.5,195.5,67.3,195.3,67z M198,68.3
						c-0.3-0.1-0.5-0.3-0.4-0.4c0.1-0.3,0.3-0.2,0.6-0.3c0.1,0,0.4,0.1,0.6,0.1c0.1,0,0.3,0.1,0.3,0.3c0,0.2-0.1,0.3-0.3,0.3
						C198.5,68.3,198.2,68.4,198,68.3z M200.5,68.4c-0.3-0.1-0.4-0.2-0.2-0.5c0-0.1,0.2-0.2,0.3-0.2c0.3,0,0.5-0.1,0.8,0
						c0.2,0,0.3,0.1,0.3,0.2c0,0.2-0.1,0.4-0.3,0.4c-0.1,0-0.3,0-0.4,0.1C200.7,68.5,200.6,68.5,200.5,68.4z M203,67.6
						c0-0.1,0-0.3,0.1-0.3c0.2-0.1,0.4-0.3,0.6-0.3c0.2-0.1,0.5,0,0.6,0.2c-0.2,0.4-0.6,0.6-1,0.6C203.2,67.8,203,67.7,203,67.6z
						 M205.1,65.9c0-0.1,0-0.2,0.1-0.3c0.2-0.2,0.4-0.4,0.6-0.6c0.1-0.1,0.4-0.1,0.4,0c0.1,0.1,0.1,0.3,0,0.5s-0.3,0.4-0.5,0.6
						c-0.1,0.1-0.3,0.2-0.3,0.1C205.3,66.1,205.2,66,205.1,65.9z M205.5,57.2c-0.1-0.3-0.1-0.6,0.3-0.8c0.4,0.3,0.6,0.6,0.6,1.1
						c0,0.2-0.2,0.4-0.3,0.3C205.7,57.7,205.6,57.5,205.5,57.2z M206.4,60.6c-0.3-0.2-0.4-0.8-0.3-1.1c0.1-0.1,0.2-0.2,0.4-0.3
						c0,0,0.2,0.1,0.2,0.2c0.1,0.1,0.1,0.3,0.1,0.5c-0.1,0.2-0.1,0.4-0.2,0.6C206.6,60.7,206.5,60.7,206.4,60.6z M206.2,63.3
						c-0.2-0.3-0.1-1,0.2-1.3c0.1-0.1,0.2-0.1,0.3,0c0.1,0,0.2,0.1,0.2,0.2s0,0.2,0,0.2c0,0.4,0,0.6-0.2,0.9
						C206.6,63.6,206.4,63.6,206.2,63.3z"/>
					<path class="st0" d="M192.8,62.6c-0.1,0.2-0.1,0.4-0.2,0.6c0.1,0.2,0.2,0.5,0.4,0.7c0.1,0.1,0.4,0,0.5-0.2
						c0.1-0.3,0-1.1-0.3-1.3C193.1,62.4,192.9,62.4,192.8,62.6z"/>
					<path class="st0" d="M192.9,59.5c-0.1,0.2-0.1,0.4-0.1,0.6c0,0.1,0.1,0.3,0.2,0.5h0.2c0.3-0.2,0.5-0.8,0.3-1.1
						c-0.1-0.1-0.2-0.2-0.4-0.2C193,59.2,192.9,59.3,192.9,59.5z"/>
					<path class="st0" d="M193.8,56.4c-0.5,0.2-0.7,0.7-0.7,1.1c0,0.1,0.1,0.2,0.2,0.3c0.1,0,0.2,0,0.3-0.1c0.3-0.2,0.5-0.8,0.3-1.2
						C193.9,56.5,193.9,56.5,193.8,56.4z"/>
					<path class="st0" d="M193.8,64.9c-0.1,0-0.1,0.2-0.2,0.2c0.1,0.4,0.3,0.7,0.6,0.9c0.1,0.1,0.3,0,0.3,0c0.1-0.1,0.2-0.2,0.1-0.4
						c-0.1-0.2-0.3-0.5-0.4-0.7C194.2,64.9,193.9,64.8,193.8,64.9z"/>
					<path class="st0" d="M195.4,66.7c-0.2,0.1-0.2,0.2-0.1,0.3c0.2,0.3,0.4,0.5,0.7,0.6s0.5,0,0.5-0.4v-0.1
						C196.4,66.8,195.7,66.6,195.4,66.7z"/>
					<path class="st0" d="M197.6,67.9c0,0.2,0.1,0.4,0.4,0.4c0.2,0,0.5,0,0.7,0s0.3-0.1,0.3-0.3c0-0.2-0.1-0.3-0.3-0.3
						c-0.2-0.1-0.4-0.1-0.6-0.1C197.9,67.6,197.7,67.6,197.6,67.9z"/>
					<path class="st0" d="M199.4,53.7c-0.1,1.1-0.1,2.3,0.1,3.4c0.2,1,0.6,2,1.2,2.9c0.6,1,1.5,1.7,2.6,2.1c0.3,0.1,0.6,0.2,0.9,0.3
						c0.3,0.1,0.6-0.1,0.6-0.4c-0.1-0.7-0.1-1.4-0.2-2.1c0-0.2-0.2-0.4-0.4-0.6c-0.7-0.6-1.3-1.3-1.7-2.2c-0.3-0.7-0.5-1.5-0.5-2.3
						c-0.1-1.7,0.1-3.3,0.7-4.8c0.3-0.8,0.7-1.6,1.1-2.4c0.1-0.2,0.3-0.4,0.4-0.6c0.2-0.3,0.2-0.7,0.2-1.1c0-0.2-0.2-0.2-0.4-0.2
						c-0.3,0-0.6,0-1,0s-0.7,0-1.1,0l0,0c-0.6,0-1.2,0-1.9,0c-0.3,0-0.4,0.1-0.4,0.4c0,0.4,0,0.8,0,1.2c0,0.3,0.1,0.4,0.4,0.4
						c0.3,0,0.5,0,0.8,0c0.2,0,0.2,0.1,0.2,0.3c-0.2,0.5-0.5,1.1-0.7,1.6c-0.2,0.4-0.4,0.9-0.4,1.3C199.7,52,199.4,52.8,199.4,53.7z
						 M200.2,53.7c0-0.3,0.1-0.6,0.3-0.8c0.1-0.2,0.3-0.2,0.4,0c0.2,0.3,0.1,1.1-0.2,1.3C200.5,54.1,200.2,54,200.2,53.7z
						 M200.7,57.6c-0.5-0.4-0.5-0.8-0.4-1.3c0-0.2,0.2-0.3,0.4-0.3s0.2,0.1,0.3,0.3c0,0.1,0.1,0.2,0.1,0.3
						C201.2,57.1,201.1,57.3,200.7,57.6z M200.6,51.1c0.1-0.3,0.2-0.6,0.4-0.9c0.1-0.1,0.3-0.1,0.4-0.1c0.1,0,0.1,0.2,0.1,0.3
						c0,0.3-0.1,0.6-0.3,0.9c-0.1,0.1-0.2,0.2-0.3,0.1C200.8,51.3,200.7,51.2,200.6,51.1z M202,59.6c-0.4,0-0.9-0.7-0.8-1
						c0-0.1,0-0.1,0.1-0.1s0.2-0.1,0.2,0c0.4,0.2,0.7,0.4,0.8,0.9C202.3,59.5,202.2,59.6,202,59.6z M202.7,60.4
						c0.1-0.1,0.2-0.2,0.3-0.2c0.3-0.1,1,0.2,1.1,0.5c0,0.1,0,0.2-0.1,0.4c0,0-0.2,0.1-0.2,0C203.3,61.1,203,60.8,202.7,60.4z"/>
					<path class="st0" d="M200.5,52.9c-0.2,0.2-0.3,0.5-0.3,0.8s0.3,0.4,0.5,0.5c0.3-0.3,0.4-1,0.2-1.3
						C200.8,52.7,200.6,52.7,200.5,52.9z"/>
					<path class="st0" d="M200.2,68c-0.1,0.2,0,0.4,0.2,0.5c0.1,0,0.3,0,0.4,0c0.2,0,0.3,0,0.4-0.1c0.2-0.1,0.3-0.2,0.3-0.4
						c0-0.2-0.2-0.2-0.3-0.2c-0.3,0-0.5,0-0.8,0C200.4,67.8,200.3,67.9,200.2,68z"/>
					<path class="st0" d="M200.2,56.3c-0.1,0.5-0.1,0.9,0.4,1.3c0.4-0.3,0.5-0.5,0.4-1c0-0.1-0.1-0.2-0.1-0.3
						c-0.1-0.1-0.1-0.3-0.3-0.3C200.4,56,200.3,56.1,200.2,56.3z"/>
					<path class="st0" d="M201,50.2c-0.2,0.3-0.3,0.6-0.4,0.9c0.1,0.1,0.2,0.2,0.3,0.3c0.2,0.1,0.3,0,0.3-0.1
						c0.2-0.3,0.3-0.6,0.3-0.9c0-0.1-0.1-0.3-0.1-0.3C201.3,50.1,201,50.1,201,50.2z"/>
					<path class="st0" d="M201.2,58.6c-0.1,0.4,0.4,1,0.8,1c0.2,0,0.3-0.1,0.3-0.4c-0.1-0.4-0.4-0.7-0.8-0.9c-0.1,0-0.1,0-0.2,0
						C201.3,58.5,201.2,58.5,201.2,58.6z"/>
					<path class="st0" d="M203,60.2c-0.1,0-0.2,0.1-0.3,0.2c0.3,0.4,0.6,0.7,1.1,0.8c0.1,0,0.2,0,0.2,0c0.1-0.1,0.1-0.3,0.1-0.4
						C204,60.5,203.4,60.1,203,60.2z"/>
					<path class="st0" d="M203.1,67.3c-0.1,0.1-0.2,0.3-0.1,0.3c0.1,0.1,0.2,0.2,0.4,0.2c0.4,0,0.8-0.2,1-0.6
						c-0.2-0.2-0.4-0.3-0.6-0.2C203.5,67,203.3,67.1,203.1,67.3z"/>
					<path class="st0" d="M205.2,65.6c0,0.1-0.1,0.1-0.1,0.3c0.1,0.1,0.1,0.3,0.2,0.3c0.1,0,0.3,0,0.3-0.1c0.2-0.2,0.4-0.4,0.5-0.6
						c0.1-0.1,0-0.3,0-0.5c0,0-0.3,0-0.4,0C205.6,65.2,205.4,65.4,205.2,65.6z"/>
					<path class="st0" d="M205.8,56.4c-0.3,0.2-0.3,0.5-0.3,0.8c0.1,0.3,0.2,0.5,0.5,0.6c0.2,0.1,0.3-0.1,0.3-0.3
						C206.3,57.1,206.2,56.7,205.8,56.4z"/>
					<path class="st0" d="M206.1,59.5c-0.2,0.3,0,0.9,0.3,1.1c0.1,0.1,0.2,0.1,0.3,0c0.1-0.2,0.1-0.4,0.2-0.6c0-0.2-0.1-0.4-0.1-0.5
						s-0.2-0.3-0.2-0.2C206.3,59.2,206.2,59.3,206.1,59.5z"/>
					<path class="st0" d="M206.4,62.1c-0.3,0.2-0.3,1-0.2,1.3s0.3,0.3,0.5,0c0.2-0.2,0.3-0.5,0.2-0.9v-0.2c0-0.1-0.1-0.2-0.2-0.2
						C206.7,62,206.5,62,206.4,62.1z"/>
					<path class="st0" d="M208.4,60.5c-0.3,0.2-0.2,2.1,0.1,2.2c0.1,0,0.2,0,0.2,0c0.4-0.1,0.8-0.1,1.3-0.2c0.8-0.2,1.5-0.5,2.2-0.8
						c1-0.5,1.8-1.3,2.3-2.3c0.3-0.5,0.4-1.1,0.6-1.7c0.4-1.8,0.2-3.6-0.1-5.4c-0.3-1.3-0.7-2.5-1.2-3.7c0-0.1-0.1-0.2-0.1-0.4
						c-0.1-0.2,0-0.4,0.3-0.4s0.6,0,0.8,0s0.3-0.1,0.3-0.2c0-0.5,0-1,0-1.6c0-0.2-0.1-0.2-0.3-0.2c-0.6,0-1.3,0-1.9,0
						c-0.6,0-1.2,0-1.9,0c-0.4,0-0.4,0.1-0.5,0.5c-0.1,0.6,0.2,1,0.5,1.5c0.2,0.4,0.4,0.8,0.6,1.3c0.2,0.4,0.3,0.8,0.4,1.2
						c0.5,1.7,0.9,3.5,0.9,5.4c0,0.9-0.2,1.7-0.5,2.5c-0.2,0.5-0.5,0.9-0.9,1.2c-0.7,0.6-1.6,1-2.6,1.1
						C208.6,60.4,208.5,60.4,208.4,60.5z M210.4,61.2c0.2-0.5,0.6-0.6,1-0.7c0.1,0,0.3,0.1,0.3,0.2s0,0.2-0.1,0.3
						c-0.2,0.2-0.5,0.4-0.8,0.4C210.7,61.4,210.5,61.4,210.4,61.2z M212.8,59.7c-0.1-0.1-0.2-0.3-0.2-0.4c0-0.2,0.2-0.3,0.3-0.4
						c0.2-0.1,0.3-0.3,0.5-0.3c0.3,0,0.5,0.2,0.4,0.4c-0.1,0.3-0.3,0.6-0.7,0.8C213.1,59.8,212.9,59.8,212.8,59.7z M212.9,50.4
						c0.1-0.1,0.1-0.2,0.2-0.3c0.1,0,0.3,0,0.3,0c0.3,0.3,0.5,0.6,0.4,1c0,0.1-0.1,0.3-0.2,0.3c-0.1,0.1-0.3,0.1-0.4-0.1
						C213.1,51,213.1,50.7,212.9,50.4z M213.5,53.4L213.5,53.4c0.1-0.2,0.1-0.3,0.1-0.4s0.1-0.2,0.2-0.2c0.1,0,0.3,0,0.4,0.2
						c0.1,0.3,0.2,0.7,0.1,1c-0.1,0.2-0.3,0.3-0.5,0.1C213.7,53.9,213.6,53.7,213.5,53.4z M213.7,56.8c-0.1-0.5,0-0.9,0.5-1.3
						c0.1,0.1,0.3,0.2,0.3,0.3c0.1,0.4,0.1,0.8-0.2,1.1c-0.1,0.1-0.2,0.2-0.2,0.2C213.9,57,213.7,56.9,213.7,56.8z"/>
					<path class="st0" d="M211.5,60.5c-0.4,0.1-0.8,0.2-1,0.7c0.1,0.2,0.3,0.2,0.5,0.2c0.3,0,0.6-0.2,0.8-0.4
						c0.1-0.1,0.1-0.2,0.1-0.3C211.7,60.6,211.6,60.5,211.5,60.5z"/>
					<path class="st0" d="M212.7,59.3c0,0.1,0.1,0.3,0.2,0.4c0,0.1,0.2,0.1,0.3,0c0.3-0.2,0.5-0.4,0.7-0.8c0.1-0.3,0-0.4-0.4-0.4
						c-0.1,0.1-0.3,0.2-0.5,0.3C212.8,59,212.7,59.2,212.7,59.3z"/>
					<path class="st0" d="M213.2,50.1c-0.1,0.1-0.1,0.2-0.2,0.3c0.1,0.3,0.2,0.6,0.3,0.9c0.1,0.2,0.3,0.2,0.4,0.1
						c0.1,0,0.2-0.2,0.2-0.3c0-0.4-0.2-0.7-0.4-1C213.4,50.1,213.2,50.1,213.2,50.1z"/>
					<path class="st0" d="M213.6,53.4C213.5,53.4,213.5,53.4,213.6,53.4c0.1,0.2,0.1,0.5,0.3,0.6c0.2,0.2,0.4,0.1,0.5-0.1
						c0.1-0.4,0.1-0.7-0.1-1c-0.1-0.2-0.3-0.2-0.4-0.2c-0.1,0-0.2,0.1-0.2,0.2C213.6,53.2,213.6,53.3,213.6,53.4z"/>
					<path class="st0" d="M214.1,55.5c-0.4,0.4-0.6,0.8-0.5,1.3c0,0.1,0.2,0.2,0.4,0.3c0,0,0.2-0.1,0.2-0.2c0.3-0.3,0.2-0.7,0.2-1.1
						C214.5,55.7,214.3,55.6,214.1,55.5z"/>
				</g>
				<g id="FGoKul.tif_4_">
					<path class="st0" d="M89.5-40.5c0-0.2,0-0.5,0-0.7v-0.1c0.1-0.5,0.3-1,0.6-1.4c0.6-0.8,1.3-1.3,2.1-1.9
						c0.1-0.1,0.1-0.1,0.2-0.2c0.7-1,1.4-2,2.5-2.8s2.3-1.2,3.6-0.6c1.2,0.5,2.1,1.3,2.3,2.6c0.1,1.1,0.2,2.2,0.4,3.2
						c0.1,0.6,0.1,1.1,0.2,1.7c0.1-0.1,0.1-0.1,0.1-0.2c0.1-1.2,0.2-2.5,0.3-3.7c0-0.4,0-0.9,0.2-1.3c0.5-1.1,1.4-1.9,2.5-2.5
						c0.4-0.2,0.9-0.4,1.3-0.5c0.3,0,0.5,0,0.8,0c0,0,0,0,0.1,0c0.7,0.1,1.2,0.4,1.7,0.8c0.5,0.4,0.9,1,1.3,1.6
						c0.2,0.3,0.5,0.6,0.8,0.9c0.5,0.4,1,0.6,1.5,1c0.7,0.5,1.1,1.1,1.3,1.9c0.1,0.4,0,0.9-0.1,1.3c-0.1,0.7-0.3,1.4-0.7,1.9
						c-1,1.1-2.2,1.8-3.6,2.1c-0.8,0.2-1.7,0.3-2.6,0.4c-0.5,0.1-0.9,0.1-1.4,0.2v0.1c0.2,0,0.5,0,0.7,0c1.5,0,2.9,0,4.4,0.1
						c0.9,0,1.7,0.3,2.4,0.8c0.8,0.5,1.3,1.3,1.4,2.2c0.1,0.7,0,1.4-0.2,2.1c-0.2,0.6-0.4,1.2-1,1.5c-0.1,0.1-0.2,0.2-0.3,0.3
						c-0.6,0.6-1,1.4-1.4,2.2c-0.3,0.6-0.8,1.1-1.3,1.5c-1.1,0.8-2.4,0.7-3.4,0.1s-1.8-1.5-2.4-2.5c-0.2-0.3-0.3-0.6-0.4-0.9
						s-0.2-0.7-0.2-1c-0.2-0.6-0.3-1.1-0.5-1.7c0,0,0,0-0.1,0c0,0.2-0.1,0.4-0.1,0.6c0,0.8,0,1.6,0.1,2.4c0.1,1.1,0.4,2.1,0.9,3.1
						c0.3,0.5,0.7,0.9,1.1,1.3c0.4,0.4-0.5,1.4-0.7,1.2c-0.6-0.3-1.1-0.7-1.5-1.3c-0.8-1.1-1.3-2.4-1.3-3.8s0.1-2.7,0.1-4.1
						c0-0.1,0-0.1,0-0.2c-0.3,0.1-0.4,0.2-0.5,0.5c-0.2,0.9-0.4,1.9-0.5,2.8c-0.2,0.8-0.3,1.7-0.8,2.4c-0.5,0.7-1.2,1.3-2.1,1.5
						c-0.7,0.2-1.5,0-2.2-0.1c-0.5-0.1-1-0.3-1.3-0.7c-0.6-0.6-1.1-1.2-1.4-1.9c-0.3-0.5-0.5-1-1-1.4c-0.1-0.1-0.2-0.2-0.3-0.3
						c-0.5-0.5-1-1.1-1.2-1.7c0-0.1,0-0.3,0-0.4c0-0.1,0-0.2,0-0.3c0.1-0.7,0.1-1.4,0.4-2c0.8-1.3,1.9-2.2,3.5-2.3
						c1-0.1,1.9-0.1,2.9-0.1c0.4,0,0.8-0.1,1.3-0.1c0.1,0,0.3,0,0.4-0.2c-0.2,0-0.5-0.1-0.7-0.1c-1.1-0.1-2.2-0.2-3.3-0.4
						c-1-0.1-2-0.4-2.9-0.9C90.2-38.8,89.5-39.4,89.5-40.5C89.5-40.4,89.5-40.5,89.5-40.5z"/>
				</g>
				<path class="st0" d="M351.4,117.9c-0.6,0-1.3-0.1-1.9-0.2c-0.4-0.1-0.7-0.3-0.6-0.7c0-0.4-0.2-0.7-0.5-0.8
					c-0.1,0-0.1-0.1-0.2-0.2c0.2,0,0.4,0.1,0.6,0.1c-0.1-1.3-0.1-2.6-0.2-4c-0.1,0.1-0.2,0.2-0.4,0.3c0.1-0.1,0.1-0.2,0.2-0.3
					c-0.1,0-0.2,0-0.4,0.1c0.1-0.1,0.2-0.2,0.4-0.3c-0.2,0-0.3,0-0.5,0c0.2-0.1,0.3-0.1,0.3-0.1c-1-0.5-2.1-1-3.1-1.5
					c-0.1,0-0.3,0-0.4,0c-0.2,0.1-0.4,0.2-0.7,0.3c0.2-0.2,0.4-0.3,0.6-0.5c-1-0.7-1.9-1.6-2.4-2.7c-0.2,0.2-0.4,0.3-0.6,0.4l0,0
					c0.1-0.1,0.2-0.3,0.4-0.5c-0.3,0-0.4,0-0.6,0l0,0c0.2-0.1,0.5-0.1,0.7-0.2c-0.5-1.5-0.7-3.1,0-4.6c-0.2-0.1-0.4-0.3-0.7-0.4
					c0.2,0,0.3,0.1,0.5,0.1c0-0.1-0.1-0.2-0.1-0.3c0.1,0.1,0.2,0.1,0.3,0.2c0-0.1,0-0.2-0.1-0.4c0.2,0.3,0.3,0.4,0.4,0.6
					c1.3-0.5,1.8-0.2,2.4,1.5c0.2-0.1,0.4-0.3,0.6-0.4c0,0,0,0,0.1,0c-0.1,0.1-0.2,0.3-0.3,0.4c0.2,0,0.4,0.1,0.7,0.1
					c-0.4,0.1-0.6,0.1-0.9,0.2c0.1,1.5,0.3,3,1.6,4.1c0.1-0.2,0.3-0.4,0.4-0.6c0,0.1,0,0.1,0,0.2c-0.2,0.7-0.2,0.7,0.5,1
					c0.4,0.1,0.8,0.2,1.2,0.3c0-1.3,0-2.6,0-3.9c-0.3,0-0.5,0-0.8,0c0.2-0.1,0.2-0.1,0.3-0.2c-0.1-0.1-0.2-0.1-0.3-0.1
					c0.1,0,0.2,0,0.4,0c-0.1-0.1-0.2-0.2-0.3-0.3c0.2,0.1,0.4,0.1,0.7,0.2c-0.1-1.6-0.2-3.2-0.2-4.8c-0.3,0-0.5,0-0.8,0l0,0
					c0.2-0.1,0.4-0.1,0.6-0.2c-0.1-0.1-0.3-0.2-0.5-0.4c0.2,0.1,0.4,0.1,0.5,0.1c0-1.4,0-2.7,0-4.1c-0.2,0-0.5,0-0.8,0
					c0.2-0.1,0.3-0.1,0.4-0.2c-0.1-0.1-0.1-0.1-0.2-0.2c0.1,0,0.2,0,0.3,0c0,0,0,0,0.1-0.1c-0.1,0-0.2-0.1-0.3-0.1
					c0,0,0-0.1,0.1-0.1c0.2,0.1,0.3,0.1,0.5,0.2c0.2-1.1,0.2-2.3,1.3-3.1c-0.2-0.2-0.4-0.4-0.6-0.6l0,0c0.2,0.1,0.4,0.2,0.6,0.4
					c0-0.2,0-0.4,0-0.7c0.1,0.3,0.2,0.6,0.2,0.8c1.8-0.3,2.2,0.2,2.9,1.2c0.2-0.1,0.4-0.2,0.6-0.3c0,0,0,0,0,0.1
					c-0.2,0.1-0.4,0.3-0.5,0.4c0.2,1.4,0.5,2.8,0.7,4.2c0.2-0.1,0.4-0.2,0.7-0.3c-0.2,0.2-0.3,0.2-0.4,0.3c0.1,0,0.2,0,0.3,0.1
					c-0.1,0.1-0.2,0.1-0.3,0.2c0.2,0.1,0.3,0.1,0.4,0.2l0,0c-0.2,0-0.5,0-0.7,0c0,1.5,0,3.1,0,4.6c0.3,0,0.5,0,0.8,0
					c-0.3,0.1-0.6,0.2-0.8,0.3c0,0.8,0,1.6,0,2.4c2.3,0,3.8-1.8,3.9-4.4c-0.2-0.1-0.5-0.2-0.7-0.3c0,0,0,0,0-0.1
					c0.2,0,0.5,0,0.8,0.1c0.1-0.2,0.1-0.5,0.2-0.7c0.1-0.3,0.2-0.7,0.4-1c0.6-0.8,1.7-0.8,2.2,0c0.3,0.5,0.4,1.1,0.6,1.8h0.1
					c0.1,0.1,0.1,0.3,0.2,0.4c-0.1,0-0.2,0-0.4,0c-0.1,1.8-0.8,3.4-2.2,4.6c0.2,0.2,0.3,0.4,0.5,0.5l0,0c-0.1-0.1-0.2-0.1-0.3-0.2
					c0,0.1,0,0.2,0.1,0.4c-0.1-0.1-0.2-0.2-0.3-0.3c0,0.1,0,0.2,0,0.4c0,0,0,0-0.1,0c0-0.1-0.1-0.3-0.1-0.4
					c-1.1,0.6-2.1,1.2-3.2,1.7c0.1,0.1,0.1,0.3,0.2,0.5l0,0c-0.1-0.1-0.3-0.3-0.4-0.5c-0.1,0.2-0.1,0.4-0.2,0.6c0,0,0,0-0.1,0
					c0-0.2,0-0.4,0-0.6c-0.3,0.1-0.6,0.1-0.9,0.2c-0.1,0-0.2,0.2-0.2,0.3c0,0.7,0,1.3,0,2c0,0.3,0.1,0.5,0.5,0.5c0.1,0,0.2,0,0.3,0
					v0.1c-0.7,0.2-0.7,0.2-0.7,0.9c0,1.5,0,3,0,4.5c0.2,0,0.5,0.1,0.8,0.1c0,0,0,0,0,0.1c-0.2,0-0.3,0-0.6,0.1
					c0.1,0.2,0.2,0.3,0.4,0.5c-0.3-0.1-0.4-0.2-0.6-0.3c0,0.2-0.1,0.5-0.1,0.7c0,0.4-0.2,0.6-0.6,0.7
					C352.4,117.8,351.9,117.9,351.4,117.9"/>
				<g id="_x32_55H6N.tif_5_">
					<path class="st0" d="M390.3-31.6c0-0.3,0.1-0.5,0.1-0.8c0.3-1.6,0.9-3.1,1.9-4.4c0,0,0,0,0.1-0.1c0.4,1.6,1.2,3.1,2.2,4.4
						c-0.5,0-0.9,0-1.4,0c0,0,0,0.1,0.1,0.1c0.5,1,1.3,1.7,2.3,2.3c0.9,0.5,2.2,0.1,2.8-0.8c0.3-0.5,0.5-1.1,0.6-1.7
						c0.1-0.6,0.1-1.3,0.2-1.9c0.1-2.1,0.1-4.2,0.2-6.2c0-0.5,0-1,0-1.5c0,0,0-0.1,0-0.2c-0.4,0-0.7,0-1.1,0c-1,0-1.9,0-2.9-0.1
						c-0.1,0-0.1,0-0.1-0.1c-0.4-0.6-0.8-1.2-1.2-1.8c0,0,0,0,0-0.1c0.9,0,1.8,0,2.7,0c0.9,0,1.8,0,2.7,0c0-0.3,0-0.5,0-0.8
						s0-0.5,0-0.8c0-0.1,0-0.1-0.1-0.2c-1-0.5-1.5-1.3-1.5-2.4c0-1.4,1.2-3.6,2.7-3.6c1.6,0,2.8,2.2,2.7,3.7c0,1-0.5,1.8-1.5,2.3
						l-0.1,0.1c0,0.6,0,1.1,0,1.7c1.8,0,3.6,0,5.5,0c0,0.1-0.1,0.1-0.1,0.1c-0.4,0.6-0.8,1.2-1.2,1.7c-0.1,0.1-0.1,0.1-0.2,0.1
						c-1.2,0-2.5,0-3.7,0c-0.1,0-0.1,0-0.2,0c0,0.2,0,0.3,0,0.5c0.1,2.4,0.1,4.8,0.2,7.2c0,0.7,0,1.4,0,2.1c0,0.5,0.1,1,0.3,1.5
						c0.4,0.9,1.2,1.4,2.2,1.3c1.2-0.1,2.1-0.6,2.8-1.5c0.2-0.3,0.4-0.5,0.6-0.8c0-0.1,0.1-0.1,0.1-0.2c-0.5-0.1-1-0.2-1.6-0.3
						c1.4-1.1,2.2-2.6,2.8-4.2c1.2,1.1,2,4.2,1.5,5.6c-0.4-0.2-0.8-0.4-1.2-0.6c-0.1,0.6-0.3,1.2-0.5,1.8c-0.6,1.2-1.5,2.1-2.7,2.8
						c-0.8,0.5-1.6,0.8-2.5,1c-0.4,0.1-0.8,0.3-1.2,0.6c-0.9,0.6-1.5,1.3-2,2.3l0,0v-0.1c-0.6-1.3-1.6-2.2-2.9-2.8
						c-0.2-0.1-0.3-0.1-0.5-0.2c-1.5-0.6-2.9-1.4-4-2.6c-0.8-0.9-1.4-1.8-1.6-2.9l0,0c-0.4,0.3-0.9,0.6-1.3,0.9
						C390.3-31.3,390.3-31.4,390.3-31.6z M402.2-48.6c0-0.8-0.6-1.4-1.4-1.4s-1.5,0.6-1.5,1.4s0.7,1.4,1.5,1.4
						C401.5-47.2,402.2-47.8,402.2-48.6z"/>
				</g>
				<g>
					<g id="vEoZTv.tif_96_">
						<path class="st0" d="M110.9,63.6C110.9,63.7,110.8,63.7,110.9,63.6c-0.1,0.1-0.1,0.1-0.2,0.2c0-0.1,0-0.2,0-0.3
							c0-0.5,0.5-4.2-2.5-6.4c-0.1-0.1-0.2-0.1-0.3-0.3c0.5,3.4-0.1,6.5-1.7,9.5c0,0,0,0-0.1,0c0-0.1,0-0.2,0-0.2
							c-0.1-1.9-0.4-3.7-0.9-5.6c-0.3-1.1-0.7-2.1-1.4-3c-0.8-1.1-1.8-1.3-1.8-1.3s-0.2,0.1-0.3,0.3c-0.4,0.7-0.6,1.4-0.8,2.2
							c-0.5,1.8-0.8,3.7-1.1,5.6c-0.3,2.3-0.2,4-0.1,6.3c0,0.4,0.1,1.3,0.1,1.3h-4.7c0,0,0.4-5.7,1.2-8.5c0.9-3.2,2.4-6,2.6-6.3
							c0-0.1,1.5-3,1.5-3l-1.6-0.6c0,0-3.3-1.3-7.6,1.9c0-0.4,0.9-3.8,3.5-5.9c2-1.6,3.8-1.3,4.1-1.3c-0.2-1.3-1-2.1-2-3
							c0.2-0.1,3.6-0.1,5.1,0.8c0.4,0.3,0.5,0.3,0.9-0.1c1.4-1.4,2.9-1.6,3-1.6h0.1c0,0.1-0.7,1.6-0.6,2.5c0,0.1,0,0.2,0.2,0.3
							c0.2,0,0.4,0.1,0.7,0.1c1,0.1,3.8,0.9,5.8,3.9c0.1,0.1,0.2,0.4,0.2,0.4c-1-0.2-2-0.3-3-0.1c0.4,0.4,2.5,2.4,2.9,5
							C112.2,56.9,112.7,59.8,110.9,63.6z"/>
					</g>
					<ellipse class="st0" cx="99.2" cy="54.8" rx="1.4" ry="1.4"/>
					<ellipse class="st0" cx="102" cy="56.8" rx="1.2" ry="1.2"/>
				</g>
				<g id="mvIV5B.tif_4_">
					<path class="st0" d="M349.5,203.5c0-1,0-2,0-3c0-1.2,0.4-1.6,1.6-1.6s1.7,0.4,1.7,1.7c0,1,0,1.9,0,2.9c0,0,0.1,0.1,0.3,0.2
						c0-0.4,0.1-0.7,0.1-1.1c0-0.7,0-1.4,0-2.1c0-1.4,1.4-2.2,2.6-1.4c0.4,0.2,0.6,0.8,0.7,1.2c0.1,1,0,2.1,0.1,3.1
						c0,0.1,0.1,0.1,0.2,0.4c0.1-0.5,0.1-0.8,0.1-1.1c0-2.2,0-4.3,0-6.5c0-0.5,0.4-1.2,0.9-1.5c0.4-0.2,1.2-0.2,1.6,0.1
						c0.4,0.2,0.7,0.8,0.7,1.3c0,5.6,0.1,11.3,0,16.9c0,2.6-2.3,4.9-5,5c-2,0.1-4,0.2-6,0c-3.3-0.4-5.1-2.6-6.2-5.4
						c-0.4-1.1-0.5-2.2-0.6-3.4c-0.1-2.1,0-4.2,0-6.3c1.8-0.2,3.2,1.1,3.2,2.9c0,0.9,0,1.9,0,2.8c0.1,0,0.2,0,0.3,0
						c0-0.3,0.1-0.6,0.1-0.9c0-4.6,0-9.1,0-13.7c0-1.1,0.5-1.7,1.3-1.8c1.1-0.2,1.9,0.6,1.9,1.8c0,2.8,0,5.7,0,8.5c0,0.3,0,0.7,0,1
						C349.2,203.5,349.4,203.5,349.5,203.5z"/>
				</g>
				<g id="JeGfOL.tif_6_">
					<path class="st0" d="M406.3,141.8c-2.5,2.4-4.9,4.8-7.4,7.2c-2.4-2.4-4.9-4.8-7.2-7.1c-1.1,1.1-2.2,2.2-3.4,3.3
						c2.4,2.3,4.8,4.7,7.3,7.2c-2.4,2.4-4.8,4.7-7.2,7c1.1,1.1,2.2,2.1,3.4,3.3c2.4-2.3,4.8-4.7,7.3-7.2c2.4,2.3,4.8,4.7,7.2,7
						c1.1-1,2.1-2.1,3.3-3.2c-2.4-2.3-4.8-4.7-7.4-7.2c2.5-2.4,4.9-4.8,7.3-7.2C408.5,144,407.5,143,406.3,141.8z"/>
				</g>
				<path class="st0" d="M8.8,268.6C8.8,268.7,8.7,268.7,8.8,268.6c-0.2,0.9-0.3,1-1.2,1c-2.2,0-4.5,0-6.7,0c-0.3,0-0.6-0.1-0.9-0.1
					s-0.4,0.1-0.4,0.3c-0.1,0.9,0.1,1.7,1,2.1c0.4,0.2,1.2,0.4,1.7,0.5c0.8,0.1,1.3,0.3,2.1,0.1c0.5-0.1,0.6-0.4,0.5-0.8
					c-0.1-0.3-0.2-0.5-0.3-0.8c0-0.2,0-0.5,0.1-0.6c0.2-0.1,0.5-0.1,0.6,0c0.7,0.4,1,1,1,1.8c0,0.7-0.4,1.2-1.1,1.4
					c-0.6,0.2-2.1,0.4-3.4,0.1c-1.5-0.4-2.1-0.7-2.7-1c-0.6-0.4-1.1-1.2-1.2-1.9c-0.1-1,0-2,0.5-2.9c0.4-0.7,0.2-1.4,0.2-2
					c-0.1-0.9-0.3-2.1-0.3-3c0-1.2,0-2,0.2-3.2c0.1-0.7,0.5-1.3,0.8-2c0.5-1,1.1-2,1.9-2.8c0.5-0.6,1.2-0.9,1.9-1.1
					c1.2-0.3,2-1.1,2.7-2c0.2-0.3,0.4-0.6,0.3-1c0-1.2,0.4-2.2,1.2-3.1c0.2-0.2,0.4-0.4,0.6-0.5c0.8-0.2,1-0.9,1.4-1.5
					c0.1-0.3,0.3-0.5,0.5-0.8c0.2-0.2,0.5-0.6,0.7-0.4c0.1,0.2,0.3,0.6,0.3,0.8c0.1,0.5,0.2,0.7,0.1,1.2c0,0.4,0.2,0.6,0.6,0.7
					c0.5,0.1,1,0.4,1.3,0.9c0.2,0.3,0.5,0.6,0.8,0.6c0.7,0.2,0.6,0.5,0.5,1c-0.2,0.7-0.6,1.2-1.3,1.5c-0.6,0.3-0.8,0.7-0.7,1.4
					c0.2,1.1,0.2,2.1,0.3,3.2c0.1,1-0.3,2-1,2.8c-0.8,1-1.2,2.1-1.2,3.4c0,1.4,0,2.9,0,4.3c0,0.6,0.1,1.1,0.7,1.2
					c0.2,0,1,0.3,1.1,0.5s0.2,0.9-0.1,1c-0.1,0-0.4,0.1-0.8,0.1c-0.8,0.1-1.6,0.2-2.2-0.4C9,268.8,8.9,268.7,8.8,268.6z M8.5,268.2
					c-0.2-0.5-0.4-1.2-0.5-1.9c-0.2,0.4-0.6,1.1-1,1.5C7.5,267.9,8,268,8.5,268.2z"/>
				<g id="FGoKul.tif_3_">
					<path class="st0" d="M43.6,200.8c0-0.2,0-0.5,0-0.7V200c0.1-0.5,0.3-1,0.6-1.4c0.6-0.8,1.3-1.3,2.1-1.9
						c0.1-0.1,0.1-0.1,0.2-0.2c0.7-1,1.4-2,2.5-2.8c1.1-0.8,2.3-1.2,3.6-0.6c1.2,0.5,2.1,1.3,2.3,2.6c0.2,1.1,0.3,2.1,0.5,3.2
						c0.1,0.6,0.1,1.1,0.2,1.7c0.1-0.1,0.1-0.1,0.1-0.2c0.1-1.2,0.2-2.5,0.3-3.7c0-0.4,0-0.9,0.2-1.3c0.5-1.1,1.4-1.9,2.5-2.5
						c0.4-0.2,0.9-0.4,1.3-0.5c0.3,0,0.5,0,0.8,0c0,0,0,0,0.1,0c0.7,0.1,1.2,0.4,1.7,0.8c0.5,0.4,0.9,1,1.3,1.6
						c0.2,0.3,0.5,0.6,0.8,0.9c0.5,0.4,1,0.6,1.5,1c0.7,0.5,1.1,1.1,1.3,1.9c0.1,0.4,0,0.9-0.1,1.3c-0.1,0.7-0.3,1.4-0.7,1.9
						c-1,1.1-2.2,1.8-3.6,2.1c-0.8,0.2-1.7,0.3-2.6,0.4c-0.5,0.1-0.9,0.1-1.4,0.2v0.1c0.2,0,0.5,0,0.7,0c1.5,0,2.9,0,4.4,0.1
						c0.9,0,1.7,0.3,2.4,0.8c0.8,0.5,1.3,1.3,1.4,2.2c0.1,0.7,0,1.4-0.2,2.1c-0.2,0.6-0.4,1.2-1,1.5c-0.1,0.1-0.2,0.2-0.3,0.3
						c-0.6,0.6-1,1.4-1.4,2.2c-0.3,0.6-0.8,1.1-1.3,1.5c-1.1,0.8-2.4,0.7-3.4,0.1c-1-0.6-1.8-1.5-2.4-2.5c-0.2-0.3-0.3-0.6-0.4-0.9
						c-0.1-0.3-0.2-0.7-0.2-1c-0.2-0.6-0.3-1.1-0.5-1.7c0,0,0,0-0.1,0c0,0.2-0.1,0.4-0.1,0.6c0,0.8,0,1.6,0.1,2.4
						c0.1,1.1,0.4,2.1,0.9,3.1c0.3,0.5,0.7,0.9,1.1,1.3c0.4,0.4-0.5,1.4-0.7,1.2c-0.6-0.3-1.1-0.7-1.5-1.3c-0.8-1.1-1.3-2.4-1.3-3.8
						c0-1.4,0.1-2.7,0.1-4.1c0-0.1,0-0.1,0-0.2c-0.3,0.1-0.4,0.2-0.5,0.5c-0.2,0.9-0.4,1.9-0.5,2.8c-0.2,0.8-0.3,1.7-0.8,2.4
						s-1.2,1.3-2.1,1.5c-0.7,0.2-1.5,0-2.2-0.1c-0.5-0.1-1-0.3-1.3-0.7c-0.6-0.6-1.1-1.2-1.4-1.9c-0.3-0.5-0.5-1-1-1.4
						c-0.1-0.1-0.2-0.2-0.3-0.3c-0.5-0.5-1-1.1-1.2-1.7c0-0.1,0-0.3,0-0.4c0-0.1,0-0.2,0-0.3c0.1-0.7,0.1-1.4,0.4-2
						c0.8-1.3,1.9-2.2,3.5-2.3c1-0.1,1.9-0.1,2.9-0.1c0.4,0,0.8-0.1,1.3-0.1c0.1,0,0.3,0,0.4-0.2c-0.2,0-0.5-0.1-0.7-0.1
						c-1.1-0.1-2.2-0.2-3.3-0.4c-1-0.1-2-0.4-2.9-0.9C44.4,202.5,43.6,201.9,43.6,200.8C43.6,200.9,43.6,200.8,43.6,200.8z"/>
				</g>
				<g>
					<path class="st0" d="M393,46.4c0.5,0.8,1.2,1.2,2.1,1.1c1-0.1,1.5-0.6,1.8-1.6c0.8,0,1.6,0.6,1.8,1.4c0.1,0.4,0.3,0.8,0.4,1.2
						c0.1,0.6,0.3,1.1,0.3,1.7c0.3,2,0.9,3.9,1.9,5.7c0.9,1.7,2,3.2,3.3,4.6c1.7,1.9,3.7,3.5,6,4.8c1.1,0.6,2.3,1.1,3.5,1.5
						c0.6,0.2,1.2,0.4,1.7,0.8c0.4,0.3,0.3,0.7-0.1,0.9c-0.3,0.1-0.7,0.2-1.1,0.3c-1.6,0.2-3.1,0-4.6-0.3c-4.2-0.8-7.8-2.7-10.9-5.5
						c-1.5-1.3-2.8-2.7-4-4.3c-1.6-2.2-2.9-4.6-3.5-7.3c-0.2-1-0.3-1.9-0.2-2.9c0.1-0.5,0.2-1.1,0.6-1.5
						C392.3,46.6,392.6,46.5,393,46.4z"/>
					<path class="st0" d="M396.6,45.2c0.2,1-0.4,1.8-1.5,1.9c-1.1,0.2-2.1-0.4-2.2-1.4c0.4-0.2,0.8-0.4,1.2-0.5
						c0.2-0.1,0.2-0.2,0.2-0.4c-0.2-0.9-0.4-1.7-0.6-2.6c-0.1-0.3,0.3-0.7,0.7-0.6c0.4,0.1,0.6,0.3,0.6,0.7c0,0.9,0.1,1.7,0.1,2.7
						C395.7,45,396.1,45.1,396.6,45.2z"/>
				</g>
			</g>
		</g>
		<g>
			<g>
				<g id="_x32_55H6N.tif_4_">
					<path class="st0" d="M0.2-31.6c0-0.3,0.1-0.5,0.1-0.8c0.3-1.6,0.9-3.1,1.9-4.4c0,0,0,0,0.1-0.1c0.4,1.6,1.2,3.1,2.2,4.4
						c-0.5,0-0.9,0-1.4,0c0,0,0,0.1,0.1,0.1c0.5,1,1.3,1.7,2.3,2.3c0.9,0.5,2.2,0.1,2.8-0.8c0.3-0.5,0.5-1.1,0.6-1.7
						C9-33.2,9-33.9,9.1-34.5c0.1-2.1,0.1-4.2,0.2-6.2c0-0.5,0-1,0-1.5c0,0,0-0.1,0-0.2c-0.4,0-0.7,0-1.1,0c-1,0-1.9,0-2.9-0.1H5.2
						c-0.4-0.6-0.8-1.2-1.2-1.8c0,0,0,0,0-0.1c0.9,0,1.8,0,2.7,0c0.9,0,1.8,0,2.7,0c0-0.3,0-0.5,0-0.8c0-0.3,0-0.5,0-0.8
						c0-0.1,0-0.1-0.1-0.2c-1-0.5-1.5-1.3-1.5-2.4c0-1.4,1.2-3.6,2.7-3.6c1.6,0,2.8,2.2,2.7,3.7c0,1-0.5,1.8-1.5,2.3l-0.1,0.1
						c0,0.6,0,1.1,0,1.7c1.8,0,3.6,0,5.5,0c0.1,0.1,0.1,0.1,0.1,0.2c-0.4,0.5-0.8,1.1-1.2,1.7c-0.1,0.1-0.1,0.1-0.2,0.1
						c-1.2,0-2.5,0-3.7,0c-0.1,0-0.1,0-0.2,0c0,0.2,0,0.3,0,0.5c0.1,2.4,0.1,4.8,0.2,7.2c0,0.7,0,1.4,0,2.1c0,0.5,0.1,1,0.3,1.5
						c0.4,0.9,1.2,1.4,2.2,1.3c1.2-0.1,2.1-0.7,2.8-1.6c0.2-0.3,0.4-0.5,0.6-0.8c0-0.1,0.1-0.1,0.1-0.2c-0.5-0.1-1-0.2-1.6-0.3
						c1.4-1.1,2.2-2.6,2.8-4.2c1.2,1.1,2,4.2,1.5,5.6c-0.4-0.2-0.8-0.4-1.2-0.5c-0.1,0.6-0.3,1.2-0.5,1.8c-0.6,1.2-1.5,2.1-2.7,2.8
						c-0.8,0.5-1.6,0.8-2.5,1c-0.4,0.1-0.8,0.3-1.2,0.6c-0.9,0.6-1.5,1.3-2,2.3l0,0v-0.1c-0.6-1.3-1.6-2.2-2.9-2.8
						c-0.2-0.1-0.3-0.1-0.5-0.2c-1.5-0.6-2.9-1.4-4-2.6c-0.8-0.9-1.4-1.8-1.6-2.9l0,0c-0.6,0.1-1,0.4-1.5,0.7
						C0.2-31.3,0.2-31.4,0.2-31.6z M12.1-48.6c0-0.8-0.6-1.4-1.4-1.4c-0.8,0-1.5,0.6-1.5,1.4s0.7,1.4,1.5,1.4S12.1-47.8,12.1-48.6z"
						/>
				</g>
				<g id="JeGfOL.tif_5_">
					<path class="st0" d="M16.2,141.8c-2.5,2.4-4.9,4.8-7.4,7.2c-2.4-2.4-4.9-4.8-7.2-7.1c-1.1,1.1-2.2,2.2-3.4,3.3
						c2.4,2.3,4.8,4.7,7.3,7.2c-2.4,2.4-4.8,4.7-7.2,7c1.1,1.1,2.2,2.1,3.4,3.3c2.4-2.3,4.8-4.7,7.3-7.2c2.4,2.3,4.8,4.7,7.2,7
						c1.1-1,2.1-2.1,3.3-3.2c-2.4-2.3-4.8-4.7-7.4-7.2c2.5-2.4,4.9-4.8,7.3-7.2C18.5,144,17.4,143,16.2,141.8z"/>
				</g>
				<g>
					<path class="st0" d="M2.9,46.4c0.5,0.8,1.2,1.2,2.1,1.1c1-0.1,1.5-0.6,1.8-1.6c0.8,0,1.6,0.6,1.8,1.4c0.1,0.4,0.3,0.8,0.4,1.2
						c0.1,0.6,0.3,1.1,0.3,1.7c0.3,2,0.9,3.9,1.9,5.7c0.9,1.7,2,3.2,3.3,4.6c1.7,1.9,3.7,3.5,6,4.8c1.1,0.6,2.3,1.1,3.5,1.5
						c0.6,0.2,1.2,0.4,1.7,0.8c0.4,0.3,0.3,0.7-0.1,0.9c-0.3,0.1-0.7,0.2-1.1,0.3c-1.6,0.2-3.1,0-4.6-0.3C15.7,67.7,12.1,65.8,9,63
						c-1.5-1.3-2.8-2.7-4-4.3c-1.6-2.2-2.9-4.6-3.5-7.3c-0.2-1-0.3-1.9-0.2-2.9C1.4,48,1.5,47.4,1.9,47C2.3,46.6,2.6,46.5,2.9,46.4z
						"/>
				</g>
			</g>
		</g>
	</g>
</g>
</svg>
