<?xml version="1.0" encoding="utf-8"?>
<!-- Generator: Adobe Illustrator 23.0.2, SVG Export Plug-In . SVG Version: 6.00 Build 0)  -->
<svg version="1.1" id="Layer_1" xmlns="http://www.w3.org/2000/svg" xmlns:xlink="http://www.w3.org/1999/xlink" x="0px" y="0px"
	 viewBox="0 0 341 172" style="enable-background:new 0 0 341 172;" xml:space="preserve">
<style type="text/css">
	.st0{clip-path:url(#SVGID_2_);}
	.st1{clip-path:url(#SVGID_4_);fill:#383642;}
	.st2{clip-path:url(#SVGID_6_);}
	.st3{clip-path:url(#SVGID_8_);fill:#383642;}
	.st4{clip-path:url(#SVGID_10_);}
	.st5{clip-path:url(#SVGID_12_);fill:#383642;}
	.st6{clip-path:url(#SVGID_14_);}
	.st7{clip-path:url(#SVGID_16_);fill:#383642;}
	.st8{clip-path:url(#SVGID_18_);}
	.st9{clip-path:url(#SVGID_20_);fill:#383642;}
	.st10{clip-path:url(#SVGID_22_);}
	.st11{clip-path:url(#SVGID_24_);fill:#383642;}
	.st12{clip-path:url(#SVGID_26_);}
	.st13{clip-path:url(#SVGID_28_);fill:#383642;}
	.st14{clip-path:url(#SVGID_30_);}
	.st15{clip-path:url(#SVGID_32_);fill:#383642;}
	.st16{clip-path:url(#SVGID_34_);}
	.st17{clip-path:url(#SVGID_36_);fill:#383642;}
	.st18{clip-path:url(#SVGID_38_);}
	.st19{clip-path:url(#SVGID_40_);fill:#383642;}
	.st20{clip-path:url(#SVGID_42_);}
	.st21{clip-path:url(#SVGID_44_);fill:#383642;}
	.st22{clip-path:url(#SVGID_46_);}
	.st23{clip-path:url(#SVGID_48_);fill:#383642;}
	.st24{clip-path:url(#SVGID_50_);}
	.st25{clip-path:url(#SVGID_52_);fill:#383642;}
	.st26{clip-path:url(#SVGID_54_);}
	.st27{clip-path:url(#SVGID_56_);fill:#383642;}
	.st28{clip-path:url(#SVGID_58_);}
	.st29{clip-path:url(#SVGID_60_);fill:#383642;}
	.st30{clip-path:url(#SVGID_62_);}
	.st31{clip-path:url(#SVGID_64_);fill:#383642;}
	.st32{clip-path:url(#SVGID_66_);}
	.st33{clip-path:url(#SVGID_68_);fill:#383642;}
	.st34{clip-path:url(#SVGID_70_);}
	.st35{clip-path:url(#SVGID_72_);fill:#383642;}
	.st36{clip-path:url(#SVGID_74_);}
	.st37{clip-path:url(#SVGID_76_);fill:#383642;}
	.st38{clip-path:url(#SVGID_78_);}
	.st39{clip-path:url(#SVGID_80_);fill:#383642;}
	.st40{clip-path:url(#SVGID_82_);}
	.st41{clip-path:url(#SVGID_84_);fill:#383642;}
	.st42{clip-path:url(#SVGID_86_);}
	.st43{clip-path:url(#SVGID_88_);fill:#383642;}
	.st44{clip-path:url(#SVGID_90_);}
	.st45{clip-path:url(#SVGID_92_);fill:#383642;}
	.st46{clip-path:url(#SVGID_94_);}
	.st47{clip-path:url(#SVGID_96_);fill:#383642;}
	.st48{clip-path:url(#SVGID_98_);}
	.st49{clip-path:url(#SVGID_100_);fill:#383642;}
	.st50{clip-path:url(#SVGID_102_);}
	.st51{clip-path:url(#SVGID_104_);fill:#383642;}
	.st52{clip-path:url(#SVGID_106_);}
	.st53{clip-path:url(#SVGID_108_);fill:#383642;}
	.st54{clip-path:url(#SVGID_110_);}
	.st55{clip-path:url(#SVGID_112_);fill:#383642;}
	.st56{clip-path:url(#SVGID_114_);}
	.st57{clip-path:url(#SVGID_116_);fill:#383642;}
	.st58{clip-path:url(#SVGID_118_);}
	.st59{clip-path:url(#SVGID_120_);fill:#383642;}
	.st60{clip-path:url(#SVGID_122_);enable-background:new    ;}
	.st61{clip-path:url(#SVGID_124_);}
	.st62{clip-path:url(#SVGID_126_);}
	.st63{clip-path:url(#SVGID_128_);fill:#383642;}
	.st64{clip-path:url(#SVGID_130_);}
	.st65{clip-path:url(#SVGID_132_);fill:#383642;}
	.st66{clip-path:url(#SVGID_134_);}
	.st67{clip-path:url(#SVGID_136_);fill:#383642;}
	.st68{clip-path:url(#SVGID_138_);}
	.st69{clip-path:url(#SVGID_140_);fill:#383642;}
	.st70{clip-path:url(#SVGID_142_);}
	.st71{clip-path:url(#SVGID_144_);fill:#383642;}
	.st72{clip-path:url(#SVGID_146_);}
	.st73{clip-path:url(#SVGID_148_);fill:#383642;}
	.st74{clip-path:url(#SVGID_150_);}
	.st75{clip-path:url(#SVGID_152_);fill:#383642;}
	.st76{clip-path:url(#SVGID_154_);}
	.st77{clip-path:url(#SVGID_156_);fill:#383642;}
	.st78{clip-path:url(#SVGID_158_);}
	.st79{clip-path:url(#SVGID_160_);fill:#383642;}
	.st80{clip-path:url(#SVGID_162_);enable-background:new    ;}
	.st81{clip-path:url(#SVGID_164_);}
	.st82{clip-path:url(#SVGID_166_);}
	.st83{clip-path:url(#SVGID_168_);fill:#383642;}
	.st84{clip-path:url(#SVGID_170_);}
	.st85{clip-path:url(#SVGID_172_);fill:#383642;}
	.st86{fill:none;}
	.st87{fill-rule:evenodd;clip-rule:evenodd;fill:none;}
</style>
<g>
	<defs>
		<path id="SVGID_1_" d="M273.8,98.7v-2.6c0-1,0.4-1.4,1.3-1.4c1,0,1.4,0.4,1.4,1.4c0,0.8,0,1.7,0.1,2.5c0,0,0.1,0.1,0.2,0.2
			c0-0.4,0.1-0.6,0.1-0.9V96c0-1.2,1.1-1.8,2.2-1.2c0.3,0.2,0.5,0.7,0.6,1.1c0.1,0.9,0.1,1.8,0.1,2.7c0,0.1,0.1,0.1,0.2,0.4
			c0.1-0.4,0.1-0.7,0.1-0.9c0-1.8-0.1-3.7,0.1-5.5c0-0.4,0.4-1,0.8-1.3c0.3-0.2,1-0.1,1.3,0.1c0.3,0.2,0.6,0.7,0.6,1.1
			c0.1,4.8,0.1,9.7,0,14.5c0,2.2-2,4.2-4.3,4.3c-1.7,0.1-3.4,0.2-5.1,0c-2.8-0.3-4.4-2.2-5.3-4.6c-0.3-0.9-0.4-1.9-0.5-2.9
			c-0.1-1.8,0-3.6,0-5.5c1.6-0.1,2.7,1,2.8,2.5v2.4h0.3c0-0.3,0.1-0.5,0.1-0.8V90.7c0-0.9,0.4-1.5,1.1-1.6c1-0.1,1.7,0.5,1.7,1.5
			v7.2v0.9C273.6,98.7,273.6,98.7,273.8,98.7"/>
	</defs>
	<clipPath id="SVGID_2_">
		<use xlink:href="#SVGID_1_"  style="overflow:visible;"/>
	</clipPath>
	<g class="st0">
		<defs>
			<rect id="SVGID_3_" x="8" y="5" width="320" height="167"/>
		</defs>
		<clipPath id="SVGID_4_">
			<use xlink:href="#SVGID_3_"  style="overflow:visible;"/>
		</clipPath>
		<rect x="262.6" y="84" class="st1" width="25.2" height="32.3"/>
	</g>
</g>
<g>
	<defs>
		<path id="SVGID_5_" d="M281.5,9.6c-2.1,2-4.2,4.1-6.3,6.2c-2.1-2-4.2-4.1-6.2-6.1c-1,1-1.9,1.8-2.9,2.9c2,2,4.1,4,6.3,6.1
			c-2.1,2-4.1,4.1-6.2,6c1,0.9,1.8,1.8,2.9,2.9c2-2,4.1-4,6.3-6.2c2,2,4.1,4.1,6.2,6c0.9-0.9,1.8-1.8,2.8-2.7c-2-2-4.1-4.1-6.3-6.2
			c2.1-2.1,4.2-4.1,6.3-6.2C283.4,11.5,282.5,10.7,281.5,9.6"/>
	</defs>
	<clipPath id="SVGID_6_">
		<use xlink:href="#SVGID_5_"  style="overflow:visible;"/>
	</clipPath>
	<g class="st2">
		<defs>
			<rect id="SVGID_7_" x="8" y="5" width="320" height="167"/>
		</defs>
		<clipPath id="SVGID_8_">
			<use xlink:href="#SVGID_7_"  style="overflow:visible;"/>
		</clipPath>
		<rect x="261" y="4.6" class="st3" width="28.3" height="27.9"/>
	</g>
</g>
<g>
	<defs>
		<path id="SVGID_9_" d="M310.6,155.4L310.6,155.4c0.3,0.4,0.8,0.7,1.1,1c0.2,0.1,0.5,0.4,0.6,0.4c0-0.3,0-0.6-0.1-0.9
			c-0.1-0.8-0.4-1.5-1-2.2c-0.3-0.3-0.3-0.8-0.2-1.1c0.3-0.8,0.4-1.7,0.7-2.5c0.4-1.4,1.2-2.7,2.1-3.9c1-1.3,2.2-2.4,3.6-3.3
			c0.5-0.3,1.8-1,2.2-1.2c0,0,0.1,0,0.1,0.1c0,0.4-0.2,0.7-0.4,0.9c-0.4,0.4-0.8,0.7-1.2,1.1c-0.3,0.3-0.5,0.4-0.8,0.6
			c0.7,0,1.2-0.1,1.7-0.1c0.8-0.1,1.4-0.6,1.9-1.1c0.4-0.4,0.9-0.9,1.3-1.3c0.2-0.2,0.3-0.4,0.6-0.5c0.2-0.1,0.5-0.2,0.7-0.2
			c1,0.1,1.8-0.3,2.7-0.6c0.5-0.2,1-0.4,1.5-0.5c0.4-0.1,0.8,0.1,1.1,0.1h0.3c0.4,0,0.5-0.2,0.3-0.5c-0.3-0.3-0.7-0.5-1-0.8
			c-0.2-0.1-0.3-0.3-0.4-0.4c-0.3-0.3-0.6-0.6-0.9-0.8c-0.7-0.5-1.4-1-2.2-1.3c-0.9-0.4-1.8-0.5-2.8-0.6c-0.7-0.1-1.4,0.1-2.1,0.2
			c-0.7,0.1-1.5,0.3-2.2,0.6c-0.4,0.1-1,0.4-1.4,0.6s-0.7,0.3-1.1,0.3c-0.9-0.1-1.8-0.2-2.7-0.1c-0.7,0.1-1.3,0.3-1.9,0.6
			c-0.6,0.3-1,0.6-1.5,1.1v0.1c0.3,0.1,0.6-0.1,1.7,0.2c0.7,0.2,0.8,0.4,0.8,1c0,0.5-0.3,0.9-0.5,1.3c-1.5,2.2-2,4.6-1.8,7.2
			c0.1,1.2,0.2,2.4,0.4,3.6c0.1,0.4-0.1,0.8-0.4,1c-0.6,0.4-1.1,1-1.5,1.7c-0.3,0.5-0.5,1-0.8,1.5c-0.1,0.2-0.2,0.3-0.3,0.5
			C306.9,157.2,309.4,156.3,310.6,155.4"/>
	</defs>
	<clipPath id="SVGID_10_">
		<use xlink:href="#SVGID_9_"  style="overflow:visible;"/>
	</clipPath>
	<g class="st4">
		<defs>
			<rect id="SVGID_11_" x="8" y="5" width="320" height="167"/>
		</defs>
		<clipPath id="SVGID_12_">
			<use xlink:href="#SVGID_11_"  style="overflow:visible;"/>
		</clipPath>
		<rect x="301.6" y="130.6" class="st5" width="33" height="31.3"/>
	</g>
</g>
<g>
	<defs>
		<path id="SVGID_13_" d="M190.1,102.8c0.3,0,0.6-0.1,0.8-0.4c0,0,0.1-0.1,0.1,0c1.4,1.9,5.5,3.6,8.3,3.6c0.4,0,0.8,0.1,1.1-0.4
			c0.4-0.6,1.6-10,0.3-11.3c-0.8-0.9-9.2,1.9-9.8,3.4c-0.1-0.1-0.3-0.3-0.4-0.3c-0.3,0-0.6,0.1-0.9-0.1c-0.4-0.3-0.8-0.3-1.2-0.1
			c-0.3,0.2-0.6,0-0.8,0.1c-0.1,0.1-0.3,0.2-0.4,0.3c-0.6-1.5-9-4.3-9.8-3.4c-1.2,1.3-0.1,10.6,0.3,11.3c0.3,0.5,0.7,0.4,1.1,0.4
			c2.7-0.1,6.9-1.7,8.3-3.6h0.1c0.2,0.3,0.5,0.3,0.8,0.4l0.6-0.1l0.6,0.3c0.2,0.1,0.3,0.1,0.5-0.1L190.1,102.8z"/>
	</defs>
	<clipPath id="SVGID_14_">
		<use xlink:href="#SVGID_13_"  style="overflow:visible;"/>
	</clipPath>
	<g class="st6">
		<defs>
			<rect id="SVGID_15_" x="8" y="5" width="320" height="167"/>
		</defs>
		<clipPath id="SVGID_16_">
			<use xlink:href="#SVGID_15_"  style="overflow:visible;"/>
		</clipPath>
		<rect x="171.9" y="89.2" class="st7" width="34.4" height="21.9"/>
	</g>
</g>
<g>
	<defs>
		<path id="SVGID_17_" d="M191.5,26.7C191.4,26.7,191.4,26.7,191.5,26.7c-0.2,0.8-0.3,0.9-1,0.9h-5.7c-0.3,0-0.5-0.1-0.8-0.1
			c-0.3-0.1-0.3,0.1-0.3,0.3c-0.1,0.8,0.1,1.5,0.8,1.8c0.4,0.2,1.1,0.4,1.5,0.4c0.7,0.1,1.1,0.3,1.8,0.1c0.4-0.1,0.5-0.4,0.4-0.6
			c-0.1-0.2-0.2-0.4-0.3-0.6c0-0.1,0-0.4,0.1-0.5c0.1-0.1,0.4-0.1,0.6,0c0.6,0.3,0.8,0.9,0.8,1.5c0,0.6-0.3,1-1,1.2
			c-0.6,0.2-1.8,0.4-2.9,0.1c-1.3-0.3-1.8-0.6-2.3-0.8c-0.6-0.3-0.9-1-1-1.6c-0.1-0.8,0-1.7,0.4-2.5c0.3-0.6,0.2-1.1,0.1-1.7
			c-0.1-0.8-0.3-1.8-0.3-2.6c0-1,0-1.7,0.2-2.7c0.1-0.6,0.4-1.1,0.7-1.7c0.4-0.9,1-1.7,1.7-2.4c0.4-0.5,1-0.8,1.6-0.9
			c1-0.3,1.7-0.9,2.3-1.7c0.2-0.3,0.3-0.6,0.3-0.9c0-1,0.4-1.9,1-2.7c0.1-0.2,0.3-0.4,0.5-0.4c0.6-0.2,0.9-0.8,1.1-1.3
			c0.1-0.3,0.3-0.4,0.4-0.7c0.1-0.2,0.4-0.6,0.6-0.3c0.1,0.2,0.3,0.5,0.3,0.7c0.1,0.4,0.1,0.6,0.1,1s0.1,0.6,0.5,0.6
			c0.4,0.1,0.9,0.3,1.1,0.8c0.1,0.3,0.4,0.5,0.7,0.6c0.6,0.1,0.5,0.4,0.4,0.8c-0.2,0.6-0.5,1-1.1,1.3c-0.5,0.3-0.7,0.6-0.6,1.2
			c0.1,0.9,0.2,1.8,0.3,2.7c0.1,0.9-0.3,1.7-0.8,2.4c-0.6,0.9-1,1.8-1,2.9c0.1,1.2,0,2.5,0,3.7c0,0.5,0.1,1,0.6,1
			c0.2,0,0.8,0.3,0.9,0.4c0.1,0.1,0.2,0.8-0.1,0.9c-0.1,0.1-0.4,0.1-0.7,0.1c-0.7,0.1-1.3,0.1-1.9-0.4
			C191.6,26.9,191.5,26.8,191.5,26.7 M191.2,26.4c-0.2-0.4-0.3-1-0.4-1.6c-0.1,0.3-0.6,1-0.8,1.3C190.3,26.1,190.8,26.2,191.2,26.4"
			/>
	</defs>
	<clipPath id="SVGID_18_">
		<use xlink:href="#SVGID_17_"  style="overflow:visible;"/>
	</clipPath>
	<g class="st8">
		<defs>
			<rect id="SVGID_19_" x="8" y="5" width="320" height="167"/>
		</defs>
		<clipPath id="SVGID_20_">
			<use xlink:href="#SVGID_19_"  style="overflow:visible;"/>
		</clipPath>
		<rect x="177.2" y="1.1" class="st9" width="24" height="35.1"/>
	</g>
</g>
<g>
	<defs>
		<path id="SVGID_21_" d="M306.3,60.3c-0.4,1.5-0.5,3-0.3,4.5c0.1,0.4,0.2,0.9,0.4,1.3c0.2,0.6,0.4,1.1,0.8,1.6c0.6,1,1.6,1.5,2.7,2
			c0.9,0.3,1.8,0.4,2.8,0.5c0.3,0,0.5,0,0.8-0.1c0.5-0.1,1-0.1,1.5-0.2c1.1-0.3,2.3-0.7,3.2-1.5c1-1,1.5-2.2,1.6-3.6
			c0.1-1,0-2.1-0.1-3.1c-0.2-1.1-0.6-2.2-1-3.3c-0.1-0.3-0.3-0.6-0.3-0.9c0-0.1,0-0.1,0.1-0.2c0.1-0.1,0.2-0.1,0.3-0.1h0.4
			c0.4,0,0.4,0,0.4-0.4v-1c0-0.3-0.1-0.3-0.4-0.3H316c-0.4,0-0.5,0.1-0.6,0.5c0,0.3,0.1,0.6,0.2,0.8c0.3,0.5,0.5,1,0.8,1.6
			c0.2,0.4,0.3,0.8,0.4,1.3c0.2,0.9,0.4,1.8,0.6,2.7c0.1,1,0.1,2.1-0.2,3.1c-0.4,1.3-1.3,2-2.5,2.4c-0.7,0.2-1.4,0.3-2.1,0.3
			c-1.3-0.1-2.4-0.6-3.2-1.6c-0.4-0.4-0.7-0.9-0.9-1.5c-0.1-0.4-0.2-0.9-0.3-1.3c-0.3-1.7,0.1-3.2,0.7-4.8c0.3-0.8,0.6-1.5,1.1-2.1
			c0.2-0.3,0.3-0.6,0.3-1c0-0.3-0.1-0.3-0.4-0.4h-1.7h-1.7c-0.2,0-0.3,0.1-0.3,0.3V57c0,0.2,0.1,0.3,0.3,0.3h0.6
			c0.3,0,0.3,0.1,0.2,0.3c-0.3,0.5-0.5,1.1-0.7,1.6C306.5,59.6,306.3,59.9,306.3,60.3z M306.6,64.9c0.1-0.2,0.1-0.4,0.2-0.6
			c0.1-0.1,0.2-0.2,0.3-0.1c0.3,0.2,0.4,0.8,0.3,1.1c-0.1,0.2-0.4,0.3-0.4,0.1C306.8,65.3,306.7,65.1,306.6,64.9z M306.7,62.2
			c0.1-0.3,0.1-0.4,0.1-0.6c0.1-0.1,0.1-0.3,0.2-0.3c0.1,0,0.3,0.1,0.3,0.2c0.2,0.3,0.1,0.8-0.3,1h-0.2
			C306.8,62.5,306.7,62.3,306.7,62.2z M307,60.1c-0.1-0.4,0.2-0.8,0.6-1c0.1,0.1,0.1,0.1,0.1,0.1c0.1,0.3,0,0.8-0.3,1
			c-0.1,0.1-0.2,0.1-0.3,0.1C307.1,60.3,307,60.1,307,60.1z M307.4,66.6c0.1-0.1,0.1-0.2,0.1-0.2c0.1,0,0.3,0,0.4,0.1
			c0.1,0.1,0.3,0.4,0.4,0.6c0.1,0.1,0.1,0.3-0.1,0.3c-0.1,0.1-0.3,0.1-0.3,0C307.7,67.1,307.5,66.8,307.4,66.6z M308.9,68.1
			c-0.1-0.1-0.1-0.2,0.1-0.3c0.3-0.1,0.9,0.1,1,0.4v0.1c0,0.3-0.1,0.4-0.4,0.3C309.3,68.5,309.1,68.4,308.9,68.1z M311.2,69.3
			c-0.3-0.1-0.4-0.3-0.4-0.4c0.1-0.3,0.3-0.2,0.5-0.3c0.1,0,0.3,0.1,0.4,0.1c0.1,0.1,0.3,0.1,0.3,0.3c0,0.2-0.1,0.3-0.3,0.3H311.2z
			 M313.3,69.3c-0.3-0.1-0.3-0.2-0.2-0.4c0.1-0.1,0.1-0.2,0.3-0.2c0.2-0.1,0.4-0.1,0.6-0.1c0.1,0,0.3,0.1,0.3,0.2
			c0,0.2-0.1,0.3-0.3,0.4c-0.1,0-0.3,0-0.4,0.1C313.6,69.4,313.4,69.4,313.3,69.3z M315.5,68.7c-0.1-0.1,0.1-0.3,0.1-0.3
			c0.1-0.1,0.3-0.2,0.5-0.3c0.2-0.1,0.4,0,0.5,0.2c-0.2,0.3-0.5,0.5-0.9,0.5C315.7,68.8,315.5,68.8,315.5,68.7z M317.3,67.2
			c0.1-0.1,0.1-0.2,0.1-0.2c0.1-0.2,0.3-0.3,0.5-0.5c0.1-0.1,0.3-0.1,0.3,0c0.1,0.1,0.1,0.3,0,0.4c-0.1,0.2-0.3,0.4-0.4,0.5
			c-0.1,0.1-0.3,0.1-0.3,0.1C317.4,67.4,317.4,67.3,317.3,67.2z M317.6,59.7c-0.1-0.3-0.1-0.5,0.3-0.7c0.3,0.3,0.5,0.6,0.5,1
			c0,0.2-0.1,0.3-0.3,0.3C317.8,60.2,317.6,60,317.6,59.7z M318.3,62.6c-0.2-0.2-0.4-0.7-0.3-1c0.1-0.1,0.2-0.2,0.3-0.3
			c0.1,0,0.2,0.1,0.2,0.2c0.1,0.1,0.1,0.3,0.1,0.4c-0.1,0.1-0.1,0.3-0.1,0.5C318.6,62.7,318.5,62.7,318.3,62.6z M318.3,65
			c-0.1-0.3-0.1-0.9,0.1-1.1c0.1-0.1,0.2-0.1,0.3,0c0.1,0,0.2,0.1,0.2,0.2c0.1,0.1,0,0.2,0,0.2c0,0.3,0,0.6-0.2,0.8
			C318.5,65.2,318.4,65.2,318.3,65z"/>
	</defs>
	<clipPath id="SVGID_22_">
		<use xlink:href="#SVGID_21_"  style="overflow:visible;"/>
	</clipPath>
	<g class="st10">
		<defs>
			<rect id="SVGID_23_" x="8" y="5" width="320" height="167"/>
		</defs>
		<clipPath id="SVGID_24_">
			<use xlink:href="#SVGID_23_"  style="overflow:visible;"/>
		</clipPath>
		<rect x="300.9" y="50.5" class="st11" width="23.8" height="24.8"/>
	</g>
</g>
<g>
	<defs>
		<path id="SVGID_25_" d="M306.8,64.3c-0.1,0.1-0.1,0.3-0.2,0.6c0.1,0.2,0.2,0.4,0.3,0.6c0.1,0.1,0.4,0,0.4-0.1
			c0.1-0.3-0.1-0.9-0.3-1.1C307,64.2,306.8,64.2,306.8,64.3"/>
	</defs>
	<clipPath id="SVGID_26_">
		<use xlink:href="#SVGID_25_"  style="overflow:visible;"/>
	</clipPath>
	<g class="st12">
		<defs>
			<rect id="SVGID_27_" x="8" y="5" width="320" height="167"/>
		</defs>
		<clipPath id="SVGID_28_">
			<use xlink:href="#SVGID_27_"  style="overflow:visible;"/>
		</clipPath>
		<rect x="301.6" y="59.2" class="st13" width="10.8" height="11.4"/>
	</g>
</g>
<g>
	<defs>
		<path id="SVGID_29_" d="M306.8,61.7c-0.1,0.1-0.1,0.3-0.1,0.6c0.1,0.1,0.1,0.3,0.2,0.4c0,0,0.1,0.1,0.2,0c0.3-0.2,0.4-0.7,0.3-1
			c-0.1-0.1-0.2-0.2-0.3-0.2S306.8,61.6,306.8,61.7"/>
	</defs>
	<clipPath id="SVGID_30_">
		<use xlink:href="#SVGID_29_"  style="overflow:visible;"/>
	</clipPath>
	<g class="st14">
		<defs>
			<rect id="SVGID_31_" x="8" y="5" width="320" height="167"/>
		</defs>
		<clipPath id="SVGID_32_">
			<use xlink:href="#SVGID_31_"  style="overflow:visible;"/>
		</clipPath>
		<rect x="301.7" y="56.5" class="st15" width="10.7" height="11.2"/>
	</g>
</g>
<g>
	<defs>
		<path id="SVGID_33_" d="M307.6,59c-0.4,0.2-0.6,0.6-0.6,1c0,0.1,0.1,0.2,0.2,0.3c0.1,0,0.2,0,0.3-0.1c0.3-0.2,0.4-0.7,0.3-1
			C307.7,59.2,307.7,59.1,307.6,59"/>
	</defs>
	<clipPath id="SVGID_34_">
		<use xlink:href="#SVGID_33_"  style="overflow:visible;"/>
	</clipPath>
	<g class="st16">
		<defs>
			<rect id="SVGID_35_" x="8" y="5" width="320" height="167"/>
		</defs>
		<clipPath id="SVGID_36_">
			<use xlink:href="#SVGID_35_"  style="overflow:visible;"/>
		</clipPath>
		<rect x="302" y="54" class="st17" width="10.8" height="11.2"/>
	</g>
</g>
<g>
	<defs>
		<path id="SVGID_37_" d="M307.6,66.3c-0.1,0-0.1,0.1-0.1,0.2c0.1,0.3,0.3,0.6,0.5,0.8c0.1,0.1,0.2,0.1,0.3,0
			c0.1-0.1,0.2-0.2,0.1-0.3c-0.1-0.2-0.3-0.4-0.4-0.6C307.9,66.3,307.7,66.3,307.6,66.3"/>
	</defs>
	<clipPath id="SVGID_38_">
		<use xlink:href="#SVGID_37_"  style="overflow:visible;"/>
	</clipPath>
	<g class="st18">
		<defs>
			<rect id="SVGID_39_" x="8" y="5" width="320" height="167"/>
		</defs>
		<clipPath id="SVGID_40_">
			<use xlink:href="#SVGID_39_"  style="overflow:visible;"/>
		</clipPath>
		<rect x="302.5" y="61.3" class="st19" width="11" height="11"/>
	</g>
</g>
<g>
	<defs>
		<path id="SVGID_41_" d="M309,67.9c-0.1,0.1-0.2,0.1-0.1,0.3c0.1,0.3,0.4,0.4,0.6,0.5s0.4,0,0.4-0.3v-0.1
			C309.8,68,309.2,67.8,309,67.9"/>
	</defs>
	<clipPath id="SVGID_42_">
		<use xlink:href="#SVGID_41_"  style="overflow:visible;"/>
	</clipPath>
	<g class="st20">
		<defs>
			<rect id="SVGID_43_" x="8" y="5" width="320" height="167"/>
		</defs>
		<clipPath id="SVGID_44_">
			<use xlink:href="#SVGID_43_"  style="overflow:visible;"/>
		</clipPath>
		<rect x="303.9" y="62.9" class="st21" width="11.2" height="10.8"/>
	</g>
</g>
<g>
	<defs>
		<path id="SVGID_45_" d="M310.8,68.9c-0.1,0.1,0.1,0.3,0.4,0.4c0.2,0.1,0.4,0.1,0.6,0c0.1,0,0.3-0.1,0.3-0.3c0-0.2-0.1-0.3-0.3-0.3
			c-0.2-0.1-0.4-0.1-0.4-0.1C311.1,68.7,310.9,68.6,310.8,68.9"/>
	</defs>
	<clipPath id="SVGID_46_">
		<use xlink:href="#SVGID_45_"  style="overflow:visible;"/>
	</clipPath>
	<g class="st22">
		<defs>
			<rect id="SVGID_47_" x="8" y="5" width="320" height="167"/>
		</defs>
		<clipPath id="SVGID_48_">
			<use xlink:href="#SVGID_47_"  style="overflow:visible;"/>
		</clipPath>
		<rect x="305.8" y="63.6" class="st23" width="11.2" height="10.7"/>
	</g>
</g>
<g>
	<defs>
		<path id="SVGID_49_" d="M312.4,56.8c-0.1,1-0.1,2,0.1,2.9c0.2,0.9,0.5,1.7,1.1,2.5c0.6,0.8,1.3,1.4,2.2,1.8
			c0.3,0.1,0.5,0.2,0.8,0.3c0.3,0.1,0.5-0.1,0.5-0.3c-0.1-0.6-0.1-1.2-0.2-1.8c0-0.2-0.1-0.4-0.3-0.5c-0.6-0.5-1.1-1.1-1.5-1.9
			c-0.3-0.6-0.4-1.3-0.4-2c-0.1-1.4,0.1-2.8,0.6-4.1c0.3-0.7,0.6-1.4,1-2c0.1-0.2,0.2-0.3,0.3-0.5c0.2-0.3,0.2-0.6,0.1-0.9
			c0-0.2-0.2-0.2-0.3-0.2h-0.8h-1H313c-0.3,0-0.4,0.1-0.4,0.4v1c0,0.3,0.1,0.3,0.3,0.3s0.4,0,0.7,0.1c0.2,0,0.2,0.1,0.1,0.3
			c-0.2,0.4-0.4,1-0.6,1.4c-0.1,0.4-0.3,0.7-0.4,1.1C312.6,55.2,312.4,56,312.4,56.8 M313.1,56.8c0-0.3,0.1-0.5,0.3-0.7
			c0.1-0.1,0.3-0.1,0.3,0c0.2,0.3,0.1,0.9-0.2,1.1C313.3,57.1,313.1,56.9,313.1,56.8 M313.5,60.1c-0.4-0.3-0.4-0.6-0.4-1.1
			c0-0.2,0.1-0.3,0.3-0.3s0.2,0.1,0.3,0.3c0.1,0.1,0.1,0.2,0.1,0.3C313.9,59.6,313.8,59.8,313.5,60.1 M313.4,54.5
			c0.1-0.3,0.2-0.6,0.3-0.8c0.1-0.1,0.3-0.1,0.4-0.1c0.1,0,0.1,0.2,0.1,0.3c0,0.3-0.1,0.5-0.3,0.8c-0.1,0.1-0.2,0.2-0.3,0.1
			C313.6,54.7,313.5,54.6,313.4,54.5 M314.6,61.8c-0.3,0-0.8-0.6-0.6-0.9c0-0.1,0.1-0.1,0.1-0.1c0.1,0,0.1-0.1,0.2-0.1
			c0.3,0.1,0.6,0.4,0.6,0.7C314.9,61.7,314.8,61.8,314.6,61.8 M315.2,62.5c0.1-0.1,0.2-0.1,0.3-0.2c0.3-0.1,0.8,0.2,0.9,0.4
			c0,0.1,0,0.2-0.1,0.3c0,0.1-0.1,0.1-0.2,0.1C315.7,63.1,315.5,62.9,315.2,62.5"/>
	</defs>
	<clipPath id="SVGID_50_">
		<use xlink:href="#SVGID_49_"  style="overflow:visible;"/>
	</clipPath>
	<g class="st24">
		<defs>
			<rect id="SVGID_51_" x="8" y="5" width="320" height="167"/>
		</defs>
		<clipPath id="SVGID_52_">
			<use xlink:href="#SVGID_51_"  style="overflow:visible;"/>
		</clipPath>
		<rect x="307.3" y="45" class="st25" width="14.7" height="24.3"/>
	</g>
</g>
<g>
	<defs>
		<path id="SVGID_53_" d="M313.3,56c-0.2,0.2-0.3,0.4-0.3,0.7c0,0.3,0.3,0.3,0.4,0.4c0.3-0.3,0.4-0.9,0.2-1.1
			C313.6,55.9,313.4,55.9,313.3,56"/>
	</defs>
	<clipPath id="SVGID_54_">
		<use xlink:href="#SVGID_53_"  style="overflow:visible;"/>
	</clipPath>
	<g class="st26">
		<defs>
			<rect id="SVGID_55_" x="8" y="5" width="320" height="167"/>
		</defs>
		<clipPath id="SVGID_56_">
			<use xlink:href="#SVGID_55_"  style="overflow:visible;"/>
		</clipPath>
		<rect x="308.1" y="50.9" class="st27" width="10.7" height="11.2"/>
	</g>
</g>
<g>
	<defs>
		<path id="SVGID_57_" d="M313.1,69c-0.1,0.2,0,0.3,0.2,0.4h0.3c0.1,0,0.3,0,0.4-0.1c0.2-0.1,0.3-0.2,0.3-0.4c0-0.2-0.1-0.2-0.3-0.2
			s-0.4,0-0.6,0.1C313.3,68.8,313.1,68.9,313.1,69"/>
	</defs>
	<clipPath id="SVGID_58_">
		<use xlink:href="#SVGID_57_"  style="overflow:visible;"/>
	</clipPath>
	<g class="st28">
		<defs>
			<rect id="SVGID_59_" x="8" y="5" width="320" height="167"/>
		</defs>
		<clipPath id="SVGID_60_">
			<use xlink:href="#SVGID_59_"  style="overflow:visible;"/>
		</clipPath>
		<rect x="308.1" y="63.7" class="st29" width="11.2" height="10.6"/>
	</g>
</g>
<g>
	<defs>
		<path id="SVGID_61_" d="M313.1,59c-0.1,0.4-0.1,0.8,0.4,1.1c0.4-0.3,0.4-0.4,0.3-0.8c0-0.1-0.1-0.2-0.1-0.3s-0.1-0.3-0.3-0.3
			C313.3,58.7,313.1,58.8,313.1,59"/>
	</defs>
	<clipPath id="SVGID_62_">
		<use xlink:href="#SVGID_61_"  style="overflow:visible;"/>
	</clipPath>
	<g class="st30">
		<defs>
			<rect id="SVGID_63_" x="8" y="5" width="320" height="167"/>
		</defs>
		<clipPath id="SVGID_64_">
			<use xlink:href="#SVGID_63_"  style="overflow:visible;"/>
		</clipPath>
		<rect x="308.1" y="53.7" class="st31" width="10.8" height="11.4"/>
	</g>
</g>
<g>
	<defs>
		<path id="SVGID_65_" d="M313.8,53.8c-0.1,0.3-0.2,0.5-0.3,0.8c0.1,0.1,0.2,0.2,0.3,0.3c0.1,0.1,0.2,0,0.3-0.1
			c0.2-0.3,0.3-0.4,0.3-0.8c0-0.1-0.1-0.3-0.1-0.3C314,53.6,313.8,53.6,313.8,53.8"/>
	</defs>
	<clipPath id="SVGID_66_">
		<use xlink:href="#SVGID_65_"  style="overflow:visible;"/>
	</clipPath>
	<g class="st32">
		<defs>
			<rect id="SVGID_67_" x="8" y="5" width="320" height="167"/>
		</defs>
		<clipPath id="SVGID_68_">
			<use xlink:href="#SVGID_67_"  style="overflow:visible;"/>
		</clipPath>
		<rect x="308.4" y="48.6" class="st33" width="10.8" height="11.2"/>
	</g>
</g>
<g>
	<defs>
		<path id="SVGID_69_" d="M314,61c-0.1,0.3,0.3,0.9,0.6,0.9c0.2,0,0.3-0.1,0.3-0.3c-0.1-0.4-0.3-0.6-0.6-0.7
			C314.1,60.8,314.1,60.8,314,61C314,60.8,314,60.9,314,61"/>
	</defs>
	<clipPath id="SVGID_70_">
		<use xlink:href="#SVGID_69_"  style="overflow:visible;"/>
	</clipPath>
	<g class="st34">
		<defs>
			<rect id="SVGID_71_" x="8" y="5" width="320" height="167"/>
		</defs>
		<clipPath id="SVGID_72_">
			<use xlink:href="#SVGID_71_"  style="overflow:visible;"/>
		</clipPath>
		<rect x="308.9" y="55.8" class="st35" width="10.9" height="11"/>
	</g>
</g>
<g>
	<defs>
		<path id="SVGID_73_" d="M315.5,62.4c-0.1,0-0.2,0.1-0.3,0.2c0.3,0.3,0.5,0.6,0.9,0.6c0.1,0,0.2,0,0.2-0.1c0.1-0.1,0.1-0.2,0.1-0.3
			C316.3,62.5,315.8,62.3,315.5,62.4"/>
	</defs>
	<clipPath id="SVGID_74_">
		<use xlink:href="#SVGID_73_"  style="overflow:visible;"/>
	</clipPath>
	<g class="st36">
		<defs>
			<rect id="SVGID_75_" x="8" y="5" width="320" height="167"/>
		</defs>
		<clipPath id="SVGID_76_">
			<use xlink:href="#SVGID_75_"  style="overflow:visible;"/>
		</clipPath>
		<rect x="310.2" y="57.3" class="st37" width="11.2" height="10.8"/>
	</g>
</g>
<g>
	<defs>
		<path id="SVGID_77_" d="M315.5,68.4c-0.1,0.1-0.1,0.3-0.1,0.3c0.1,0.1,0.2,0.1,0.3,0.1c0.4,0,0.7-0.2,0.9-0.5
			c-0.1-0.2-0.3-0.3-0.5-0.2C315.9,68.1,315.7,68.3,315.5,68.4"/>
	</defs>
	<clipPath id="SVGID_78_">
		<use xlink:href="#SVGID_77_"  style="overflow:visible;"/>
	</clipPath>
	<g class="st38">
		<defs>
			<rect id="SVGID_79_" x="8" y="5" width="320" height="167"/>
		</defs>
		<clipPath id="SVGID_80_">
			<use xlink:href="#SVGID_79_"  style="overflow:visible;"/>
		</clipPath>
		<rect x="310.4" y="63.1" class="st39" width="11.2" height="10.7"/>
	</g>
</g>
<g>
	<defs>
		<path id="SVGID_81_" d="M317.4,67c-0.1,0.1-0.1,0.1-0.1,0.2c0.1,0.1,0.1,0.3,0.2,0.3c0.1,0.1,0.2-0.1,0.3-0.1
			c0.2-0.1,0.3-0.3,0.4-0.5c0.1-0.1,0-0.3,0-0.4c0-0.1-0.3-0.1-0.3,0C317.7,66.6,317.5,66.8,317.4,67"/>
	</defs>
	<clipPath id="SVGID_82_">
		<use xlink:href="#SVGID_81_"  style="overflow:visible;"/>
	</clipPath>
	<g class="st40">
		<defs>
			<rect id="SVGID_83_" x="8" y="5" width="320" height="167"/>
		</defs>
		<clipPath id="SVGID_84_">
			<use xlink:href="#SVGID_83_"  style="overflow:visible;"/>
		</clipPath>
		<rect x="312.3" y="61.4" class="st41" width="11" height="11.1"/>
	</g>
</g>
<g>
	<defs>
		<path id="SVGID_85_" d="M317.8,59.1c-0.3,0.2-0.3,0.4-0.3,0.7c0.1,0.3,0.2,0.4,0.4,0.5c0.1,0.1,0.3-0.1,0.3-0.3
			C318.3,59.6,318.2,59.3,317.8,59.1"/>
	</defs>
	<clipPath id="SVGID_86_">
		<use xlink:href="#SVGID_85_"  style="overflow:visible;"/>
	</clipPath>
	<g class="st42">
		<defs>
			<rect id="SVGID_87_" x="8" y="5" width="320" height="167"/>
		</defs>
		<clipPath id="SVGID_88_">
			<use xlink:href="#SVGID_87_"  style="overflow:visible;"/>
		</clipPath>
		<rect x="312.6" y="54.1" class="st43" width="10.7" height="11.2"/>
	</g>
</g>
<g>
	<defs>
		<path id="SVGID_89_" d="M318.2,61.7c-0.1,0.3,0,0.8,0.3,1c0.1,0.1,0.2,0.1,0.3-0.1c0.1-0.1,0.1-0.3,0.1-0.5
			c-0.1-0.1-0.1-0.3-0.1-0.4c-0.1-0.1-0.2-0.3-0.2-0.2C318.3,61.5,318.2,61.6,318.2,61.7"/>
	</defs>
	<clipPath id="SVGID_90_">
		<use xlink:href="#SVGID_89_"  style="overflow:visible;"/>
	</clipPath>
	<g class="st44">
		<defs>
			<rect id="SVGID_91_" x="8" y="5" width="320" height="167"/>
		</defs>
		<clipPath id="SVGID_92_">
			<use xlink:href="#SVGID_91_"  style="overflow:visible;"/>
		</clipPath>
		<rect x="313.1" y="56.5" class="st45" width="10.7" height="11.3"/>
	</g>
</g>
<g>
	<defs>
		<path id="SVGID_93_" d="M318.4,63.9c-0.3,0.2-0.3,0.8-0.1,1.1c0.1,0.2,0.3,0.3,0.4,0.1c0.2-0.2,0.2-0.4,0.2-0.8v-0.2
			c-0.1-0.1-0.1-0.2-0.2-0.2C318.6,63.9,318.5,63.9,318.4,63.9"/>
	</defs>
	<clipPath id="SVGID_94_">
		<use xlink:href="#SVGID_93_"  style="overflow:visible;"/>
	</clipPath>
	<g class="st46">
		<defs>
			<rect id="SVGID_95_" x="8" y="5" width="320" height="167"/>
		</defs>
		<clipPath id="SVGID_96_">
			<use xlink:href="#SVGID_95_"  style="overflow:visible;"/>
		</clipPath>
		<rect x="313.2" y="58.9" class="st47" width="10.7" height="11.3"/>
	</g>
</g>
<g>
	<defs>
		<path id="SVGID_97_" d="M320.1,62.6c-0.3,0.2-0.1,1.8,0.1,1.9c0.1,0,0.1,0.1,0.2,0c0.4-0.1,0.7-0.1,1.1-0.2
			c0.7-0.1,1.3-0.4,1.9-0.7c0.9-0.4,1.5-1.1,2-2c0.3-0.4,0.4-1,0.5-1.5c0.4-1.6,0.2-3.1-0.1-4.6c-0.2-1.1-0.6-2.2-1.1-3.2
			c-0.1-0.1-0.1-0.2-0.1-0.3c-0.1-0.2,0-0.3,0.2-0.3c0.3,0,0.5-0.1,0.7,0c0.2,0,0.3-0.1,0.3-0.2v-1.3c0-0.1-0.1-0.2-0.3-0.2h-1.7
			h-1.6c-0.3,0-0.4,0.1-0.4,0.4c-0.1,0.5,0.2,0.9,0.4,1.3c0.2,0.4,0.4,0.7,0.5,1.1c0.1,0.3,0.3,0.7,0.4,1c0.4,1.5,0.8,3.1,0.8,4.6
			c0,0.8-0.2,1.5-0.4,2.2c-0.2,0.4-0.4,0.7-0.8,1c-0.6,0.6-1.4,0.8-2.2,1C320.3,62.5,320.1,62.5,320.1,62.6 M321.8,63.2
			c0.1-0.4,0.5-0.5,0.9-0.6c0.1,0,0.2,0.1,0.3,0.2c0.1,0.1,0,0.2-0.1,0.3c-0.2,0.2-0.4,0.3-0.7,0.3C322.1,63.4,322,63.3,321.8,63.2
			 M323.9,61.9c-0.1-0.1-0.1-0.2-0.1-0.3c0.1-0.1,0.1-0.3,0.3-0.4c0.1-0.1,0.3-0.2,0.4-0.3c0.3,0,0.4,0.1,0.3,0.4
			c-0.1,0.3-0.3,0.5-0.6,0.6C324.1,62,323.9,61.9,323.9,61.9 M324,53.9c0.1-0.1,0.1-0.2,0.2-0.3c0.1-0.1,0.2-0.1,0.3,0
			c0.2,0.3,0.4,0.5,0.4,0.8c0,0.1-0.1,0.2-0.2,0.3c-0.1,0.1-0.3,0.1-0.4-0.1C324.2,54.4,324.1,54.2,324,53.9 M324.5,56.5L324.5,56.5
			c0.1-0.1,0.1-0.3,0.1-0.3c0.1-0.1,0.1-0.2,0.2-0.2c0.1,0,0.3,0,0.3,0.1c0.1,0.3,0.2,0.6,0.1,0.9c-0.1,0.2-0.3,0.3-0.4,0.1
			C324.6,56.9,324.6,56.7,324.5,56.5 M324.6,59.4c-0.1-0.4,0-0.8,0.4-1.1c0.1,0.1,0.3,0.2,0.3,0.3c0.1,0.3,0.1,0.6-0.1,1
			c-0.1,0.1-0.2,0.1-0.2,0.1C324.8,59.6,324.7,59.5,324.6,59.4"/>
	</defs>
	<clipPath id="SVGID_98_">
		<use xlink:href="#SVGID_97_"  style="overflow:visible;"/>
	</clipPath>
	<g class="st48">
		<defs>
			<rect id="SVGID_99_" x="8" y="5" width="320" height="167"/>
		</defs>
		<clipPath id="SVGID_100_">
			<use xlink:href="#SVGID_99_"  style="overflow:visible;"/>
		</clipPath>
		<rect x="314.9" y="45" class="st49" width="16.1" height="24.5"/>
	</g>
</g>
<g>
	<defs>
		<path id="SVGID_101_" d="M322.7,62.5c-0.4,0.1-0.7,0.2-0.9,0.6c0.1,0.1,0.3,0.2,0.4,0.2c0.3,0,0.5-0.1,0.7-0.3
			c0.1-0.1,0.1-0.2,0.1-0.3C322.9,62.7,322.8,62.5,322.7,62.5"/>
	</defs>
	<clipPath id="SVGID_102_">
		<use xlink:href="#SVGID_101_"  style="overflow:visible;"/>
	</clipPath>
	<g class="st50">
		<defs>
			<rect id="SVGID_103_" x="8" y="5" width="320" height="167"/>
		</defs>
		<clipPath id="SVGID_104_">
			<use xlink:href="#SVGID_103_"  style="overflow:visible;"/>
		</clipPath>
		<rect x="316.8" y="57.5" class="st51" width="11.1" height="10.8"/>
	</g>
</g>
<g>
	<defs>
		<path id="SVGID_105_" d="M323.8,61.6c0,0.1,0.1,0.3,0.1,0.3c0.1,0.1,0.2,0.1,0.3,0c0.3-0.1,0.4-0.4,0.6-0.6c0.1-0.3,0-0.4-0.3-0.4
			c-0.1,0.1-0.3,0.2-0.4,0.3C323.9,61.3,323.8,61.5,323.8,61.6"/>
	</defs>
	<clipPath id="SVGID_106_">
		<use xlink:href="#SVGID_105_"  style="overflow:visible;"/>
	</clipPath>
	<g class="st52">
		<defs>
			<rect id="SVGID_107_" x="8" y="5" width="320" height="167"/>
		</defs>
		<clipPath id="SVGID_108_">
			<use xlink:href="#SVGID_107_"  style="overflow:visible;"/>
		</clipPath>
		<rect x="318.8" y="55.9" class="st53" width="11" height="11.1"/>
	</g>
</g>
<g>
	<defs>
		<path id="SVGID_109_" d="M324.2,53.6c-0.1,0.1-0.1,0.2-0.2,0.3c0.1,0.3,0.2,0.5,0.3,0.8c0.1,0.1,0.3,0.2,0.4,0.1
			c0.1-0.1,0.1-0.2,0.2-0.3c0-0.3-0.1-0.6-0.4-0.8C324.4,53.6,324.3,53.6,324.2,53.6"/>
	</defs>
	<clipPath id="SVGID_110_">
		<use xlink:href="#SVGID_109_"  style="overflow:visible;"/>
	</clipPath>
	<g class="st54">
		<defs>
			<rect id="SVGID_111_" x="8" y="5" width="320" height="167"/>
		</defs>
		<clipPath id="SVGID_112_">
			<use xlink:href="#SVGID_111_"  style="overflow:visible;"/>
		</clipPath>
		<rect x="319" y="48.6" class="st55" width="10.9" height="11.2"/>
	</g>
</g>
<g>
	<defs>
		<path id="SVGID_113_" d="M324.5,56.5L324.5,56.5c0.1,0.2,0.1,0.4,0.3,0.6c0.1,0.2,0.3,0.1,0.4-0.1c0.1-0.3,0.1-0.6-0.1-0.9
			c-0.1-0.1-0.3-0.1-0.3-0.1c-0.1,0-0.1,0.1-0.2,0.2C324.5,56.3,324.6,56.4,324.5,56.5"/>
	</defs>
	<clipPath id="SVGID_114_">
		<use xlink:href="#SVGID_113_"  style="overflow:visible;"/>
	</clipPath>
	<g class="st56">
		<defs>
			<rect id="SVGID_115_" x="8" y="5" width="320" height="167"/>
		</defs>
		<clipPath id="SVGID_116_">
			<use xlink:href="#SVGID_115_"  style="overflow:visible;"/>
		</clipPath>
		<rect x="319.5" y="51" class="st57" width="10.7" height="11.2"/>
	</g>
</g>
<g>
	<defs>
		<path id="SVGID_117_" d="M325,58.3c-0.4,0.3-0.5,0.7-0.4,1.1c0,0.1,0.2,0.2,0.3,0.3c0.1,0,0.1-0.1,0.2-0.1c0.2-0.3,0.2-0.6,0.1-1
			C325.3,58.5,325.2,58.3,325,58.3"/>
	</defs>
	<clipPath id="SVGID_118_">
		<use xlink:href="#SVGID_117_"  style="overflow:visible;"/>
	</clipPath>
	<g class="st58">
		<defs>
			<rect id="SVGID_119_" x="8" y="5" width="320" height="167"/>
		</defs>
		<clipPath id="SVGID_120_">
			<use xlink:href="#SVGID_119_"  style="overflow:visible;"/>
		</clipPath>
		<rect x="319.6" y="53.3" class="st59" width="10.7" height="11.4"/>
	</g>
</g>
<g>
	<defs>
		<rect id="SVGID_121_" x="8" y="5" width="320" height="167"/>
	</defs>
	<clipPath id="SVGID_122_">
		<use xlink:href="#SVGID_121_"  style="overflow:visible;"/>
	</clipPath>
	<g class="st60">
		<g>
			<defs>
				<rect id="SVGID_123_" x="63" y="4" width="175" height="156"/>
			</defs>
			<clipPath id="SVGID_124_">
				<use xlink:href="#SVGID_123_"  style="overflow:visible;"/>
			</clipPath>
			<g class="st61">
				<defs>
					<path id="SVGID_125_" d="M219.6,152.1c0.1-0.3,0.1-0.4,0.1-0.7c0.3-1.4,0.8-2.7,1.7-3.8l0.1-0.1c0.3,1.4,1,2.6,1.9,3.8h-1.2
						c0,0.1,0.1,0.1,0.1,0.1c0.4,0.8,1.1,1.5,2,2c0.8,0.4,1.8,0.1,2.4-0.6c0.3-0.4,0.4-0.9,0.5-1.4c0.1-0.6,0.1-1.1,0.1-1.7
						c0.1-1.8,0.1-3.6,0.1-5.3c0-0.4,0-0.9,0.1-1.3v-0.1h-0.9c-0.8,0-1.7,0-2.5-0.1c-0.1,0-0.1,0-0.1-0.1c-0.3-0.5-0.7-1-1-1.5v-0.1
						h2.4h2.4v-0.7v-0.7c0-0.1,0-0.1-0.1-0.2c-0.8-0.4-1.3-1.1-1.3-2.1c0-1.2,1.1-2.2,2.3-2.2c1.3,0,2.4,1,2.4,2.4
						c0,0.9-0.4,1.5-1.3,2c-0.1,0-0.1,0.1-0.1,0.1v1.5h4.7c0,0.1-0.1,0.1-0.1,0.1c-0.3,0.5-0.6,1-1,1.5c-0.1,0.1-0.1,0.1-0.2,0.1
						h-3.2h-0.1v0.4c0.1,2,0.1,4.1,0.1,6.2c0,0.6,0,1.1,0.1,1.8c0,0.4,0.1,0.8,0.3,1.3c0.3,0.8,1,1.2,1.8,1.1c1-0.1,1.8-0.5,2.4-1.3
						c0.2-0.2,0.3-0.4,0.4-0.7c0.1-0.1,0.1-0.1,0.1-0.2c-0.4-0.1-0.9-0.2-1.3-0.3c1.2-1,1.8-2.3,2.4-3.6c1,1,1.7,3.6,1.3,4.8
						c-0.3-0.1-0.6-0.3-1-0.5c-0.1,0.5-0.3,1-0.4,1.5c-0.5,1-1.3,1.8-2.3,2.4c-0.7,0.4-1.4,0.7-2.2,0.9c-0.4,0.1-0.7,0.3-1,0.5
						c-0.8,0.5-1.3,1.1-1.7,1.9V159c-0.5-1.1-1.3-1.9-2.5-2.4c-0.1-0.1-0.3-0.1-0.4-0.2c-1.3-0.5-2.5-1.2-3.4-2.2
						c-0.6-0.8-1.1-1.5-1.4-2.5v-0.1c-0.4,0.3-0.8,0.5-1.1,0.8C219.6,152.3,219.6,152.2,219.6,152.1 M229.9,137.5
						c0-0.7-0.6-1.2-1.2-1.2c-0.7,0-1.3,0.6-1.3,1.2s0.6,1.2,1.3,1.2C229.3,138.7,229.9,138.1,229.9,137.5"/>
				</defs>
				<clipPath id="SVGID_126_">
					<use xlink:href="#SVGID_125_"  style="overflow:visible;"/>
				</clipPath>
				<g class="st62">
					<defs>
						<rect id="SVGID_127_" x="8" y="5" width="320" height="167"/>
					</defs>
					<clipPath id="SVGID_128_">
						<use xlink:href="#SVGID_127_"  style="overflow:visible;"/>
					</clipPath>
					<rect x="214.5" y="130.3" class="st63" width="27.7" height="33.8"/>
				</g>
			</g>
			<g class="st61">
				<defs>
					<path id="SVGID_129_" d="M236.5,65.2c0,0.1-0.1,0.1-0.1,0.1c0,0-0.1,0-0.1,0.1v-0.3c0-0.4,0.4-3.6-2.2-5.5
						c-0.1-0.1-0.2-0.1-0.3-0.2c0.4,2.9-0.1,5.6-1.5,8.1h-0.1c0-0.1-0.1-0.1-0.1-0.2c-0.1-1.6-0.3-3.2-0.8-4.8
						c-0.3-0.9-0.6-1.8-1.2-2.5c-0.7-1-1.5-1.1-1.5-1.1s-0.2,0.1-0.3,0.3c-0.3,0.6-0.5,1.2-0.6,1.8c-0.4,1.6-0.7,3.2-0.9,4.8
						c-0.2,2-0.2,3.4-0.1,5.4c0,0.4,0.1,1.1,0.1,1.1h-4c0,0,0.3-4.8,1-7.2c0.8-2.8,2.1-5.2,2.2-5.4c0.1-0.1,1.3-2.5,1.3-2.5
						l-1.4-0.4c0,0-2.9-1.1-6.6,1.6c0-0.3,0.8-3.3,3.1-5c1.8-1.4,3.2-1.1,3.5-1.1c-0.1-1.1-0.9-1.8-1.7-2.5c0.1-0.1,3.1-0.1,4.3,0.7
						c0.4,0.3,0.4,0.3,0.8-0.1c1.2-1.2,2.5-1.3,2.6-1.4h0.1c0,0.1-0.6,1.4-0.5,2.1c0,0.1,0,0.2,0.2,0.2c0.2,0,0.4,0.1,0.6,0.1
						c0.9,0.1,3.2,0.8,5,3.3c0.1,0.1,0.2,0.3,0.1,0.3c-0.8-0.1-1.7-0.2-2.5-0.1c0.3,0.3,2.1,2,2.5,4.3C237.6,59.4,238,62,236.5,65.2
						"/>
				</defs>
				<clipPath id="SVGID_130_">
					<use xlink:href="#SVGID_129_"  style="overflow:visible;"/>
				</clipPath>
				<g class="st64">
					<defs>
						<rect id="SVGID_131_" x="8" y="5" width="320" height="167"/>
					</defs>
					<clipPath id="SVGID_132_">
						<use xlink:href="#SVGID_131_"  style="overflow:visible;"/>
					</clipPath>
					<rect x="214.6" y="43.9" class="st65" width="28.1" height="33.5"/>
				</g>
			</g>
			<g class="st61">
				<defs>
					<path id="SVGID_133_" d="M226.4,56.6c0.7,0,1.2,0.5,1.2,1.1c0,0.6-0.5,1.1-1.2,1.1c-0.7,0-1.2-0.5-1.2-1.1
						C225.2,57.1,225.8,56.6,226.4,56.6"/>
				</defs>
				<clipPath id="SVGID_134_">
					<use xlink:href="#SVGID_133_"  style="overflow:visible;"/>
				</clipPath>
				<g class="st66">
					<defs>
						<rect id="SVGID_135_" x="8" y="5" width="320" height="167"/>
					</defs>
					<clipPath id="SVGID_136_">
						<use xlink:href="#SVGID_135_"  style="overflow:visible;"/>
					</clipPath>
					<rect x="220.2" y="51.6" class="st67" width="12.4" height="12.3"/>
				</g>
			</g>
			<g class="st61">
				<defs>
					<path id="SVGID_137_" d="M228.8,58.3c0.6,0,1,0.5,1,1c0,0.6-0.5,1-1,1c-0.6,0-1-0.5-1-1C227.8,58.8,228.2,58.3,228.8,58.3"/>
				</defs>
				<clipPath id="SVGID_138_">
					<use xlink:href="#SVGID_137_"  style="overflow:visible;"/>
				</clipPath>
				<g class="st68">
					<defs>
						<rect id="SVGID_139_" x="8" y="5" width="320" height="167"/>
					</defs>
					<clipPath id="SVGID_140_">
						<use xlink:href="#SVGID_139_"  style="overflow:visible;"/>
					</clipPath>
					<rect x="222.8" y="53.3" class="st69" width="12" height="12"/>
				</g>
			</g>
			<g class="st61">
				<defs>
					<path id="SVGID_141_" d="M143.8,50.5c0.4,0.7,1,1,1.8,0.9c0.8-0.1,1.3-0.5,1.5-1.4c0.7,0,1.4,0.5,1.6,1.1
						c0.1,0.3,0.3,0.7,0.4,1c0.1,0.4,0.2,1,0.3,1.5c0.3,1.7,0.8,3.3,1.6,4.8c0.8,1.5,1.7,2.7,2.9,3.9c1.5,1.7,3.2,3,5.2,4.1
						c1,0.5,2,1,3.1,1.3c0.5,0.1,1,0.3,1.5,0.7c0.3,0.3,0.3,0.6-0.1,0.8c-0.3,0.1-0.6,0.2-0.9,0.3c-1.3,0.2-2.7,0-4-0.3
						c-3.6-0.7-6.7-2.3-9.4-4.8c-1.3-1.1-2.4-2.4-3.4-3.7c-1.4-1.9-2.5-3.9-3-6.2c-0.2-0.8-0.3-1.7-0.1-2.5c0.1-0.4,0.2-0.9,0.5-1.3
						C143.3,50.7,143.5,50.5,143.8,50.5"/>
				</defs>
				<clipPath id="SVGID_142_">
					<use xlink:href="#SVGID_141_"  style="overflow:visible;"/>
				</clipPath>
				<g class="st70">
					<defs>
						<rect id="SVGID_143_" x="8" y="5" width="320" height="167"/>
					</defs>
					<clipPath id="SVGID_144_">
						<use xlink:href="#SVGID_143_"  style="overflow:visible;"/>
					</clipPath>
					<rect x="137.6" y="45" class="st71" width="31.2" height="29.6"/>
				</g>
			</g>
			<g class="st61">
				<defs>
					<path id="SVGID_145_" d="M71.5,62.3c-0.2-0.2-0.6-0.6-1-0.6c-0.4,0-0.8,0.4-1,0.6c-1,1-2.3,5.5-2.4,6.2
						c-0.1,0.3-0.3,0.4-0.4,0.7C66.4,69,66.1,69,66,68.7c-1.2-2.2-1.8-4.5-1.2-6.9c0.4-1.3,0.3-2.6-0.1-4c-0.5-1.8-0.9-3.6-1.1-5.4
						c-0.3-2.6,1-4.3,3.4-4.6c0.8-0.1,1.5,0.3,2.3,0.3c1.2,0,2.5,0,3.7-0.2c2.8-0.4,4.9,1.3,4.7,4c-0.1,1.7-0.5,3.3-1,4.9
						c-0.5,1.8-0.7,3.7-0.3,5.6c0.6,2.2-0.3,4.3-1.3,6.4c-0.1,0.2-0.4,0.3-0.7,0.5c-0.1-0.2-0.4-0.4-0.4-0.6
						C73.8,67.8,72.4,63.1,71.5,62.3"/>
				</defs>
				<clipPath id="SVGID_146_">
					<use xlink:href="#SVGID_145_"  style="overflow:visible;"/>
				</clipPath>
				<g class="st72">
					<defs>
						<rect id="SVGID_147_" x="8" y="5" width="320" height="167"/>
					</defs>
					<clipPath id="SVGID_148_">
						<use xlink:href="#SVGID_147_"  style="overflow:visible;"/>
					</clipPath>
					<rect x="58.5" y="42.8" class="st73" width="24.2" height="31.4"/>
				</g>
			</g>
			<g class="st61">
				<defs>
					<path id="SVGID_149_" d="M114.3,11.7L114.3,11.7c-0.4-0.4-0.8-0.5-1.3-0.4c-1.7,0.1-2.6,0.8-2.6,0.8s0.7-1.5,3.1-1.5
						c-0.4-0.6-2.4-0.4-3.4-0.1c-0.1,0.1,1.6-3.3,2-3.7c-1.7,0.5-3.1,2-3.1,2c-0.1-1.3-0.5-3.4-1-3.9c-0.4,0.5-0.8,2.6-1,3.9
						c0,0-1.4-1.5-3.1-2c0.4,0.4,2.1,3.8,2,3.7c-1-0.3-3-0.6-3.4,0.1c2.4-0.1,3.1,1.5,3.1,1.5s-1-0.7-2.6-0.8
						c-0.5-0.1-0.9,0.1-1.3,0.4c0.8-0.1,3.4,1.6,3.6,2.8c0,0-0.8-0.3-1.1-0.3c-0.6-0.1-1.2,0-1.8,0.3c-0.1,0.1-0.5,0.3-0.6,0.4
						c1.3-0.6,3.2,0.2,3.8,1.1c0.2,0.3,0.4,0.6,0.3,0.8c-0.3-0.1-0.5-0.1-0.8-0.1c-1.1-0.2-2.2,0.3-2.7,1.2c0,0.1-0.1,0.1-0.1,0.1
						c1-0.9,2.2-1.1,3.3-0.3c-0.4,0-0.8-0.1-1.1,0.1c-0.3,0.1-0.6,0.3-1,0.6c0.8-0.3,1.6-0.3,2.4,0.2c-0.3,0.1-0.4,0.4-0.6,0.5
						c-0.5,0.3-1,0.4-1.2,1c-0.1,0.3-0.4,0.6-0.6,1c-0.2,0.3-0.4,0.4-0.5,0.7c-0.1,0.3-0.1,0.5-0.3,0.8c-0.1,0.3-0.2,0.6-0.3,1
						c-0.1,0.2-0.1,0.3-0.2,0.5c-0.1,0.2,0,0.4-0.1,0.6c-0.2,0.9-0.1,2-0.1,2.9c0,1,0.4,2.4,1,3.2c0.7,1,1.7,1.5,2.9,1.7
						c0.6,0.1,1.3,0.1,1.9,0.2c0.6-0.1,1.3-0.1,1.9-0.2c1.2-0.1,2.2-0.6,2.9-1.7c0.6-0.8,1-2.2,1-3.2c0-0.9,0.1-2-0.1-2.9
						c-0.1-0.2,0-0.4-0.1-0.6c-0.1-0.2-0.1-0.4-0.2-0.5c-0.1-0.3-0.1-0.6-0.3-1c-0.1-0.3-0.2-0.4-0.3-0.8c-0.1-0.3-0.3-0.5-0.5-0.7
						c-0.3-0.3-0.5-0.6-0.6-1c-0.2-0.6-0.7-0.8-1.2-1c-0.3-0.1-0.4-0.4-0.6-0.5c0.8-0.4,1.5-0.5,2.4-0.2c-0.3-0.3-0.6-0.4-1-0.6
						c-0.4-0.1-0.7-0.1-1.1-0.1c1.1-0.8,2.4-0.6,3.3,0.3c-0.1-0.1-0.1-0.1-0.1-0.1c-0.6-0.9-1.7-1.4-2.7-1.2
						c-0.3,0.1-0.5,0.1-0.8,0.1c-0.1-0.2,0.1-0.5,0.3-0.8c0.6-1,2.5-1.7,3.8-1.1c-0.1-0.1-0.4-0.4-0.6-0.4c-0.6-0.2-1.2-0.3-1.8-0.3
						c-0.3,0.1-1.1,0.3-1.1,0.3C110.8,13.3,113.4,11.5,114.3,11.7"/>
				</defs>
				<clipPath id="SVGID_150_">
					<use xlink:href="#SVGID_149_"  style="overflow:visible;"/>
				</clipPath>
				<g class="st74">
					<defs>
						<rect id="SVGID_151_" x="8" y="5" width="320" height="167"/>
					</defs>
					<clipPath id="SVGID_152_">
						<use xlink:href="#SVGID_151_"  style="overflow:visible;"/>
					</clipPath>
					<rect x="96.7" y="0" class="st75" width="22.6" height="37.5"/>
				</g>
			</g>
			<g class="st61">
				<defs>
					<path id="SVGID_153_" d="M143.8,50.5c0.4,0.7,1,1,1.8,0.9c0.8-0.1,1.3-0.5,1.5-1.4c0.7,0,1.4,0.5,1.6,1.1
						c0.1,0.3,0.3,0.7,0.4,1c0.1,0.4,0.2,1,0.3,1.5c0.3,1.7,0.8,3.3,1.6,4.8c0.8,1.5,1.7,2.7,2.9,3.9c1.5,1.7,3.2,3,5.2,4.1
						c1,0.5,2,1,3.1,1.3c0.5,0.1,1,0.3,1.5,0.7c0.3,0.3,0.3,0.6-0.1,0.8c-0.3,0.1-0.6,0.2-0.9,0.3c-1.3,0.2-2.7,0-4-0.3
						c-3.6-0.7-6.7-2.3-9.4-4.8c-1.3-1.1-2.4-2.4-3.4-3.7c-1.4-1.9-2.5-3.9-3-6.2c-0.2-0.8-0.3-1.7-0.1-2.5c0.1-0.4,0.2-0.9,0.5-1.3
						C143.3,50.7,143.5,50.5,143.8,50.5"/>
				</defs>
				<clipPath id="SVGID_154_">
					<use xlink:href="#SVGID_153_"  style="overflow:visible;"/>
				</clipPath>
				<g class="st76">
					<defs>
						<rect id="SVGID_155_" x="8" y="5" width="320" height="167"/>
					</defs>
					<clipPath id="SVGID_156_">
						<use xlink:href="#SVGID_155_"  style="overflow:visible;"/>
					</clipPath>
					<rect x="137.6" y="45" class="st77" width="31.2" height="29.6"/>
				</g>
			</g>
			<g class="st61">
				<defs>
					<path id="SVGID_157_" d="M147,49.5c0.2,0.8-0.4,1.5-1.3,1.7c-1,0.1-1.8-0.4-1.9-1.2c0.3-0.1,0.6-0.3,1-0.4
						c0.1-0.1,0.2-0.1,0.1-0.3c-0.2-0.8-0.3-1.5-0.5-2.2c-0.1-0.3,0.3-0.6,0.6-0.5c0.3,0.1,0.5,0.3,0.5,0.6c0.1,0.8,0.1,1.5,0.1,2.3
						C146.1,49.3,146.5,49.4,147,49.5"/>
				</defs>
				<clipPath id="SVGID_158_">
					<use xlink:href="#SVGID_157_"  style="overflow:visible;"/>
				</clipPath>
				<g class="st78">
					<defs>
						<rect id="SVGID_159_" x="8" y="5" width="320" height="167"/>
					</defs>
					<clipPath id="SVGID_160_">
						<use xlink:href="#SVGID_159_"  style="overflow:visible;"/>
					</clipPath>
					<rect x="138.8" y="41.4" class="st79" width="13.2" height="14.7"/>
				</g>
			</g>
		</g>
	</g>
</g>
<g>
	<defs>
		<rect id="SVGID_161_" x="8" y="5" width="320" height="167"/>
	</defs>
	<clipPath id="SVGID_162_">
		<use xlink:href="#SVGID_161_"  style="overflow:visible;"/>
	</clipPath>
	<g class="st80">
		<g>
			<defs>
				<rect id="SVGID_163_" x="26" y="4" width="52" height="66"/>
			</defs>
			<clipPath id="SVGID_164_">
				<use xlink:href="#SVGID_163_"  style="overflow:visible;"/>
			</clipPath>
			<g class="st81">
				<defs>
					<path id="SVGID_165_" d="M69.5,62.3c0.2-0.2,0.6-0.6,1-0.6c0.4,0,0.8,0.4,1,0.6c1,1,2.3,5.5,2.4,6.2c0.1,0.3,0.3,0.4,0.4,0.7
						c0.3-0.2,0.6-0.3,0.6-0.5c1.2-2.2,1.8-4.5,1.2-6.9c-0.4-1.3-0.3-2.6,0.1-4c0.5-1.8,0.9-3.6,1.1-5.4c0.3-2.6-1-4.3-3.4-4.6
						c-0.8-0.1-1.5,0.3-2.3,0.3c-1.2,0-2.5,0-3.7-0.2c-2.8-0.4-4.9,1.3-4.7,4c0.1,1.7,0.5,3.3,1,4.9c0.5,1.8,0.7,3.7,0.3,5.6
						c-0.6,2.2,0.3,4.3,1.3,6.4c0.1,0.2,0.4,0.3,0.7,0.5c0.1-0.2,0.4-0.4,0.4-0.6C67.2,67.8,68.6,63.1,69.5,62.3"/>
				</defs>
				<clipPath id="SVGID_166_">
					<use xlink:href="#SVGID_165_"  style="overflow:visible;"/>
				</clipPath>
				<g class="st82">
					<defs>
						<rect id="SVGID_167_" x="8" y="5" width="320" height="167"/>
					</defs>
					<clipPath id="SVGID_168_">
						<use xlink:href="#SVGID_167_"  style="overflow:visible;"/>
					</clipPath>
					<rect x="58.3" y="42.8" class="st83" width="24.2" height="31.4"/>
				</g>
			</g>
			<g class="st81">
				<defs>
					<path id="SVGID_169_" d="M26.7,11.7L26.7,11.7c0.4-0.4,0.8-0.5,1.3-0.4c1.7,0.1,2.6,0.8,2.6,0.8s-0.7-1.5-3.1-1.5
						C28,10,30,10.2,31,10.5c0.1,0.1-1.6-3.3-2-3.7c1.7,0.5,3.1,2,3.1,2c0.1-1.3,0.5-3.4,1-3.9c0.4,0.5,0.8,2.6,1,3.9
						c0,0,1.4-1.5,3.1-2c-0.4,0.4-2.1,3.8-2,3.7c1-0.3,3-0.6,3.4,0.1c-2.4-0.1-3.1,1.5-3.1,1.5s1-0.7,2.6-0.8
						c0.5-0.1,0.9,0.1,1.3,0.4c-0.8-0.1-3.4,1.6-3.6,2.8c0,0,0.8-0.3,1.1-0.3c0.6-0.1,1.2,0,1.8,0.3c0.1,0.1,0.5,0.3,0.6,0.4
						C37.9,14.3,36,15,35.4,16c-0.2,0.3-0.4,0.6-0.3,0.8c0.3-0.1,0.5-0.1,0.8-0.1c1.1-0.2,2.2,0.3,2.7,1.2c0,0.1,0.1,0.1,0.1,0.1
						c-1-0.9-2.2-1.1-3.3-0.3c0.4,0,0.8-0.1,1.1,0.1c0.3,0.1,0.6,0.3,1,0.6C36.5,18,35.8,18,35,18.5c0.3,0.1,0.4,0.4,0.6,0.5
						c0.5,0.3,1,0.4,1.2,1c0.1,0.3,0.4,0.6,0.6,1c0.2,0.3,0.4,0.4,0.5,0.7c0.1,0.3,0.1,0.5,0.3,0.8c0.1,0.3,0.2,0.6,0.3,1
						c0.1,0.2,0.1,0.3,0.2,0.5c0.1,0.2,0,0.4,0.1,0.6c0.2,0.9,0.1,2,0.1,2.9c0,1-0.4,2.4-1,3.2c-0.7,1-1.7,1.5-2.9,1.7
						c-0.6,0.1-1.3,0.1-1.9,0.2c-0.6-0.1-1.3-0.1-1.9-0.2c-1.2-0.1-2.2-0.6-2.9-1.7c-0.6-0.8-1-2.2-1-3.2c0-0.9-0.1-2,0.1-2.9
						c0.1-0.2,0-0.4,0.1-0.6c0.1-0.2,0.1-0.4,0.2-0.5c0.1-0.3,0.1-0.6,0.3-1c0.1-0.3,0.2-0.4,0.3-0.8c0.1-0.3,0.3-0.5,0.5-0.7
						c0.3-0.3,0.5-0.6,0.6-1c0.2-0.6,0.7-0.8,1.2-1c0.3-0.1,0.4-0.4,0.6-0.5c-0.8-0.4-1.5-0.5-2.4-0.2c0.3-0.3,0.6-0.4,1-0.6
						c0.4-0.1,0.7-0.1,1.1-0.1c-1.1-0.8-2.4-0.6-3.3,0.3c0.1-0.1,0.1-0.1,0.1-0.1c0.6-0.9,1.7-1.4,2.7-1.2c0.3,0.1,0.5,0.1,0.8,0.1
						c0.1-0.2-0.1-0.5-0.3-0.8c-0.6-1-2.5-1.7-3.8-1.1c0.1-0.1,0.4-0.4,0.6-0.4c0.6-0.2,1.2-0.3,1.8-0.3c0.3,0.1,1.1,0.3,1.1,0.3
						C30.2,13.3,27.6,11.5,26.7,11.7"/>
				</defs>
				<clipPath id="SVGID_170_">
					<use xlink:href="#SVGID_169_"  style="overflow:visible;"/>
				</clipPath>
				<g class="st84">
					<defs>
						<rect id="SVGID_171_" x="8" y="5" width="320" height="167"/>
					</defs>
					<clipPath id="SVGID_172_">
						<use xlink:href="#SVGID_171_"  style="overflow:visible;"/>
					</clipPath>
					<rect x="21.7" class="st85" width="22.6" height="37.5"/>
				</g>
			</g>
		</g>
	</g>
</g>
<rect x="26" y="4" class="st86" width="304" height="156"/>
<line class="st87" x1="400" y1="172" x2="0" y2="172"/>
<line class="st87" x1="0" y1="5" x2="400" y2="5"/>
</svg>
