<?xml version="1.0" encoding="utf-8"?>
<!-- Generator: Adobe Illustrator 21.0.2, SVG Export Plug-In . SVG Version: 6.00 Build 0)  -->
<svg version="1.1" id="Layer_1" xmlns="http://www.w3.org/2000/svg" xmlns:xlink="http://www.w3.org/1999/xlink" x="0px" y="0px"
	 viewBox="0 0 512 232.1" style="enable-background:new 0 0 512 232.1;" xml:space="preserve">
<g>
	<g>
		<path d="M501.8,0H171.3c-5.6,0-10.2,4.6-10.2,10.2v19.2H63.9c-5.6,0-10.2,4.6-10.2,10.2c0,5.6,4.6,10.2,10.2,10.2h97.2v132.5H103
			c-5.6,0-10.2,4.6-10.2,10.2s4.6,10.2,10.2,10.2h58.1v19.2c0,5.6,4.6,10.2,10.2,10.2h330.5c5.6,0,10.2-4.6,10.2-10.2V10.2
			C512,4.6,507.4,0,501.8,0z M476.6,20.4l-140.1,115l-139.4-115H476.6z M491.6,211.7H181.5V33.9l148.6,122.5
			c1.9,1.6,4.2,2.3,6.5,2.3c2.3,0,4.6-0.8,6.5-2.3l148.6-122V211.7z"/>
	</g>
</g>
<g>
	<g>
		<path d="M119.7,104.8H10.2C4.6,104.8,0,109.4,0,115c0,5.6,4.6,10.2,10.2,10.2h109.5c5.6,0,10.2-4.6,10.2-10.2
			C129.9,109.4,125.3,104.8,119.7,104.8z"/>
	</g>
</g>
<g>
	<g>
		<path d="M69.4,182.3h-5.5c-5.6,0-10.2,4.6-10.2,10.2s4.6,10.2,10.2,10.2h5.5c5.6,0,10.2-4.6,10.2-10.2S75,182.3,69.4,182.3z"/>
	</g>
</g>
</svg>
