<?xml version="1.0" encoding="utf-8"?>
<!-- Generator: Adobe Illustrator 21.0.2, SVG Export Plug-In . SVG Version: 6.00 Build 0)  -->
<svg version="1.1" id="Capa_1" xmlns="http://www.w3.org/2000/svg" xmlns:xlink="http://www.w3.org/1999/xlink" x="0px" y="0px"
	 viewBox="0 0 32.6 32.6" style="enable-background:new 0 0 32.6 32.6;" xml:space="preserve">
<style type="text/css">
	.st0{fill:#00E5E5;}
</style>
<g>
	<path class="st0" d="M32.6,16.3c0,0.3-0.2,0.5-0.5,0.5H0.5c-0.3,0-0.5-0.2-0.5-0.5s0.2-0.5,0.5-0.5h31.6
		C32.4,15.8,32.6,16,32.6,16.3z"/>
	<path class="st0" d="M32.6,16.3L32.6,16.3c0,0.1-0.1,0.3-0.1,0.4L20,29.2c-0.2,0.2-0.5,0.2-0.7,0c-0.2-0.2-0.2-0.5,0-0.7l12.2-12.2
		L19.3,4.1c-0.2-0.2-0.2-0.5,0-0.7s0.5-0.2,0.7,0l12.5,12.5C32.6,16,32.6,16.2,32.6,16.3z"/>
</g>
</svg>
