<?xml version="1.0" encoding="utf-8"?>
<!-- Generator: Adobe Illustrator 21.1.0, SVG Export Plug-In . SVG Version: 6.00 Build 0)  -->
<!DOCTYPE svg PUBLIC "-//W3C//DTD SVG 1.1//EN" "http://www.w3.org/Graphics/SVG/1.1/DTD/svg11.dtd">
<svg version="1.1" id="Layer_1" xmlns="http://www.w3.org/2000/svg" xmlns:xlink="http://www.w3.org/1999/xlink" x="0px" y="0px"
	 viewBox="0 0 231.8 444.7" style="enable-background:new 0 0 231.8 444.7;" xml:space="preserve">
<style type="text/css">
	.st0{fill:url(#SVGID_1_);}
	.st1{fill:#3FD5AE;}
	.st2{fill:url(#SVGID_2_);}
	.st3{fill:#383642;}
	.st4{fill:#646569;}
	.st5{fill:url(#SVGID_3_);}
	.st6{fill:url(#SVGID_4_);}
	.st7{fill:url(#SVGID_5_);}
	.st8{fill:url(#SVGID_6_);}
	.st9{fill:url(#SVGID_7_);}
	.st10{fill:url(#SVGID_8_);}
	.st11{fill:url(#SVGID_9_);}
	.st12{fill:url(#SVGID_10_);}
	.st13{fill:url(#SVGID_11_);}
	.st14{fill:url(#SVGID_12_);}
	.st15{fill:url(#SVGID_13_);}
	.st16{fill:url(#SVGID_14_);}
	.st17{fill:url(#SVGID_15_);}
	.st18{fill:url(#SVGID_16_);}
	.st19{fill:url(#SVGID_17_);}
	.st20{fill:url(#SVGID_18_);}
	.st21{fill:url(#SVGID_19_);}
	.st22{fill:url(#SVGID_20_);}
	.st23{fill:url(#SVGID_21_);}
	.st24{fill:url(#SVGID_22_);}
	.st25{fill:url(#SVGID_23_);}
	.st26{fill:url(#SVGID_24_);}
	.st27{fill:url(#SVGID_25_);}
	.st28{fill:url(#SVGID_26_);}
	.st29{fill:url(#SVGID_27_);}
	.st30{fill:url(#SVGID_28_);}
	.st31{fill:url(#SVGID_29_);}
	.st32{fill:url(#SVGID_30_);}
	.st33{fill:url(#SVGID_31_);}
	.st34{fill:url(#SVGID_32_);}
	.st35{fill:url(#SVGID_33_);}
	.st36{fill:url(#SVGID_34_);}
	.st37{fill:url(#SVGID_35_);}
	.st38{fill:url(#SVGID_36_);}
	.st39{fill:none;stroke:#3FD5AE;stroke-width:6.1521;stroke-miterlimit:10;}
	.st40{fill:#AAAAAA;}
</style>
<g>
	
		<linearGradient id="SVGID_1_" gradientUnits="userSpaceOnUse" x1="2.8595" y1="115.75" x2="231.115" y2="115.75" gradientTransform="matrix(1 0 0 -1 0 392)">
		<stop  offset="0" style="stop-color:#000000"/>
		<stop  offset="0.5303" style="stop-color:#383642"/>
		<stop  offset="1" style="stop-color:#000000"/>
	</linearGradient>
	<rect x="6.1" y="114" class="st0" width="219.5" height="324.5"/>
	<path class="st1" d="M62.5,147.8c0,0-0.6,4.2,2.1,7.2s6.5-2.6,6.5-2.6s-1.1-0.6-1.8-2.1c-0.8-1.6-2.5-2.5-4.2-2.5L62.5,147.8
		L62.5,147.8z"/>
	<path class="st1" d="M163.2,147.8c0,0-1.4,2.1-2.8,4.3c-1.4,2.2,5.8,3,5.8,3s3.3-3.2,3.1-7.3"/>
	<path class="st1" d="M165.7,253.5h0.3c1.6,0,2.9-1.3,2.9-2.9v-49.1h-5.5v51.2C164,253.1,164.8,253.5,165.7,253.5z"/>
	<path class="st1" d="M66.1,253.5h-0.3c-1.6,0-2.9-1.3-2.9-2.9v-49.1h5.5v51.2C67.8,253.1,67,253.5,66.1,253.5z"/>
	<path class="st1" d="M66.1,198.6h-0.3c-1.6,0-2.9,1.3-2.9,2.9v49.1h5.5v-51.2C67.8,199,67,198.7,66.1,198.6z"/>
	<path class="st1" d="M165.8,198.6c-1,0-1.8,0.3-2.4,0.8v52l5.5-1.8v-47.9C168.9,200,167.5,198.6,165.8,198.6z"/>
	<g>
		<rect x="62.9" y="301.8" class="st1" width="5.5" height="51.1"/>
	</g>
	<g>
		<rect x="163.4" y="301.8" class="st1" width="5.5" height="51.1"/>
	</g>
	<g>
		
			<linearGradient id="SVGID_2_" gradientUnits="userSpaceOnUse" x1="65.7" y1="-12.05" x2="166.2" y2="-12.05" gradientTransform="matrix(1 0 0 -1 0 392)">
			<stop  offset="0" style="stop-color:#3FD5AE"/>
			<stop  offset="1" style="stop-color:#3FD5AE"/>
		</linearGradient>
		<rect x="65.7" y="401.3" class="st2" width="100.5" height="5.5"/>
	</g>
	<path class="st3" d="M0,107.8v336.8h86.4V107.8H0z M65.7,410.7c-3.7,0-6.7-3-6.7-6.7s3-6.7,6.7-6.7c3.7,0,6.7,3,6.7,6.7
		S69.3,410.7,65.7,410.7z M65.7,359.6c-3.7,0-6.7-3-6.7-6.7s3-6.7,6.7-6.7c3.7,0,6.7,3,6.7,6.7S69.3,359.6,65.7,359.6z M65.7,308.5
		c-3.7,0-6.7-3-6.7-6.7s3-6.7,6.7-6.7c3.7,0,6.7,3,6.7,6.7C72.3,305.5,69.3,308.5,65.7,308.5z M65.7,257.3c-3.7,0-6.7-3-6.7-6.7
		s3-6.7,6.7-6.7c3.7,0,6.7,3,6.7,6.7C72.3,254.3,69.3,257.3,65.7,257.3z M65.7,206.2c-3.7,0-6.7-3-6.7-6.7s3-6.7,6.7-6.7
		c3.7,0,6.7,3,6.7,6.7C72.3,203.2,69.3,206.2,65.7,206.2z M65.7,155.1c-3.7,0-6.7-3-6.7-6.7s3-6.7,6.7-6.7c3.7,0,6.7,3,6.7,6.7
		C72.3,152.1,69.3,155.1,65.7,155.1z"/>
	<path class="st4" d="M65.7,392.7c-6.2,0-11.3,5.1-11.3,11.3c0,6.2,5.1,11.3,11.3,11.3S77,410.2,77,404
		C76.9,397.8,71.9,392.7,65.7,392.7z M65.7,410.7c-3.7,0-6.7-3-6.7-6.7s3-6.7,6.7-6.7c3.7,0,6.7,3,6.7,6.7
		C72.3,407.7,69.3,410.7,65.7,410.7z"/>
	<path class="st4" d="M65.7,341.6c-6.2,0-11.3,5.1-11.3,11.3c0,6.2,5.1,11.3,11.3,11.3S77,359.1,77,352.9
		C76.9,346.7,71.9,341.6,65.7,341.6z M65.7,359.6c-3.7,0-6.7-3-6.7-6.7s3-6.7,6.7-6.7c3.7,0,6.7,3,6.7,6.7
		C72.3,356.6,69.3,359.6,65.7,359.6z"/>
	<path class="st4" d="M65.7,290.5c-6.2,0-11.3,5.1-11.3,11.3s5.1,11.3,11.3,11.3S77,308,77,301.8S71.9,290.5,65.7,290.5z
		 M65.7,308.5c-3.7,0-6.7-3-6.7-6.7s3-6.7,6.7-6.7c3.7,0,6.7,3,6.7,6.7S69.3,308.5,65.7,308.5z"/>
	<path class="st4" d="M65.7,239.4c-6.2,0-11.3,5.1-11.3,11.3S59.5,262,65.7,262S77,256.9,77,250.7C76.9,244.4,71.9,239.4,65.7,239.4
		z M65.7,257.3c-3.7,0-6.7-3-6.7-6.7s3-6.7,6.7-6.7c3.7,0,6.7,3,6.7,6.7C72.3,254.3,69.3,257.3,65.7,257.3z"/>
	<path class="st4" d="M65.7,188.3c-6.2,0-11.3,5.1-11.3,11.3s5.1,11.3,11.3,11.3S77,205.8,77,199.6S71.9,188.3,65.7,188.3z
		 M65.7,206.2c-3.7,0-6.7-3-6.7-6.7s3-6.7,6.7-6.7c3.7,0,6.7,3,6.7,6.7S69.3,206.2,65.7,206.2z"/>
	<path class="st4" d="M65.7,137.1c-6.2,0-11.3,5.1-11.3,11.3s5.1,11.3,11.3,11.3S77,154.6,77,148.4
		C76.9,142.2,71.9,137.1,65.7,137.1z M65.7,155.1c-3.7,0-6.7-3-6.7-6.7s3-6.7,6.7-6.7c3.7,0,6.7,3,6.7,6.7
		C72.3,152.1,69.3,155.1,65.7,155.1z"/>
	<path class="st3" d="M231.8,444.7V107.8h-86.4v336.8h86.4L231.8,444.7L231.8,444.7z M166.1,141.8c3.7,0,6.7,3,6.7,6.7
		s-3,6.7-6.7,6.7s-6.7-3-6.7-6.7S162.5,141.8,166.1,141.8z M166.1,192.9c3.7,0,6.7,3,6.7,6.7s-3,6.7-6.7,6.7s-6.7-3-6.7-6.7
		C159.5,195.9,162.5,192.9,166.1,192.9z M166.1,244c3.7,0,6.7,3,6.7,6.7s-3,6.7-6.7,6.7s-6.7-3-6.7-6.7
		C159.5,247,162.5,244,166.1,244z M166.1,295.1c3.7,0,6.7,3,6.7,6.7s-3,6.7-6.7,6.7s-6.7-3-6.7-6.7
		C159.5,298.1,162.5,295.1,166.1,295.1z M166.1,346.2c3.7,0,6.7,3,6.7,6.7s-3,6.7-6.7,6.7s-6.7-3-6.7-6.7
		C159.5,349.2,162.5,346.2,166.1,346.2z M166.1,397.4c3.7,0,6.7,3,6.7,6.7s-3,6.7-6.7,6.7s-6.7-3-6.7-6.7
		C159.5,400.3,162.5,397.4,166.1,397.4z"/>
	<path class="st4" d="M166.1,159.7c6.2,0,11.3-5.1,11.3-11.3s-5.1-11.3-11.3-11.3s-11.3,5.1-11.3,11.3
		C154.9,154.7,159.9,159.7,166.1,159.7z M166.1,141.8c3.7,0,6.7,3,6.7,6.7s-3,6.7-6.7,6.7s-6.7-3-6.7-6.7
		C159.5,144.7,162.5,141.8,166.1,141.8z"/>
	<path class="st4" d="M166.1,210.8c6.2,0,11.3-5.1,11.3-11.3s-5.1-11.3-11.3-11.3s-11.3,5.1-11.3,11.3
		C154.9,205.8,159.9,210.8,166.1,210.8z M166.1,192.9c3.7,0,6.7,3,6.7,6.7s-3,6.7-6.7,6.7s-6.7-3-6.7-6.7
		C159.5,195.9,162.5,192.9,166.1,192.9z"/>
	<path class="st4" d="M166.1,262c6.2,0,11.3-5.1,11.3-11.3s-5.1-11.3-11.3-11.3s-11.3,5.1-11.3,11.3S159.9,262,166.1,262z
		 M166.1,244c3.7,0,6.7,3,6.7,6.7s-3,6.7-6.7,6.7s-6.7-3-6.7-6.7S162.5,244,166.1,244z"/>
	<path class="st4" d="M166.1,313.1c6.2,0,11.3-5.1,11.3-11.3s-5.1-11.3-11.3-11.3s-11.3,5.1-11.3,11.3S159.9,313.1,166.1,313.1z
		 M166.1,295.1c3.7,0,6.7,3,6.7,6.7s-3,6.7-6.7,6.7s-6.7-3-6.7-6.7S162.5,295.1,166.1,295.1z"/>
	<path class="st4" d="M166.1,364.2c6.2,0,11.3-5.1,11.3-11.3s-5.1-11.3-11.3-11.3s-11.3,5.1-11.3,11.3S159.9,364.2,166.1,364.2z
		 M166.1,346.2c3.7,0,6.7,3,6.7,6.7s-3,6.7-6.7,6.7s-6.7-3-6.7-6.7S162.5,346.2,166.1,346.2z"/>
	<path class="st4" d="M166.1,415.3c6.2,0,11.3-5.1,11.3-11.3c0-6.2-5.1-11.3-11.3-11.3s-11.3,5.1-11.3,11.3
		C154.9,410.3,159.9,415.3,166.1,415.3z M166.1,397.4c3.7,0,6.7,3,6.7,6.7s-3,6.7-6.7,6.7s-6.7-3-6.7-6.7S162.5,397.4,166.1,397.4z"
		/>
	<g>
		<polygon class="st1" points="68,405.5 63.3,402.5 164.3,248.4 168.4,252.3 		"/>
	</g>
	<g>
		<polygon class="st1" points="163.8,405.5 115.9,332.4 119.2,327.3 168.5,402.5 		"/>
	</g>
	<g>
		<polygon class="st1" points="163.9,303.4 149.4,281.3 152.7,276.2 168.5,300.3 		"/>
	</g>
	<g>
		<polygon class="st1" points="112.6,327.3 63.3,252.2 68,249.2 115.9,322.3 		"/>
	</g>
	<g>
		<polygon class="st1" points="146.1,276.2 86.4,185.2 86.4,175.1 149.4,271.2 		"/>
	</g>
	<g>
		<polygon class="st1" points="102.5,250.7 98.5,246.7 145.4,175.1 145.4,185.2 		"/>
	</g>
	<g>
		<polygon class="st1" points="68,303.3 63.3,300.3 95.8,250.7 99.2,255.7 		"/>
	</g>
	<path class="st1" d="M164.1,199c-1,0.4-1.7,1.1-2.1,1.7l-0.5,0.7l0,0l0,0l-41.3,63.1l-56.9,87l4.6,3l100.5-153.4L164.1,199z"/>
	<path class="st1" d="M70.2,201.4L70.2,201.4C70.2,201.4,70.1,201.4,70.2,201.4l-0.4-0.6c-0.5-0.7-1.4-1.7-2.8-2l-3.5,2.3L164,354.5
		l4.6-3L70.2,201.4z"/>
	<path class="st1" d="M62.9,301.8c0,0,0-0.8,0.5-1.5l3.7,0.8l-0.6,1.8L62.9,301.8z"/>
	<path class="st1" d="M168.5,300.3c0,0,0.4,0.4,0.4,1.4s-3.5,0.6-3.5,0.6l-0.2-1.8L168.5,300.3z"/>
	<circle class="st1" cx="65.7" cy="352.9" r="2.8"/>
	<circle class="st1" cx="166.2" cy="352.9" r="2.8"/>
	<circle class="st1" cx="65.7" cy="404" r="2.8"/>
	<circle class="st1" cx="166.1" cy="404" r="2.8"/>
	<g>
		<polygon class="st1" points="112.6,327.3 82.3,281.4 85.7,276.2 115.9,322.3 		"/>
	</g>
	<polygon class="st1" points="120.5,264.2 124.2,268.6 112.1,287 108.7,282.1 	"/>
	<polygon class="st1" points="126.4,246.1 136.5,261.6 138.1,253.9 129.6,241 	"/>
	
		<linearGradient id="SVGID_3_" gradientUnits="userSpaceOnUse" x1="148.6486" y1="-12.05" x2="141.8365" y2="-12.05" gradientTransform="matrix(1 0 0 -1 0 392)">
		<stop  offset="0" style="stop-color:#383642"/>
		<stop  offset="1" style="stop-color:#383642;stop-opacity:0"/>
	</linearGradient>
	<rect x="139.5" y="401.3" class="st5" width="5.9" height="5.5"/>
	
		<linearGradient id="SVGID_4_" gradientUnits="userSpaceOnUse" x1="83.0188" y1="-11.95" x2="91.6486" y2="-11.95" gradientTransform="matrix(1 0 0 -1 0 392)">
		<stop  offset="0" style="stop-color:#383642"/>
		<stop  offset="1" style="stop-color:#383642;stop-opacity:0"/>
	</linearGradient>
	<rect x="86.4" y="401.2" class="st6" width="5.2" height="5.5"/>
	
		<linearGradient id="SVGID_5_" gradientUnits="userSpaceOnUse" x1="74.3729" y1="-11.5755" x2="68.5125" y2="-12.3721" gradientTransform="matrix(1 0 0 -1 0 392)">
		<stop  offset="0" style="stop-color:#383642"/>
		<stop  offset="1" style="stop-color:#383642;stop-opacity:0"/>
	</linearGradient>
	<path class="st7" d="M68,405.4v1.4h3.7c0.4-0.8,0.6-1.8,0.6-2.8s-0.2-1.9-0.6-2.8h-0.9L68,405.4z"/>
	
		<linearGradient id="SVGID_6_" gradientUnits="userSpaceOnUse" x1="-5510.0225" y1="-11.5753" x2="-5515.8828" y2="-12.3719" gradientTransform="matrix(-1 0 0 -1 -5352.5967 392)">
		<stop  offset="0" style="stop-color:#383642"/>
		<stop  offset="1" style="stop-color:#383642;stop-opacity:0"/>
	</linearGradient>
	<path class="st8" d="M163.8,405.4v1.4h-3.7c-0.4-0.8-0.6-1.8-0.6-2.8s0.2-1.9,0.6-2.8h0.9L163.8,405.4z"/>
	
		<linearGradient id="SVGID_7_" gradientUnits="userSpaceOnUse" x1="167" y1="46.4846" x2="167" y2="42.4714" gradientTransform="matrix(1 0 0 -1 0 392)">
		<stop  offset="0" style="stop-color:#383642"/>
		<stop  offset="1" style="stop-color:#383642;stop-opacity:0"/>
	</linearGradient>
	<path class="st9" d="M165.1,346.3l3.8,5.7v-5.2c-0.8-0.4-1.8-0.6-2.8-0.6C165.8,346.2,165.5,346.3,165.1,346.3z"/>
	
		<linearGradient id="SVGID_8_" gradientUnits="userSpaceOnUse" x1="-5686.6255" y1="46.5009" x2="-5686.6255" y2="42.4877" gradientTransform="matrix(-1 0 0 -1 -5621.8257 392)">
		<stop  offset="0" style="stop-color:#383642"/>
		<stop  offset="1" style="stop-color:#383642;stop-opacity:0"/>
	</linearGradient>
	<path class="st10" d="M66.7,346.3l-3.8,5.7v-5.2c0.8-0.4,1.8-0.6,2.8-0.6C66,346.2,66.3,346.3,66.7,346.3z"/>
	
		<linearGradient id="SVGID_9_" gradientUnits="userSpaceOnUse" x1="116.1561" y1="64.5951" x2="120.4011" y2="57.6595" gradientTransform="matrix(1 0 0 -1 0 392)">
		<stop  offset="0" style="stop-color:#383642"/>
		<stop  offset="1" style="stop-color:#383642;stop-opacity:0"/>
	</linearGradient>
	<polygon class="st11" points="115.9,332.4 119.2,327.3 123.2,333.5 120.1,338.8 	"/>
	
		<linearGradient id="SVGID_10_" gradientUnits="userSpaceOnUse" x1="115.4407" y1="64.1756" x2="111.6022" y2="71.287" gradientTransform="matrix(1 0 0 -1 0 392)">
		<stop  offset="0" style="stop-color:#383642"/>
		<stop  offset="1" style="stop-color:#383642;stop-opacity:0"/>
	</linearGradient>
	<polygon class="st12" points="115.9,322.3 112.6,327.3 108.1,320.6 111.5,315.6 	"/>
	
		<linearGradient id="SVGID_11_" gradientUnits="userSpaceOnUse" x1="98.2028" y1="90.2117" x2="95.4771" y2="84.5968" gradientTransform="matrix(1 0 0 -1 0 392)">
		<stop  offset="0" style="stop-color:#383642"/>
		<stop  offset="1" style="stop-color:#383642;stop-opacity:0"/>
	</linearGradient>
	<polygon class="st13" points="95.8,301.8 99.1,306.9 96.7,310.5 92.1,307.4 	"/>
	
		<linearGradient id="SVGID_12_" gradientUnits="userSpaceOnUse" x1="99.0101" y1="89.8013" x2="102.5711" y2="95.3765" gradientTransform="matrix(1 0 0 -1 0 392)">
		<stop  offset="0" style="stop-color:#383642"/>
		<stop  offset="1" style="stop-color:#383642;stop-opacity:0"/>
	</linearGradient>
	<polygon class="st14" points="99.2,296.7 102.5,301.7 106.1,296.3 102.5,291.6 	"/>
	
		<linearGradient id="SVGID_13_" gradientUnits="userSpaceOnUse" x1="62.9427" y1="82.0612" x2="65.6616" y2="86.3181" gradientTransform="matrix(1 0 0 -1 0 392)">
		<stop  offset="0" style="stop-color:#383642"/>
		<stop  offset="1" style="stop-color:#383642;stop-opacity:0"/>
	</linearGradient>
	<path class="st15" d="M68.4,307.8v-4.2h-5.5v4.2c0.8,0.4,1.8,0.6,2.8,0.6C66.6,308.5,67.6,308.2,68.4,307.8z"/>
	
		<linearGradient id="SVGID_14_" gradientUnits="userSpaceOnUse" x1="-5596.2285" y1="82.0168" x2="-5593.5098" y2="86.2737" gradientTransform="matrix(-1 0 0 -1 -5427.4067 392)">
		<stop  offset="0" style="stop-color:#383642"/>
		<stop  offset="1" style="stop-color:#383642;stop-opacity:0"/>
	</linearGradient>
	<path class="st16" d="M163.4,307.9v-4.2h5.5v4.2c-0.8,0.4-1.8,0.6-2.8,0.6C165.2,308.5,164.2,308.3,163.4,307.9z"/>
	
		<linearGradient id="SVGID_15_" gradientUnits="userSpaceOnUse" x1="-5664.9238" y1="1702.1941" x2="-5662.2051" y2="1706.4509" gradientTransform="matrix(-1 0 0 1 -5496.0669 -1459.6323)">
		<stop  offset="0" style="stop-color:#383642"/>
		<stop  offset="1" style="stop-color:#383642;stop-opacity:0"/>
	</linearGradient>
	<path class="st17" d="M163.4,244.7v4.2h5.5v-4.2c-0.8-0.4-1.8-0.6-2.8-0.6C165.2,244,164.2,244.3,163.4,244.7z"/>
	
		<linearGradient id="SVGID_16_" gradientUnits="userSpaceOnUse" x1="131.6373" y1="1702.1476" x2="134.3561" y2="1706.4044" gradientTransform="matrix(1 0 0 1 -68.6601 -1459.6323)">
		<stop  offset="0" style="stop-color:#383642"/>
		<stop  offset="1" style="stop-color:#383642;stop-opacity:0"/>
	</linearGradient>
	<path class="st18" d="M68.4,244.6v4.2h-5.5v-4.2c0.8-0.4,1.8-0.6,2.8-0.6C66.6,244,67.6,244.2,68.4,244.6z"/>
	
		<linearGradient id="SVGID_17_" gradientUnits="userSpaceOnUse" x1="132.0089" y1="90.201" x2="129.175" y2="84.9959" gradientTransform="matrix(1 0 0 -1 0 392)">
		<stop  offset="0" style="stop-color:#383642"/>
		<stop  offset="1" style="stop-color:#383642;stop-opacity:0"/>
	</linearGradient>
	<polygon class="st19" points="129.3,301.8 132.6,306.8 130.1,310.7 125.7,307.3 	"/>
	
		<linearGradient id="SVGID_18_" gradientUnits="userSpaceOnUse" x1="132.6479" y1="89.6465" x2="136.1308" y2="95.5481" gradientTransform="matrix(1 0 0 -1 0 392)">
		<stop  offset="0" style="stop-color:#383642"/>
		<stop  offset="1" style="stop-color:#383642;stop-opacity:0"/>
	</linearGradient>
	<polygon class="st20" points="132.6,296.7 135.9,301.8 139.9,295.8 135.9,291.8 	"/>
	
		<linearGradient id="SVGID_19_" gradientUnits="userSpaceOnUse" x1="115.7088" y1="115.5514" x2="120.7014" y2="108.6515" gradientTransform="matrix(1 0 0 -1 0 392)">
		<stop  offset="0" style="stop-color:#383642"/>
		<stop  offset="0.6864" style="stop-color:#383642;stop-opacity:0.3136"/>
		<stop  offset="1" style="stop-color:#383642;stop-opacity:0"/>
	</linearGradient>
	<polygon class="st21" points="115.9,281.3 119.2,276.2 122.8,281.8 119.6,286.9 	"/>
	
		<linearGradient id="SVGID_20_" gradientUnits="userSpaceOnUse" x1="115.724" y1="114.6187" x2="111.9655" y2="121.8553" gradientTransform="matrix(1 0 0 -1 0 392)">
		<stop  offset="0" style="stop-color:#383642"/>
		<stop  offset="1" style="stop-color:#383642;stop-opacity:0"/>
	</linearGradient>
	<polygon class="st22" points="115.9,271.2 112.6,276.2 108.4,269.8 111.9,265.1 	"/>
	
		<linearGradient id="SVGID_21_" gradientUnits="userSpaceOnUse" x1="148.8472" y1="115.9184" x2="153.5668" y2="109.5872" gradientTransform="matrix(1 0 0 -1 0 392)">
		<stop  offset="0" style="stop-color:#383642"/>
		<stop  offset="1" style="stop-color:#383642;stop-opacity:0"/>
	</linearGradient>
	<polygon class="st23" points="152.7,276.2 149.4,281.3 152.7,286.3 156.2,281.6 	"/>
	
		<linearGradient id="SVGID_22_" gradientUnits="userSpaceOnUse" x1="149.7419" y1="114.9618" x2="145.5508" y2="121.6476" gradientTransform="matrix(1 0 0 -1 0 392)">
		<stop  offset="0" style="stop-color:#383642"/>
		<stop  offset="1" style="stop-color:#383642;stop-opacity:0"/>
	</linearGradient>
	<polygon class="st24" points="146.1,276.2 149.4,271.2 145.2,264.8 142.2,270.3 	"/>
	
		<linearGradient id="SVGID_23_" gradientUnits="userSpaceOnUse" x1="82.0588" y1="116.5058" x2="87.339" y2="108.1855" gradientTransform="matrix(1 0 0 -1 0 392)">
		<stop  offset="0" style="stop-color:#383642"/>
		<stop  offset="1" style="stop-color:#383642;stop-opacity:0"/>
	</linearGradient>
	<polygon class="st25" points="85.7,276.2 82.3,281.4 86.9,288.2 90.9,283.9 	"/>
	
		<linearGradient id="SVGID_24_" gradientUnits="userSpaceOnUse" x1="82.4101" y1="115.3569" x2="78.1533" y2="122.2467" gradientTransform="matrix(1 0 0 -1 0 392)">
		<stop  offset="0" style="stop-color:#383642"/>
		<stop  offset="1" style="stop-color:#383642;stop-opacity:0"/>
	</linearGradient>
	<polygon class="st26" points="79.1,276.2 82.4,271.2 78.9,265.9 75.2,270.4 	"/>
	
		<linearGradient id="SVGID_25_" gradientUnits="userSpaceOnUse" x1="99.6364" y1="142.0017" x2="94.7583" y2="134.6315" gradientTransform="matrix(1 0 0 -1 0 392)">
		<stop  offset="0" style="stop-color:#383642"/>
		<stop  offset="1" style="stop-color:#383642;stop-opacity:0"/>
	</linearGradient>
	<polygon class="st27" points="95.8,250.7 99.2,255.7 94.8,262.4 90.7,258.5 	"/>
	
		<linearGradient id="SVGID_26_" gradientUnits="userSpaceOnUse" x1="99.5044" y1="140.1019" x2="103.2361" y2="147.9293" gradientTransform="matrix(1 0 0 -1 0 392)">
		<stop  offset="0" style="stop-color:#383642"/>
		<stop  offset="1" style="stop-color:#383642;stop-opacity:0"/>
	</linearGradient>
	<polygon class="st28" points="99.2,245.6 102.5,250.7 106.1,245 101.7,241.7 	"/>
	
		<linearGradient id="SVGID_27_" gradientUnits="userSpaceOnUse" x1="131.726" y1="141.9805" x2="129.1409" y2="136.3077" gradientTransform="matrix(1 0 0 -1 0 392)">
		<stop  offset="0" style="stop-color:#383642"/>
		<stop  offset="1" style="stop-color:#383642;stop-opacity:0"/>
	</linearGradient>
	<polygon class="st29" points="129.3,250.7 132.6,255.7 129,261.3 124.9,257.4 	"/>
	
		<linearGradient id="SVGID_28_" gradientUnits="userSpaceOnUse" x1="131.9991" y1="140.8411" x2="136.9634" y2="147.6941" gradientTransform="matrix(1 0 0 -1 0 392)">
		<stop  offset="0" style="stop-color:#383642"/>
		<stop  offset="1" style="stop-color:#383642;stop-opacity:0"/>
	</linearGradient>
	<polygon class="st30" points="132.6,245.6 136,250.7 139.9,244.7 135.4,241.4 	"/>
	
		<linearGradient id="SVGID_29_" gradientUnits="userSpaceOnUse" x1="114.9233" y1="167.6328" x2="120.8654" y2="159.5823" gradientTransform="matrix(1 0 0 -1 0 392)">
		<stop  offset="0" style="stop-color:#383642"/>
		<stop  offset="1" style="stop-color:#383642;stop-opacity:0"/>
	</linearGradient>
	<polygon class="st31" points="119.2,225.1 115.9,230.2 119.7,235.9 123.3,231.3 	"/>
	
		<linearGradient id="SVGID_30_" gradientUnits="userSpaceOnUse" x1="116.2818" y1="166.9174" x2="111.6212" y2="173.2818" gradientTransform="matrix(1 0 0 -1 0 392)">
		<stop  offset="0" style="stop-color:#383642"/>
		<stop  offset="1" style="stop-color:#383642;stop-opacity:0"/>
	</linearGradient>
	<polygon class="st32" points="112.6,225.1 115.9,220.1 112.3,214.6 108.7,219.1 	"/>
	
		<linearGradient id="SVGID_31_" gradientUnits="userSpaceOnUse" x1="65.7126" y1="184.9537" x2="62.4982" y2="189.3432" gradientTransform="matrix(1 0 0 -1 0 392)">
		<stop  offset="0" style="stop-color:#383642"/>
		<stop  offset="1" style="stop-color:#383642;stop-opacity:0"/>
	</linearGradient>
	<path class="st33" d="M66.7,206.1l-3.8-4.7v4.1c0.8,0.4,1.8,0.6,2.8,0.6C66,206.2,66.3,206.2,66.7,206.1z"/>
	
		<linearGradient id="SVGID_32_" gradientUnits="userSpaceOnUse" x1="-5496.3628" y1="184.9525" x2="-5499.5771" y2="189.342" gradientTransform="matrix(-1 0 0 -1 -5330.2764 392)">
		<stop  offset="0" style="stop-color:#383642"/>
		<stop  offset="1" style="stop-color:#383642;stop-opacity:0"/>
	</linearGradient>
	<path class="st34" d="M165.1,206.1l3.8-4.7v4.1c-0.8,0.4-1.8,0.6-2.8,0.6C165.8,206.2,165.5,206.2,165.1,206.1z"/>
	
		<linearGradient id="SVGID_33_" gradientUnits="userSpaceOnUse" x1="148.0928" y1="213.8208" x2="143.5899" y2="209.236" gradientTransform="matrix(1 0 0 -1 0 392)">
		<stop  offset="0" style="stop-color:#383642"/>
		<stop  offset="1" style="stop-color:#383642;stop-opacity:0"/>
	</linearGradient>
	<polygon class="st35" points="145.4,175.1 145.4,185.2 142.2,190 139.9,183.4 	"/>
	
		<linearGradient id="SVGID_34_" gradientUnits="userSpaceOnUse" x1="83.3236" y1="211.2733" x2="91.1403" y2="207.2389" gradientTransform="matrix(1 0 0 -1 0 392)">
		<stop  offset="0" style="stop-color:#383642"/>
		<stop  offset="1" style="stop-color:#383642;stop-opacity:0"/>
	</linearGradient>
	<polygon class="st36" points="86.4,175.1 86.4,185.2 90.8,191.8 92.8,184.8 	"/>
	
		<linearGradient id="SVGID_35_" gradientUnits="userSpaceOnUse" x1="161.1645" y1="234.3815" x2="165.0471" y2="241.2837" gradientTransform="matrix(1 0 0 -1 0 392)">
		<stop  offset="0" style="stop-color:#383642"/>
		<stop  offset="1" style="stop-color:#383642;stop-opacity:0"/>
	</linearGradient>
	<polygon class="st37" points="162.7,148.3 159.4,153.6 165.4,157.2 169.7,149.6 	"/>
	<path class="st4" d="M174.4,148.9c-0.5,0-1.1,0-1.6-0.1c-0.2,3.5-3.1,6.3-6.6,6.3c-3.7,0-6.7-3-6.7-6.7c0-2.9,1.8-5.3,4.3-6.2
		c-0.7-1.4-1.1-2.9-1.2-4.5c-4.5,1.5-7.7,5.7-7.7,10.7c0,6.2,5.1,11.3,11.3,11.3s11.2-5,11.3-11.2
		C176.4,148.8,175.4,148.9,174.4,148.9z"/>
	
		<linearGradient id="SVGID_36_" gradientUnits="userSpaceOnUse" x1="70.6605" y1="233.2984" x2="66.9142" y2="239.5922" gradientTransform="matrix(1 0 0 -1 0 392)">
		<stop  offset="0" style="stop-color:#383642"/>
		<stop  offset="1" style="stop-color:#383642;stop-opacity:0"/>
	</linearGradient>
	<polygon class="st38" points="69.4,149.8 72.8,155.2 65.9,157.8 63.5,152.5 	"/>
	<path class="st4" d="M70.2,138.1c-0.3,1.5-1,3-1.9,4.2c2.4,1,4,3.4,4,6.1c0,3.7-3,6.7-6.7,6.7c-3.7,0-6.7-3-6.7-6.7
		c0-0.3,0-0.6,0.1-0.9c-0.2,0-0.4,0-0.6,0c-1.4,0-2.7-0.3-4-0.7c-0.1,0.5-0.1,1.1-0.1,1.6c0,6.2,5.1,11.3,11.3,11.3
		s11.3-5.1,11.3-11.3C76.9,143.8,74.1,139.8,70.2,138.1z"/>
</g>
<path class="st39" d="M66.8,152.5c0,0-22.6-37.6,8.1-102.4"/>
<g>
	<path class="st40" d="M76.3,47.9c-2.1-0.9-4.5,0-5.5,2.1L59.6,75.2l7.6,3.3l11.2-25.2C79.2,51.3,78.3,48.8,76.3,47.9z"/>
</g>
<path class="st39" d="M159.4,61.4c0,0,21.1,64.9,6,88.8"/>
<g>
	<path class="st40" d="M154.6,45.7c-2.2,0.7-3.4,2.9-2.9,5.1l7.8,26.5l8-2.4l-7.8-26.5C159.3,46.3,156.9,45,154.6,45.7z"/>
</g>
</svg>
