<?xml version="1.0" encoding="utf-8"?>
<!-- Generator: Adobe Illustrator 21.1.0, SVG Export Plug-In . SVG Version: 6.00 Build 0)  -->
<!DOCTYPE svg PUBLIC "-//W3C//DTD SVG 1.1//EN" "http://www.w3.org/Graphics/SVG/1.1/DTD/svg11.dtd">
<svg version="1.1" id="Layer_1" xmlns="http://www.w3.org/2000/svg" xmlns:xlink="http://www.w3.org/1999/xlink" x="0px" y="0px"
	 viewBox="0 0 231.8 444.7" style="enable-background:new 0 0 231.8 444.7;" xml:space="preserve">
<style type="text/css">
	.st0{fill:none;stroke:url(#SVGID_1_);stroke-width:6.1521;stroke-miterlimit:10;}
	.st1{fill:none;stroke:url(#SVGID_2_);stroke-width:6.1521;stroke-miterlimit:10;}
	.st2{fill:#AAAAAA;}
	.st3{fill:url(#SVGID_3_);}
	.st4{fill:none;stroke:url(#SVGID_4_);stroke-width:6.1521;stroke-miterlimit:10;}
	.st5{fill:none;stroke:url(#SVGID_5_);stroke-width:6.1521;stroke-miterlimit:10;}
	.st6{fill:none;stroke:url(#SVGID_6_);stroke-width:6.1521;stroke-miterlimit:10;}
	.st7{fill:none;stroke:url(#SVGID_7_);stroke-width:6.1521;stroke-miterlimit:10;}
	.st8{fill:none;stroke:url(#SVGID_8_);stroke-width:6.1521;stroke-miterlimit:10;}
	.st9{fill:#383642;}
	.st10{fill:#646569;}
	.st11{fill:#40A2D3;}
	.st12{fill:none;stroke:url(#SVGID_9_);stroke-width:6.1521;stroke-miterlimit:10;}
	.st13{fill:none;stroke:url(#SVGID_10_);stroke-width:6.1521;stroke-miterlimit:10;}
	.st14{fill:none;stroke:url(#SVGID_11_);stroke-width:6.1521;stroke-miterlimit:10;}
	.st15{fill:none;stroke:url(#SVGID_12_);stroke-width:6.1521;stroke-miterlimit:10;}
	.st16{fill:none;stroke:url(#SVGID_13_);stroke-width:6.1521;stroke-miterlimit:10;}
	.st17{fill:none;stroke:url(#SVGID_14_);stroke-width:6.1521;stroke-miterlimit:10;}
	.st18{fill:url(#SVGID_15_);}
	.st19{fill:url(#SVGID_16_);}
	.st20{fill:url(#SVGID_17_);}
	.st21{fill:url(#SVGID_18_);}
</style>
<linearGradient id="SVGID_1_" gradientUnits="userSpaceOnUse" x1="163.0852" y1="101.8448" x2="173.4319" y2="101.8448">
	<stop  offset="0" style="stop-color:#40A2D3"/>
	<stop  offset="1" style="stop-color:#40A2D3"/>
</linearGradient>
<path class="st0" d="M166.4,67.1c0,0,9.1,23.6-0.3,70"/>
<linearGradient id="SVGID_2_" gradientUnits="userSpaceOnUse" x1="59.9619" y1="103.8221" x2="77.4302" y2="103.8221">
	<stop  offset="0" style="stop-color:#40A2D3"/>
	<stop  offset="1" style="stop-color:#40A2D3"/>
</linearGradient>
<path class="st1" d="M74.8,67.1c0,0-18.5,28.9-9.1,74.5"/>
<g>
	<g>
		<path class="st2" d="M84.9,49.8c-2-1.1-4.5-0.3-5.6,1.6L66.2,75.7l7.3,3.9l13.1-24.3C87.6,53.4,86.8,50.8,84.9,49.8z"/>
	</g>
	<g>
		<path class="st2" d="M159.9,48.7c-2.2,0.7-3.4,2.9-2.8,5.2l8,26.4l7.9-2.4l-8-26.4C164.5,49.3,162.1,48,159.9,48.7z"/>
	</g>
	
		<linearGradient id="SVGID_3_" gradientUnits="userSpaceOnUse" x1="2.8984" y1="329.55" x2="231.1539" y2="329.55" gradientTransform="matrix(1 0 0 1 0 -54)">
		<stop  offset="0" style="stop-color:#000000"/>
		<stop  offset="0.5303" style="stop-color:#383642"/>
		<stop  offset="1" style="stop-color:#000000"/>
	</linearGradient>
	<rect x="6.2" y="113.3" class="st3" width="219.5" height="324.5"/>
	
		<linearGradient id="SVGID_4_" gradientUnits="userSpaceOnUse" x1="64.1091" y1="381.35" x2="167.6909" y2="381.35" gradientTransform="matrix(1 0 0 1 0 -54)">
		<stop  offset="0" style="stop-color:#40A2D3"/>
		<stop  offset="1" style="stop-color:#40A2D3"/>
	</linearGradient>
	<line class="st4" x1="65.5" y1="352.9" x2="166.3" y2="301.8"/>
	
		<linearGradient id="SVGID_5_" gradientUnits="userSpaceOnUse" x1="64.1069" y1="381.35" x2="167.4931" y2="381.35" gradientTransform="matrix(1 0 0 1 0 -54)">
		<stop  offset="0" style="stop-color:#40A2D3"/>
		<stop  offset="1" style="stop-color:#40A2D3"/>
	</linearGradient>
	<line class="st5" x1="65.5" y1="301.8" x2="166.1" y2="352.9"/>
	
		<linearGradient id="SVGID_6_" gradientUnits="userSpaceOnUse" x1="64.1091" y1="279.35" x2="167.6909" y2="279.35" gradientTransform="matrix(1 0 0 1 0 -54)">
		<stop  offset="0" style="stop-color:#40A2D3"/>
		<stop  offset="1" style="stop-color:#40A2D3"/>
	</linearGradient>
	<line class="st6" x1="65.5" y1="250.9" x2="166.3" y2="199.8"/>
	
		<linearGradient id="SVGID_7_" gradientUnits="userSpaceOnUse" x1="64.1069" y1="279.35" x2="167.4931" y2="279.35" gradientTransform="matrix(1 0 0 1 0 -54)">
		<stop  offset="0" style="stop-color:#40A2D3"/>
		<stop  offset="1" style="stop-color:#40A2D3"/>
	</linearGradient>
	<line class="st7" x1="65.5" y1="199.8" x2="166.1" y2="250.9"/>
	
		<linearGradient id="SVGID_8_" gradientUnits="userSpaceOnUse" x1="65.5" y1="457.9" x2="166.3" y2="457.9" gradientTransform="matrix(1 0 0 1 0 -54)">
		<stop  offset="0" style="stop-color:#40A2D3"/>
		<stop  offset="1" style="stop-color:#40A2D3"/>
	</linearGradient>
	<line class="st8" x1="65.5" y1="403.9" x2="166.3" y2="403.9"/>
	<g>
		<path class="st9" d="M0,107.8v336.8h86.4V107.8H0z M65.7,410.7c-3.7,0-6.7-3-6.7-6.7s3-6.7,6.7-6.7c3.7,0,6.7,3,6.7,6.7
			S69.3,410.7,65.7,410.7z M65.7,359.6c-3.7,0-6.7-3-6.7-6.7s3-6.7,6.7-6.7c3.7,0,6.7,3,6.7,6.7S69.3,359.6,65.7,359.6z M65.7,308.5
			c-3.7,0-6.7-3-6.7-6.7s3-6.7,6.7-6.7c3.7,0,6.7,3,6.7,6.7C72.3,305.5,69.3,308.5,65.7,308.5z M65.7,257.3c-3.7,0-6.7-3-6.7-6.7
			s3-6.7,6.7-6.7c3.7,0,6.7,3,6.7,6.7C72.3,254.3,69.3,257.3,65.7,257.3z M65.7,206.2c-3.7,0-6.7-3-6.7-6.7s3-6.7,6.7-6.7
			c3.7,0,6.7,3,6.7,6.7C72.3,203.2,69.3,206.2,65.7,206.2z M65.7,155.1c-3.7,0-6.7-3-6.7-6.7s3-6.7,6.7-6.7c3.7,0,6.7,3,6.7,6.7
			C72.3,152.1,69.3,155.1,65.7,155.1z"/>
	</g>
	<g>
		<path class="st10" d="M65.7,392.7c-6.2,0-11.3,5.1-11.3,11.3c0,6.2,5.1,11.3,11.3,11.3S77,410.2,77,404
			C76.9,397.8,71.9,392.7,65.7,392.7z M65.7,410.7c-3.7,0-6.7-3-6.7-6.7s3-6.7,6.7-6.7c3.7,0,6.7,3,6.7,6.7
			C72.3,407.7,69.3,410.7,65.7,410.7z"/>
	</g>
	<g>
		<path class="st10" d="M65.7,341.6c-6.2,0-11.3,5.1-11.3,11.3c0,6.2,5.1,11.3,11.3,11.3S77,359.1,77,352.9
			C76.9,346.7,71.9,341.6,65.7,341.6z M65.7,359.6c-3.7,0-6.7-3-6.7-6.7s3-6.7,6.7-6.7c3.7,0,6.7,3,6.7,6.7
			C72.3,356.6,69.3,359.6,65.7,359.6z"/>
	</g>
	<g>
		<path class="st10" d="M65.7,290.5c-6.2,0-11.3,5.1-11.3,11.3s5.1,11.3,11.3,11.3S77,308,77,301.8S71.9,290.5,65.7,290.5z
			 M65.7,308.5c-3.7,0-6.7-3-6.7-6.7s3-6.7,6.7-6.7c3.7,0,6.7,3,6.7,6.7S69.3,308.5,65.7,308.5z"/>
	</g>
	<g>
		<path class="st10" d="M65.7,239.4c-6.2,0-11.3,5.1-11.3,11.3S59.5,262,65.7,262S77,256.9,77,250.7
			C76.9,244.4,71.9,239.4,65.7,239.4z M65.7,257.3c-3.7,0-6.7-3-6.7-6.7s3-6.7,6.7-6.7c3.7,0,6.7,3,6.7,6.7
			C72.3,254.3,69.3,257.3,65.7,257.3z"/>
	</g>
	<g>
		<path class="st10" d="M65.7,188.3c-6.2,0-11.3,5.1-11.3,11.3s5.1,11.3,11.3,11.3S77,205.8,77,199.6S71.9,188.3,65.7,188.3z
			 M65.7,206.2c-3.7,0-6.7-3-6.7-6.7s3-6.7,6.7-6.7c3.7,0,6.7,3,6.7,6.7S69.3,206.2,65.7,206.2z"/>
	</g>
	<g>
		<path class="st10" d="M65.7,137.1c-6.2,0-11.3,5.1-11.3,11.3s5.1,11.3,11.3,11.3S77,154.6,77,148.4
			C76.9,142.2,71.9,137.1,65.7,137.1z M65.7,155.1c-3.7,0-6.7-3-6.7-6.7s3-6.7,6.7-6.7c3.7,0,6.7,3,6.7,6.7
			C72.3,152.1,69.3,155.1,65.7,155.1z"/>
	</g>
	<g>
		<path class="st9" d="M231.8,444.7V107.8h-86.4v336.8h86.4L231.8,444.7L231.8,444.7z M166.1,141.8c3.7,0,6.7,3,6.7,6.7
			s-3,6.7-6.7,6.7s-6.7-3-6.7-6.7S162.5,141.8,166.1,141.8z M166.1,192.9c3.7,0,6.7,3,6.7,6.7s-3,6.7-6.7,6.7s-6.7-3-6.7-6.7
			C159.5,195.9,162.5,192.9,166.1,192.9z M166.1,244c3.7,0,6.7,3,6.7,6.7s-3,6.7-6.7,6.7s-6.7-3-6.7-6.7
			C159.5,247,162.5,244,166.1,244z M166.1,295.1c3.7,0,6.7,3,6.7,6.7s-3,6.7-6.7,6.7s-6.7-3-6.7-6.7
			C159.5,298.1,162.5,295.1,166.1,295.1z M166.1,346.2c3.7,0,6.7,3,6.7,6.7s-3,6.7-6.7,6.7s-6.7-3-6.7-6.7
			C159.5,349.2,162.5,346.2,166.1,346.2z M166.1,397.4c3.7,0,6.7,3,6.7,6.7s-3,6.7-6.7,6.7s-6.7-3-6.7-6.7
			C159.5,400.3,162.5,397.4,166.1,397.4z"/>
	</g>
	<g>
		<path class="st10" d="M166.1,159.7c6.2,0,11.3-5.1,11.3-11.3s-5.1-11.3-11.3-11.3s-11.3,5.1-11.3,11.3
			C154.9,154.7,159.9,159.7,166.1,159.7z M166.1,141.8c3.7,0,6.7,3,6.7,6.7s-3,6.7-6.7,6.7s-6.7-3-6.7-6.7
			C159.5,144.7,162.5,141.8,166.1,141.8z"/>
	</g>
	<g>
		<path class="st10" d="M166.1,210.8c6.2,0,11.3-5.1,11.3-11.3s-5.1-11.3-11.3-11.3s-11.3,5.1-11.3,11.3
			C154.9,205.8,159.9,210.8,166.1,210.8z M166.1,192.9c3.7,0,6.7,3,6.7,6.7s-3,6.7-6.7,6.7s-6.7-3-6.7-6.7
			C159.5,195.9,162.5,192.9,166.1,192.9z"/>
	</g>
	<g>
		<path class="st10" d="M166.1,262c6.2,0,11.3-5.1,11.3-11.3s-5.1-11.3-11.3-11.3s-11.3,5.1-11.3,11.3S159.9,262,166.1,262z
			 M166.1,244c3.7,0,6.7,3,6.7,6.7s-3,6.7-6.7,6.7s-6.7-3-6.7-6.7S162.5,244,166.1,244z"/>
	</g>
	<g>
		<path class="st10" d="M166.1,313.1c6.2,0,11.3-5.1,11.3-11.3s-5.1-11.3-11.3-11.3s-11.3,5.1-11.3,11.3S159.9,313.1,166.1,313.1z
			 M166.1,295.1c3.7,0,6.7,3,6.7,6.7s-3,6.7-6.7,6.7s-6.7-3-6.7-6.7S162.5,295.1,166.1,295.1z"/>
	</g>
	<g>
		<path class="st10" d="M166.1,364.2c6.2,0,11.3-5.1,11.3-11.3s-5.1-11.3-11.3-11.3s-11.3,5.1-11.3,11.3S159.9,364.2,166.1,364.2z
			 M166.1,346.2c3.7,0,6.7,3,6.7,6.7s-3,6.7-6.7,6.7s-6.7-3-6.7-6.7S162.5,346.2,166.1,346.2z"/>
	</g>
	<g>
		<path class="st10" d="M166.1,415.3c6.2,0,11.3-5.1,11.3-11.3c0-6.2-5.1-11.3-11.3-11.3s-11.3,5.1-11.3,11.3
			C154.9,410.3,159.9,415.3,166.1,415.3z M166.1,397.4c3.7,0,6.7,3,6.7,6.7s-3,6.7-6.7,6.7s-6.7-3-6.7-6.7S162.5,397.4,166.1,397.4z
			"/>
	</g>
	<g>
		<circle class="st11" cx="166.3" cy="403.9" r="2.9"/>
	</g>
	<g>
		<circle class="st11" cx="65.5" cy="403.9" r="2.9"/>
	</g>
	
		<linearGradient id="SVGID_9_" gradientUnits="userSpaceOnUse" x1="62.424" y1="432.4" x2="68.576" y2="432.4" gradientTransform="matrix(1 0 0 1 0 -54)">
		<stop  offset="0" style="stop-color:#40A2D3"/>
		<stop  offset="1" style="stop-color:#40A2D3"/>
	</linearGradient>
	<line class="st12" x1="65.5" y1="403.9" x2="65.5" y2="352.9"/>
	
		<linearGradient id="SVGID_10_" gradientUnits="userSpaceOnUse" x1="163.0667" y1="432.4" x2="169.2188" y2="432.4" gradientTransform="matrix(1 0 0 1 0 -54)">
		<stop  offset="0" style="stop-color:#40A2D3"/>
		<stop  offset="1" style="stop-color:#40A2D3"/>
	</linearGradient>
	<line class="st13" x1="166.1" y1="403.9" x2="166.1" y2="352.9"/>
	
		<linearGradient id="SVGID_11_" gradientUnits="userSpaceOnUse" x1="62.424" y1="330.25" x2="68.576" y2="330.25" gradientTransform="matrix(1 0 0 1 0 -54)">
		<stop  offset="0" style="stop-color:#40A2D3"/>
		<stop  offset="1" style="stop-color:#40A2D3"/>
	</linearGradient>
	<line class="st14" x1="65.5" y1="301.7" x2="65.5" y2="250.8"/>
	
		<linearGradient id="SVGID_12_" gradientUnits="userSpaceOnUse" x1="163.0667" y1="330.25" x2="169.2188" y2="330.25" gradientTransform="matrix(1 0 0 1 0 -54)">
		<stop  offset="0" style="stop-color:#40A2D3"/>
		<stop  offset="1" style="stop-color:#40A2D3"/>
	</linearGradient>
	<line class="st15" x1="166.1" y1="301.7" x2="166.1" y2="250.8"/>
	
		<linearGradient id="SVGID_13_" gradientUnits="userSpaceOnUse" x1="62.424" y1="223.65" x2="68.576" y2="223.65" gradientTransform="matrix(1 0 0 1 0 -54)">
		<stop  offset="0" style="stop-color:#40A2D3"/>
		<stop  offset="1" style="stop-color:#40A2D3"/>
	</linearGradient>
	<line class="st16" x1="65.5" y1="199.4" x2="65.5" y2="139.9"/>
	
		<linearGradient id="SVGID_14_" gradientUnits="userSpaceOnUse" x1="163.0667" y1="224.6" x2="169.2188" y2="224.6" gradientTransform="matrix(1 0 0 1 0 -54)">
		<stop  offset="0" style="stop-color:#40A2D3"/>
		<stop  offset="1" style="stop-color:#40A2D3"/>
	</linearGradient>
	<line class="st17" x1="166.1" y1="199.4" x2="166.1" y2="141.8"/>
	<g>
		<circle class="st11" cx="65.7" cy="352.8" r="3"/>
	</g>
	<g>
		<circle class="st11" cx="166" cy="352.8" r="3"/>
	</g>
	<g>
		<circle class="st11" cx="65.7" cy="302.3" r="3"/>
	</g>
	<g>
		<circle class="st11" cx="166" cy="302.3" r="3"/>
	</g>
	<g>
		<circle class="st11" cx="65.7" cy="250.7" r="3"/>
	</g>
	<g>
		<circle class="st11" cx="166" cy="250.7" r="3"/>
	</g>
	<g>
		<circle class="st11" cx="65.7" cy="199.5" r="3"/>
	</g>
	<g>
		<circle class="st11" cx="166" cy="199.5" r="3"/>
	</g>
	
		<linearGradient id="SVGID_15_" gradientUnits="userSpaceOnUse" x1="117.1814" y1="381.8725" x2="124.3233" y2="385.6535" gradientTransform="matrix(1 0 0 1 0 -54)">
		<stop  offset="0" style="stop-color:#383642"/>
		<stop  offset="1" style="stop-color:#383642;stop-opacity:0"/>
	</linearGradient>
	<polygon class="st18" points="115.9,330.8 122.7,327.3 129.9,331 124.4,335.2 	"/>
	
		<linearGradient id="SVGID_16_" gradientUnits="userSpaceOnUse" x1="-9279.248" y1="102.1746" x2="-9272.1055" y2="105.9556" gradientTransform="matrix(-1 0 0 -1 -9164.6484 428.9918)">
		<stop  offset="0" style="stop-color:#383642"/>
		<stop  offset="1" style="stop-color:#383642;stop-opacity:0"/>
	</linearGradient>
	<polygon class="st19" points="115.9,323.9 109.1,327.3 101.9,323.7 107.3,319.5 	"/>
	
		<linearGradient id="SVGID_17_" gradientUnits="userSpaceOnUse" x1="117.1723" y1="279.9677" x2="124.3142" y2="283.7487" gradientTransform="matrix(1 0 0 1 0 -54)">
		<stop  offset="0" style="stop-color:#383642"/>
		<stop  offset="1" style="stop-color:#383642;stop-opacity:0"/>
	</linearGradient>
	<polygon class="st20" points="115.9,228.9 122.7,225.4 129.9,229.1 124.4,233.3 	"/>
	
		<linearGradient id="SVGID_18_" gradientUnits="userSpaceOnUse" x1="-9279.2393" y1="204.0793" x2="-9272.0967" y2="207.8604" gradientTransform="matrix(-1 0 0 -1 -9164.6484 428.9918)">
		<stop  offset="0" style="stop-color:#383642"/>
		<stop  offset="1" style="stop-color:#383642;stop-opacity:0"/>
	</linearGradient>
	<polygon class="st21" points="115.9,222 109.1,225.4 101.9,221.8 107.3,217.6 	"/>
	<g>
		<path class="st10" d="M166.1,137.1c-6.2,0-11.3,5.1-11.3,11.3c0.1,4.4,2.5,8.2,6.1,10c-0.2-0.4-0.4-0.8-0.5-1.3
			c-0.5-1.4,0.2-2.8,1.3-3.6c-1.4-1.2-2.3-3-2.3-5.1c0.1-3.8,3.1-6.7,6.7-6.7c3.7,0,6.7,3,6.7,6.7c0,2.1-1,4-2.6,5.3
			c1,1.2,1.6,2.8,1.5,4.3v0.1c3.4-2,5.7-5.6,5.7-9.8C177.4,142.2,172.3,137.1,166.1,137.1z"/>
	</g>
	<g>
		<path class="st10" d="M65.7,137.1c-6.2,0-11.3,5.1-11.3,11.3c0,4.5,2.7,8.4,6.6,10.2c-0.2-0.5-0.4-1-0.4-1.5
			c0-0.8,0.3-1.5,0.7-2.1c0-0.5,0-1,0.2-1.5c-1.5-1.2-2.5-3.1-2.5-5.2c0-3.7,3-6.7,6.7-6.7c3.7,0,6.7,3,6.7,6.7
			c-0.1,2.2-1.2,4.2-2.8,5.4c0.7,0.3,1.3,0.7,1.6,1.4c0.5,0.9,0.6,1.9,0.4,2.8c3.2-2,5.4-5.6,5.4-9.6
			C76.9,142.2,71.9,137.1,65.7,137.1z"/>
	</g>
</g>
</svg>
