<?xml version="1.0" encoding="utf-8"?>
<!-- Generator: Adobe Illustrator 21.1.0, SVG Export Plug-In . SVG Version: 6.00 Build 0)  -->
<!DOCTYPE svg PUBLIC "-//W3C//DTD SVG 1.1//EN" "http://www.w3.org/Graphics/SVG/1.1/DTD/svg11.dtd">
<svg version="1.1" id="Layer_1" xmlns="http://www.w3.org/2000/svg" xmlns:xlink="http://www.w3.org/1999/xlink" x="0px" y="0px"
	 viewBox="0 0 231.8 444.7" style="enable-background:new 0 0 231.8 444.7;" xml:space="preserve">
<style type="text/css">
	.st0{fill:url(#SVGID_1_);}
	.st1{fill:none;stroke:url(#SVGID_2_);stroke-width:6.1521;stroke-miterlimit:10;}
	.st2{fill:none;stroke:url(#SVGID_3_);stroke-width:6.1521;stroke-miterlimit:10;}
	.st3{fill:none;stroke:url(#SVGID_4_);stroke-width:6.1521;stroke-miterlimit:10;}
	.st4{fill:none;stroke:url(#SVGID_5_);stroke-width:6.1521;stroke-miterlimit:10;}
	.st5{fill:none;stroke:url(#SVGID_6_);stroke-width:6.1521;stroke-miterlimit:10;}
	.st6{fill:none;stroke:url(#SVGID_7_);stroke-width:6.1521;stroke-miterlimit:10;}
	.st7{fill:none;stroke:url(#SVGID_8_);stroke-width:6.1521;stroke-miterlimit:10;}
	.st8{fill:none;stroke:url(#SVGID_9_);stroke-width:6.1521;stroke-miterlimit:10;}
	.st9{fill:none;stroke:url(#SVGID_10_);stroke-width:6.1521;stroke-miterlimit:10;}
	.st10{fill:none;stroke:url(#SVGID_11_);stroke-width:6.1521;stroke-miterlimit:10;}
	.st11{fill:none;stroke:url(#SVGID_12_);stroke-width:6.1521;stroke-miterlimit:10;}
	.st12{fill:none;stroke:url(#SVGID_13_);stroke-width:6.1521;stroke-miterlimit:10;}
	.st13{fill:none;stroke:url(#SVGID_14_);stroke-width:6.1521;stroke-miterlimit:10;}
	.st14{fill:none;stroke:url(#SVGID_15_);stroke-width:6.1521;stroke-miterlimit:10;}
	.st15{fill:none;stroke:url(#SVGID_16_);stroke-width:6.1521;stroke-miterlimit:10;}
	.st16{fill:#FF7C24;}
	.st17{fill:none;stroke:url(#SVGID_17_);stroke-width:6.1521;stroke-miterlimit:10;}
	.st18{fill:#383642;}
	.st19{fill:#646569;}
	.st20{fill:url(#SVGID_18_);}
	.st21{fill:none;stroke:url(#SVGID_19_);stroke-width:6.1521;stroke-miterlimit:10;}
	.st22{fill:url(#SVGID_20_);}
	.st23{fill:url(#SVGID_21_);}
	.st24{fill:url(#SVGID_22_);}
	.st25{fill:url(#SVGID_23_);}
	.st26{fill:none;stroke:url(#SVGID_24_);stroke-width:6.1521;stroke-miterlimit:10;}
	.st27{fill:url(#SVGID_25_);}
	.st28{fill:url(#SVGID_26_);}
	.st29{fill:url(#SVGID_27_);}
	.st30{fill:url(#SVGID_28_);}
	.st31{fill:none;stroke:url(#SVGID_29_);stroke-width:6.1521;stroke-miterlimit:10;}
	.st32{fill:url(#SVGID_30_);}
	.st33{fill:url(#SVGID_31_);}
	.st34{fill:url(#SVGID_32_);}
	.st35{fill:url(#SVGID_33_);}
	.st36{fill:none;stroke:url(#SVGID_34_);stroke-width:6.1521;stroke-miterlimit:10;}
	.st37{fill:url(#SVGID_35_);}
	.st38{fill:url(#SVGID_36_);}
	.st39{fill:url(#SVGID_37_);}
	.st40{fill:url(#SVGID_38_);}
	.st41{fill:none;stroke:url(#SVGID_39_);stroke-width:6.1521;stroke-miterlimit:10;}
	.st42{fill:url(#SVGID_40_);}
	.st43{fill:url(#SVGID_41_);}
	.st44{fill:url(#SVGID_42_);}
	.st45{fill:none;stroke:url(#SVGID_43_);stroke-width:6.1521;stroke-miterlimit:10;}
	.st46{fill:none;stroke:url(#SVGID_44_);stroke-width:6.1521;stroke-miterlimit:10;}
	.st47{fill:none;stroke:url(#SVGID_45_);stroke-width:6.1521;stroke-miterlimit:10;}
	.st48{fill:none;stroke:url(#SVGID_46_);stroke-width:6.1521;stroke-miterlimit:10;}
	.st49{fill:none;stroke:url(#SVGID_47_);stroke-width:6.1521;stroke-miterlimit:10;}
	.st50{fill:none;stroke:url(#SVGID_48_);stroke-width:6.1521;stroke-miterlimit:10;}
	.st51{fill:none;stroke:url(#SVGID_49_);stroke-width:6.1521;stroke-miterlimit:10;}
	.st52{fill:#AAAAAA;}
</style>
<g>
	
		<linearGradient id="SVGID_1_" gradientUnits="userSpaceOnUse" x1="3.7755" y1="328.25" x2="232.031" y2="328.25" gradientTransform="matrix(1 0 0 1 0 -54)">
		<stop  offset="0" style="stop-color:#000000"/>
		<stop  offset="0.5303" style="stop-color:#383642"/>
		<stop  offset="1" style="stop-color:#000000"/>
	</linearGradient>
	<rect x="7" y="112" class="st0" width="219.5" height="324.5"/>
	
		<linearGradient id="SVGID_2_" gradientUnits="userSpaceOnUse" x1="-1876.469" y1="4061.7917" x2="-1818.2156" y2="4061.7917" gradientTransform="matrix(0.7071 -0.7071 0.7071 0.7071 -1427.4371 -4018.5486)">
		<stop  offset="0" style="stop-color:#FF7C24"/>
		<stop  offset="1" style="stop-color:#FF7C24"/>
	</linearGradient>
	<line class="st1" x1="167" y1="149" x2="109.8" y2="170.6"/>
	
		<linearGradient id="SVGID_3_" gradientUnits="userSpaceOnUse" x1="-1912.4611" y1="4097.7837" x2="-1854.2076" y2="4097.7837" gradientTransform="matrix(0.7071 -0.7071 0.7071 0.7071 -1427.4371 -4018.5486)">
		<stop  offset="0" style="stop-color:#FF7C24"/>
		<stop  offset="1" style="stop-color:#FF7C24"/>
	</linearGradient>
	<line class="st2" x1="167" y1="199.9" x2="109.8" y2="221.5"/>
	
		<linearGradient id="SVGID_4_" gradientUnits="userSpaceOnUse" x1="-1948.5238" y1="4133.8467" x2="-1890.2704" y2="4133.8467" gradientTransform="matrix(0.7071 -0.7071 0.7071 0.7071 -1427.4371 -4018.5486)">
		<stop  offset="0" style="stop-color:#FF7C24"/>
		<stop  offset="1" style="stop-color:#FF7C24"/>
	</linearGradient>
	<line class="st3" x1="167" y1="250.9" x2="109.8" y2="272.5"/>
	
		<linearGradient id="SVGID_5_" gradientUnits="userSpaceOnUse" x1="-1984.5159" y1="4169.8389" x2="-1926.2625" y2="4169.8389" gradientTransform="matrix(0.7071 -0.7071 0.7071 0.7071 -1427.4371 -4018.5486)">
		<stop  offset="0" style="stop-color:#FF7C24"/>
		<stop  offset="1" style="stop-color:#FF7C24"/>
	</linearGradient>
	<line class="st4" x1="167" y1="301.8" x2="109.8" y2="323.4"/>
	
		<linearGradient id="SVGID_6_" gradientUnits="userSpaceOnUse" x1="-2020.5787" y1="4205.9014" x2="-1962.3253" y2="4205.9014" gradientTransform="matrix(0.7071 -0.7071 0.7071 0.7071 -1427.4371 -4018.5486)">
		<stop  offset="0" style="stop-color:#FF7C24"/>
		<stop  offset="1" style="stop-color:#FF7C24"/>
	</linearGradient>
	<line class="st5" x1="167" y1="352.8" x2="109.8" y2="374.4"/>
	
		<linearGradient id="SVGID_7_" gradientUnits="userSpaceOnUse" x1="66.4" y1="457.7" x2="167.2" y2="457.7" gradientTransform="matrix(1 0 0 1 0 -54)">
		<stop  offset="0" style="stop-color:#FF7C24"/>
		<stop  offset="1" style="stop-color:#FF7C24"/>
	</linearGradient>
	<line class="st6" x1="66.4" y1="403.7" x2="167.2" y2="403.7"/>
	
		<linearGradient id="SVGID_8_" gradientUnits="userSpaceOnUse" x1="-9781.9961" y1="-3844.0964" x2="-9723.6689" y2="-3844.0964" gradientTransform="matrix(-0.7071 -0.7071 -0.7071 0.7071 -9519.3193 -4018.5486)">
		<stop  offset="0" style="stop-color:#FF7C24"/>
		<stop  offset="1" style="stop-color:#FF7C24"/>
	</linearGradient>
	<line class="st7" x1="66.5" y1="148.8" x2="123.8" y2="170.4"/>
	
		<linearGradient id="SVGID_9_" gradientUnits="userSpaceOnUse" x1="-9818.0273" y1="-3808.1042" x2="-9759.7002" y2="-3808.1042" gradientTransform="matrix(-0.7071 -0.7071 -0.7071 0.7071 -9519.3193 -4018.5486)">
		<stop  offset="0" style="stop-color:#FF7C24"/>
		<stop  offset="1" style="stop-color:#FF7C24"/>
	</linearGradient>
	<line class="st8" x1="66.5" y1="199.7" x2="123.8" y2="221.3"/>
	
		<linearGradient id="SVGID_10_" gradientUnits="userSpaceOnUse" x1="-9854.0586" y1="-3772.0415" x2="-9795.7314" y2="-3772.0415" gradientTransform="matrix(-0.7071 -0.7071 -0.7071 0.7071 -9519.3193 -4018.5486)">
		<stop  offset="0" style="stop-color:#FF7C24"/>
		<stop  offset="1" style="stop-color:#FF7C24"/>
	</linearGradient>
	<line class="st9" x1="66.5" y1="250.7" x2="123.8" y2="272.3"/>
	
		<linearGradient id="SVGID_11_" gradientUnits="userSpaceOnUse" x1="-9890.0908" y1="-3736.0493" x2="-9831.7637" y2="-3736.0493" gradientTransform="matrix(-0.7071 -0.7071 -0.7071 0.7071 -9519.3193 -4018.5486)">
		<stop  offset="0" style="stop-color:#FF7C24"/>
		<stop  offset="1" style="stop-color:#FF7C24"/>
	</linearGradient>
	<line class="st10" x1="66.5" y1="301.6" x2="123.8" y2="323.2"/>
	
		<linearGradient id="SVGID_12_" gradientUnits="userSpaceOnUse" x1="-9926.1221" y1="-3699.9866" x2="-9867.7949" y2="-3699.9866" gradientTransform="matrix(-0.7071 -0.7071 -0.7071 0.7071 -9519.3193 -4018.5486)">
		<stop  offset="0" style="stop-color:#FF7C24"/>
		<stop  offset="1" style="stop-color:#FF7C24"/>
	</linearGradient>
	<line class="st11" x1="66.5" y1="352.6" x2="123.8" y2="374.2"/>
	
		<linearGradient id="SVGID_13_" gradientUnits="userSpaceOnUse" x1="108.3977" y1="290.2" x2="168.6023" y2="290.2" gradientTransform="matrix(1 0 0 1 0 -54)">
		<stop  offset="0" style="stop-color:#FF7C24"/>
		<stop  offset="1" style="stop-color:#FF7C24"/>
	</linearGradient>
	<line class="st12" x1="167.2" y1="250.9" x2="109.8" y2="221.5"/>
	
		<linearGradient id="SVGID_14_" gradientUnits="userSpaceOnUse" x1="108.4015" y1="239.25" x2="168.5985" y2="239.25" gradientTransform="matrix(1 0 0 1 0 -54)">
		<stop  offset="0" style="stop-color:#FF7C24"/>
		<stop  offset="1" style="stop-color:#FF7C24"/>
	</linearGradient>
	<line class="st13" x1="167.2" y1="199.9" x2="109.8" y2="170.6"/>
	
		<linearGradient id="SVGID_15_" gradientUnits="userSpaceOnUse" x1="108.4015" y1="341.15" x2="168.5985" y2="341.15" gradientTransform="matrix(1 0 0 1 0 -54)">
		<stop  offset="0" style="stop-color:#FF7C24"/>
		<stop  offset="1" style="stop-color:#FF7C24"/>
	</linearGradient>
	<line class="st14" x1="167.2" y1="301.8" x2="109.8" y2="272.5"/>
	
		<linearGradient id="SVGID_16_" gradientUnits="userSpaceOnUse" x1="108.3977" y1="392.1" x2="168.6023" y2="392.1" gradientTransform="matrix(1 0 0 1 0 -54)">
		<stop  offset="0" style="stop-color:#FF7C24"/>
		<stop  offset="1" style="stop-color:#FF7C24"/>
	</linearGradient>
	<line class="st15" x1="167.2" y1="352.8" x2="109.8" y2="323.4"/>
	<g>
		<circle class="st16" cx="123.8" cy="170.4" r="3"/>
	</g>
	<g>
		<circle class="st16" cx="109.8" cy="170.6" r="3"/>
	</g>
	<g>
		<circle class="st16" cx="123.8" cy="221.3" r="3"/>
	</g>
	<g>
		<circle class="st16" cx="109.8" cy="221.5" r="3"/>
	</g>
	<g>
		<circle class="st16" cx="123.8" cy="272.4" r="3"/>
	</g>
	<g>
		<circle class="st16" cx="109.8" cy="272.6" r="3"/>
	</g>
	<g>
		<circle class="st16" cx="123.8" cy="323.2" r="3"/>
	</g>
	<g>
		<circle class="st16" cx="109.8" cy="323.4" r="3"/>
	</g>
	
		<linearGradient id="SVGID_17_" gradientUnits="userSpaceOnUse" x1="108.4015" y1="443.05" x2="168.5985" y2="443.05" gradientTransform="matrix(1 0 0 1 0 -54)">
		<stop  offset="0" style="stop-color:#FF7C24"/>
		<stop  offset="1" style="stop-color:#FF7C24"/>
	</linearGradient>
	<line class="st17" x1="167.2" y1="403.7" x2="109.8" y2="374.4"/>
	<g>
		<path class="st18" d="M0.9,107.7v336.8h86.4V107.7H0.9z M66.5,410.6c-3.7,0-6.7-3-6.7-6.7s3-6.7,6.7-6.7c3.7,0,6.7,3,6.7,6.7
			S70.2,410.6,66.5,410.6z M66.5,359.5c-3.7,0-6.7-3-6.7-6.7s3-6.7,6.7-6.7c3.7,0,6.7,3,6.7,6.7S70.2,359.5,66.5,359.5z M66.5,308.3
			c-3.7,0-6.7-3-6.7-6.7s3-6.7,6.7-6.7c3.7,0,6.7,3,6.7,6.7C73.2,305.4,70.2,308.3,66.5,308.3z M66.5,257.2c-3.7,0-6.7-3-6.7-6.7
			s3-6.7,6.7-6.7c3.7,0,6.7,3,6.7,6.7C73.2,254.2,70.2,257.2,66.5,257.2z M66.5,206.1c-3.7,0-6.7-3-6.7-6.7s3-6.7,6.7-6.7
			c3.7,0,6.7,3,6.7,6.7S70.2,206.1,66.5,206.1z M66.5,155c-3.7,0-6.7-3-6.7-6.7s3-6.7,6.7-6.7c3.7,0,6.7,3,6.7,6.7
			S70.2,155,66.5,155z"/>
	</g>
	<g>
		<path class="st19" d="M66.5,392.6c-6.2,0-11.3,5.1-11.3,11.3c0,6.2,5.1,11.3,11.3,11.3s11.3-5.1,11.3-11.3S72.8,392.6,66.5,392.6z
			 M66.5,410.6c-3.7,0-6.7-3-6.7-6.7s3-6.7,6.7-6.7c3.7,0,6.7,3,6.7,6.7S70.2,410.6,66.5,410.6z"/>
	</g>
	<g>
		<path class="st19" d="M66.5,341.5c-6.2,0-11.3,5.1-11.3,11.3s5.1,11.3,11.3,11.3s11.3-5.1,11.3-11.3S72.8,341.5,66.5,341.5z
			 M66.5,359.5c-3.7,0-6.7-3-6.7-6.7s3-6.7,6.7-6.7c3.7,0,6.7,3,6.7,6.7S70.2,359.5,66.5,359.5z"/>
	</g>
	<g>
		<path class="st19" d="M66.5,290.4c-6.2,0-11.3,5.1-11.3,11.3S60.3,313,66.5,313s11.3-5.1,11.3-11.3S72.8,290.4,66.5,290.4z
			 M66.5,308.3c-3.7,0-6.7-3-6.7-6.7s3-6.7,6.7-6.7c3.7,0,6.7,3,6.7,6.7S70.2,308.3,66.5,308.3z"/>
	</g>
	<g>
		<path class="st19" d="M66.5,239.3c-6.2,0-11.3,5.1-11.3,11.3c0,6.2,5.1,11.3,11.3,11.3s11.3-5.1,11.3-11.3S72.8,239.3,66.5,239.3z
			 M66.5,257.2c-3.7,0-6.7-3-6.7-6.7s3-6.7,6.7-6.7c3.7,0,6.7,3,6.7,6.7S70.2,257.2,66.5,257.2z"/>
	</g>
	<g>
		<path class="st19" d="M66.5,188.1c-6.2,0-11.3,5.1-11.3,11.3s5.1,11.3,11.3,11.3s11.3-5.1,11.3-11.3
			C77.8,193.2,72.8,188.1,66.5,188.1z M66.5,206.1c-3.7,0-6.7-3-6.7-6.7s3-6.7,6.7-6.7c3.7,0,6.7,3,6.7,6.7S70.2,206.1,66.5,206.1z"
			/>
	</g>
	<g>
		<path class="st19" d="M66.5,137c-6.2,0-11.3,5.1-11.3,11.3s5.1,11.3,11.3,11.3s11.3-5.1,11.3-11.3S72.8,137,66.5,137z M66.5,155
			c-3.7,0-6.7-3-6.7-6.7s3-6.7,6.7-6.7c3.7,0,6.7,3,6.7,6.7S70.2,155,66.5,155z"/>
	</g>
	<g>
		<path class="st18" d="M232.7,444.5V107.7h-86.4v336.8H232.7z M167,141.6c3.7,0,6.7,3,6.7,6.7s-3,6.7-6.7,6.7s-6.7-3-6.7-6.7
			C160.4,144.6,163.3,141.6,167,141.6z M167,192.8c3.7,0,6.7,3,6.7,6.7s-3,6.7-6.7,6.7s-6.7-3-6.7-6.7S163.3,192.8,167,192.8z
			 M167,243.9c3.7,0,6.7,3,6.7,6.7s-3,6.7-6.7,6.7s-6.7-3-6.7-6.7C160.4,246.9,163.3,243.9,167,243.9z M167,295c3.7,0,6.7,3,6.7,6.7
			s-3,6.7-6.7,6.7s-6.7-3-6.7-6.7C160.4,298,163.3,295,167,295z M167,346.1c3.7,0,6.7,3,6.7,6.7s-3,6.7-6.7,6.7s-6.7-3-6.7-6.7
			C160.4,349.1,163.3,346.1,167,346.1z M167,397.2c3.7,0,6.7,3,6.7,6.7s-3,6.7-6.7,6.7s-6.7-3-6.7-6.7
			C160.4,400.2,163.3,397.2,167,397.2z"/>
	</g>
	<g>
		<path class="st19" d="M167,159.6c6.2,0,11.3-5.1,11.3-11.3S173.2,137,167,137s-11.3,5.1-11.3,11.3S160.8,159.6,167,159.6z
			 M167,141.6c3.7,0,6.7,3,6.7,6.7s-3,6.7-6.7,6.7s-6.7-3-6.7-6.7S163.3,141.6,167,141.6z"/>
	</g>
	<g>
		<path class="st19" d="M167,210.7c6.2,0,11.3-5.1,11.3-11.3s-5.1-11.3-11.3-11.3s-11.3,5.1-11.3,11.3
			C155.7,205.7,160.8,210.7,167,210.7z M167,192.8c3.7,0,6.7,3,6.7,6.7s-3,6.7-6.7,6.7s-6.7-3-6.7-6.7S163.3,192.8,167,192.8z"/>
	</g>
	<g>
		<path class="st19" d="M167,261.8c6.2,0,11.3-5.1,11.3-11.3s-5.1-11.3-11.3-11.3s-11.3,5.1-11.3,11.3
			C155.7,256.8,160.8,261.8,167,261.8z M167,243.9c3.7,0,6.7,3,6.7,6.7s-3,6.7-6.7,6.7s-6.7-3-6.7-6.7
			C160.4,246.9,163.3,243.9,167,243.9z"/>
	</g>
	<g>
		<path class="st19" d="M167,313c6.2,0,11.3-5.1,11.3-11.3s-5.1-11.3-11.3-11.3s-11.3,5.1-11.3,11.3S160.8,313,167,313z M167,295
			c3.7,0,6.7,3,6.7,6.7s-3,6.7-6.7,6.7s-6.7-3-6.7-6.7S163.3,295,167,295z"/>
	</g>
	<g>
		<path class="st19" d="M167,364.1c6.2,0,11.3-5.1,11.3-11.3s-5.1-11.3-11.3-11.3s-11.3,5.1-11.3,11.3S160.8,364.1,167,364.1z
			 M167,346.1c3.7,0,6.7,3,6.7,6.7s-3,6.7-6.7,6.7s-6.7-3-6.7-6.7S163.3,346.1,167,346.1z"/>
	</g>
	<g>
		<path class="st19" d="M167,415.2c6.2,0,11.3-5.1,11.3-11.3s-5.1-11.3-11.3-11.3s-11.3,5.1-11.3,11.3S160.8,415.2,167,415.2z
			 M167,397.2c3.7,0,6.7,3,6.7,6.7s-3,6.7-6.7,6.7s-6.7-3-6.7-6.7S163.3,397.2,167,397.2z"/>
	</g>
	
		<linearGradient id="SVGID_18_" gradientUnits="userSpaceOnUse" x1="119.7309" y1="430.5087" x2="124.3763" y2="436.0921" gradientTransform="matrix(1 0 0 1 0 -54)">
		<stop  offset="0" style="stop-color:#383642"/>
		<stop  offset="1" style="stop-color:#383642;stop-opacity:0"/>
	</linearGradient>
	<polygon class="st20" points="123.4,377.9 116.5,381.4 123.9,385.1 131.6,382 	"/>
	<g>
		<circle class="st16" cx="167.2" cy="403.7" r="3"/>
	</g>
	<g>
		<circle class="st16" cx="66.4" cy="403.7" r="3"/>
	</g>
	<g>
		<circle class="st16" cx="167" cy="352.8" r="3"/>
	</g>
	<g>
		<circle class="st16" cx="66.4" cy="352.6" r="3"/>
	</g>
	
		<linearGradient id="SVGID_19_" gradientUnits="userSpaceOnUse" x1="-11071.958" y1="442.9" x2="-11011.7539" y2="442.9" gradientTransform="matrix(-1 0 0 1 -10946.7559 -54)">
		<stop  offset="0" style="stop-color:#FF7C24"/>
		<stop  offset="1" style="stop-color:#FF7C24"/>
	</linearGradient>
	<line class="st21" x1="66.4" y1="403.6" x2="123.8" y2="374.2"/>
	<g>
		<circle class="st16" cx="123.8" cy="374.2" r="3"/>
	</g>
	<g>
		<circle class="st16" cx="109.8" cy="374.4" r="3"/>
	</g>
	
		<linearGradient id="SVGID_20_" gradientUnits="userSpaceOnUse" x1="120.5618" y1="433.3139" x2="118.9268" y2="424.679" gradientTransform="matrix(1 0 0 1 0 -54)">
		<stop  offset="0" style="stop-color:#383642"/>
		<stop  offset="1" style="stop-color:#383642;stop-opacity:0"/>
	</linearGradient>
	<path class="st22" d="M117,368.4l-9.2,3.6c0,0.1-0.1,0.2-0.2,0.2c-0.5,0.3-0.8,1.1-0.9,1.7s0,1.1,0.1,1.7c0.1,0.2,0.2,0.4,0.3,0.5
		c0.2,0.4,0.5,0.7,0.9,1c0.5,0.3,1.1,0.7,1.7,1l7.3-3.3l14.8-5.1L117,368.4z"/>
	
		<linearGradient id="SVGID_21_" gradientUnits="userSpaceOnUse" x1="-11153.9072" y1="-967.4088" x2="-11151.4414" y2="-976.9744" gradientTransform="matrix(-1 0 0 -1 -11029.7969 -601.5486)">
		<stop  offset="0" style="stop-color:#383642"/>
		<stop  offset="1" style="stop-color:#383642;stop-opacity:0"/>
	</linearGradient>
	<path class="st23" d="M126.9,373.9c-0.2-0.8-0.5-1.5-1.1-2c0,0,0,0-0.1-0.1l-0.1-0.1l-8.8,2.8l6.8,3.4c0-0.1,0.1-0.1,0.1-0.1
		c1.1-0.7,2.5-1.1,3-2.4c0.2-0.4,0.2-0.9,0.2-1.3C126.9,374,126.9,374,126.9,373.9z"/>
	
		<linearGradient id="SVGID_22_" gradientUnits="userSpaceOnUse" x1="118.0812" y1="425.9368" x2="109.0344" y2="422.7339" gradientTransform="matrix(1 0 0 1 0 -54)">
		<stop  offset="0" style="stop-color:#383642"/>
		<stop  offset="1" style="stop-color:#383642;stop-opacity:0"/>
	</linearGradient>
	<polygon class="st24" points="107.7,364.9 100.2,368.6 108.2,371.8 117,368.4 	"/>
	
		<linearGradient id="SVGID_23_" gradientUnits="userSpaceOnUse" x1="119.7523" y1="379.5345" x2="124.3977" y2="385.118" gradientTransform="matrix(1 0 0 1 0 -54)">
		<stop  offset="0" style="stop-color:#383642"/>
		<stop  offset="1" style="stop-color:#383642;stop-opacity:0"/>
	</linearGradient>
	<polygon class="st25" points="123.4,326.9 116.5,330.4 123.9,334.2 131.6,331 	"/>
	<g>
		<circle class="st16" cx="167.2" cy="352.8" r="3"/>
	</g>
	<g>
		<circle class="st16" cx="167" cy="301.8" r="3"/>
	</g>
	<g>
		<circle class="st16" cx="66.3" cy="301.5" r="3"/>
	</g>
	
		<linearGradient id="SVGID_24_" gradientUnits="userSpaceOnUse" x1="-11071.958" y1="391.9" x2="-11011.7539" y2="391.9" gradientTransform="matrix(-1 0 0 1 -10946.7559 -54)">
		<stop  offset="0" style="stop-color:#FF7C24"/>
		<stop  offset="1" style="stop-color:#FF7C24"/>
	</linearGradient>
	<line class="st26" x1="66.4" y1="352.6" x2="123.8" y2="323.2"/>
	
		<linearGradient id="SVGID_25_" gradientUnits="userSpaceOnUse" x1="120.5698" y1="382.3561" x2="118.9348" y2="373.7212" gradientTransform="matrix(1 0 0 1 0 -54)">
		<stop  offset="0" style="stop-color:#383642"/>
		<stop  offset="1" style="stop-color:#383642;stop-opacity:0"/>
	</linearGradient>
	<path class="st27" d="M117,317.4l-9.2,3.6c0,0.1-0.1,0.2-0.2,0.2c-0.5,0.3-0.8,1.1-0.9,1.7s0,1.1,0.1,1.7c0.1,0.2,0.2,0.4,0.3,0.5
		c0.2,0.4,0.5,0.7,0.9,1c0.5,0.3,1.1,0.7,1.7,1l7.3-3.3l14.8-5.1L117,317.4z"/>
	
		<linearGradient id="SVGID_26_" gradientUnits="userSpaceOnUse" x1="-11153.8965" y1="-916.4499" x2="-11151.4307" y2="-926.0153" gradientTransform="matrix(-1 0 0 -1 -11029.7969 -601.5486)">
		<stop  offset="0" style="stop-color:#383642"/>
		<stop  offset="1" style="stop-color:#383642;stop-opacity:0"/>
	</linearGradient>
	<path class="st28" d="M126.9,322.9c-0.2-0.8-0.5-1.5-1.1-2c0,0,0,0-0.1-0.1l-0.1-0.1l-8.8,2.8l6.8,3.4c0-0.1,0.1-0.1,0.1-0.1
		c1.1-0.7,2.5-1.1,3-2.4c0.2-0.4,0.2-0.9,0.2-1.3C126.9,323,126.9,323,126.9,322.9z"/>
	
		<linearGradient id="SVGID_27_" gradientUnits="userSpaceOnUse" x1="118.0792" y1="374.9861" x2="109.0324" y2="371.7832" gradientTransform="matrix(1 0 0 1 0 -54)">
		<stop  offset="0" style="stop-color:#383642"/>
		<stop  offset="1" style="stop-color:#383642;stop-opacity:0"/>
	</linearGradient>
	<polygon class="st29" points="107.7,313.9 100.2,317.7 108.2,320.9 117,317.4 	"/>
	
		<linearGradient id="SVGID_28_" gradientUnits="userSpaceOnUse" x1="119.7493" y1="328.5809" x2="124.3947" y2="334.1643" gradientTransform="matrix(1 0 0 1 0 -54)">
		<stop  offset="0" style="stop-color:#383642"/>
		<stop  offset="1" style="stop-color:#383642;stop-opacity:0"/>
	</linearGradient>
	<polygon class="st30" points="123.4,276 116.5,279.5 123.9,283.2 131.6,280 	"/>
	<g>
		<circle class="st16" cx="167" cy="250.9" r="3"/>
	</g>
	<g>
		<circle class="st16" cx="66.4" cy="250.6" r="3"/>
	</g>
	
		<linearGradient id="SVGID_29_" gradientUnits="userSpaceOnUse" x1="-11071.9541" y1="340.95" x2="-11011.7578" y2="340.95" gradientTransform="matrix(-1 0 0 1 -10946.7559 -54)">
		<stop  offset="0" style="stop-color:#FF7C24"/>
		<stop  offset="1" style="stop-color:#FF7C24"/>
	</linearGradient>
	<line class="st31" x1="66.4" y1="301.6" x2="123.8" y2="272.3"/>
	
		<linearGradient id="SVGID_30_" gradientUnits="userSpaceOnUse" x1="120.5595" y1="331.4019" x2="118.9245" y2="322.7669" gradientTransform="matrix(1 0 0 1 0 -54)">
		<stop  offset="0" style="stop-color:#383642"/>
		<stop  offset="1" style="stop-color:#383642;stop-opacity:0"/>
	</linearGradient>
	<path class="st32" d="M117,266.5l-9.2,3.6c0,0.1-0.1,0.2-0.2,0.2c-0.5,0.3-0.8,1.1-0.9,1.7s0,1.1,0.1,1.7c0.1,0.2,0.2,0.4,0.3,0.5
		c0.2,0.4,0.5,0.7,0.9,1c0.5,0.3,1.1,0.7,1.7,1l7.3-3.3l14.8-5.1L117,266.5z"/>
	
		<linearGradient id="SVGID_31_" gradientUnits="userSpaceOnUse" x1="-11153.9102" y1="-865.4971" x2="-11151.4443" y2="-875.0625" gradientTransform="matrix(-1 0 0 -1 -11029.7969 -601.5486)">
		<stop  offset="0" style="stop-color:#383642"/>
		<stop  offset="1" style="stop-color:#383642;stop-opacity:0"/>
	</linearGradient>
	<path class="st33" d="M126.9,272c-0.2-0.8-0.5-1.5-1.1-2c0,0,0,0-0.1-0.1l-0.1-0.1l-8.8,2.8l6.8,3.4c0-0.1,0.1-0.1,0.1-0.1
		c1.1-0.7,2.5-1.1,3-2.4c0.2-0.4,0.2-0.9,0.2-1.3C126.9,272.1,126.9,272,126.9,272z"/>
	
		<linearGradient id="SVGID_32_" gradientUnits="userSpaceOnUse" x1="118.0929" y1="323.9911" x2="109.0461" y2="320.7881" gradientTransform="matrix(1 0 0 1 0 -54)">
		<stop  offset="0" style="stop-color:#383642"/>
		<stop  offset="1" style="stop-color:#383642;stop-opacity:0"/>
	</linearGradient>
	<polygon class="st34" points="107.7,262.9 100.2,266.7 108.2,269.9 117,266.5 	"/>
	
		<linearGradient id="SVGID_33_" gradientUnits="userSpaceOnUse" x1="119.7462" y1="277.6273" x2="124.3916" y2="283.2106" gradientTransform="matrix(1 0 0 1 0 -54)">
		<stop  offset="0" style="stop-color:#383642"/>
		<stop  offset="1" style="stop-color:#383642;stop-opacity:0"/>
	</linearGradient>
	<polygon class="st35" points="123.4,225 116.5,228.5 123.9,232.3 131.6,229.1 	"/>
	<g>
		<circle class="st16" cx="167" cy="199.9" r="3"/>
	</g>
	<g>
		<circle class="st16" cx="66.4" cy="199.7" r="3"/>
	</g>
	
		<linearGradient id="SVGID_34_" gradientUnits="userSpaceOnUse" x1="-11071.958" y1="290" x2="-11011.7539" y2="290" gradientTransform="matrix(-1 0 0 1 -10946.7559 -54)">
		<stop  offset="0" style="stop-color:#FF7C24"/>
		<stop  offset="1" style="stop-color:#FF7C24"/>
	</linearGradient>
	<line class="st36" x1="66.4" y1="250.7" x2="123.8" y2="221.3"/>
	
		<linearGradient id="SVGID_35_" gradientUnits="userSpaceOnUse" x1="120.5675" y1="280.444" x2="118.9325" y2="271.8092" gradientTransform="matrix(1 0 0 1 0 -54)">
		<stop  offset="0" style="stop-color:#383642"/>
		<stop  offset="1" style="stop-color:#383642;stop-opacity:0"/>
	</linearGradient>
	<path class="st37" d="M117,215.5l-9.2,3.6c0,0.1-0.1,0.2-0.2,0.2c-0.5,0.3-0.8,1.1-0.9,1.7c-0.1,0.6,0,1.1,0.1,1.7
		c0.1,0.2,0.2,0.4,0.3,0.5c0.2,0.4,0.5,0.7,0.9,1c0.5,0.3,1.1,0.7,1.7,1l7.3-3.3l14.8-5.1L117,215.5z"/>
	
		<linearGradient id="SVGID_36_" gradientUnits="userSpaceOnUse" x1="-11153.8994" y1="-814.5383" x2="-11151.4336" y2="-824.1036" gradientTransform="matrix(-1 0 0 -1 -11029.7969 -601.5486)">
		<stop  offset="0" style="stop-color:#383642"/>
		<stop  offset="1" style="stop-color:#383642;stop-opacity:0"/>
	</linearGradient>
	<path class="st38" d="M126.9,221c-0.2-0.8-0.5-1.5-1.1-2c0,0,0,0-0.1-0.1l-0.1-0.1l-8.8,2.8l6.8,3.4c0-0.1,0.1-0.1,0.1-0.1
		c1.1-0.7,2.5-1.1,3-2.4c0.2-0.4,0.2-0.9,0.2-1.3C126.9,221.1,126.9,221.1,126.9,221z"/>
	
		<linearGradient id="SVGID_37_" gradientUnits="userSpaceOnUse" x1="118.091" y1="273.0403" x2="109.0442" y2="269.8374" gradientTransform="matrix(1 0 0 1 0 -54)">
		<stop  offset="0" style="stop-color:#383642"/>
		<stop  offset="1" style="stop-color:#383642;stop-opacity:0"/>
	</linearGradient>
	<polygon class="st39" points="107.7,212 100.2,215.8 108.2,218.9 117,215.5 	"/>
	
		<linearGradient id="SVGID_38_" gradientUnits="userSpaceOnUse" x1="119.7677" y1="226.653" x2="124.4131" y2="232.2365" gradientTransform="matrix(1 0 0 1 0 -54)">
		<stop  offset="0" style="stop-color:#383642"/>
		<stop  offset="1" style="stop-color:#383642;stop-opacity:0"/>
	</linearGradient>
	<polygon class="st40" points="123.4,174.1 116.5,177.5 123.9,181.3 131.6,178.1 	"/>
	<g>
		<circle class="st16" cx="166.6" cy="149.2" r="3"/>
	</g>
	<g>
		<circle class="st16" cx="66" cy="148.8" r="3"/>
	</g>
	
		<linearGradient id="SVGID_39_" gradientUnits="userSpaceOnUse" x1="-11071.9541" y1="239.05" x2="-11011.7578" y2="239.05" gradientTransform="matrix(-1 0 0 1 -10946.7559 -54)">
		<stop  offset="0" style="stop-color:#FF7C24"/>
		<stop  offset="1" style="stop-color:#FF7C24"/>
	</linearGradient>
	<line class="st41" x1="66.4" y1="199.7" x2="123.8" y2="170.4"/>
	
		<linearGradient id="SVGID_40_" gradientUnits="userSpaceOnUse" x1="120.5755" y1="229.4863" x2="118.9405" y2="220.8513" gradientTransform="matrix(1 0 0 1 0 -54)">
		<stop  offset="0" style="stop-color:#383642"/>
		<stop  offset="1" style="stop-color:#383642;stop-opacity:0"/>
	</linearGradient>
	<path class="st42" d="M117,164.5l-9.2,3.6c0,0.1-0.1,0.2-0.2,0.2c-0.5,0.3-0.8,1.1-0.9,1.7c-0.1,0.6,0,1.1,0.1,1.7
		c0.1,0.2,0.2,0.4,0.3,0.5c0.2,0.4,0.5,0.7,0.9,1c0.5,0.3,1.1,0.7,1.7,1l7.3-3.3l14.8-5.1L117,164.5z"/>
	
		<linearGradient id="SVGID_41_" gradientUnits="userSpaceOnUse" x1="-11153.9131" y1="-763.5854" x2="-11151.4473" y2="-773.1509" gradientTransform="matrix(-1 0 0 -1 -11029.7969 -601.5486)">
		<stop  offset="0" style="stop-color:#383642"/>
		<stop  offset="1" style="stop-color:#383642;stop-opacity:0"/>
	</linearGradient>
	<path class="st43" d="M126.9,170.1c-0.2-0.8-0.5-1.5-1.1-2c0,0,0,0-0.1-0.1l-0.1-0.1l-8.8,2.8l6.8,3.4c0-0.1,0.1-0.1,0.1-0.1
		c1.1-0.7,2.5-1.1,3-2.4c0.2-0.4,0.2-0.9,0.2-1.3C126.9,170.2,126.9,170.1,126.9,170.1z"/>
	
		<linearGradient id="SVGID_42_" gradientUnits="userSpaceOnUse" x1="118.089" y1="222.0897" x2="109.0422" y2="218.8867" gradientTransform="matrix(1 0 0 1 0 -54)">
		<stop  offset="0" style="stop-color:#383642"/>
		<stop  offset="1" style="stop-color:#383642;stop-opacity:0"/>
	</linearGradient>
	<polygon class="st44" points="107.7,161 100.2,164.8 108.2,168 117,164.5 	"/>
	
		<linearGradient id="SVGID_43_" gradientUnits="userSpaceOnUse" x1="130.2059" y1="448.65" x2="168.5941" y2="448.65" gradientTransform="matrix(1 0 0 1 0 -54)">
		<stop  offset="0" style="stop-color:#FF7C24"/>
		<stop  offset="1" style="stop-color:#FF7C24"/>
	</linearGradient>
	<line class="st45" x1="167.2" y1="403.7" x2="131.6" y2="385.6"/>
	
		<linearGradient id="SVGID_44_" gradientUnits="userSpaceOnUse" x1="130.1998" y1="397.7" x2="168.6002" y2="397.7" gradientTransform="matrix(1 0 0 1 0 -54)">
		<stop  offset="0" style="stop-color:#FF7C24"/>
		<stop  offset="1" style="stop-color:#FF7C24"/>
	</linearGradient>
	<line class="st46" x1="167.2" y1="352.8" x2="131.6" y2="334.6"/>
	
		<linearGradient id="SVGID_45_" gradientUnits="userSpaceOnUse" x1="130.1998" y1="346.7" x2="168.6002" y2="346.7" gradientTransform="matrix(1 0 0 1 0 -54)">
		<stop  offset="0" style="stop-color:#FF7C24"/>
		<stop  offset="1" style="stop-color:#FF7C24"/>
	</linearGradient>
	<line class="st47" x1="167.2" y1="301.8" x2="131.6" y2="283.6"/>
	
		<linearGradient id="SVGID_46_" gradientUnits="userSpaceOnUse" x1="130.1998" y1="295.8" x2="168.6002" y2="295.8" gradientTransform="matrix(1 0 0 1 0 -54)">
		<stop  offset="0" style="stop-color:#FF7C24"/>
		<stop  offset="1" style="stop-color:#FF7C24"/>
	</linearGradient>
	<line class="st48" x1="167.2" y1="250.9" x2="131.6" y2="232.7"/>
	
		<linearGradient id="SVGID_47_" gradientUnits="userSpaceOnUse" x1="130.1998" y1="244.8" x2="168.6002" y2="244.8" gradientTransform="matrix(1 0 0 1 0 -54)">
		<stop  offset="0" style="stop-color:#FF7C24"/>
		<stop  offset="1" style="stop-color:#FF7C24"/>
	</linearGradient>
	<line class="st49" x1="167.2" y1="199.9" x2="131.6" y2="181.7"/>
</g>
<path class="st16" d="M62.5,146.3c0,0-0.1,3.4,1.1,4.4c1.3,1,3.6-3.6,3.6-3.6L62.5,146.3z"/>
<linearGradient id="SVGID_48_" gradientUnits="userSpaceOnUse" x1="43.5043" y1="107.1948" x2="72.6467" y2="107.1948">
	<stop  offset="0" style="stop-color:#FF7C24"/>
	<stop  offset="1" style="stop-color:#FF7C24"/>
</linearGradient>
<path class="st50" d="M66.5,148.8c0,0-41.4-17.9-4.8-71.9l8.4-12.4"/>
<linearGradient id="SVGID_49_" gradientUnits="userSpaceOnUse" x1="161.9566" y1="107.7228" x2="182.8198" y2="107.7228">
	<stop  offset="0" style="stop-color:#FF7C24"/>
	<stop  offset="1" style="stop-color:#FF7C24"/>
</linearGradient>
<path class="st51" d="M164.8,64.5c0,0,33.1,73.9,0.8,84.8"/>
<g>
	<path class="st52" d="M80.1,50.8c-1.9-1.3-4.4-0.9-5.8,0.9l-16,22.5l6.8,4.8l16-22.5C82.4,54.7,81.9,52,80.1,50.8z"/>
</g>
<g>
	<path class="st52" d="M158.7,49.3c-2.1,0.8-3.2,3.2-2.4,5.4l10,25.7l7.7-3l-10-25.7C163.3,49.6,160.8,48.5,158.7,49.3z"/>
</g>
</svg>
