<?xml version="1.0" encoding="utf-8"?>
<!-- Generator: Adobe Illustrator 21.1.0, SVG Export Plug-In . SVG Version: 6.00 Build 0)  -->
<!DOCTYPE svg PUBLIC "-//W3C//DTD SVG 1.1//EN" "http://www.w3.org/Graphics/SVG/1.1/DTD/svg11.dtd">
<svg version="1.1" id="Layer_1" xmlns="http://www.w3.org/2000/svg" xmlns:xlink="http://www.w3.org/1999/xlink" x="0px" y="0px"
	 viewBox="0 0 231.8 444.7" style="enable-background:new 0 0 231.8 444.7;" xml:space="preserve">
<style type="text/css">
	.st0{fill:url(#SVGID_1_);}
	.st1{fill:#FF5959;}
	.st2{fill:#383642;}
	.st3{fill:#646569;}
	.st4{fill:url(#SVGID_2_);}
	.st5{fill:url(#SVGID_3_);}
	.st6{fill:url(#SVGID_4_);}
	.st7{fill:url(#SVGID_5_);}
	.st8{fill:url(#SVGID_6_);}
	.st9{fill:url(#SVGID_7_);}
	.st10{fill:url(#SVGID_8_);}
	.st11{fill:url(#SVGID_9_);}
	.st12{fill:url(#SVGID_10_);}
	.st13{fill:url(#SVGID_11_);}
	.st14{fill:url(#SVGID_12_);}
	.st15{fill:url(#SVGID_13_);}
	.st16{fill:url(#SVGID_14_);}
	.st17{fill:url(#SVGID_15_);}
	.st18{fill:url(#SVGID_16_);}
	.st19{fill:url(#SVGID_17_);}
	.st20{fill:url(#SVGID_18_);}
	.st21{fill:url(#SVGID_19_);}
	.st22{fill:url(#SVGID_20_);}
	.st23{fill:url(#SVGID_21_);}
	.st24{fill:url(#SVGID_22_);}
	.st25{fill:url(#SVGID_23_);}
	.st26{fill:url(#SVGID_24_);}
	.st27{fill:url(#SVGID_25_);}
	.st28{fill:url(#SVGID_26_);}
	.st29{fill:url(#SVGID_27_);}
	.st30{fill:url(#SVGID_28_);}
	.st31{fill:url(#SVGID_29_);}
	.st32{fill:url(#SVGID_30_);}
	.st33{fill:url(#SVGID_31_);}
	.st34{fill:url(#SVGID_32_);}
	.st35{fill:url(#SVGID_33_);}
	.st36{fill:url(#SVGID_34_);}
	.st37{fill:url(#SVGID_35_);}
	.st38{fill:url(#SVGID_36_);}
	.st39{fill:url(#SVGID_37_);}
	.st40{fill:url(#SVGID_38_);}
	.st41{fill:url(#SVGID_39_);}
	.st42{fill:url(#SVGID_40_);}
	.st43{fill:none;stroke:#FF5959;stroke-width:6.1521;stroke-miterlimit:10;}
	.st44{fill:#AAAAAA;}
</style>
<g>
	
		<linearGradient id="SVGID_1_" gradientUnits="userSpaceOnUse" x1="2.8922" y1="329.45" x2="231.1476" y2="329.45" gradientTransform="matrix(1 0 0 1 0 -54)">
		<stop  offset="0" style="stop-color:#000000"/>
		<stop  offset="0.5303" style="stop-color:#383642"/>
		<stop  offset="1" style="stop-color:#000000"/>
	</linearGradient>
	<rect x="6.2" y="113.2" class="st0" width="219.5" height="324.5"/>
	<g>
		
			<rect x="140.9" y="308.4" transform="matrix(0.7006 -0.7135 0.7135 0.7006 -175.6813 204.3114)" class="st1" width="29.5" height="6.2"/>
	</g>
	<g>
		<rect x="62.7" y="352" class="st1" width="6.2" height="51.1"/>
	</g>
	<g>
		
			<rect x="44.4" y="297.9" transform="matrix(0.7006 -0.7136 0.7136 0.7006 -180.0542 172.8548)" class="st1" width="143.1" height="6.2"/>
	</g>
	<g>
		<polygon class="st1" points="84.3,170.8 63.2,149.8 67.6,145.5 88.6,166.7 		"/>
	</g>
	<g>
		
			<rect x="112.8" y="178.3" transform="matrix(0.7135 -0.7006 0.7006 0.7135 -141.8309 152.7585)" class="st1" width="6.2" height="143.1"/>
	</g>
	<g>
		
			<rect x="140.8" y="206.2" transform="matrix(0.7071 -0.7071 0.7071 0.7071 -102.41 171.3426)" class="st1" width="29.6" height="6.2"/>
	</g>
	<g>
		
			<rect x="140.8" y="155.1" transform="matrix(0.7076 -0.7066 0.7066 0.7076 -66.2663 156.2579)" class="st1" width="29.7" height="6.2"/>
	</g>
	<g>
		
			<rect x="73.1" y="245.5" transform="matrix(0.7071 -0.7071 0.7071 0.7071 -161.7323 130.1037)" class="st1" width="6.2" height="29.6"/>
	</g>
	<g>
		
			<rect x="73.1" y="296.6" transform="matrix(0.7071 -0.7071 0.7071 0.7071 -197.8715 145.0858)" class="st1" width="6.2" height="29.6"/>
	</g>
	<g>
		<rect x="162.9" y="352" class="st1" width="6.2" height="51.1"/>
	</g>
	<path class="st2" d="M0,107v336.8h86.4V107H0z M65.7,409.9c-3.7,0-6.7-3-6.7-6.7s3-6.7,6.7-6.7c3.7,0,6.7,3,6.7,6.7
		C72.3,406.9,69.3,409.9,65.7,409.9z M65.7,358.8c-3.7,0-6.7-3-6.7-6.7s3-6.7,6.7-6.7c3.7,0,6.7,3,6.7,6.7S69.3,358.8,65.7,358.8z
		 M65.7,307.7c-3.7,0-6.7-3-6.7-6.7s3-6.7,6.7-6.7c3.7,0,6.7,3,6.7,6.7C72.3,304.7,69.3,307.7,65.7,307.7z M65.7,256.6
		c-3.7,0-6.7-3-6.7-6.7s3-6.7,6.7-6.7c3.7,0,6.7,3,6.7,6.7C72.3,253.6,69.3,256.6,65.7,256.6z M65.7,205.4c-3.7,0-6.7-3-6.7-6.7
		s3-6.7,6.7-6.7c3.7,0,6.7,3,6.7,6.7C72.3,202.5,69.3,205.4,65.7,205.4z M65.7,154.3c-3.7,0-6.7-3-6.7-6.7s3-6.7,6.7-6.7
		c3.7,0,6.7,3,6.7,6.7C72.3,151.3,69.3,154.3,65.7,154.3z"/>
	<path class="st3" d="M65.7,392c-6.2,0-11.3,5.1-11.3,11.3s5.1,11.3,11.3,11.3S77,409.5,77,403.3S71.9,392,65.7,392z M65.7,409.9
		c-3.7,0-6.7-3-6.7-6.7s3-6.7,6.7-6.7c3.7,0,6.7,3,6.7,6.7S69.3,409.9,65.7,409.9z"/>
	<path class="st3" d="M65.7,340.9c-6.2,0-11.3,5.1-11.3,11.3c0,6.2,5.1,11.3,11.3,11.3S77,358.4,77,352.2
		C76.9,345.9,71.9,340.9,65.7,340.9z M65.7,358.8c-3.7,0-6.7-3-6.7-6.7s3-6.7,6.7-6.7c3.7,0,6.7,3,6.7,6.7
		C72.3,355.8,69.3,358.8,65.7,358.8z"/>
	<path class="st3" d="M65.7,289.7c-6.2,0-11.3,5.1-11.3,11.3c0,6.2,5.1,11.3,11.3,11.3S77,307.2,77,301
		C76.9,294.8,71.9,289.7,65.7,289.7z M65.7,307.7c-3.7,0-6.7-3-6.7-6.7s3-6.7,6.7-6.7c3.7,0,6.7,3,6.7,6.7
		C72.3,304.7,69.3,307.7,65.7,307.7z"/>
	<path class="st3" d="M65.7,238.6c-6.2,0-11.3,5.1-11.3,11.3s5.1,11.3,11.3,11.3S77,256.1,77,249.9
		C76.9,243.7,71.9,238.6,65.7,238.6z M65.7,256.6c-3.7,0-6.7-3-6.7-6.7s3-6.7,6.7-6.7c3.7,0,6.7,3,6.7,6.7
		C72.3,253.6,69.3,256.6,65.7,256.6z"/>
	<path class="st3" d="M65.7,187.5c-6.2,0-11.3,5.1-11.3,11.3s5.1,11.3,11.3,11.3S77,205,77,198.8C76.9,192.5,71.9,187.5,65.7,187.5z
		 M65.7,205.4c-3.7,0-6.7-3-6.7-6.7s3-6.7,6.7-6.7c3.7,0,6.7,3,6.7,6.7C72.3,202.5,69.3,205.4,65.7,205.4z"/>
	<path class="st3" d="M65.7,136.4c-6.2,0-11.3,5.1-11.3,11.3S59.5,159,65.7,159S77,153.9,77,147.7C76.9,141.4,71.9,136.4,65.7,136.4
		z M65.7,154.3c-3.7,0-6.7-3-6.7-6.7s3-6.7,6.7-6.7c3.7,0,6.7,3,6.7,6.7C72.3,151.3,69.3,154.3,65.7,154.3z"/>
	<path class="st2" d="M231.8,443.9V107h-86.4v336.8h86.4L231.8,443.9L231.8,443.9z M166.1,141c3.7,0,6.7,3,6.7,6.7s-3,6.7-6.7,6.7
		s-6.7-3-6.7-6.7C159.5,144,162.5,141,166.1,141z M166.1,192.1c3.7,0,6.7,3,6.7,6.7s-3,6.7-6.7,6.7s-6.7-3-6.7-6.7
		S162.5,192.1,166.1,192.1z M166.1,243.2c3.7,0,6.7,3,6.7,6.7s-3,6.7-6.7,6.7s-6.7-3-6.7-6.7C159.5,246.2,162.5,243.2,166.1,243.2z
		 M166.1,294.4c3.7,0,6.7,3,6.7,6.7s-3,6.7-6.7,6.7s-6.7-3-6.7-6.7C159.5,297.3,162.5,294.4,166.1,294.4z M166.1,345.5
		c3.7,0,6.7,3,6.7,6.7s-3,6.7-6.7,6.7s-6.7-3-6.7-6.7S162.5,345.5,166.1,345.5z M166.1,396.6c3.7,0,6.7,3,6.7,6.7s-3,6.7-6.7,6.7
		s-6.7-3-6.7-6.7S162.5,396.6,166.1,396.6z"/>
	<path class="st3" d="M166.1,158.9c6.2,0,11.3-5.1,11.3-11.3s-5.1-11.3-11.3-11.3s-11.3,5.1-11.3,11.3
		C154.9,153.9,159.9,158.9,166.1,158.9z M166.1,141c3.7,0,6.7,3,6.7,6.7s-3,6.7-6.7,6.7s-6.7-3-6.7-6.7
		C159.5,144,162.5,141,166.1,141z"/>
	<path class="st3" d="M166.1,210.1c6.2,0,11.3-5.1,11.3-11.3s-5.1-11.3-11.3-11.3s-11.3,5.1-11.3,11.3S159.9,210.1,166.1,210.1z
		 M166.1,192.1c3.7,0,6.7,3,6.7,6.7s-3,6.7-6.7,6.7s-6.7-3-6.7-6.7S162.5,192.1,166.1,192.1z"/>
	<path class="st3" d="M166.1,261.2c6.2,0,11.3-5.1,11.3-11.3s-5.1-11.3-11.3-11.3s-11.3,5.1-11.3,11.3
		C154.9,256.1,159.9,261.2,166.1,261.2z M166.1,243.2c3.7,0,6.7,3,6.7,6.7s-3,6.7-6.7,6.7s-6.7-3-6.7-6.7
		C159.5,246.2,162.5,243.2,166.1,243.2z"/>
	<path class="st3" d="M166.1,312.3c6.2,0,11.3-5.1,11.3-11.3s-5.1-11.3-11.3-11.3s-11.3,5.1-11.3,11.3S159.9,312.3,166.1,312.3z
		 M166.1,294.4c3.7,0,6.7,3,6.7,6.7s-3,6.7-6.7,6.7s-6.7-3-6.7-6.7S162.5,294.4,166.1,294.4z"/>
	<path class="st3" d="M166.1,363.4c6.2,0,11.3-5.1,11.3-11.3c0-6.2-5.1-11.3-11.3-11.3s-11.3,5.1-11.3,11.3
		C154.9,358.4,159.9,363.4,166.1,363.4z M166.1,345.5c3.7,0,6.7,3,6.7,6.7s-3,6.7-6.7,6.7s-6.7-3-6.7-6.7
		C159.5,348.5,162.5,345.5,166.1,345.5z"/>
	<path class="st3" d="M166.1,414.6c6.2,0,11.3-5.1,11.3-11.3c0-6.2-5.1-11.3-11.3-11.3s-11.3,5.1-11.3,11.3
		C154.9,409.5,159.9,414.6,166.1,414.6z M166.1,396.6c3.7,0,6.7,3,6.7,6.7s-3,6.7-6.7,6.7s-6.7-3-6.7-6.7
		C159.5,399.6,162.5,396.6,166.1,396.6z"/>
	<g>
		<polygon class="st1" points="163.8,405.2 86.4,326 86.4,317.2 168.2,400.9 		"/>
	</g>
	<g>
		<polygon class="st1" points="163.8,354.2 86.4,275 86.4,266.2 168.2,349.9 		"/>
	</g>
	<g>
		<polygon class="st1" points="67.9,252 63.5,247.7 145.4,164 145.4,172.8 		"/>
	</g>
	<g>
		<polygon class="st1" points="67.9,303.1 63.5,298.8 145.4,215.1 145.4,223.9 		"/>
	</g>
	<g>
		<polygon class="st1" points="163.8,252 86.4,173.2 86.4,164.4 168.2,247.7 		"/>
	</g>
	<g>
		
			<linearGradient id="SVGID_2_" gradientUnits="userSpaceOnUse" x1="-1318.6365" y1="-1315.5643" x2="-1218.3364" y2="-1315.5643" gradientTransform="matrix(-1 0 0 -1 -1152.6365 -1116.7643)">
			<stop  offset="0" style="stop-color:#FF5959"/>
			<stop  offset="1" style="stop-color:#FF5959"/>
		</linearGradient>
		<rect x="65.7" y="195.7" class="st4" width="100.3" height="6.2"/>
	</g>
	<g>
		
			<rect x="143.4" y="253.2" transform="matrix(0.7135 -0.7006 0.7006 0.7135 -154.9351 183.1365)" class="st1" width="6.2" height="55.7"/>
	</g>
	<g>
		<polygon class="st1" points="67.9,354.2 63.5,349.8 130.5,281.5 134.9,285.8 		"/>
	</g>
	<g>
		<polygon class="st1" points="67.9,405.2 63.5,400.9 145.4,317.6 145.3,326.4 		"/>
	</g>
	<circle class="st1" cx="65.7" cy="403.1" r="3.1"/>
	<circle class="st1" cx="166" cy="403.1" r="3.1"/>
	<circle class="st1" cx="166.1" cy="352" r="3"/>
	<circle class="st1" cx="65.7" cy="352" r="3.1"/>
	<circle class="st1" cx="65.6" cy="300.9" r="3"/>
	<circle class="st1" cx="166" cy="300.9" r="3.1"/>
	<circle class="st1" cx="65.6" cy="249.9" r="3"/>
	<circle class="st1" cx="166" cy="249.9" r="3.1"/>
	<circle class="st1" cx="166.1" cy="198.8" r="3"/>
	<circle class="st1" cx="65.7" cy="198.8" r="3.1"/>
	
		<linearGradient id="SVGID_3_" gradientUnits="userSpaceOnUse" x1="116.4011" y1="251.863" x2="110.292" y2="258.3451" gradientTransform="matrix(1 0 0 1 0 -54)">
		<stop  offset="0" style="stop-color:#383642"/>
		<stop  offset="1" style="stop-color:#383642;stop-opacity:0"/>
	</linearGradient>
	<polyline class="st5" points="115.8,203.1 114.6,201.9 108.3,201.9 106,204.3 110.9,208 115.8,203.1 	"/>
	
		<linearGradient id="SVGID_4_" gradientUnits="userSpaceOnUse" x1="140.81" y1="329.9556" x2="134.4174" y2="335.9455" gradientTransform="matrix(1 0 0 1 0 -54)">
		<stop  offset="0" style="stop-color:#383642"/>
		<stop  offset="1" style="stop-color:#383642;stop-opacity:0"/>
	</linearGradient>
	<polygon class="st6" points="130.5,281.5 136.6,275.4 140.9,279.8 135,285.9 	"/>
	
		<linearGradient id="SVGID_5_" gradientUnits="userSpaceOnUse" x1="146.6517" y1="331.1718" x2="143.1306" y2="322.872" gradientTransform="matrix(1 0 0 1 0 -54)">
		<stop  offset="0" style="stop-color:#383642"/>
		<stop  offset="1" style="stop-color:#383642;stop-opacity:0"/>
	</linearGradient>
	<polygon class="st7" points="140.9,271 145.3,275.4 145.3,266.6 	"/>
	
		<linearGradient id="SVGID_6_" gradientUnits="userSpaceOnUse" x1="90.0489" y1="330.4475" x2="86.3251" y2="321.6698" gradientTransform="matrix(1 0 0 1 0 -54)">
		<stop  offset="0" style="stop-color:#383642"/>
		<stop  offset="1" style="stop-color:#383642;stop-opacity:0"/>
	</linearGradient>
	<polygon class="st8" points="86.4,275.5 90.9,270.8 86.4,266.2 	"/>
	
		<linearGradient id="SVGID_7_" gradientUnits="userSpaceOnUse" x1="89.1921" y1="329.4762" x2="96.8043" y2="334.7965" gradientTransform="matrix(1 0 0 1 0 -54)">
		<stop  offset="0" style="stop-color:#383642"/>
		<stop  offset="1" style="stop-color:#383642;stop-opacity:0"/>
	</linearGradient>
	<polygon class="st9" points="90.9,279.6 95.2,275.2 100.6,280.6 95.7,284.5 	"/>
	
		<linearGradient id="SVGID_8_" gradientUnits="userSpaceOnUse" x1="116.8929" y1="303.0703" x2="109.3166" y2="310.3053" gradientTransform="matrix(1 0 0 1 0 -54)">
		<stop  offset="0" style="stop-color:#383642"/>
		<stop  offset="1" style="stop-color:#383642;stop-opacity:0"/>
	</linearGradient>
	<polygon class="st10" points="111.5,249.8 115.8,254.2 110.6,259.5 106.2,255.2 	"/>
	
		<linearGradient id="SVGID_9_" gradientUnits="userSpaceOnUse" x1="115.653" y1="303.7337" x2="121.0452" y2="298.4098" gradientTransform="matrix(1 0 0 1 0 -54)">
		<stop  offset="0" style="stop-color:#383642"/>
		<stop  offset="1" style="stop-color:#383642;stop-opacity:0"/>
	</linearGradient>
	<polygon class="st11" points="115.8,245.4 121.2,239.8 125.4,244.3 120.1,249.8 	"/>
	
		<linearGradient id="SVGID_10_" gradientUnits="userSpaceOnUse" x1="87.0894" y1="283.5349" x2="88.6841" y2="270.668" gradientTransform="matrix(1 0 0 1 0 -54)">
		<stop  offset="0" style="stop-color:#383642"/>
		<stop  offset="1" style="stop-color:#383642;stop-opacity:0"/>
	</linearGradient>
	<polygon class="st12" points="86.4,224.3 90.7,219.9 86.4,215.6 	"/>
	
		<linearGradient id="SVGID_11_" gradientUnits="userSpaceOnUse" x1="90.2348" y1="280.217" x2="96.1184" y2="283.4062" gradientTransform="matrix(1 0 0 1 0 -54)">
		<stop  offset="0" style="stop-color:#383642"/>
		<stop  offset="1" style="stop-color:#383642;stop-opacity:0"/>
	</linearGradient>
	<polygon class="st13" points="90.7,228.7 95.1,224.3 99.1,228.4 94.9,233.3 	"/>
	
		<linearGradient id="SVGID_12_" gradientUnits="userSpaceOnUse" x1="139.7008" y1="277.1508" x2="134.4428" y2="271.8928" gradientTransform="matrix(1 0 0 1 0 -54)">
		<stop  offset="0" style="stop-color:#383642"/>
		<stop  offset="1" style="stop-color:#383642;stop-opacity:0"/>
	</linearGradient>
	<polygon class="st14" points="140.8,219.8 136.3,224.3 131.7,219.3 136.2,215.1 	"/>
	
		<linearGradient id="SVGID_13_" gradientUnits="userSpaceOnUse" x1="148.2201" y1="271.4038" x2="140.7882" y2="278.0616" gradientTransform="matrix(1 0 0 1 0 -54)">
		<stop  offset="0" style="stop-color:#383642"/>
		<stop  offset="1" style="stop-color:#383642;stop-opacity:0"/>
	</linearGradient>
	<polygon class="st15" points="145.4,215.1 145.4,223.9 138.1,231.3 133.9,226.8 	"/>
	
		<linearGradient id="SVGID_14_" gradientUnits="userSpaceOnUse" x1="115.8014" y1="252.8481" x2="115.3747" y2="258.2663" gradientTransform="matrix(1 0 0 1 0 -54)">
		<stop  offset="0" style="stop-color:#383642"/>
		<stop  offset="1" style="stop-color:#383642;stop-opacity:0"/>
	</linearGradient>
	<polygon class="st16" points="123.2,201.9 126.6,205.3 121.6,209 115.8,203.1 109.9,209.1 103.9,206.4 108.3,201.9 	"/>
	
		<linearGradient id="SVGID_15_" gradientUnits="userSpaceOnUse" x1="144.0357" y1="277.3143" x2="145.3409" y2="284.0414" gradientTransform="matrix(1 0 0 1 0 -54)">
		<stop  offset="0" style="stop-color:#383642"/>
		<stop  offset="1" style="stop-color:#383642;stop-opacity:0"/>
	</linearGradient>
	<polygon class="st17" points="145.4,223.9 149.6,228.8 145.1,232.9 140.6,228.8 	"/>
	
		<linearGradient id="SVGID_16_" gradientUnits="userSpaceOnUse" x1="116.5534" y1="255.875" x2="116.0005" y2="247.651" gradientTransform="matrix(1 0 0 1 0 -54)">
		<stop  offset="0" style="stop-color:#383642"/>
		<stop  offset="1" style="stop-color:#383642;stop-opacity:0"/>
	</linearGradient>
	<polygon class="st18" points="108.6,195.7 122.9,195.7 125.9,192.7 120.5,189.4 115.8,194.3 110.8,189.2 106,193.1 	"/>
	
		<linearGradient id="SVGID_17_" gradientUnits="userSpaceOnUse" x1="83.2996" y1="222.0762" x2="91.6026" y2="226.9903" gradientTransform="matrix(1 0 0 1 0 -54)">
		<stop  offset="0" style="stop-color:#383642"/>
		<stop  offset="1" style="stop-color:#383642;stop-opacity:0"/>
	</linearGradient>
	<polygon class="st19" points="86.4,164.4 86.4,173.2 91.6,178.5 95.2,173.3 	"/>
	
		<linearGradient id="SVGID_18_" gradientUnits="userSpaceOnUse" x1="147.1526" y1="219.1218" x2="140.3746" y2="227.5942" gradientTransform="matrix(1 0 0 1 0 -54)">
		<stop  offset="0" style="stop-color:#383642"/>
		<stop  offset="1" style="stop-color:#383642;stop-opacity:0"/>
	</linearGradient>
	<polygon class="st20" points="145.4,164 145.4,172.8 139.3,179 135.9,173.7 	"/>
	
		<linearGradient id="SVGID_19_" gradientUnits="userSpaceOnUse" x1="72.1717" y1="258.8743" x2="67.3463" y2="256.1489" gradientTransform="matrix(1 0 0 1 0 -54)">
		<stop  offset="0" style="stop-color:#383642"/>
		<stop  offset="1" style="stop-color:#383642;stop-opacity:0"/>
	</linearGradient>
	<path class="st21" d="M66.2,203.6l1.5,1.5c1.7-0.5,3.1-1.7,3.9-3.3h-4.2L66.2,203.6z"/>
	
		<linearGradient id="SVGID_20_" gradientUnits="userSpaceOnUse" x1="-4274.6499" y1="258.9131" x2="-4279.4751" y2="256.1878" gradientTransform="matrix(-1 0 0 1 -4114.9902 -54)">
		<stop  offset="0" style="stop-color:#383642"/>
		<stop  offset="1" style="stop-color:#383642;stop-opacity:0"/>
	</linearGradient>
	<path class="st22" d="M165.7,203.6l-1.5,1.5c-1.7-0.5-3.1-1.7-3.9-3.3h4.2L165.7,203.6z"/>
	
		<linearGradient id="SVGID_21_" gradientUnits="userSpaceOnUse" x1="159.2205" y1="311.2762" x2="163.9771" y2="305.7267" gradientTransform="matrix(1 0 0 1 0 -54)">
		<stop  offset="0" style="stop-color:#383642"/>
		<stop  offset="1" style="stop-color:#383642;stop-opacity:0"/>
	</linearGradient>
	<path class="st23" d="M161.7,249.9l-2,1.7c0.6,2.3,2.4,4.1,4.7,4.7l2.7-3.1L161.7,249.9z"/>
	
		<linearGradient id="SVGID_22_" gradientUnits="userSpaceOnUse" x1="-3006.5684" y1="1821.8079" x2="-3001.8118" y2="1816.2584" gradientTransform="matrix(-1.995001e-02 -0.9998 0.9998 -1.995001e-02 -1808.2947 -2712.8989)">
		<stop  offset="0" style="stop-color:#383642"/>
		<stop  offset="1" style="stop-color:#383642;stop-opacity:0"/>
	</linearGradient>
	<path class="st24" d="M65.7,254.3l1.7,2c2.3-0.6,4.1-2.5,4.6-4.8l-3.2-2.6L65.7,254.3z"/>
	
		<linearGradient id="SVGID_23_" gradientUnits="userSpaceOnUse" x1="159.1897" y1="362.3121" x2="163.9463" y2="356.7627" gradientTransform="matrix(1 0 0 1 0 -54)">
		<stop  offset="0" style="stop-color:#383642"/>
		<stop  offset="1" style="stop-color:#383642;stop-opacity:0"/>
	</linearGradient>
	<path class="st25" d="M161.7,300.9l-2,1.7c0.6,2.3,2.4,4.1,4.7,4.7l2.7-3.1L161.7,300.9z"/>
	
		<linearGradient id="SVGID_24_" gradientUnits="userSpaceOnUse" x1="-3057.6042" y1="1820.8031" x2="-3052.8477" y2="1815.2535" gradientTransform="matrix(-1.995001e-02 -0.9998 0.9998 -1.995001e-02 -1808.2947 -2712.8989)">
		<stop  offset="0" style="stop-color:#383642"/>
		<stop  offset="1" style="stop-color:#383642;stop-opacity:0"/>
	</linearGradient>
	<path class="st26" d="M65.7,305.4l1.7,2c2.3-0.6,4.1-2.5,4.6-4.8l-3-2.6L65.7,305.4z"/>
	
		<linearGradient id="SVGID_25_" gradientUnits="userSpaceOnUse" x1="-1294.5236" y1="-2606.3459" x2="-1301.7279" y2="-2599.4661" gradientTransform="matrix(0 1 -1 0 -2489.6907 1596.1837)">
		<stop  offset="0" style="stop-color:#383642"/>
		<stop  offset="1" style="stop-color:#383642;stop-opacity:0"/>
	</linearGradient>
	<polygon class="st27" points="116,296.3 111.6,300.8 106.5,295.7 111,291.3 	"/>
	
		<linearGradient id="SVGID_26_" gradientUnits="userSpaceOnUse" x1="-1295.4331" y1="-2605.5896" x2="-1289.9784" y2="-2610.9751" gradientTransform="matrix(0 1 -1 0 -2489.6907 1596.1837)">
		<stop  offset="0" style="stop-color:#383642"/>
		<stop  offset="1" style="stop-color:#383642;stop-opacity:0"/>
	</linearGradient>
	<polygon class="st28" points="120.3,300.8 125.9,306.3 121.2,310.7 116,305.2 	"/>
	
		<linearGradient id="SVGID_27_" gradientUnits="userSpaceOnUse" x1="65.95" y1="414.3069" x2="65.95" y2="408.7555" gradientTransform="matrix(1 0 0 1 0 -54)">
		<stop  offset="0" style="stop-color:#383642"/>
		<stop  offset="1" style="stop-color:#383642;stop-opacity:0"/>
	</linearGradient>
	<path class="st29" d="M69.5,357.6v-4l-7.1,0.6v3.8c1,0.5,2.1,0.9,3.3,0.9C67.1,358.8,68.4,358.3,69.5,357.6z"/>
	
		<linearGradient id="SVGID_28_" gradientUnits="userSpaceOnUse" x1="-4266.3579" y1="414.3069" x2="-4266.3579" y2="408.7555" gradientTransform="matrix(-1 0 0 1 -4100.6079 -54)">
		<stop  offset="0" style="stop-color:#383642"/>
		<stop  offset="1" style="stop-color:#383642;stop-opacity:0"/>
	</linearGradient>
	<path class="st30" d="M162.2,357.6v-4l7.1,0.6v3.8c-1,0.5-2.1,0.9-3.3,0.9C164.7,358.8,163.3,358.3,162.2,357.6z"/>
	
		<linearGradient id="SVGID_29_" gradientUnits="userSpaceOnUse" x1="166.2551" y1="449.2224" x2="167.5763" y2="453.0776" gradientTransform="matrix(1 0 0 1 0 -54)">
		<stop  offset="0" style="stop-color:#383642"/>
		<stop  offset="1" style="stop-color:#383642;stop-opacity:0"/>
	</linearGradient>
	<path class="st31" d="M164.3,396.9l2.9,3l2.4-2.3c-1-0.6-2.2-1-3.5-1C165.5,396.6,164.9,396.7,164.3,396.9z"/>
	
		<linearGradient id="SVGID_30_" gradientUnits="userSpaceOnUse" x1="-4491.4531" y1="449.2225" x2="-4490.1318" y2="453.0778" gradientTransform="matrix(-1 0 0 1 -4425.9082 -54)">
		<stop  offset="0" style="stop-color:#383642"/>
		<stop  offset="1" style="stop-color:#383642;stop-opacity:0"/>
	</linearGradient>
	<path class="st32" d="M67.5,396.9l-2.9,3l-2.4-2.3c1-0.6,2.2-1,3.5-1C66.3,396.6,66.9,396.7,67.5,396.9z"/>
	
		<linearGradient id="SVGID_31_" gradientUnits="userSpaceOnUse" x1="91.5616" y1="380.4312" x2="85.9949" y2="385.0191" gradientTransform="matrix(1 0 0 1 0 -54)">
		<stop  offset="0" style="stop-color:#383642"/>
		<stop  offset="1" style="stop-color:#383642;stop-opacity:0"/>
	</linearGradient>
	<polygon class="st33" points="86.4,326 91.1,330.8 86,335.7 82.1,330.9 	"/>
	
		<linearGradient id="SVGID_32_" gradientUnits="userSpaceOnUse" x1="83.8683" y1="374.8028" x2="87.7295" y2="376.0186" gradientTransform="matrix(1 0 0 1 0 -54)">
		<stop  offset="0" style="stop-color:#383642"/>
		<stop  offset="1" style="stop-color:#383642;stop-opacity:0"/>
	</linearGradient>
	<polygon class="st34" points="86.4,326 86.4,317.2 91,321.9 	"/>
	
		<linearGradient id="SVGID_33_" gradientUnits="userSpaceOnUse" x1="90.2233" y1="381.4424" x2="97.1357" y2="373.9182" gradientTransform="matrix(1 0 0 1 0 -54)">
		<stop  offset="0" style="stop-color:#383642"/>
		<stop  offset="1" style="stop-color:#383642;stop-opacity:0"/>
	</linearGradient>
	<polygon class="st35" points="91,321.9 95.3,326.5 101.1,320.3 96.4,316.3 	"/>
	
		<linearGradient id="SVGID_34_" gradientUnits="userSpaceOnUse" x1="144.923" y1="380.3881" x2="142.7861" y2="372.2173" gradientTransform="matrix(1 0 0 1 0 -54)">
		<stop  offset="0" style="stop-color:#383642"/>
		<stop  offset="1" style="stop-color:#383642;stop-opacity:0"/>
	</linearGradient>
	<polygon class="st36" points="141,322 145.4,317.6 145.3,326.4 	"/>
	<circle class="st1" cx="166.1" cy="147.6" r="3.2"/>
	
		<linearGradient id="SVGID_35_" gradientUnits="userSpaceOnUse" x1="141.6328" y1="380.4411" x2="134.9705" y2="386.4748" gradientTransform="matrix(1 0 0 1 0 -54)">
		<stop  offset="0" style="stop-color:#383642"/>
		<stop  offset="1" style="stop-color:#383642;stop-opacity:0"/>
	</linearGradient>
	<polygon class="st37" points="136.7,326.4 141,330.8 134.4,337.5 129.8,333.4 	"/>
	
		<linearGradient id="SVGID_36_" gradientUnits="userSpaceOnUse" x1="116.07" y1="407.4124" x2="109.8883" y2="399.4475" gradientTransform="matrix(1 0 0 1 0 -54)">
		<stop  offset="0" style="stop-color:#383642"/>
		<stop  offset="1" style="stop-color:#383642;stop-opacity:0"/>
	</linearGradient>
	<polygon class="st38" points="111.7,351.9 116,347.5 108.7,340 105.1,345.1 	"/>
	
		<linearGradient id="SVGID_37_" gradientUnits="userSpaceOnUse" x1="115.7791" y1="405.1738" x2="120.4154" y2="410.4046" gradientTransform="matrix(1 0 0 1 0 -54)">
		<stop  offset="0" style="stop-color:#383642"/>
		<stop  offset="1" style="stop-color:#383642;stop-opacity:0"/>
	</linearGradient>
	<polygon class="st39" points="116,356.3 120.3,351.9 125,356.7 121,361.4 	"/>
	
		<linearGradient id="SVGID_38_" gradientUnits="userSpaceOnUse" x1="114.9163" y1="253.6724" x2="121.3984" y2="246.9571" gradientTransform="matrix(1 0 0 1 0 -54)">
		<stop  offset="0" style="stop-color:#383642"/>
		<stop  offset="1" style="stop-color:#383642;stop-opacity:0"/>
	</linearGradient>
	<polygon class="st40" points="115.8,194.3 117.2,195.7 122.9,195.7 127.3,191.3 121.8,188.1 	"/>
	<circle class="st1" cx="65.7" cy="147.7" r="3.2"/>
	
		<linearGradient id="SVGID_39_" gradientUnits="userSpaceOnUse" x1="71.5414" y1="207.9108" x2="66.0184" y2="202.2473" gradientTransform="matrix(1 0 0 1 0 -54)">
		<stop  offset="0" style="stop-color:#383642"/>
		<stop  offset="1" style="stop-color:#383642;stop-opacity:0"/>
	</linearGradient>
	<path class="st41" d="M66.4,144.3l-4.6,4.1l5.5,5.6c2.1-0.6,3.8-2.2,4.6-4.2L66.4,144.3z"/>
	
		<linearGradient id="SVGID_40_" gradientUnits="userSpaceOnUse" x1="160.2926" y1="206.9028" x2="165.4234" y2="203.0893" gradientTransform="matrix(1 0 0 1 0 -54)">
		<stop  offset="0" style="stop-color:#383642"/>
		<stop  offset="1" style="stop-color:#383642;stop-opacity:0"/>
	</linearGradient>
	<path class="st42" d="M164,145.5l-4.2,4.1c0.7,2.3,2.6,4.1,5,4.6l3.5-4.4L164,145.5z"/>
</g>
<path class="st43" d="M71.9,70.3c0,0-32.9,51.1-6.6,77.4"/>
<path class="st43" d="M166,147.5c0,0,20.8-21.9-3.8-77.2"/>
<g>
	<path class="st44" d="M81.1,48.4c-2.1-0.9-4.5,0-5.5,2.1L64.5,75.7l7.6,3.3l11.1-25.3C84.1,51.8,83.1,49.3,81.1,48.4z"/>
</g>
<g>
	<path class="st44" d="M155.7,49.6c-2.2,0.8-3.3,3.1-2.6,5.3l9.2,26l7.8-2.8l-9.2-26C160.3,50,157.8,48.8,155.7,49.6z"/>
</g>
</svg>
