<?xml version="1.0" encoding="utf-8"?>
<!-- Generator: Adobe Illustrator 21.1.0, SVG Export Plug-In . SVG Version: 6.00 Build 0)  -->
<!DOCTYPE svg PUBLIC "-//W3C//DTD SVG 1.1//EN" "http://www.w3.org/Graphics/SVG/1.1/DTD/svg11.dtd">
<svg version="1.1" id="Layer_1" xmlns="http://www.w3.org/2000/svg" xmlns:xlink="http://www.w3.org/1999/xlink" x="0px" y="0px"
	 viewBox="0 0 231.8 444.7" style="enable-background:new 0 0 231.8 444.7;" xml:space="preserve">
<style type="text/css">
	.st0{fill:url(#SVGID_1_);}
	.st1{fill:none;stroke:url(#SVGID_2_);stroke-width:6.1521;stroke-miterlimit:10;}
	.st2{fill:none;stroke:url(#SVGID_3_);stroke-width:6.1521;stroke-miterlimit:10;}
	.st3{fill:none;stroke:url(#SVGID_4_);stroke-width:6.1521;stroke-miterlimit:10;}
	.st4{fill:none;stroke:url(#SVGID_5_);stroke-width:6.1521;stroke-miterlimit:10;}
	.st5{fill:none;stroke:url(#SVGID_6_);stroke-width:6.1521;stroke-miterlimit:10;}
	.st6{fill:none;stroke:url(#SVGID_7_);stroke-width:6.1521;stroke-miterlimit:10;}
	.st7{fill:#383642;}
	.st8{fill:#646569;}
	.st9{fill:#9352E8;}
	.st10{fill:none;stroke:url(#SVGID_8_);stroke-width:6.1521;stroke-miterlimit:10;}
	.st11{fill:none;stroke:url(#SVGID_9_);stroke-width:6.1521;stroke-miterlimit:10;}
	.st12{fill:none;stroke:url(#SVGID_10_);stroke-width:6.1521;stroke-miterlimit:10;}
	.st13{fill:none;stroke:url(#SVGID_11_);stroke-width:6.1521;stroke-miterlimit:10;}
	.st14{fill:none;stroke:url(#SVGID_12_);stroke-width:6.1521;stroke-miterlimit:10;}
	.st15{fill:url(#SVGID_13_);}
	.st16{fill:url(#SVGID_14_);}
	.st17{fill:url(#SVGID_15_);}
	.st18{fill:url(#SVGID_16_);}
	.st19{fill:url(#SVGID_17_);}
	.st20{fill:url(#SVGID_18_);}
	.st21{fill:url(#SVGID_19_);}
	.st22{fill:url(#SVGID_20_);}
	.st23{fill:url(#SVGID_21_);}
	.st24{fill:url(#SVGID_22_);}
	.st25{fill:url(#SVGID_23_);}
	.st26{fill:url(#SVGID_24_);}
	.st27{fill:none;stroke:url(#SVGID_25_);stroke-width:6.1521;stroke-miterlimit:10;}
	.st28{fill:#AAAAAA;}
	.st29{fill:none;stroke:url(#SVGID_26_);stroke-width:6.1521;stroke-miterlimit:10;}
</style>
<g>
	
		<linearGradient id="SVGID_1_" gradientUnits="userSpaceOnUse" x1="2.892" y1="333.05" x2="231.1475" y2="333.05" gradientTransform="matrix(1 0 0 1 0 -54)">
		<stop  offset="0" style="stop-color:#000000"/>
		<stop  offset="0.5303" style="stop-color:#383642"/>
		<stop  offset="1" style="stop-color:#000000"/>
	</linearGradient>
	<rect x="6.2" y="116.8" class="st0" width="219.5" height="324.5"/>
	
		<linearGradient id="SVGID_2_" gradientUnits="userSpaceOnUse" x1="64.0146" y1="330.25" x2="167.6854" y2="330.25" gradientTransform="matrix(1 0 0 1 0 -54)">
		<stop  offset="0" style="stop-color:#9352E8"/>
		<stop  offset="1" style="stop-color:#9352E8"/>
	</linearGradient>
	<line class="st1" x1="166.3" y1="301.7" x2="65.4" y2="250.8"/>
	
		<linearGradient id="SVGID_3_" gradientUnits="userSpaceOnUse" x1="64.1113" y1="330.2" x2="167.6887" y2="330.2" gradientTransform="matrix(1 0 0 1 0 -54)">
		<stop  offset="0" style="stop-color:#9352E8"/>
		<stop  offset="1" style="stop-color:#9352E8"/>
	</linearGradient>
	<line class="st2" x1="65.5" y1="301.7" x2="166.3" y2="250.7"/>
	
		<linearGradient id="SVGID_4_" gradientUnits="userSpaceOnUse" x1="64.0124" y1="228" x2="167.6876" y2="228" gradientTransform="matrix(1 0 0 1 0 -54)">
		<stop  offset="0" style="stop-color:#9352E8"/>
		<stop  offset="1" style="stop-color:#9352E8"/>
	</linearGradient>
	<line class="st3" x1="166.3" y1="199.5" x2="65.4" y2="148.5"/>
	
		<linearGradient id="SVGID_5_" gradientUnits="userSpaceOnUse" x1="64.1091" y1="227.95" x2="167.6909" y2="227.95" gradientTransform="matrix(1 0 0 1 0 -54)">
		<stop  offset="0" style="stop-color:#9352E8"/>
		<stop  offset="1" style="stop-color:#9352E8"/>
	</linearGradient>
	<line class="st4" x1="166.3" y1="148.4" x2="65.5" y2="199.5"/>
	
		<linearGradient id="SVGID_6_" gradientUnits="userSpaceOnUse" x1="64.0124" y1="432.4" x2="167.6876" y2="432.4" gradientTransform="matrix(1 0 0 1 0 -54)">
		<stop  offset="0" style="stop-color:#9352E8"/>
		<stop  offset="1" style="stop-color:#9352E8"/>
	</linearGradient>
	<line class="st5" x1="166.3" y1="403.9" x2="65.4" y2="352.9"/>
	
		<linearGradient id="SVGID_7_" gradientUnits="userSpaceOnUse" x1="64.1091" y1="432.35" x2="167.6909" y2="432.35" gradientTransform="matrix(1 0 0 1 0 -54)">
		<stop  offset="0" style="stop-color:#9352E8"/>
		<stop  offset="1" style="stop-color:#9352E8"/>
	</linearGradient>
	<line class="st6" x1="65.5" y1="403.9" x2="166.3" y2="352.8"/>
	<g>
		<path class="st7" d="M0,107.8v336.8h86.4V107.8H0z M65.7,410.7c-3.7,0-6.7-3-6.7-6.7s3-6.7,6.7-6.7c3.7,0,6.7,3,6.7,6.7
			S69.3,410.7,65.7,410.7z M65.7,359.6c-3.7,0-6.7-3-6.7-6.7s3-6.7,6.7-6.7c3.7,0,6.7,3,6.7,6.7S69.3,359.6,65.7,359.6z M65.7,308.5
			c-3.7,0-6.7-3-6.7-6.7s3-6.7,6.7-6.7c3.7,0,6.7,3,6.7,6.7C72.3,305.5,69.3,308.5,65.7,308.5z M65.7,257.3c-3.7,0-6.7-3-6.7-6.7
			s3-6.7,6.7-6.7c3.7,0,6.7,3,6.7,6.7C72.3,254.3,69.3,257.3,65.7,257.3z M65.7,206.2c-3.7,0-6.7-3-6.7-6.7s3-6.7,6.7-6.7
			c3.7,0,6.7,3,6.7,6.7C72.3,203.2,69.3,206.2,65.7,206.2z M65.7,155.1c-3.7,0-6.7-3-6.7-6.7s3-6.7,6.7-6.7c3.7,0,6.7,3,6.7,6.7
			C72.3,152.1,69.3,155.1,65.7,155.1z"/>
	</g>
	<g>
		<path class="st8" d="M65.7,392.7c-6.2,0-11.3,5.1-11.3,11.3c0,6.2,5.1,11.3,11.3,11.3S77,410.2,77,404
			C76.9,397.8,71.9,392.7,65.7,392.7z M65.7,410.7c-3.7,0-6.7-3-6.7-6.7s3-6.7,6.7-6.7c3.7,0,6.7,3,6.7,6.7
			C72.3,407.7,69.3,410.7,65.7,410.7z"/>
	</g>
	<g>
		<path class="st8" d="M65.7,341.6c-6.2,0-11.3,5.1-11.3,11.3c0,6.2,5.1,11.3,11.3,11.3S77,359.1,77,352.9
			C76.9,346.7,71.9,341.6,65.7,341.6z M65.7,359.6c-3.7,0-6.7-3-6.7-6.7s3-6.7,6.7-6.7c3.7,0,6.7,3,6.7,6.7
			C72.3,356.6,69.3,359.6,65.7,359.6z"/>
	</g>
	<g>
		<path class="st8" d="M65.7,290.5c-6.2,0-11.3,5.1-11.3,11.3s5.1,11.3,11.3,11.3S77,308,77,301.8S71.9,290.5,65.7,290.5z
			 M65.7,308.5c-3.7,0-6.7-3-6.7-6.7s3-6.7,6.7-6.7c3.7,0,6.7,3,6.7,6.7S69.3,308.5,65.7,308.5z"/>
	</g>
	<g>
		<path class="st8" d="M65.7,239.4c-6.2,0-11.3,5.1-11.3,11.3S59.5,262,65.7,262S77,256.9,77,250.7
			C76.9,244.4,71.9,239.4,65.7,239.4z M65.7,257.3c-3.7,0-6.7-3-6.7-6.7s3-6.7,6.7-6.7c3.7,0,6.7,3,6.7,6.7
			C72.3,254.3,69.3,257.3,65.7,257.3z"/>
	</g>
	<g>
		<path class="st8" d="M65.7,188.3c-6.2,0-11.3,5.1-11.3,11.3s5.1,11.3,11.3,11.3S77,205.8,77,199.6S71.9,188.3,65.7,188.3z
			 M65.7,206.2c-3.7,0-6.7-3-6.7-6.7s3-6.7,6.7-6.7c3.7,0,6.7,3,6.7,6.7S69.3,206.2,65.7,206.2z"/>
	</g>
	<g>
		<path class="st8" d="M65.7,137.1c-6.2,0-11.3,5.1-11.3,11.3s5.1,11.3,11.3,11.3S77,154.6,77,148.4
			C76.9,142.2,71.9,137.1,65.7,137.1z M65.7,155.1c-3.7,0-6.7-3-6.7-6.7s3-6.7,6.7-6.7c3.7,0,6.7,3,6.7,6.7
			C72.3,152.1,69.3,155.1,65.7,155.1z"/>
	</g>
	<g>
		<path class="st7" d="M231.8,444.7V107.8h-86.4v336.8h86.4L231.8,444.7L231.8,444.7z M166.1,141.8c3.7,0,6.7,3,6.7,6.7
			s-3,6.7-6.7,6.7s-6.7-3-6.7-6.7S162.5,141.8,166.1,141.8z M166.1,192.9c3.7,0,6.7,3,6.7,6.7s-3,6.7-6.7,6.7s-6.7-3-6.7-6.7
			C159.5,195.9,162.5,192.9,166.1,192.9z M166.1,244c3.7,0,6.7,3,6.7,6.7s-3,6.7-6.7,6.7s-6.7-3-6.7-6.7
			C159.5,247,162.5,244,166.1,244z M166.1,295.1c3.7,0,6.7,3,6.7,6.7s-3,6.7-6.7,6.7s-6.7-3-6.7-6.7
			C159.5,298.1,162.5,295.1,166.1,295.1z M166.1,346.2c3.7,0,6.7,3,6.7,6.7s-3,6.7-6.7,6.7s-6.7-3-6.7-6.7
			C159.5,349.2,162.5,346.2,166.1,346.2z M166.1,397.4c3.7,0,6.7,3,6.7,6.7s-3,6.7-6.7,6.7s-6.7-3-6.7-6.7
			C159.5,400.3,162.5,397.4,166.1,397.4z"/>
	</g>
	<g>
		<path class="st8" d="M166.1,159.7c6.2,0,11.3-5.1,11.3-11.3s-5.1-11.3-11.3-11.3s-11.3,5.1-11.3,11.3
			C154.9,154.7,159.9,159.7,166.1,159.7z M166.1,141.8c3.7,0,6.7,3,6.7,6.7s-3,6.7-6.7,6.7s-6.7-3-6.7-6.7
			C159.5,144.7,162.5,141.8,166.1,141.8z"/>
	</g>
	<g>
		<path class="st8" d="M166.1,210.8c6.2,0,11.3-5.1,11.3-11.3s-5.1-11.3-11.3-11.3s-11.3,5.1-11.3,11.3
			C154.9,205.8,159.9,210.8,166.1,210.8z M166.1,192.9c3.7,0,6.7,3,6.7,6.7s-3,6.7-6.7,6.7s-6.7-3-6.7-6.7
			C159.5,195.9,162.5,192.9,166.1,192.9z"/>
	</g>
	<g>
		<path class="st8" d="M166.1,262c6.2,0,11.3-5.1,11.3-11.3s-5.1-11.3-11.3-11.3s-11.3,5.1-11.3,11.3S159.9,262,166.1,262z
			 M166.1,244c3.7,0,6.7,3,6.7,6.7s-3,6.7-6.7,6.7s-6.7-3-6.7-6.7S162.5,244,166.1,244z"/>
	</g>
	<g>
		<path class="st8" d="M166.1,313.1c6.2,0,11.3-5.1,11.3-11.3s-5.1-11.3-11.3-11.3s-11.3,5.1-11.3,11.3S159.9,313.1,166.1,313.1z
			 M166.1,295.1c3.7,0,6.7,3,6.7,6.7s-3,6.7-6.7,6.7s-6.7-3-6.7-6.7S162.5,295.1,166.1,295.1z"/>
	</g>
	<g>
		<path class="st8" d="M166.1,364.2c6.2,0,11.3-5.1,11.3-11.3s-5.1-11.3-11.3-11.3s-11.3,5.1-11.3,11.3S159.9,364.2,166.1,364.2z
			 M166.1,346.2c3.7,0,6.7,3,6.7,6.7s-3,6.7-6.7,6.7s-6.7-3-6.7-6.7S162.5,346.2,166.1,346.2z"/>
	</g>
	<g>
		<path class="st8" d="M166.1,415.3c6.2,0,11.3-5.1,11.3-11.3c0-6.2-5.1-11.3-11.3-11.3s-11.3,5.1-11.3,11.3
			C154.9,410.3,159.9,415.3,166.1,415.3z M166.1,397.4c3.7,0,6.7,3,6.7,6.7s-3,6.7-6.7,6.7s-6.7-3-6.7-6.7S162.5,397.4,166.1,397.4z
			"/>
	</g>
	<g>
		<circle class="st9" cx="166.3" cy="403.9" r="2.9"/>
	</g>
	<g>
		<circle class="st9" cx="166.3" cy="352.8" r="2.9"/>
	</g>
	<g>
		<circle class="st9" cx="166.2" cy="301.7" r="3"/>
	</g>
	<g>
		<circle class="st9" cx="65.5" cy="403.9" r="2.9"/>
	</g>
	<g>
		<circle class="st9" cx="65.4" cy="352.9" r="3"/>
	</g>
	<g>
		<circle class="st9" cx="166.3" cy="199.5" r="2.9"/>
	</g>
	<g>
		<circle class="st9" cx="65.4" cy="199.5" r="3"/>
	</g>
	<g>
		<circle class="st9" cx="65.4" cy="301.7" r="3"/>
	</g>
	<g>
		<circle class="st9" cx="166.2" cy="250.8" r="3"/>
	</g>
	<g>
		<circle class="st9" cx="65.4" cy="250.7" r="3"/>
	</g>
	
		<linearGradient id="SVGID_8_" gradientUnits="userSpaceOnUse" x1="65.5" y1="457.9" x2="166.3" y2="457.9" gradientTransform="matrix(1 0 0 1 0 -54)">
		<stop  offset="0" style="stop-color:#9352E8"/>
		<stop  offset="1" style="stop-color:#9352E8"/>
	</linearGradient>
	<line class="st10" x1="65.5" y1="403.9" x2="166.3" y2="403.9"/>
	
		<linearGradient id="SVGID_9_" gradientUnits="userSpaceOnUse" x1="64.0124" y1="381.3" x2="167.6876" y2="381.3" gradientTransform="matrix(1 0 0 1 0 -54)">
		<stop  offset="0" style="stop-color:#9352E8"/>
		<stop  offset="1" style="stop-color:#9352E8"/>
	</linearGradient>
	<line class="st11" x1="166.3" y1="352.8" x2="65.4" y2="301.8"/>
	
		<linearGradient id="SVGID_10_" gradientUnits="userSpaceOnUse" x1="64.1113" y1="381.3" x2="167.6887" y2="381.3" gradientTransform="matrix(1 0 0 1 0 -54)">
		<stop  offset="0" style="stop-color:#9352E8"/>
		<stop  offset="1" style="stop-color:#9352E8"/>
	</linearGradient>
	<line class="st12" x1="65.5" y1="352.8" x2="166.3" y2="301.8"/>
	
		<linearGradient id="SVGID_11_" gradientUnits="userSpaceOnUse" x1="64.0124" y1="279.1" x2="167.6876" y2="279.1" gradientTransform="matrix(1 0 0 1 0 -54)">
		<stop  offset="0" style="stop-color:#9352E8"/>
		<stop  offset="1" style="stop-color:#9352E8"/>
	</linearGradient>
	<line class="st13" x1="166.3" y1="250.6" x2="65.4" y2="199.6"/>
	
		<linearGradient id="SVGID_12_" gradientUnits="userSpaceOnUse" x1="64.1091" y1="279.05" x2="167.6909" y2="279.05" gradientTransform="matrix(1 0 0 1 0 -54)">
		<stop  offset="0" style="stop-color:#9352E8"/>
		<stop  offset="1" style="stop-color:#9352E8"/>
	</linearGradient>
	<line class="st14" x1="65.5" y1="250.6" x2="166.3" y2="199.5"/>
	
		<linearGradient id="SVGID_13_" gradientUnits="userSpaceOnUse" x1="117.1279" y1="228.497" x2="124.2698" y2="232.2781" gradientTransform="matrix(1 0 0 1 0 -54)">
		<stop  offset="0" style="stop-color:#383642"/>
		<stop  offset="1" style="stop-color:#383642;stop-opacity:0"/>
	</linearGradient>
	<polygon class="st15" points="115.8,177.4 122.6,173.9 129.8,177.6 124.4,181.8 	"/>
	
		<linearGradient id="SVGID_14_" gradientUnits="userSpaceOnUse" x1="-9279.2168" y1="255.5912" x2="-9272.0742" y2="259.3723" gradientTransform="matrix(-1 0 0 -1 -9164.6484 428.9918)">
		<stop  offset="0" style="stop-color:#383642"/>
		<stop  offset="1" style="stop-color:#383642;stop-opacity:0"/>
	</linearGradient>
	<polygon class="st16" points="115.9,170.5 109.1,173.9 101.9,170.3 107.3,166.1 	"/>
	
		<linearGradient id="SVGID_15_" gradientUnits="userSpaceOnUse" x1="117.1329" y1="279.4998" x2="124.2748" y2="283.2808" gradientTransform="matrix(1 0 0 1 0 -54)">
		<stop  offset="0" style="stop-color:#383642"/>
		<stop  offset="1" style="stop-color:#383642;stop-opacity:0"/>
	</linearGradient>
	<polygon class="st17" points="115.8,228.4 122.6,225 129.8,228.6 124.4,232.8 	"/>
	
		<linearGradient id="SVGID_16_" gradientUnits="userSpaceOnUse" x1="-9279.2217" y1="204.5886" x2="-9272.0791" y2="208.3696" gradientTransform="matrix(-1 0 0 -1 -9164.6484 428.9918)">
		<stop  offset="0" style="stop-color:#383642"/>
		<stop  offset="1" style="stop-color:#383642;stop-opacity:0"/>
	</linearGradient>
	<polygon class="st18" points="115.9,221.5 109.1,225 101.9,221.3 107.3,217.1 	"/>
	
		<linearGradient id="SVGID_17_" gradientUnits="userSpaceOnUse" x1="117.123" y1="330.8446" x2="124.2649" y2="334.6255" gradientTransform="matrix(1 0 0 1 0 -54)">
		<stop  offset="0" style="stop-color:#383642"/>
		<stop  offset="1" style="stop-color:#383642;stop-opacity:0"/>
	</linearGradient>
	<polygon class="st19" points="115.8,279.8 122.6,276.3 129.8,279.9 124.4,284.1 	"/>
	
		<linearGradient id="SVGID_18_" gradientUnits="userSpaceOnUse" x1="-9279.2119" y1="153.2438" x2="-9272.0693" y2="157.0248" gradientTransform="matrix(-1 0 0 -1 -9164.6484 428.9918)">
		<stop  offset="0" style="stop-color:#383642"/>
		<stop  offset="1" style="stop-color:#383642;stop-opacity:0"/>
	</linearGradient>
	<polygon class="st20" points="115.9,272.8 109.1,276.3 101.9,272.7 107.3,268.4 	"/>
	
		<linearGradient id="SVGID_19_" gradientUnits="userSpaceOnUse" x1="117.14" y1="381.9035" x2="124.2819" y2="385.6845" gradientTransform="matrix(1 0 0 1 0 -54)">
		<stop  offset="0" style="stop-color:#383642"/>
		<stop  offset="1" style="stop-color:#383642;stop-opacity:0"/>
	</linearGradient>
	<polygon class="st21" points="115.8,330.8 122.6,327.4 129.8,331 124.4,335.2 	"/>
	
		<linearGradient id="SVGID_20_" gradientUnits="userSpaceOnUse" x1="-9279.2285" y1="102.185" x2="-9272.0859" y2="105.966" gradientTransform="matrix(-1 0 0 -1 -9164.6484 428.9918)">
		<stop  offset="0" style="stop-color:#383642"/>
		<stop  offset="1" style="stop-color:#383642;stop-opacity:0"/>
	</linearGradient>
	<polygon class="st22" points="115.9,323.9 109.1,327.4 101.9,323.7 107.3,319.5 	"/>
	
		<linearGradient id="SVGID_21_" gradientUnits="userSpaceOnUse" x1="117.1308" y1="432.9486" x2="124.2727" y2="436.7297" gradientTransform="matrix(1 0 0 1 0 -54)">
		<stop  offset="0" style="stop-color:#383642"/>
		<stop  offset="1" style="stop-color:#383642;stop-opacity:0"/>
	</linearGradient>
	<polygon class="st23" points="115.8,381.9 122.6,378.4 129.8,382 124.4,386.2 	"/>
	
		<linearGradient id="SVGID_22_" gradientUnits="userSpaceOnUse" x1="-9279.2197" y1="51.1398" x2="-9272.0771" y2="54.9207" gradientTransform="matrix(-1 0 0 -1 -9164.6484 428.9918)">
		<stop  offset="0" style="stop-color:#383642"/>
		<stop  offset="1" style="stop-color:#383642;stop-opacity:0"/>
	</linearGradient>
	<polygon class="st24" points="115.9,374.9 109.1,378.4 101.9,374.8 107.3,370.6 	"/>
</g>
<linearGradient id="SVGID_23_" gradientUnits="userSpaceOnUse" x1="62.4737" y1="297.8" x2="68.9263" y2="297.8" gradientTransform="matrix(1 0 0 -1 0 446)">
	<stop  offset="0" style="stop-color:#9352E8"/>
	<stop  offset="1" style="stop-color:#9352E8"/>
</linearGradient>
<ellipse class="st25" cx="65.7" cy="148.2" rx="3.2" ry="3.6"/>
<linearGradient id="SVGID_24_" gradientUnits="userSpaceOnUse" x1="163.0725" y1="298.1199" x2="169.8281" y2="298.1199" gradientTransform="matrix(1 0 0 -1 0 446)">
	<stop  offset="0" style="stop-color:#9352E8"/>
	<stop  offset="1" style="stop-color:#9352E8"/>
</linearGradient>
<path class="st26" d="M168.8,144.4c1.8,0,0.7,1.5,0.7,3.4s-1.4,3.6-3.2,3.6s-3.2-1.6-3.2-3.6S167,144.4,168.8,144.4z"/>
<linearGradient id="SVGID_25_" gradientUnits="userSpaceOnUse" x1="155.4829" y1="105.1519" x2="182.0378" y2="105.1519">
	<stop  offset="0" style="stop-color:#9352E8"/>
	<stop  offset="1" style="stop-color:#9352E8"/>
</linearGradient>
<path class="st27" d="M158.2,61.3c0,0,40.1,71,8.9,86.5"/>
<g>
	<path class="st28" d="M152.9,48.4c-2.1,0.9-3,3.3-2.2,5.5L162,79.1l7.6-3.4l-11.2-25.2C157.5,48.4,155,47.5,152.9,48.4z"/>
</g>
<linearGradient id="SVGID_26_" gradientUnits="userSpaceOnUse" x1="52.4826" y1="109.5353" x2="76.5992" y2="109.5353">
	<stop  offset="0" style="stop-color:#9352E8"/>
	<stop  offset="1" style="stop-color:#9352E8"/>
</linearGradient>
<path class="st29" d="M65.4,147.8c0,0-27-14.7,8.5-77.7"/>
<g>
	<path class="st28" d="M82.9,50.4c-2.1-1-4.5-0.1-5.5,2l-11.7,25l7.5,3.5l11.7-25C85.8,53.8,84.9,51.3,82.9,50.4z"/>
</g>
</svg>
