<?xml version="1.0" encoding="utf-8"?>
<!-- Generator: Adobe Illustrator 21.1.0, SVG Export Plug-In . SVG Version: 6.00 Build 0)  -->
<svg version="1.1" id="Layer_1" xmlns="http://www.w3.org/2000/svg" xmlns:xlink="http://www.w3.org/1999/xlink" x="0px" y="0px"
	 viewBox="0 0 274 31.7" style="enable-background:new 0 0 274 31.7;" xml:space="preserve">
<style type="text/css">
	.st0{fill:#3FD5AE;}
	.st1{fill:#FFFFFF;}
</style>
<g>
	<g>
		<path class="st0" d="M182.8,3.4h19.4c0.9,0,1.6-0.7,1.6-1.6c0-0.9-0.7-1.6-1.6-1.6h-19.4c-0.9,0-1.6,0.7-1.6,1.6
			C181.2,2.7,181.9,3.4,182.8,3.4z"/>
		<path class="st0" d="M182.8,17.4h19.4c0.9,0,1.6-0.7,1.6-1.6c0-0.9-0.7-1.6-1.6-1.6h-19.4c-0.9,0-1.6,0.7-1.6,1.6
			C181.2,16.7,181.9,17.4,182.8,17.4z"/>
		<path class="st0" d="M182.8,31.3h19.4c0.9,0,1.6-0.7,1.6-1.6c0-0.9-0.7-1.6-1.6-1.6h-19.4c-0.9,0-1.6,0.7-1.6,1.6
			C181.2,30.6,181.9,31.3,182.8,31.3z"/>
	</g>
	<g>
		<path class="st1" d="M53.7,2.1c0-1,0.8-1.8,1.7-1.8c1,0,1.8,0.8,1.8,1.8v12.1h17.7V2.1c0-1,0.8-1.8,1.8-1.8c0.9,0,1.7,0.8,1.7,1.8
			v27.6c0,1-0.8,1.8-1.7,1.8c-1,0-1.8-0.8-1.8-1.8V17.4H57.2v12.3c0,1-0.8,1.8-1.8,1.8c-0.9,0-1.7-0.8-1.7-1.8V2.1z"/>
		<path class="st1" d="M92.7,2.1c0-1,0.8-1.8,1.7-1.8c1,0,1.8,0.8,1.8,1.8v27.6c0,1-0.8,1.8-1.8,1.8c-0.9,0-1.7-0.8-1.7-1.8V2.1z"/>
		<path class="st1" d="M109.8,27.5c-0.4-0.3-0.7-0.7-0.7-1.3c0-1,0.7-1.7,1.7-1.7c0.4,0,0.8,0.2,1.1,0.4c2.9,2.5,5.8,3.6,9.7,3.6
			c4.1,0,6.8-2.2,6.8-5.2v-0.1c0-2.8-1.5-4.5-8-5.8c-7.1-1.5-10.3-3.8-10.3-8.8V8.5c0-4.8,4.2-8.4,10.1-8.4c4,0,7,1,9.8,3
			c0.4,0.3,0.7,0.7,0.7,1.4c0,0.9-0.7,1.7-1.7,1.7c-0.4,0-0.7-0.1-1-0.3c-2.6-1.9-5.1-2.7-7.9-2.7c-4,0-6.5,2.2-6.5,5v0.1
			c0,2.9,1.6,4.5,8.3,6c6.8,1.5,10,4,10,8.7V23c0,5.3-4.4,8.7-10.5,8.7C116.9,31.6,113.2,30.2,109.8,27.5z"/>
		<path class="st1" d="M251.9,27.6c-0.4-0.3-0.7-0.7-0.7-1.3c0-1,0.7-1.7,1.7-1.7c0.4,0,0.8,0.2,1.1,0.4c2.9,2.5,5.8,3.6,9.7,3.6
			c4.1,0,6.8-2.2,6.8-5.2v-0.1c0-2.8-1.5-4.5-8-5.8c-7.1-1.5-10.3-3.8-10.3-8.8V8.6c0-4.8,4.2-8.4,10.1-8.4c4,0,7,1,9.8,3
			c0.4,0.3,0.7,0.7,0.7,1.4c0,0.9-0.7,1.7-1.7,1.7c-0.4,0-0.7-0.1-1-0.3c-2.6-1.9-5.1-2.7-7.9-2.7c-4,0-6.5,2.2-6.5,5v0.1
			c0,2.9,1.6,4.5,8.3,6c6.8,1.5,10,4,10,8.7v0.1c0,5.3-4.4,8.7-10.5,8.7C259.1,31.7,255.3,30.3,251.9,27.6z"/>
		<path class="st1" d="M144.1,1.8c0-1,0.8-1.8,1.7-1.8c1,0,1.8,0.8,1.8,1.8v17l17.7-18.2c0.4-0.4,0.8-0.6,1.4-0.6
			c0.9,0,1.7,0.8,1.7,1.7c0,0.5-0.2,0.9-0.6,1.2l-11,10.9l11.8,14.6c0.3,0.4,0.5,0.8,0.5,1.3c0,0.9-0.8,1.8-1.8,1.8
			c-0.7,0-1.1-0.4-1.4-0.8l-11.6-14.4l-6.7,6.7v6.8c0,1-0.8,1.8-1.8,1.8c-0.9,0-1.7-0.8-1.7-1.8V1.8z"/>
		<path class="st1" d="M42.3,0.2c-0.8-0.2-1.7,0.3-2,1.1L29.9,25.5L19.4,1.4c-0.3-0.8-1.2-1.3-2-1.1c-1.1,0.3-1.6,1.4-1.2,2.3
			l3.7,8.5l-6.3,14.5L3.3,1.4C3,0.6,2.1,0.1,1.3,0.3C0.3,0.6-0.3,1.7,0.1,2.7l11.9,28c0.6,1.4,2.5,1.4,3.1,0l6.6-15.3l6.6,15.1
			c0.6,1.4,2.5,1.4,3.1,0l11.9-28C43.8,1.6,43.3,0.5,42.3,0.2z"/>
		<g>
			<path class="st1" d="M216.7,2.1c0-1,0.8-1.8,1.7-1.8h11.6c3.8,0,6.9,1.2,8.8,3.1c1.5,1.5,2.4,3.7,2.4,6.1v0.1
				c0,5.1-3.5,8.1-8.3,9l7.7,10c0.4,0.4,0.6,0.8,0.6,1.3c0,0.9-0.9,1.7-1.8,1.7c-0.7,0-1.2-0.4-1.6-0.9l-8.8-11.4h-8.9v10.5
				c0,1-0.8,1.8-1.8,1.8c-0.9,0-1.7-0.8-1.7-1.8V2.1z M229.8,16.2c4.7,0,8-2.4,8-6.4V9.7c0-3.8-2.9-6.1-8-6.1h-9.6v12.6H229.8z"/>
		</g>
	</g>
</g>
</svg>
