<?xml version="1.0" encoding="utf-8"?>
<!-- Generator: Adobe Illustrator 21.1.0, SVG Export Plug-In . SVG Version: 6.00 Build 0)  -->
<svg version="1.1" id="Layer_1" xmlns="http://www.w3.org/2000/svg" xmlns:xlink="http://www.w3.org/1999/xlink" x="0px" y="0px"
	 viewBox="0 0 273.2 55.3" style="enable-background:new 0 0 273.2 55.3;" xml:space="preserve">
<style type="text/css">
	.st0{fill:#F5F5F5;}
	.st1{fill:#3FD5AE;}
</style>
<g>
	<path class="st0" d="M223.1,0"/>
	<g>
		<path class="st0" d="M53.6,6.1c0-1,0.8-1.7,1.7-1.7c1,0,1.7,0.8,1.7,1.7v12.1h17.6V6.1c0-1,0.8-1.7,1.7-1.7c0.9,0,1.7,0.8,1.7,1.7
			v27.5c0,1-0.8,1.7-1.7,1.7c-1,0-1.7-0.8-1.7-1.7V21.4H57v12.2c0,1-0.8,1.7-1.7,1.7c-0.9,0-1.7-0.8-1.7-1.7V6.1z"/>
		<path class="st0" d="M92.5,6.1c0-1,0.8-1.7,1.7-1.7c1,0,1.7,0.8,1.7,1.7v27.5c0,1-0.8,1.7-1.7,1.7c-0.9,0-1.7-0.8-1.7-1.7V6.1z"/>
		<path class="st0" d="M109.5,31.5c-0.4-0.3-0.7-0.7-0.7-1.3c0-1,0.7-1.7,1.7-1.7c0.4,0,0.8,0.2,1,0.4c2.9,2.4,5.8,3.6,9.7,3.6
			c4.1,0,6.8-2.2,6.8-5.2v-0.1c0-2.8-1.5-4.5-8-5.8c-7-1.5-10.3-3.8-10.3-8.8v-0.1c0-4.8,4.2-8.3,10-8.3c4,0,6.9,1,9.7,3
			c0.3,0.3,0.7,0.7,0.7,1.4c0,0.9-0.7,1.7-1.7,1.7c-0.4,0-0.7-0.1-1-0.3c-2.6-1.9-5.1-2.7-7.9-2.7c-4,0-6.5,2.2-6.5,4.9v0.1
			c0,2.9,1.6,4.5,8.3,5.9c6.8,1.5,10,4,10,8.7V27c0,5.2-4.4,8.7-10.4,8.7C116.6,35.6,112.9,34.2,109.5,31.5z"/>
		<g>
			<path class="st1" d="M182.3,7.5h19.4c0.9,0,1.6-0.7,1.6-1.6c0-0.9-0.7-1.6-1.6-1.6h-19.4c-0.9,0-1.6,0.7-1.6,1.6
				C180.7,6.8,181.4,7.5,182.3,7.5z"/>
			<path class="st1" d="M182.3,21.4h19.4c0.9,0,1.6-0.7,1.6-1.6c0-0.9-0.7-1.6-1.6-1.6h-19.4c-0.9,0-1.6,0.7-1.6,1.6
				C180.7,20.7,181.4,21.4,182.3,21.4z"/>
			<path class="st1" d="M182.3,35.3h19.4c0.9,0,1.6-0.7,1.6-1.6c0-0.9-0.7-1.6-1.6-1.6h-19.4c-0.9,0-1.6,0.7-1.6,1.6
				C180.7,34.6,181.4,35.3,182.3,35.3z"/>
		</g>
		<path class="st0" d="M251.2,31.6c-0.4-0.3-0.7-0.7-0.7-1.3c0-1,0.7-1.7,1.7-1.7c0.4,0,0.8,0.2,1,0.4c2.9,2.4,5.8,3.6,9.7,3.6
			c4.1,0,6.8-2.2,6.8-5.2v-0.1c0-2.8-1.5-4.5-8-5.8c-7-1.5-10.3-3.8-10.3-8.8v-0.1c0-4.8,4.2-8.3,10-8.3c4,0,6.9,1,9.7,3
			c0.3,0.3,0.7,0.7,0.7,1.4c0,0.9-0.7,1.7-1.7,1.7c-0.4,0-0.7-0.1-1-0.3c-2.6-1.9-5.1-2.7-7.9-2.7c-4,0-6.5,2.2-6.5,4.9v0.1
			c0,2.9,1.6,4.5,8.3,5.9c6.8,1.5,10,4,10,8.7v0.1c0,5.2-4.4,8.7-10.4,8.7C258.3,35.7,254.6,34.3,251.2,31.6z"/>
		<path class="st0" d="M227.8,10.4"/>
		<path class="st0" d="M143.7,5.9c0-1,0.8-1.8,1.7-1.8c1,0,1.8,0.8,1.8,1.8v17l17.7-18.1c0.4-0.4,0.8-0.6,1.4-0.6
			c0.9,0,1.7,0.8,1.7,1.7c0,0.5-0.2,0.9-0.6,1.2l-11,10.9l11.8,14.5c0.3,0.4,0.5,0.8,0.5,1.3c0,0.9-0.8,1.8-1.8,1.8
			c-0.7,0-1.1-0.4-1.4-0.8l-11.6-14.4l-6.7,6.7v6.7c0,1-0.8,1.8-1.8,1.8c-0.9,0-1.7-0.8-1.7-1.8V5.9z"/>
		<path class="st0" d="M42.1,4.3c-0.8-0.2-1.7,0.3-2,1.1L29.8,29.5L19.4,5.4c-0.3-0.8-1.2-1.3-2-1.1c-1.1,0.3-1.6,1.4-1.2,2.3
			l3.7,8.5l-6.3,14.5L3.3,5.5C3,4.7,2.1,4.2,1.3,4.4C0.3,4.7-0.3,5.8,0.1,6.8L12,34.7c0.6,1.4,2.5,1.4,3.1,0l6.6-15.2l6.6,15.1
			c0.6,1.4,2.5,1.4,3.1,0L43.3,6.6C43.7,5.7,43.2,4.6,42.1,4.3z"/>
		<g>
			<path class="st0" d="M216.1,6.1c0-1,0.8-1.8,1.7-1.8h11.6c3.8,0,6.9,1.2,8.8,3.1c1.5,1.5,2.4,3.7,2.4,6.1v0.1
				c0,5.1-3.5,8.1-8.3,9l7.7,9.9c0.4,0.4,0.6,0.8,0.6,1.3c0,0.9-0.9,1.7-1.8,1.7c-0.7,0-1.2-0.4-1.6-0.9l-8.7-11.3h-8.9v10.5
				c0,1-0.8,1.8-1.8,1.8c-0.9,0-1.7-0.8-1.7-1.8V6.1z M229.1,20.2c4.7,0,8-2.4,8-6.4v-0.1c0-3.8-2.9-6.1-7.9-6.1h-9.6v12.6H229.1z"
				/>
		</g>
	</g>
</g>
<g>
	<path class="st0" d="M57.7,44.5v1.3H55v9.3h-1.4v-9.3h-2.8v-1.3H57.7z"/>
	<path class="st0" d="M62.7,52.4l-0.9,2.7h-1.5l3.4-10.6h1.5l3.4,10.6h-1.4l-0.9-2.7H62.7z M66.1,51.2l-1.5-5l-1.5,5H66.1z"/>
	<path class="st0" d="M73.7,52c0,0.9,0.6,1.9,1.8,1.9c1.3,0,1.9-0.8,1.9-1.6c0.1-1.3-0.9-1.7-1.6-1.9l-1.2-0.3
		c-2-0.6-2.3-1.8-2.3-2.7c0-1.8,1.2-3,3-3c1.7,0,3,1.2,3,3.1h-1.3c0-1.1-0.7-1.8-1.7-1.8c-1.1,0-1.7,0.7-1.7,1.7
		c0,0.5,0.2,1.1,1.3,1.5l1.2,0.3c1.2,0.3,2.7,1.1,2.6,3.3c-0.1,1.5-1.2,2.8-3.3,2.8s-3.2-1.6-3.2-3.2H73.7z"/>
	<path class="st0" d="M89.4,44.5v1.3h-2.8v9.3h-1.4v-9.3h-2.8v-1.3H89.4z"/>
	<path class="st0" d="M99.4,44.5v1.3h-4.1v3.4h3.6v1.3h-3.6v3.3h4.3v1.3h-5.6V44.5H99.4z"/>
	<path class="st0" d="M109.7,44.5v1.3h-4.1v3.4h3.3v1.3h-3.3v4.6h-1.4V44.5H109.7z"/>
	<path class="st0" d="M119.5,51.7v-7.2h1.4v7.2c0,2.3-1.5,3.6-3.4,3.6c-1.8,0-3.4-1.2-3.4-3.6v-7.2h1.4v7.2c0,1.5,0.9,2.2,2,2.2
		C118.6,53.9,119.5,53.2,119.5,51.7z"/>
	<path class="st0" d="M126.5,44.5v9.3h3.7v1.3h-5.1V44.5H126.5z"/>
	<path class="st0" d="M136,44.5v9.3h3.7v1.3h-5.1V44.5H136z"/>
	<path class="st0" d="M145.1,55.1v-4.9l-3.4-5.7h1.6l2.5,4.4l2.6-4.4h1.6l-3.5,5.7h0v4.9H145.1z"/>
	<path class="st0" d="M171.1,44.5l-3.1,10.6h-1.2l-1.5-6.3l-1.5,6.3h-1.2l-3.1-10.6h1.5l2.2,8.1l1.6-6.6h1.1l1.6,6.6l2.2-8.1H171.1z
		"/>
	<path class="st0" d="M179,44.5c2.1,0,2.8,1.7,2.8,3.3c0,1.5-0.6,3-2.3,3.3l2.4,4h-1.6l-2.3-4h-1.2v4h-1.4V44.5H179z M176.8,45.8v4
		h2c1.3,0,1.7-1,1.7-2c0-1-0.4-2-1.6-2H176.8z"/>
	<path class="st0" d="M186.3,49.8c0-3.3,2-5.5,4.6-5.5c2.6,0,4.6,2.1,4.6,5.5c0,3.3-2,5.5-4.6,5.5C188.3,55.3,186.3,53.1,186.3,49.8
		z M194.2,49.8c0-2.5-1.4-4.1-3.3-4.1c-1.8,0-3.3,1.6-3.3,4.1c0,2.5,1.4,4.1,3.3,4.1C192.8,53.9,194.2,52.3,194.2,49.8z"/>
	<path class="st0" d="M205.5,55.1l-4-7.9v7.9h-1.4V44.5h1.3l3.9,7.8v-7.8h1.4v10.6H205.5z"/>
	<path class="st0" d="M218.4,46.9c-0.6-0.8-1.5-1.2-2.2-1.2c-1.8,0-3.3,1.4-3.3,4.1c0,2.6,1.3,4.1,3.1,4.1c1.8,0,2.6-1.2,2.8-2.9
		h-2.5v-1.3h4c0,3.7-1.8,5.5-4.2,5.5c-2.6,0-4.5-2.2-4.5-5.5c0-3.4,2.1-5.5,4.7-5.5c1.3,0,2.4,0.6,3.2,1.5L218.4,46.9z"/>
</g>
</svg>
