<?xml version="1.0" encoding="utf-8"?>
<!-- Generator: Adobe Illustrator 21.1.0, SVG Export Plug-In . SVG Version: 6.00 Build 0)  -->
<svg version="1.1" id="Layer_1" xmlns="http://www.w3.org/2000/svg" xmlns:xlink="http://www.w3.org/1999/xlink" x="0px" y="0px"
	 viewBox="0 0 48.5 35.3" style="enable-background:new 0 0 48.5 35.3;" xml:space="preserve">
<style type="text/css">
	.st0{fill:#5F5E6C;}
	.st1{fill:#3FD5AE;}
</style>
<path class="st0" d="M34.6,35.1c0.9-0.4,1.4-1.5,1-2.5L21.8,1.1c-0.4-0.9-1.5-1.4-2.5-1c-0.9,0.4-1.4,1.5-1,2.5l4.1,9.4l-0.2,0.4v0
	L20.8,16l-5.5,12.7L3.6,1.1c-0.4-1-1.5-1.4-2.5-1C1,0.2,0.9,0.3,0.8,0.3c-0.7,0.5-1,1.4-0.7,2.3l13.4,31.5c0.3,0.7,1,1.1,1.7,1.1
	c0,0,0,0,0,0c0.7,0,1.3-0.4,1.6-0.9c0-0.1,0.1-0.1,0.1-0.2l2.5-5.7l5.1-11.7l7.6,17.4c0.3,0.7,1,1.1,1.7,1.1
	C34.1,35.3,34.3,35.2,34.6,35.1z"/>
<path class="st1" d="M48.5,3C48.5,3,48.5,3,48.5,3c-0.2-0.2-0.3-0.2-0.6-0.2c-0.7,0.1-1.1,0.4-1.1,0.4s0.3-0.7,1.3-0.6
	c-0.2-0.3-1-0.2-1.5,0c-0.1,0,0.7-1.5,0.9-1.7c0,0,0,0,0,0c-0.7,0.2-1.3,0.9-1.3,0.9c0-0.6-0.2-1.5-0.4-1.7l0,0
	c-0.2,0.2-0.4,1.2-0.4,1.7c0,0-0.6-0.7-1.3-0.9c0,0,0,0,0,0c0.2,0.2,0.9,1.7,0.9,1.7c-0.4-0.1-1.3-0.2-1.5,0c1,0,1.3,0.6,1.3,0.6
	s-0.4-0.3-1.1-0.4c-0.2,0-0.4,0-0.6,0.2c0,0,0,0,0,0c0.3-0.1,1.5,0.7,1.6,1.2c0,0-0.4-0.1-0.5-0.1c-0.3,0-0.5,0-0.8,0.1
	c-0.1,0-0.2,0.1-0.3,0.2c0.6-0.2,1.4,0.1,1.7,0.5c0.1,0.1,0.2,0.3,0.1,0.3c-0.1,0-0.2,0-0.3-0.1c-0.5-0.1-1,0.1-1.2,0.5
	c0,0,0,0,0,0.1c0.4-0.4,1-0.5,1.4-0.1c-0.2,0-0.3,0-0.5,0c-0.2,0.1-0.3,0.1-0.4,0.3c0.4-0.1,0.7-0.1,1,0.1c-0.1,0.1-0.2,0.2-0.3,0.2
	c-0.2,0.1-0.4,0.2-0.5,0.4C44,6.8,43.9,7,43.8,7.1c-0.1,0.1-0.2,0.2-0.2,0.3c0,0.1-0.1,0.2-0.1,0.3c-0.1,0.1-0.1,0.3-0.1,0.4
	c0,0.1-0.1,0.2-0.1,0.2c0,0.1,0,0.2,0,0.3c-0.1,0.4,0,0.9,0,1.3c0,0.5,0.2,1.1,0.4,1.4c0.3,0.4,0.7,0.7,1.3,0.7
	c0.3,0,0.5,0.1,0.8,0.1v0c0.3,0,0.6-0.1,0.8-0.1c0.5-0.1,1-0.3,1.3-0.7c0.3-0.4,0.4-1,0.4-1.4c0-0.4,0.1-0.9,0-1.3
	c0-0.1,0-0.2,0-0.3c0-0.1-0.1-0.2-0.1-0.2c0-0.1-0.1-0.3-0.1-0.4c-0.1-0.1-0.1-0.2-0.1-0.3c0-0.1-0.1-0.2-0.2-0.3
	c-0.1-0.1-0.2-0.3-0.3-0.4c-0.1-0.3-0.3-0.3-0.5-0.4c-0.1,0-0.2-0.2-0.3-0.2c0.3-0.2,0.7-0.2,1-0.1c-0.1-0.1-0.3-0.2-0.4-0.3
	c-0.2-0.1-0.3,0-0.5,0c0.5-0.3,1-0.3,1.4,0.1c0,0,0,0,0-0.1c-0.2-0.4-0.7-0.6-1.2-0.5c-0.1,0-0.2,0-0.3,0.1c0-0.1,0.1-0.2,0.1-0.3
	c0.3-0.4,1.1-0.8,1.7-0.5c0-0.1-0.2-0.2-0.3-0.2c-0.3-0.1-0.5-0.2-0.8-0.1c-0.1,0-0.5,0.1-0.5,0.1C47,3.7,48.1,2.9,48.5,3z"/>
</svg>
