<?xml version="1.0" encoding="utf-8"?>
<!-- Generator: Adobe Illustrator 22.1.0, SVG Export Plug-In . SVG Version: 6.00 Build 0)  -->
<svg version="1.1" id="Layer_1" xmlns="http://www.w3.org/2000/svg" xmlns:xlink="http://www.w3.org/1999/xlink" x="0px" y="0px"
	 viewBox="0 0 378.4 435.6" style="enable-background:new 0 0 378.4 435.6;" xml:space="preserve">
<style type="text/css">
	.st0{fill:#383642;}
</style>
<g>
	<path class="st0" d="M354.6,366c0.3,0,0.6-0.1,0.8-0.4c0,0,0.1,0,0.1,0c1.4,2,5.6,3.6,8.5,3.7c0.5,0,0.9,0.1,1.2-0.4
		c0.4-0.7,1.6-10.3,0.3-11.6c-0.9-0.9-9.4,2-10.1,3.5c-0.2-0.1-0.3-0.3-0.4-0.3c-0.3,0-0.6,0.1-0.9,0c-0.4-0.2-0.8-0.3-1.2-0.1
		c-0.3,0.2-0.6,0-0.8,0.1c-0.2,0.1-0.3,0.2-0.4,0.3c-0.7-1.6-9.2-4.4-10.1-3.5c-1.3,1.3-0.1,10.9,0.3,11.6c0.3,0.5,0.7,0.5,1.2,0.4
		c2.8-0.1,7.1-1.7,8.5-3.7c0,0,0.1,0,0.1,0c0.2,0.2,0.5,0.3,0.8,0.4l0.6-0.1l0.7,0.2c0.2,0.1,0.4,0,0.5,0L354.6,366z"/>
	<path class="st0" d="M363.1,293C363,293,363,293,363.1,293c-0.2,0.8-0.3,0.9-1.1,0.9c-2,0-3.9,0-5.9,0c-0.3,0-0.5-0.1-0.8-0.1
		c-0.2,0-0.3,0.1-0.4,0.3c-0.1,0.8,0.1,1.5,0.9,1.9c0.4,0.2,1.1,0.4,1.5,0.4c0.7,0.1,1.2,0.3,1.9,0.1c0.4-0.1,0.5-0.4,0.4-0.7
		c-0.1-0.2-0.2-0.4-0.3-0.7c0-0.2,0-0.4,0.1-0.5c0.1-0.1,0.4-0.1,0.6,0c0.6,0.3,0.9,0.9,0.9,1.6c0,0.6-0.3,1-1,1.3
		c-0.6,0.2-1.8,0.4-3,0.1c-1.3-0.3-1.9-0.6-2.4-0.9c-0.6-0.3-0.9-1.1-1-1.7c-0.1-0.9,0-1.7,0.4-2.5c0.3-0.6,0.2-1.2,0.2-1.8
		c-0.1-0.8-0.3-1.9-0.3-2.6c0-1.1,0-1.8,0.2-2.8c0.1-0.6,0.5-1.2,0.7-1.8c0.4-0.9,1-1.8,1.7-2.5c0.5-0.5,1-0.8,1.7-0.9
		c1-0.3,1.7-0.9,2.4-1.7c0.2-0.3,0.3-0.6,0.3-0.9c0-1.1,0.4-2,1.1-2.8c0.1-0.2,0.3-0.4,0.5-0.4c0.7-0.2,0.9-0.8,1.2-1.3
		c0.1-0.2,0.3-0.5,0.5-0.7c0.1-0.2,0.5-0.6,0.6-0.3c0.1,0.2,0.2,0.5,0.3,0.7c0.1,0.4,0.1,0.7,0.1,1.1c0,0.4,0.1,0.6,0.5,0.6
		c0.5,0.1,0.9,0.3,1.2,0.8c0.2,0.2,0.4,0.5,0.7,0.6c0.6,0.2,0.5,0.5,0.4,0.9c-0.2,0.6-0.6,1.1-1.1,1.3c-0.5,0.3-0.7,0.6-0.6,1.2
		c0.2,0.9,0.2,1.9,0.2,2.8c0,0.9-0.3,1.7-0.8,2.5c-0.7,0.9-1.1,1.9-1,3c0,1.3,0,2.5,0,3.8c0,0.5,0.1,1,0.6,1.1
		c0.2,0,0.9,0.3,0.9,0.4c0.1,0.1,0.2,0.8-0.1,0.9c-0.1,0-0.4,0.1-0.7,0.1c-0.7,0.1-1.4,0.2-2-0.4C363.2,293.2,363.1,293.1,363.1,293
		z M362.8,292.6c-0.2-0.5-0.3-1-0.4-1.6c-0.1,0.4-0.6,1-0.9,1.4C361.9,292.3,362.4,292.4,362.8,292.6z"/>
	<path class="st0" d="M323.3,418.9C323.3,418.9,323.3,418.9,323.3,418.9c-0.2,0.8-0.3,0.9-1.1,0.9c-2,0-3.9,0-5.9,0
		c-0.3,0-0.5-0.1-0.8-0.1c-0.2,0-0.3,0.1-0.4,0.3c-0.1,0.8,0.1,1.5,0.9,1.9c0.4,0.2,1.1,0.4,1.5,0.4c0.7,0.1,1.2,0.3,1.9,0.1
		c0.4-0.1,0.5-0.4,0.4-0.7c-0.1-0.2-0.2-0.4-0.3-0.7c0-0.2,0-0.4,0.1-0.5c0.1-0.1,0.4-0.1,0.6,0c0.6,0.3,0.9,0.9,0.9,1.6
		c0,0.6-0.3,1-1,1.3c-0.6,0.2-1.8,0.4-3,0.1c-1.3-0.3-1.9-0.6-2.4-0.9c-0.6-0.3-0.9-1.1-1-1.7c-0.1-0.9,0-1.7,0.4-2.5
		c0.3-0.6,0.2-1.2,0.2-1.8c-0.1-0.8-0.3-1.9-0.3-2.6c0-1.1,0-1.8,0.2-2.8c0.1-0.6,0.5-1.2,0.7-1.8c0.4-0.9,1-1.8,1.7-2.5
		c0.5-0.5,1-0.8,1.7-0.9c1-0.3,1.7-0.9,2.4-1.7c0.2-0.3,0.3-0.6,0.3-0.9c0-1.1,0.4-2,1.1-2.8c0.1-0.2,0.3-0.4,0.5-0.4
		c0.7-0.2,0.9-0.8,1.2-1.3c0.1-0.2,0.3-0.5,0.5-0.7c0.1-0.2,0.5-0.6,0.6-0.3c0.1,0.2,0.2,0.5,0.3,0.7c0.1,0.4,0.1,0.7,0.1,1.1
		c0,0.4,0.1,0.6,0.5,0.6c0.5,0.1,0.9,0.3,1.2,0.8c0.2,0.2,0.4,0.5,0.7,0.6c0.6,0.2,0.5,0.5,0.4,0.9c-0.2,0.6-0.6,1.1-1.1,1.3
		c-0.5,0.3-0.7,0.6-0.6,1.2c0.2,0.9,0.2,1.9,0.2,2.8c0,0.9-0.3,1.7-0.8,2.5c-0.7,0.9-1.1,1.9-1,3c0,1.3,0,2.5,0,3.8
		c0,0.5,0.1,1,0.6,1.1c0.2,0,0.9,0.3,0.9,0.4c0.1,0.1,0.2,0.8-0.1,0.9c-0.1,0-0.4,0.1-0.7,0.1c-0.7,0.1-1.4,0.2-2-0.4
		C323.5,419.1,323.4,419,323.3,418.9z M323,418.5c-0.2-0.5-0.3-1-0.4-1.6c-0.1,0.4-0.6,1-0.9,1.4C322.2,418.2,322.6,418.3,323,418.5
		z"/>
</g>
<g>
	<g id="mvIV5B.tif_7_">
		<path class="st0" d="M147.5,141.3c0-0.9,0-1.8,0-2.7c0-1.1,0.4-1.4,1.4-1.4c1.1,0,1.5,0.4,1.5,1.5c0,0.9,0,1.7,0,2.6
			c0,0,0.1,0.1,0.2,0.2c0-0.4,0.1-0.6,0.1-0.9c0-0.6,0-1.2,0-1.9c0-1.2,1.2-1.9,2.3-1.3c0.3,0.2,0.5,0.7,0.6,1.1
			c0.1,0.9,0,1.8,0,2.7c0,0,0,0.1,0.2,0.4c0.1-0.5,0.1-0.7,0.1-0.9c0-1.9,0-3.8,0-5.7c0-0.5,0.4-1.1,0.8-1.3c0.3-0.2,1-0.1,1.4,0.1
			c0.3,0.2,0.6,0.7,0.6,1.1c0,5,0.1,9.9,0,14.9c0,2.3-2,4.3-4.4,4.4c-1.7,0.1-3.5,0.2-5.3,0c-2.9-0.3-4.5-2.3-5.4-4.8
			c-0.3-0.9-0.5-2-0.5-3c-0.1-1.9,0-3.7,0-5.6c1.6-0.1,2.8,1,2.9,2.6c0,0.8,0,1.7,0,2.5c0.1,0,0.2,0,0.2,0c0-0.3,0.1-0.5,0.1-0.8
			c0-4,0-8.1,0-12.1c0-0.9,0.4-1.5,1.2-1.6c1-0.2,1.7,0.5,1.7,1.6c0,2.5,0,5,0,7.5c0,0.3,0,0.6,0,0.9
			C147.3,141.3,147.4,141.3,147.5,141.3z"/>
	</g>
	<polygon class="st0" points="191.9,5.7 199.4,5.9 194.5,14.4 200.4,16.3 187.1,32.3 192.4,19 186,16.7 	"/>
	<g id="JeGfOL.tif_4_">
		<path class="st0" d="M155.4,49.8c-2.2,2.1-4.3,4.2-6.5,6.4c-2.2-2.1-4.3-4.2-6.4-6.2c-1,1-2,1.9-3,2.9c2.1,2.1,4.2,4.1,6.5,6.3
			c-2.1,2.1-4.3,4.2-6.3,6.2c1,0.9,1.9,1.9,3,2.9c2.1-2,4.2-4.1,6.5-6.3c2.1,2.1,4.3,4.2,6.3,6.2c0.9-0.9,1.9-1.8,2.9-2.8
			c-2.1-2.1-4.3-4.2-6.5-6.3c2.2-2.1,4.3-4.2,6.5-6.3C157.4,51.7,156.4,50.8,155.4,49.8z"/>
	</g>
	<path class="st0" d="M283.5,103.9c-0.2-0.2-0.7-0.6-1-0.6c-0.4,0-0.8,0.4-1,0.6c-1,1.1-2.3,5.6-2.5,6.3c-0.1,0.3-0.3,0.5-0.5,0.7
		c-0.2-0.2-0.6-0.3-0.7-0.5c-1.2-2.2-1.9-4.6-1.2-7.1c0.4-1.4,0.3-2.7-0.1-4.1c-0.5-1.8-0.9-3.7-1.2-5.6c-0.4-2.7,1-4.4,3.5-4.7
		c0.8-0.1,1.6,0.3,2.4,0.3c1.3,0,2.5,0,3.8-0.2c2.8-0.4,5,1.3,4.8,4.1c-0.1,1.7-0.5,3.4-1,5.1c-0.5,1.9-0.7,3.8-0.2,5.8
		c0.6,2.3-0.2,4.5-1.4,6.5c-0.1,0.2-0.5,0.3-0.7,0.5c-0.1-0.2-0.4-0.4-0.4-0.6C285.9,109.5,284.5,104.7,283.5,103.9z"/>
	<path class="st0" d="M275.3,29.3c0.3-0.2,0.2-0.5,0.3-0.8c0.1-0.6,0.1-1.1,0.2-1.7c0.1-0.5,0.2-1.1,0.3-1.6c0.3-3,1.4-5.6,3.4-7.9
		c1.1-1.3,2.4-2.5,4-3.2c1.4-0.7,2.9-1.2,4.3-2c0.6-0.3,1.3-0.3,2-0.1c0.3,0.1,0.7,0.3,1,0.4c0.2,0.1,0.5,0.1,0.8,0.1
		c0.3,0,0.6-0.1,0.9,0c0.5,0.2,0.9,0,1.3-0.2c0.2-0.1-0.3-0.8-0.5-1.3c-0.1-0.3-0.3-0.4-0.5-0.4c-0.5,0-0.9,0-1.4-0.1
		c-0.1,0-0.1,0.1-0.2,0.1c-0.3,0.1-0.6,0.2-0.8,0.1c-0.7-0.2-1.3-0.4-1.9-0.7c-0.5-0.3-1-0.7-1.5-1c-1.5-0.8-3-0.8-4.6-0.3
		c-3.1,1.1-5.7,3-7.9,5.7c-0.3,0.5-0.8,1.2-1.2,1.9c-1,1.6-1.6,3.3-1.9,5.1c-0.5,3,0.3,5.6,2.2,8C274.1,29.9,274.6,29.8,275.3,29.3z
		"/>
	<path class="st0" d="M61.6,145.5c0.3,0,0.6-0.1,0.8-0.4c0,0,0.1,0,0.1,0c1.4,2,5.6,3.6,8.5,3.7c0.5,0,0.9,0.1,1.2-0.4
		c0.4-0.7,1.6-10.3,0.3-11.6c-0.9-0.9-9.4,2-10.1,3.5c-0.2-0.1-0.3-0.3-0.4-0.3c-0.3,0-0.6,0.1-0.9,0c-0.4-0.2-0.8-0.3-1.2-0.1
		c-0.3,0.2-0.6,0-0.8,0.1c-0.2,0.1-0.3,0.2-0.4,0.3c-0.7-1.6-9.2-4.4-10.1-3.5c-1.3,1.3-0.1,10.9,0.3,11.6c0.3,0.5,0.7,0.5,1.2,0.4
		c2.8-0.1,7.1-1.7,8.5-3.7c0,0,0.1,0,0.1,0c0.2,0.2,0.5,0.3,0.8,0.4l0.6-0.1l0.7,0.2c0.2,0.1,0.4,0,0.5,0L61.6,145.5z"/>
	<path class="st0" d="M62.9,67.3C62.8,67.4,62.8,67.4,62.9,67.3c-0.2,0.8-0.3,0.9-1.1,0.9c-2,0-3.9,0-5.9,0c-0.3,0-0.5-0.1-0.8-0.1
		c-0.2,0-0.3,0.1-0.4,0.3c-0.1,0.8,0.1,1.5,0.9,1.9c0.4,0.2,1.1,0.4,1.5,0.4c0.7,0.1,1.2,0.3,1.9,0.1c0.4-0.1,0.5-0.4,0.4-0.7
		c-0.1-0.2-0.2-0.4-0.3-0.7c0-0.2,0-0.4,0.1-0.5c0.1-0.1,0.4-0.1,0.6,0c0.6,0.3,0.9,0.9,0.9,1.6c0,0.6-0.3,1-1,1.3
		c-0.6,0.2-1.8,0.4-3,0.1c-1.3-0.3-1.9-0.6-2.4-0.9c-0.6-0.3-0.9-1.1-1-1.7c-0.1-0.9,0-1.7,0.4-2.5c0.3-0.6,0.2-1.2,0.2-1.8
		c-0.1-0.8-0.3-1.9-0.3-2.6c0-1.1,0-1.8,0.2-2.8c0.1-0.6,0.5-1.2,0.7-1.8c0.4-0.9,1-1.8,1.7-2.5c0.5-0.5,1-0.8,1.7-0.9
		c1-0.3,1.7-0.9,2.4-1.7c0.2-0.3,0.3-0.6,0.3-0.9c0-1.1,0.4-2,1.1-2.8c0.1-0.2,0.3-0.4,0.5-0.4c0.7-0.2,0.9-0.8,1.2-1.3
		c0.1-0.2,0.3-0.5,0.5-0.7c0.1-0.2,0.5-0.6,0.6-0.3c0.1,0.2,0.2,0.5,0.3,0.7c0.1,0.4,0.1,0.7,0.1,1.1c0,0.4,0.1,0.6,0.5,0.6
		c0.5,0.1,0.9,0.3,1.2,0.8c0.2,0.2,0.4,0.5,0.7,0.6c0.6,0.2,0.5,0.5,0.4,0.9c-0.2,0.6-0.6,1.1-1.1,1.3c-0.5,0.3-0.7,0.6-0.6,1.2
		c0.2,0.9,0.2,1.9,0.2,2.8c0,0.9-0.3,1.7-0.8,2.5c-0.7,0.9-1.1,1.9-1,3c0,1.3,0,2.5,0,3.8c0,0.5,0.1,1,0.6,1.1
		c0.2,0,0.9,0.3,0.9,0.4c0.1,0.1,0.2,0.8-0.1,0.9c-0.1,0-0.4,0.1-0.7,0.1c-0.7,0.1-1.4,0.2-2-0.4C63,67.5,63,67.4,62.9,67.3z
		 M62.6,66.9c-0.2-0.5-0.3-1-0.4-1.6c-0.1,0.4-0.6,1-0.9,1.4C61.7,66.7,62.2,66.8,62.6,66.9z"/>
	<path class="st0" d="M327.5,51.9C327.5,51.9,327.5,51.8,327.5,51.9c-0.4-0.4-0.8-0.5-1.4-0.5c-1.7,0.1-2.7,0.8-2.7,0.8
		s0.7-1.6,3.1-1.5c-0.4-0.7-2.4-0.4-3.5-0.1c-0.1,0,1.6-3.4,2-3.8c0,0,0,0,0,0c-1.7,0.5-3.1,2.1-3.1,2.1c-0.1-1.3-0.5-3.5-1-4l0,0
		c-0.4,0.5-0.8,2.7-1,4c0,0-1.4-1.5-3.1-2.1c0,0,0,0,0,0c0.4,0.4,2.1,3.9,2,3.8c-1.1-0.3-3.1-0.6-3.5,0.1c2.4-0.1,3.1,1.5,3.1,1.5
		s-1-0.7-2.7-0.8c-0.5,0-0.9,0.1-1.4,0.4c0,0,0,0,0,0c0.8-0.1,3.5,1.6,3.7,2.9c0,0-0.9-0.3-1.1-0.3c-0.7-0.1-1.3,0-1.9,0.2
		c-0.2,0.1-0.5,0.3-0.6,0.4c1.4-0.6,3.3,0.2,3.9,1.2c0.2,0.3,0.4,0.6,0.3,0.8c-0.3-0.1-0.5-0.1-0.8-0.2c-1.2-0.2-2.3,0.3-2.8,1.2
		c0,0,0,0.1-0.1,0.1c1-0.9,2.3-1.1,3.4-0.3c-0.4,0-0.8-0.1-1.1,0.1c-0.4,0.1-0.7,0.3-1,0.6c0.8-0.3,1.6-0.2,2.4,0.2
		c-0.3,0.1-0.4,0.4-0.7,0.5c-0.5,0.2-1,0.4-1.2,1c-0.1,0.3-0.4,0.7-0.7,1c-0.2,0.2-0.4,0.4-0.5,0.7c-0.1,0.3-0.1,0.5-0.3,0.8
		c-0.1,0.3-0.2,0.6-0.3,1c-0.1,0.2-0.1,0.4-0.2,0.5c0,0.2,0,0.4-0.1,0.7c-0.2,0.9-0.1,2.1-0.1,3c0,1.1,0.4,2.4,1,3.3
		c0.7,1,1.7,1.6,3,1.7c0.6,0.1,1.3,0.1,2,0.2v0c0.7,0,1.4-0.1,2-0.2c1.3-0.1,2.3-0.7,3-1.7c0.6-0.9,1-2.2,1-3.3c0-0.9,0.1-2.1-0.1-3
		c0-0.2,0-0.4-0.1-0.7c0-0.2-0.1-0.4-0.2-0.5c-0.1-0.3-0.1-0.7-0.3-1c-0.1-0.3-0.2-0.5-0.3-0.8c-0.1-0.3-0.3-0.5-0.5-0.7
		c-0.2-0.3-0.5-0.6-0.7-1c-0.2-0.6-0.7-0.8-1.2-1c-0.2-0.1-0.4-0.4-0.7-0.5c0.8-0.4,1.6-0.5,2.4-0.2c-0.3-0.3-0.6-0.4-1-0.6
		c-0.4-0.1-0.7-0.1-1.1-0.1c1.1-0.8,2.4-0.6,3.4,0.3c0-0.1-0.1-0.1-0.1-0.1c-0.6-0.9-1.7-1.4-2.8-1.2c-0.3,0-0.5,0.1-0.8,0.2
		c-0.1-0.2,0.1-0.5,0.3-0.8c0.7-1,2.6-1.7,3.9-1.2c-0.1-0.2-0.4-0.4-0.6-0.4c-0.7-0.2-1.2-0.3-1.9-0.2c-0.2,0-1.1,0.3-1.1,0.3
		C324,53.5,326.7,51.7,327.5,51.9z"/>
	<path class="st0" d="M244.6,55.3c-1.7,0.5-2.6,0.6-3.4,0.7c-0.1,0-0.3,0-0.5,0c-0.2,0-0.3,0-0.5,0c-0.8,0-1.7-0.2-3.4-0.7
		c-2.6-0.7-7.1-0.8-9.7-0.1c0,0.5,0.1,1.1,0.2,1.6c0,0.1,0.2,0.1,0.3,0.1c0.4,0.2,0.5,0.6,0.6,1c0.3,1,0.6,2,0.9,3
		c0.3,1.1,1,1.7,2.1,2c1.2,0.3,2.3,0.4,3.6,0.3c1.7-0.2,3-0.9,3.8-2.4c0.5-0.9,0.9-1.9,1.3-2.8c0.1-0.2,0.2-0.4,0.4-0.5
		c0.1-0.1,0.3-0.1,0.4-0.1c0.1,0,0.3,0,0.4,0.1c0.2,0.1,0.3,0.3,0.4,0.5c0.4,0.9,0.8,1.9,1.3,2.8c0.8,1.5,2.1,2.2,3.8,2.4
		c1.2,0.1,2.4,0,3.6-0.3c1.1-0.3,1.8-1,2.1-2c0.3-1,0.6-2,0.9-3c0.1-0.4,0.1-0.8,0.6-1c0.1,0,0.3,0,0.3-0.1c0.1-0.5,0.2-1.1,0.2-1.6
		C251.7,54.4,247.2,54.6,244.6,55.3z"/>
	<g>
		<g id="eelQ8H.tif_4_">
			<path class="st0" d="M245.1,132.5c0.3,0,0.5,0,0.8,0c0,0,0.1,0,0.1,0c0.5,0.1,1,0.2,1.5,0.3c0.5,0.1,1,0.4,1.3,0.8
				c0.5,0.6,0.8,1.3,0.7,2.1c-0.1,1-0.6,1.9-1.1,2.8c-0.1,0.2-0.3,0.4-0.4,0.6c0.2,0.2,0.3,0.3,0.5,0.5c0.2,0.2,0.3,0.3,0.5,0.5
				c0.3,0.3,0.3,0.8,0,1.2c-0.3,0.3-0.6,0.6-0.9,0.9c-0.1,0.1-0.1,0.2,0,0.3c0.4,0.8,0.6,1.5,0.7,2.4c0.2,1.7-0.1,3.3-0.8,4.8
				c-0.5,1-1.3,1.9-2.2,2.7c-0.8,0.6-1.7,1.1-2.7,1.4c-1.2,0.4-2.5,0.5-3.8,0.3c-1.5-0.2-2.8-0.8-3.9-1.7c-1-0.8-1.8-1.8-2.4-2.9
				c-0.5-1-0.8-2.1-0.8-3.3c0-1,0.1-2,0.5-2.9c0.4-1.2,1.1-2.2,2-3c0.6-0.6,1.4-1.2,2.2-1.5c1-0.5,2-0.7,3.1-0.8
				c1.2-0.1,2.3,0.1,3.4,0.5c0.2,0.1,0.3,0,0.5-0.1c0.3-0.3,0.6-0.6,0.9-0.9c0.4-0.4,0.9-0.4,1.3,0c0.1,0.1,0.2,0.2,0.3,0.3
				c0.2,0.2,0.4,0.4,0.6,0.5c0.2-0.2,0.3-0.4,0.4-0.7c0.3-0.5,0.5-1,0.6-1.6c0-0.4,0-0.7-0.4-0.9c-0.3-0.2-0.6-0.3-0.9-0.4
				c-0.9-0.3-1.7-0.2-2.5,0.2c-0.9,0.4-1.8,0.8-2.7,1.2c-0.7,0.3-1.4,0.6-2.2,0.7c-0.8,0.1-1.5,0.1-2.2-0.2c-0.6-0.2-1-0.5-1.5-0.9
				c-0.3-0.2-0.4-0.6-0.2-0.9c0.1-0.3,0.4-0.5,0.7-0.5c0.3,0,0.5,0.1,0.8,0.3c0.3,0.2,0.5,0.4,0.8,0.5c0.7,0.3,1.3,0.2,1.9-0.1
				c0.9-0.3,1.8-0.8,2.7-1.2c0.8-0.4,1.6-0.7,2.5-0.9C244.8,132.6,245,132.6,245.1,132.5z"/>
		</g>
		<path class="st0" d="M236.2,131.6l-0.1,1.3c0,0.3,0.3,0.4,0.5,0.3l1.1-0.8l-0.8,1c-0.2,0.2,0,0.5,0.3,0.5l1.3-0.1l-1.2,0.5
			c-0.2,0.1-0.2,0.4,0,0.5l1.2,0.5l-2-0.2l1.1,0.8l-1.1-0.3c-0.2-0.1-0.4,0.1-0.4,0.3l0.2,1.5l-0.5-1.2c-0.1-0.2-0.5-0.2-0.6,0
			l-0.5,1.2l0.1-1.3c0-0.3-0.3-0.4-0.5-0.3l-1.1,0.8l0.8-1c0.2-0.2,0-0.5-0.3-0.5l-1.3,0.1l1.2-0.5c0.2-0.1,0.2-0.4,0-0.5l-1.2-0.5
			l1.3,0.1c0.3,0,0.4-0.3,0.3-0.5l-0.8-1l1.1,0.8c0.2,0.2,0.5,0,0.5-0.3l-0.1-1.3l0.5,1.2c0.1,0.2,0.5,0.2,0.6,0L236.2,131.6z"/>
	</g>
	<g>
		<path class="st0" d="M180.9,101.8c-0.4,1.5-0.5,3.1-0.3,4.6c0.1,0.5,0.2,0.9,0.4,1.4c0.2,0.6,0.5,1.1,0.8,1.7c0.7,1,1.6,1.6,2.7,2
			c0.9,0.4,1.9,0.4,2.9,0.5c0.2,0,0.5,0,0.8,0c0.5-0.1,1.1-0.1,1.6-0.2c1.2-0.3,2.4-0.7,3.3-1.6c1.1-1,1.5-2.3,1.6-3.7
			c0.1-1.1,0-2.2-0.1-3.2c-0.2-1.2-0.6-2.3-1-3.4c-0.1-0.3-0.2-0.6-0.3-0.9c0,0,0-0.1,0.1-0.2c0.1,0,0.2-0.1,0.3-0.1
			c0.2,0,0.3,0,0.5,0c0.4,0,0.4,0,0.4-0.4c0-0.3,0-0.7,0-1c0-0.3-0.1-0.3-0.4-0.3c-1,0-2.1,0-3.1,0c-0.4,0-0.5,0.1-0.6,0.5
			c0,0.3,0.1,0.6,0.2,0.9c0.3,0.5,0.5,1.1,0.8,1.6c0.2,0.4,0.3,0.9,0.4,1.3c0.2,0.9,0.4,1.8,0.6,2.8c0.2,1.1,0.1,2.2-0.2,3.2
			c-0.4,1.3-1.3,2.1-2.6,2.4c-0.7,0.2-1.4,0.3-2.2,0.2c-1.3-0.1-2.4-0.6-3.2-1.7c-0.4-0.5-0.7-0.9-0.9-1.5c-0.1-0.5-0.2-0.9-0.3-1.4
			c-0.3-1.7,0.1-3.3,0.7-4.9c0.3-0.8,0.6-1.5,1.1-2.2c0.2-0.3,0.3-0.6,0.2-1c0-0.3-0.1-0.4-0.4-0.4c-0.6,0-1.2,0-1.7,0
			c-0.6,0-1.1,0-1.7,0c-0.2,0-0.3,0.1-0.3,0.3c0,0.4,0,0.8,0,1.2c0,0.2,0.1,0.3,0.3,0.3c0.2,0,0.4,0,0.7,0c0.3,0,0.3,0.1,0.2,0.3
			c-0.2,0.6-0.5,1.1-0.7,1.7C181.1,101,181,101.4,180.9,101.8z M181.2,106.6c0.1-0.2,0.1-0.4,0.2-0.6c0.1-0.1,0.2-0.2,0.3-0.1
			c0.2,0.2,0.4,0.8,0.3,1.1c-0.1,0.2-0.4,0.3-0.5,0.1C181.4,107,181.3,106.8,181.2,106.6z M181.3,103.8c0-0.2,0-0.4,0.1-0.6
			c0-0.1,0.1-0.2,0.2-0.2c0.1,0,0.3,0.1,0.3,0.2c0.2,0.3,0,0.8-0.3,1c0,0-0.2,0-0.2,0C181.4,104.1,181.4,103.9,181.3,103.8z
			 M181.7,101.6c-0.1-0.4,0.2-0.8,0.6-1c0,0.1,0.1,0.1,0.1,0.1c0.1,0.3,0,0.8-0.3,1c-0.1,0-0.2,0.1-0.2,0.1
			C181.8,101.8,181.7,101.7,181.7,101.6z M182.1,108.2c0-0.1,0.1-0.2,0.1-0.2c0.1,0,0.3,0,0.4,0.1c0.2,0.2,0.3,0.4,0.4,0.6
			c0.1,0.1,0,0.3-0.1,0.3c-0.1,0-0.2,0-0.3,0C182.4,108.8,182.2,108.6,182.1,108.2z M183.6,109.9c-0.1-0.1,0-0.2,0.1-0.3
			c0.2-0.1,0.9,0.1,1,0.4c0,0,0,0.1,0,0.1c0,0.3-0.1,0.4-0.4,0.3C184,110.3,183.8,110.2,183.6,109.9z M186,111.1
			c-0.3-0.1-0.4-0.2-0.4-0.4c0.1-0.2,0.3-0.2,0.5-0.2c0.1,0,0.3,0.1,0.5,0.1c0.1,0,0.3,0.1,0.2,0.3c0,0.2-0.1,0.2-0.3,0.2
			C186.4,111.1,186.2,111.1,186,111.1z M188.1,111.2c-0.2,0-0.3-0.2-0.2-0.4c0-0.1,0.2-0.2,0.2-0.2c0.2,0,0.5,0,0.7,0
			c0.1,0,0.3,0,0.3,0.2c0,0.2-0.1,0.3-0.3,0.4c-0.1,0-0.2,0-0.4,0C188.4,111.2,188.3,111.2,188.1,111.2z M190.4,110.5
			c0-0.1,0-0.2,0.1-0.3c0.2-0.1,0.4-0.2,0.5-0.3c0.2-0.1,0.4,0,0.5,0.2c-0.2,0.3-0.5,0.5-0.9,0.5
			C190.6,110.6,190.4,110.5,190.4,110.5z M192.3,108.9c0-0.1,0-0.2,0.1-0.2c0.2-0.2,0.3-0.4,0.5-0.5c0.1-0.1,0.3-0.1,0.3,0
			c0.1,0.1,0.1,0.3,0,0.4c-0.1,0.2-0.3,0.4-0.5,0.5c-0.1,0.1-0.2,0.1-0.3,0.1C192.4,109.2,192.3,109,192.3,108.9z M192.6,101.3
			c0-0.3-0.1-0.5,0.2-0.7c0.3,0.2,0.5,0.6,0.5,1c0,0.2-0.1,0.3-0.3,0.3C192.8,101.7,192.6,101.5,192.6,101.3z M193.3,104.2
			c-0.2-0.2-0.4-0.7-0.2-1c0.1-0.1,0.2-0.2,0.3-0.2c0,0,0.2,0.1,0.2,0.2c0.1,0.1,0.1,0.3,0.1,0.4c0,0.2-0.1,0.3-0.2,0.5
			C193.5,104.3,193.4,104.3,193.3,104.2z M193.2,106.7c-0.2-0.3-0.1-0.9,0.2-1.1c0.1-0.1,0.2-0.1,0.3,0c0.1,0,0.2,0.1,0.2,0.2
			c0,0.1,0,0.2,0,0.2c0,0.3,0,0.6-0.2,0.8C193.5,106.9,193.4,106.9,193.2,106.7z"/>
		<path class="st0" d="M181.4,106c-0.1,0.2-0.1,0.3-0.2,0.6c0.1,0.2,0.2,0.4,0.3,0.7c0.1,0.1,0.4,0,0.5-0.1c0.1-0.3,0-0.9-0.3-1.1
			C181.6,105.8,181.5,105.9,181.4,106z"/>
		<path class="st0" d="M181.4,103.3c-0.1,0.2-0.1,0.3-0.1,0.6c0,0.1,0.1,0.3,0.2,0.4c0,0,0.1,0,0.2,0c0.3-0.2,0.4-0.7,0.3-1
			c-0.1-0.1-0.2-0.2-0.3-0.2C181.6,103,181.5,103.2,181.4,103.3z"/>
		<path class="st0" d="M182.3,100.6c-0.4,0.2-0.6,0.6-0.6,1c0,0.1,0.1,0.2,0.2,0.2c0.1,0,0.2,0,0.2-0.1c0.3-0.2,0.4-0.7,0.3-1
			C182.4,100.7,182.3,100.6,182.3,100.6z"/>
		<path class="st0" d="M182.2,108c-0.1,0-0.1,0.1-0.1,0.2c0.1,0.3,0.3,0.6,0.5,0.8c0.1,0,0.2,0,0.3,0c0.1-0.1,0.2-0.2,0.1-0.3
			c-0.1-0.2-0.2-0.4-0.4-0.6C182.6,108,182.4,108,182.2,108z"/>
		<path class="st0" d="M183.7,109.6c-0.1,0.1-0.2,0.1-0.1,0.3c0.2,0.2,0.4,0.4,0.7,0.5c0.3,0.1,0.4,0,0.4-0.3c0,0,0,0,0-0.1
			C184.6,109.8,183.9,109.5,183.7,109.6z"/>
		<path class="st0" d="M185.6,110.7c0,0.2,0.1,0.3,0.4,0.4c0.2,0,0.4,0,0.6,0c0.1,0,0.3-0.1,0.3-0.2c0-0.2-0.1-0.2-0.2-0.3
			c-0.2-0.1-0.4-0.1-0.5-0.1C185.9,110.5,185.7,110.4,185.6,110.7z"/>
		<path class="st0" d="M187.2,98.2c0,1-0.1,2,0.1,3c0.2,0.9,0.6,1.8,1.1,2.6c0.6,0.8,1.3,1.5,2.3,1.9c0.3,0.1,0.5,0.2,0.8,0.3
			c0.3,0.1,0.5-0.1,0.5-0.3c0-0.6-0.1-1.2-0.2-1.8c0-0.2-0.1-0.4-0.3-0.5c-0.6-0.5-1.2-1.1-1.5-1.9c-0.3-0.6-0.4-1.3-0.5-2
			c-0.1-1.5,0.1-2.9,0.7-4.3c0.3-0.7,0.6-1.4,1-2.1c0.1-0.2,0.2-0.3,0.3-0.5c0.2-0.3,0.2-0.6,0.2-0.9c0-0.2-0.2-0.2-0.3-0.2
			c-0.3,0-0.6,0-0.8,0c-0.3,0-0.6,0-1,0v0c-0.6,0-1.1,0-1.7,0c-0.3,0-0.4,0.1-0.4,0.4c0,0.4,0,0.7,0,1.1c0,0.3,0.1,0.3,0.4,0.4
			c0.2,0,0.5,0,0.7,0c0.2,0,0.2,0.1,0.2,0.3c-0.2,0.5-0.4,0.9-0.6,1.4c-0.1,0.4-0.3,0.8-0.4,1.1C187.4,96.6,187.2,97.4,187.2,98.2z
			 M187.9,98.2c0-0.3,0.1-0.5,0.2-0.7c0.1-0.2,0.2-0.1,0.3,0c0.2,0.3,0.1,0.9-0.2,1.2C188.1,98.5,187.9,98.4,187.9,98.2z
			 M188.3,101.6c-0.5-0.3-0.4-0.7-0.4-1.1c0-0.2,0.2-0.2,0.3-0.3c0.2,0,0.2,0.1,0.3,0.2c0,0.1,0.1,0.2,0.1,0.3
			C188.8,101.2,188.7,101.3,188.3,101.6z M188.2,95.9c0.1-0.3,0.2-0.6,0.3-0.8c0.1-0.1,0.2-0.1,0.4-0.1c0,0,0.1,0.2,0.1,0.3
			c0,0.3-0.1,0.5-0.3,0.8c-0.1,0.1-0.2,0.2-0.3,0.1C188.4,96.1,188.3,96,188.2,95.9z M189.5,103.4c-0.3,0-0.8-0.6-0.7-0.9
			c0,0,0-0.1,0.1-0.1c0.1,0,0.1-0.1,0.2,0c0.3,0.1,0.6,0.4,0.7,0.8C189.8,103.3,189.7,103.4,189.5,103.4z M190.1,104.1
			c0.1-0.1,0.2-0.1,0.3-0.2c0.3-0.1,0.8,0.2,0.9,0.5c0,0.1,0,0.2-0.1,0.3c0,0-0.1,0-0.2,0C190.6,104.7,190.4,104.5,190.1,104.1z"/>
		<path class="st0" d="M188.2,97.4c-0.2,0.2-0.3,0.5-0.2,0.7c0,0.2,0.2,0.3,0.4,0.5c0.3-0.2,0.4-0.9,0.2-1.2
			C188.4,97.3,188.3,97.3,188.2,97.4z"/>
		<path class="st0" d="M187.9,110.8c-0.1,0.2,0,0.4,0.2,0.4c0.1,0,0.2,0,0.3,0c0.2,0,0.3,0,0.4,0c0.2,0,0.3-0.2,0.3-0.4
			c0-0.2-0.2-0.2-0.3-0.2c-0.2,0-0.5,0-0.7,0C188.1,110.6,188,110.7,187.9,110.8z"/>
		<path class="st0" d="M187.9,100.5c-0.1,0.5-0.1,0.8,0.4,1.1c0.4-0.3,0.4-0.5,0.3-0.9c0-0.1-0.1-0.2-0.1-0.3c0-0.1-0.1-0.3-0.3-0.2
			C188.1,100.2,188,100.3,187.9,100.5z"/>
		<path class="st0" d="M188.6,95.1c-0.1,0.2-0.2,0.5-0.3,0.8c0.1,0.1,0.2,0.2,0.3,0.3c0.1,0.1,0.2,0,0.3-0.1
			c0.2-0.2,0.3-0.5,0.3-0.8c0-0.1-0.1-0.3-0.1-0.3C188.8,95,188.6,95,188.6,95.1z"/>
		<path class="st0" d="M188.8,102.5c-0.1,0.3,0.3,0.9,0.7,0.9c0.2,0,0.3-0.1,0.2-0.3c-0.1-0.4-0.3-0.6-0.7-0.8c0,0-0.1,0-0.2,0
			C188.8,102.4,188.8,102.4,188.8,102.5z"/>
		<path class="st0" d="M190.4,103.9c-0.1,0-0.2,0.1-0.3,0.2c0.3,0.4,0.5,0.6,0.9,0.7c0.1,0,0.2,0,0.2,0c0.1-0.1,0.1-0.2,0.1-0.3
			C191.2,104.1,190.7,103.9,190.4,103.9z"/>
		<path class="st0" d="M190.5,110.2c-0.1,0.1-0.1,0.2-0.1,0.3c0,0.1,0.2,0.2,0.3,0.2c0.4,0,0.7-0.2,0.9-0.5
			c-0.1-0.2-0.3-0.3-0.5-0.2C190.8,109.9,190.6,110,190.5,110.2z"/>
		<path class="st0" d="M192.3,108.7c0,0,0,0.1-0.1,0.2c0.1,0.1,0.1,0.2,0.2,0.3c0.1,0,0.2,0,0.3-0.1c0.2-0.2,0.3-0.3,0.5-0.5
			c0.1-0.1,0-0.3,0-0.4c0,0-0.3,0-0.3,0C192.7,108.3,192.5,108.5,192.3,108.7z"/>
		<path class="st0" d="M192.8,100.6c-0.3,0.2-0.3,0.4-0.2,0.7c0,0.3,0.2,0.5,0.4,0.5c0.2,0.1,0.3-0.1,0.3-0.3
			C193.3,101.1,193.2,100.8,192.8,100.6z"/>
		<path class="st0" d="M193.1,103.3c-0.1,0.2,0,0.8,0.2,1c0.1,0.1,0.2,0.1,0.3,0c0.1-0.2,0.1-0.3,0.2-0.5c0-0.2-0.1-0.3-0.1-0.4
			c0-0.1-0.2-0.2-0.2-0.2C193.3,103.1,193.2,103.2,193.1,103.3z"/>
		<path class="st0" d="M193.4,105.6c-0.2,0.2-0.3,0.9-0.2,1.1c0.1,0.2,0.3,0.2,0.5,0c0.2-0.2,0.2-0.5,0.2-0.8c0,0,0-0.1,0-0.2
			c0-0.1-0.1-0.2-0.2-0.2C193.6,105.5,193.4,105.5,193.4,105.6z"/>
		<path class="st0" d="M195.1,104.2c-0.2,0.2-0.2,1.9,0.1,2c0.1,0,0.1,0,0.2,0c0.4-0.1,0.7-0.1,1.1-0.2c0.7-0.2,1.3-0.4,2-0.7
			c0.9-0.5,1.6-1.2,2-2c0.3-0.5,0.4-1,0.5-1.5c0.4-1.6,0.2-3.2-0.1-4.8c-0.2-1.1-0.6-2.2-1.1-3.3c0-0.1-0.1-0.2-0.1-0.3
			c-0.1-0.2,0-0.3,0.2-0.3c0.2,0,0.5,0,0.7,0c0.2,0,0.3-0.1,0.3-0.2c0-0.5,0-0.9,0-1.4c0-0.1-0.1-0.2-0.3-0.2c-0.6,0-1.1,0-1.7,0
			c-0.6,0-1.1,0-1.7,0c-0.3,0-0.4,0.1-0.4,0.4c-0.1,0.5,0.2,0.9,0.4,1.3c0.2,0.4,0.4,0.7,0.5,1.1c0.1,0.3,0.3,0.7,0.4,1.1
			c0.5,1.5,0.8,3.1,0.8,4.7c0,0.8-0.2,1.5-0.5,2.2c-0.2,0.4-0.5,0.8-0.8,1c-0.7,0.6-1.4,0.9-2.3,1
			C195.3,104.1,195.2,104.1,195.1,104.2z M196.9,104.8c0.1-0.4,0.5-0.5,0.9-0.6c0.1,0,0.2,0.1,0.3,0.2c0,0.1,0,0.2,0,0.3
			c-0.2,0.2-0.4,0.3-0.7,0.3C197.2,105,197,104.9,196.9,104.8z M199.1,103.5c-0.1-0.1-0.2-0.2-0.1-0.3c0-0.1,0.1-0.3,0.2-0.4
			c0.1-0.1,0.3-0.2,0.4-0.3c0.3,0,0.4,0.1,0.3,0.4c-0.1,0.3-0.3,0.5-0.6,0.7C199.2,103.5,199.1,103.5,199.1,103.5z M199.1,95.3
			c0.1-0.1,0.1-0.2,0.2-0.3c0.1,0,0.2,0,0.3,0c0.2,0.2,0.4,0.5,0.4,0.9c0,0.1-0.1,0.2-0.2,0.3c-0.1,0.1-0.3,0-0.4-0.1
			C199.3,95.8,199.2,95.6,199.1,95.3z M199.6,98C199.7,97.9,199.7,97.9,199.6,98c0.1-0.1,0.1-0.3,0.1-0.4c0-0.1,0.1-0.2,0.2-0.2
			c0.1,0,0.3,0,0.3,0.1c0.1,0.3,0.2,0.6,0.1,0.9c-0.1,0.2-0.3,0.3-0.4,0.1C199.8,98.3,199.7,98.1,199.6,98z M199.8,100.9
			c-0.1-0.4,0-0.8,0.4-1.2c0.1,0.1,0.3,0.2,0.3,0.3c0.1,0.3,0.1,0.7-0.2,1c-0.1,0.1-0.2,0.2-0.2,0.1
			C200,101.1,199.8,101,199.8,100.9z"/>
		<path class="st0" d="M197.8,104.2c-0.4,0.1-0.7,0.2-0.9,0.6c0.1,0.1,0.2,0.2,0.4,0.2c0.3,0,0.5-0.1,0.7-0.3c0.1-0.1,0.1-0.2,0-0.3
			C198.1,104.2,197.9,104.2,197.8,104.2z"/>
		<path class="st0" d="M198.9,103.2c0,0.1,0.1,0.2,0.1,0.3c0,0,0.2,0.1,0.2,0c0.3-0.1,0.5-0.4,0.6-0.7c0.1-0.2,0-0.4-0.3-0.4
			c-0.1,0.1-0.3,0.2-0.4,0.3C199.1,102.9,199,103,198.9,103.2z"/>
		<path class="st0" d="M199.3,95c-0.1,0.1-0.1,0.2-0.2,0.3c0.1,0.3,0.2,0.5,0.3,0.8c0.1,0.2,0.2,0.2,0.4,0.1c0.1,0,0.2-0.2,0.2-0.3
			c0-0.3-0.2-0.6-0.4-0.9C199.6,95,199.4,95,199.3,95z"/>
		<path class="st0" d="M199.7,97.9C199.7,97.9,199.7,97.9,199.7,97.9c0,0.2,0.1,0.4,0.2,0.6c0.1,0.2,0.3,0.1,0.4-0.1
			c0.1-0.3,0.1-0.6-0.1-0.9c-0.1-0.2-0.2-0.2-0.3-0.1c-0.1,0-0.2,0.1-0.2,0.2C199.7,97.7,199.7,97.8,199.7,97.9z"/>
		<path class="st0" d="M200.2,99.8c-0.4,0.3-0.5,0.7-0.4,1.2c0,0.1,0.2,0.2,0.3,0.3c0,0,0.2-0.1,0.2-0.1c0.2-0.3,0.2-0.6,0.2-1
			C200.5,99.9,200.3,99.9,200.2,99.8z"/>
	</g>
	<g id="FGoKul.tif_4_">
		<path class="st0" d="M90.3,15.1c0-0.2,0-0.4,0-0.6c0,0,0-0.1,0-0.1c0.1-0.5,0.2-0.9,0.5-1.3c0.5-0.7,1.2-1.1,1.8-1.7
			c0.1,0,0.1-0.1,0.2-0.2c0.6-0.9,1.3-1.8,2.2-2.5c0.9-0.7,2-1,3.2-0.5c1.1,0.5,1.8,1.2,2,2.3c0.2,0.9,0.3,1.9,0.4,2.8
			c0.1,0.5,0.1,1,0.2,1.5c0.1,0,0.1-0.1,0.1-0.1c0.1-1.1,0.2-2.2,0.3-3.3c0-0.4,0-0.8,0.2-1.1c0.5-1,1.2-1.7,2.2-2.2
			c0.4-0.2,0.8-0.3,1.2-0.4c0.2,0,0.5,0,0.7,0c0,0,0,0,0,0c0.6,0.1,1.1,0.3,1.5,0.7c0.5,0.4,0.8,0.9,1.2,1.4
			c0.2,0.3,0.4,0.5,0.7,0.8c0.4,0.3,0.9,0.6,1.3,0.8c0.6,0.4,1,1,1.1,1.7c0.1,0.4,0,0.8,0,1.1c-0.1,0.6-0.2,1.2-0.7,1.7
			c-0.8,1-1.9,1.5-3.2,1.9c-0.7,0.2-1.5,0.2-2.3,0.3c-0.4,0.1-0.8,0.1-1.2,0.1c0,0,0,0.1,0,0.1c0.2,0,0.4,0,0.6,0c1.3,0,2.6,0,3.9,0
			c0.8,0,1.5,0.3,2.1,0.7c0.7,0.5,1.2,1.1,1.3,2c0.1,0.6,0,1.3-0.2,1.9c-0.2,0.5-0.4,1-0.9,1.3c-0.1,0.1-0.2,0.2-0.3,0.3
			c-0.5,0.6-0.9,1.2-1.2,1.9c-0.3,0.6-0.7,1-1.2,1.3c-1,0.7-2.1,0.6-3,0.1c-0.9-0.5-1.6-1.3-2.2-2.2c-0.1-0.2-0.2-0.5-0.3-0.8
			c-0.1-0.3-0.1-0.6-0.2-0.9c-0.1-0.5-0.3-1-0.4-1.5c0,0,0,0-0.1,0c0,0.2-0.1,0.3-0.1,0.5c0,0.7,0,1.4,0.1,2.1
			c0.1,0.9,0.3,1.9,0.8,2.7c0.2,0.5,0.6,0.8,1,1.2c0.4,0.3-0.4,1.2-0.7,1.1c-0.6-0.2-1-0.6-1.4-1.1c-0.7-1-1.2-2.1-1.2-3.3
			c0-1.2,0.1-2.4,0.1-3.6c0-0.1,0-0.1,0-0.2c-0.3,0-0.4,0.1-0.4,0.4c-0.2,0.8-0.3,1.7-0.5,2.5c-0.1,0.7-0.3,1.5-0.7,2.1
			c-0.5,0.7-1.1,1.1-1.9,1.3c-0.7,0.2-1.3,0-2-0.1c-0.5-0.1-0.8-0.3-1.2-0.6c-0.5-0.5-0.9-1-1.3-1.6c-0.2-0.5-0.5-0.9-0.9-1.2
			c-0.1-0.1-0.2-0.2-0.3-0.3C91,24,90.5,23.6,90.3,23c0-0.1,0-0.3,0-0.4c0-0.1,0-0.2,0-0.2c0-0.6,0.1-1.2,0.4-1.7
			c0.7-1.2,1.7-1.9,3.1-2c0.8-0.1,1.7-0.1,2.5-0.1c0.4,0,0.7,0,1.1-0.1c0.1,0,0.3,0,0.3-0.2c-0.2,0-0.4-0.1-0.6-0.1
			c-1-0.1-2-0.2-2.9-0.3c-0.9-0.1-1.8-0.3-2.5-0.8C90.9,16.6,90.3,16.1,90.3,15.1C90.3,15.2,90.3,15.1,90.3,15.1z"/>
	</g>
	<path class="st0" d="M321.2,154.8c-0.6,0-1.1-0.1-1.7-0.2c-0.3-0.1-0.6-0.3-0.6-0.6c0-0.4-0.2-0.6-0.5-0.7c-0.1,0-0.1-0.1-0.2-0.2
		c0.2,0,0.3,0.1,0.5,0.1c-0.1-1.2-0.1-2.3-0.2-3.5c-0.1,0.1-0.2,0.2-0.4,0.3c0.1-0.1,0.1-0.2,0.1-0.3c-0.1,0-0.2,0-0.3,0.1
		c0.1-0.1,0.2-0.2,0.3-0.3c-0.2,0-0.3,0-0.4,0c0.1-0.1,0.2-0.1,0.2-0.1c-0.9-0.4-1.8-0.9-2.8-1.3c-0.1,0-0.2,0-0.3,0
		c-0.2,0.1-0.4,0.2-0.6,0.2c0.2-0.2,0.3-0.3,0.5-0.5c-0.9-0.6-1.6-1.4-2.2-2.3c-0.2,0.1-0.3,0.2-0.5,0.4c0,0,0,0,0,0
		c0.1-0.1,0.2-0.3,0.3-0.4c-0.2,0-0.4,0-0.6,0c0,0,0,0,0,0c0.2-0.1,0.4-0.1,0.6-0.2c-0.4-1.4-0.6-2.7,0-4c-0.2-0.1-0.3-0.2-0.6-0.4
		c0.2,0,0.3,0.1,0.4,0.1c0-0.1-0.1-0.1-0.1-0.3c0.1,0.1,0.2,0.1,0.3,0.2c0-0.1,0-0.2-0.1-0.4c0.2,0.2,0.3,0.4,0.4,0.5
		c1.1-0.4,1.6-0.2,2.1,1.3c0.2-0.1,0.3-0.2,0.5-0.3c0,0,0,0,0,0c-0.1,0.1-0.2,0.2-0.3,0.4c0.2,0,0.4,0.1,0.6,0.1
		c-0.3,0.1-0.6,0.1-0.8,0.2c0.1,1.4,0.3,2.6,1.4,3.6c0.1-0.2,0.2-0.3,0.4-0.5c0,0.1,0,0.1,0,0.1c-0.2,0.6-0.2,0.7,0.5,0.9
		c0.3,0.1,0.7,0.2,1.1,0.2c0-1.2,0-2.3,0-3.4c-0.2,0-0.4,0-0.7,0c0.1-0.1,0.2-0.1,0.3-0.2c-0.1,0-0.1-0.1-0.2-0.1c0.1,0,0.2,0,0.3,0
		c-0.1-0.1-0.1-0.2-0.3-0.3c0.2,0.1,0.4,0.1,0.6,0.2c-0.1-1.4-0.1-2.8-0.2-4.2c-0.2,0-0.5,0-0.7,0c0,0,0,0,0,0
		c0.2-0.1,0.3-0.1,0.5-0.2c-0.1-0.1-0.2-0.2-0.4-0.3c0.2,0.1,0.3,0.1,0.5,0.1c0-1.2,0-2.4,0-3.6c-0.2,0-0.4,0-0.7,0
		c0.2-0.1,0.2-0.1,0.3-0.2c-0.1,0-0.1-0.1-0.2-0.1c0.1,0,0.2,0,0.3,0c0,0,0,0,0-0.1c-0.1,0-0.2-0.1-0.3-0.1c0,0,0,0,0.1-0.1
		c0.1,0,0.3,0.1,0.4,0.2c0.2-1,0.2-2,1.2-2.7c-0.2-0.2-0.3-0.4-0.5-0.6c0,0,0,0,0,0c0.2,0.1,0.3,0.2,0.5,0.3c0-0.2,0-0.3,0-0.6
		c0.1,0.3,0.2,0.5,0.2,0.7c1.6-0.3,1.9,0.2,2.6,1.1c0.2-0.1,0.4-0.2,0.6-0.2c0,0,0,0,0,0c-0.2,0.1-0.3,0.3-0.4,0.3
		c0.2,1.3,0.4,2.5,0.6,3.7c0.2-0.1,0.4-0.1,0.7-0.2c-0.2,0.1-0.3,0.2-0.4,0.3c0.1,0,0.2,0,0.3,0.1c-0.1,0-0.2,0.1-0.3,0.1
		c0.1,0.1,0.2,0.1,0.3,0.1c0,0,0,0,0,0c-0.2,0-0.4,0-0.7,0c0,1.4,0,2.7,0,4.1c0.2,0,0.4,0,0.7,0c-0.3,0.1-0.5,0.2-0.7,0.3
		c0,0.7,0,1.4,0,2.1c2,0,3.4-1.6,3.4-3.8c-0.2-0.1-0.4-0.2-0.7-0.3c0,0,0,0,0,0c0.2,0,0.4,0,0.7,0.1c0.1-0.2,0.1-0.4,0.2-0.6
		c0.1-0.3,0.2-0.6,0.4-0.9c0.5-0.7,1.5-0.7,1.9,0c0.3,0.5,0.4,1,0.6,1.6c0,0,0.1,0,0.1,0c0,0.1,0.1,0.2,0.1,0.4c-0.1,0-0.2,0-0.4,0
		c-0.1,1.6-0.7,3-2,4.1c0.1,0.2,0.3,0.3,0.4,0.5c0,0,0,0,0,0c-0.1-0.1-0.2-0.1-0.3-0.2c0,0.1,0,0.2,0.1,0.3
		c-0.1-0.1-0.2-0.2-0.3-0.3c0,0.1,0,0.2,0,0.3c0,0,0,0,0,0c0-0.1-0.1-0.3-0.1-0.4c-0.9,0.5-1.9,1-2.8,1.5c0.1,0.1,0.1,0.3,0.2,0.5
		c0,0,0,0,0,0c-0.1-0.1-0.2-0.3-0.4-0.4c-0.1,0.2-0.1,0.3-0.2,0.5c0,0,0,0-0.1,0c0-0.2,0-0.3,0-0.5c-0.3,0.1-0.5,0.1-0.8,0.2
		c-0.1,0-0.1,0.2-0.1,0.3c0,0.6,0,1.2,0,1.7c0,0.3,0.1,0.4,0.4,0.4c0.1,0,0.2,0,0.3,0c0,0,0,0,0,0c-0.6,0.1-0.6,0.1-0.6,0.8
		c0,1.3,0,2.6,0,4c0.2,0,0.4,0.1,0.7,0.1c0,0,0,0,0,0.1c-0.2,0-0.3,0-0.5,0.1c0.1,0.1,0.2,0.2,0.3,0.4c-0.2-0.1-0.4-0.2-0.5-0.3
		c0,0.2-0.1,0.4-0.1,0.6c0,0.4-0.2,0.6-0.5,0.6C322.1,154.7,321.7,154.8,321.2,154.8"/>
	<g id="_x32_55H6N.tif_5_">
		<path class="st0" d="M355.5,23c0-0.2,0.1-0.5,0.1-0.7c0.2-1.4,0.8-2.8,1.7-3.9c0,0,0,0,0.1-0.1c0.3,1.4,1.1,2.7,2,3.9
			c-0.4,0-0.8,0-1.2,0c0,0,0,0.1,0.1,0.1c0.5,0.9,1.2,1.5,2,2c0.8,0.4,1.9,0.1,2.4-0.7c0.3-0.4,0.5-0.9,0.5-1.5
			c0.1-0.6,0.1-1.1,0.2-1.7c0.1-1.8,0.1-3.7,0.2-5.5c0-0.4,0-0.9,0-1.3c0,0,0-0.1,0-0.1c-0.3,0-0.6,0-0.9,0c-0.9,0-1.7,0-2.6,0
			c0,0-0.1,0-0.1-0.1c-0.3-0.5-0.7-1.1-1-1.6c0,0,0,0,0-0.1c0.8,0,1.6,0,2.4,0c0.8,0,1.6,0,2.4,0c0-0.3,0-0.5,0-0.7
			c0-0.2,0-0.5,0-0.7c0-0.1,0-0.1-0.1-0.2c-0.9-0.5-1.3-1.2-1.3-2.1c0-1.3,1.1-2.3,2.4-2.3c1.4,0,2.5,1.1,2.4,2.4
			c0,0.9-0.5,1.6-1.3,2c0,0-0.1,0.1-0.1,0.1c0,0.5,0,1,0,1.5c1.6,0,3.2,0,4.8,0c0,0.1-0.1,0.1-0.1,0.1c-0.3,0.5-0.7,1-1,1.5
			c0,0.1-0.1,0.1-0.2,0.1c-1.1,0-2.2,0-3.2,0c0,0-0.1,0-0.1,0c0,0.1,0,0.3,0,0.4c0,2.1,0.1,4.2,0.1,6.3c0,0.6,0,1.2,0,1.8
			c0,0.4,0.1,0.9,0.3,1.3c0.3,0.8,1,1.2,1.9,1.2c1-0.1,1.8-0.5,2.4-1.3c0.2-0.2,0.3-0.5,0.5-0.7c0,0,0.1-0.1,0.1-0.2
			c-0.5-0.1-0.9-0.2-1.4-0.2c1.3-1,1.9-2.3,2.4-3.7c1.1,1,1.8,3.7,1.3,4.9c-0.3-0.2-0.7-0.3-1-0.5c-0.1,0.6-0.2,1.1-0.5,1.6
			c-0.5,1.1-1.3,1.8-2.3,2.4c-0.7,0.4-1.4,0.7-2.2,0.9c-0.4,0.1-0.7,0.3-1,0.5c-0.8,0.5-1.4,1.2-1.8,2c0,0,0,0,0,0c0,0,0,0,0-0.1
			c-0.5-1.1-1.4-2-2.6-2.4c-0.2-0.1-0.3-0.1-0.5-0.2c-1.3-0.5-2.6-1.2-3.5-2.3c-0.7-0.8-1.2-1.6-1.5-2.6c0,0,0,0,0,0
			c-0.4,0.3-0.8,0.5-1.1,0.8C355.5,23.2,355.5,23.1,355.5,23z M366,8c0-0.7-0.6-1.3-1.3-1.3c-0.7,0-1.3,0.6-1.3,1.2
			c0,0.7,0.6,1.3,1.3,1.3C365.4,9.2,366,8.7,366,8z"/>
	</g>
	<g>
		<g id="vEoZTv.tif_4_">
			<path class="st0" d="M109.2,106.9c0,0,0,0.1-0.1,0.1c0,0,0,0-0.1,0.1c0-0.1,0-0.2,0-0.2c0-0.4,0.4-3.7-2.2-5.6
				c-0.1-0.1-0.2-0.1-0.3-0.2c0.4,3-0.1,5.8-1.5,8.4c0,0,0,0-0.1,0c0-0.1,0-0.1,0-0.2c-0.1-1.7-0.3-3.3-0.8-4.9
				c-0.3-0.9-0.6-1.8-1.2-2.6c-0.7-1-1.6-1.1-1.6-1.1s-0.2,0.1-0.3,0.3c-0.4,0.6-0.5,1.3-0.7,1.9c-0.5,1.6-0.7,3.2-0.9,4.9
				c-0.2,2.1-0.2,3.5-0.1,5.6c0,0.4,0.1,1.1,0.1,1.1h-4.1c0,0,0.3-5,1-7.5c0.8-2.8,2.1-5.3,2.3-5.6c0-0.1,1.3-2.6,1.3-2.6l-1.4-0.5
				c0,0-2.9-1.1-6.7,1.6c0-0.3,0.8-3.4,3.1-5.2c1.8-1.4,3.3-1.1,3.6-1.1c-0.1-1.1-0.9-1.9-1.7-2.6c0.1,0,3.2-0.1,4.5,0.7
				c0.4,0.3,0.4,0.3,0.8-0.1c1.2-1.2,2.6-1.4,2.7-1.4c0,0,0.1,0,0.1,0c0,0.1-0.6,1.4-0.5,2.2c0,0.1,0,0.2,0.2,0.2
				c0.2,0,0.4,0.1,0.6,0.1c0.9,0.1,3.3,0.8,5.1,3.4c0.1,0.1,0.2,0.3,0.2,0.3c-0.9-0.2-1.7-0.2-2.6-0.1c0.3,0.4,2.2,2.1,2.6,4.4
				C110.3,101,110.7,103.6,109.2,106.9z"/>
		</g>
		<ellipse class="st0" cx="98.8" cy="99.2" rx="1.2" ry="1.2"/>
		<ellipse class="st0" cx="101.3" cy="100.9" rx="1.1" ry="1"/>
	</g>
	<g id="mvIV5B.tif_3_">
		<path class="st0" d="M319.5,235.6c0-0.9,0-1.8,0-2.7c0-1.1,0.4-1.4,1.4-1.4c1.1,0,1.5,0.4,1.5,1.5c0,0.9,0,1.7,0,2.6
			c0,0,0.1,0.1,0.2,0.2c0-0.4,0.1-0.6,0.1-0.9c0-0.6,0-1.2,0-1.9c0-1.2,1.2-1.9,2.3-1.3c0.3,0.2,0.5,0.7,0.6,1.1
			c0.1,0.9,0,1.8,0,2.7c0,0,0,0.1,0.2,0.4c0.1-0.5,0.1-0.7,0.1-0.9c0-1.9,0-3.8,0-5.7c0-0.5,0.4-1.1,0.8-1.3c0.3-0.2,1-0.1,1.4,0.1
			c0.3,0.2,0.6,0.7,0.6,1.1c0,5,0.1,9.9,0,14.9c0,2.3-2,4.3-4.4,4.4c-1.7,0.1-3.5,0.2-5.3,0c-2.9-0.3-4.5-2.3-5.4-4.8
			c-0.3-0.9-0.5-2-0.5-3c-0.1-1.9,0-3.7,0-5.6c1.6-0.1,2.8,1,2.9,2.6c0,0.8,0,1.7,0,2.5c0.1,0,0.2,0,0.2,0c0-0.3,0.1-0.5,0.1-0.8
			c0-4,0-8.1,0-12.1c0-0.9,0.4-1.5,1.2-1.6c1-0.2,1.7,0.5,1.7,1.6c0,2.5,0,5,0,7.5c0,0.3,0,0.6,0,0.9
			C319.3,235.6,319.4,235.6,319.5,235.6z"/>
	</g>
	<g id="JeGfOL.tif_3_">
		<path class="st0" d="M199.8,274c-2.2,2.1-4.3,4.2-6.5,6.4c-2.2-2.1-4.3-4.2-6.4-6.2c-1,1-2,1.9-3,2.9c2.1,2.1,4.2,4.1,6.5,6.3
			c-2.1,2.1-4.3,4.2-6.3,6.2c1,0.9,1.9,1.9,3,2.9c2.1-2,4.2-4.1,6.5-6.3c2.1,2.1,4.3,4.2,6.3,6.2c0.9-0.9,1.9-1.8,2.9-2.8
			c-2.1-2.1-4.3-4.2-6.5-6.3c2.2-2.1,4.3-4.2,6.5-6.3C201.7,275.9,200.8,275,199.8,274z"/>
	</g>
	<g id="JeGfOL.tif_2_">
		<path class="st0" d="M369.6,175.9c-2.2,2.1-4.3,4.2-6.5,6.4c-2.2-2.1-4.3-4.2-6.4-6.2c-1,1-2,1.9-3,2.9c2.1,2.1,4.2,4.1,6.5,6.3
			c-2.1,2.1-4.3,4.2-6.3,6.2c1,0.9,1.9,1.9,3,2.9c2.1-2,4.2-4.1,6.5-6.3c2.1,2.1,4.3,4.2,6.3,6.2c0.9-0.9,1.9-1.8,2.9-2.8
			c-2.1-2.1-4.3-4.2-6.5-6.3c2.2-2.1,4.3-4.2,6.5-6.3C371.6,177.8,370.7,176.9,369.6,175.9z"/>
	</g>
	<path class="st0" d="M241.8,332.4c-0.2-0.2-0.7-0.6-1-0.6c-0.4,0-0.8,0.4-1,0.6c-1,1.1-2.3,5.6-2.5,6.3c-0.1,0.3-0.3,0.5-0.5,0.7
		c-0.2-0.2-0.6-0.3-0.7-0.5c-1.2-2.2-1.9-4.6-1.2-7.1c0.4-1.4,0.3-2.7-0.1-4.1c-0.5-1.8-0.9-3.7-1.2-5.6c-0.4-2.7,1-4.4,3.5-4.7
		c0.8-0.1,1.6,0.3,2.4,0.3c1.3,0,2.5,0,3.8-0.2c2.8-0.4,5,1.3,4.8,4.1c-0.1,1.7-0.5,3.4-1,5.1c-0.5,1.9-0.7,3.8-0.2,5.8
		c0.6,2.3-0.2,4.5-1.4,6.5c-0.1,0.2-0.5,0.3-0.7,0.5c-0.1-0.2-0.4-0.4-0.4-0.6C244.2,338.1,242.8,333.2,241.8,332.4z"/>
	<path class="st0" d="M313.8,340.5c0.3-0.2,0.2-0.5,0.3-0.8c0.1-0.6,0.1-1.1,0.2-1.7c0.1-0.5,0.2-1.1,0.3-1.6c0.3-3,1.4-5.6,3.4-7.9
		c1.1-1.3,2.4-2.5,4-3.2c1.4-0.7,2.9-1.2,4.3-2c0.6-0.3,1.3-0.3,2-0.1c0.3,0.1,0.7,0.3,1,0.4c0.2,0.1,0.5,0.1,0.8,0.1
		c0.3,0,0.6-0.1,0.9,0c0.5,0.2,0.9,0,1.3-0.2c0.2-0.1-0.3-0.8-0.5-1.3c-0.1-0.3-0.3-0.4-0.5-0.4c-0.5,0-0.9,0-1.4-0.1
		c-0.1,0-0.1,0.1-0.2,0.1c-0.3,0.1-0.6,0.2-0.8,0.1c-0.7-0.2-1.3-0.4-1.9-0.7c-0.5-0.3-1-0.7-1.5-1c-1.5-0.8-3-0.8-4.6-0.3
		c-3.1,1.1-5.7,3-7.9,5.7c-0.3,0.5-0.8,1.2-1.2,1.9c-1,1.6-1.6,3.3-1.9,5.1c-0.5,3,0.3,5.6,2.2,8C312.5,341.1,313.1,341,313.8,340.5
		z"/>
	<path class="st0" d="M13.6,366.3c0.3,0,0.6-0.1,0.8-0.4c0,0,0.1,0,0.1,0c1.4,2,5.6,3.6,8.5,3.7c0.5,0,0.9,0.1,1.2-0.4
		c0.4-0.7,1.6-10.3,0.3-11.6c-0.9-0.9-9.4,2-10.1,3.5c-0.2-0.1-0.3-0.3-0.4-0.3c-0.3,0-0.6,0.1-0.9,0c-0.4-0.2-0.8-0.3-1.2-0.1
		c-0.3,0.2-0.6,0-0.8,0.1c-0.2,0.1-0.3,0.2-0.4,0.3c-0.7-1.6-9.2-4.4-10.1-3.5c-1.3,1.3-0.1,10.9,0.3,11.6c0.3,0.5,0.7,0.5,1.2,0.4
		c2.8-0.1,7.1-1.7,8.5-3.7c0,0,0.1,0,0.1,0c0.2,0.2,0.5,0.3,0.8,0.4l0.6-0.1l0.7,0.2c0.2,0.1,0.4,0,0.5,0L13.6,366.3z"/>
	<path class="st0" d="M19.1,293C19.1,293,19.1,293,19.1,293c-0.2,0.8-0.3,0.9-1.1,0.9c-2,0-3.9,0-5.9,0c-0.3,0-0.5-0.1-0.8-0.1
		c-0.2,0-0.3,0.1-0.4,0.3c-0.1,0.8,0.1,1.5,0.9,1.9c0.4,0.2,1.1,0.4,1.5,0.4c0.7,0.1,1.2,0.3,1.9,0.1c0.4-0.1,0.5-0.4,0.4-0.7
		c-0.1-0.2-0.2-0.4-0.3-0.7c0-0.2,0-0.4,0.1-0.5c0.1-0.1,0.4-0.1,0.6,0c0.6,0.3,0.9,0.9,0.9,1.6c0,0.6-0.3,1-1,1.3
		c-0.6,0.2-1.8,0.4-3,0.1c-1.3-0.3-1.9-0.6-2.4-0.9c-0.6-0.3-0.9-1.1-1-1.7c-0.1-0.9,0-1.7,0.4-2.5c0.3-0.6,0.2-1.2,0.2-1.8
		c-0.1-0.8-0.3-1.9-0.3-2.6c0-1.1,0-1.8,0.2-2.8c0.1-0.6,0.5-1.2,0.7-1.8c0.4-0.9,1-1.8,1.7-2.5c0.5-0.5,1-0.8,1.7-0.9
		c1-0.3,1.7-0.9,2.4-1.7c0.2-0.3,0.3-0.6,0.3-0.9c0-1.1,0.4-2,1.1-2.8c0.1-0.2,0.3-0.4,0.5-0.4c0.7-0.2,0.9-0.8,1.2-1.3
		c0.1-0.2,0.3-0.5,0.5-0.7c0.1-0.2,0.5-0.6,0.6-0.3c0.1,0.2,0.2,0.5,0.3,0.7c0.1,0.4,0.1,0.7,0.1,1.1c0,0.4,0.1,0.6,0.5,0.6
		c0.5,0.1,0.9,0.3,1.2,0.8c0.2,0.2,0.4,0.5,0.7,0.6c0.6,0.2,0.5,0.5,0.4,0.9c-0.2,0.6-0.6,1.1-1.1,1.3c-0.5,0.3-0.7,0.6-0.6,1.2
		c0.2,0.9,0.2,1.9,0.2,2.8c0,0.9-0.3,1.7-0.8,2.5c-0.7,0.9-1.1,1.9-1,3c0,1.3,0,2.5,0,3.8c0,0.5,0.1,1,0.6,1.1
		c0.2,0,0.9,0.3,0.9,0.4c0.1,0.1,0.2,0.8-0.1,0.9c-0.1,0-0.4,0.1-0.7,0.1c-0.7,0.1-1.4,0.2-2-0.4C19.3,293.2,19.2,293.1,19.1,293z
		 M18.8,292.6c-0.2-0.5-0.3-1-0.4-1.6c-0.1,0.4-0.6,1-0.9,1.4C18,292.3,18.4,292.4,18.8,292.6z"/>
	<path class="st0" d="M289,276.5C289,276.5,289,276.5,289,276.5c-0.4-0.4-0.8-0.5-1.4-0.5c-1.7,0.1-2.7,0.8-2.7,0.8s0.7-1.6,3.1-1.5
		c-0.4-0.7-2.4-0.4-3.5-0.1c-0.1,0,1.6-3.4,2-3.8c0,0,0,0,0,0c-1.7,0.5-3.1,2.1-3.1,2.1c-0.1-1.3-0.5-3.5-1-4l0,0
		c-0.4,0.5-0.8,2.7-1,4c0,0-1.4-1.5-3.1-2.1c0,0,0,0,0,0c0.4,0.4,2.1,3.9,2,3.8c-1.1-0.3-3.1-0.6-3.5,0.1c2.4-0.1,3.1,1.5,3.1,1.5
		s-1-0.7-2.7-0.8c-0.5,0-0.9,0.1-1.4,0.4c0,0,0,0,0,0c0.8-0.1,3.5,1.6,3.7,2.9c0,0-0.9-0.3-1.1-0.3c-0.7-0.1-1.3,0-1.9,0.2
		c-0.2,0.1-0.5,0.3-0.6,0.4c1.4-0.6,3.3,0.2,3.9,1.2c0.2,0.3,0.4,0.6,0.3,0.8c-0.3-0.1-0.5-0.1-0.8-0.2c-1.2-0.2-2.3,0.3-2.8,1.2
		c0,0,0,0.1-0.1,0.1c1-0.9,2.3-1.1,3.4-0.3c-0.4,0-0.8-0.1-1.1,0.1c-0.4,0.1-0.7,0.3-1,0.6c0.8-0.3,1.6-0.2,2.4,0.2
		c-0.3,0.1-0.4,0.4-0.7,0.5c-0.5,0.2-1,0.4-1.2,1c-0.1,0.3-0.4,0.7-0.7,1c-0.2,0.2-0.4,0.4-0.5,0.7c-0.1,0.3-0.1,0.5-0.3,0.8
		c-0.1,0.3-0.2,0.6-0.3,1c-0.1,0.2-0.1,0.4-0.2,0.5c0,0.2,0,0.4-0.1,0.7c-0.2,0.9-0.1,2.1-0.1,3c0,1.1,0.4,2.4,1,3.3
		c0.7,1,1.7,1.6,3,1.7c0.6,0.1,1.3,0.1,2,0.2v0c0.7,0,1.4-0.1,2-0.2c1.3-0.1,2.3-0.7,3-1.7c0.6-0.9,1-2.2,1-3.3c0-0.9,0.1-2.1-0.1-3
		c0-0.2,0-0.4-0.1-0.7c0-0.2-0.1-0.4-0.2-0.5c-0.1-0.3-0.1-0.7-0.3-1c-0.1-0.3-0.2-0.5-0.3-0.8c-0.1-0.3-0.3-0.5-0.5-0.7
		c-0.2-0.3-0.5-0.6-0.7-1c-0.2-0.6-0.7-0.8-1.2-1c-0.2-0.1-0.4-0.4-0.7-0.5c0.8-0.4,1.6-0.5,2.4-0.2c-0.3-0.3-0.6-0.4-1-0.6
		c-0.4-0.1-0.7-0.1-1.1-0.1c1.1-0.8,2.4-0.6,3.4,0.3c0-0.1-0.1-0.1-0.1-0.1c-0.6-0.9-1.7-1.4-2.8-1.2c-0.3,0-0.5,0.1-0.8,0.2
		c-0.1-0.2,0.1-0.5,0.3-0.8c0.7-1,2.6-1.7,3.9-1.2c-0.1-0.2-0.4-0.4-0.6-0.4c-0.7-0.2-1.2-0.3-1.9-0.2c-0.2,0-1.1,0.3-1.1,0.3
		C285.5,278.1,288.2,276.3,289,276.5z"/>
	<path class="st0" d="M106.2,279.5c-1.7,0.5-2.6,0.6-3.4,0.7c-0.1,0-0.3,0-0.5,0c-0.2,0-0.3,0-0.5,0c-0.8,0-1.7-0.2-3.4-0.7
		c-2.6-0.7-7.1-0.8-9.7-0.1c0,0.5,0.1,1.1,0.2,1.6c0,0.1,0.2,0.1,0.3,0.1c0.4,0.2,0.5,0.6,0.6,1c0.3,1,0.6,2,0.9,3
		c0.3,1.1,1,1.7,2.1,2c1.2,0.3,2.3,0.4,3.6,0.3c1.7-0.2,3-0.9,3.8-2.4c0.5-0.9,0.9-1.9,1.3-2.8c0.1-0.2,0.2-0.4,0.4-0.5
		c0.1-0.1,0.3-0.1,0.4-0.1c0.1,0,0.3,0,0.4,0.1c0.2,0.1,0.3,0.3,0.4,0.5c0.4,0.9,0.8,1.9,1.3,2.8c0.8,1.5,2.1,2.2,3.8,2.4
		c1.2,0.1,2.4,0,3.6-0.3c1.1-0.3,1.8-1,2.1-2c0.3-1,0.6-2,0.9-3c0.1-0.4,0.1-0.8,0.6-1c0.1,0,0.3,0,0.3-0.1c0.1-0.5,0.2-1.1,0.2-1.6
		C113.3,278.6,108.7,278.8,106.2,279.5z"/>
	<g>
		<path class="st0" d="M139,330.4c-0.4,1.5-0.5,3.1-0.3,4.6c0.1,0.5,0.2,0.9,0.4,1.4c0.2,0.6,0.5,1.1,0.8,1.7c0.7,1,1.6,1.6,2.7,2
			c0.9,0.4,1.9,0.4,2.9,0.5c0.2,0,0.5,0,0.8,0c0.5-0.1,1.1-0.1,1.6-0.2c1.2-0.3,2.4-0.7,3.3-1.6c1.1-1,1.5-2.3,1.6-3.7
			c0.1-1.1,0-2.2-0.1-3.2c-0.2-1.2-0.6-2.3-1-3.4c-0.1-0.3-0.2-0.6-0.3-0.9c0,0,0-0.1,0.1-0.2c0.1,0,0.2-0.1,0.3-0.1
			c0.2,0,0.3,0,0.5,0c0.4,0,0.4,0,0.4-0.4c0-0.3,0-0.7,0-1c0-0.3-0.1-0.3-0.4-0.3c-1,0-2.1,0-3.1,0c-0.4,0-0.5,0.1-0.6,0.5
			c0,0.3,0.1,0.6,0.2,0.9c0.3,0.5,0.5,1.1,0.8,1.6c0.2,0.4,0.3,0.9,0.4,1.3c0.2,0.9,0.4,1.8,0.6,2.8c0.2,1.1,0.1,2.2-0.2,3.2
			c-0.4,1.3-1.3,2.1-2.6,2.4c-0.7,0.2-1.4,0.3-2.2,0.2c-1.3-0.1-2.4-0.6-3.2-1.7c-0.4-0.5-0.7-0.9-0.9-1.5c-0.1-0.5-0.2-0.9-0.3-1.4
			c-0.3-1.7,0.1-3.3,0.7-4.9c0.3-0.8,0.6-1.5,1.1-2.2c0.2-0.3,0.3-0.6,0.2-1c0-0.3-0.1-0.4-0.4-0.4c-0.6,0-1.2,0-1.7,0
			c-0.6,0-1.1,0-1.7,0c-0.2,0-0.3,0.1-0.3,0.3c0,0.4,0,0.8,0,1.2c0,0.2,0.1,0.3,0.3,0.3c0.2,0,0.4,0,0.7,0c0.3,0,0.3,0.1,0.2,0.3
			c-0.2,0.6-0.5,1.1-0.7,1.7C139.2,329.6,139.1,330,139,330.4z M139.3,335.1c0.1-0.2,0.1-0.4,0.2-0.6c0.1-0.1,0.2-0.2,0.3-0.1
			c0.2,0.2,0.4,0.8,0.3,1.1c-0.1,0.2-0.4,0.3-0.5,0.1C139.5,335.6,139.4,335.3,139.3,335.1z M139.4,332.4c0-0.2,0-0.4,0.1-0.6
			c0-0.1,0.1-0.2,0.2-0.2c0.1,0,0.3,0.1,0.3,0.2c0.2,0.3,0,0.8-0.3,1c0,0-0.2,0-0.2,0C139.5,332.6,139.4,332.5,139.4,332.4z
			 M139.7,330.2c-0.1-0.4,0.2-0.8,0.6-1c0,0.1,0.1,0.1,0.1,0.1c0.1,0.3,0,0.8-0.3,1c-0.1,0-0.2,0.1-0.2,0.1
			C139.8,330.4,139.8,330.2,139.7,330.2z M140.2,336.8c0-0.1,0.1-0.2,0.1-0.2c0.1,0,0.3,0,0.4,0.1c0.2,0.2,0.3,0.4,0.4,0.6
			c0.1,0.1,0,0.3-0.1,0.3c-0.1,0-0.2,0-0.3,0C140.4,337.4,140.3,337.1,140.2,336.8z M141.7,338.5c-0.1-0.1,0-0.2,0.1-0.3
			c0.2-0.1,0.9,0.1,1,0.4c0,0,0,0.1,0,0.1c0,0.3-0.1,0.4-0.4,0.3C142,338.9,141.8,338.7,141.7,338.5z M144,339.6
			c-0.3-0.1-0.4-0.2-0.4-0.4c0.1-0.2,0.3-0.2,0.5-0.2c0.1,0,0.3,0.1,0.5,0.1c0.1,0,0.3,0.1,0.2,0.3c0,0.2-0.1,0.2-0.3,0.2
			C144.4,339.7,144.2,339.7,144,339.6z M146.2,339.7c-0.2,0-0.3-0.2-0.2-0.4c0-0.1,0.2-0.2,0.2-0.2c0.2,0,0.5,0,0.7,0
			c0.1,0,0.3,0,0.3,0.2c0,0.2-0.1,0.3-0.3,0.4c-0.1,0-0.2,0-0.4,0C146.4,339.8,146.3,339.8,146.2,339.7z M148.4,339
			c0-0.1,0-0.2,0.1-0.3c0.2-0.1,0.4-0.2,0.5-0.3c0.2-0.1,0.4,0,0.5,0.2c-0.2,0.3-0.5,0.5-0.9,0.5C148.6,339.2,148.5,339.1,148.4,339
			z M150.3,337.5c0-0.1,0-0.2,0.1-0.2c0.2-0.2,0.3-0.4,0.5-0.5c0.1-0.1,0.3-0.1,0.3,0c0.1,0.1,0.1,0.3,0,0.4
			c-0.1,0.2-0.3,0.4-0.5,0.5c-0.1,0.1-0.2,0.1-0.3,0.1C150.4,337.7,150.4,337.6,150.3,337.5z M150.6,329.8c0-0.3-0.1-0.5,0.2-0.7
			c0.3,0.2,0.5,0.6,0.5,1c0,0.2-0.1,0.3-0.3,0.3C150.8,330.3,150.7,330.1,150.6,329.8z M151.4,332.8c-0.2-0.2-0.4-0.7-0.2-1
			c0.1-0.1,0.2-0.2,0.3-0.2c0,0,0.2,0.1,0.2,0.2c0.1,0.1,0.1,0.3,0.1,0.4c0,0.2-0.1,0.3-0.2,0.5
			C151.6,332.9,151.5,332.9,151.4,332.8z M151.3,335.2c-0.2-0.3-0.1-0.9,0.2-1.1c0.1-0.1,0.2-0.1,0.3,0c0.1,0,0.2,0.1,0.2,0.2
			c0,0.1,0,0.2,0,0.2c0,0.3,0,0.6-0.2,0.8C151.6,335.5,151.4,335.5,151.3,335.2z"/>
		<path class="st0" d="M139.5,334.6c-0.1,0.2-0.1,0.3-0.2,0.6c0.1,0.2,0.2,0.4,0.3,0.7c0.1,0.1,0.4,0,0.5-0.1c0.1-0.3,0-0.9-0.3-1.1
			C139.7,334.4,139.5,334.4,139.5,334.6z"/>
		<path class="st0" d="M139.5,331.8c-0.1,0.2-0.1,0.3-0.1,0.6c0,0.1,0.1,0.3,0.2,0.4c0,0,0.1,0,0.2,0c0.3-0.2,0.4-0.7,0.3-1
			c-0.1-0.1-0.2-0.2-0.3-0.2C139.6,331.6,139.5,331.7,139.5,331.8z"/>
		<path class="st0" d="M140.3,329.2c-0.4,0.2-0.6,0.6-0.6,1c0,0.1,0.1,0.2,0.2,0.2c0.1,0,0.2,0,0.2-0.1c0.3-0.2,0.4-0.7,0.3-1
			C140.4,329.2,140.4,329.2,140.3,329.2z"/>
		<path class="st0" d="M140.3,336.6c-0.1,0-0.1,0.1-0.1,0.2c0.1,0.3,0.3,0.6,0.5,0.8c0.1,0,0.2,0,0.3,0c0.1-0.1,0.2-0.2,0.1-0.3
			c-0.1-0.2-0.2-0.4-0.4-0.6C140.6,336.6,140.4,336.6,140.3,336.6z"/>
		<path class="st0" d="M141.7,338.2c-0.1,0.1-0.2,0.1-0.1,0.3c0.2,0.2,0.4,0.4,0.7,0.5c0.3,0.1,0.4,0,0.4-0.3c0,0,0,0,0-0.1
			C142.6,338.3,142,338.1,141.7,338.2z"/>
		<path class="st0" d="M143.7,339.2c0,0.2,0.1,0.3,0.4,0.4c0.2,0,0.4,0,0.6,0c0.1,0,0.3-0.1,0.3-0.2c0-0.2-0.1-0.2-0.2-0.3
			c-0.2-0.1-0.4-0.1-0.5-0.1C143.9,339,143.7,339,143.7,339.2z"/>
		<path class="st0" d="M145.2,326.7c0,1-0.1,2,0.1,3c0.2,0.9,0.6,1.8,1.1,2.6c0.6,0.8,1.3,1.5,2.3,1.9c0.3,0.1,0.5,0.2,0.8,0.3
			c0.3,0.1,0.5-0.1,0.5-0.3c0-0.6-0.1-1.2-0.2-1.8c0-0.2-0.1-0.4-0.3-0.5c-0.6-0.5-1.2-1.1-1.5-1.9c-0.3-0.6-0.4-1.3-0.5-2
			c-0.1-1.5,0.1-2.9,0.7-4.3c0.3-0.7,0.6-1.4,1-2.1c0.1-0.2,0.2-0.3,0.3-0.5c0.2-0.3,0.2-0.6,0.2-0.9c0-0.2-0.2-0.2-0.3-0.2
			c-0.3,0-0.6,0-0.8,0c-0.3,0-0.6,0-1,0v0c-0.6,0-1.1,0-1.7,0c-0.3,0-0.4,0.1-0.4,0.4c0,0.4,0,0.7,0,1.1c0,0.3,0.1,0.3,0.4,0.4
			c0.2,0,0.5,0,0.7,0c0.2,0,0.2,0.1,0.2,0.3c-0.2,0.5-0.4,0.9-0.6,1.4c-0.1,0.4-0.3,0.8-0.4,1.1C145.5,325.2,145.3,326,145.2,326.7z
			 M146,326.7c0-0.3,0.1-0.5,0.2-0.7c0.1-0.2,0.2-0.1,0.3,0c0.2,0.3,0.1,0.9-0.2,1.2C146.2,327.1,146,327,146,326.7z M146.4,330.2
			c-0.5-0.3-0.4-0.7-0.4-1.1c0-0.2,0.2-0.2,0.3-0.3c0.2,0,0.2,0.1,0.3,0.2c0,0.1,0.1,0.2,0.1,0.3
			C146.8,329.7,146.8,329.9,146.4,330.2z M146.3,324.5c0.1-0.3,0.2-0.6,0.3-0.8c0.1-0.1,0.2-0.1,0.4-0.1c0,0,0.1,0.2,0.1,0.3
			c0,0.3-0.1,0.5-0.3,0.8c-0.1,0.1-0.2,0.2-0.3,0.1C146.5,324.7,146.4,324.6,146.3,324.5z M147.6,332c-0.3,0-0.8-0.6-0.7-0.9
			c0,0,0-0.1,0.1-0.1c0.1,0,0.1-0.1,0.2,0c0.3,0.1,0.6,0.4,0.7,0.8C147.8,331.8,147.8,332,147.6,332z M148.2,332.7
			c0.1-0.1,0.2-0.1,0.3-0.2c0.3-0.1,0.8,0.2,0.9,0.5c0,0.1,0,0.2-0.1,0.3c0,0-0.1,0-0.2,0C148.7,333.3,148.4,333,148.2,332.7z"/>
		<path class="st0" d="M146.2,326c-0.2,0.2-0.3,0.5-0.2,0.7c0,0.2,0.2,0.3,0.4,0.5c0.3-0.2,0.4-0.9,0.2-1.2
			C146.5,325.9,146.3,325.9,146.2,326z"/>
		<path class="st0" d="M146,339.3c-0.1,0.2,0,0.4,0.2,0.4c0.1,0,0.2,0,0.3,0c0.2,0,0.3,0,0.4,0c0.2,0,0.3-0.2,0.3-0.4
			c0-0.2-0.2-0.2-0.3-0.2c-0.2,0-0.5,0-0.7,0C146.1,339.2,146,339.3,146,339.3z"/>
		<path class="st0" d="M146,329c-0.1,0.5-0.1,0.8,0.4,1.1c0.4-0.3,0.4-0.5,0.3-0.9c0-0.1-0.1-0.2-0.1-0.3c0-0.1-0.1-0.3-0.3-0.2
			C146.2,328.8,146,328.9,146,329z"/>
		<path class="st0" d="M146.6,323.7c-0.1,0.2-0.2,0.5-0.3,0.8c0.1,0.1,0.2,0.2,0.3,0.3c0.1,0.1,0.2,0,0.3-0.1
			c0.2-0.2,0.3-0.5,0.3-0.8c0-0.1-0.1-0.3-0.1-0.3C146.9,323.5,146.7,323.6,146.6,323.7z"/>
		<path class="st0" d="M146.9,331.1c-0.1,0.3,0.3,0.9,0.7,0.9c0.2,0,0.3-0.1,0.2-0.3c-0.1-0.4-0.3-0.6-0.7-0.8c0,0-0.1,0-0.2,0
			C146.9,331,146.9,331,146.9,331.1z"/>
		<path class="st0" d="M148.5,332.5c-0.1,0-0.2,0.1-0.3,0.2c0.3,0.4,0.5,0.6,0.9,0.7c0.1,0,0.2,0,0.2,0c0.1-0.1,0.1-0.2,0.1-0.3
			C149.3,332.7,148.7,332.4,148.5,332.5z"/>
		<path class="st0" d="M148.5,338.7c-0.1,0.1-0.1,0.2-0.1,0.3c0,0.1,0.2,0.2,0.3,0.2c0.4,0,0.7-0.2,0.9-0.5
			c-0.1-0.2-0.3-0.3-0.5-0.2C148.9,338.5,148.7,338.6,148.5,338.7z"/>
		<path class="st0" d="M150.4,337.3c0,0,0,0.1-0.1,0.2c0.1,0.1,0.1,0.2,0.2,0.3c0.1,0,0.2,0,0.3-0.1c0.2-0.2,0.3-0.3,0.5-0.5
			c0.1-0.1,0-0.3,0-0.4c0,0-0.3,0-0.3,0C150.7,336.9,150.6,337.1,150.4,337.3z"/>
		<path class="st0" d="M150.9,329.2c-0.3,0.2-0.3,0.4-0.2,0.7c0,0.3,0.2,0.5,0.4,0.5c0.2,0.1,0.3-0.1,0.3-0.3
			C151.4,329.7,151.2,329.4,150.9,329.2z"/>
		<path class="st0" d="M151.2,331.8c-0.1,0.2,0,0.8,0.2,1c0.1,0.1,0.2,0.1,0.3,0c0.1-0.2,0.1-0.3,0.2-0.5c0-0.2-0.1-0.3-0.1-0.4
			c0-0.1-0.2-0.2-0.2-0.2C151.4,331.6,151.2,331.7,151.2,331.8z"/>
		<path class="st0" d="M151.5,334.1c-0.2,0.2-0.3,0.9-0.2,1.1c0.1,0.2,0.3,0.2,0.5,0c0.2-0.2,0.2-0.5,0.2-0.8c0,0,0-0.1,0-0.2
			c0-0.1-0.1-0.2-0.2-0.2C151.7,334.1,151.5,334.1,151.5,334.1z"/>
		<path class="st0" d="M153.2,332.8c-0.2,0.2-0.2,1.9,0.1,2c0.1,0,0.1,0,0.2,0c0.4-0.1,0.7-0.1,1.1-0.2c0.7-0.2,1.3-0.4,2-0.7
			c0.9-0.5,1.6-1.2,2-2c0.3-0.5,0.4-1,0.5-1.5c0.4-1.6,0.2-3.2-0.1-4.8c-0.2-1.1-0.6-2.2-1.1-3.3c0-0.1-0.1-0.2-0.1-0.3
			c-0.1-0.2,0-0.3,0.2-0.3c0.2,0,0.5,0,0.7,0c0.2,0,0.3-0.1,0.3-0.2c0-0.5,0-0.9,0-1.4c0-0.1-0.1-0.2-0.3-0.2c-0.6,0-1.1,0-1.7,0
			c-0.6,0-1.1,0-1.7,0c-0.3,0-0.4,0.1-0.4,0.4c-0.1,0.5,0.2,0.9,0.4,1.3c0.2,0.4,0.4,0.7,0.5,1.1c0.1,0.3,0.3,0.7,0.4,1.1
			c0.5,1.5,0.8,3.1,0.8,4.7c0,0.8-0.2,1.5-0.5,2.2c-0.2,0.4-0.5,0.8-0.8,1c-0.7,0.6-1.4,0.9-2.3,1
			C153.4,332.6,153.2,332.7,153.2,332.8z M155,333.3c0.1-0.4,0.5-0.5,0.9-0.6c0.1,0,0.2,0.1,0.3,0.2c0,0.1,0,0.2,0,0.3
			c-0.2,0.2-0.4,0.3-0.7,0.3C155.2,333.5,155.1,333.5,155,333.3z M157.1,332c-0.1-0.1-0.2-0.2-0.1-0.3c0-0.1,0.1-0.3,0.2-0.4
			c0.1-0.1,0.3-0.2,0.4-0.3c0.3,0,0.4,0.1,0.3,0.4c-0.1,0.3-0.3,0.5-0.6,0.7C157.3,332.1,157.2,332.1,157.1,332z M157.2,323.9
			c0.1-0.1,0.1-0.2,0.2-0.3c0.1,0,0.2,0,0.3,0c0.2,0.2,0.4,0.5,0.4,0.9c0,0.1-0.1,0.2-0.2,0.3c-0.1,0.1-0.3,0-0.4-0.1
			C157.4,324.4,157.3,324.1,157.2,323.9z M157.7,326.5C157.7,326.5,157.7,326.5,157.7,326.5c0.1-0.1,0.1-0.3,0.1-0.4
			c0-0.1,0.1-0.2,0.2-0.2c0.1,0,0.3,0,0.3,0.1c0.1,0.3,0.2,0.6,0.1,0.9c-0.1,0.2-0.3,0.3-0.4,0.1
			C157.9,326.9,157.8,326.7,157.7,326.5z M157.9,329.5c-0.1-0.4,0-0.8,0.4-1.2c0.1,0.1,0.3,0.2,0.3,0.3c0.1,0.3,0.1,0.7-0.2,1
			c-0.1,0.1-0.2,0.2-0.2,0.1C158.1,329.7,157.9,329.6,157.9,329.5z"/>
		<path class="st0" d="M155.9,332.7c-0.4,0.1-0.7,0.2-0.9,0.6c0.1,0.1,0.2,0.2,0.4,0.2c0.3,0,0.5-0.1,0.7-0.3c0.1-0.1,0.1-0.2,0-0.3
			C156.1,332.8,156,332.7,155.9,332.7z"/>
		<path class="st0" d="M157,331.7c0,0.1,0.1,0.2,0.1,0.3c0,0,0.2,0.1,0.2,0c0.3-0.1,0.5-0.4,0.6-0.7c0.1-0.2,0-0.4-0.3-0.4
			c-0.1,0.1-0.3,0.2-0.4,0.3C157.1,331.4,157,331.6,157,331.7z"/>
		<path class="st0" d="M157.4,323.6c-0.1,0.1-0.1,0.2-0.2,0.3c0.1,0.3,0.2,0.5,0.3,0.8c0.1,0.2,0.2,0.2,0.4,0.1
			c0.1,0,0.2-0.2,0.2-0.3c0-0.3-0.2-0.6-0.4-0.9C157.6,323.5,157.5,323.5,157.4,323.6z"/>
		<path class="st0" d="M157.7,326.5C157.7,326.5,157.7,326.5,157.7,326.5c0,0.2,0.1,0.4,0.2,0.6c0.1,0.2,0.3,0.1,0.4-0.1
			c0.1-0.3,0.1-0.6-0.1-0.9c-0.1-0.2-0.2-0.2-0.3-0.1c-0.1,0-0.2,0.1-0.2,0.2C157.8,326.3,157.8,326.4,157.7,326.5z"/>
		<path class="st0" d="M158.3,328.3c-0.4,0.3-0.5,0.7-0.4,1.2c0,0.1,0.2,0.2,0.3,0.3c0,0,0.2-0.1,0.2-0.1c0.2-0.3,0.2-0.6,0.2-1
			C158.5,328.5,158.4,328.4,158.3,328.3z"/>
	</g>
	<g id="FGoKul.tif_3_">
		<path class="st0" d="M49.8,233.2c0-0.2,0-0.4,0-0.6c0,0,0-0.1,0-0.1c0.1-0.5,0.2-0.9,0.5-1.3c0.5-0.7,1.2-1.1,1.8-1.7
			c0.1,0,0.1-0.1,0.2-0.2c0.6-0.9,1.3-1.8,2.2-2.5c0.9-0.7,2-1,3.2-0.5c1.1,0.5,1.8,1.2,2,2.3c0.2,0.9,0.3,1.9,0.4,2.8
			c0.1,0.5,0.1,1,0.2,1.5c0.1,0,0.1-0.1,0.1-0.1c0.1-1.1,0.2-2.2,0.3-3.3c0-0.4,0-0.8,0.2-1.1c0.5-1,1.2-1.7,2.2-2.2
			c0.4-0.2,0.8-0.3,1.2-0.4c0.2,0,0.5,0,0.7,0c0,0,0,0,0,0c0.6,0.1,1.1,0.3,1.5,0.7c0.5,0.4,0.8,0.9,1.2,1.4
			c0.2,0.3,0.4,0.5,0.7,0.8c0.4,0.3,0.9,0.6,1.3,0.8c0.6,0.4,1,1,1.1,1.7c0.1,0.4,0,0.8,0,1.1c-0.1,0.6-0.2,1.2-0.7,1.7
			c-0.8,1-1.9,1.5-3.2,1.9c-0.7,0.2-1.5,0.2-2.3,0.3c-0.4,0.1-0.8,0.1-1.2,0.1c0,0,0,0.1,0,0.1c0.2,0,0.4,0,0.6,0c1.3,0,2.6,0,3.9,0
			c0.8,0,1.5,0.3,2.1,0.7c0.7,0.5,1.2,1.1,1.3,2c0.1,0.6,0,1.3-0.2,1.9c-0.2,0.5-0.4,1-0.9,1.3c-0.1,0.1-0.2,0.2-0.3,0.3
			c-0.5,0.6-0.9,1.2-1.2,1.9c-0.3,0.6-0.7,1-1.2,1.3c-1,0.7-2.1,0.6-3,0.1c-0.9-0.5-1.6-1.3-2.2-2.2c-0.1-0.2-0.2-0.5-0.3-0.8
			c-0.1-0.3-0.1-0.6-0.2-0.9c-0.1-0.5-0.3-1-0.4-1.5c0,0,0,0-0.1,0c0,0.2-0.1,0.3-0.1,0.5c0,0.7,0,1.4,0.1,2.1
			c0.1,0.9,0.3,1.9,0.8,2.7c0.2,0.5,0.6,0.8,1,1.2c0.4,0.3-0.4,1.2-0.7,1.1c-0.6-0.2-1-0.6-1.4-1.1c-0.7-1-1.2-2.1-1.2-3.3
			c0-1.2,0.1-2.4,0.1-3.6c0-0.1,0-0.1,0-0.2c-0.3,0-0.4,0.1-0.4,0.4c-0.2,0.8-0.3,1.7-0.5,2.5c-0.1,0.7-0.3,1.5-0.7,2.1
			c-0.5,0.7-1.1,1.1-1.9,1.3c-0.7,0.2-1.3,0-2-0.1c-0.5-0.1-0.8-0.3-1.2-0.6c-0.5-0.5-0.9-1-1.3-1.6c-0.2-0.5-0.5-0.9-0.9-1.2
			c-0.1-0.1-0.2-0.2-0.3-0.3c-0.4-0.5-0.9-0.9-1.1-1.5c0-0.1,0-0.3,0-0.4c0-0.1,0-0.2,0-0.2c0-0.6,0.1-1.2,0.4-1.7
			c0.7-1.2,1.7-1.9,3.1-2c0.8-0.1,1.7-0.1,2.5-0.1c0.4,0,0.7,0,1.1-0.1c0.1,0,0.3,0,0.3-0.2c-0.2,0-0.4-0.1-0.6-0.1
			c-1-0.1-2-0.2-2.9-0.3c-0.9-0.1-1.8-0.3-2.5-0.8C50.5,234.7,49.9,234.2,49.8,233.2C49.8,233.2,49.8,233.2,49.8,233.2z"/>
	</g>
	<g>
		<g id="vEoZTv.tif_3_">
			<path class="st0" d="M68.7,335.4c0,0,0,0.1-0.1,0.1c0,0,0,0-0.1,0.1c0-0.1,0-0.2,0-0.2c0-0.4,0.4-3.7-2.2-5.6
				c-0.1-0.1-0.2-0.1-0.3-0.2c0.4,3-0.1,5.8-1.5,8.4c0,0,0,0-0.1,0c0-0.1,0-0.1,0-0.2c-0.1-1.7-0.3-3.3-0.8-4.9
				c-0.3-0.9-0.6-1.8-1.2-2.6c-0.7-1-1.6-1.1-1.6-1.1s-0.2,0.1-0.3,0.3c-0.4,0.6-0.5,1.3-0.7,1.9c-0.5,1.6-0.7,3.2-0.9,4.9
				c-0.2,2.1-0.2,3.5-0.1,5.6c0,0.4,0.1,1.1,0.1,1.1h-4.1c0,0,0.3-5,1-7.5c0.8-2.8,2.1-5.3,2.3-5.6c0-0.1,1.3-2.6,1.3-2.6l-1.4-0.5
				c0,0-2.9-1.1-6.7,1.6c0-0.3,0.8-3.4,3.1-5.2c1.8-1.4,3.3-1.1,3.6-1.1c-0.1-1.1-0.9-1.9-1.7-2.6c0.1,0,3.2-0.1,4.5,0.7
				c0.4,0.3,0.4,0.3,0.8-0.1c1.2-1.2,2.6-1.4,2.7-1.4c0,0,0.1,0,0.1,0c0,0.1-0.6,1.4-0.5,2.2c0,0.1,0,0.2,0.2,0.2
				c0.2,0,0.4,0.1,0.6,0.1c0.9,0.1,3.3,0.8,5.1,3.4c0.1,0.1,0.2,0.3,0.2,0.3c-0.9-0.2-1.7-0.2-2.6-0.1c0.3,0.4,2.2,2.1,2.6,4.4
				C69.8,329.5,70.3,332.2,68.7,335.4z"/>
		</g>
		<ellipse class="st0" cx="58.4" cy="327.7" rx="1.2" ry="1.2"/>
		<ellipse class="st0" cx="60.8" cy="329.5" rx="1.1" ry="1"/>
	</g>
	<g>
		<path class="st0" d="M357.9,91.8c0.4,0.7,1,1,1.9,0.9c0.9-0.1,1.3-0.5,1.5-1.4c0.7,0,1.4,0.5,1.6,1.2c0.1,0.4,0.3,0.7,0.4,1.1
			c0.1,0.5,0.2,1,0.3,1.5c0.3,1.8,0.8,3.4,1.7,5c0.8,1.5,1.8,2.8,2.9,4.1c1.5,1.7,3.3,3.1,5.3,4.2c1,0.5,2,1,3.1,1.3
			c0.5,0.2,1.1,0.3,1.5,0.7c0.3,0.3,0.3,0.6-0.1,0.8c-0.3,0.1-0.6,0.2-0.9,0.3c-1.4,0.2-2.7,0-4.1-0.3c-3.7-0.7-6.9-2.4-9.7-4.9
			c-1.3-1.2-2.5-2.4-3.5-3.8c-1.4-1.9-2.6-4-3.1-6.4c-0.2-0.8-0.3-1.7-0.2-2.6c0.1-0.5,0.2-0.9,0.5-1.3
			C357.3,91.9,357.6,91.8,357.9,91.8z"/>
		<path class="st0" d="M361.1,90.7c0.2,0.9-0.4,1.6-1.3,1.7c-1,0.2-1.8-0.4-2-1.2c0.3-0.2,0.7-0.3,1-0.5c0.1-0.1,0.2-0.1,0.2-0.3
			c-0.2-0.8-0.3-1.5-0.5-2.3c-0.1-0.3,0.3-0.6,0.6-0.6c0.3,0,0.5,0.2,0.5,0.6c0,0.8,0.1,1.5,0.1,2.3
			C360.2,90.5,360.7,90.6,361.1,90.7z"/>
	</g>
	<g>
		<path class="st0" d="M48.8,397.9c0.4,0.7,1,1,1.9,0.9c0.9-0.1,1.3-0.5,1.5-1.4c0.7,0,1.4,0.5,1.6,1.2c0.1,0.4,0.3,0.7,0.4,1.1
			c0.1,0.5,0.2,1,0.3,1.5c0.3,1.8,0.8,3.4,1.7,5c0.8,1.5,1.8,2.8,2.9,4.1c1.5,1.7,3.3,3.1,5.3,4.2c1,0.5,2,1,3.1,1.3
			c0.5,0.2,1.1,0.3,1.5,0.7c0.3,0.3,0.3,0.6-0.1,0.8c-0.3,0.1-0.6,0.2-0.9,0.3c-1.4,0.2-2.7,0-4.1-0.3c-3.7-0.7-6.9-2.4-9.7-4.9
			c-1.3-1.2-2.5-2.4-3.5-3.8c-1.4-1.9-2.6-4-3.1-6.4c-0.2-0.8-0.3-1.7-0.2-2.6c0.1-0.5,0.2-0.9,0.5-1.3
			C48.3,398,48.5,397.9,48.8,397.9z"/>
		<path class="st0" d="M52,396.8c0.2,0.9-0.4,1.6-1.3,1.7c-1,0.2-1.8-0.4-2-1.2c0.3-0.2,0.7-0.3,1-0.5c0.1-0.1,0.2-0.1,0.2-0.3
			c-0.2-0.8-0.3-1.5-0.5-2.3c-0.1-0.3,0.3-0.6,0.6-0.6c0.3,0,0.5,0.2,0.5,0.6c0,0.8,0.1,1.5,0.1,2.3C51.2,396.7,51.6,396.7,52,396.8
			z"/>
	</g>
</g>
<g>
	<g id="_x32_55H6N.tif_4_">
		<path class="st0" d="M11.6,23c0-0.2,0.1-0.5,0.1-0.7c0.2-1.4,0.8-2.8,1.7-3.9c0,0,0,0,0.1-0.1c0.3,1.4,1.1,2.7,2,3.9
			c-0.4,0-0.8,0-1.2,0c0,0,0,0.1,0.1,0.1c0.5,0.9,1.2,1.5,2,2c0.8,0.4,1.9,0.1,2.4-0.7c0.3-0.4,0.5-0.9,0.5-1.5
			c0.1-0.6,0.1-1.1,0.2-1.7c0.1-1.8,0.1-3.7,0.2-5.5c0-0.4,0-0.9,0-1.3c0,0,0-0.1,0-0.1c-0.3,0-0.6,0-0.9,0c-0.9,0-1.7,0-2.6,0
			c0,0-0.1,0-0.1-0.1c-0.3-0.5-0.7-1.1-1-1.6c0,0,0,0,0-0.1c0.8,0,1.6,0,2.4,0c0.8,0,1.6,0,2.4,0c0-0.3,0-0.5,0-0.7
			c0-0.2,0-0.5,0-0.7c0-0.1,0-0.1-0.1-0.2c-0.9-0.5-1.3-1.2-1.3-2.1c0-1.3,1.1-2.3,2.4-2.3c1.4,0,2.5,1.1,2.4,2.4
			c0,0.9-0.5,1.6-1.3,2c0,0-0.1,0.1-0.1,0.1c0,0.5,0,1,0,1.5c1.6,0,3.2,0,4.8,0c0,0.1-0.1,0.1-0.1,0.1c-0.3,0.5-0.7,1-1,1.5
			c0,0.1-0.1,0.1-0.2,0.1c-1.1,0-2.2,0-3.2,0c0,0-0.1,0-0.1,0c0,0.1,0,0.3,0,0.4c0,2.1,0.1,4.2,0.1,6.3c0,0.6,0,1.2,0,1.8
			c0,0.4,0.1,0.9,0.3,1.3c0.3,0.8,1,1.2,1.9,1.2c1-0.1,1.8-0.5,2.4-1.3c0.2-0.2,0.3-0.5,0.5-0.7c0,0,0.1-0.1,0.1-0.2
			c-0.5-0.1-0.9-0.2-1.4-0.2c1.3-1,1.9-2.3,2.4-3.7c1.1,1,1.8,3.7,1.3,4.9c-0.3-0.2-0.7-0.3-1-0.5c-0.1,0.6-0.2,1.1-0.5,1.6
			c-0.5,1.1-1.3,1.8-2.3,2.4c-0.7,0.4-1.4,0.7-2.2,0.9c-0.4,0.1-0.7,0.3-1,0.5c-0.8,0.5-1.4,1.2-1.8,2c0,0,0,0,0,0c0,0,0,0,0-0.1
			c-0.5-1.1-1.4-2-2.6-2.4c-0.2-0.1-0.3-0.1-0.5-0.2c-1.3-0.5-2.6-1.2-3.5-2.3c-0.7-0.8-1.2-1.6-1.5-2.6c0,0,0,0,0,0
			c-0.4,0.3-0.8,0.5-1.1,0.8C11.6,23.2,11.6,23.1,11.6,23z M22.1,8c0-0.7-0.6-1.3-1.3-1.3c-0.7,0-1.3,0.6-1.3,1.2
			c0,0.7,0.6,1.3,1.3,1.3C21.5,9.2,22.1,8.7,22.1,8z"/>
	</g>
	<g id="JeGfOL.tif_1_">
		<path class="st0" d="M25.7,175.9c-2.2,2.1-4.3,4.2-6.5,6.4c-2.2-2.1-4.3-4.2-6.4-6.2c-1,1-2,1.9-3,2.9c2.1,2.1,4.2,4.1,6.5,6.3
			c-2.1,2.1-4.3,4.2-6.3,6.2c1,0.9,1.9,1.9,3,2.9c2.1-2,4.2-4.1,6.5-6.3c2.1,2.1,4.3,4.2,6.3,6.2c0.9-0.9,1.9-1.8,2.9-2.8
			c-2.1-2.1-4.3-4.2-6.5-6.3c2.2-2.1,4.3-4.2,6.5-6.3C27.6,177.8,26.7,176.9,25.7,175.9z"/>
	</g>
	<g>
		<path class="st0" d="M14,91.8c0.4,0.7,1,1,1.9,0.9c0.9-0.1,1.3-0.5,1.5-1.4c0.7,0,1.4,0.5,1.6,1.2c0.1,0.4,0.3,0.7,0.4,1.1
			c0.1,0.5,0.2,1,0.3,1.5c0.3,1.8,0.8,3.4,1.7,5c0.8,1.5,1.8,2.8,2.9,4.1c1.5,1.7,3.3,3.1,5.3,4.2c1,0.5,2,1,3.1,1.3
			c0.5,0.2,1.1,0.3,1.5,0.7c0.3,0.3,0.3,0.6-0.1,0.8c-0.3,0.1-0.6,0.2-0.9,0.3c-1.4,0.2-2.7,0-4.1-0.3c-3.7-0.7-6.9-2.4-9.7-4.9
			c-1.3-1.2-2.5-2.4-3.5-3.8c-1.4-1.9-2.6-4-3.1-6.4c-0.2-0.8-0.3-1.7-0.2-2.6c0.1-0.5,0.2-0.9,0.5-1.3C13.4,91.9,13.6,91.8,14,91.8
			z"/>
	</g>
</g>
</svg>
