<?xml version="1.0" encoding="utf-8"?>
<!-- Generator: Adobe Illustrator 22.1.0, SVG Export Plug-In . SVG Version: 6.00 Build 0)  -->
<svg version="1.1" id="Layer_2" xmlns="http://www.w3.org/2000/svg" xmlns:xlink="http://www.w3.org/1999/xlink" x="0px" y="0px"
	 viewBox="0 0 359.3 462.2" style="enable-background:new 0 0 359.3 462.2;" xml:space="preserve">
<style type="text/css">
	.st0{clip-path:url(#SVGID_2_);}
	.st1{fill:#383642;}
</style>
<g>
	<g>
		<defs>
			<rect id="SVGID_1_" x="-11.6" y="-20.1" width="390.1" height="494"/>
		</defs>
		<clipPath id="SVGID_2_">
			<use xlink:href="#SVGID_1_"  style="overflow:visible;"/>
		</clipPath>
		<g class="st0">
			<path class="st1" d="M370.3,400.6c0.3,0,0.7-0.1,0.9-0.4c0,0,0.1,0,0.1,0c1.6,2.2,6.4,4.1,9.6,4.2c0.6,0,1,0.1,1.4-0.5
				c0.5-0.7,1.8-11.6,0.4-13.1c-1-1-10.7,2.2-11.4,4c-0.2-0.1-0.3-0.3-0.5-0.4c-0.3,0-0.7,0.1-1-0.1c-0.5-0.3-1-0.3-1.4-0.1
				c-0.3,0.2-0.7,0-0.9,0.1c-0.2,0.1-0.3,0.2-0.5,0.4c-0.7-1.8-10.4-5-11.4-4c-1.4,1.5-0.1,12.4,0.4,13.1c0.4,0.6,0.8,0.5,1.4,0.5
				c3.2-0.1,8-2,9.6-4.2c0,0,0.1,0,0.1,0c0.2,0.3,0.6,0.4,0.9,0.4l0.7-0.1l0.8,0.3c0.2,0.1,0.4,0,0.6-0.1L370.3,400.6z"/>
			<path class="st1" d="M376.6,306.1C376.6,306.2,376.6,306.2,376.6,306.1c-0.2,0.9-0.3,1-1.2,1c-2.2,0-4.5,0-6.7,0
				c-0.3,0-0.6-0.1-0.9-0.1c-0.3,0-0.4,0.1-0.4,0.3c-0.1,0.9,0.1,1.7,1,2.1c0.4,0.2,1.2,0.4,1.7,0.5c0.8,0.1,1.3,0.3,2.1,0.1
				c0.5-0.1,0.6-0.4,0.5-0.8c-0.1-0.3-0.2-0.5-0.3-0.8c0-0.2,0-0.5,0.1-0.6c0.2-0.1,0.5-0.1,0.6,0c0.7,0.4,1,1,1,1.8
				c0,0.7-0.4,1.2-1.1,1.4c-0.6,0.2-2.1,0.4-3.4,0.1c-1.5-0.4-2.1-0.7-2.7-1c-0.6-0.4-1.1-1.2-1.2-1.9c-0.1-1,0-2,0.5-2.9
				c0.4-0.7,0.2-1.4,0.2-2c-0.1-0.9-0.3-2.1-0.3-3c0-1.2,0-2,0.2-3.2c0.1-0.7,0.5-1.3,0.8-2c0.5-1,1.1-2,1.9-2.8
				c0.5-0.6,1.2-0.9,1.9-1.1c1.2-0.3,2-1.1,2.7-2c0.2-0.3,0.4-0.6,0.3-1c0-1.2,0.4-2.2,1.2-3.1c0.2-0.2,0.4-0.4,0.6-0.5
				c0.8-0.2,1-0.9,1.4-1.5c0.1-0.3,0.3-0.5,0.5-0.8c0.2-0.2,0.5-0.6,0.7-0.4c0.1,0.2,0.3,0.6,0.3,0.8c0.1,0.5,0.2,0.7,0.1,1.2
				c0,0.4,0.2,0.6,0.6,0.7c0.5,0.1,1,0.4,1.3,0.9c0.2,0.3,0.5,0.6,0.8,0.6c0.7,0.2,0.6,0.5,0.5,1c-0.2,0.7-0.6,1.2-1.3,1.5
				c-0.6,0.3-0.8,0.7-0.7,1.4c0.2,1.1,0.2,2.1,0.3,3.2c0.1,1-0.3,2-1,2.8c-0.8,1-1.2,2.1-1.2,3.4c0,1.4,0,2.9,0,4.3
				c0,0.6,0.1,1.1,0.7,1.2c0.2,0,1,0.3,1.1,0.5c0.1,0.2,0.2,0.9-0.1,1c-0.1,0-0.4,0.1-0.8,0.1c-0.8,0.1-1.6,0.2-2.2-0.4
				C376.8,306.3,376.7,306.2,376.6,306.1z M376.3,305.7c-0.2-0.5-0.4-1.2-0.5-1.9c-0.2,0.4-0.6,1.1-1,1.5
				C375.4,305.4,375.8,305.5,376.3,305.7z"/>
		</g>
		<g class="st0">
			<g id="mvIV5B.tif_153_">
				<path class="st1" d="M132.2,140.1c0-1,0-2,0-3c0-1.2,0.4-1.6,1.6-1.6c1.2,0,1.7,0.4,1.7,1.7c0,1,0,1.9,0,2.9
					c0,0,0.1,0.1,0.3,0.2c0-0.4,0.1-0.7,0.1-1.1c0-0.7,0-1.4,0-2.1c0-1.4,1.4-2.2,2.6-1.4c0.4,0.2,0.6,0.8,0.7,1.2
					c0.1,1,0,2.1,0.1,3.1c0,0.1,0.1,0.1,0.2,0.4c0.1-0.5,0.1-0.8,0.1-1.1c0-2.2,0-4.3,0-6.5c0-0.5,0.4-1.2,0.9-1.5
					c0.4-0.2,1.2-0.2,1.6,0.1c0.4,0.2,0.7,0.8,0.7,1.3c0,5.6,0.1,11.3,0,16.9c0,2.6-2.3,4.9-5,5c-2,0.1-4,0.2-6,0
					c-3.3-0.4-5.1-2.6-6.2-5.4c-0.4-1.1-0.5-2.2-0.6-3.4c-0.1-2.1,0-4.2,0-6.3c1.8-0.2,3.2,1.1,3.2,2.9c0,0.9,0,1.9,0,2.8
					c0.1,0,0.2,0,0.3,0c0-0.3,0.1-0.6,0.1-0.9c0-4.6,0-9.1,0-13.7c0-1.1,0.5-1.7,1.3-1.8c1.1-0.2,1.9,0.6,1.9,1.8c0,2.8,0,5.7,0,8.5
					c0,0.3,0,0.7,0,1C131.9,140.1,132,140.1,132.2,140.1z"/>
			</g>
			<polygon class="st1" points="182.5,-14.7 191.1,-14.4 185.4,-3.8 192.1,-1.6 177.1,16.5 183.1,1.4 175.8,-1.2 			"/>
			<g id="JeGfOL.tif_8_">
				<path class="st1" d="M141.1,36.3c-2.5,2.4-4.9,4.8-7.4,7.2c-2.4-2.4-4.9-4.8-7.2-7.1c-1.1,1.1-2.2,2.2-3.4,3.3
					c2.4,2.3,4.8,4.7,7.3,7.2c-2.4,2.4-4.8,4.7-7.2,7c1.1,1.1,2.2,2.1,3.4,3.3c2.4-2.3,4.8-4.7,7.3-7.2c2.4,2.3,4.8,4.7,7.2,7
					c1.1-1,2.1-2.1,3.3-3.2c-2.4-2.3-4.8-4.7-7.4-7.2c2.5-2.4,4.9-4.8,7.3-7.2C143.4,38.5,142.3,37.5,141.1,36.3z"/>
			</g>
			<path class="st1" d="M286.5,97.6c-0.3-0.2-0.8-0.7-1.2-0.7c-0.4,0-1,0.5-1.2,0.7c-1.1,1.2-2.7,6.4-2.8,7.2
				c-0.1,0.3-0.4,0.5-0.5,0.8c-0.3-0.2-0.6-0.3-0.8-0.6c-1.4-2.5-2.2-5.2-1.4-8.1c0.4-1.6,0.4-3.1-0.1-4.6c-0.6-2.1-1.1-4.2-1.3-6.3
				c-0.4-3,1.1-5,4-5.3c0.9-0.1,1.8,0.3,2.7,0.3c1.4,0,2.9,0,4.3-0.2c3.2-0.5,5.7,1.5,5.5,4.7c-0.1,1.9-0.6,3.9-1.1,5.7
				c-0.6,2.2-0.8,4.3-0.3,6.5c0.6,2.6-0.3,5.1-1.5,7.4c-0.1,0.3-0.5,0.4-0.8,0.6c-0.2-0.2-0.4-0.5-0.5-0.7
				C289.2,104.1,287.5,98.5,286.5,97.6z"/>
			<path class="st1" d="M277.1,13.1c0.3-0.2,0.3-0.6,0.3-0.9c0.1-0.6,0.1-1.3,0.2-1.9c0.1-0.6,0.3-1.2,0.3-1.9
				c0.3-3.4,1.6-6.4,3.8-9c1.3-1.5,2.7-2.8,4.5-3.6c1.6-0.7,3.3-1.4,4.9-2.2c0.7-0.4,1.5-0.4,2.3-0.1c0.4,0.1,0.8,0.3,1.2,0.4
				C295-6,295.3-6,295.5-6c0.3,0,0.7-0.1,1,0c0.6,0.2,1,0,1.5-0.3c0.2-0.1-0.4-0.9-0.5-1.5c-0.1-0.4-0.3-0.5-0.6-0.5
				c-0.5,0-1,0-1.5-0.1c-0.1,0-0.1,0.1-0.2,0.1c-0.3,0.1-0.6,0.2-0.9,0.1c-0.7-0.2-1.5-0.5-2.2-0.8c-0.6-0.3-1.1-0.8-1.8-1.1
				c-1.7-0.9-3.4-1-5.2-0.3c-3.5,1.2-6.4,3.3-9,6.4c-0.4,0.5-0.9,1.3-1.4,2.1C273.7,0,273,1.9,272.6,4c-0.6,3.4,0.4,6.3,2.5,9
				C275.7,13.8,276.3,13.6,277.1,13.1z"/>
			<path class="st1" d="M34.7,144.9c0.3,0,0.7-0.1,0.9-0.4c0,0,0.1,0,0.1,0c1.6,2.2,6.4,4.1,9.6,4.2c0.6,0,1,0.1,1.4-0.5
				c0.5-0.7,1.8-11.6,0.4-13.1c-1-1-10.7,2.2-11.4,4c-0.2-0.1-0.3-0.3-0.5-0.4c-0.3,0-0.7,0.1-1-0.1c-0.5-0.3-1-0.3-1.4-0.1
				c-0.3,0.2-0.7,0-0.9,0.1c-0.2,0.1-0.3,0.2-0.5,0.4c-0.7-1.8-10.4-5-11.4-4c-1.4,1.5-0.1,12.4,0.4,13.1c0.4,0.6,0.8,0.5,1.4,0.5
				c3.2-0.1,8-2,9.6-4.2c0,0,0.1,0,0.1,0c0.2,0.3,0.6,0.4,0.9,0.4l0.7-0.1l0.8,0.3c0.2,0.1,0.4,0,0.6-0.1L34.7,144.9z"/>
			<path class="st1" d="M36.2,56.2C36.2,56.2,36.2,56.3,36.2,56.2c-0.2,0.9-0.3,1-1.2,1c-2.2,0-4.5,0-6.7,0c-0.3,0-0.6-0.1-0.9-0.1
				c-0.3,0-0.4,0.1-0.4,0.3c-0.1,0.9,0.1,1.7,1,2.1c0.4,0.2,1.2,0.4,1.7,0.5c0.8,0.1,1.3,0.3,2.1,0.1c0.5-0.1,0.6-0.4,0.5-0.8
				c-0.1-0.3-0.2-0.5-0.3-0.8c0-0.2,0-0.5,0.1-0.6c0.2-0.1,0.5-0.1,0.6,0c0.7,0.4,1,1,1,1.8c0,0.7-0.4,1.2-1.1,1.4
				c-0.6,0.2-2.1,0.4-3.4,0.1c-1.5-0.4-2.1-0.7-2.7-1c-0.6-0.4-1.1-1.2-1.2-1.9c-0.1-1,0-2,0.5-2.9c0.4-0.7,0.2-1.4,0.2-2
				c-0.1-0.9-0.3-2.1-0.3-3c0-1.2,0-2,0.2-3.2c0.1-0.7,0.5-1.3,0.8-2c0.5-1,1.1-2,1.9-2.8c0.5-0.6,1.2-0.9,1.9-1.1
				c1.2-0.3,2-1.1,2.7-2c0.2-0.3,0.4-0.6,0.3-1c0-1.2,0.4-2.2,1.2-3.1c0.2-0.2,0.4-0.4,0.6-0.5c0.8-0.2,1-0.9,1.4-1.5
				c0.1-0.3,0.3-0.5,0.5-0.8c0.2-0.2,0.5-0.6,0.7-0.4c0.1,0.2,0.3,0.6,0.3,0.8c0.1,0.5,0.2,0.7,0.1,1.2c0,0.4,0.2,0.6,0.6,0.7
				c0.5,0.1,1,0.4,1.3,0.9c0.2,0.3,0.5,0.6,0.8,0.6c0.7,0.2,0.6,0.5,0.5,1c-0.2,0.7-0.6,1.2-1.3,1.5c-0.6,0.3-0.8,0.7-0.7,1.4
				c0.2,1.1,0.2,2.1,0.3,3.2c0.1,1-0.3,2-1,2.8c-0.8,1-1.2,2.1-1.2,3.4c0,1.4,0,2.9,0,4.3c0,0.6,0.1,1.1,0.7,1.2
				c0.2,0,1,0.3,1.1,0.5c0.1,0.2,0.2,0.9-0.1,1c-0.1,0-0.4,0.1-0.8,0.1c-0.8,0.1-1.6,0.2-2.2-0.4C36.4,56.4,36.3,56.3,36.2,56.2z
				 M35.9,55.8c-0.2-0.5-0.4-1.2-0.5-1.9c-0.2,0.4-0.6,1.1-1,1.5C34.9,55.5,35.4,55.6,35.9,55.8z"/>
			<path class="st1" d="M336.3,38.7C336.3,38.7,336.3,38.6,336.3,38.7c-0.5-0.4-0.9-0.6-1.6-0.5c-1.9,0.1-3,0.9-3,0.9
				s0.8-1.8,3.6-1.7c-0.5-0.8-2.8-0.4-4-0.1c-0.1,0,1.8-3.8,2.3-4.3c0,0,0,0,0,0c-1.9,0.6-3.6,2.3-3.6,2.3c-0.1-1.5-0.6-3.9-1.1-4.5
				l0,0c-0.5,0.6-1,3.1-1.1,4.5c0,0-1.6-1.7-3.6-2.3c0,0,0,0,0,0c0.5,0.5,2.4,4.4,2.3,4.3c-1.2-0.3-3.5-0.6-4,0.1
				c2.8-0.1,3.6,1.7,3.6,1.7s-1.1-0.8-3-0.9c-0.6,0-1.1,0.1-1.5,0.5c0,0,0,0,0,0c0.9-0.2,4,1.8,4.2,3.2c0,0-1-0.3-1.3-0.4
				c-0.8-0.1-1.4,0-2.2,0.3c-0.2,0.1-0.6,0.3-0.7,0.5c1.5-0.6,3.7,0.2,4.5,1.3c0.2,0.3,0.4,0.7,0.4,0.9c-0.3-0.1-0.6-0.1-0.9-0.2
				c-1.3-0.2-2.6,0.3-3.2,1.4c0,0-0.1,0.1-0.1,0.2c1.1-1,2.6-1.3,3.8-0.4c-0.4,0-0.9-0.1-1.3,0.1c-0.4,0.2-0.8,0.4-1.1,0.7
				c0.9-0.3,1.9-0.3,2.8,0.2c-0.3,0.1-0.5,0.4-0.7,0.6c-0.6,0.3-1.2,0.5-1.4,1.2c-0.1,0.4-0.5,0.8-0.7,1.1c-0.2,0.3-0.5,0.5-0.6,0.8
				c-0.1,0.4-0.2,0.6-0.3,0.9c-0.2,0.3-0.2,0.7-0.3,1.1c-0.1,0.2-0.2,0.4-0.2,0.6c-0.1,0.3,0,0.5-0.1,0.8c-0.2,1-0.1,2.3-0.1,3.4
				c0,1.2,0.5,2.8,1.2,3.7c0.8,1.2,2,1.8,3.4,1.9c0.7,0.1,1.5,0.2,2.2,0.2v0c0.8-0.1,1.5-0.1,2.2-0.2c1.4-0.1,2.6-0.7,3.4-1.9
				c0.7-1,1.1-2.5,1.2-3.7c0-1.1,0.1-2.4-0.1-3.4c-0.1-0.2,0-0.5-0.1-0.8c0-0.2-0.1-0.4-0.2-0.6c-0.1-0.4-0.1-0.7-0.3-1.1
				c-0.2-0.3-0.2-0.5-0.3-0.9c-0.1-0.4-0.4-0.6-0.6-0.8c-0.3-0.3-0.6-0.7-0.7-1.1c-0.2-0.7-0.8-0.9-1.4-1.2
				c-0.3-0.1-0.4-0.4-0.7-0.6c0.9-0.5,1.8-0.6,2.8-0.2c-0.3-0.3-0.7-0.5-1.1-0.7c-0.4-0.2-0.8-0.1-1.3-0.1c1.2-0.9,2.7-0.7,3.8,0.4
				c0-0.1-0.1-0.1-0.1-0.2c-0.6-1.1-1.9-1.6-3.2-1.4c-0.3,0-0.6,0.1-0.9,0.2c-0.1-0.2,0.2-0.6,0.4-0.9c0.7-1.1,2.9-2,4.5-1.3
				c-0.1-0.2-0.5-0.4-0.7-0.5c-0.7-0.2-1.4-0.4-2.2-0.3c-0.3,0-1.3,0.4-1.3,0.4C332.3,40.5,335.4,38.5,336.3,38.7z"/>
			<path class="st1" d="M242.3,42.6c-2,0.5-2.9,0.7-3.9,0.8c-0.2,0-0.3,0-0.5,0c-0.2,0-0.3,0-0.5,0c-0.9-0.1-1.9-0.3-3.9-0.8
				c-2.9-0.8-8-1-11-0.1c0,0.6,0.1,1.2,0.2,1.8c0,0.1,0.2,0.1,0.3,0.1c0.5,0.2,0.5,0.7,0.6,1.1c0.3,1.2,0.6,2.3,1,3.5
				c0.4,1.2,1.2,2,2.4,2.3c1.3,0.3,2.7,0.5,4,0.3c1.9-0.2,3.4-1,4.3-2.7c0.5-1,1-2.1,1.5-3.1c0.1-0.2,0.3-0.5,0.5-0.6
				c0.2-0.1,0.3-0.1,0.5-0.1c0.2,0,0.3,0,0.5,0.1c0.2,0.1,0.4,0.4,0.5,0.6c0.5,1,0.9,2.1,1.5,3.1c0.9,1.7,2.4,2.5,4.3,2.7
				c1.4,0.2,2.7,0,4-0.3c1.3-0.3,2.1-1.1,2.4-2.3c0.4-1.1,0.7-2.3,1-3.5c0.1-0.4,0.1-0.9,0.6-1.1c0.1,0,0.3,0,0.3-0.1
				c0.1-0.6,0.2-1.2,0.2-1.8C250.4,41.6,245.3,41.8,242.3,42.6z"/>
			<g>
				<g id="eelQ8H.tif_98_">
					<path class="st1" d="M242.9,130.2c0.3,0,0.6,0,0.9,0c0,0,0.1,0,0.1,0c0.6,0.1,1.1,0.2,1.7,0.4c0.6,0.2,1.1,0.5,1.5,0.9
						c0.6,0.7,0.9,1.5,0.8,2.3c-0.1,1.2-0.7,2.2-1.3,3.1c-0.1,0.2-0.3,0.4-0.5,0.6c0.2,0.2,0.4,0.3,0.6,0.5c0.2,0.2,0.4,0.3,0.5,0.5
						c0.4,0.4,0.4,1,0,1.3c-0.3,0.3-0.7,0.7-1,1c-0.1,0.1-0.1,0.2-0.1,0.3c0.4,0.9,0.7,1.7,0.8,2.7c0.2,1.9-0.1,3.7-1,5.4
						c-0.6,1.2-1.5,2.2-2.5,3c-0.9,0.7-1.9,1.3-3.1,1.6c-1.4,0.4-2.8,0.6-4.3,0.3c-1.7-0.3-3.1-0.9-4.5-1.9c-1.2-0.9-2.1-2-2.7-3.3
						c-0.6-1.2-0.9-2.4-0.9-3.7c0-1.1,0.2-2.2,0.5-3.3c0.5-1.3,1.2-2.5,2.2-3.5c0.7-0.7,1.6-1.3,2.5-1.8c1.1-0.5,2.3-0.8,3.5-0.9
						c1.3-0.1,2.6,0.1,3.9,0.5c0.2,0.1,0.4,0.1,0.5-0.1c0.3-0.4,0.7-0.7,1.1-1.1c0.4-0.4,1-0.4,1.5,0c0.1,0.1,0.2,0.2,0.3,0.3
						c0.2,0.2,0.4,0.4,0.6,0.6c0.2-0.3,0.3-0.5,0.5-0.7c0.3-0.6,0.6-1.1,0.7-1.8c0.1-0.4,0-0.8-0.4-1c-0.3-0.2-0.6-0.3-1-0.4
						c-1-0.3-1.9-0.2-2.9,0.2c-1,0.5-2.1,0.9-3.1,1.4c-0.8,0.4-1.6,0.7-2.5,0.8c-0.9,0.1-1.7,0.1-2.5-0.2c-0.6-0.2-1.2-0.6-1.7-1
						c-0.3-0.3-0.4-0.6-0.3-1c0.1-0.4,0.4-0.6,0.8-0.6c0.4,0,0.6,0.1,0.9,0.3c0.3,0.2,0.6,0.4,0.9,0.5c0.7,0.3,1.5,0.2,2.2-0.1
						c1-0.4,2-0.9,3-1.3c0.9-0.4,1.8-0.8,2.8-1C242.5,130.2,242.7,130.2,242.9,130.2z"/>
				</g>
				<path class="st1" d="M232.8,129.1l-0.2,1.5c0,0.3,0.3,0.5,0.6,0.3l1.2-0.9l-0.9,1.2c-0.2,0.2,0,0.6,0.3,0.5l1.5-0.2l-1.4,0.6
					c-0.3,0.1-0.3,0.5,0,0.6l1.4,0.6l-2.3-0.2l1.2,0.9l-1.2-0.3c-0.2-0.1-0.5,0.1-0.4,0.4l0.2,1.7l-0.6-1.3c-0.1-0.3-0.5-0.3-0.6,0
					l-0.6,1.3l0.2-1.5c0-0.3-0.3-0.5-0.6-0.3l-1.2,0.9l0.9-1.2c0.2-0.2,0-0.6-0.3-0.5l-1.5,0.2l1.4-0.6c0.3-0.1,0.3-0.5,0-0.6
					l-1.4-0.6l1.5,0.2c0.3,0,0.5-0.3,0.3-0.5l-0.9-1.2l1.2,0.9c0.2,0.2,0.6,0,0.6-0.3l-0.2-1.5l0.6,1.3c0.1,0.3,0.5,0.3,0.6,0
					L232.8,129.1z"/>
			</g>
			<g>
				<path class="st1" d="M170,95.3c-0.5,1.7-0.6,3.5-0.4,5.3c0.1,0.5,0.2,1,0.4,1.6c0.2,0.7,0.5,1.3,0.9,1.9
					c0.8,1.1,1.8,1.8,3.1,2.3c1,0.4,2.1,0.4,3.2,0.6c0.3,0,0.6,0,0.9,0c0.6-0.1,1.2-0.1,1.8-0.2c1.4-0.3,2.7-0.8,3.7-1.8
					c1.2-1.2,1.7-2.6,1.9-4.2c0.1-1.2,0-2.4-0.2-3.6c-0.2-1.3-0.7-2.6-1.2-3.9c-0.1-0.3-0.3-0.7-0.4-1c0-0.1,0-0.2,0.1-0.2
					c0.1,0,0.2-0.1,0.3-0.1c0.2,0,0.3,0,0.5,0c0.5,0,0.5,0,0.5-0.5c0-0.4,0-0.8,0-1.2c0-0.3-0.1-0.4-0.4-0.4c-1.2,0-2.4,0-3.5,0
					c-0.5,0-0.6,0.1-0.6,0.6c0,0.4,0.1,0.7,0.2,1c0.3,0.6,0.6,1.2,0.9,1.8c0.2,0.5,0.4,1,0.5,1.5c0.2,1,0.5,2.1,0.7,3.1
					c0.2,1.2,0.2,2.4-0.2,3.6c-0.4,1.5-1.5,2.3-3,2.7c-0.8,0.2-1.6,0.3-2.5,0.3c-1.5-0.1-2.7-0.7-3.7-1.9c-0.4-0.5-0.8-1.1-1-1.7
					c-0.1-0.5-0.2-1.1-0.3-1.6c-0.3-1.9,0.1-3.7,0.8-5.5c0.3-0.9,0.7-1.7,1.2-2.5c0.2-0.3,0.3-0.7,0.3-1.1c0-0.3-0.1-0.4-0.4-0.4
					c-0.7,0-1.3,0-2,0c-0.6,0-1.3,0-1.9,0c-0.2,0-0.4,0.1-0.4,0.3c0,0.5,0,0.9,0,1.4c0,0.2,0.1,0.3,0.3,0.3c0.3,0,0.5,0,0.8,0
					c0.3,0,0.3,0.1,0.2,0.4c-0.3,0.6-0.6,1.2-0.8,1.9C170.3,94.5,170.2,94.9,170,95.3z M170.4,100.7c0.1-0.3,0.1-0.5,0.2-0.6
					c0.1-0.2,0.2-0.2,0.4-0.1c0.3,0.2,0.5,1,0.3,1.3c-0.1,0.2-0.4,0.3-0.5,0.2C170.7,101.2,170.6,100.9,170.4,100.7z M170.5,97.6
					c0-0.3,0-0.5,0.1-0.6c0-0.1,0.2-0.3,0.2-0.3c0.1,0,0.3,0.1,0.4,0.2c0.2,0.3,0.1,0.9-0.3,1.1c-0.1,0-0.2,0-0.2,0
					C170.7,97.9,170.6,97.7,170.5,97.6z M170.9,95.1c-0.1-0.5,0.2-0.9,0.7-1.1c0.1,0.1,0.1,0.1,0.2,0.2c0.2,0.3,0,1-0.3,1.2
					c-0.1,0.1-0.2,0.1-0.3,0.1C171.1,95.3,171,95.2,170.9,95.1z M171.4,102.6c0.1-0.1,0.1-0.2,0.2-0.2c0.2,0,0.4,0,0.5,0.1
					c0.2,0.2,0.3,0.4,0.4,0.7c0.1,0.2,0,0.3-0.1,0.4c-0.1,0-0.3,0.1-0.3,0C171.7,103.3,171.6,103,171.4,102.6z M173.1,104.5
					c-0.1-0.2-0.1-0.3,0.1-0.3c0.3-0.1,1,0.2,1.1,0.4c0,0,0,0.1,0,0.1c0,0.4-0.2,0.5-0.5,0.4C173.5,105,173.3,104.8,173.1,104.5z
					 M175.8,105.8c-0.3-0.1-0.5-0.3-0.4-0.4c0.1-0.3,0.3-0.2,0.6-0.3c0.1,0,0.4,0.1,0.6,0.1c0.1,0,0.3,0.1,0.3,0.3
					c0,0.2-0.1,0.3-0.3,0.3C176.3,105.8,176,105.9,175.8,105.8z M178.3,105.9c-0.3-0.1-0.4-0.2-0.2-0.5c0-0.1,0.2-0.2,0.3-0.2
					c0.3,0,0.5-0.1,0.8,0c0.2,0,0.3,0.1,0.3,0.2c0,0.2-0.1,0.4-0.3,0.4c-0.1,0-0.3,0-0.4,0.1C178.5,106,178.4,106,178.3,105.9z
					 M180.8,105.1c0-0.1,0-0.3,0.1-0.3c0.2-0.1,0.4-0.3,0.6-0.3c0.2-0.1,0.5,0,0.6,0.2c-0.2,0.4-0.6,0.6-1,0.6
					C181,105.3,180.8,105.2,180.8,105.1z M182.9,103.4c0-0.1,0-0.2,0.1-0.3c0.2-0.2,0.4-0.4,0.6-0.6c0.1-0.1,0.4-0.1,0.4,0
					c0.1,0.1,0.1,0.3,0,0.5c-0.1,0.2-0.3,0.4-0.5,0.6c-0.1,0.1-0.3,0.2-0.3,0.1C183.1,103.6,183,103.5,182.9,103.4z M183.3,94.7
					c-0.1-0.3-0.1-0.6,0.3-0.8c0.4,0.3,0.6,0.6,0.6,1.1c0,0.2-0.2,0.4-0.3,0.3C183.5,95.2,183.4,95,183.3,94.7z M184.2,98.1
					c-0.3-0.2-0.4-0.8-0.3-1.1c0.1-0.1,0.2-0.2,0.4-0.3c0,0,0.2,0.1,0.2,0.2c0.1,0.1,0.1,0.3,0.1,0.5c-0.1,0.2-0.1,0.4-0.2,0.6
					C184.4,98.2,184.3,98.2,184.2,98.1z M184,100.8c-0.2-0.3-0.1-1,0.2-1.3c0.1-0.1,0.2-0.1,0.3,0c0.1,0,0.2,0.1,0.2,0.2
					c0,0.1,0,0.2,0,0.2c0,0.4,0,0.6-0.2,0.9C184.4,101.1,184.2,101.1,184,100.8z"/>
				<path class="st1" d="M170.6,100.1c-0.1,0.2-0.1,0.4-0.2,0.6c0.1,0.2,0.2,0.5,0.4,0.7c0.1,0.1,0.4,0,0.5-0.2
					c0.1-0.3,0-1.1-0.3-1.3C170.9,99.9,170.7,99.9,170.6,100.1z"/>
				<path class="st1" d="M170.7,97c-0.1,0.2-0.1,0.4-0.1,0.6c0,0.1,0.1,0.3,0.2,0.5c0,0,0.2,0,0.2,0c0.3-0.2,0.5-0.8,0.3-1.1
					c-0.1-0.1-0.2-0.2-0.4-0.2C170.8,96.7,170.7,96.8,170.7,97z"/>
				<path class="st1" d="M171.6,93.9c-0.5,0.2-0.7,0.7-0.7,1.1c0,0.1,0.1,0.2,0.2,0.3c0.1,0,0.2,0,0.3-0.1c0.3-0.2,0.5-0.8,0.3-1.2
					C171.7,94,171.7,94,171.6,93.9z"/>
				<path class="st1" d="M171.6,102.4c-0.1,0-0.1,0.2-0.2,0.2c0.1,0.4,0.3,0.7,0.6,0.9c0.1,0.1,0.3,0,0.3,0c0.1-0.1,0.2-0.2,0.1-0.4
					c-0.1-0.2-0.3-0.5-0.4-0.7C172,102.4,171.7,102.3,171.6,102.4z"/>
				<path class="st1" d="M173.2,104.2c-0.2,0.1-0.2,0.2-0.1,0.3c0.2,0.3,0.4,0.5,0.7,0.6c0.3,0.1,0.5,0,0.5-0.4c0,0,0-0.1,0-0.1
					C174.2,104.3,173.5,104.1,173.2,104.2z"/>
				<path class="st1" d="M175.4,105.4c0,0.2,0.1,0.4,0.4,0.4c0.2,0,0.5,0,0.7,0c0.2,0,0.3-0.1,0.3-0.3c0-0.2-0.1-0.3-0.3-0.3
					c-0.2-0.1-0.4-0.1-0.6-0.1C175.7,105.1,175.5,105.1,175.4,105.4z"/>
				<path class="st1" d="M177.2,91.2c-0.1,1.1-0.1,2.3,0.1,3.4c0.2,1,0.6,2,1.2,2.9c0.6,1,1.5,1.7,2.6,2.1c0.3,0.1,0.6,0.2,0.9,0.3
					c0.3,0.1,0.6-0.1,0.6-0.4c-0.1-0.7-0.1-1.4-0.2-2.1c0-0.2-0.2-0.4-0.4-0.6c-0.7-0.6-1.3-1.3-1.7-2.2c-0.3-0.7-0.5-1.5-0.5-2.3
					c-0.1-1.7,0.1-3.3,0.7-4.8c0.3-0.8,0.7-1.6,1.1-2.4c0.1-0.2,0.3-0.4,0.4-0.6c0.2-0.3,0.2-0.7,0.2-1.1c0-0.2-0.2-0.2-0.4-0.2
					c-0.3,0-0.6,0-1,0c-0.4,0-0.7,0-1.1,0v0c-0.6,0-1.2,0-1.9,0c-0.3,0-0.4,0.1-0.4,0.4c0,0.4,0,0.8,0,1.2c0,0.3,0.1,0.4,0.4,0.4
					c0.3,0,0.5,0,0.8,0c0.2,0,0.2,0.1,0.2,0.3c-0.2,0.5-0.5,1.1-0.7,1.6c-0.2,0.4-0.4,0.9-0.4,1.3C177.5,89.5,177.2,90.3,177.2,91.2
					z M178,91.2c0-0.3,0.1-0.6,0.3-0.8c0.1-0.2,0.3-0.2,0.4,0c0.2,0.3,0.1,1.1-0.2,1.3C178.3,91.6,178,91.5,178,91.2z M178.5,95.1
					c-0.5-0.4-0.5-0.8-0.4-1.3c0-0.2,0.2-0.3,0.4-0.3c0.2,0,0.2,0.1,0.3,0.3c0,0.1,0.1,0.2,0.1,0.3C179,94.6,178.9,94.8,178.5,95.1z
					 M178.4,88.6c0.1-0.3,0.2-0.6,0.4-0.9c0.1-0.1,0.3-0.1,0.4-0.1c0.1,0,0.1,0.2,0.1,0.3c0,0.3-0.1,0.6-0.3,0.9
					c-0.1,0.1-0.2,0.2-0.3,0.1C178.6,88.8,178.5,88.7,178.4,88.6z M179.8,97.1c-0.4,0-0.9-0.7-0.8-1c0-0.1,0-0.1,0.1-0.1
					c0.1,0,0.2-0.1,0.2,0c0.4,0.2,0.7,0.4,0.8,0.9C180.1,97,180,97.1,179.8,97.1z M180.5,97.9c0.1-0.1,0.2-0.2,0.3-0.2
					c0.3-0.1,1,0.2,1.1,0.5c0,0.1,0,0.2-0.1,0.4c0,0-0.2,0.1-0.2,0C181.1,98.6,180.8,98.3,180.5,97.9z"/>
				<path class="st1" d="M178.3,90.4c-0.2,0.2-0.3,0.5-0.3,0.8c0,0.3,0.3,0.4,0.5,0.5c0.3-0.3,0.4-1,0.2-1.3
					C178.6,90.2,178.4,90.2,178.3,90.4z"/>
				<path class="st1" d="M178,105.5c-0.1,0.2,0,0.4,0.2,0.5c0.1,0,0.3,0,0.4,0c0.2,0,0.3,0,0.4-0.1c0.2-0.1,0.3-0.2,0.3-0.4
					c0-0.2-0.2-0.2-0.3-0.2c-0.3,0-0.5,0-0.8,0C178.2,105.3,178.1,105.4,178,105.5z"/>
				<path class="st1" d="M178,93.8c-0.1,0.5-0.1,0.9,0.4,1.3c0.4-0.3,0.5-0.5,0.4-1c0-0.1-0.1-0.2-0.1-0.3c-0.1-0.1-0.1-0.3-0.3-0.3
					C178.2,93.5,178.1,93.6,178,93.8z"/>
				<path class="st1" d="M178.8,87.7c-0.2,0.3-0.3,0.6-0.4,0.9c0.1,0.1,0.2,0.2,0.3,0.3c0.2,0.1,0.3,0,0.3-0.1
					c0.2-0.3,0.3-0.6,0.3-0.9c0-0.1-0.1-0.3-0.1-0.3C179.1,87.6,178.8,87.6,178.8,87.7z"/>
				<path class="st1" d="M179,96.1c-0.1,0.4,0.4,1,0.8,1c0.2,0,0.3-0.1,0.3-0.4c-0.1-0.4-0.4-0.7-0.8-0.9c-0.1,0-0.1,0-0.2,0
					C179.1,96,179,96,179,96.1z"/>
				<path class="st1" d="M180.8,97.7c-0.1,0-0.2,0.1-0.3,0.2c0.3,0.4,0.6,0.7,1.1,0.8c0.1,0,0.2,0,0.2,0c0.1-0.1,0.1-0.3,0.1-0.4
					C181.8,98,181.2,97.6,180.8,97.7z"/>
				<path class="st1" d="M180.9,104.8c-0.1,0.1-0.2,0.3-0.1,0.3c0.1,0.1,0.2,0.2,0.4,0.2c0.4,0,0.8-0.2,1-0.6
					c-0.2-0.2-0.4-0.3-0.6-0.2C181.3,104.5,181.1,104.6,180.9,104.8z"/>
				<path class="st1" d="M183,103.1c0,0.1-0.1,0.1-0.1,0.3c0.1,0.1,0.1,0.3,0.2,0.3c0.1,0,0.3,0,0.3-0.1c0.2-0.2,0.4-0.4,0.5-0.6
					c0.1-0.1,0-0.3,0-0.5c0,0-0.3,0-0.4,0C183.4,102.7,183.2,102.9,183,103.1z"/>
				<path class="st1" d="M183.6,93.9c-0.3,0.2-0.3,0.5-0.3,0.8c0.1,0.3,0.2,0.5,0.5,0.6c0.2,0.1,0.3-0.1,0.3-0.3
					C184.1,94.6,184,94.2,183.6,93.9z"/>
				<path class="st1" d="M183.9,97c-0.2,0.3,0,0.9,0.3,1.1c0.1,0.1,0.2,0.1,0.3,0c0.1-0.2,0.1-0.4,0.2-0.6c0-0.2-0.1-0.4-0.1-0.5
					c0-0.1-0.2-0.3-0.2-0.2C184.1,96.7,184,96.8,183.9,97z"/>
				<path class="st1" d="M184.2,99.6c-0.3,0.2-0.3,1-0.2,1.3c0.1,0.3,0.3,0.3,0.5,0c0.2-0.2,0.3-0.5,0.2-0.9c0,0,0-0.2,0-0.2
					c0-0.1-0.1-0.2-0.2-0.2C184.5,99.5,184.3,99.5,184.2,99.6z"/>
				<path class="st1" d="M186.2,98c-0.3,0.2-0.2,2.1,0.1,2.2c0.1,0,0.2,0,0.2,0c0.4-0.1,0.8-0.1,1.3-0.2c0.8-0.2,1.5-0.5,2.2-0.8
					c1-0.5,1.8-1.3,2.3-2.3c0.3-0.5,0.4-1.1,0.6-1.7c0.4-1.8,0.2-3.6-0.1-5.4c-0.3-1.3-0.7-2.5-1.2-3.7c0-0.1-0.1-0.2-0.1-0.4
					c-0.1-0.2,0-0.4,0.3-0.4c0.3,0,0.6,0,0.8,0c0.2,0,0.3-0.1,0.3-0.2c0-0.5,0-1,0-1.6c0-0.2-0.1-0.2-0.3-0.2c-0.6,0-1.3,0-1.9,0
					c-0.6,0-1.2,0-1.9,0c-0.4,0-0.4,0.1-0.5,0.5c-0.1,0.6,0.2,1,0.5,1.5c0.2,0.4,0.4,0.8,0.6,1.3c0.2,0.4,0.3,0.8,0.4,1.2
					c0.5,1.7,0.9,3.5,0.9,5.4c0,0.9-0.2,1.7-0.5,2.5c-0.2,0.5-0.5,0.9-0.9,1.2c-0.7,0.6-1.6,1-2.6,1.1
					C186.4,97.9,186.3,97.9,186.2,98z M188.2,98.7c0.2-0.5,0.6-0.6,1-0.7c0.1,0,0.3,0.1,0.3,0.2c0,0.1,0,0.2-0.1,0.3
					c-0.2,0.2-0.5,0.4-0.8,0.4C188.5,98.9,188.3,98.9,188.2,98.7z M190.6,97.2c-0.1-0.1-0.2-0.3-0.2-0.4c0-0.2,0.2-0.3,0.3-0.4
					c0.2-0.1,0.3-0.3,0.5-0.3c0.3,0,0.5,0.2,0.4,0.4c-0.1,0.3-0.3,0.6-0.7,0.8C190.9,97.3,190.7,97.3,190.6,97.2z M190.7,87.9
					c0.1-0.1,0.1-0.2,0.2-0.3c0.1,0,0.3,0,0.3,0c0.3,0.3,0.5,0.6,0.4,1c0,0.1-0.1,0.3-0.2,0.3c-0.1,0.1-0.3,0.1-0.4-0.1
					C190.9,88.5,190.9,88.2,190.7,87.9z M191.3,90.9C191.3,90.9,191.3,90.9,191.3,90.9c0.1-0.2,0.1-0.3,0.1-0.4
					c0-0.1,0.1-0.2,0.2-0.2c0.1,0,0.3,0,0.4,0.2c0.1,0.3,0.2,0.7,0.1,1c-0.1,0.2-0.3,0.3-0.5,0.1C191.5,91.4,191.4,91.2,191.3,90.9z
					 M191.5,94.3c-0.1-0.5,0-0.9,0.5-1.3c0.1,0.1,0.3,0.2,0.3,0.3c0.1,0.4,0.1,0.8-0.2,1.1c-0.1,0.1-0.2,0.2-0.2,0.2
					C191.7,94.5,191.5,94.4,191.5,94.3z"/>
				<path class="st1" d="M189.3,98c-0.4,0.1-0.8,0.2-1,0.7c0.1,0.2,0.3,0.2,0.5,0.2c0.3,0,0.6-0.2,0.8-0.4c0.1-0.1,0.1-0.2,0.1-0.3
					C189.5,98.1,189.4,98,189.3,98z"/>
				<path class="st1" d="M190.5,96.8c0,0.1,0.1,0.3,0.2,0.4c0,0.1,0.2,0.1,0.3,0c0.3-0.2,0.5-0.4,0.7-0.8c0.1-0.3,0-0.4-0.4-0.4
					c-0.1,0.1-0.3,0.2-0.5,0.3C190.6,96.5,190.5,96.7,190.5,96.8z"/>
				<path class="st1" d="M191,87.6c-0.1,0.1-0.1,0.2-0.2,0.3c0.1,0.3,0.2,0.6,0.3,0.9c0.1,0.2,0.3,0.2,0.4,0.1
					c0.1,0,0.2-0.2,0.2-0.3c0-0.4-0.2-0.7-0.4-1C191.2,87.6,191,87.6,191,87.6z"/>
				<path class="st1" d="M191.4,90.9C191.3,90.9,191.3,90.9,191.4,90.9c0.1,0.2,0.1,0.5,0.3,0.6c0.2,0.2,0.4,0.1,0.5-0.1
					c0.1-0.4,0.1-0.7-0.1-1c-0.1-0.2-0.3-0.2-0.4-0.2c-0.1,0-0.2,0.1-0.2,0.2C191.4,90.7,191.4,90.8,191.4,90.9z"/>
				<path class="st1" d="M191.9,93c-0.4,0.4-0.6,0.8-0.5,1.3c0,0.1,0.2,0.2,0.4,0.3c0,0,0.2-0.1,0.2-0.2c0.3-0.3,0.2-0.7,0.2-1.1
					C192.3,93.2,192.1,93.1,191.9,93z"/>
			</g>
			<g id="FGoKul.tif_4_">
				<path class="st1" d="M67.3-3c0-0.2,0-0.5,0-0.7c0,0,0-0.1,0-0.1c0.1-0.5,0.3-1,0.6-1.4C68.5-6,69.2-6.5,70-7.1
					c0.1-0.1,0.1-0.1,0.2-0.2c0.7-1,1.4-2,2.5-2.8c1.1-0.8,2.3-1.2,3.6-0.6c1.2,0.5,2.1,1.3,2.3,2.6C78.7-7,78.8-5.9,79-4.9
					c0.1,0.6,0.1,1.1,0.2,1.7c0.1-0.1,0.1-0.1,0.1-0.2c0.1-1.2,0.2-2.5,0.3-3.7c0-0.4,0-0.9,0.2-1.3c0.5-1.1,1.4-1.9,2.5-2.5
					c0.4-0.2,0.9-0.4,1.3-0.5c0.3,0,0.5,0,0.8,0c0,0,0,0,0.1,0c0.7,0.1,1.2,0.4,1.7,0.8c0.5,0.4,0.9,1,1.3,1.6
					c0.2,0.3,0.5,0.6,0.8,0.9c0.5,0.4,1,0.6,1.5,1c0.7,0.5,1.1,1.1,1.3,1.9c0.1,0.4,0,0.9-0.1,1.3c-0.1,0.7-0.3,1.4-0.7,1.9
					c-1,1.1-2.2,1.8-3.6,2.1c-0.8,0.2-1.7,0.3-2.6,0.4c-0.5,0.1-0.9,0.1-1.4,0.2c0,0,0,0.1,0,0.1c0.2,0,0.5,0,0.7,0
					c1.5,0,2.9,0,4.4,0.1c0.9,0,1.7,0.3,2.4,0.8c0.8,0.5,1.3,1.3,1.4,2.2c0.1,0.7,0,1.4-0.2,2.1c-0.2,0.6-0.4,1.2-1,1.5
					c-0.1,0.1-0.2,0.2-0.3,0.3c-0.6,0.6-1,1.4-1.4,2.2c-0.3,0.6-0.8,1.1-1.3,1.5c-1.1,0.8-2.4,0.7-3.4,0.1c-1-0.6-1.8-1.5-2.4-2.5
					c-0.2-0.3-0.3-0.6-0.4-0.9c-0.1-0.3-0.2-0.7-0.2-1c-0.2-0.6-0.3-1.1-0.5-1.7c0,0,0,0-0.1,0c0,0.2-0.1,0.4-0.1,0.6
					c0,0.8,0,1.6,0.1,2.4c0.1,1.1,0.4,2.1,0.9,3.1c0.3,0.5,0.7,0.9,1.1,1.3c0.4,0.4-0.5,1.4-0.7,1.2c-0.6-0.3-1.1-0.7-1.5-1.3
					c-0.8-1.1-1.3-2.4-1.3-3.8c0-1.4,0.1-2.7,0.1-4.1c0-0.1,0-0.1,0-0.2c-0.3,0.1-0.4,0.2-0.5,0.5c-0.2,0.9-0.4,1.9-0.5,2.8
					c-0.2,0.8-0.3,1.7-0.8,2.4c-0.5,0.7-1.2,1.3-2.1,1.5c-0.7,0.2-1.5,0-2.2-0.1c-0.5-0.1-1-0.3-1.3-0.7c-0.6-0.6-1.1-1.2-1.4-1.9
					c-0.3-0.5-0.5-1-1-1.4c-0.1-0.1-0.2-0.2-0.3-0.3c-0.5-0.5-1-1.1-1.2-1.7c0-0.1,0-0.3,0-0.4c0-0.1,0-0.2,0-0.3
					c0.1-0.7,0.1-1.4,0.4-2c0.8-1.3,1.9-2.2,3.5-2.3c1-0.1,1.9-0.1,2.9-0.1c0.4,0,0.8-0.1,1.3-0.1c0.1,0,0.3,0,0.4-0.2
					c-0.2,0-0.5-0.1-0.7-0.1c-1.1-0.1-2.2-0.2-3.3-0.4c-1-0.1-2-0.4-2.9-0.9C68-1.3,67.3-1.9,67.3-3C67.3-2.9,67.3-3,67.3-3z"/>
			</g>
			<path class="st1" d="M329.2,155.4c-0.6,0-1.3-0.1-1.9-0.2c-0.4-0.1-0.7-0.3-0.6-0.7c0-0.4-0.2-0.7-0.5-0.8
				c-0.1,0-0.1-0.1-0.2-0.2c0.2,0,0.4,0.1,0.6,0.1c-0.1-1.3-0.1-2.6-0.2-4c-0.1,0.1-0.2,0.2-0.4,0.3c0.1-0.1,0.1-0.2,0.2-0.3
				c-0.1,0-0.2,0-0.4,0.1c0.1-0.1,0.2-0.2,0.4-0.3c-0.2,0-0.3,0-0.5,0c0.2-0.1,0.3-0.1,0.3-0.1c-1-0.5-2.1-1-3.1-1.5
				c-0.1,0-0.3,0-0.4,0c-0.2,0.1-0.4,0.2-0.7,0.3c0.2-0.2,0.4-0.3,0.6-0.5c-1-0.7-1.9-1.6-2.4-2.7c-0.2,0.2-0.4,0.3-0.6,0.4
				c0,0,0,0,0,0c0.1-0.1,0.2-0.3,0.4-0.5c-0.3,0-0.4,0-0.6,0c0,0,0,0,0,0c0.2-0.1,0.5-0.1,0.7-0.2c-0.5-1.5-0.7-3.1,0-4.6
				c-0.2-0.1-0.4-0.3-0.7-0.4c0.2,0,0.3,0.1,0.5,0.1c0-0.1-0.1-0.2-0.1-0.3c0.1,0.1,0.2,0.1,0.3,0.2c0-0.1,0-0.2-0.1-0.4
				c0.2,0.3,0.3,0.4,0.4,0.6c1.3-0.5,1.8-0.2,2.4,1.5c0.2-0.1,0.4-0.3,0.6-0.4c0,0,0,0,0.1,0c-0.1,0.1-0.2,0.3-0.3,0.4
				c0.2,0,0.4,0.1,0.7,0.1c-0.4,0.1-0.6,0.1-0.9,0.2c0.1,1.5,0.3,3,1.6,4.1c0.1-0.2,0.3-0.4,0.4-0.6c0,0.1,0,0.1,0,0.2
				c-0.2,0.7-0.2,0.7,0.5,1c0.4,0.1,0.8,0.2,1.2,0.3c0-1.3,0-2.6,0-3.9c-0.3,0-0.5,0-0.8,0c0.2-0.1,0.2-0.1,0.3-0.2
				c-0.1-0.1-0.2-0.1-0.3-0.1c0.1,0,0.2,0,0.4,0c-0.1-0.1-0.2-0.2-0.3-0.3c0.2,0.1,0.4,0.1,0.7,0.2c-0.1-1.6-0.2-3.2-0.2-4.8
				c-0.3,0-0.5,0-0.8,0c0,0,0,0,0,0c0.2-0.1,0.4-0.1,0.6-0.2c-0.1-0.1-0.3-0.2-0.5-0.4c0.2,0.1,0.4,0.1,0.5,0.1c0-1.4,0-2.7,0-4.1
				c-0.2,0-0.5,0-0.8,0c0.2-0.1,0.3-0.1,0.4-0.2c-0.1-0.1-0.1-0.1-0.2-0.2c0.1,0,0.2,0,0.3,0c0,0,0,0,0.1-0.1
				c-0.1,0-0.2-0.1-0.3-0.1c0,0,0-0.1,0.1-0.1c0.2,0.1,0.3,0.1,0.5,0.2c0.2-1.1,0.2-2.3,1.3-3.1c-0.2-0.2-0.4-0.4-0.6-0.6
				c0,0,0,0,0,0c0.2,0.1,0.4,0.2,0.6,0.4c0-0.2,0-0.4,0-0.7c0.1,0.3,0.2,0.6,0.2,0.8c1.8-0.3,2.2,0.2,2.9,1.2
				c0.2-0.1,0.4-0.2,0.6-0.3c0,0,0,0,0,0.1c-0.2,0.1-0.4,0.3-0.5,0.4c0.2,1.4,0.5,2.8,0.7,4.2c0.2-0.1,0.4-0.2,0.7-0.3
				c-0.2,0.2-0.3,0.2-0.4,0.3c0.1,0,0.2,0,0.3,0.1c-0.1,0.1-0.2,0.1-0.3,0.2c0.2,0.1,0.3,0.1,0.4,0.2c0,0,0,0,0,0
				c-0.2,0-0.5,0-0.7,0c0,1.5,0,3.1,0,4.6c0.3,0,0.5,0,0.8,0c-0.3,0.1-0.6,0.2-0.8,0.3c0,0.8,0,1.6,0,2.4c2.3,0,3.8-1.8,3.9-4.4
				c-0.2-0.1-0.5-0.2-0.7-0.3c0,0,0,0,0-0.1c0.2,0,0.5,0,0.8,0.1c0.1-0.2,0.1-0.5,0.2-0.7c0.1-0.3,0.2-0.7,0.4-1
				c0.6-0.8,1.7-0.8,2.2,0c0.3,0.5,0.4,1.1,0.6,1.8c0,0,0.1,0,0.1,0c0.1,0.1,0.1,0.3,0.2,0.4c-0.1,0-0.2,0-0.4,0
				c-0.1,1.8-0.8,3.4-2.2,4.6c0.2,0.2,0.3,0.4,0.5,0.5c0,0,0,0,0,0c-0.1-0.1-0.2-0.1-0.3-0.2c0,0.1,0,0.2,0.1,0.4
				c-0.1-0.1-0.2-0.2-0.3-0.3c0,0.1,0,0.2,0,0.4c0,0,0,0-0.1,0c0-0.1-0.1-0.3-0.1-0.4c-1.1,0.6-2.1,1.2-3.2,1.7
				c0.1,0.1,0.1,0.3,0.2,0.5c0,0,0,0,0,0c-0.1-0.1-0.3-0.3-0.4-0.5c-0.1,0.2-0.1,0.4-0.2,0.6c0,0,0,0-0.1,0c0-0.2,0-0.4,0-0.6
				c-0.3,0.1-0.6,0.1-0.9,0.2c-0.1,0-0.2,0.2-0.2,0.3c0,0.7,0,1.3,0,2c0,0.3,0.1,0.5,0.5,0.5c0.1,0,0.2,0,0.3,0c0,0,0,0.1,0,0.1
				c-0.7,0.2-0.7,0.2-0.7,0.9c0,1.5,0,3,0,4.5c0.2,0,0.5,0.1,0.8,0.1c0,0,0,0,0,0.1c-0.2,0-0.3,0-0.6,0.1c0.1,0.2,0.2,0.3,0.4,0.5
				c-0.3-0.1-0.4-0.2-0.6-0.3c0,0.2-0.1,0.5-0.1,0.7c0,0.4-0.2,0.6-0.6,0.7C330.2,155.3,329.7,155.4,329.2,155.4"/>
			<g id="_x32_55H6N.tif_5_">
				<path class="st1" d="M368.1,5.9c0-0.3,0.1-0.5,0.1-0.8c0.3-1.6,0.9-3.1,1.9-4.4c0,0,0,0,0.1-0.1c0.4,1.6,1.2,3.1,2.2,4.4
					c-0.5,0-0.9,0-1.4,0c0,0,0,0.1,0.1,0.1c0.5,1,1.3,1.7,2.3,2.3c0.9,0.5,2.2,0.1,2.8-0.8c0.3-0.5,0.5-1.1,0.6-1.7
					c0.1-0.6,0.1-1.3,0.2-1.9c0.1-2.1,0.1-4.2,0.2-6.2c0-0.5,0-1,0-1.5c0,0,0-0.1,0-0.2c-0.4,0-0.7,0-1.1,0c-1,0-1.9,0-2.9-0.1
					c-0.1,0-0.1,0-0.1-0.1c-0.4-0.6-0.8-1.2-1.2-1.8c0,0,0,0,0-0.1c0.9,0,1.8,0,2.7,0c0.9,0,1.8,0,2.7,0c0-0.3,0-0.5,0-0.8
					c0-0.3,0-0.5,0-0.8c0-0.1,0-0.1-0.1-0.2c-1-0.5-1.5-1.3-1.5-2.4c0-1.4,1.2-3.6,2.7-3.6c1.6,0,2.8,2.2,2.7,3.7
					c0,1-0.5,1.8-1.5,2.3c0,0-0.1,0.1-0.1,0.1c0,0.6,0,1.1,0,1.7c1.8,0,3.6,0,5.5,0c0,0.1-0.1,0.1-0.1,0.1c-0.4,0.6-0.8,1.2-1.2,1.7
					c-0.1,0.1-0.1,0.1-0.2,0.1c-1.2,0-2.5,0-3.7,0c-0.1,0-0.1,0-0.2,0c0,0.2,0,0.3,0,0.5c0.1,2.4,0.1,4.8,0.2,7.2c0,0.7,0,1.4,0,2.1
					c0,0.5,0.1,1,0.3,1.5c0.4,0.9,1.2,1.4,2.2,1.3c1.2-0.1,2.1-0.6,2.8-1.5c0.2-0.3,0.4-0.5,0.6-0.8c0-0.1,0.1-0.1,0.1-0.2
					c-0.5-0.1-1-0.2-1.6-0.3c1.4-1.1,2.2-2.6,2.8-4.2c1.2,1.1,2,4.2,1.5,5.6c-0.4-0.2-0.8-0.4-1.2-0.6c-0.1,0.6-0.3,1.2-0.5,1.8
					c-0.6,1.2-1.5,2.1-2.7,2.8c-0.8,0.5-1.6,0.8-2.5,1c-0.4,0.1-0.8,0.3-1.2,0.6c-0.9,0.6-1.5,1.3-2,2.3c0,0,0,0,0,0
					c0,0,0-0.1,0-0.1c-0.6-1.3-1.6-2.2-2.9-2.8c-0.2-0.1-0.3-0.1-0.5-0.2c-1.5-0.6-2.9-1.4-4-2.6c-0.8-0.9-1.4-1.8-1.6-2.9
					c0,0,0,0,0,0c-0.4,0.3-0.9,0.6-1.3,0.9C368.1,6.2,368.1,6.1,368.1,5.9z M380-11.1c0-0.8-0.6-1.4-1.4-1.4c-0.8,0-1.5,0.6-1.5,1.4
					c0,0.8,0.7,1.4,1.5,1.4C379.3-9.7,380-10.3,380-11.1z"/>
			</g>
			<g>
				<g id="vEoZTv.tif_96_">
					<path class="st1" d="M88.7,101.1c0,0.1-0.1,0.1-0.1,0.1c0,0,0,0-0.1,0.1c0-0.1,0-0.2,0-0.3c0-0.5,0.5-4.2-2.5-6.4
						c-0.1-0.1-0.2-0.1-0.3-0.3c0.5,3.4-0.1,6.5-1.7,9.5c0,0,0,0-0.1,0c0-0.1,0-0.2,0-0.2c-0.1-1.9-0.4-3.7-0.9-5.6
						c-0.3-1.1-0.7-2.1-1.4-3c-0.8-1.1-1.8-1.3-1.8-1.3s-0.2,0.1-0.3,0.3c-0.4,0.7-0.6,1.4-0.8,2.2c-0.5,1.8-0.8,3.7-1.1,5.6
						c-0.3,2.3-0.2,4-0.1,6.3c0,0.4,0.1,1.3,0.1,1.3h-4.7c0,0,0.4-5.7,1.2-8.5c0.9-3.2,2.4-6,2.6-6.3c0-0.1,1.5-3,1.5-3l-1.6-0.6
						c0,0-3.3-1.3-7.6,1.9c0-0.4,0.9-3.8,3.5-5.9c2-1.6,3.8-1.3,4.1-1.3c-0.2-1.3-1-2.1-2-3c0.2-0.1,3.6-0.1,5.1,0.8
						c0.4,0.3,0.5,0.3,0.9-0.1c1.4-1.4,2.9-1.6,3-1.6c0,0,0.1,0,0.1,0c0,0.1-0.7,1.6-0.6,2.5c0,0.1,0,0.2,0.2,0.3
						c0.2,0,0.4,0.1,0.7,0.1c1,0.1,3.8,0.9,5.8,3.9c0.1,0.1,0.2,0.4,0.2,0.4c-1-0.2-2-0.3-3-0.1c0.4,0.4,2.5,2.4,2.9,5
						C90,94.4,90.5,97.3,88.7,101.1z"/>
				</g>
				<ellipse class="st1" cx="77" cy="92.3" rx="1.4" ry="1.4"/>
				<ellipse class="st1" cx="79.8" cy="94.3" rx="1.2" ry="1.2"/>
			</g>
			<g id="mvIV5B.tif_4_">
				<path class="st1" d="M327.3,241c0-1,0-2,0-3c0-1.2,0.4-1.6,1.6-1.6c1.2,0,1.7,0.4,1.7,1.7c0,1,0,1.9,0,2.9c0,0,0.1,0.1,0.3,0.2
					c0-0.4,0.1-0.7,0.1-1.1c0-0.7,0-1.4,0-2.1c0-1.4,1.4-2.2,2.6-1.4c0.4,0.2,0.6,0.8,0.7,1.2c0.1,1,0,2.1,0.1,3.1
					c0,0.1,0.1,0.1,0.2,0.4c0.1-0.5,0.1-0.8,0.1-1.1c0-2.2,0-4.3,0-6.5c0-0.5,0.4-1.2,0.9-1.5c0.4-0.2,1.2-0.2,1.6,0.1
					c0.4,0.2,0.7,0.8,0.7,1.3c0,5.6,0.1,11.3,0,16.9c0,2.6-2.3,4.9-5,5c-2,0.1-4,0.2-6,0c-3.3-0.4-5.1-2.6-6.2-5.4
					c-0.4-1.1-0.5-2.2-0.6-3.4c-0.1-2.1,0-4.2,0-6.3c1.8-0.2,3.2,1.1,3.2,2.9c0,0.9,0,1.9,0,2.8c0.1,0,0.2,0,0.3,0
					c0-0.3,0.1-0.6,0.1-0.9c0-4.6,0-9.1,0-13.7c0-1.1,0.5-1.7,1.3-1.8c1.1-0.2,1.9,0.6,1.9,1.8c0,2.8,0,5.7,0,8.5c0,0.3,0,0.7,0,1
					C327,241,327.2,241,327.3,241z"/>
			</g>
			<g id="JeGfOL.tif_7_">
				<path class="st1" d="M191.4,284.6c-2.5,2.4-4.9,4.8-7.4,7.2c-2.4-2.4-4.9-4.8-7.2-7.1c-1.1,1.1-2.2,2.2-3.4,3.3
					c2.4,2.3,4.8,4.7,7.3,7.2c-2.4,2.4-4.8,4.7-7.2,7c1.1,1.1,2.2,2.1,3.4,3.3c2.4-2.3,4.8-4.7,7.3-7.2c2.4,2.3,4.8,4.7,7.2,7
					c1.1-1,2.1-2.1,3.3-3.2c-2.4-2.3-4.8-4.7-7.4-7.2c2.5-2.4,4.9-4.8,7.3-7.2C193.7,286.8,192.6,285.7,191.4,284.6z"/>
			</g>
			<g id="JeGfOL.tif_6_">
				<path class="st1" d="M384.1,179.3c-2.5,2.4-4.9,4.8-7.4,7.2c-2.4-2.4-4.9-4.8-7.2-7.1c-1.1,1.1-2.2,2.2-3.4,3.3
					c2.4,2.3,4.8,4.7,7.3,7.2c-2.4,2.4-4.8,4.7-7.2,7c1.1,1.1,2.2,2.1,3.4,3.3c2.4-2.3,4.8-4.7,7.3-7.2c2.4,2.3,4.8,4.7,7.2,7
					c1.1-1,2.1-2.1,3.3-3.2c-2.4-2.3-4.8-4.7-7.4-7.2c2.5-2.4,4.9-4.8,7.3-7.2C386.3,181.5,385.3,180.5,384.1,179.3z"/>
			</g>
			<path class="st1" d="M239.2,350.9c-0.3-0.2-0.8-0.7-1.2-0.7c-0.4,0-1,0.5-1.2,0.7c-1.1,1.2-2.7,6.4-2.8,7.2
				c-0.1,0.3-0.4,0.5-0.5,0.8c-0.3-0.2-0.6-0.3-0.8-0.6c-1.4-2.5-2.2-5.2-1.4-8.1c0.4-1.6,0.4-3.1-0.1-4.6c-0.6-2.1-1.1-4.2-1.3-6.3
				c-0.4-3,1.1-5,4-5.3c0.9-0.1,1.8,0.3,2.7,0.3c1.4,0,2.9,0,4.3-0.2c3.2-0.5,5.7,1.5,5.5,4.7c-0.1,1.9-0.6,3.9-1.1,5.7
				c-0.6,2.2-0.8,4.3-0.3,6.5c0.6,2.6-0.3,5.1-1.5,7.4c-0.1,0.3-0.5,0.4-0.8,0.6c-0.2-0.2-0.4-0.5-0.5-0.7
				C241.9,357.3,240.2,351.8,239.2,350.9z"/>
			<path class="st1" d="M320.8,360c0.3-0.2,0.3-0.6,0.3-0.9c0.1-0.6,0.1-1.3,0.2-1.9c0.1-0.6,0.3-1.2,0.3-1.9c0.3-3.4,1.6-6.4,3.8-9
				c1.3-1.5,2.7-2.8,4.5-3.6c1.6-0.7,3.3-1.4,4.9-2.2c0.7-0.4,1.5-0.4,2.3-0.1c0.4,0.1,0.8,0.3,1.2,0.4c0.3,0.1,0.6,0.1,0.9,0.1
				c0.3,0,0.7-0.1,1,0c0.6,0.2,1,0,1.5-0.3c0.2-0.1-0.4-0.9-0.5-1.5c-0.1-0.4-0.3-0.5-0.6-0.5c-0.5,0-1,0-1.5-0.1
				c-0.1,0-0.1,0.1-0.2,0.1c-0.3,0.1-0.6,0.2-0.9,0.1c-0.7-0.2-1.5-0.5-2.2-0.8c-0.6-0.3-1.1-0.8-1.8-1.1c-1.7-0.9-3.4-1-5.2-0.3
				c-3.5,1.2-6.4,3.3-9,6.4c-0.4,0.5-0.9,1.3-1.4,2.1c-1.1,1.8-1.9,3.7-2.2,5.8c-0.6,3.4,0.4,6.3,2.5,9
				C319.3,360.7,320,360.5,320.8,360z"/>
			<path class="st1" d="M-19.7,400.6c0.3,0,0.7-0.1,0.9-0.4c0,0,0.1,0,0.1,0c1.6,2.2,6.4,4.1,9.6,4.2c0.6,0,1,0.1,1.4-0.5
				c0.5-0.7,1.8-11.6,0.4-13.1c-1-1-10.7,2.2-11.4,4c-0.2-0.1-0.3-0.3-0.5-0.4c-0.3,0-0.7,0.1-1-0.1c-0.5-0.3-1-0.3-1.4-0.1
				c-0.3,0.2-0.7,0-0.9,0.1c-0.2,0.1-0.3,0.2-0.5,0.4c-0.7-1.8-10.4-5-11.4-4c-1.4,1.5-0.1,12.4,0.4,13.1c0.4,0.6,0.8,0.5,1.4,0.5
				c3.2-0.1,8-2,9.6-4.2c0,0,0.1,0,0.1,0c0.2,0.3,0.6,0.4,0.9,0.4l0.7-0.1l0.8,0.3c0.2,0.1,0.4,0,0.6-0.1L-19.7,400.6z"/>
			<path class="st1" d="M-13.4,306.1C-13.4,306.2-13.5,306.2-13.4,306.1c-0.2,0.9-0.3,1-1.2,1c-2.2,0-4.5,0-6.7,0
				c-0.3,0-0.6-0.1-0.9-0.1c-0.3,0-0.4,0.1-0.4,0.3c-0.1,0.9,0.1,1.7,1,2.1c0.4,0.2,1.2,0.4,1.7,0.5c0.8,0.1,1.3,0.3,2.1,0.1
				c0.5-0.1,0.6-0.4,0.5-0.8c-0.1-0.3-0.2-0.5-0.3-0.8c0-0.2,0-0.5,0.1-0.6c0.2-0.1,0.5-0.1,0.6,0c0.7,0.4,1,1,1,1.8
				c0,0.7-0.4,1.2-1.1,1.4c-0.6,0.2-2.1,0.4-3.4,0.1c-1.5-0.4-2.1-0.7-2.7-1c-0.6-0.4-1.1-1.2-1.2-1.9c-0.1-1,0-2,0.5-2.9
				c0.4-0.7,0.2-1.4,0.2-2c-0.1-0.9-0.3-2.1-0.3-3c0-1.2,0-2,0.2-3.2c0.1-0.7,0.5-1.3,0.8-2c0.5-1,1.1-2,1.9-2.8
				c0.5-0.6,1.2-0.9,1.9-1.1c1.2-0.3,2-1.1,2.7-2c0.2-0.3,0.4-0.6,0.3-1c0-1.2,0.4-2.2,1.2-3.1c0.2-0.2,0.4-0.4,0.6-0.5
				c0.8-0.2,1-0.9,1.4-1.5c0.1-0.3,0.3-0.5,0.5-0.8c0.2-0.2,0.5-0.6,0.7-0.4c0.1,0.2,0.3,0.6,0.3,0.8c0.1,0.5,0.2,0.7,0.1,1.2
				c0,0.4,0.2,0.6,0.6,0.7c0.5,0.1,1,0.4,1.3,0.9c0.2,0.3,0.5,0.6,0.8,0.6c0.7,0.2,0.6,0.5,0.5,1c-0.2,0.7-0.6,1.2-1.3,1.5
				c-0.6,0.3-0.8,0.7-0.7,1.4c0.2,1.1,0.2,2.1,0.3,3.2c0.1,1-0.3,2-1,2.8c-0.8,1-1.2,2.1-1.2,3.4c0,1.4,0,2.9,0,4.3
				c0,0.6,0.1,1.1,0.7,1.2c0.2,0,1,0.3,1.1,0.5c0.1,0.2,0.2,0.9-0.1,1c-0.1,0-0.4,0.1-0.8,0.1c-0.8,0.1-1.6,0.2-2.2-0.4
				C-13.2,306.3-13.3,306.2-13.4,306.1z M-13.7,305.7c-0.2-0.5-0.4-1.2-0.5-1.9c-0.2,0.4-0.6,1.1-1,1.5
				C-14.7,305.4-14.2,305.5-13.7,305.7z"/>
			<path class="st1" d="M292.6,287.4C292.6,287.4,292.6,287.4,292.6,287.4c-0.5-0.4-0.9-0.6-1.6-0.5c-1.9,0.1-3,0.9-3,0.9
				s0.8-1.8,3.6-1.7c-0.5-0.8-2.8-0.4-4-0.1c-0.1,0,1.8-3.8,2.3-4.3c0,0,0,0,0,0c-1.9,0.6-3.6,2.3-3.6,2.3c-0.1-1.5-0.6-3.9-1.1-4.5
				l0,0c-0.5,0.6-1,3.1-1.1,4.5c0,0-1.6-1.7-3.6-2.3c0,0,0,0,0,0c0.5,0.5,2.4,4.4,2.3,4.3c-1.2-0.3-3.5-0.6-4,0.1
				c2.8-0.1,3.6,1.7,3.6,1.7s-1.1-0.8-3-0.9c-0.6,0-1.1,0.1-1.5,0.5c0,0,0,0,0,0c0.9-0.2,4,1.8,4.2,3.2c0,0-1-0.3-1.3-0.4
				c-0.8-0.1-1.4,0-2.2,0.3c-0.2,0.1-0.6,0.3-0.7,0.5c1.5-0.6,3.7,0.2,4.5,1.3c0.2,0.3,0.4,0.7,0.4,0.9c-0.3-0.1-0.6-0.1-0.9-0.2
				c-1.3-0.2-2.6,0.3-3.2,1.4c0,0-0.1,0.1-0.1,0.2c1.1-1,2.6-1.3,3.8-0.4c-0.4,0-0.9-0.1-1.3,0.1c-0.4,0.2-0.8,0.4-1.1,0.7
				c0.9-0.3,1.9-0.3,2.8,0.2c-0.3,0.1-0.5,0.4-0.7,0.6c-0.6,0.3-1.2,0.5-1.4,1.2c-0.1,0.4-0.5,0.8-0.7,1.1c-0.2,0.3-0.5,0.5-0.6,0.8
				c-0.1,0.4-0.2,0.6-0.3,0.9c-0.2,0.3-0.2,0.7-0.3,1.1c-0.1,0.2-0.2,0.4-0.2,0.6c-0.1,0.3,0,0.5-0.1,0.8c-0.2,1-0.1,2.3-0.1,3.4
				c0,1.2,0.5,2.8,1.2,3.7c0.8,1.2,2,1.8,3.4,1.9c0.7,0.1,1.5,0.2,2.2,0.2v0c0.8-0.1,1.5-0.1,2.2-0.2c1.4-0.1,2.6-0.7,3.4-1.9
				c0.7-1,1.1-2.5,1.2-3.7c0-1.1,0.1-2.4-0.1-3.4c-0.1-0.2,0-0.5-0.1-0.8c0-0.2-0.1-0.4-0.2-0.6c-0.1-0.4-0.1-0.7-0.3-1.1
				c-0.2-0.3-0.2-0.5-0.3-0.9c-0.1-0.4-0.4-0.6-0.6-0.8c-0.3-0.3-0.6-0.7-0.7-1.1c-0.2-0.7-0.8-0.9-1.4-1.2
				c-0.3-0.1-0.4-0.4-0.7-0.6c0.9-0.5,1.8-0.6,2.8-0.2c-0.3-0.3-0.7-0.5-1.1-0.7c-0.4-0.2-0.8-0.1-1.3-0.1c1.2-0.9,2.7-0.7,3.8,0.4
				c0-0.1-0.1-0.1-0.1-0.2c-0.6-1.1-1.9-1.6-3.2-1.4c-0.3,0-0.6,0.1-0.9,0.2c-0.1-0.2,0.2-0.6,0.4-0.9c0.7-1.1,2.9-2,4.5-1.3
				c-0.1-0.2-0.5-0.4-0.7-0.5c-0.7-0.2-1.4-0.4-2.2-0.3c-0.3,0-1.3,0.4-1.3,0.4C288.7,289.2,291.7,287.2,292.6,287.4z"/>
			<path class="st1" d="M85.3,290.8c-2,0.5-2.9,0.7-3.9,0.8c-0.2,0-0.3,0-0.5,0c-0.2,0-0.3,0-0.5,0c-0.9-0.1-1.9-0.3-3.9-0.8
				c-2.9-0.8-8-1-11-0.1c0,0.6,0.1,1.2,0.2,1.8c0,0.1,0.2,0.1,0.3,0.1c0.5,0.2,0.5,0.7,0.6,1.1c0.3,1.2,0.6,2.3,1,3.5
				c0.4,1.2,1.2,2,2.4,2.3c1.3,0.3,2.7,0.5,4,0.3c1.9-0.2,3.4-1,4.3-2.7c0.5-1,1-2.1,1.5-3.1c0.1-0.2,0.3-0.5,0.5-0.6
				c0.2-0.1,0.3-0.1,0.5-0.1c0.2,0,0.3,0,0.5,0.1c0.2,0.1,0.4,0.4,0.5,0.6c0.5,1,0.9,2.1,1.5,3.1c0.9,1.7,2.4,2.5,4.3,2.7
				c1.4,0.2,2.7,0,4-0.3c1.3-0.3,2.1-1.1,2.4-2.3c0.4-1.1,0.7-2.3,1-3.5c0.1-0.4,0.1-0.9,0.6-1.1c0.1,0,0.3,0,0.3-0.1
				c0.1-0.6,0.2-1.2,0.2-1.8C93.4,289.9,88.2,290,85.3,290.8z"/>
			<path class="st1" d="M333.3,444.5c-2,0.5-2.9,0.7-3.9,0.8c-0.2,0-0.3,0-0.5,0c-0.2,0-0.3,0-0.5,0c-0.9-0.1-1.9-0.3-3.9-0.8
				c-2.9-0.8-8-1-11-0.1c0,0.6,0.1,1.2,0.2,1.8c0,0.1,0.2,0.1,0.3,0.1c0.5,0.2,0.5,0.7,0.6,1.1c0.3,1.2,0.6,2.3,1,3.5
				c0.4,1.2,1.2,2,2.4,2.3c1.3,0.3,2.7,0.5,4,0.3c1.9-0.2,3.4-1,4.3-2.7c0.5-1,1-2.1,1.5-3.1c0.1-0.2,0.3-0.5,0.5-0.6
				c0.2-0.1,0.3-0.1,0.5-0.1c0.2,0,0.3,0,0.5,0.1c0.2,0.1,0.4,0.4,0.5,0.6c0.5,1,0.9,2.1,1.5,3.1c0.9,1.7,2.4,2.5,4.3,2.7
				c1.4,0.2,2.7,0,4-0.3c1.3-0.3,2.1-1.1,2.4-2.3c0.4-1.1,0.7-2.3,1-3.5c0.1-0.4,0.1-0.9,0.6-1.1c0.1,0,0.3,0,0.3-0.1
				c0.1-0.6,0.2-1.2,0.2-1.8C341.3,443.6,336.2,443.8,333.3,444.5z"/>
			<g>
				<path class="st1" d="M122.5,348.6c-0.5,1.7-0.6,3.5-0.4,5.3c0.1,0.5,0.2,1,0.4,1.6c0.2,0.7,0.5,1.3,0.9,1.9
					c0.8,1.1,1.8,1.8,3.1,2.3c1,0.4,2.1,0.4,3.2,0.6c0.3,0,0.6,0,0.9,0c0.6-0.1,1.2-0.1,1.8-0.2c1.4-0.3,2.7-0.8,3.7-1.8
					c1.2-1.2,1.7-2.6,1.9-4.2c0.1-1.2,0-2.4-0.2-3.6c-0.2-1.3-0.7-2.6-1.2-3.9c-0.1-0.3-0.3-0.7-0.4-1c0-0.1,0-0.2,0.1-0.2
					c0.1,0,0.2-0.1,0.3-0.1c0.2,0,0.3,0,0.5,0c0.5,0,0.5,0,0.5-0.5c0-0.4,0-0.8,0-1.2c0-0.3-0.1-0.4-0.4-0.4c-1.2,0-2.4,0-3.5,0
					c-0.5,0-0.6,0.1-0.6,0.6c0,0.4,0.1,0.7,0.2,1c0.3,0.6,0.6,1.2,0.9,1.8c0.2,0.5,0.4,1,0.5,1.5c0.2,1,0.5,2.1,0.7,3.1
					c0.2,1.2,0.2,2.4-0.2,3.6c-0.4,1.5-1.5,2.3-3,2.7c-0.8,0.2-1.6,0.3-2.5,0.3c-1.5-0.1-2.7-0.7-3.7-1.9c-0.4-0.5-0.8-1.1-1-1.7
					c-0.1-0.5-0.2-1.1-0.3-1.6c-0.3-1.9,0.1-3.7,0.8-5.5c0.3-0.9,0.7-1.7,1.2-2.5c0.2-0.3,0.3-0.7,0.3-1.1c0-0.3-0.1-0.4-0.4-0.4
					c-0.7,0-1.3,0-2,0c-0.6,0-1.3,0-1.9,0c-0.2,0-0.4,0.1-0.4,0.3c0,0.5,0,0.9,0,1.4c0,0.2,0.1,0.3,0.3,0.3c0.3,0,0.5,0,0.8,0
					c0.3,0,0.3,0.1,0.2,0.4c-0.3,0.6-0.6,1.2-0.8,1.9C122.7,347.7,122.6,348.1,122.5,348.6z M122.9,353.9c0.1-0.3,0.1-0.5,0.2-0.6
					c0.1-0.2,0.2-0.2,0.4-0.1c0.3,0.2,0.5,1,0.3,1.3c-0.1,0.2-0.4,0.3-0.5,0.2C123.1,354.4,123,354.1,122.9,353.9z M123,350.8
					c0-0.3,0-0.5,0.1-0.6c0-0.1,0.2-0.3,0.2-0.3c0.1,0,0.3,0.1,0.4,0.2c0.2,0.3,0.1,0.9-0.3,1.1c-0.1,0-0.2,0-0.2,0
					C123.1,351.1,123,350.9,123,350.8z M123.4,348.3c-0.1-0.5,0.2-0.9,0.7-1.1c0.1,0.1,0.1,0.1,0.2,0.2c0.2,0.3,0,1-0.3,1.2
					c-0.1,0.1-0.2,0.1-0.3,0.1C123.5,348.5,123.4,348.4,123.4,348.3z M123.9,355.8c0.1-0.1,0.1-0.2,0.2-0.2c0.2,0,0.4,0,0.5,0.1
					c0.2,0.2,0.3,0.4,0.4,0.7c0.1,0.2,0,0.3-0.1,0.4c-0.1,0-0.3,0.1-0.3,0C124.1,356.5,124,356.2,123.9,355.8z M125.6,357.7
					c-0.1-0.2-0.1-0.3,0.1-0.3c0.3-0.1,1,0.2,1.1,0.4c0,0,0,0.1,0,0.1c0,0.4-0.2,0.5-0.5,0.4C126,358.2,125.7,358,125.6,357.7z
					 M128.3,359c-0.3-0.1-0.5-0.3-0.4-0.4c0.1-0.3,0.3-0.2,0.6-0.3c0.1,0,0.4,0.1,0.6,0.1c0.1,0,0.3,0.1,0.3,0.3
					c0,0.2-0.1,0.3-0.3,0.3C128.7,359.1,128.5,359.1,128.3,359z M130.7,359.1c-0.3-0.1-0.4-0.2-0.2-0.5c0-0.1,0.2-0.2,0.3-0.2
					c0.3,0,0.5-0.1,0.8,0c0.2,0,0.3,0.1,0.3,0.2c0,0.2-0.1,0.4-0.3,0.4c-0.1,0-0.3,0-0.4,0.1C131,359.2,130.8,359.2,130.7,359.1z
					 M133.2,358.3c0-0.1,0-0.3,0.1-0.3c0.2-0.1,0.4-0.3,0.6-0.3c0.2-0.1,0.5,0,0.6,0.2c-0.2,0.4-0.6,0.6-1,0.6
					C133.4,358.5,133.3,358.4,133.2,358.3z M135.4,356.6c0-0.1,0-0.2,0.1-0.3c0.2-0.2,0.4-0.4,0.6-0.6c0.1-0.1,0.4-0.1,0.4,0
					c0.1,0.1,0.1,0.3,0,0.5c-0.1,0.2-0.3,0.4-0.5,0.6c-0.1,0.1-0.3,0.2-0.3,0.1C135.5,356.9,135.4,356.7,135.4,356.6z M135.7,347.9
					c-0.1-0.3-0.1-0.6,0.3-0.8c0.4,0.3,0.6,0.6,0.6,1.1c0,0.2-0.2,0.4-0.3,0.3C135.9,348.4,135.8,348.2,135.7,347.9z M136.6,351.3
					c-0.3-0.2-0.4-0.8-0.3-1.1c0.1-0.1,0.2-0.2,0.4-0.3c0,0,0.2,0.1,0.2,0.2c0.1,0.1,0.1,0.3,0.1,0.5c-0.1,0.2-0.1,0.4-0.2,0.6
					C136.8,351.4,136.7,351.4,136.6,351.3z M136.5,354c-0.2-0.3-0.1-1,0.2-1.3c0.1-0.1,0.2-0.1,0.3,0c0.1,0,0.2,0.1,0.2,0.2
					c0,0.1,0,0.2,0,0.2c0,0.4,0,0.6-0.2,0.9C136.8,354.3,136.6,354.3,136.5,354z"/>
				<path class="st1" d="M123.1,353.3c-0.1,0.2-0.1,0.4-0.2,0.6c0.1,0.2,0.2,0.5,0.4,0.7c0.1,0.1,0.4,0,0.5-0.2
					c0.1-0.3,0-1.1-0.3-1.3C123.3,353.1,123.2,353.1,123.1,353.3z"/>
				<path class="st1" d="M123.1,350.2c-0.1,0.2-0.1,0.4-0.1,0.6c0,0.1,0.1,0.3,0.2,0.5c0,0,0.2,0,0.2,0c0.3-0.2,0.5-0.8,0.3-1.1
					c-0.1-0.1-0.2-0.2-0.4-0.2C123.3,349.9,123.1,350.1,123.1,350.2z"/>
				<path class="st1" d="M124,347.1c-0.5,0.2-0.7,0.7-0.7,1.1c0,0.1,0.1,0.2,0.2,0.3c0.1,0,0.2,0,0.3-0.1c0.3-0.2,0.5-0.8,0.3-1.2
					C124.2,347.2,124.1,347.2,124,347.1z"/>
				<path class="st1" d="M124,355.6c-0.1,0-0.1,0.2-0.2,0.2c0.1,0.4,0.3,0.7,0.6,0.9c0.1,0.1,0.3,0,0.3,0c0.1-0.1,0.2-0.2,0.1-0.4
					c-0.1-0.2-0.3-0.5-0.4-0.7C124.4,355.6,124.2,355.6,124,355.6z"/>
				<path class="st1" d="M125.6,357.4c-0.2,0.1-0.2,0.2-0.1,0.3c0.2,0.3,0.4,0.5,0.7,0.6c0.3,0.1,0.5,0,0.5-0.4c0,0,0-0.1,0-0.1
					C126.7,357.6,125.9,357.3,125.6,357.4z"/>
				<path class="st1" d="M127.8,358.6c0,0.2,0.1,0.4,0.4,0.4c0.2,0,0.5,0,0.7,0c0.2,0,0.3-0.1,0.3-0.3c0-0.2-0.1-0.3-0.3-0.3
					c-0.2-0.1-0.4-0.1-0.6-0.1C128.1,358.3,127.9,358.3,127.8,358.6z"/>
				<path class="st1" d="M129.6,344.4c-0.1,1.1-0.1,2.3,0.1,3.4c0.2,1,0.6,2,1.2,2.9c0.6,1,1.5,1.7,2.6,2.1c0.3,0.1,0.6,0.2,0.9,0.3
					c0.3,0.1,0.6-0.1,0.6-0.4c-0.1-0.7-0.1-1.4-0.2-2.1c0-0.2-0.2-0.4-0.4-0.6c-0.7-0.6-1.3-1.3-1.7-2.2c-0.3-0.7-0.5-1.5-0.5-2.3
					c-0.1-1.7,0.1-3.3,0.7-4.8c0.3-0.8,0.7-1.6,1.1-2.4c0.1-0.2,0.3-0.4,0.4-0.6c0.2-0.3,0.2-0.7,0.2-1.1c0-0.2-0.2-0.2-0.4-0.2
					c-0.3,0-0.6,0-1,0c-0.4,0-0.7,0-1.1,0v0c-0.6,0-1.2,0-1.9,0c-0.3,0-0.4,0.1-0.4,0.4c0,0.4,0,0.8,0,1.2c0,0.3,0.1,0.4,0.4,0.4
					c0.3,0,0.5,0,0.8,0c0.2,0,0.2,0.1,0.2,0.3c-0.2,0.5-0.5,1.1-0.7,1.6c-0.2,0.4-0.4,0.9-0.4,1.3
					C129.9,342.7,129.6,343.5,129.6,344.4z M130.5,344.4c0-0.3,0.1-0.6,0.3-0.8c0.1-0.2,0.3-0.2,0.4,0c0.2,0.3,0.1,1.1-0.2,1.3
					C130.7,344.8,130.5,344.7,130.5,344.4z M130.9,348.3c-0.5-0.4-0.5-0.8-0.4-1.3c0-0.2,0.2-0.3,0.4-0.3c0.2,0,0.2,0.1,0.3,0.3
					c0,0.1,0.1,0.2,0.1,0.3C131.4,347.8,131.3,348,130.9,348.3z M130.8,341.8c0.1-0.3,0.2-0.6,0.4-0.9c0.1-0.1,0.3-0.1,0.4-0.1
					c0.1,0,0.1,0.2,0.1,0.3c0,0.3-0.1,0.6-0.3,0.9c-0.1,0.1-0.2,0.2-0.3,0.1C131,342,130.9,341.9,130.8,341.8z M132.2,350.3
					c-0.4,0-0.9-0.7-0.8-1c0-0.1,0-0.1,0.1-0.1c0.1,0,0.2-0.1,0.2,0c0.4,0.2,0.7,0.4,0.8,0.9C132.6,350.2,132.5,350.3,132.2,350.3z
					 M132.9,351.1c0.1-0.1,0.2-0.2,0.3-0.2c0.3-0.1,1,0.2,1.1,0.5c0,0.1,0,0.2-0.1,0.4c0,0-0.2,0.1-0.2,0
					C133.6,351.8,133.2,351.5,132.9,351.1z"/>
				<path class="st1" d="M130.7,343.6c-0.2,0.2-0.3,0.5-0.3,0.8c0,0.3,0.3,0.4,0.5,0.5c0.3-0.3,0.4-1,0.2-1.3
					C131,343.4,130.9,343.4,130.7,343.6z"/>
				<path class="st1" d="M130.5,358.7c-0.1,0.2,0,0.4,0.2,0.5c0.1,0,0.3,0,0.4,0c0.2,0,0.3,0,0.4-0.1c0.2-0.1,0.3-0.2,0.3-0.4
					c0-0.2-0.2-0.2-0.3-0.2c-0.3,0-0.5,0-0.8,0C130.6,358.5,130.5,358.6,130.5,358.7z"/>
				<path class="st1" d="M130.5,347c-0.1,0.5-0.1,0.9,0.4,1.3c0.4-0.3,0.5-0.5,0.4-1c0-0.1-0.1-0.2-0.1-0.3
					c-0.1-0.1-0.1-0.3-0.3-0.3C130.7,346.7,130.5,346.8,130.5,347z"/>
				<path class="st1" d="M131.2,340.9c-0.2,0.3-0.3,0.6-0.4,0.9c0.1,0.1,0.2,0.2,0.3,0.3c0.2,0.1,0.3,0,0.3-0.1
					c0.2-0.3,0.3-0.6,0.3-0.9c0-0.1-0.1-0.3-0.1-0.3C131.5,340.8,131.3,340.8,131.2,340.9z"/>
				<path class="st1" d="M131.5,349.3c-0.1,0.4,0.4,1,0.8,1c0.2,0,0.3-0.1,0.3-0.4c-0.1-0.4-0.4-0.7-0.8-0.9c-0.1,0-0.1,0-0.2,0
					C131.5,349.2,131.5,349.2,131.5,349.3z"/>
				<path class="st1" d="M133.3,350.9c-0.1,0-0.2,0.1-0.3,0.2c0.3,0.4,0.6,0.7,1.1,0.8c0.1,0,0.2,0,0.2,0c0.1-0.1,0.1-0.3,0.1-0.4
					C134.2,351.2,133.6,350.9,133.3,350.9z"/>
				<path class="st1" d="M133.3,358c-0.1,0.1-0.2,0.3-0.1,0.3c0.1,0.1,0.2,0.2,0.4,0.2c0.4,0,0.8-0.2,1-0.6
					c-0.2-0.2-0.4-0.3-0.6-0.2C133.7,357.7,133.5,357.9,133.3,358z"/>
				<path class="st1" d="M135.5,356.3c0,0.1-0.1,0.1-0.1,0.3c0.1,0.1,0.1,0.3,0.2,0.3c0.1,0,0.3,0,0.3-0.1c0.2-0.2,0.4-0.4,0.5-0.6
					c0.1-0.1,0-0.3,0-0.5c0,0-0.3,0-0.4,0C135.8,355.9,135.7,356.1,135.5,356.3z"/>
				<path class="st1" d="M136,347.1c-0.3,0.2-0.3,0.5-0.3,0.8c0.1,0.3,0.2,0.5,0.5,0.6c0.2,0.1,0.3-0.1,0.3-0.3
					C136.6,347.8,136.4,347.4,136,347.1z"/>
				<path class="st1" d="M136.3,350.2c-0.2,0.3,0,0.9,0.3,1.1c0.1,0.1,0.2,0.1,0.3,0c0.1-0.2,0.1-0.4,0.2-0.6c0-0.2-0.1-0.4-0.1-0.5
					c0-0.1-0.2-0.3-0.2-0.2C136.6,350,136.4,350.1,136.3,350.2z"/>
				<path class="st1" d="M136.7,352.8c-0.3,0.2-0.3,1-0.2,1.3c0.1,0.3,0.3,0.3,0.5,0c0.2-0.2,0.3-0.5,0.2-0.9c0,0,0-0.2,0-0.2
					c0-0.1-0.1-0.2-0.2-0.2C136.9,352.7,136.7,352.7,136.7,352.8z"/>
				<path class="st1" d="M138.6,351.2c-0.3,0.2-0.2,2.1,0.1,2.2c0.1,0,0.2,0,0.2,0c0.4-0.1,0.8-0.1,1.3-0.2c0.8-0.2,1.5-0.5,2.2-0.8
					c1-0.5,1.8-1.3,2.3-2.3c0.3-0.5,0.4-1.1,0.6-1.7c0.4-1.8,0.2-3.6-0.1-5.4c-0.3-1.3-0.7-2.5-1.2-3.7c0-0.1-0.1-0.2-0.1-0.4
					c-0.1-0.2,0-0.4,0.3-0.4c0.3,0,0.6,0,0.8,0c0.2,0,0.3-0.1,0.3-0.2c0-0.5,0-1,0-1.6c0-0.2-0.1-0.2-0.3-0.2c-0.6,0-1.3,0-1.9,0
					c-0.6,0-1.2,0-1.9,0c-0.4,0-0.4,0.1-0.5,0.5c-0.1,0.6,0.2,1,0.5,1.5c0.2,0.4,0.4,0.8,0.6,1.3c0.2,0.4,0.3,0.8,0.4,1.2
					c0.5,1.7,0.9,3.5,0.9,5.4c0,0.9-0.2,1.7-0.5,2.5c-0.2,0.5-0.5,0.9-0.9,1.2c-0.7,0.6-1.6,1-2.6,1.1
					C138.8,351.1,138.7,351.2,138.6,351.2z M140.7,351.9c0.2-0.5,0.6-0.6,1-0.7c0.1,0,0.3,0.1,0.3,0.2c0,0.1,0,0.2-0.1,0.3
					c-0.2,0.2-0.5,0.4-0.8,0.4C141,352.1,140.8,352.1,140.7,351.9z M143.1,350.4c-0.1-0.1-0.2-0.3-0.2-0.4c0-0.2,0.2-0.3,0.3-0.4
					c0.2-0.1,0.3-0.3,0.5-0.3c0.3,0,0.5,0.2,0.4,0.4c-0.1,0.3-0.3,0.6-0.7,0.8C143.3,350.5,143.1,350.5,143.1,350.4z M143.2,341.1
					c0.1-0.1,0.1-0.2,0.2-0.3c0.1,0,0.3,0,0.3,0c0.3,0.3,0.5,0.6,0.4,1c0,0.1-0.1,0.3-0.2,0.3c-0.1,0.1-0.3,0.1-0.4-0.1
					C143.4,341.7,143.3,341.4,143.2,341.1z M143.7,344.2C143.8,344.1,143.8,344.1,143.7,344.2c0.1-0.2,0.1-0.3,0.1-0.4
					c0-0.1,0.1-0.2,0.2-0.2c0.1,0,0.3,0,0.4,0.2c0.1,0.3,0.2,0.7,0.1,1c-0.1,0.2-0.3,0.3-0.5,0.1
					C143.9,344.6,143.8,344.4,143.7,344.2z M143.9,347.5c-0.1-0.5,0-0.9,0.5-1.3c0.1,0.1,0.3,0.2,0.3,0.3c0.1,0.4,0.1,0.8-0.2,1.1
					c-0.1,0.1-0.2,0.2-0.2,0.2C144.2,347.7,144,347.6,143.9,347.5z"/>
				<path class="st1" d="M141.7,351.2c-0.4,0.1-0.8,0.2-1,0.7c0.1,0.2,0.3,0.2,0.5,0.2c0.3,0,0.6-0.2,0.8-0.4
					c0.1-0.1,0.1-0.2,0.1-0.3C141.9,351.3,141.8,351.2,141.7,351.2z"/>
				<path class="st1" d="M142.9,350.1c0,0.1,0.1,0.3,0.2,0.4c0,0.1,0.2,0.1,0.3,0c0.3-0.2,0.5-0.4,0.7-0.8c0.1-0.3,0-0.4-0.4-0.4
					c-0.1,0.1-0.3,0.2-0.5,0.3C143.1,349.7,143,349.9,142.9,350.1z"/>
				<path class="st1" d="M143.4,340.8c-0.1,0.1-0.1,0.2-0.2,0.3c0.1,0.3,0.2,0.6,0.3,0.9c0.1,0.2,0.3,0.2,0.4,0.1
					c0.1,0,0.2-0.2,0.2-0.3c0-0.4-0.2-0.7-0.4-1C143.6,340.8,143.5,340.8,143.4,340.8z"/>
				<path class="st1" d="M143.8,344.1C143.8,344.1,143.8,344.1,143.8,344.1c0.1,0.2,0.1,0.5,0.3,0.6c0.2,0.2,0.4,0.1,0.5-0.1
					c0.1-0.4,0.1-0.7-0.1-1c-0.1-0.2-0.3-0.2-0.4-0.2c-0.1,0-0.2,0.1-0.2,0.2C143.8,343.9,143.8,344,143.8,344.1z"/>
				<path class="st1" d="M144.4,346.2c-0.4,0.4-0.6,0.8-0.5,1.3c0,0.1,0.2,0.2,0.4,0.3c0,0,0.2-0.1,0.2-0.2c0.3-0.3,0.2-0.7,0.2-1.1
					C144.7,346.4,144.5,346.3,144.4,346.2z"/>
			</g>
			<g id="FGoKul.tif_3_">
				<path class="st1" d="M21.4,238.3c0-0.2,0-0.5,0-0.7c0,0,0-0.1,0-0.1c0.1-0.5,0.3-1,0.6-1.4c0.6-0.8,1.3-1.3,2.1-1.9
					c0.1-0.1,0.1-0.1,0.2-0.2c0.7-1,1.4-2,2.5-2.8c1.1-0.8,2.3-1.2,3.6-0.6c1.2,0.5,2.1,1.3,2.3,2.6c0.2,1.1,0.3,2.1,0.5,3.2
					c0.1,0.6,0.1,1.1,0.2,1.7c0.1-0.1,0.1-0.1,0.1-0.2c0.1-1.2,0.2-2.5,0.3-3.7c0-0.4,0-0.9,0.2-1.3c0.5-1.1,1.4-1.9,2.5-2.5
					c0.4-0.2,0.9-0.4,1.3-0.5c0.3,0,0.5,0,0.8,0c0,0,0,0,0.1,0c0.7,0.1,1.2,0.4,1.7,0.8c0.5,0.4,0.9,1,1.3,1.6
					c0.2,0.3,0.5,0.6,0.8,0.9c0.5,0.4,1,0.6,1.5,1c0.7,0.5,1.1,1.1,1.3,1.9c0.1,0.4,0,0.9-0.1,1.3c-0.1,0.7-0.3,1.4-0.7,1.9
					c-1,1.1-2.2,1.8-3.6,2.1c-0.8,0.2-1.7,0.3-2.6,0.4c-0.5,0.1-0.9,0.1-1.4,0.2c0,0,0,0.1,0,0.1c0.2,0,0.5,0,0.7,0
					c1.5,0,2.9,0,4.4,0.1c0.9,0,1.7,0.3,2.4,0.8c0.8,0.5,1.3,1.3,1.4,2.2c0.1,0.7,0,1.4-0.2,2.1c-0.2,0.6-0.4,1.2-1,1.5
					c-0.1,0.1-0.2,0.2-0.3,0.3c-0.6,0.6-1,1.4-1.4,2.2c-0.3,0.6-0.8,1.1-1.3,1.5c-1.1,0.8-2.4,0.7-3.4,0.1c-1-0.6-1.8-1.5-2.4-2.5
					c-0.2-0.3-0.3-0.6-0.4-0.9c-0.1-0.3-0.2-0.7-0.2-1c-0.2-0.6-0.3-1.1-0.5-1.7c0,0,0,0-0.1,0c0,0.2-0.1,0.4-0.1,0.6
					c0,0.8,0,1.6,0.1,2.4c0.1,1.1,0.4,2.1,0.9,3.1c0.3,0.5,0.7,0.9,1.1,1.3c0.4,0.4-0.5,1.4-0.7,1.2c-0.6-0.3-1.1-0.7-1.5-1.3
					c-0.8-1.1-1.3-2.4-1.3-3.8c0-1.4,0.1-2.7,0.1-4.1c0-0.1,0-0.1,0-0.2c-0.3,0.1-0.4,0.2-0.5,0.5c-0.2,0.9-0.4,1.9-0.5,2.8
					c-0.2,0.8-0.3,1.7-0.8,2.4c-0.5,0.7-1.2,1.3-2.1,1.5c-0.7,0.2-1.5,0-2.2-0.1c-0.5-0.1-1-0.3-1.3-0.7c-0.6-0.6-1.1-1.2-1.4-1.9
					c-0.3-0.5-0.5-1-1-1.4c-0.1-0.1-0.2-0.2-0.3-0.3c-0.5-0.5-1-1.1-1.2-1.7c0-0.1,0-0.3,0-0.4c0-0.1,0-0.2,0-0.3
					c0.1-0.7,0.1-1.4,0.4-2c0.8-1.3,1.9-2.2,3.5-2.3c1-0.1,1.9-0.1,2.9-0.1c0.4,0,0.8-0.1,1.3-0.1c0.1,0,0.3,0,0.4-0.2
					c-0.2,0-0.5-0.1-0.7-0.1c-1.1-0.1-2.2-0.2-3.3-0.4c-1-0.1-2-0.4-2.9-0.9C22.2,240,21.4,239.4,21.4,238.3
					C21.4,238.4,21.4,238.3,21.4,238.3z"/>
			</g>
			<g>
				<g id="vEoZTv.tif_3_">
					<path class="st1" d="M42.8,354.3c0,0.1-0.1,0.1-0.1,0.1c0,0,0,0-0.1,0.1c0-0.1,0-0.2,0-0.3c0-0.5,0.5-4.2-2.5-6.4
						c-0.1-0.1-0.2-0.1-0.3-0.3c0.5,3.4-0.1,6.5-1.7,9.5c0,0,0,0-0.1,0c0-0.1,0-0.2,0-0.2c-0.1-1.9-0.4-3.7-0.9-5.6
						c-0.3-1.1-0.7-2.1-1.4-3c-0.8-1.1-1.8-1.3-1.8-1.3s-0.2,0.1-0.3,0.3c-0.4,0.7-0.6,1.4-0.8,2.2c-0.5,1.8-0.8,3.7-1.1,5.6
						c-0.3,2.3-0.2,4-0.1,6.3c0,0.4,0.1,1.3,0.1,1.3h-4.7c0,0,0.4-5.7,1.2-8.5c0.9-3.2,2.4-6,2.6-6.3c0-0.1,1.5-3,1.5-3l-1.6-0.6
						c0,0-3.3-1.3-7.6,1.9c0-0.4,0.9-3.8,3.5-5.9c2-1.6,3.8-1.3,4.1-1.3c-0.2-1.3-1-2.1-2-3c0.2-0.1,3.6-0.1,5.1,0.8
						c0.4,0.3,0.5,0.3,0.9-0.1c1.4-1.4,2.9-1.6,3-1.6c0,0,0.1,0,0.1,0c0,0.1-0.7,1.6-0.6,2.5c0,0.1,0,0.2,0.2,0.3
						c0.2,0,0.4,0.1,0.7,0.1c1,0.1,3.8,0.9,5.8,3.9c0.1,0.1,0.2,0.4,0.2,0.4c-1-0.2-2-0.3-3-0.1c0.4,0.4,2.5,2.4,2.9,5
						C44.1,347.6,44.6,350.6,42.8,354.3z"/>
				</g>
				<ellipse class="st1" cx="31.1" cy="345.5" rx="1.4" ry="1.4"/>
				<ellipse class="st1" cx="33.9" cy="347.5" rx="1.2" ry="1.2"/>
			</g>
			<g>
				<path class="st1" d="M370.8,83.9c0.5,0.8,1.2,1.2,2.1,1.1c1-0.1,1.5-0.6,1.8-1.6c0.8,0,1.6,0.6,1.8,1.4c0.1,0.4,0.3,0.8,0.4,1.2
					c0.1,0.6,0.3,1.1,0.3,1.7c0.3,2,0.9,3.9,1.9,5.7c0.9,1.7,2,3.2,3.3,4.6c1.7,1.9,3.7,3.5,6,4.8c1.1,0.6,2.3,1.1,3.5,1.5
					c0.6,0.2,1.2,0.4,1.7,0.8c0.4,0.3,0.3,0.7-0.1,0.9c-0.3,0.1-0.7,0.2-1.1,0.3c-1.6,0.2-3.1,0-4.6-0.3c-4.2-0.8-7.8-2.7-10.9-5.5
					c-1.5-1.3-2.8-2.7-4-4.3c-1.6-2.2-2.9-4.6-3.5-7.3c-0.2-1-0.3-1.9-0.2-2.9c0.1-0.5,0.2-1.1,0.6-1.5
					C370.1,84.1,370.4,84,370.8,83.9z"/>
				<path class="st1" d="M374.4,82.7c0.2,1-0.4,1.8-1.5,1.9c-1.1,0.2-2.1-0.4-2.2-1.4c0.4-0.2,0.8-0.4,1.2-0.5
					c0.2-0.1,0.2-0.2,0.2-0.4c-0.2-0.9-0.4-1.7-0.6-2.6c-0.1-0.3,0.3-0.7,0.7-0.6c0.4,0.1,0.6,0.3,0.6,0.7c0,0.9,0.1,1.7,0.1,2.7
					C373.5,82.5,373.9,82.6,374.4,82.7z"/>
			</g>
			<g>
				<path class="st1" d="M24.3,433.9c0.5,0.8,1.2,1.2,2.1,1.1c1-0.1,1.5-0.6,1.8-1.6c0.8,0,1.6,0.6,1.8,1.4c0.1,0.4,0.3,0.8,0.4,1.2
					c0.1,0.6,0.3,1.1,0.3,1.7c0.3,2,0.9,3.9,1.9,5.7c0.9,1.7,2,3.2,3.3,4.6c1.7,1.9,3.7,3.5,6,4.8c1.1,0.6,2.3,1.1,3.5,1.5
					c0.6,0.2,1.2,0.4,1.7,0.8c0.4,0.3,0.3,0.7-0.1,0.9c-0.3,0.1-0.7,0.2-1.1,0.3c-1.6,0.2-3.1,0-4.6-0.3c-4.2-0.8-7.8-2.7-10.9-5.5
					c-1.5-1.3-2.8-2.7-4-4.3c-1.6-2.2-2.9-4.6-3.5-7.3c-0.2-1-0.3-1.9-0.2-2.9c0.1-0.5,0.2-1.1,0.6-1.5
					C23.6,434.1,23.9,433.9,24.3,433.9z"/>
				<path class="st1" d="M27.9,432.7c0.2,1-0.4,1.8-1.5,1.9c-1.1,0.2-2.1-0.4-2.2-1.4c0.4-0.2,0.8-0.4,1.2-0.5
					c0.2-0.1,0.2-0.2,0.2-0.4c-0.2-0.9-0.4-1.7-0.6-2.6c-0.1-0.3,0.3-0.7,0.7-0.6c0.4,0.1,0.6,0.3,0.6,0.7c0,0.9,0.1,1.7,0.1,2.7
					C26.9,432.5,27.4,432.6,27.9,432.7z"/>
			</g>
		</g>
		<g class="st0">
			<g id="_x32_55H6N.tif_4_">
				<path class="st1" d="M-22,5.9c0-0.3,0.1-0.5,0.1-0.8c0.3-1.6,0.9-3.1,1.9-4.4c0,0,0,0,0.1-0.1c0.4,1.6,1.2,3.1,2.2,4.4
					c-0.5,0-0.9,0-1.4,0c0,0,0,0.1,0.1,0.1c0.5,1,1.3,1.7,2.3,2.3c0.9,0.5,2.2,0.1,2.8-0.8c0.3-0.5,0.5-1.1,0.6-1.7
					c0.1-0.6,0.1-1.3,0.2-1.9c0.1-2.1,0.1-4.2,0.2-6.2c0-0.5,0-1,0-1.5c0,0,0-0.1,0-0.2c-0.4,0-0.7,0-1.1,0c-1,0-1.9,0-2.9-0.1
					C-16.9-5-17-5-17-5c-0.4-0.6-0.8-1.2-1.2-1.8c0,0,0,0,0-0.1c0.9,0,1.8,0,2.7,0c0.9,0,1.8,0,2.7,0c0-0.3,0-0.5,0-0.8
					c0-0.3,0-0.5,0-0.8c0-0.1,0-0.1-0.1-0.2c-1-0.5-1.5-1.3-1.5-2.4c0-1.4,1.2-3.6,2.7-3.6c1.6,0,2.8,2.2,2.7,3.7
					c0,1-0.5,1.8-1.5,2.3c0,0-0.1,0.1-0.1,0.1c0,0.6,0,1.1,0,1.7c1.8,0,3.6,0,5.5,0C-5-6.8-5-6.8-5-6.7C-5.4-6.2-5.8-5.6-6.2-5
					c-0.1,0.1-0.1,0.1-0.2,0.1c-1.2,0-2.5,0-3.7,0c-0.1,0-0.1,0-0.2,0c0,0.2,0,0.3,0,0.5c0.1,2.4,0.1,4.8,0.2,7.2c0,0.7,0,1.4,0,2.1
					c0,0.5,0.1,1,0.3,1.5c0.4,0.9,1.2,1.4,2.2,1.3C-6.4,7.6-5.5,7-4.8,6.1c0.2-0.3,0.4-0.5,0.6-0.8c0-0.1,0.1-0.1,0.1-0.2
					c-0.5-0.1-1-0.2-1.6-0.3c1.4-1.1,2.2-2.6,2.8-4.2c1.2,1.1,2,4.2,1.5,5.6C-1.8,6-2.2,5.8-2.6,5.7c-0.1,0.6-0.3,1.2-0.5,1.8
					c-0.6,1.2-1.5,2.1-2.7,2.8c-0.8,0.5-1.6,0.8-2.5,1c-0.4,0.1-0.8,0.3-1.2,0.6c-0.9,0.6-1.5,1.3-2,2.3c0,0,0,0,0,0
					c0,0,0-0.1,0-0.1c-0.6-1.3-1.6-2.2-2.9-2.8c-0.2-0.1-0.3-0.1-0.5-0.2c-1.5-0.6-2.9-1.4-4-2.6c-0.8-0.9-1.4-1.8-1.6-2.9
					c0,0,0,0,0,0C-21.1,5.7-21.5,6-22,6.3C-22,6.2-22,6.1-22,5.9z M-10.1-11.1c0-0.8-0.6-1.4-1.4-1.4c-0.8,0-1.5,0.6-1.5,1.4
					c0,0.8,0.7,1.4,1.5,1.4C-10.7-9.7-10.1-10.3-10.1-11.1z"/>
			</g>
			<g id="JeGfOL.tif_5_">
				<path class="st1" d="M-6,179.3c-2.5,2.4-4.9,4.8-7.4,7.2c-2.4-2.4-4.9-4.8-7.2-7.1c-1.1,1.1-2.2,2.2-3.4,3.3
					c2.4,2.3,4.8,4.7,7.3,7.2c-2.4,2.4-4.8,4.7-7.2,7c1.1,1.1,2.2,2.1,3.4,3.3c2.4-2.3,4.8-4.7,7.3-7.2c2.4,2.3,4.8,4.7,7.2,7
					c1.1-1,2.1-2.1,3.3-3.2c-2.4-2.3-4.8-4.7-7.4-7.2c2.5-2.4,4.9-4.8,7.3-7.2C-3.7,181.5-4.8,180.5-6,179.3z"/>
			</g>
			<g>
				<path class="st1" d="M-19.3,83.9c0.5,0.8,1.2,1.2,2.1,1.1c1-0.1,1.5-0.6,1.8-1.6c0.8,0,1.6,0.6,1.8,1.4c0.1,0.4,0.3,0.8,0.4,1.2
					c0.1,0.6,0.3,1.1,0.3,1.7c0.3,2,0.9,3.9,1.9,5.7c0.9,1.7,2,3.2,3.3,4.6c1.7,1.9,3.7,3.5,6,4.8c1.1,0.6,2.3,1.1,3.5,1.5
					c0.6,0.2,1.2,0.4,1.7,0.8c0.4,0.3,0.3,0.7-0.1,0.9c-0.3,0.1-0.7,0.2-1.1,0.3c-1.6,0.2-3.1,0-4.6-0.3c-4.2-0.8-7.8-2.7-10.9-5.5
					c-1.5-1.3-2.8-2.7-4-4.3c-1.6-2.2-2.9-4.6-3.5-7.3c-0.2-1-0.3-1.9-0.2-2.9c0.1-0.5,0.2-1.1,0.6-1.5
					C-19.9,84.1-19.6,84-19.3,83.9z"/>
			</g>
		</g>
	</g>
</g>
</svg>
