<?xml version="1.0" encoding="utf-8"?>
<!-- Generator: Adobe Illustrator 21.1.0, SVG Export Plug-In . SVG Version: 6.00 Build 0)  -->
<svg version="1.1" id="Layer_1" xmlns="http://www.w3.org/2000/svg" xmlns:xlink="http://www.w3.org/1999/xlink" x="0px" y="0px"
	 viewBox="0 0 229.4 347.7" style="enable-background:new 0 0 229.4 347.7;" xml:space="preserve">
<style type="text/css">
	.st0{fill:#383642;}
	.st1{fill:#F6B221;}
</style>
<g>
	<g>
		<path class="st0" d="M13.4,91.4C13.4,91.4,13.4,91.4,13.4,91.4c-0.2,1.1-0.4,1.3-1.5,1.3c-2.8,0-5.5,0-8.3,0
			c-0.4,0-0.7-0.1-1.1-0.2c-0.3-0.1-0.5,0.1-0.5,0.4c-0.1,1.1,0.1,2.1,1.2,2.6c0.5,0.3,1.5,0.5,2.1,0.6c1,0.1,1.7,0.4,2.7,0.1
			c0.6-0.1,0.7-0.6,0.6-0.9c-0.1-0.3-0.3-0.6-0.4-0.9c0-0.2,0-0.6,0.2-0.7c0.2-0.1,0.6-0.1,0.8,0c0.8,0.5,1.2,1.3,1.2,2.2
			c0,0.8-0.5,1.5-1.4,1.8c-0.8,0.3-2.6,0.5-4.2,0.1c-1.8-0.4-2.7-0.8-3.3-1.2C0.7,96,0.2,95,0.1,94.1c-0.2-1.3,0-2.5,0.6-3.6
			C1.1,89.7,1,88.8,0.9,88c-0.1-1.1-0.4-2.7-0.4-3.8c0-1.5,0-2.5,0.3-4c0.1-0.9,0.6-1.7,1-2.5c0.6-1.3,1.4-2.5,2.4-3.6
			c0.7-0.7,1.4-1.1,2.3-1.3C8,72.4,9,71.5,9.8,70.4c0.3-0.4,0.4-0.8,0.4-1.3c0-1.5,0.5-2.8,1.5-3.9c0.2-0.2,0.5-0.5,0.7-0.6
			c1-0.3,1.3-1.1,1.7-1.9c0.2-0.4,0.4-0.7,0.6-1c0.2-0.3,0.6-0.8,0.8-0.4c0.2,0.3,0.3,0.8,0.4,1.1c0.1,0.6,0.2,0.9,0.2,1.5
			c0,0.5,0.2,0.8,0.7,0.9c0.7,0.1,1.3,0.4,1.7,1.1c0.2,0.4,0.6,0.7,1,0.8c0.8,0.2,0.8,0.7,0.6,1.2c-0.3,0.9-0.8,1.5-1.6,1.9
			c-0.7,0.4-1,0.9-0.8,1.7c0.2,1.3,0.3,2.7,0.3,4c0.1,1.3-0.4,2.4-1.2,3.5c-1,1.3-1.5,2.6-1.4,4.3c0.1,1.8,0,3.6,0,5.4
			c0,0.8,0.1,1.4,0.8,1.5c0.3,0,1.2,0.4,1.3,0.6c0.1,0.2,0.2,1.1-0.1,1.3c-0.2,0.1-0.5,0.1-1,0.1c-1,0.1-1.9,0.2-2.8-0.5
			C13.7,91.6,13.6,91.5,13.4,91.4z M13.1,90.8c-0.3-0.7-0.5-1.4-0.6-2.3c-0.2,0.5-0.8,1.4-1.2,1.9C11.8,90.4,12.4,90.6,13.1,90.8z"
			/>
		<path class="st0" d="M65.5,91.4C65.5,91.4,65.5,91.4,65.5,91.4c-0.2,1.1-0.4,1.3-1.5,1.3c-2.8,0-5.5,0-8.3,0
			c-0.4,0-0.7-0.1-1.1-0.2c-0.3-0.1-0.5,0.1-0.5,0.4c-0.1,1.1,0.1,2.1,1.2,2.6c0.5,0.3,1.5,0.5,2.1,0.6c1,0.1,1.7,0.4,2.7,0.1
			c0.6-0.1,0.7-0.6,0.6-0.9c-0.1-0.3-0.3-0.6-0.4-0.9c0-0.2,0-0.6,0.2-0.7c0.2-0.1,0.6-0.1,0.8,0c0.8,0.5,1.2,1.3,1.2,2.2
			c0,0.8-0.5,1.5-1.4,1.8c-0.8,0.3-2.6,0.5-4.2,0.1c-1.8-0.4-2.7-0.8-3.3-1.2c-0.8-0.5-1.3-1.5-1.4-2.4c-0.2-1.3,0-2.5,0.6-3.6
			c0.4-0.8,0.3-1.7,0.2-2.5c-0.1-1.1-0.4-2.7-0.4-3.8c0-1.5,0-2.5,0.3-4c0.1-0.9,0.6-1.7,1-2.5c0.6-1.3,1.4-2.5,2.4-3.6
			c0.7-0.7,1.4-1.1,2.3-1.3c1.4-0.4,2.4-1.3,3.3-2.5c0.3-0.4,0.4-0.8,0.4-1.3c0-1.5,0.5-2.8,1.5-3.9c0.2-0.2,0.5-0.5,0.7-0.6
			c1-0.3,1.3-1.1,1.7-1.9c0.2-0.4,0.4-0.7,0.6-1c0.2-0.3,0.6-0.8,0.8-0.4c0.2,0.3,0.3,0.8,0.4,1.1c0.1,0.6,0.2,0.9,0.2,1.5
			c0,0.5,0.2,0.8,0.7,0.9c0.7,0.1,1.3,0.4,1.7,1.1c0.2,0.4,0.6,0.7,1,0.8c0.8,0.2,0.8,0.7,0.6,1.2c-0.3,0.9-0.8,1.5-1.6,1.9
			c-0.7,0.4-1,0.9-0.8,1.7c0.2,1.3,0.3,2.7,0.3,4c0.1,1.3-0.4,2.4-1.2,3.5c-1,1.3-1.5,2.6-1.4,4.3c0.1,1.8,0,3.6,0,5.4
			c0,0.8,0.1,1.4,0.8,1.5c0.3,0,1.2,0.4,1.3,0.6c0.1,0.2,0.2,1.1-0.1,1.3c-0.2,0.1-0.5,0.1-1,0.1c-1,0.1-1.9,0.2-2.8-0.5
			C65.8,91.6,65.7,91.5,65.5,91.4z M65.2,90.8c-0.3-0.7-0.5-1.4-0.6-2.3c-0.2,0.5-0.8,1.4-1.2,1.9C63.9,90.4,64.5,90.6,65.2,90.8z"
			/>
		<path class="st0" d="M118.3,91.4C118.2,91.4,118.2,91.4,118.3,91.4c-0.2,1.1-0.4,1.3-1.5,1.3c-2.8,0-5.5,0-8.3,0
			c-0.4,0-0.7-0.1-1.1-0.2c-0.3-0.1-0.5,0.1-0.5,0.4c-0.1,1.1,0.1,2.1,1.2,2.6c0.5,0.3,1.5,0.5,2.1,0.6c1,0.1,1.7,0.4,2.7,0.1
			c0.6-0.1,0.7-0.6,0.6-0.9c-0.1-0.3-0.3-0.6-0.4-0.9c0-0.2,0-0.6,0.2-0.7c0.2-0.1,0.6-0.1,0.8,0c0.8,0.5,1.2,1.3,1.2,2.2
			c0,0.8-0.5,1.5-1.4,1.8c-0.8,0.3-2.6,0.5-4.2,0.1c-1.8-0.4-2.7-0.8-3.3-1.2c-0.8-0.5-1.3-1.5-1.4-2.4c-0.2-1.3,0-2.5,0.6-3.6
			c0.4-0.8,0.3-1.7,0.2-2.5c-0.1-1.1-0.4-2.7-0.4-3.8c0-1.5,0-2.5,0.3-4c0.1-0.9,0.6-1.7,1-2.5c0.6-1.3,1.4-2.5,2.4-3.6
			c0.7-0.7,1.4-1.1,2.3-1.3c1.4-0.4,2.4-1.3,3.3-2.5c0.3-0.4,0.4-0.8,0.4-1.3c0-1.5,0.5-2.8,1.5-3.9c0.2-0.2,0.5-0.5,0.7-0.6
			c1-0.3,1.3-1.1,1.7-1.9c0.2-0.4,0.4-0.7,0.6-1c0.2-0.3,0.6-0.8,0.8-0.4c0.2,0.3,0.3,0.8,0.4,1.1c0.1,0.6,0.2,0.9,0.2,1.5
			c0,0.5,0.2,0.8,0.7,0.9c0.7,0.1,1.3,0.4,1.7,1.1c0.2,0.4,0.6,0.7,1,0.8c0.8,0.2,0.8,0.7,0.6,1.2c-0.3,0.9-0.8,1.5-1.6,1.9
			c-0.7,0.4-1,0.9-0.8,1.7c0.2,1.3,0.3,2.7,0.3,4c0.1,1.3-0.4,2.4-1.2,3.5c-1,1.3-1.5,2.6-1.4,4.3c0.1,1.8,0,3.6,0,5.4
			c0,0.8,0.1,1.4,0.8,1.5c0.3,0,1.2,0.4,1.3,0.6c0.1,0.2,0.2,1.1-0.1,1.3c-0.2,0.1-0.5,0.1-1,0.1c-1,0.1-1.9,0.2-2.8-0.5
			C118.5,91.6,118.4,91.5,118.3,91.4z M117.9,90.8c-0.3-0.7-0.5-1.4-0.6-2.3c-0.2,0.5-0.8,1.4-1.2,1.9
			C116.7,90.4,117.3,90.6,117.9,90.8z"/>
		<path class="st0" d="M170.4,91.4C170.3,91.4,170.3,91.4,170.4,91.4c-0.2,1.1-0.4,1.3-1.5,1.3c-2.8,0-5.5,0-8.3,0
			c-0.4,0-0.7-0.1-1.1-0.2c-0.3-0.1-0.5,0.1-0.5,0.4c-0.1,1.1,0.1,2.1,1.2,2.6c0.5,0.3,1.5,0.5,2.1,0.6c1,0.1,1.7,0.4,2.7,0.1
			c0.6-0.1,0.7-0.6,0.6-0.9c-0.1-0.3-0.3-0.6-0.4-0.9c0-0.2,0-0.6,0.2-0.7c0.2-0.1,0.6-0.1,0.8,0c0.8,0.5,1.2,1.3,1.2,2.2
			c0,0.8-0.5,1.5-1.4,1.8c-0.8,0.3-2.6,0.5-4.2,0.1c-1.8-0.4-2.7-0.8-3.3-1.2c-0.8-0.5-1.3-1.5-1.4-2.4c-0.2-1.3,0-2.5,0.6-3.6
			c0.4-0.8,0.3-1.7,0.2-2.5c-0.1-1.1-0.4-2.7-0.4-3.8c0-1.5,0-2.5,0.3-4c0.1-0.9,0.6-1.7,1-2.5c0.6-1.3,1.4-2.5,2.4-3.6
			c0.7-0.7,1.4-1.1,2.3-1.3c1.4-0.4,2.4-1.3,3.3-2.5c0.3-0.4,0.4-0.8,0.4-1.3c0-1.5,0.5-2.8,1.5-3.9c0.2-0.2,0.5-0.5,0.7-0.6
			c1-0.3,1.3-1.1,1.7-1.9c0.2-0.4,0.4-0.7,0.6-1c0.2-0.3,0.6-0.8,0.8-0.4c0.2,0.3,0.3,0.8,0.4,1.1c0.1,0.6,0.2,0.9,0.2,1.5
			c0,0.5,0.2,0.8,0.7,0.9c0.7,0.1,1.3,0.4,1.7,1.1c0.2,0.4,0.6,0.7,1,0.8c0.8,0.2,0.8,0.7,0.6,1.2c-0.3,0.9-0.8,1.5-1.6,1.9
			c-0.7,0.4-1,0.9-0.8,1.7c0.2,1.3,0.3,2.7,0.3,4c0.1,1.3-0.4,2.4-1.2,3.5c-1,1.3-1.5,2.6-1.4,4.3c0.1,1.8,0,3.6,0,5.4
			c0,0.8,0.1,1.4,0.8,1.5c0.3,0,1.2,0.4,1.3,0.6c0.1,0.2,0.2,1.1-0.1,1.3c-0.2,0.1-0.5,0.1-1,0.1c-1,0.1-1.9,0.2-2.8-0.5
			C170.6,91.6,170.5,91.5,170.4,91.4z M170,90.8c-0.3-0.7-0.5-1.4-0.6-2.3c-0.2,0.5-0.8,1.4-1.2,1.9C168.8,90.4,169.4,90.6,170,90.8
			z"/>
		<path class="st0" d="M222.5,91.4C222.4,91.4,222.4,91.4,222.5,91.4c-0.2,1.1-0.4,1.3-1.5,1.3c-2.8,0-5.5,0-8.3,0
			c-0.4,0-0.7-0.1-1.1-0.2c-0.3-0.1-0.5,0.1-0.5,0.4c-0.1,1.1,0.1,2.1,1.2,2.6c0.5,0.3,1.5,0.5,2.1,0.6c1,0.1,1.7,0.4,2.7,0.1
			c0.6-0.1,0.7-0.6,0.6-0.9c-0.1-0.3-0.3-0.6-0.4-0.9c0-0.2,0-0.6,0.2-0.7c0.2-0.1,0.6-0.1,0.8,0c0.8,0.5,1.2,1.3,1.2,2.2
			c0,0.8-0.5,1.5-1.4,1.8c-0.8,0.3-2.6,0.5-4.2,0.1c-1.8-0.4-2.7-0.8-3.3-1.2c-0.8-0.5-1.3-1.5-1.4-2.4c-0.2-1.3,0-2.5,0.6-3.6
			c0.4-0.8,0.3-1.7,0.2-2.5c-0.1-1.1-0.4-2.7-0.4-3.8c0-1.5,0-2.5,0.3-4c0.1-0.9,0.6-1.7,1-2.5c0.6-1.3,1.4-2.5,2.4-3.6
			c0.7-0.7,1.4-1.1,2.3-1.3c1.4-0.4,2.4-1.3,3.3-2.5c0.3-0.4,0.4-0.8,0.4-1.3c0-1.5,0.5-2.8,1.5-3.9c0.2-0.2,0.5-0.5,0.7-0.6
			c1-0.3,1.3-1.1,1.7-1.9c0.2-0.4,0.4-0.7,0.6-1c0.2-0.3,0.6-0.8,0.8-0.4c0.2,0.3,0.3,0.8,0.4,1.1c0.1,0.6,0.2,0.9,0.2,1.5
			c0,0.5,0.2,0.8,0.7,0.9c0.7,0.1,1.3,0.4,1.7,1.1c0.2,0.4,0.6,0.7,1,0.8c0.8,0.2,0.8,0.7,0.6,1.2c-0.3,0.9-0.8,1.5-1.6,1.9
			c-0.7,0.4-1,0.9-0.8,1.7c0.2,1.3,0.3,2.7,0.3,4c0.1,1.3-0.4,2.4-1.2,3.5c-1,1.3-1.5,2.6-1.4,4.3c0.1,1.8,0,3.6,0,5.4
			c0,0.8,0.1,1.4,0.8,1.5c0.3,0,1.2,0.4,1.3,0.6c0.1,0.2,0.2,1.1-0.1,1.3c-0.2,0.1-0.5,0.1-1,0.1c-1,0.1-1.9,0.2-2.8-0.5
			C222.7,91.6,222.6,91.5,222.5,91.4z M222.1,90.8c-0.3-0.7-0.5-1.4-0.6-2.3c-0.2,0.5-0.8,1.4-1.2,1.9
			C220.9,90.4,221.5,90.6,222.1,90.8z"/>
	</g>
	<g>
		<path class="st0" d="M13.4,30.3C13.4,30.3,13.4,30.3,13.4,30.3c-0.2,1.1-0.4,1.3-1.5,1.3c-2.8,0-5.5,0-8.3,0
			c-0.4,0-0.7-0.1-1.1-0.2c-0.3-0.1-0.5,0.1-0.5,0.4c-0.1,1.1,0.1,2.1,1.2,2.6c0.5,0.3,1.5,0.5,2.1,0.6c1,0.1,1.7,0.4,2.7,0.1
			c0.6-0.1,0.7-0.6,0.6-0.9c-0.1-0.3-0.3-0.6-0.4-0.9c0-0.2,0-0.6,0.2-0.7c0.2-0.1,0.6-0.1,0.8,0c0.8,0.5,1.2,1.3,1.2,2.2
			c0,0.8-0.5,1.5-1.4,1.8c-0.8,0.3-2.6,0.5-4.2,0.1c-1.8-0.4-2.7-0.8-3.3-1.2c-0.8-0.5-1.3-1.5-1.4-2.4c-0.2-1.3,0-2.5,0.6-3.6
			c0.4-0.8,0.3-1.7,0.2-2.5c-0.1-1.1-0.4-2.7-0.4-3.8c0-1.5,0-2.5,0.3-4c0.1-0.9,0.6-1.7,1-2.5c0.6-1.3,1.4-2.5,2.4-3.6
			c0.7-0.7,1.4-1.1,2.3-1.3C8,11.3,9,10.4,9.8,9.3c0.3-0.4,0.4-0.8,0.4-1.3c0-1.5,0.5-2.8,1.5-3.9c0.2-0.2,0.5-0.5,0.7-0.6
			c1-0.3,1.3-1.1,1.7-1.9c0.2-0.4,0.4-0.7,0.6-1c0.2-0.3,0.6-0.8,0.8-0.4C15.8,0.4,16,0.9,16,1.2c0.1,0.6,0.2,0.9,0.2,1.5
			c0,0.5,0.2,0.8,0.7,0.9c0.7,0.1,1.3,0.4,1.7,1.1c0.2,0.4,0.6,0.7,1,0.8c0.8,0.2,0.8,0.7,0.6,1.2c-0.3,0.9-0.8,1.5-1.6,1.9
			c-0.7,0.4-1,0.9-0.8,1.7c0.2,1.3,0.3,2.7,0.3,4c0.1,1.3-0.4,2.4-1.2,3.5c-1,1.3-1.5,2.6-1.4,4.3c0.1,1.8,0,3.6,0,5.4
			c0,0.8,0.1,1.4,0.8,1.5c0.3,0,1.2,0.4,1.3,0.6c0.1,0.2,0.2,1.1-0.1,1.3c-0.2,0.1-0.5,0.1-1,0.1c-1,0.1-1.9,0.2-2.8-0.5
			C13.7,30.5,13.6,30.4,13.4,30.3z M13.1,29.7c-0.3-0.7-0.5-1.4-0.6-2.3c-0.2,0.5-0.8,1.4-1.2,1.9C11.8,29.3,12.4,29.5,13.1,29.7z"
			/>
		<path class="st0" d="M65.5,30.3C65.5,30.3,65.5,30.3,65.5,30.3c-0.2,1.1-0.4,1.3-1.5,1.3c-2.8,0-5.5,0-8.3,0
			c-0.4,0-0.7-0.1-1.1-0.2c-0.3-0.1-0.5,0.1-0.5,0.4c-0.1,1.1,0.1,2.1,1.2,2.6c0.5,0.3,1.5,0.5,2.1,0.6c1,0.1,1.7,0.4,2.7,0.1
			c0.6-0.1,0.7-0.6,0.6-0.9c-0.1-0.3-0.3-0.6-0.4-0.9c0-0.2,0-0.6,0.2-0.7c0.2-0.1,0.6-0.1,0.8,0c0.8,0.5,1.2,1.3,1.2,2.2
			c0,0.8-0.5,1.5-1.4,1.8c-0.8,0.3-2.6,0.5-4.2,0.1c-1.8-0.4-2.7-0.8-3.3-1.2c-0.8-0.5-1.3-1.5-1.4-2.4c-0.2-1.3,0-2.5,0.6-3.6
			c0.4-0.8,0.3-1.7,0.2-2.5c-0.1-1.1-0.4-2.7-0.4-3.8c0-1.5,0-2.5,0.3-4c0.1-0.9,0.6-1.7,1-2.5c0.6-1.3,1.4-2.5,2.4-3.6
			c0.7-0.7,1.4-1.1,2.3-1.3c1.4-0.4,2.4-1.3,3.3-2.5c0.3-0.4,0.4-0.8,0.4-1.3c0-1.5,0.5-2.8,1.5-3.9c0.2-0.2,0.5-0.5,0.7-0.6
			c1-0.3,1.3-1.1,1.7-1.9c0.2-0.4,0.4-0.7,0.6-1c0.2-0.3,0.6-0.8,0.8-0.4c0.2,0.3,0.3,0.8,0.4,1.1c0.1,0.6,0.2,0.9,0.2,1.5
			c0,0.5,0.2,0.8,0.7,0.9c0.7,0.1,1.3,0.4,1.7,1.1c0.2,0.4,0.6,0.7,1,0.8c0.8,0.2,0.8,0.7,0.6,1.2c-0.3,0.9-0.8,1.5-1.6,1.9
			c-0.7,0.4-1,0.9-0.8,1.7c0.2,1.3,0.3,2.7,0.3,4c0.1,1.3-0.4,2.4-1.2,3.5c-1,1.3-1.5,2.6-1.4,4.3c0.1,1.8,0,3.6,0,5.4
			c0,0.8,0.1,1.4,0.8,1.5c0.3,0,1.2,0.4,1.3,0.6c0.1,0.2,0.2,1.1-0.1,1.3c-0.2,0.1-0.5,0.1-1,0.1c-1,0.1-1.9,0.2-2.8-0.5
			C65.8,30.5,65.7,30.4,65.5,30.3z M65.2,29.7c-0.3-0.7-0.5-1.4-0.6-2.3c-0.2,0.5-0.8,1.4-1.2,1.9C63.9,29.3,64.5,29.5,65.2,29.7z"
			/>
		<path class="st0" d="M118.3,30.3C118.2,30.3,118.2,30.3,118.3,30.3c-0.2,1.1-0.4,1.3-1.5,1.3c-2.8,0-5.5,0-8.3,0
			c-0.4,0-0.7-0.1-1.1-0.2c-0.3-0.1-0.5,0.1-0.5,0.4c-0.1,1.1,0.1,2.1,1.2,2.6c0.5,0.3,1.5,0.5,2.1,0.6c1,0.1,1.7,0.4,2.7,0.1
			c0.6-0.1,0.7-0.6,0.6-0.9c-0.1-0.3-0.3-0.6-0.4-0.9c0-0.2,0-0.6,0.2-0.7c0.2-0.1,0.6-0.1,0.8,0c0.8,0.5,1.2,1.3,1.2,2.2
			c0,0.8-0.5,1.5-1.4,1.8c-0.8,0.3-2.6,0.5-4.2,0.1c-1.8-0.4-2.7-0.8-3.3-1.2c-0.8-0.5-1.3-1.5-1.4-2.4c-0.2-1.3,0-2.5,0.6-3.6
			c0.4-0.8,0.3-1.7,0.2-2.5c-0.1-1.1-0.4-2.7-0.4-3.8c0-1.5,0-2.5,0.3-4c0.1-0.9,0.6-1.7,1-2.5c0.6-1.3,1.4-2.5,2.4-3.6
			c0.7-0.7,1.4-1.1,2.3-1.3c1.4-0.4,2.4-1.3,3.3-2.5c0.3-0.4,0.4-0.8,0.4-1.3c0-1.5,0.5-2.8,1.5-3.9c0.2-0.2,0.5-0.5,0.7-0.6
			c1-0.3,1.3-1.1,1.7-1.9c0.2-0.4,0.4-0.7,0.6-1c0.2-0.3,0.6-0.8,0.8-0.4c0.2,0.3,0.3,0.8,0.4,1.1c0.1,0.6,0.2,0.9,0.2,1.5
			c0,0.5,0.2,0.8,0.7,0.9c0.7,0.1,1.3,0.4,1.7,1.1c0.2,0.4,0.6,0.7,1,0.8c0.8,0.2,0.8,0.7,0.6,1.2c-0.3,0.9-0.8,1.5-1.6,1.9
			c-0.7,0.4-1,0.9-0.8,1.7c0.2,1.3,0.3,2.7,0.3,4c0.1,1.3-0.4,2.4-1.2,3.5c-1,1.3-1.5,2.6-1.4,4.3c0.1,1.8,0,3.6,0,5.4
			c0,0.8,0.1,1.4,0.8,1.5c0.3,0,1.2,0.4,1.3,0.6c0.1,0.2,0.2,1.1-0.1,1.3c-0.2,0.1-0.5,0.1-1,0.1c-1,0.1-1.9,0.2-2.8-0.5
			C118.5,30.5,118.4,30.4,118.3,30.3z M117.9,29.7c-0.3-0.7-0.5-1.4-0.6-2.3c-0.2,0.5-0.8,1.4-1.2,1.9
			C116.7,29.3,117.3,29.5,117.9,29.7z"/>
		<path class="st0" d="M170.4,30.3C170.3,30.3,170.3,30.3,170.4,30.3c-0.2,1.1-0.4,1.3-1.5,1.3c-2.8,0-5.5,0-8.3,0
			c-0.4,0-0.7-0.1-1.1-0.2c-0.3-0.1-0.5,0.1-0.5,0.4c-0.1,1.1,0.1,2.1,1.2,2.6c0.5,0.3,1.5,0.5,2.1,0.6c1,0.1,1.7,0.4,2.7,0.1
			c0.6-0.1,0.7-0.6,0.6-0.9c-0.1-0.3-0.3-0.6-0.4-0.9c0-0.2,0-0.6,0.2-0.7c0.2-0.1,0.6-0.1,0.8,0c0.8,0.5,1.2,1.3,1.2,2.2
			c0,0.8-0.5,1.5-1.4,1.8c-0.8,0.3-2.6,0.5-4.2,0.1c-1.8-0.4-2.7-0.8-3.3-1.2c-0.8-0.5-1.3-1.5-1.4-2.4c-0.2-1.3,0-2.5,0.6-3.6
			c0.4-0.8,0.3-1.7,0.2-2.5c-0.1-1.1-0.4-2.7-0.4-3.8c0-1.5,0-2.5,0.3-4c0.1-0.9,0.6-1.7,1-2.5c0.6-1.3,1.4-2.5,2.4-3.6
			c0.7-0.7,1.4-1.1,2.3-1.3c1.4-0.4,2.4-1.3,3.3-2.5c0.3-0.4,0.4-0.8,0.4-1.3c0-1.5,0.5-2.8,1.5-3.9c0.2-0.2,0.5-0.5,0.7-0.6
			c1-0.3,1.3-1.1,1.7-1.9c0.2-0.4,0.4-0.7,0.6-1c0.2-0.3,0.6-0.8,0.8-0.4c0.2,0.3,0.3,0.8,0.4,1.1c0.1,0.6,0.2,0.9,0.2,1.5
			c0,0.5,0.2,0.8,0.7,0.9c0.7,0.1,1.3,0.4,1.7,1.1c0.2,0.4,0.6,0.7,1,0.8c0.8,0.2,0.8,0.7,0.6,1.2c-0.3,0.9-0.8,1.5-1.6,1.9
			c-0.7,0.4-1,0.9-0.8,1.7c0.2,1.3,0.3,2.7,0.3,4c0.1,1.3-0.4,2.4-1.2,3.5c-1,1.3-1.5,2.6-1.4,4.3c0.1,1.8,0,3.6,0,5.4
			c0,0.8,0.1,1.4,0.8,1.5c0.3,0,1.2,0.4,1.3,0.6c0.1,0.2,0.2,1.1-0.1,1.3c-0.2,0.1-0.5,0.1-1,0.1c-1,0.1-1.9,0.2-2.8-0.5
			C170.6,30.5,170.5,30.4,170.4,30.3z M170,29.7c-0.3-0.7-0.5-1.4-0.6-2.3c-0.2,0.5-0.8,1.4-1.2,1.9C168.8,29.3,169.4,29.5,170,29.7
			z"/>
		<path class="st0" d="M222.5,30.3C222.4,30.3,222.4,30.3,222.5,30.3c-0.2,1.1-0.4,1.3-1.5,1.3c-2.8,0-5.5,0-8.3,0
			c-0.4,0-0.7-0.1-1.1-0.2c-0.3-0.1-0.5,0.1-0.5,0.4c-0.1,1.1,0.1,2.1,1.2,2.6c0.5,0.3,1.5,0.5,2.1,0.6c1,0.1,1.7,0.4,2.7,0.1
			c0.6-0.1,0.7-0.6,0.6-0.9c-0.1-0.3-0.3-0.6-0.4-0.9c0-0.2,0-0.6,0.2-0.7c0.2-0.1,0.6-0.1,0.8,0c0.8,0.5,1.2,1.3,1.2,2.2
			c0,0.8-0.5,1.5-1.4,1.8c-0.8,0.3-2.6,0.5-4.2,0.1c-1.8-0.4-2.7-0.8-3.3-1.2c-0.8-0.5-1.3-1.5-1.4-2.4c-0.2-1.3,0-2.5,0.6-3.6
			c0.4-0.8,0.3-1.7,0.2-2.5c-0.1-1.1-0.4-2.7-0.4-3.8c0-1.5,0-2.5,0.3-4c0.1-0.9,0.6-1.7,1-2.5c0.6-1.3,1.4-2.5,2.4-3.6
			c0.7-0.7,1.4-1.1,2.3-1.3c1.4-0.4,2.4-1.3,3.3-2.5c0.3-0.4,0.4-0.8,0.4-1.3c0-1.5,0.5-2.8,1.5-3.9c0.2-0.2,0.5-0.5,0.7-0.6
			c1-0.3,1.3-1.1,1.7-1.9c0.2-0.4,0.4-0.7,0.6-1c0.2-0.3,0.6-0.8,0.8-0.4c0.2,0.3,0.3,0.8,0.4,1.1c0.1,0.6,0.2,0.9,0.2,1.5
			c0,0.5,0.2,0.8,0.7,0.9c0.7,0.1,1.3,0.4,1.7,1.1c0.2,0.4,0.6,0.7,1,0.8c0.8,0.2,0.8,0.7,0.6,1.2c-0.3,0.9-0.8,1.5-1.6,1.9
			c-0.7,0.4-1,0.9-0.8,1.7c0.2,1.3,0.3,2.7,0.3,4c0.1,1.3-0.4,2.4-1.2,3.5c-1,1.3-1.5,2.6-1.4,4.3c0.1,1.8,0,3.6,0,5.4
			c0,0.8,0.1,1.4,0.8,1.5c0.3,0,1.2,0.4,1.3,0.6c0.1,0.2,0.2,1.1-0.1,1.3c-0.2,0.1-0.5,0.1-1,0.1c-1,0.1-1.9,0.2-2.8-0.5
			C222.7,30.5,222.6,30.4,222.5,30.3z M222.1,29.7c-0.3-0.7-0.5-1.4-0.6-2.3c-0.2,0.5-0.8,1.4-1.2,1.9
			C220.9,29.3,221.5,29.5,222.1,29.7z"/>
	</g>
	<g>
		<path class="st0" d="M13.4,216.8C13.4,216.8,13.4,216.8,13.4,216.8c-0.2,1.1-0.4,1.3-1.5,1.3c-2.8,0-5.5,0-8.3,0
			c-0.4,0-0.7-0.1-1.1-0.2c-0.3-0.1-0.5,0.1-0.5,0.4c-0.1,1.1,0.1,2.1,1.2,2.6c0.5,0.3,1.5,0.5,2.1,0.6c1,0.1,1.7,0.4,2.7,0.1
			c0.6-0.1,0.7-0.6,0.6-0.9c-0.1-0.3-0.3-0.6-0.4-0.9c0-0.2,0-0.6,0.2-0.7c0.2-0.1,0.6-0.1,0.8,0c0.8,0.5,1.2,1.3,1.2,2.2
			c0,0.8-0.5,1.5-1.4,1.8c-0.8,0.3-2.6,0.5-4.2,0.1c-1.8-0.4-2.7-0.8-3.3-1.2c-0.8-0.5-1.3-1.5-1.4-2.4c-0.2-1.3,0-2.5,0.6-3.6
			c0.4-0.8,0.3-1.7,0.2-2.5c-0.1-1.1-0.4-2.7-0.4-3.8c0-1.5,0-2.5,0.3-4c0.1-0.9,0.6-1.7,1-2.5c0.6-1.3,1.4-2.5,2.4-3.6
			c0.7-0.7,1.4-1.1,2.3-1.3c1.4-0.4,2.4-1.3,3.3-2.5c0.3-0.4,0.4-0.8,0.4-1.3c0-1.5,0.5-2.8,1.5-3.9c0.2-0.2,0.5-0.5,0.7-0.6
			c1-0.3,1.3-1.1,1.7-1.9c0.2-0.4,0.4-0.7,0.6-1c0.2-0.3,0.6-0.8,0.8-0.4c0.2,0.3,0.3,0.8,0.4,1.1c0.1,0.6,0.2,0.9,0.2,1.5
			c0,0.5,0.2,0.8,0.7,0.9c0.7,0.1,1.3,0.4,1.7,1.1c0.2,0.4,0.6,0.7,1,0.8c0.8,0.2,0.8,0.7,0.6,1.2c-0.3,0.9-0.8,1.5-1.6,1.9
			c-0.7,0.4-1,0.9-0.8,1.7c0.2,1.3,0.3,2.7,0.3,4c0.1,1.3-0.4,2.4-1.2,3.5c-1,1.3-1.5,2.6-1.4,4.3c0.1,1.8,0,3.6,0,5.4
			c0,0.8,0.1,1.4,0.8,1.5c0.3,0,1.2,0.4,1.3,0.6c0.1,0.2,0.2,1.1-0.1,1.3c-0.2,0.1-0.5,0.1-1,0.1c-1,0.1-1.9,0.2-2.8-0.5
			C13.7,217,13.6,216.9,13.4,216.8z M13.1,216.2c-0.3-0.7-0.5-1.4-0.6-2.3c-0.2,0.5-0.8,1.4-1.2,1.9C11.8,215.8,12.4,216,13.1,216.2
			z"/>
		<path class="st0" d="M65.5,216.8C65.5,216.8,65.5,216.8,65.5,216.8c-0.2,1.1-0.4,1.3-1.5,1.3c-2.8,0-5.5,0-8.3,0
			c-0.4,0-0.7-0.1-1.1-0.2c-0.3-0.1-0.5,0.1-0.5,0.4c-0.1,1.1,0.1,2.1,1.2,2.6c0.5,0.3,1.5,0.5,2.1,0.6c1,0.1,1.7,0.4,2.7,0.1
			c0.6-0.1,0.7-0.6,0.6-0.9c-0.1-0.3-0.3-0.6-0.4-0.9c0-0.2,0-0.6,0.2-0.7c0.2-0.1,0.6-0.1,0.8,0c0.8,0.5,1.2,1.3,1.2,2.2
			c0,0.8-0.5,1.5-1.4,1.8c-0.8,0.3-2.6,0.5-4.2,0.1c-1.8-0.4-2.7-0.8-3.3-1.2c-0.8-0.5-1.3-1.5-1.4-2.4c-0.2-1.3,0-2.5,0.6-3.6
			c0.4-0.8,0.3-1.7,0.2-2.5c-0.1-1.1-0.4-2.7-0.4-3.8c0-1.5,0-2.5,0.3-4c0.1-0.9,0.6-1.7,1-2.5c0.6-1.3,1.4-2.5,2.4-3.6
			c0.7-0.7,1.4-1.1,2.3-1.3c1.4-0.4,2.4-1.3,3.3-2.5c0.3-0.4,0.4-0.8,0.4-1.3c0-1.5,0.5-2.8,1.5-3.9c0.2-0.2,0.5-0.5,0.7-0.6
			c1-0.3,1.3-1.1,1.7-1.9c0.2-0.4,0.4-0.7,0.6-1c0.2-0.3,0.6-0.8,0.8-0.4c0.2,0.3,0.3,0.8,0.4,1.1c0.1,0.6,0.2,0.9,0.2,1.5
			c0,0.5,0.2,0.8,0.7,0.9c0.7,0.1,1.3,0.4,1.7,1.1c0.2,0.4,0.6,0.7,1,0.8c0.8,0.2,0.8,0.7,0.6,1.2c-0.3,0.9-0.8,1.5-1.6,1.9
			c-0.7,0.4-1,0.9-0.8,1.7c0.2,1.3,0.3,2.7,0.3,4c0.1,1.3-0.4,2.4-1.2,3.5c-1,1.3-1.5,2.6-1.4,4.3c0.1,1.8,0,3.6,0,5.4
			c0,0.8,0.1,1.4,0.8,1.5c0.3,0,1.2,0.4,1.3,0.6c0.1,0.2,0.2,1.1-0.1,1.3c-0.2,0.1-0.5,0.1-1,0.1c-1,0.1-1.9,0.2-2.8-0.5
			C65.8,217,65.7,216.9,65.5,216.8z M65.2,216.2c-0.3-0.7-0.5-1.4-0.6-2.3c-0.2,0.5-0.8,1.4-1.2,1.9C63.9,215.8,64.5,216,65.2,216.2
			z"/>
		<path class="st0" d="M118.3,216.8C118.2,216.8,118.2,216.8,118.3,216.8c-0.2,1.1-0.4,1.3-1.5,1.3c-2.8,0-5.5,0-8.3,0
			c-0.4,0-0.7-0.1-1.1-0.2c-0.3-0.1-0.5,0.1-0.5,0.4c-0.1,1.1,0.1,2.1,1.2,2.6c0.5,0.3,1.5,0.5,2.1,0.6c1,0.1,1.7,0.4,2.7,0.1
			c0.6-0.1,0.7-0.6,0.6-0.9c-0.1-0.3-0.3-0.6-0.4-0.9c0-0.2,0-0.6,0.2-0.7c0.2-0.1,0.6-0.1,0.8,0c0.8,0.5,1.2,1.3,1.2,2.2
			c0,0.8-0.5,1.5-1.4,1.8c-0.8,0.3-2.6,0.5-4.2,0.1c-1.8-0.4-2.7-0.8-3.3-1.2c-0.8-0.5-1.3-1.5-1.4-2.4c-0.2-1.3,0-2.5,0.6-3.6
			c0.4-0.8,0.3-1.7,0.2-2.5c-0.1-1.1-0.4-2.7-0.4-3.8c0-1.5,0-2.5,0.3-4c0.1-0.9,0.6-1.7,1-2.5c0.6-1.3,1.4-2.5,2.4-3.6
			c0.7-0.7,1.4-1.1,2.3-1.3c1.4-0.4,2.4-1.3,3.3-2.5c0.3-0.4,0.4-0.8,0.4-1.3c0-1.5,0.5-2.8,1.5-3.9c0.2-0.2,0.5-0.5,0.7-0.6
			c1-0.3,1.3-1.1,1.7-1.9c0.2-0.4,0.4-0.7,0.6-1c0.2-0.3,0.6-0.8,0.8-0.4c0.2,0.3,0.3,0.8,0.4,1.1c0.1,0.6,0.2,0.9,0.2,1.5
			c0,0.5,0.2,0.8,0.7,0.9c0.7,0.1,1.3,0.4,1.7,1.1c0.2,0.4,0.6,0.7,1,0.8c0.8,0.2,0.8,0.7,0.6,1.2c-0.3,0.9-0.8,1.5-1.6,1.9
			c-0.7,0.4-1,0.9-0.8,1.7c0.2,1.3,0.3,2.7,0.3,4c0.1,1.3-0.4,2.4-1.2,3.5c-1,1.3-1.5,2.6-1.4,4.3c0.1,1.8,0,3.6,0,5.4
			c0,0.8,0.1,1.4,0.8,1.5c0.3,0,1.2,0.4,1.3,0.6c0.1,0.2,0.2,1.1-0.1,1.3c-0.2,0.1-0.5,0.1-1,0.1c-1,0.1-1.9,0.2-2.8-0.5
			C118.5,217,118.4,216.9,118.3,216.8z M117.9,216.2c-0.3-0.7-0.5-1.4-0.6-2.3c-0.2,0.5-0.8,1.4-1.2,1.9
			C116.7,215.8,117.3,216,117.9,216.2z"/>
		<path class="st0" d="M170.4,216.8C170.3,216.8,170.3,216.8,170.4,216.8c-0.2,1.1-0.4,1.3-1.5,1.3c-2.8,0-5.5,0-8.3,0
			c-0.4,0-0.7-0.1-1.1-0.2c-0.3-0.1-0.5,0.1-0.5,0.4c-0.1,1.1,0.1,2.1,1.2,2.6c0.5,0.3,1.5,0.5,2.1,0.6c1,0.1,1.7,0.4,2.7,0.1
			c0.6-0.1,0.7-0.6,0.6-0.9c-0.1-0.3-0.3-0.6-0.4-0.9c0-0.2,0-0.6,0.2-0.7c0.2-0.1,0.6-0.1,0.8,0c0.8,0.5,1.2,1.3,1.2,2.2
			c0,0.8-0.5,1.5-1.4,1.8c-0.8,0.3-2.6,0.5-4.2,0.1c-1.8-0.4-2.7-0.8-3.3-1.2c-0.8-0.5-1.3-1.5-1.4-2.4c-0.2-1.3,0-2.5,0.6-3.6
			c0.4-0.8,0.3-1.7,0.2-2.5c-0.1-1.1-0.4-2.7-0.4-3.8c0-1.5,0-2.5,0.3-4c0.1-0.9,0.6-1.7,1-2.5c0.6-1.3,1.4-2.5,2.4-3.6
			c0.7-0.7,1.4-1.1,2.3-1.3c1.4-0.4,2.4-1.3,3.3-2.5c0.3-0.4,0.4-0.8,0.4-1.3c0-1.5,0.5-2.8,1.5-3.9c0.2-0.2,0.5-0.5,0.7-0.6
			c1-0.3,1.3-1.1,1.7-1.9c0.2-0.4,0.4-0.7,0.6-1c0.2-0.3,0.6-0.8,0.8-0.4c0.2,0.3,0.3,0.8,0.4,1.1c0.1,0.6,0.2,0.9,0.2,1.5
			c0,0.5,0.2,0.8,0.7,0.9c0.7,0.1,1.3,0.4,1.7,1.1c0.2,0.4,0.6,0.7,1,0.8c0.8,0.2,0.8,0.7,0.6,1.2c-0.3,0.9-0.8,1.5-1.6,1.9
			c-0.7,0.4-1,0.9-0.8,1.7c0.2,1.3,0.3,2.7,0.3,4c0.1,1.3-0.4,2.4-1.2,3.5c-1,1.3-1.5,2.6-1.4,4.3c0.1,1.8,0,3.6,0,5.4
			c0,0.8,0.1,1.4,0.8,1.5c0.3,0,1.2,0.4,1.3,0.6c0.1,0.2,0.2,1.1-0.1,1.3c-0.2,0.1-0.5,0.1-1,0.1c-1,0.1-1.9,0.2-2.8-0.5
			C170.6,217,170.5,216.9,170.4,216.8z M170,216.2c-0.3-0.7-0.5-1.4-0.6-2.3c-0.2,0.5-0.8,1.4-1.2,1.9
			C168.8,215.8,169.4,216,170,216.2z"/>
		<path class="st0" d="M222.5,216.8C222.4,216.8,222.4,216.8,222.5,216.8c-0.2,1.1-0.4,1.3-1.5,1.3c-2.8,0-5.5,0-8.3,0
			c-0.4,0-0.7-0.1-1.1-0.2c-0.3-0.1-0.5,0.1-0.5,0.4c-0.1,1.1,0.1,2.1,1.2,2.6c0.5,0.3,1.5,0.5,2.1,0.6c1,0.1,1.7,0.4,2.7,0.1
			c0.6-0.1,0.7-0.6,0.6-0.9c-0.1-0.3-0.3-0.6-0.4-0.9c0-0.2,0-0.6,0.2-0.7c0.2-0.1,0.6-0.1,0.8,0c0.8,0.5,1.2,1.3,1.2,2.2
			c0,0.8-0.5,1.5-1.4,1.8c-0.8,0.3-2.6,0.5-4.2,0.1c-1.8-0.4-2.7-0.8-3.3-1.2c-0.8-0.5-1.3-1.5-1.4-2.4c-0.2-1.3,0-2.5,0.6-3.6
			c0.4-0.8,0.3-1.7,0.2-2.5c-0.1-1.1-0.4-2.7-0.4-3.8c0-1.5,0-2.5,0.3-4c0.1-0.9,0.6-1.7,1-2.5c0.6-1.3,1.4-2.5,2.4-3.6
			c0.7-0.7,1.4-1.1,2.3-1.3c1.4-0.4,2.4-1.3,3.3-2.5c0.3-0.4,0.4-0.8,0.4-1.3c0-1.5,0.5-2.8,1.5-3.9c0.2-0.2,0.5-0.5,0.7-0.6
			c1-0.3,1.3-1.1,1.7-1.9c0.2-0.4,0.4-0.7,0.6-1c0.2-0.3,0.6-0.8,0.8-0.4c0.2,0.3,0.3,0.8,0.4,1.1c0.1,0.6,0.2,0.9,0.2,1.5
			c0,0.5,0.2,0.8,0.7,0.9c0.7,0.1,1.3,0.4,1.7,1.1c0.2,0.4,0.6,0.7,1,0.8c0.8,0.2,0.8,0.7,0.6,1.2c-0.3,0.9-0.8,1.5-1.6,1.9
			c-0.7,0.4-1,0.9-0.8,1.7c0.2,1.3,0.3,2.7,0.3,4c0.1,1.3-0.4,2.4-1.2,3.5c-1,1.3-1.5,2.6-1.4,4.3c0.1,1.8,0,3.6,0,5.4
			c0,0.8,0.1,1.4,0.8,1.5c0.3,0,1.2,0.4,1.3,0.6c0.1,0.2,0.2,1.1-0.1,1.3c-0.2,0.1-0.5,0.1-1,0.1c-1,0.1-1.9,0.2-2.8-0.5
			C222.7,217,222.6,216.9,222.5,216.8z M222.1,216.2c-0.3-0.7-0.5-1.4-0.6-2.3c-0.2,0.5-0.8,1.4-1.2,1.9
			C220.9,215.8,221.5,216,222.1,216.2z"/>
	</g>
	<g>
		<path class="st0" d="M13.4,279C13.4,279,13.4,279,13.4,279c-0.2,1.1-0.4,1.3-1.5,1.3c-2.8,0-5.5,0-8.3,0c-0.4,0-0.7-0.1-1.1-0.2
			c-0.3-0.1-0.5,0.1-0.5,0.4c-0.1,1.1,0.1,2.1,1.2,2.6c0.5,0.3,1.5,0.5,2.1,0.6c1,0.1,1.7,0.4,2.7,0.1c0.6-0.1,0.7-0.6,0.6-0.9
			c-0.1-0.3-0.3-0.6-0.4-0.9c0-0.2,0-0.6,0.2-0.7c0.2-0.1,0.6-0.1,0.8,0c0.8,0.5,1.2,1.3,1.2,2.2c0,0.8-0.5,1.5-1.4,1.8
			c-0.8,0.3-2.6,0.5-4.2,0.1c-1.8-0.4-2.7-0.8-3.3-1.2c-0.8-0.5-1.3-1.5-1.4-2.4c-0.2-1.3,0-2.5,0.6-3.6c0.4-0.8,0.3-1.7,0.2-2.5
			c-0.1-1.1-0.4-2.7-0.4-3.8c0-1.5,0-2.5,0.3-4c0.1-0.9,0.6-1.7,1-2.5c0.6-1.3,1.4-2.5,2.4-3.6c0.7-0.7,1.4-1.1,2.3-1.3
			C8,260,9,259.1,9.8,258c0.3-0.4,0.4-0.8,0.4-1.3c0-1.5,0.5-2.8,1.5-3.9c0.2-0.2,0.5-0.5,0.7-0.6c1-0.3,1.3-1.1,1.7-1.9
			c0.2-0.4,0.4-0.7,0.6-1c0.2-0.3,0.6-0.8,0.8-0.4c0.2,0.3,0.3,0.8,0.4,1.1c0.1,0.6,0.2,0.9,0.2,1.5c0,0.5,0.2,0.8,0.7,0.9
			c0.7,0.1,1.3,0.4,1.7,1.1c0.2,0.4,0.6,0.7,1,0.8c0.8,0.2,0.8,0.7,0.6,1.2c-0.3,0.9-0.8,1.5-1.6,1.9c-0.7,0.4-1,0.9-0.8,1.7
			c0.2,1.3,0.3,2.7,0.3,4c0.1,1.3-0.4,2.4-1.2,3.5c-1,1.3-1.5,2.6-1.4,4.3c0.1,1.8,0,3.6,0,5.4c0,0.8,0.1,1.4,0.8,1.5
			c0.3,0,1.2,0.4,1.3,0.6c0.1,0.2,0.2,1.1-0.1,1.3c-0.2,0.1-0.5,0.1-1,0.1c-1,0.1-1.9,0.2-2.8-0.5C13.7,279.2,13.6,279.1,13.4,279z
			 M13.1,278.4c-0.3-0.7-0.5-1.4-0.6-2.3c-0.2,0.5-0.8,1.4-1.2,1.9C11.8,278,12.4,278.2,13.1,278.4z"/>
		<path class="st0" d="M65.5,279C65.5,279,65.5,279,65.5,279c-0.2,1.1-0.4,1.3-1.5,1.3c-2.8,0-5.5,0-8.3,0c-0.4,0-0.7-0.1-1.1-0.2
			c-0.3-0.1-0.5,0.1-0.5,0.4c-0.1,1.1,0.1,2.1,1.2,2.6c0.5,0.3,1.5,0.5,2.1,0.6c1,0.1,1.7,0.4,2.7,0.1c0.6-0.1,0.7-0.6,0.6-0.9
			c-0.1-0.3-0.3-0.6-0.4-0.9c0-0.2,0-0.6,0.2-0.7c0.2-0.1,0.6-0.1,0.8,0c0.8,0.5,1.2,1.3,1.2,2.2c0,0.8-0.5,1.5-1.4,1.8
			c-0.8,0.3-2.6,0.5-4.2,0.1c-1.8-0.4-2.7-0.8-3.3-1.2c-0.8-0.5-1.3-1.5-1.4-2.4c-0.2-1.3,0-2.5,0.6-3.6c0.4-0.8,0.3-1.7,0.2-2.5
			c-0.1-1.1-0.4-2.7-0.4-3.8c0-1.5,0-2.5,0.3-4c0.1-0.9,0.6-1.7,1-2.5c0.6-1.3,1.4-2.5,2.4-3.6c0.7-0.7,1.4-1.1,2.3-1.3
			c1.4-0.4,2.4-1.3,3.3-2.5c0.3-0.4,0.4-0.8,0.4-1.3c0-1.5,0.5-2.8,1.5-3.9c0.2-0.2,0.5-0.5,0.7-0.6c1-0.3,1.3-1.1,1.7-1.9
			c0.2-0.4,0.4-0.7,0.6-1c0.2-0.3,0.6-0.8,0.8-0.4c0.2,0.3,0.3,0.8,0.4,1.1c0.1,0.6,0.2,0.9,0.2,1.5c0,0.5,0.2,0.8,0.7,0.9
			c0.7,0.1,1.3,0.4,1.7,1.1c0.2,0.4,0.6,0.7,1,0.8c0.8,0.2,0.8,0.7,0.6,1.2c-0.3,0.9-0.8,1.5-1.6,1.9c-0.7,0.4-1,0.9-0.8,1.7
			c0.2,1.3,0.3,2.7,0.3,4c0.1,1.3-0.4,2.4-1.2,3.5c-1,1.3-1.5,2.6-1.4,4.3c0.1,1.8,0,3.6,0,5.4c0,0.8,0.1,1.4,0.8,1.5
			c0.3,0,1.2,0.4,1.3,0.6c0.1,0.2,0.2,1.1-0.1,1.3c-0.2,0.1-0.5,0.1-1,0.1c-1,0.1-1.9,0.2-2.8-0.5C65.8,279.2,65.7,279.1,65.5,279z
			 M65.2,278.4c-0.3-0.7-0.5-1.4-0.6-2.3c-0.2,0.5-0.8,1.4-1.2,1.9C63.9,278,64.5,278.2,65.2,278.4z"/>
		<path class="st0" d="M118.3,279C118.2,279,118.2,279,118.3,279c-0.2,1.1-0.4,1.3-1.5,1.3c-2.8,0-5.5,0-8.3,0
			c-0.4,0-0.7-0.1-1.1-0.2c-0.3-0.1-0.5,0.1-0.5,0.4c-0.1,1.1,0.1,2.1,1.2,2.6c0.5,0.3,1.5,0.5,2.1,0.6c1,0.1,1.7,0.4,2.7,0.1
			c0.6-0.1,0.7-0.6,0.6-0.9c-0.1-0.3-0.3-0.6-0.4-0.9c0-0.2,0-0.6,0.2-0.7c0.2-0.1,0.6-0.1,0.8,0c0.8,0.5,1.2,1.3,1.2,2.2
			c0,0.8-0.5,1.5-1.4,1.8c-0.8,0.3-2.6,0.5-4.2,0.1c-1.8-0.4-2.7-0.8-3.3-1.2c-0.8-0.5-1.3-1.5-1.4-2.4c-0.2-1.3,0-2.5,0.6-3.6
			c0.4-0.8,0.3-1.7,0.2-2.5c-0.1-1.1-0.4-2.7-0.4-3.8c0-1.5,0-2.5,0.3-4c0.1-0.9,0.6-1.7,1-2.5c0.6-1.3,1.4-2.5,2.4-3.6
			c0.7-0.7,1.4-1.1,2.3-1.3c1.4-0.4,2.4-1.3,3.3-2.5c0.3-0.4,0.4-0.8,0.4-1.3c0-1.5,0.5-2.8,1.5-3.9c0.2-0.2,0.5-0.5,0.7-0.6
			c1-0.3,1.3-1.1,1.7-1.9c0.2-0.4,0.4-0.7,0.6-1c0.2-0.3,0.6-0.8,0.8-0.4c0.2,0.3,0.3,0.8,0.4,1.1c0.1,0.6,0.2,0.9,0.2,1.5
			c0,0.5,0.2,0.8,0.7,0.9c0.7,0.1,1.3,0.4,1.7,1.1c0.2,0.4,0.6,0.7,1,0.8c0.8,0.2,0.8,0.7,0.6,1.2c-0.3,0.9-0.8,1.5-1.6,1.9
			c-0.7,0.4-1,0.9-0.8,1.7c0.2,1.3,0.3,2.7,0.3,4c0.1,1.3-0.4,2.4-1.2,3.5c-1,1.3-1.5,2.6-1.4,4.3c0.1,1.8,0,3.6,0,5.4
			c0,0.8,0.1,1.4,0.8,1.5c0.3,0,1.2,0.4,1.3,0.6c0.1,0.2,0.2,1.1-0.1,1.3c-0.2,0.1-0.5,0.1-1,0.1c-1,0.1-1.9,0.2-2.8-0.5
			C118.5,279.2,118.4,279.1,118.3,279z M117.9,278.4c-0.3-0.7-0.5-1.4-0.6-2.3c-0.2,0.5-0.8,1.4-1.2,1.9
			C116.7,278,117.3,278.2,117.9,278.4z"/>
		<path class="st0" d="M170.4,279C170.3,279,170.3,279,170.4,279c-0.2,1.1-0.4,1.3-1.5,1.3c-2.8,0-5.5,0-8.3,0
			c-0.4,0-0.7-0.1-1.1-0.2c-0.3-0.1-0.5,0.1-0.5,0.4c-0.1,1.1,0.1,2.1,1.2,2.6c0.5,0.3,1.5,0.5,2.1,0.6c1,0.1,1.7,0.4,2.7,0.1
			c0.6-0.1,0.7-0.6,0.6-0.9c-0.1-0.3-0.3-0.6-0.4-0.9c0-0.2,0-0.6,0.2-0.7c0.2-0.1,0.6-0.1,0.8,0c0.8,0.5,1.2,1.3,1.2,2.2
			c0,0.8-0.5,1.5-1.4,1.8c-0.8,0.3-2.6,0.5-4.2,0.1c-1.8-0.4-2.7-0.8-3.3-1.2c-0.8-0.5-1.3-1.5-1.4-2.4c-0.2-1.3,0-2.5,0.6-3.6
			c0.4-0.8,0.3-1.7,0.2-2.5c-0.1-1.1-0.4-2.7-0.4-3.8c0-1.5,0-2.5,0.3-4c0.1-0.9,0.6-1.7,1-2.5c0.6-1.3,1.4-2.5,2.4-3.6
			c0.7-0.7,1.4-1.1,2.3-1.3c1.4-0.4,2.4-1.3,3.3-2.5c0.3-0.4,0.4-0.8,0.4-1.3c0-1.5,0.5-2.8,1.5-3.9c0.2-0.2,0.5-0.5,0.7-0.6
			c1-0.3,1.3-1.1,1.7-1.9c0.2-0.4,0.4-0.7,0.6-1c0.2-0.3,0.6-0.8,0.8-0.4c0.2,0.3,0.3,0.8,0.4,1.1c0.1,0.6,0.2,0.9,0.2,1.5
			c0,0.5,0.2,0.8,0.7,0.9c0.7,0.1,1.3,0.4,1.7,1.1c0.2,0.4,0.6,0.7,1,0.8c0.8,0.2,0.8,0.7,0.6,1.2c-0.3,0.9-0.8,1.5-1.6,1.9
			c-0.7,0.4-1,0.9-0.8,1.7c0.2,1.3,0.3,2.7,0.3,4c0.1,1.3-0.4,2.4-1.2,3.5c-1,1.3-1.5,2.6-1.4,4.3c0.1,1.8,0,3.6,0,5.4
			c0,0.8,0.1,1.4,0.8,1.5c0.3,0,1.2,0.4,1.3,0.6c0.1,0.2,0.2,1.1-0.1,1.3c-0.2,0.1-0.5,0.1-1,0.1c-1,0.1-1.9,0.2-2.8-0.5
			C170.6,279.2,170.5,279.1,170.4,279z M170,278.4c-0.3-0.7-0.5-1.4-0.6-2.3c-0.2,0.5-0.8,1.4-1.2,1.9
			C168.8,278,169.4,278.2,170,278.4z"/>
		<path class="st0" d="M222.5,279C222.4,279,222.4,279,222.5,279c-0.2,1.1-0.4,1.3-1.5,1.3c-2.8,0-5.5,0-8.3,0
			c-0.4,0-0.7-0.1-1.1-0.2c-0.3-0.1-0.5,0.1-0.5,0.4c-0.1,1.1,0.1,2.1,1.2,2.6c0.5,0.3,1.5,0.5,2.1,0.6c1,0.1,1.7,0.4,2.7,0.1
			c0.6-0.1,0.7-0.6,0.6-0.9c-0.1-0.3-0.3-0.6-0.4-0.9c0-0.2,0-0.6,0.2-0.7c0.2-0.1,0.6-0.1,0.8,0c0.8,0.5,1.2,1.3,1.2,2.2
			c0,0.8-0.5,1.5-1.4,1.8c-0.8,0.3-2.6,0.5-4.2,0.1c-1.8-0.4-2.7-0.8-3.3-1.2c-0.8-0.5-1.3-1.5-1.4-2.4c-0.2-1.3,0-2.5,0.6-3.6
			c0.4-0.8,0.3-1.7,0.2-2.5c-0.1-1.1-0.4-2.7-0.4-3.8c0-1.5,0-2.5,0.3-4c0.1-0.9,0.6-1.7,1-2.5c0.6-1.3,1.4-2.5,2.4-3.6
			c0.7-0.7,1.4-1.1,2.3-1.3c1.4-0.4,2.4-1.3,3.3-2.5c0.3-0.4,0.4-0.8,0.4-1.3c0-1.5,0.5-2.8,1.5-3.9c0.2-0.2,0.5-0.5,0.7-0.6
			c1-0.3,1.3-1.1,1.7-1.9c0.2-0.4,0.4-0.7,0.6-1c0.2-0.3,0.6-0.8,0.8-0.4c0.2,0.3,0.3,0.8,0.4,1.1c0.1,0.6,0.2,0.9,0.2,1.5
			c0,0.5,0.2,0.8,0.7,0.9c0.7,0.1,1.3,0.4,1.7,1.1c0.2,0.4,0.6,0.7,1,0.8c0.8,0.2,0.8,0.7,0.6,1.2c-0.3,0.9-0.8,1.5-1.6,1.9
			c-0.7,0.4-1,0.9-0.8,1.7c0.2,1.3,0.3,2.7,0.3,4c0.1,1.3-0.4,2.4-1.2,3.5c-1,1.3-1.5,2.6-1.4,4.3c0.1,1.8,0,3.6,0,5.4
			c0,0.8,0.1,1.4,0.8,1.5c0.3,0,1.2,0.4,1.3,0.6c0.1,0.2,0.2,1.1-0.1,1.3c-0.2,0.1-0.5,0.1-1,0.1c-1,0.1-1.9,0.2-2.8-0.5
			C222.7,279.2,222.6,279.1,222.5,279z M222.1,278.4c-0.3-0.7-0.5-1.4-0.6-2.3c-0.2,0.5-0.8,1.4-1.2,1.9
			C220.9,278,221.5,278.2,222.1,278.4z"/>
	</g>
	<g>
		<path class="st0" d="M13.4,341.1C13.4,341.2,13.4,341.2,13.4,341.1c-0.2,1.1-0.4,1.3-1.5,1.3c-2.8,0-5.5,0-8.3,0
			c-0.4,0-0.7-0.1-1.1-0.2c-0.3-0.1-0.5,0.1-0.5,0.4c-0.1,1.1,0.1,2.1,1.2,2.6c0.5,0.3,1.5,0.5,2.1,0.6c1,0.1,1.7,0.4,2.7,0.1
			c0.6-0.1,0.7-0.6,0.6-0.9c-0.1-0.3-0.3-0.6-0.4-0.9c0-0.2,0-0.6,0.2-0.7c0.2-0.1,0.6-0.1,0.8,0c0.8,0.5,1.2,1.3,1.2,2.2
			c0,0.8-0.5,1.5-1.4,1.8c-0.8,0.3-2.6,0.5-4.2,0.1c-1.8-0.4-2.7-0.8-3.3-1.2c-0.8-0.5-1.3-1.5-1.4-2.4c-0.2-1.3,0-2.5,0.6-3.6
			c0.4-0.8,0.3-1.7,0.2-2.5c-0.1-1.1-0.4-2.7-0.4-3.8c0-1.5,0-2.5,0.3-4c0.1-0.9,0.6-1.7,1-2.5c0.6-1.3,1.4-2.5,2.4-3.6
			c0.7-0.7,1.4-1.1,2.3-1.3c1.4-0.4,2.4-1.3,3.3-2.5c0.3-0.4,0.4-0.8,0.4-1.3c0-1.5,0.5-2.8,1.5-3.9c0.2-0.2,0.5-0.5,0.7-0.6
			c1-0.3,1.3-1.1,1.7-1.9c0.2-0.4,0.4-0.7,0.6-1c0.2-0.3,0.6-0.8,0.8-0.4c0.2,0.3,0.3,0.8,0.4,1.1c0.1,0.6,0.2,0.9,0.2,1.5
			c0,0.5,0.2,0.8,0.7,0.9c0.7,0.1,1.3,0.4,1.7,1.1c0.2,0.4,0.6,0.7,1,0.8c0.8,0.2,0.8,0.7,0.6,1.2c-0.3,0.9-0.8,1.5-1.6,1.9
			c-0.7,0.4-1,0.9-0.8,1.7c0.2,1.3,0.3,2.7,0.3,4c0.1,1.3-0.4,2.4-1.2,3.5c-1,1.3-1.5,2.6-1.4,4.3c0.1,1.8,0,3.6,0,5.4
			c0,0.8,0.1,1.4,0.8,1.5c0.3,0,1.2,0.4,1.3,0.6c0.1,0.2,0.2,1.1-0.1,1.3c-0.2,0.1-0.5,0.1-1,0.1c-1,0.1-1.9,0.2-2.8-0.5
			C13.7,341.4,13.6,341.2,13.4,341.1z M13.1,340.6c-0.3-0.7-0.5-1.4-0.6-2.3c-0.2,0.5-0.8,1.4-1.2,1.9
			C11.8,340.2,12.4,340.3,13.1,340.6z"/>
		<path class="st0" d="M65.5,341.1C65.5,341.2,65.5,341.2,65.5,341.1c-0.2,1.1-0.4,1.3-1.5,1.3c-2.8,0-5.5,0-8.3,0
			c-0.4,0-0.7-0.1-1.1-0.2c-0.3-0.1-0.5,0.1-0.5,0.4c-0.1,1.1,0.1,2.1,1.2,2.6c0.5,0.3,1.5,0.5,2.1,0.6c1,0.1,1.7,0.4,2.7,0.1
			c0.6-0.1,0.7-0.6,0.6-0.9c-0.1-0.3-0.3-0.6-0.4-0.9c0-0.2,0-0.6,0.2-0.7c0.2-0.1,0.6-0.1,0.8,0c0.8,0.5,1.2,1.3,1.2,2.2
			c0,0.8-0.5,1.5-1.4,1.8c-0.8,0.3-2.6,0.5-4.2,0.1c-1.8-0.4-2.7-0.8-3.3-1.2c-0.8-0.5-1.3-1.5-1.4-2.4c-0.2-1.3,0-2.5,0.6-3.6
			c0.4-0.8,0.3-1.7,0.2-2.5c-0.1-1.1-0.4-2.7-0.4-3.8c0-1.5,0-2.5,0.3-4c0.1-0.9,0.6-1.7,1-2.5c0.6-1.3,1.4-2.5,2.4-3.6
			c0.7-0.7,1.4-1.1,2.3-1.3c1.4-0.4,2.4-1.3,3.3-2.5c0.3-0.4,0.4-0.8,0.4-1.3c0-1.5,0.5-2.8,1.5-3.9c0.2-0.2,0.5-0.5,0.7-0.6
			c1-0.3,1.3-1.1,1.7-1.9c0.2-0.4,0.4-0.7,0.6-1c0.2-0.3,0.6-0.8,0.8-0.4c0.2,0.3,0.3,0.8,0.4,1.1c0.1,0.6,0.2,0.9,0.2,1.5
			c0,0.5,0.2,0.8,0.7,0.9c0.7,0.1,1.3,0.4,1.7,1.1c0.2,0.4,0.6,0.7,1,0.8c0.8,0.2,0.8,0.7,0.6,1.2c-0.3,0.9-0.8,1.5-1.6,1.9
			c-0.7,0.4-1,0.9-0.8,1.7c0.2,1.3,0.3,2.7,0.3,4c0.1,1.3-0.4,2.4-1.2,3.5c-1,1.3-1.5,2.6-1.4,4.3c0.1,1.8,0,3.6,0,5.4
			c0,0.8,0.1,1.4,0.8,1.5c0.3,0,1.2,0.4,1.3,0.6c0.1,0.2,0.2,1.1-0.1,1.3c-0.2,0.1-0.5,0.1-1,0.1c-1,0.1-1.9,0.2-2.8-0.5
			C65.8,341.4,65.7,341.2,65.5,341.1z M65.2,340.6c-0.3-0.7-0.5-1.4-0.6-2.3c-0.2,0.5-0.8,1.4-1.2,1.9
			C63.9,340.2,64.5,340.3,65.2,340.6z"/>
		<path class="st0" d="M118.3,341.1C118.2,341.2,118.2,341.2,118.3,341.1c-0.2,1.1-0.4,1.3-1.5,1.3c-2.8,0-5.5,0-8.3,0
			c-0.4,0-0.7-0.1-1.1-0.2c-0.3-0.1-0.5,0.1-0.5,0.4c-0.1,1.1,0.1,2.1,1.2,2.6c0.5,0.3,1.5,0.5,2.1,0.6c1,0.1,1.7,0.4,2.7,0.1
			c0.6-0.1,0.7-0.6,0.6-0.9c-0.1-0.3-0.3-0.6-0.4-0.9c0-0.2,0-0.6,0.2-0.7c0.2-0.1,0.6-0.1,0.8,0c0.8,0.5,1.2,1.3,1.2,2.2
			c0,0.8-0.5,1.5-1.4,1.8c-0.8,0.3-2.6,0.5-4.2,0.1c-1.8-0.4-2.7-0.8-3.3-1.2c-0.8-0.5-1.3-1.5-1.4-2.4c-0.2-1.3,0-2.5,0.6-3.6
			c0.4-0.8,0.3-1.7,0.2-2.5c-0.1-1.1-0.4-2.7-0.4-3.8c0-1.5,0-2.5,0.3-4c0.1-0.9,0.6-1.7,1-2.5c0.6-1.3,1.4-2.5,2.4-3.6
			c0.7-0.7,1.4-1.1,2.3-1.3c1.4-0.4,2.4-1.3,3.3-2.5c0.3-0.4,0.4-0.8,0.4-1.3c0-1.5,0.5-2.8,1.5-3.9c0.2-0.2,0.5-0.5,0.7-0.6
			c1-0.3,1.3-1.1,1.7-1.9c0.2-0.4,0.4-0.7,0.6-1c0.2-0.3,0.6-0.8,0.8-0.4c0.2,0.3,0.3,0.8,0.4,1.1c0.1,0.6,0.2,0.9,0.2,1.5
			c0,0.5,0.2,0.8,0.7,0.9c0.7,0.1,1.3,0.4,1.7,1.1c0.2,0.4,0.6,0.7,1,0.8c0.8,0.2,0.8,0.7,0.6,1.2c-0.3,0.9-0.8,1.5-1.6,1.9
			c-0.7,0.4-1,0.9-0.8,1.7c0.2,1.3,0.3,2.7,0.3,4c0.1,1.3-0.4,2.4-1.2,3.5c-1,1.3-1.5,2.6-1.4,4.3c0.1,1.8,0,3.6,0,5.4
			c0,0.8,0.1,1.4,0.8,1.5c0.3,0,1.2,0.4,1.3,0.6c0.1,0.2,0.2,1.1-0.1,1.3c-0.2,0.1-0.5,0.1-1,0.1c-1,0.1-1.9,0.2-2.8-0.5
			C118.5,341.4,118.4,341.2,118.3,341.1z M117.9,340.6c-0.3-0.7-0.5-1.4-0.6-2.3c-0.2,0.5-0.8,1.4-1.2,1.9
			C116.7,340.2,117.3,340.3,117.9,340.6z"/>
		<path class="st0" d="M170.4,341.1C170.3,341.2,170.3,341.2,170.4,341.1c-0.2,1.1-0.4,1.3-1.5,1.3c-2.8,0-5.5,0-8.3,0
			c-0.4,0-0.7-0.1-1.1-0.2c-0.3-0.1-0.5,0.1-0.5,0.4c-0.1,1.1,0.1,2.1,1.2,2.6c0.5,0.3,1.5,0.5,2.1,0.6c1,0.1,1.7,0.4,2.7,0.1
			c0.6-0.1,0.7-0.6,0.6-0.9c-0.1-0.3-0.3-0.6-0.4-0.9c0-0.2,0-0.6,0.2-0.7c0.2-0.1,0.6-0.1,0.8,0c0.8,0.5,1.2,1.3,1.2,2.2
			c0,0.8-0.5,1.5-1.4,1.8c-0.8,0.3-2.6,0.5-4.2,0.1c-1.8-0.4-2.7-0.8-3.3-1.2c-0.8-0.5-1.3-1.5-1.4-2.4c-0.2-1.3,0-2.5,0.6-3.6
			c0.4-0.8,0.3-1.7,0.2-2.5c-0.1-1.1-0.4-2.7-0.4-3.8c0-1.5,0-2.5,0.3-4c0.1-0.9,0.6-1.7,1-2.5c0.6-1.3,1.4-2.5,2.4-3.6
			c0.7-0.7,1.4-1.1,2.3-1.3c1.4-0.4,2.4-1.3,3.3-2.5c0.3-0.4,0.4-0.8,0.4-1.3c0-1.5,0.5-2.8,1.5-3.9c0.2-0.2,0.5-0.5,0.7-0.6
			c1-0.3,1.3-1.1,1.7-1.9c0.2-0.4,0.4-0.7,0.6-1c0.2-0.3,0.6-0.8,0.8-0.4c0.2,0.3,0.3,0.8,0.4,1.1c0.1,0.6,0.2,0.9,0.2,1.5
			c0,0.5,0.2,0.8,0.7,0.9c0.7,0.1,1.3,0.4,1.7,1.1c0.2,0.4,0.6,0.7,1,0.8c0.8,0.2,0.8,0.7,0.6,1.2c-0.3,0.9-0.8,1.5-1.6,1.9
			c-0.7,0.4-1,0.9-0.8,1.7c0.2,1.3,0.3,2.7,0.3,4c0.1,1.3-0.4,2.4-1.2,3.5c-1,1.3-1.5,2.6-1.4,4.3c0.1,1.8,0,3.6,0,5.4
			c0,0.8,0.1,1.4,0.8,1.5c0.3,0,1.2,0.4,1.3,0.6c0.1,0.2,0.2,1.1-0.1,1.3c-0.2,0.1-0.5,0.1-1,0.1c-1,0.1-1.9,0.2-2.8-0.5
			C170.6,341.4,170.5,341.2,170.4,341.1z M170,340.6c-0.3-0.7-0.5-1.4-0.6-2.3c-0.2,0.5-0.8,1.4-1.2,1.9
			C168.8,340.2,169.4,340.3,170,340.6z"/>
		<path class="st0" d="M222.5,341.1C222.4,341.2,222.4,341.2,222.5,341.1c-0.2,1.1-0.4,1.3-1.5,1.3c-2.8,0-5.5,0-8.3,0
			c-0.4,0-0.7-0.1-1.1-0.2c-0.3-0.1-0.5,0.1-0.5,0.4c-0.1,1.1,0.1,2.1,1.2,2.6c0.5,0.3,1.5,0.5,2.1,0.6c1,0.1,1.7,0.4,2.7,0.1
			c0.6-0.1,0.7-0.6,0.6-0.9c-0.1-0.3-0.3-0.6-0.4-0.9c0-0.2,0-0.6,0.2-0.7c0.2-0.1,0.6-0.1,0.8,0c0.8,0.5,1.2,1.3,1.2,2.2
			c0,0.8-0.5,1.5-1.4,1.8c-0.8,0.3-2.6,0.5-4.2,0.1c-1.8-0.4-2.7-0.8-3.3-1.2c-0.8-0.5-1.3-1.5-1.4-2.4c-0.2-1.3,0-2.5,0.6-3.6
			c0.4-0.8,0.3-1.7,0.2-2.5c-0.1-1.1-0.4-2.7-0.4-3.8c0-1.5,0-2.5,0.3-4c0.1-0.9,0.6-1.7,1-2.5c0.6-1.3,1.4-2.5,2.4-3.6
			c0.7-0.7,1.4-1.1,2.3-1.3c1.4-0.4,2.4-1.3,3.3-2.5c0.3-0.4,0.4-0.8,0.4-1.3c0-1.5,0.5-2.8,1.5-3.9c0.2-0.2,0.5-0.5,0.7-0.6
			c1-0.3,1.3-1.1,1.7-1.9c0.2-0.4,0.4-0.7,0.6-1c0.2-0.3,0.6-0.8,0.8-0.4c0.2,0.3,0.3,0.8,0.4,1.1c0.1,0.6,0.2,0.9,0.2,1.5
			c0,0.5,0.2,0.8,0.7,0.9c0.7,0.1,1.3,0.4,1.7,1.1c0.2,0.4,0.6,0.7,1,0.8c0.8,0.2,0.8,0.7,0.6,1.2c-0.3,0.9-0.8,1.5-1.6,1.9
			c-0.7,0.4-1,0.9-0.8,1.7c0.2,1.3,0.3,2.7,0.3,4c0.1,1.3-0.4,2.4-1.2,3.5c-1,1.3-1.5,2.6-1.4,4.3c0.1,1.8,0,3.6,0,5.4
			c0,0.8,0.1,1.4,0.8,1.5c0.3,0,1.2,0.4,1.3,0.6c0.1,0.2,0.2,1.1-0.1,1.3c-0.2,0.1-0.5,0.1-1,0.1c-1,0.1-1.9,0.2-2.8-0.5
			C222.7,341.4,222.6,341.2,222.5,341.1z M222.1,340.6c-0.3-0.7-0.5-1.4-0.6-2.3c-0.2,0.5-0.8,1.4-1.2,1.9
			C220.9,340.2,221.5,340.3,222.1,340.6z"/>
	</g>
	<g>
		<polygon class="st1" points="62,125.4 72.7,125.8 65.7,137.8 74,140.6 55.3,163.3 62.8,144.4 53.7,141.1 		"/>
		<path class="st0" d="M13.4,154.6C13.4,154.6,13.4,154.7,13.4,154.6c-0.2,1.1-0.4,1.3-1.5,1.3c-2.8,0-5.5,0-8.3,0
			c-0.4,0-0.7-0.1-1.1-0.2c-0.3-0.1-0.5,0.1-0.5,0.4c-0.1,1.1,0.1,2.1,1.2,2.6c0.5,0.3,1.5,0.5,2.1,0.6c1,0.1,1.7,0.4,2.7,0.1
			c0.6-0.1,0.7-0.6,0.6-0.9c-0.1-0.3-0.3-0.6-0.4-0.9c0-0.2,0-0.6,0.2-0.7c0.2-0.1,0.6-0.1,0.8,0c0.8,0.5,1.2,1.3,1.2,2.2
			c0,0.8-0.5,1.5-1.4,1.8c-0.8,0.3-2.6,0.5-4.2,0.1c-1.8-0.4-2.7-0.8-3.3-1.2c-0.8-0.5-1.3-1.5-1.4-2.4c-0.2-1.3,0-2.5,0.6-3.6
			c0.4-0.8,0.3-1.7,0.2-2.5c-0.1-1.1-0.4-2.7-0.4-3.8c0-1.5,0-2.5,0.3-4c0.1-0.9,0.6-1.7,1-2.5c0.6-1.3,1.4-2.5,2.4-3.6
			c0.7-0.7,1.4-1.1,2.3-1.3c1.4-0.4,2.4-1.3,3.3-2.5c0.3-0.4,0.4-0.8,0.4-1.3c0-1.5,0.5-2.8,1.5-3.9c0.2-0.2,0.5-0.5,0.7-0.6
			c1-0.3,1.3-1.1,1.7-1.9c0.2-0.4,0.4-0.7,0.6-1c0.2-0.3,0.6-0.8,0.8-0.4c0.2,0.3,0.3,0.8,0.4,1.1c0.1,0.6,0.2,0.9,0.2,1.5
			c0,0.5,0.2,0.8,0.7,0.9c0.7,0.1,1.3,0.4,1.7,1.1c0.2,0.4,0.6,0.7,1,0.8c0.8,0.2,0.8,0.7,0.6,1.2c-0.3,0.9-0.8,1.5-1.6,1.9
			c-0.7,0.4-1,0.9-0.8,1.7c0.2,1.3,0.3,2.7,0.3,4c0.1,1.3-0.4,2.4-1.2,3.5c-1,1.3-1.5,2.6-1.4,4.3c0.1,1.8,0,3.6,0,5.4
			c0,0.8,0.1,1.4,0.8,1.5c0.3,0,1.2,0.4,1.3,0.6c0.1,0.2,0.2,1.1-0.1,1.3c-0.2,0.1-0.5,0.1-1,0.1c-1,0.1-1.9,0.2-2.8-0.5
			C13.7,154.8,13.6,154.7,13.4,154.6z M13.1,154c-0.3-0.7-0.5-1.4-0.6-2.3c-0.2,0.5-0.8,1.4-1.2,1.9C11.8,153.7,12.4,153.8,13.1,154
			z"/>
		<path class="st0" d="M118.3,154.6C118.2,154.6,118.2,154.7,118.3,154.6c-0.2,1.1-0.4,1.3-1.5,1.3c-2.8,0-5.5,0-8.3,0
			c-0.4,0-0.7-0.1-1.1-0.2c-0.3-0.1-0.5,0.1-0.5,0.4c-0.1,1.1,0.1,2.1,1.2,2.6c0.5,0.3,1.5,0.5,2.1,0.6c1,0.1,1.7,0.4,2.7,0.1
			c0.6-0.1,0.7-0.6,0.6-0.9c-0.1-0.3-0.3-0.6-0.4-0.9c0-0.2,0-0.6,0.2-0.7c0.2-0.1,0.6-0.1,0.8,0c0.8,0.5,1.2,1.3,1.2,2.2
			c0,0.8-0.5,1.5-1.4,1.8c-0.8,0.3-2.6,0.5-4.2,0.1c-1.8-0.4-2.7-0.8-3.3-1.2c-0.8-0.5-1.3-1.5-1.4-2.4c-0.2-1.3,0-2.5,0.6-3.6
			c0.4-0.8,0.3-1.7,0.2-2.5c-0.1-1.1-0.4-2.7-0.4-3.8c0-1.5,0-2.5,0.3-4c0.1-0.9,0.6-1.7,1-2.5c0.6-1.3,1.4-2.5,2.4-3.6
			c0.7-0.7,1.4-1.1,2.3-1.3c1.4-0.4,2.4-1.3,3.3-2.5c0.3-0.4,0.4-0.8,0.4-1.3c0-1.5,0.5-2.8,1.5-3.9c0.2-0.2,0.5-0.5,0.7-0.6
			c1-0.3,1.3-1.1,1.7-1.9c0.2-0.4,0.4-0.7,0.6-1c0.2-0.3,0.6-0.8,0.8-0.4c0.2,0.3,0.3,0.8,0.4,1.1c0.1,0.6,0.2,0.9,0.2,1.5
			c0,0.5,0.2,0.8,0.7,0.9c0.7,0.1,1.3,0.4,1.7,1.1c0.2,0.4,0.6,0.7,1,0.8c0.8,0.2,0.8,0.7,0.6,1.2c-0.3,0.9-0.8,1.5-1.6,1.9
			c-0.7,0.4-1,0.9-0.8,1.7c0.2,1.3,0.3,2.7,0.3,4c0.1,1.3-0.4,2.4-1.2,3.5c-1,1.3-1.5,2.6-1.4,4.3c0.1,1.8,0,3.6,0,5.4
			c0,0.8,0.1,1.4,0.8,1.5c0.3,0,1.2,0.4,1.3,0.6c0.1,0.2,0.2,1.1-0.1,1.3c-0.2,0.1-0.5,0.1-1,0.1c-1,0.1-1.9,0.2-2.8-0.5
			C118.5,154.8,118.4,154.7,118.3,154.6z M117.9,154c-0.3-0.7-0.5-1.4-0.6-2.3c-0.2,0.5-0.8,1.4-1.2,1.9
			C116.7,153.7,117.3,153.8,117.9,154z"/>
		<path class="st0" d="M170.4,154.6C170.3,154.6,170.3,154.7,170.4,154.6c-0.2,1.1-0.4,1.3-1.5,1.3c-2.8,0-5.5,0-8.3,0
			c-0.4,0-0.7-0.1-1.1-0.2c-0.3-0.1-0.5,0.1-0.5,0.4c-0.1,1.1,0.1,2.1,1.2,2.6c0.5,0.3,1.5,0.5,2.1,0.6c1,0.1,1.7,0.4,2.7,0.1
			c0.6-0.1,0.7-0.6,0.6-0.9c-0.1-0.3-0.3-0.6-0.4-0.9c0-0.2,0-0.6,0.2-0.7c0.2-0.1,0.6-0.1,0.8,0c0.8,0.5,1.2,1.3,1.2,2.2
			c0,0.8-0.5,1.5-1.4,1.8c-0.8,0.3-2.6,0.5-4.2,0.1c-1.8-0.4-2.7-0.8-3.3-1.2c-0.8-0.5-1.3-1.5-1.4-2.4c-0.2-1.3,0-2.5,0.6-3.6
			c0.4-0.8,0.3-1.7,0.2-2.5c-0.1-1.1-0.4-2.7-0.4-3.8c0-1.5,0-2.5,0.3-4c0.1-0.9,0.6-1.7,1-2.5c0.6-1.3,1.4-2.5,2.4-3.6
			c0.7-0.7,1.4-1.1,2.3-1.3c1.4-0.4,2.4-1.3,3.3-2.5c0.3-0.4,0.4-0.8,0.4-1.3c0-1.5,0.5-2.8,1.5-3.9c0.2-0.2,0.5-0.5,0.7-0.6
			c1-0.3,1.3-1.1,1.7-1.9c0.2-0.4,0.4-0.7,0.6-1c0.2-0.3,0.6-0.8,0.8-0.4c0.2,0.3,0.3,0.8,0.4,1.1c0.1,0.6,0.2,0.9,0.2,1.5
			c0,0.5,0.2,0.8,0.7,0.9c0.7,0.1,1.3,0.4,1.7,1.1c0.2,0.4,0.6,0.7,1,0.8c0.8,0.2,0.8,0.7,0.6,1.2c-0.3,0.9-0.8,1.5-1.6,1.9
			c-0.7,0.4-1,0.9-0.8,1.7c0.2,1.3,0.3,2.7,0.3,4c0.1,1.3-0.4,2.4-1.2,3.5c-1,1.3-1.5,2.6-1.4,4.3c0.1,1.8,0,3.6,0,5.4
			c0,0.8,0.1,1.4,0.8,1.5c0.3,0,1.2,0.4,1.3,0.6c0.1,0.2,0.2,1.1-0.1,1.3c-0.2,0.1-0.5,0.1-1,0.1c-1,0.1-1.9,0.2-2.8-0.5
			C170.6,154.8,170.5,154.7,170.4,154.6z M170,154c-0.3-0.7-0.5-1.4-0.6-2.3c-0.2,0.5-0.8,1.4-1.2,1.9
			C168.8,153.7,169.4,153.8,170,154z"/>
		<path class="st0" d="M222.5,154.6C222.4,154.6,222.4,154.7,222.5,154.6c-0.2,1.1-0.4,1.3-1.5,1.3c-2.8,0-5.5,0-8.3,0
			c-0.4,0-0.7-0.1-1.1-0.2c-0.3-0.1-0.5,0.1-0.5,0.4c-0.1,1.1,0.1,2.1,1.2,2.6c0.5,0.3,1.5,0.5,2.1,0.6c1,0.1,1.7,0.4,2.7,0.1
			c0.6-0.1,0.7-0.6,0.6-0.9c-0.1-0.3-0.3-0.6-0.4-0.9c0-0.2,0-0.6,0.2-0.7c0.2-0.1,0.6-0.1,0.8,0c0.8,0.5,1.2,1.3,1.2,2.2
			c0,0.8-0.5,1.5-1.4,1.8c-0.8,0.3-2.6,0.5-4.2,0.1c-1.8-0.4-2.7-0.8-3.3-1.2c-0.8-0.5-1.3-1.5-1.4-2.4c-0.2-1.3,0-2.5,0.6-3.6
			c0.4-0.8,0.3-1.7,0.2-2.5c-0.1-1.1-0.4-2.7-0.4-3.8c0-1.5,0-2.5,0.3-4c0.1-0.9,0.6-1.7,1-2.5c0.6-1.3,1.4-2.5,2.4-3.6
			c0.7-0.7,1.4-1.1,2.3-1.3c1.4-0.4,2.4-1.3,3.3-2.5c0.3-0.4,0.4-0.8,0.4-1.3c0-1.5,0.5-2.8,1.5-3.9c0.2-0.2,0.5-0.5,0.7-0.6
			c1-0.3,1.3-1.1,1.7-1.9c0.2-0.4,0.4-0.7,0.6-1c0.2-0.3,0.6-0.8,0.8-0.4c0.2,0.3,0.3,0.8,0.4,1.1c0.1,0.6,0.2,0.9,0.2,1.5
			c0,0.5,0.2,0.8,0.7,0.9c0.7,0.1,1.3,0.4,1.7,1.1c0.2,0.4,0.6,0.7,1,0.8c0.8,0.2,0.8,0.7,0.6,1.2c-0.3,0.9-0.8,1.5-1.6,1.9
			c-0.7,0.4-1,0.9-0.8,1.7c0.2,1.3,0.3,2.7,0.3,4c0.1,1.3-0.4,2.4-1.2,3.5c-1,1.3-1.5,2.6-1.4,4.3c0.1,1.8,0,3.6,0,5.4
			c0,0.8,0.1,1.4,0.8,1.5c0.3,0,1.2,0.4,1.3,0.6c0.1,0.2,0.2,1.1-0.1,1.3c-0.2,0.1-0.5,0.1-1,0.1c-1,0.1-1.9,0.2-2.8-0.5
			C222.7,154.8,222.6,154.7,222.5,154.6z M222.1,154c-0.3-0.7-0.5-1.4-0.6-2.3c-0.2,0.5-0.8,1.4-1.2,1.9
			C220.9,153.7,221.5,153.8,222.1,154z"/>
	</g>
</g>
</svg>
