<svg xmlns="http://www.w3.org/2000/svg" xmlns:xlink="http://www.w3.org/1999/xlink" viewBox="0 0 231.8 404.5"><defs><linearGradient id="a" x1="3.34" y1="233.75" x2="231.59" y2="233.75" gradientUnits="userSpaceOnUse"><stop offset="0"/><stop offset="0.53" stop-color="#383642"/><stop offset="1"/></linearGradient><linearGradient id="b" x1="86.44" y1="339.93" x2="91.8" y2="339.93" gradientUnits="userSpaceOnUse"><stop offset="0" stop-color="#383642"/><stop offset="1" stop-color="#383642" stop-opacity="0"/></linearGradient><linearGradient id="c" x1="86.44" y1="288.9" x2="91.8" y2="288.9" xlink:href="#b"/><linearGradient id="d" x1="-5223.63" y1="-624.28" x2="-5218.27" y2="-624.28" gradientTransform="translate(-5078.3 -339) rotate(180)" xlink:href="#b"/><linearGradient id="e" x1="113.43" y1="310.32" x2="110.57" y2="318.63" xlink:href="#b"/><linearGradient id="f" x1="120.2" y1="313.52" x2="120.63" y2="307.2" xlink:href="#b"/><linearGradient id="g" x1="65.5" y1="363.72" x2="166.31" y2="363.72" gradientUnits="userSpaceOnUse"><stop offset="0" stop-color="#f4b223"/><stop offset="1" stop-color="#f4b223"/></linearGradient></defs><title>style--Artboard 1 copy 5</title><g style="isolation:isolate"><rect x="6.6" y="71.5" width="219.5" height="324.53" style="fill:url(#a)"/><rect x="44.2" y="309.6" width="143.3" height="6.15" transform="translate(-188.1 175.6) rotate(-45.4)" style="fill:#f4b223"/><rect x="163.1" y="312.8" width="6.2" height="51.12" style="fill:#f4b223"/><path d="M231.8,404.5V67.7H145.4V404.5ZM166.1,101.6a6.7,6.7,0,0,1,6.7,6.7,6.7,6.7,0,1,1-6.7-6.7Zm0,51.1a6.7,6.7,0,1,1-6.6,6.7A6.7,6.7,0,0,1,166.1,152.7Zm0,51.2a6.6,6.6,0,0,1,6.7,6.6,6.7,6.7,0,1,1-13.3,0A6.6,6.6,0,0,1,166.1,203.9Zm0,51.1a6.7,6.7,0,1,1-6.6,6.6A6.7,6.7,0,0,1,166.1,255Zm0,51.1a6.7,6.7,0,1,1-6.6,6.7A6.7,6.7,0,0,1,166.1,306.1Zm0,51.1a6.7,6.7,0,0,1,6.7,6.7,6.7,6.7,0,1,1-6.7-6.7Z" style="fill:#383642"/><path d="M166.1,119.6a11.3,11.3,0,1,0-11.2-11.3A11.3,11.3,0,0,0,166.1,119.6Zm0-18a6.7,6.7,0,0,1,6.7,6.7,6.7,6.7,0,1,1-6.7-6.7Z" style="fill:#636569"/><path d="M166.1,170.7a11.3,11.3,0,1,0-11.2-11.3A11.3,11.3,0,0,0,166.1,170.7Zm0-18a6.7,6.7,0,1,1-6.6,6.7A6.7,6.7,0,0,1,166.1,152.7Z" style="fill:#636569"/><path d="M166.1,221.8a11.3,11.3,0,1,0-11.2-11.3A11.3,11.3,0,0,0,166.1,221.8Zm0-17.9a6.6,6.6,0,0,1,6.7,6.6,6.7,6.7,0,1,1-13.3,0A6.6,6.6,0,0,1,166.1,203.9Z" style="fill:#636569"/><path d="M166.1,272.9a11.3,11.3,0,1,0-11.2-11.3A11.2,11.2,0,0,0,166.1,272.9Zm0-17.9a6.7,6.7,0,1,1-6.6,6.6A6.7,6.7,0,0,1,166.1,255Z" style="fill:#636569"/><path d="M166.1,324a11.3,11.3,0,1,0-11.2-11.2A11.2,11.2,0,0,0,166.1,324Zm0-17.9a6.7,6.7,0,1,1-6.6,6.7A6.7,6.7,0,0,1,166.1,306.1Z" style="fill:#636569"/><path d="M166.1,375.2a11.3,11.3,0,1,0-11.2-11.3A11.3,11.3,0,0,0,166.1,375.2Zm0-18a6.7,6.7,0,0,1,6.7,6.7,6.7,6.7,0,1,1-6.7-6.7Z" style="fill:#636569"/><circle cx="166.3" cy="363.7" r="2.9" style="fill:#f4b223"/><circle cx="166.3" cy="312.7" r="2.9" style="fill:#f4b223"/><circle cx="166.2" cy="261.6" r="3" style="fill:#f4b223"/><circle cx="65.5" cy="363.7" r="2.9" style="fill:#f4b223"/><circle cx="65.4" cy="312.7" r="3" style="fill:#f4b223"/><polygon points="86.4 338.1 86.4 346.9 91.8 341.4 91.4 333 86.4 338.1" style="mix-blend-mode:multiply;fill:url(#b)"/><polygon points="86.4 287.1 86.4 295.8 91.8 290.4 91.4 282 86.4 287.1" style="mix-blend-mode:multiply;fill:url(#c)"/><polygon points="145.4 287.1 145.4 278.3 140 283.8 140.4 292.2 145.4 287.1" style="mix-blend-mode:multiply;fill:url(#d)"/><polygon points="104.8 319.5 108.4 315.8 117 315.8 112.4 320.5 104.8 319.5" style="mix-blend-mode:multiply;fill:url(#e)"/><polygon points="114.5 309.6 118 306 126.7 306 123.2 309.6 114.5 309.6" style="mix-blend-mode:multiply;fill:url(#f)"/><path d="M166,266.3a6,6,0,0,1-2.3-.1,6.7,6.7,0,0,1-3.9-2.6c4.2-5.5,28.4-38.8,24.2-69.6-4.6-34.3-30.4-82.7-30.7-83.1l5.8-3.2c1.1,2.1,26.7,49.9,31.5,85.4,2.5,19.1-4.8,38.6-11.4,51.7A160.3,160.3,0,0,1,166,266.3Z" style="fill:#f4b223"/><path d="M155.7,106.6a4.1,4.1,0,0,1,5.4,2.1l9.2,20.2-7.5,3.4-9.2-20.2A4.2,4.2,0,0,1,155.7,106.6Z" style="fill:#aaa"/><path d="M83.5,296.4l-3.9-5.3c.3-.3,33.6-25,42.1-61.9,4.8-20.8-.6-25.3-8.7-32.1-5.9-5-13.3-11.1-17.8-24.7l6.2-2c3.9,11.8,9.9,16.8,15.8,21.7,8.5,7.2,16.5,13.9,10.8,38.6C119,269.9,84.9,295.3,83.5,296.4Z" style="fill:#f4b223"/><path d="M92.4,158.6a4.1,4.1,0,0,1,5.4,2.1l8.9,20.2-7.5,3.3L90.3,164A4.1,4.1,0,0,1,92.4,158.6Z" style="fill:#aaa"/><path d="M0,67.7V404.5H86.4V67.7ZM65.7,370.5a6.6,6.6,0,0,1-6.7-6.6,6.7,6.7,0,1,1,13.3,0A6.6,6.6,0,0,1,65.7,370.5Zm0-51.1a6.7,6.7,0,1,1,6.6-6.6A6.7,6.7,0,0,1,65.7,319.4Zm0-51.1a6.7,6.7,0,1,1,6.6-6.7A6.7,6.7,0,0,1,65.7,268.3Zm0-51.1a6.7,6.7,0,0,1-6.7-6.7,6.7,6.7,0,1,1,6.7,6.7Zm0-51.1a6.7,6.7,0,1,1,6.6-6.7A6.7,6.7,0,0,1,65.7,166.1Zm0-51.2a6.6,6.6,0,0,1-6.7-6.6,6.7,6.7,0,1,1,13.3,0A6.6,6.6,0,0,1,65.7,114.9Z" style="fill:#383642"/><path d="M65.7,352.6a11.3,11.3,0,1,0,11.2,11.3A11.2,11.2,0,0,0,65.7,352.6Zm0,17.9a6.6,6.6,0,0,1-6.7-6.6,6.7,6.7,0,1,1,13.3,0A6.6,6.6,0,0,1,65.7,370.5Z" style="fill:#636569"/><path d="M65.7,301.5a11.3,11.3,0,1,0,11.2,11.3A11.2,11.2,0,0,0,65.7,301.5Zm0,17.9a6.7,6.7,0,1,1,6.6-6.6A6.7,6.7,0,0,1,65.7,319.4Z" style="fill:#636569"/><path d="M65.7,250.4a11.3,11.3,0,1,0,11.2,11.2A11.2,11.2,0,0,0,65.7,250.4Zm0,17.9a6.7,6.7,0,1,1,6.6-6.7A6.7,6.7,0,0,1,65.7,268.3Z" style="fill:#636569"/><path d="M65.7,199.2a11.3,11.3,0,1,0,11.2,11.3A11.3,11.3,0,0,0,65.7,199.2Zm0,18a6.7,6.7,0,0,1-6.7-6.7,6.7,6.7,0,1,1,6.7,6.7Z" style="fill:#636569"/><path d="M65.7,148.1a11.3,11.3,0,1,0,11.2,11.3A11.3,11.3,0,0,0,65.7,148.1Zm0,18a6.7,6.7,0,1,1,6.6-6.7A6.7,6.7,0,0,1,65.7,166.1Z" style="fill:#636569"/><path d="M65.7,97a11.3,11.3,0,1,0,11.2,11.3A11.2,11.2,0,0,0,65.7,97Zm0,17.9a6.6,6.6,0,0,1-6.7-6.6,6.7,6.7,0,1,1,13.3,0A6.6,6.6,0,0,1,65.7,114.9Z" style="fill:#636569"/><rect x="65.5" y="309.6" width="100.6" height="6.15" style="fill:#f4b223"/><line x1="65.5" y1="363.7" x2="166.3" y2="363.7" style="fill:none;stroke-miterlimit:10;stroke-width:6.1520928144455px;stroke:url(#g)"/><path d="M101.7,176.4l-2.3,2.4c-.1,0-.1.1,0,.2h.2l.8-.7h1.7l-2,2.1a.2.2,0,0,0,0,.3h.2l2.4-2.4v-.2h-2l1.3-1.3a.1.1,0,0,0,0-.2h-.3Z" style="fill:#5f5e6c"/><path d="M99.6,176.4H98.5l-.2-.2h1.3Z" style="fill:#f4b223"/><path d="M166,125.1l-2.4,2.4v.2h.3l.7-.7h1.8l-2.1,2.1a.2.2,0,0,0,0,.3h.3l2.3-2.4c.1-.1.1-.1.1-.2h-2.1l1.3-1.3c.1,0,.1-.1.1-.2H166Z" style="fill:#5f5e6c"/><path d="M163.8,125.1h-1a.2.2,0,0,1-.2-.2h1.2Z" style="fill:#f4b223"/></g></svg>