<svg xmlns="http://www.w3.org/2000/svg" xmlns:xlink="http://www.w3.org/1999/xlink" viewBox="0 0 231.8 404.5"><defs><clipPath id="a"><rect x="6.1" y="73.8" width="219.5" height="324.53" style="fill:none"/></clipPath><linearGradient id="b" x1="65.5" y1="363.72" x2="166.31" y2="363.72" gradientUnits="userSpaceOnUse"><stop offset="0" stop-color="#f4b223"/><stop offset="1" stop-color="#f4b223"/></linearGradient><linearGradient id="c" x1="86.44" y1="336.86" x2="91.8" y2="336.86" gradientUnits="userSpaceOnUse"><stop offset="0" stop-color="#383642"/><stop offset="1" stop-color="#383642" stop-opacity="0"/></linearGradient></defs><title>style-hypotenuseArtboard 1 copy 4</title><g style="isolation:isolate"><g style="clip-path:url(#a)"><rect x="6.1" y="73.8" width="0.4" height="324.53" style="fill:#010101"/><rect x="6.5" y="73.8" width="1.8" height="324.53" style="fill:#020202"/><rect x="8.3" y="73.8" width="1.8" height="324.53" style="fill:#030203"/><rect x="10.2" y="73.8" width="1.8" height="324.53" style="fill:#030304"/><rect x="12" y="73.8" width="1.8" height="324.53" style="fill:#040405"/><rect x="13.8" y="73.8" width="1.8" height="324.53" style="fill:#050506"/><rect x="15.7" y="73.8" width="1.8" height="324.53" style="fill:#060607"/><rect x="17.5" y="73.8" width="1.8" height="324.53" style="fill:#070708"/><rect x="19.3" y="73.8" width="1.8" height="324.53" style="fill:#080709"/><rect x="21.2" y="73.8" width="1.8" height="324.53" style="fill:#09080a"/><rect x="23" y="73.8" width="1.8" height="324.53" style="fill:#09090b"/><rect x="24.8" y="73.8" width="1.8" height="324.53" style="fill:#0a0a0c"/><rect x="26.7" y="73.8" width="1.8" height="324.53" style="fill:#0b0b0d"/><rect x="28.5" y="73.8" width="1.8" height="324.53" style="fill:#0c0c0e"/><rect x="30.3" y="73.8" width="1.8" height="324.53" style="fill:#0d0c0f"/><rect x="32.2" y="73.8" width="1.8" height="324.53" style="fill:#0e0d10"/><rect x="34" y="73.8" width="1.8" height="324.53" style="fill:#0f0e11"/><rect x="35.8" y="73.8" width="1.8" height="324.53" style="fill:#100f12"/><rect x="37.7" y="73.8" width="1.8" height="324.53" style="fill:#101013"/><rect x="39.5" y="73.8" width="1.8" height="324.53" style="fill:#111114"/><rect x="41.3" y="73.8" width="1.8" height="324.53" style="fill:#121115"/><rect x="43.2" y="73.8" width="1.8" height="324.53" style="fill:#131216"/><rect x="45" y="73.8" width="1.8" height="324.53" style="fill:#141317"/><rect x="46.8" y="73.8" width="1.8" height="324.53" style="fill:#151418"/><rect x="48.7" y="73.8" width="1.8" height="324.53" style="fill:#161519"/><rect x="50.5" y="73.8" width="1.8" height="324.53" style="fill:#16161a"/><rect x="52.3" y="73.8" width="1.8" height="324.53" style="fill:#17161b"/><rect x="54.2" y="73.8" width="1.8" height="324.53" style="fill:#18171c"/><rect x="56" y="73.8" width="1.8" height="324.53" style="fill:#19181d"/><rect x="57.8" y="73.8" width="1.8" height="324.53" style="fill:#1a191e"/><rect x="59.7" y="73.8" width="1.8" height="324.53" style="fill:#1b1a1f"/><rect x="61.5" y="73.8" width="1.8" height="324.53" style="fill:#1c1b20"/><rect x="63.3" y="73.8" width="1.8" height="324.53" style="fill:#1c1b22"/><rect x="65.2" y="73.8" width="1.8" height="324.53" style="fill:#1d1c23"/><rect x="67" y="73.8" width="1.8" height="324.53" style="fill:#1e1d24"/><rect x="68.8" y="73.8" width="1.8" height="324.53" style="fill:#1f1e25"/><rect x="70.7" y="73.8" width="1.8" height="324.53" style="fill:#201f26"/><rect x="72.5" y="73.8" width="1.8" height="324.53" style="fill:#212027"/><rect x="74.3" y="73.8" width="1.8" height="324.53" style="fill:#222028"/><rect x="76.2" y="73.8" width="1.8" height="324.53" style="fill:#222129"/><rect x="78" y="73.8" width="1.8" height="324.53" style="fill:#23222a"/><rect x="79.8" y="73.8" width="1.8" height="324.53" style="fill:#24232b"/><rect x="81.7" y="73.8" width="1.8" height="324.53" style="fill:#25242c"/><rect x="83.5" y="73.8" width="1.8" height="324.53" style="fill:#26252d"/><rect x="85.3" y="73.8" width="1.8" height="324.53" style="fill:#27252e"/><rect x="87.2" y="73.8" width="1.8" height="324.53" style="fill:#28262f"/><rect x="89" y="73.8" width="1.8" height="324.53" style="fill:#282730"/><rect x="90.8" y="73.8" width="1.8" height="324.53" style="fill:#292831"/><rect x="92.7" y="73.8" width="1.8" height="324.53" style="fill:#2a2932"/><rect x="94.5" y="73.8" width="1.8" height="324.53" style="fill:#2b2a33"/><rect x="96.3" y="73.8" width="1.8" height="324.53" style="fill:#2c2a34"/><rect x="98.2" y="73.8" width="1.8" height="324.53" style="fill:#2d2b35"/><rect x="100" y="73.8" width="1.8" height="324.53" style="fill:#2e2c36"/><rect x="101.8" y="73.8" width="1.8" height="324.53" style="fill:#2f2d37"/><rect x="103.7" y="73.8" width="1.8" height="324.53" style="fill:#2f2e38"/><rect x="105.5" y="73.8" width="1.8" height="324.53" style="fill:#302f39"/><rect x="107.3" y="73.8" width="1.8" height="324.53" style="fill:#312f3a"/><rect x="109.2" y="73.8" width="1.8" height="324.53" style="fill:#32303b"/><rect x="111" y="73.8" width="1.8" height="324.53" style="fill:#33313c"/><rect x="112.9" y="73.8" width="1.8" height="324.53" style="fill:#34323d"/><rect x="114.7" y="73.8" width="1.8" height="324.53" style="fill:#35333e"/><rect x="116.5" y="73.8" width="1.8" height="324.53" style="fill:#35343f"/><rect x="118.4" y="73.8" width="1.8" height="324.53" style="fill:#363440"/><rect x="120.2" y="73.8" width="1.8" height="324.53" style="fill:#373541"/><rect x="122" y="73.8" width="1.8" height="324.53" style="fill:#383642"/><rect x="123.9" y="73.8" width="1.6" height="324.53" style="fill:#383642"/><rect x="125.5" y="73.8" width="1.6" height="324.53" style="fill:#373541"/><rect x="127.1" y="73.8" width="1.6" height="324.53" style="fill:#363440"/><rect x="128.7" y="73.8" width="1.6" height="324.53" style="fill:#35343f"/><rect x="130.4" y="73.8" width="1.6" height="324.53" style="fill:#35333e"/><rect x="132" y="73.8" width="1.6" height="324.53" style="fill:#34323d"/><rect x="133.6" y="73.8" width="1.6" height="324.53" style="fill:#33313c"/><rect x="135.2" y="73.8" width="1.6" height="324.53" style="fill:#32303b"/><rect x="136.8" y="73.8" width="1.6" height="324.53" style="fill:#312f3a"/><rect x="138.5" y="73.8" width="1.6" height="324.53" style="fill:#302f39"/><rect x="140.1" y="73.8" width="1.6" height="324.53" style="fill:#2f2e38"/><rect x="141.7" y="73.8" width="1.6" height="324.53" style="fill:#2f2d37"/><rect x="143.3" y="73.8" width="1.6" height="324.53" style="fill:#2e2c36"/><rect x="145" y="73.8" width="1.6" height="324.53" style="fill:#2d2b35"/><rect x="146.6" y="73.8" width="1.6" height="324.53" style="fill:#2c2a34"/><rect x="148.2" y="73.8" width="1.6" height="324.53" style="fill:#2b2a33"/><rect x="149.8" y="73.8" width="1.6" height="324.53" style="fill:#2a2932"/><rect x="151.5" y="73.8" width="1.6" height="324.53" style="fill:#292831"/><rect x="153.1" y="73.8" width="1.6" height="324.53" style="fill:#282730"/><rect x="154.7" y="73.8" width="1.6" height="324.53" style="fill:#28262f"/><rect x="156.3" y="73.8" width="1.6" height="324.53" style="fill:#27252e"/><rect x="158" y="73.8" width="1.6" height="324.53" style="fill:#26252d"/><rect x="159.6" y="73.8" width="1.6" height="324.53" style="fill:#25242c"/><rect x="161.2" y="73.8" width="1.6" height="324.53" style="fill:#24232b"/><rect x="162.8" y="73.8" width="1.6" height="324.53" style="fill:#23222a"/><rect x="164.5" y="73.8" width="1.6" height="324.53" style="fill:#222129"/><rect x="166.1" y="73.8" width="1.6" height="324.53" style="fill:#222028"/><rect x="167.7" y="73.8" width="1.6" height="324.53" style="fill:#212027"/><rect x="169.3" y="73.8" width="1.6" height="324.53" style="fill:#201f26"/><rect x="171" y="73.8" width="1.6" height="324.53" style="fill:#1f1e25"/><rect x="172.6" y="73.8" width="1.6" height="324.53" style="fill:#1e1d24"/><rect x="174.2" y="73.8" width="1.6" height="324.53" style="fill:#1d1c23"/><rect x="175.8" y="73.8" width="1.6" height="324.53" style="fill:#1c1b22"/><rect x="177.5" y="73.8" width="1.6" height="324.53" style="fill:#1c1b20"/><rect x="179.1" y="73.8" width="1.6" height="324.53" style="fill:#1b1a1f"/><rect x="180.7" y="73.8" width="1.6" height="324.53" style="fill:#1a191e"/><rect x="182.3" y="73.8" width="1.6" height="324.53" style="fill:#19181d"/><rect x="184" y="73.8" width="1.6" height="324.53" style="fill:#18171c"/><rect x="185.6" y="73.8" width="1.6" height="324.53" style="fill:#17161b"/><rect x="187.2" y="73.8" width="1.6" height="324.53" style="fill:#16161a"/><rect x="188.8" y="73.8" width="1.6" height="324.53" style="fill:#161519"/><rect x="190.5" y="73.8" width="1.6" height="324.53" style="fill:#151418"/><rect x="192.1" y="73.8" width="1.6" height="324.53" style="fill:#141317"/><rect x="193.7" y="73.8" width="1.6" height="324.53" style="fill:#131216"/><rect x="195.3" y="73.8" width="1.6" height="324.53" style="fill:#121115"/><rect x="197" y="73.8" width="1.6" height="324.53" style="fill:#111114"/><rect x="198.6" y="73.8" width="1.6" height="324.53" style="fill:#101013"/><rect x="200.2" y="73.8" width="1.6" height="324.53" style="fill:#100f12"/><rect x="201.8" y="73.8" width="1.6" height="324.53" style="fill:#0f0e11"/><rect x="203.5" y="73.8" width="1.6" height="324.53" style="fill:#0e0d10"/><rect x="205.1" y="73.8" width="1.6" height="324.53" style="fill:#0d0c0f"/><rect x="206.7" y="73.8" width="1.6" height="324.53" style="fill:#0c0c0e"/><rect x="208.3" y="73.8" width="1.6" height="324.53" style="fill:#0b0b0d"/><rect x="210" y="73.8" width="1.6" height="324.53" style="fill:#0a0a0c"/><rect x="211.6" y="73.8" width="1.6" height="324.53" style="fill:#09090b"/><rect x="213.2" y="73.8" width="1.6" height="324.53" style="fill:#09080a"/><rect x="214.8" y="73.8" width="1.6" height="324.53" style="fill:#080709"/><rect x="216.5" y="73.8" width="1.6" height="324.53" style="fill:#070708"/><rect x="218.1" y="73.8" width="1.6" height="324.53" style="fill:#060607"/><rect x="219.7" y="73.8" width="1.6" height="324.53" style="fill:#050506"/><rect x="221.3" y="73.8" width="1.6" height="324.53" style="fill:#040405"/><rect x="222.9" y="73.8" width="1.6" height="324.53" style="fill:#030304"/><rect x="224.6" y="73.8" width="1" height="324.53" style="fill:#030203"/></g><rect x="163.1" y="320.4" width="6.2" height="43.51" style="fill:#f4b223"/><path d="M231.8,404.5V67.7H145.4V404.5ZM166.1,101.6a6.7,6.7,0,0,1,6.7,6.7,6.7,6.7,0,1,1-6.7-6.7Zm0,51.1a6.7,6.7,0,1,1-6.6,6.7A6.7,6.7,0,0,1,166.1,152.7Zm0,51.2a6.6,6.6,0,0,1,6.7,6.6,6.7,6.7,0,1,1-13.3,0A6.6,6.6,0,0,1,166.1,203.9Zm0,51.1a6.7,6.7,0,1,1-6.6,6.6A6.7,6.7,0,0,1,166.1,255Zm0,51.1a6.7,6.7,0,1,1-6.6,6.7A6.7,6.7,0,0,1,166.1,306.1Zm0,51.1a6.7,6.7,0,0,1,6.7,6.7,6.7,6.7,0,1,1-6.7-6.7Z" style="fill:#383642"/><path d="M166.1,119.6a11.3,11.3,0,1,0-11.2-11.3A11.3,11.3,0,0,0,166.1,119.6Zm0-18a6.7,6.7,0,0,1,6.7,6.7,6.7,6.7,0,1,1-6.7-6.7Z" style="fill:#636569"/><path d="M166.1,170.7a11.3,11.3,0,1,0-11.2-11.3A11.3,11.3,0,0,0,166.1,170.7Zm0-18a6.7,6.7,0,1,1-6.6,6.7A6.7,6.7,0,0,1,166.1,152.7Z" style="fill:#636569"/><path d="M166.1,221.8a11.3,11.3,0,1,0-11.2-11.3A11.3,11.3,0,0,0,166.1,221.8Zm0-17.9a6.6,6.6,0,0,1,6.7,6.6,6.7,6.7,0,1,1-13.3,0A6.6,6.6,0,0,1,166.1,203.9Z" style="fill:#636569"/><path d="M166.1,272.9a11.3,11.3,0,1,0-11.2-11.3A11.2,11.2,0,0,0,166.1,272.9Zm0-17.9a6.7,6.7,0,1,1-6.6,6.6A6.7,6.7,0,0,1,166.1,255Z" style="fill:#636569"/><path d="M166.1,324a11.3,11.3,0,1,0-11.2-11.2A11.2,11.2,0,0,0,166.1,324Zm0-17.9a6.7,6.7,0,1,1-6.6,6.7A6.7,6.7,0,0,1,166.1,306.1Z" style="fill:#636569"/><path d="M166.1,375.2a11.3,11.3,0,1,0-11.2-11.3A11.3,11.3,0,0,0,166.1,375.2Zm0-18a6.7,6.7,0,0,1,6.7,6.7,6.7,6.7,0,1,1-6.7-6.7Z" style="fill:#636569"/><circle cx="166.3" cy="363.7" r="2.9" style="fill:#f4b223"/><circle cx="65.5" cy="363.7" r="2.9" style="fill:#f4b223"/><path d="M84.9,346.5a5.7,5.7,0,0,1-2.2-.4,6.9,6.9,0,0,1-3.6-3.1c4.9-4.9,33.3-34.8,33.1-65.8-.1-34.7-19.4-86-19.6-86.5l6.1-2.3c.8,2.1,20,52.9,20.1,88.7.1,19.3-9.7,37.7-18,49.8A151.7,151.7,0,0,1,84.9,346.5Z" style="fill:#f4b223"/><path d="M95.5,186.8a4.1,4.1,0,0,1,5.1,2.8l6.5,21.3-7.9,2.4L92.7,192A4.3,4.3,0,0,1,95.5,186.8Z" style="fill:#aaa"/><path d="M166,321.3l-5.4-3.7c.2-.3,23.2-34.8,18.8-72.4-2.5-21.2-9-23.6-19-27.3-7.2-2.7-16.3-6-25-17.3l5.1-4c7.7,9.8,15,12.6,22.2,15.2,10.4,3.9,20.2,7.5,23.2,32.6C190.6,284.5,167,319.8,166,321.3Z" style="fill:#f4b223"/><path d="M128,188.5a4.1,4.1,0,0,1,5.8.2l15.3,16-6,5.7-15.2-16.1A4.1,4.1,0,0,1,128,188.5Z" style="fill:#aaa"/><path d="M0,67.7V404.5H86.4V67.7ZM65.7,370.5a6.6,6.6,0,0,1-6.7-6.6,6.7,6.7,0,1,1,13.3,0A6.6,6.6,0,0,1,65.7,370.5Zm0-51.1a6.7,6.7,0,1,1,6.6-6.6A6.7,6.7,0,0,1,65.7,319.4Zm0-51.1a6.7,6.7,0,1,1,6.6-6.7A6.7,6.7,0,0,1,65.7,268.3Zm0-51.1a6.7,6.7,0,0,1-6.7-6.7,6.7,6.7,0,1,1,6.7,6.7Zm0-51.1a6.7,6.7,0,1,1,6.6-6.7A6.7,6.7,0,0,1,65.7,166.1Zm0-51.2a6.6,6.6,0,0,1-6.7-6.6,6.7,6.7,0,1,1,13.3,0A6.6,6.6,0,0,1,65.7,114.9Z" style="fill:#383642"/><path d="M65.7,352.6a11.3,11.3,0,1,0,11.2,11.3A11.2,11.2,0,0,0,65.7,352.6Zm0,17.9a6.6,6.6,0,0,1-6.7-6.6,6.7,6.7,0,1,1,13.3,0A6.6,6.6,0,0,1,65.7,370.5Z" style="fill:#636569"/><path d="M65.7,301.5a11.3,11.3,0,1,0,11.2,11.3A11.2,11.2,0,0,0,65.7,301.5Zm0,17.9a6.7,6.7,0,1,1,6.6-6.6A6.7,6.7,0,0,1,65.7,319.4Z" style="fill:#636569"/><path d="M65.7,250.4a11.3,11.3,0,1,0,11.2,11.2A11.2,11.2,0,0,0,65.7,250.4Zm0,17.9a6.7,6.7,0,1,1,6.6-6.7A6.7,6.7,0,0,1,65.7,268.3Z" style="fill:#636569"/><path d="M65.7,199.2a11.3,11.3,0,1,0,11.2,11.3A11.3,11.3,0,0,0,65.7,199.2Zm0,18a6.7,6.7,0,0,1-6.7-6.7,6.7,6.7,0,1,1,6.7,6.7Z" style="fill:#636569"/><path d="M65.7,148.1a11.3,11.3,0,1,0,11.2,11.3A11.3,11.3,0,0,0,65.7,148.1Zm0,18a6.7,6.7,0,1,1,6.6-6.7A6.7,6.7,0,0,1,65.7,166.1Z" style="fill:#636569"/><path d="M65.7,97a11.3,11.3,0,1,0,11.2,11.3A11.2,11.2,0,0,0,65.7,97Zm0,17.9a6.6,6.6,0,0,1-6.7-6.6,6.7,6.7,0,1,1,13.3,0A6.6,6.6,0,0,1,65.7,114.9Z" style="fill:#636569"/><line x1="65.5" y1="363.7" x2="166.3" y2="363.7" style="fill:none;stroke-miterlimit:10;stroke-width:6.1520928144455px;stroke:url(#b)"/><polygon points="86.6 334.3 86.4 345.4 91.8 340.4 91.5 328.3 86.6 334.3" style="mix-blend-mode:multiply;fill:url(#c)"/><path d="M176.8,309.1a4.6,4.6,0,0,1-1.6,2.3,4.7,4.7,0,0,1-2.4,1.3h0a6.7,6.7,0,0,1-13.3,0,6.6,6.6,0,0,1,4.8-6.4,6.2,6.2,0,0,1,.4-4.8,11.2,11.2,0,1,0,12.7,11.2A11,11,0,0,0,176.8,309.1Z" style="fill:#636569"/><path d="M102.8,206.1l-2.5,2.2v.3h.3l.7-.7h.1l1.7.2-2.2,1.9a.2.2,0,0,0,0,.3h.3l2.4-2.3c.1,0,.1-.1.1-.2h-2l1.4-1.3v-.2h-.3Z" style="fill:#5f5e6c"/><path d="M100.7,206h0l-.2.2h-.9l-.2-.2.2-.2h1.1Z" style="fill:#f4b223"/><path d="M142.8,202.4l-1.4,3a.4.4,0,0,0,.1.3h.3l.4-.9h0l1.6-.6-1.2,2.6a.4.4,0,0,0,.1.3h.3l1.3-3.1c.1,0,0-.1,0-.2h-.2l-1.7.6.7-1.7v-.2H143C142.9,202.2,142.8,202.3,142.8,202.4Z" style="fill:#5f5e6c"/><path d="M140.8,203.2h0a.4.4,0,0,1-.1.3l-.9.3s-.2,0-.2-.1a.4.4,0,0,1,.1-.3l.9-.3Z" style="fill:#f4b223"/></g></svg>