<svg xmlns="http://www.w3.org/2000/svg" xmlns:xlink="http://www.w3.org/1999/xlink" viewBox="0 0 231.8 404.5"><defs><linearGradient id="a" x1="2.86" y1="236.05" x2="231.12" y2="236.05" gradientUnits="userSpaceOnUse"><stop offset="0"/><stop offset="0.53" stop-color="#383642"/><stop offset="1"/></linearGradient><linearGradient id="b" x1="65.65" y1="363.85" x2="166.14" y2="363.85" gradientUnits="userSpaceOnUse"><stop offset="0" stop-color="#3bd4ae"/><stop offset="1" stop-color="#3bd4ae"/></linearGradient><linearGradient id="c" x1="148.65" y1="363.86" x2="141.84" y2="363.86" gradientUnits="userSpaceOnUse"><stop offset="0" stop-color="#383642"/><stop offset="1" stop-color="#383642" stop-opacity="0"/></linearGradient><linearGradient id="d" x1="83.02" y1="363.85" x2="91.65" y2="363.85" xlink:href="#c"/><linearGradient id="e" x1="74.38" y1="363.43" x2="68.52" y2="364.22" xlink:href="#c"/><linearGradient id="f" x1="-5313.59" y1="363.43" x2="-5319.45" y2="364.22" gradientTransform="matrix(-1, 0, 0, 1, -5156.17, 0)" xlink:href="#c"/><linearGradient id="g" x1="167.04" y1="305.34" x2="167.04" y2="309.35" xlink:href="#c"/><linearGradient id="h" x1="-5490.18" y1="305.32" x2="-5490.18" y2="309.33" gradientTransform="matrix(-1, 0, 0, 1, -5425.4, 0)" xlink:href="#c"/><linearGradient id="i" x1="116.17" y1="287.22" x2="120.41" y2="294.15" xlink:href="#c"/><linearGradient id="j" x1="115.46" y1="287.64" x2="111.62" y2="280.53" xlink:href="#c"/><linearGradient id="k" x1="98.23" y1="261.62" x2="95.5" y2="267.24" xlink:href="#c"/><linearGradient id="l" x1="98.98" y1="262" x2="102.54" y2="256.43" xlink:href="#c"/><linearGradient id="m" x1="62.97" y1="269.78" x2="65.68" y2="265.52" xlink:href="#c"/><linearGradient id="n" x1="-5399.81" y1="269.8" x2="-5397.09" y2="265.54" gradientTransform="matrix(-1, 0, 0, 1, -5230.98, 0)" xlink:href="#c"/><linearGradient id="o" x1="-5468.47" y1="-1710.67" x2="-5465.75" y2="-1714.93" gradientTransform="translate(-5299.6 -1508.3) rotate(180)" xlink:href="#c"/><linearGradient id="p" x1="131.63" y1="-1710.65" x2="134.34" y2="-1714.9" gradientTransform="matrix(1, 0, 0, -1, -68.66, -1508.3)" xlink:href="#c"/><linearGradient id="q" x1="132.04" y1="261.64" x2="129.21" y2="266.84" xlink:href="#c"/><linearGradient id="r" x1="132.66" y1="262.18" x2="136.14" y2="256.28" xlink:href="#c"/><linearGradient id="s" x1="115.7" y1="236.28" x2="120.69" y2="243.18" gradientUnits="userSpaceOnUse"><stop offset="0" stop-color="#383642"/><stop offset="0.69" stop-color="#383642" stop-opacity="0.31"/><stop offset="1" stop-color="#383642" stop-opacity="0"/></linearGradient><linearGradient id="t" x1="115.72" y1="237.2" x2="111.96" y2="229.97" xlink:href="#c"/><linearGradient id="u" x1="148.84" y1="235.91" x2="153.56" y2="242.24" xlink:href="#c"/><linearGradient id="v" x1="149.75" y1="236.86" x2="145.55" y2="230.17" xlink:href="#c"/><linearGradient id="w" x1="82.07" y1="235.31" x2="87.35" y2="243.63" xlink:href="#c"/><linearGradient id="x" x1="82.44" y1="236.44" x2="78.19" y2="229.56" xlink:href="#c"/><linearGradient id="y" x1="99.63" y1="209.82" x2="94.76" y2="217.19" xlink:href="#c"/><linearGradient id="z" x1="99.51" y1="211.72" x2="103.25" y2="203.9" xlink:href="#c"/><linearGradient id="aa" x1="131.75" y1="209.85" x2="129.16" y2="215.52" xlink:href="#c"/><linearGradient id="ab" x1="131.97" y1="210.96" x2="136.93" y2="204.1" xlink:href="#c"/><linearGradient id="ac" x1="114.91" y1="184.2" x2="120.85" y2="192.25" xlink:href="#c"/><linearGradient id="ad" x1="116.29" y1="184.9" x2="111.62" y2="178.54" xlink:href="#c"/><linearGradient id="ae" x1="65.66" y1="166.9" x2="62.45" y2="162.52" xlink:href="#c"/><linearGradient id="af" x1="-5299.98" y1="166.9" x2="-5303.2" y2="162.52" gradientTransform="matrix(-1, 0, 0, 1, -5133.85, 0)" xlink:href="#c"/><linearGradient id="ag" x1="148.09" y1="138" x2="143.58" y2="142.58" xlink:href="#c"/><linearGradient id="ah" x1="83.32" y1="140.55" x2="91.14" y2="144.58" xlink:href="#c"/><linearGradient id="ai" x1="160.92" y1="117.56" x2="164.8" y2="110.65" xlink:href="#c"/><linearGradient id="aj" x1="70.64" y1="118.53" x2="66.9" y2="112.24" xlink:href="#c"/></defs><title>lacingStyle--Artboard 1</title><g style="isolation:isolate"><rect x="6.1" y="73.8" width="219.5" height="324.53" style="fill:url(#a)"/><path d="M165.7,213.3h.3a2.9,2.9,0,0,0,2.9-2.9V161.3h-5.5v51.2A3.6,3.6,0,0,0,165.7,213.3Z" style="fill:#3bd4ae"/><path d="M66.1,213.3h-.3a2.9,2.9,0,0,1-2.9-2.9V161.3h5.5v51.2A3.6,3.6,0,0,1,66.1,213.3Z" style="fill:#3bd4ae"/><path d="M66.1,158.5h-.3a2.9,2.9,0,0,0-2.9,2.9v49.1h5.5V159.3A3.6,3.6,0,0,0,66.1,158.5Z" style="fill:#3bd4ae"/><path d="M165.8,158.4a4.3,4.3,0,0,0-2.4.8v52l5.5-1.8V161.5A3.1,3.1,0,0,0,165.8,158.4Z" style="fill:#3bd4ae"/><rect x="62.9" y="261.6" width="5.5" height="51.12" style="fill:#3bd4ae"/><rect x="163.4" y="261.6" width="5.5" height="51.12" style="fill:#3bd4ae"/><rect x="65.7" y="361.1" width="100.5" height="5.54" style="fill:url(#b)"/><path d="M0,67.6V404.5H86.4V67.6ZM65.7,370.5a6.7,6.7,0,1,1,6.6-6.6A6.7,6.7,0,0,1,65.7,370.5Zm0-51.1a6.7,6.7,0,1,1,6.6-6.7A6.7,6.7,0,0,1,65.7,319.4Zm0-51.1a6.7,6.7,0,1,1,6.6-6.7A6.7,6.7,0,0,1,65.7,268.3Zm0-51.1a6.7,6.7,0,1,1,6.6-6.7A6.7,6.7,0,0,1,65.7,217.2Zm0-51.2a6.7,6.7,0,1,1,6.6-6.6A6.7,6.7,0,0,1,65.7,166Zm0-51.1a6.7,6.7,0,1,1,6.6-6.7A6.7,6.7,0,0,1,65.7,114.9Z" style="fill:#383642"/><path d="M65.7,352.6a11.3,11.3,0,1,0,11.2,11.3A11.2,11.2,0,0,0,65.7,352.6Zm0,17.9a6.7,6.7,0,1,1,6.6-6.6A6.7,6.7,0,0,1,65.7,370.5Z" style="fill:#636569"/><path d="M65.7,301.4a11.3,11.3,0,1,0,11.2,11.3A11.3,11.3,0,0,0,65.7,301.4Zm0,18a6.7,6.7,0,1,1,6.6-6.7A6.7,6.7,0,0,1,65.7,319.4Z" style="fill:#636569"/><path d="M65.7,250.3a11.3,11.3,0,1,0,11.2,11.3A11.3,11.3,0,0,0,65.7,250.3Zm0,18a6.7,6.7,0,1,1,6.6-6.7A6.7,6.7,0,0,1,65.7,268.3Z" style="fill:#636569"/><path d="M65.7,199.2a11.3,11.3,0,1,0,11.2,11.3A11.3,11.3,0,0,0,65.7,199.2Zm0,18a6.7,6.7,0,1,1,6.6-6.7A6.7,6.7,0,0,1,65.7,217.2Z" style="fill:#636569"/><path d="M65.7,148.1a11.3,11.3,0,1,0,11.2,11.3A11.2,11.2,0,0,0,65.7,148.1Zm0,17.9a6.7,6.7,0,1,1,6.6-6.6A6.7,6.7,0,0,1,65.7,166Z" style="fill:#636569"/><path d="M65.7,97a11.3,11.3,0,1,0,11.2,11.2A11.2,11.2,0,0,0,65.7,97Zm0,17.9a6.7,6.7,0,1,1,6.6-6.7A6.7,6.7,0,0,1,65.7,114.9Z" style="fill:#636569"/><path d="M231.8,404.5V67.6H145.4V404.5ZM166.1,101.6a6.7,6.7,0,1,1-6.6,6.6A6.7,6.7,0,0,1,166.1,101.6Zm0,51.1a6.7,6.7,0,1,1-6.6,6.7A6.7,6.7,0,0,1,166.1,152.7Zm0,51.1a6.7,6.7,0,1,1-6.6,6.7A6.7,6.7,0,0,1,166.1,203.8Zm0,51.1a6.7,6.7,0,1,1-6.6,6.7A6.7,6.7,0,0,1,166.1,254.9Zm0,51.2a6.7,6.7,0,1,1-6.6,6.6A6.7,6.7,0,0,1,166.1,306.1Zm0,51.1a6.7,6.7,0,1,1-6.6,6.7A6.7,6.7,0,0,1,166.1,357.2Z" style="fill:#383642"/><path d="M166.1,119.5a11.3,11.3,0,1,0-11.2-11.3A11.2,11.2,0,0,0,166.1,119.5Zm0-17.9a6.7,6.7,0,1,1-6.6,6.6A6.7,6.7,0,0,1,166.1,101.6Z" style="fill:#636569"/><path d="M166.1,170.7a11.3,11.3,0,1,0-11.2-11.3A11.3,11.3,0,0,0,166.1,170.7Zm0-18a6.7,6.7,0,1,1-6.6,6.7A6.7,6.7,0,0,1,166.1,152.7Z" style="fill:#636569"/><path d="M166.1,221.8a11.3,11.3,0,1,0-11.2-11.3A11.3,11.3,0,0,0,166.1,221.8Zm0-18a6.7,6.7,0,1,1-6.6,6.7A6.7,6.7,0,0,1,166.1,203.8Z" style="fill:#636569"/><path d="M166.1,272.9a11.3,11.3,0,1,0-11.2-11.3A11.3,11.3,0,0,0,166.1,272.9Zm0-18a6.7,6.7,0,1,1-6.6,6.7A6.7,6.7,0,0,1,166.1,254.9Z" style="fill:#636569"/><path d="M166.1,324a11.3,11.3,0,1,0-11.2-11.3A11.2,11.2,0,0,0,166.1,324Zm0-17.9a6.7,6.7,0,1,1-6.6,6.6A6.7,6.7,0,0,1,166.1,306.1Z" style="fill:#636569"/><path d="M166.1,375.1a11.3,11.3,0,1,0-11.2-11.2A11.2,11.2,0,0,0,166.1,375.1Zm0-17.9a6.7,6.7,0,1,1-6.6,6.7A6.7,6.7,0,0,1,166.1,357.2Z" style="fill:#636569"/><polygon points="68 365.4 63.3 362.3 164.3 208.2 168.4 212.1 68 365.4" style="fill:#3bd4ae"/><polygon points="163.8 365.4 115.9 292.2 119.2 287.2 168.5 362.3 163.8 365.4" style="fill:#3bd4ae"/><polygon points="163.9 263.2 149.4 241.1 152.7 236.1 168.5 260.2 163.9 263.2" style="fill:#3bd4ae"/><polygon points="112.6 287.2 63.3 212 68 209 115.9 282.1 112.6 287.2" style="fill:#3bd4ae"/><polygon points="146.1 236 86.4 145 86.4 134.9 149.4 231 146.1 236" style="fill:#3bd4ae"/><polygon points="102.5 210.5 98.5 206.5 145.4 134.9 145.4 145 102.5 210.5" style="fill:#3bd4ae"/><polygon points="68 263.1 63.3 260.1 95.8 210.5 99.2 215.5 68 263.1" style="fill:#3bd4ae"/><path d="M164.1,158.8a5.4,5.4,0,0,0-2.1,1.7l-.4.7h0l-41.3,63.1-57,86.9,4.7,3L168.5,160.9Z" style="fill:#3bd4ae"/><path d="M70.2,161.2h-.1l-.4-.6a5.1,5.1,0,0,0-2.8-1.9l-3.6,2.3L163.8,314.2l4.7-3Z" style="fill:#3bd4ae"/><path d="M62.9,261.6a2.3,2.3,0,0,1,.4-1.5l3.8.8-.7,1.7Z" style="fill:#3bd4ae"/><path d="M168.5,260.2a2,2,0,0,1,.4,1.4c0,1-3.5.6-3.5.6l-.2-1.8Z" style="fill:#3bd4ae"/><circle cx="65.7" cy="312.7" r="2.8" style="fill:#3bd4ae"/><circle cx="166.2" cy="312.7" r="2.8" style="fill:#3bd4ae"/><circle cx="65.7" cy="363.9" r="2.8" style="fill:#3bd4ae"/><circle cx="166.1" cy="363.9" r="2.8" style="fill:#3bd4ae"/><polygon points="112.6 287.2 82.3 241.2 85.7 236.1 115.9 282.1 112.6 287.2" style="fill:#3bd4ae"/><polygon points="120.5 224 124.2 228.4 112.1 246.8 108.7 242 120.5 224" style="fill:#3bd4ae"/><polygon points="126.4 206 136.5 221.4 138.1 213.7 129.6 200.8 126.4 206" style="fill:#3bd4ae"/><path d="M193,26.7c-10.9,48.3-27.7,89.4-28,89.8l-5.3-3.5a629.7,629.7,0,0,0,27.1-87.7Z" style="fill:#3bd4ae"/><path d="M58.9,102.8a82.7,82.7,0,0,0,7.2,13.7l5.3-3.7-2.7,1.9,2.7-1.9c-.2-.2-15.3-22.3-9.1-41.2,6.9-21.1-5.4-56-5.4-56.7l-6.4.5c0,.1,12.2,34.3,5.7,54.2C52.4,81.4,55.3,93.7,58.9,102.8Z" style="fill:#3bd4ae"/><rect x="139.5" y="361.1" width="5.9" height="5.53" style="mix-blend-mode:multiply;fill:url(#c)"/><rect x="86.4" y="361.1" width="5.2" height="5.55" style="mix-blend-mode:multiply;fill:url(#d)"/><path d="M68,365.3v1.3h3.7a6.3,6.3,0,0,0,.6-2.7,6.4,6.4,0,0,0-.6-2.8h-.9Z" style="mix-blend-mode:multiply;fill:url(#e)"/><path d="M163.8,365.3v1.3h-3.7a6.3,6.3,0,0,1-.6-2.7,6.4,6.4,0,0,1,.6-2.8h.9Z" style="mix-blend-mode:multiply;fill:url(#f)"/><path d="M165.1,306.1l3.8,5.7v-5.1a6.4,6.4,0,0,0-2.8-.6Z" style="mix-blend-mode:multiply;fill:url(#g)"/><path d="M66.7,306.1l-3.8,5.7v-5.1a6.4,6.4,0,0,1,2.8-.7Z" style="mix-blend-mode:multiply;fill:url(#h)"/><polygon points="115.9 292.2 119.2 287.2 123.2 293.3 120.1 298.6 115.9 292.2" style="mix-blend-mode:multiply;fill:url(#i)"/><polygon points="115.9 282.1 112.6 287.2 108.1 280.4 111.5 275.4 115.9 282.1" style="mix-blend-mode:multiply;fill:url(#j)"/><polygon points="95.8 261.7 99.1 266.7 96.7 270.4 92.1 267.2 95.8 261.7" style="mix-blend-mode:multiply;fill:url(#k)"/><polygon points="99.2 256.5 102.5 261.6 106.1 256.1 102.5 251.4 99.2 256.5" style="mix-blend-mode:multiply;fill:url(#l)"/><path d="M68.4,267.7v-4.2H62.9v4.2a6.4,6.4,0,0,0,2.8.6A6.3,6.3,0,0,0,68.4,267.7Z" style="mix-blend-mode:multiply;fill:url(#m)"/><path d="M163.4,267.7v-4.2h5.5v4.2a6.4,6.4,0,0,1-2.8.6A6.3,6.3,0,0,1,163.4,267.7Z" style="mix-blend-mode:multiply;fill:url(#n)"/><path d="M163.4,204.5v4.2h5.5v-4.2a6.4,6.4,0,0,0-2.8-.6A6.3,6.3,0,0,0,163.4,204.5Z" style="mix-blend-mode:multiply;fill:url(#o)"/><path d="M68.4,204.5v4.2H62.9v-4.2a6.4,6.4,0,0,1,2.8-.7A6.4,6.4,0,0,1,68.4,204.5Z" style="mix-blend-mode:multiply;fill:url(#p)"/><polygon points="129.3 261.6 132.6 266.7 130.1 270.6 125.7 267.1 129.3 261.6" style="mix-blend-mode:multiply;fill:url(#q)"/><polygon points="132.6 256.6 135.9 261.6 139.9 255.6 135.9 251.6 132.6 256.6" style="mix-blend-mode:multiply;fill:url(#r)"/><polygon points="115.9 241.2 119.2 236.1 122.8 241.6 119.6 246.7 115.9 241.2" style="mix-blend-mode:multiply;fill:url(#s)"/><polygon points="115.9 231 112.6 236.1 108.4 229.6 111.9 225 115.9 231" style="mix-blend-mode:multiply;fill:url(#t)"/><polygon points="152.7 236.1 149.4 241.1 152.7 246.2 156.2 241.5 152.7 236.1" style="mix-blend-mode:multiply;fill:url(#u)"/><polygon points="146.1 236 149.4 231 145.2 224.6 142.2 230.1 146.1 236" style="mix-blend-mode:multiply;fill:url(#v)"/><polygon points="85.7 236.1 82.3 241.2 86.9 248.1 90.9 243.7 85.7 236.1" style="mix-blend-mode:multiply;fill:url(#w)"/><polygon points="79.1 236 82.4 231 78.9 225.7 75.2 230.2 79.1 236" style="mix-blend-mode:multiply;fill:url(#x)"/><polygon points="95.8 210.5 99.2 215.5 94.8 222.3 90.7 218.3 95.8 210.5" style="mix-blend-mode:multiply;fill:url(#y)"/><polygon points="99.2 205.4 102.5 210.5 106.1 204.9 101.7 201.5 99.2 205.4" style="mix-blend-mode:multiply;fill:url(#z)"/><polygon points="129.3 210.5 132.6 215.5 129 221.1 124.9 217.2 129.3 210.5" style="mix-blend-mode:multiply;fill:url(#aa)"/><polygon points="132.6 205.4 136 210.5 139.9 204.5 135.4 201.2 132.6 205.4" style="mix-blend-mode:multiply;fill:url(#ab)"/><polygon points="119.2 184.9 115.9 190 119.7 195.8 123.3 191.1 119.2 184.9" style="mix-blend-mode:multiply;fill:url(#ac)"/><polygon points="112.6 184.9 115.9 179.9 112.3 174.4 108.7 178.9 112.6 184.9" style="mix-blend-mode:multiply;fill:url(#ad)"/><path d="M66.7,166l-3.8-4.7v4.1a6.4,6.4,0,0,0,2.8.6Z" style="mix-blend-mode:multiply;fill:url(#ae)"/><path d="M165.1,166l3.8-4.7v4.1a6.4,6.4,0,0,1-2.8.6Z" style="mix-blend-mode:multiply;fill:url(#af)"/><polygon points="145.4 134.9 145.4 145 142.2 149.9 139.9 143.3 145.4 134.9" style="mix-blend-mode:multiply;fill:url(#ag)"/><polygon points="86.4 134.9 86.4 145 90.8 151.6 92.8 144.6 86.4 134.9" style="mix-blend-mode:multiply;fill:url(#ah)"/><polygon points="162.7 108.1 159.4 113.4 165 117 169.3 109.4 162.7 108.1" style="mix-blend-mode:multiply;fill:url(#ai)"/><path d="M174.4,108.8l-1.6-.2a6.7,6.7,0,1,1-9-6.6,13.6,13.6,0,0,1-1.2-4.5,11.3,11.3,0,0,0-7.7,10.7,11.3,11.3,0,0,0,22.5.1A10.5,10.5,0,0,1,174.4,108.8Z" style="fill:#636569"/><polygon points="69.4 109.7 72.8 115.1 65.9 117.6 63.5 112.3 69.4 109.7" style="mix-blend-mode:multiply;fill:url(#aj)"/><path d="M70.2,97.9a12.3,12.3,0,0,1-1.9,4.2,6.6,6.6,0,0,1,4,6.1,6.7,6.7,0,1,1-13.3,0,2.8,2.8,0,0,1,.1-.9h-.6a10.5,10.5,0,0,1-4-.7,9.2,9.2,0,0,0-.1,1.6A11.3,11.3,0,1,0,70.2,97.9Z" style="fill:#636569"/><path d="M49.4.2a4,4,0,0,1,5,2.7l6,21-7.8,2.3-6-21A4,4,0,0,1,49.4.2Z" style="fill:#aaa"/><path d="M195.6,6.5a3.9,3.9,0,0,1,2.7,5l-6.1,21-7.8-2.3,6.2-21A4.1,4.1,0,0,1,195.6,6.5Z" style="fill:#aaa"/><path d="M56.3,19.1l-2.4,2.3a.2.2,0,0,0,0,.3c.1,0,.2.1.2,0l.8-.7h1.7l-2.1,2a.2.2,0,0,0,0,.3h.3l2.4-2.3c.1-.1.1-.1.1-.2h-.2l-1.9-.2,1.4-1.2c0-.1.1-.2,0-.2h0A.2.2,0,0,0,56.3,19.1Z" style="fill:#5f5e6c"/><path d="M54.2,19.1h0l-.2.2h-.9l-.2-.2a.2.2,0,0,1,.2-.2H54A.2.2,0,0,1,54.2,19.1Z" style="fill:#3bd4ae"/><path d="M191.6,26l-3.3.6c-.1,0-.2.1-.1.2s.1.2.2.1h1l1.4,1-2.9.5c-.1,0-.2.1-.1.2a.2.2,0,0,0,.2.2l3.3-.6h.1c0-.1,0-.2-.1-.2l-1.4-1.1,1.8-.4c.1,0,.1,0,.1-.1h0C191.8,26,191.7,26,191.6,26Z" style="fill:#5f5e6c"/><path d="M189.8,24.8h-.2l-.8-.6a.1.1,0,0,1,0-.2h.2l.8.6A.1.1,0,0,1,189.8,24.8Z" style="fill:#3bd4ae"/></g></svg>