<svg xmlns="http://www.w3.org/2000/svg" xmlns:xlink="http://www.w3.org/1999/xlink" viewBox="0 0 231.8 404.5"><defs><linearGradient id="a" x1="2.9" y1="235.44" x2="231.16" y2="235.44" gradientUnits="userSpaceOnUse"><stop offset="0"/><stop offset="0.53" stop-color="#383642"/><stop offset="1"/></linearGradient><linearGradient id="b" x1="134.34" y1="63.76" x2="172.64" y2="63.76" gradientUnits="userSpaceOnUse"><stop offset="0" stop-color="#40a2d3"/><stop offset="1" stop-color="#40a2d3"/></linearGradient><linearGradient id="c" x1="46.15" y1="63.6" x2="97.74" y2="63.6" xlink:href="#b"/><linearGradient id="d" x1="64.11" y1="287.2" x2="167.7" y2="287.2" xlink:href="#b"/><linearGradient id="e" x1="64.11" y1="287.2" x2="167.54" y2="287.2" xlink:href="#b"/><linearGradient id="f" x1="64.11" y1="185.22" x2="167.7" y2="185.22" xlink:href="#b"/><linearGradient id="g" x1="64.11" y1="185.22" x2="167.54" y2="185.22" xlink:href="#b"/><linearGradient id="h" x1="65.5" y1="363.72" x2="166.31" y2="363.72" xlink:href="#b"/><linearGradient id="i" x1="62.43" y1="338.24" x2="68.58" y2="338.24" xlink:href="#b"/><linearGradient id="j" x1="163.07" y1="338.24" x2="169.22" y2="338.24" xlink:href="#b"/><linearGradient id="k" x1="62.43" y1="236.08" x2="68.58" y2="236.08" xlink:href="#b"/><linearGradient id="l" x1="163.07" y1="236.08" x2="169.22" y2="236.08" xlink:href="#b"/><linearGradient id="m" x1="62.43" y1="133.75" x2="68.58" y2="133.75" xlink:href="#b"/><linearGradient id="n" x1="163.07" y1="133.75" x2="169.22" y2="133.75" xlink:href="#b"/><linearGradient id="o" x1="117.18" y1="287.73" x2="124.32" y2="291.51" gradientUnits="userSpaceOnUse"><stop offset="0" stop-color="#383642"/><stop offset="1" stop-color="#383642" stop-opacity="0"/></linearGradient><linearGradient id="p" x1="-10793.13" y1="-4011.82" x2="-10785.99" y2="-4008.04" gradientTransform="translate(-10678.5 -3725.1) rotate(180)" xlink:href="#o"/><linearGradient id="q" x1="117.18" y1="185.81" x2="124.32" y2="189.59" xlink:href="#o"/><linearGradient id="r" x1="-10793.13" y1="-3909.89" x2="-10785.99" y2="-3906.11" gradientTransform="translate(-10678.5 -3725.1) rotate(180)" xlink:href="#o"/><linearGradient id="s" x1="-317.42" y1="551.62" x2="-316.82" y2="551.62" gradientTransform="translate(-426.4 -390) rotate(-78.7)" xlink:href="#b"/><linearGradient id="t" x1="-288.31" y1="649.42" x2="-287.7" y2="649.42" gradientTransform="matrix(-0.59, 0.81, -0.81, -0.59, 523.71, 641.77)" xlink:href="#b"/></defs><title>style--Artboard 1 copy 19</title><rect x="6.2" y="73.2" width="219.5" height="324.53" style="fill:url(#a)"/><path d="M166,108.3s-53.4-26.9-14.2-60.2c23.2-19.8,17-30,17-30" style="fill:none;stroke-miterlimit:10;stroke-width:6.1520928144455px;stroke:url(#b)"/><path d="M65.7,108.3s61.9-26.5,4.8-61.1c-20.5-12.4-21.3-31-21.3-31" style="fill:none;stroke-miterlimit:10;stroke-width:6.1520928144455px;stroke:url(#c)"/><line x1="65.5" y1="312.8" x2="166.3" y2="261.6" style="fill:none;stroke-miterlimit:10;stroke-width:6.1520928144455px;stroke:url(#d)"/><line x1="65.5" y1="261.6" x2="166.1" y2="312.8" style="fill:none;stroke-miterlimit:10;stroke-width:6.1520928144455px;stroke:url(#e)"/><line x1="65.5" y1="210.8" x2="166.3" y2="159.7" style="fill:none;stroke-miterlimit:10;stroke-width:6.1520928144455px;stroke:url(#f)"/><line x1="65.5" y1="159.7" x2="166.1" y2="210.8" style="fill:none;stroke-miterlimit:10;stroke-width:6.1520928144455px;stroke:url(#g)"/><line x1="65.5" y1="363.7" x2="166.3" y2="363.7" style="fill:none;stroke-miterlimit:10;stroke-width:6.1520928144455px;stroke:url(#h)"/><path d="M0,67.7V404.5H86.4V67.7ZM65.7,370.5a6.6,6.6,0,0,1-6.7-6.6,6.7,6.7,0,1,1,13.3,0A6.6,6.6,0,0,1,65.7,370.5Zm0-51.1a6.7,6.7,0,1,1,6.6-6.6A6.7,6.7,0,0,1,65.7,319.4Zm0-51.1a6.7,6.7,0,1,1,6.6-6.7A6.7,6.7,0,0,1,65.7,268.3Zm0-51.1a6.7,6.7,0,0,1-6.7-6.7,6.7,6.7,0,1,1,6.7,6.7Zm0-51.1a6.7,6.7,0,1,1,6.6-6.7A6.7,6.7,0,0,1,65.7,166.1Zm0-51.2a6.6,6.6,0,0,1-6.7-6.6,6.7,6.7,0,1,1,13.3,0A6.6,6.6,0,0,1,65.7,114.9Z" style="fill:#383642"/><path d="M65.7,352.6a11.3,11.3,0,1,0,11.2,11.3A11.2,11.2,0,0,0,65.7,352.6Zm0,17.9a6.6,6.6,0,0,1-6.7-6.6,6.7,6.7,0,1,1,13.3,0A6.6,6.6,0,0,1,65.7,370.5Z" style="fill:#636569"/><path d="M65.7,301.5a11.3,11.3,0,1,0,11.2,11.3A11.2,11.2,0,0,0,65.7,301.5Zm0,17.9a6.7,6.7,0,1,1,6.6-6.6A6.7,6.7,0,0,1,65.7,319.4Z" style="fill:#636569"/><path d="M65.7,250.4a11.3,11.3,0,1,0,11.2,11.2A11.2,11.2,0,0,0,65.7,250.4Zm0,17.9a6.7,6.7,0,1,1,6.6-6.7A6.7,6.7,0,0,1,65.7,268.3Z" style="fill:#636569"/><path d="M65.7,199.2a11.3,11.3,0,1,0,11.2,11.3A11.3,11.3,0,0,0,65.7,199.2Zm0,18a6.7,6.7,0,0,1-6.7-6.7,6.7,6.7,0,1,1,6.7,6.7Z" style="fill:#636569"/><path d="M65.7,148.1a11.3,11.3,0,1,0,11.2,11.3A11.3,11.3,0,0,0,65.7,148.1Zm0,18a6.7,6.7,0,1,1,6.6-6.7A6.7,6.7,0,0,1,65.7,166.1Z" style="fill:#636569"/><path d="M65.7,97a11.3,11.3,0,1,0,11.2,11.3A11.2,11.2,0,0,0,65.7,97Zm0,17.9a6.6,6.6,0,0,1-6.7-6.6,6.7,6.7,0,1,1,13.3,0A6.6,6.6,0,0,1,65.7,114.9Z" style="fill:#636569"/><path d="M231.8,404.5V67.7H145.4V404.5ZM166.1,101.6a6.7,6.7,0,0,1,6.7,6.7,6.7,6.7,0,1,1-6.7-6.7Zm0,51.1a6.7,6.7,0,1,1-6.6,6.7A6.7,6.7,0,0,1,166.1,152.7Zm0,51.2a6.6,6.6,0,0,1,6.7,6.6,6.7,6.7,0,1,1-13.3,0A6.6,6.6,0,0,1,166.1,203.9Zm0,51.1a6.7,6.7,0,1,1-6.6,6.6A6.7,6.7,0,0,1,166.1,255Zm0,51.1a6.7,6.7,0,1,1-6.6,6.7A6.7,6.7,0,0,1,166.1,306.1Zm0,51.1a6.7,6.7,0,0,1,6.7,6.7,6.7,6.7,0,1,1-6.7-6.7Z" style="fill:#383642"/><path d="M166.1,119.6a11.3,11.3,0,1,0-11.2-11.3A11.3,11.3,0,0,0,166.1,119.6Zm0-18a6.7,6.7,0,0,1,6.7,6.7,6.7,6.7,0,1,1-6.7-6.7Z" style="fill:#636569"/><path d="M166.1,170.7a11.3,11.3,0,1,0-11.2-11.3A11.3,11.3,0,0,0,166.1,170.7Zm0-18a6.7,6.7,0,1,1-6.6,6.7A6.7,6.7,0,0,1,166.1,152.7Z" style="fill:#636569"/><path d="M166.1,221.8a11.3,11.3,0,1,0-11.2-11.3A11.3,11.3,0,0,0,166.1,221.8Zm0-17.9a6.6,6.6,0,0,1,6.7,6.6,6.7,6.7,0,1,1-13.3,0A6.6,6.6,0,0,1,166.1,203.9Z" style="fill:#636569"/><path d="M166.1,272.9a11.3,11.3,0,1,0-11.2-11.3A11.2,11.2,0,0,0,166.1,272.9Zm0-17.9a6.7,6.7,0,1,1-6.6,6.6A6.7,6.7,0,0,1,166.1,255Z" style="fill:#636569"/><path d="M166.1,324a11.3,11.3,0,1,0-11.2-11.2A11.2,11.2,0,0,0,166.1,324Zm0-17.9a6.7,6.7,0,1,1-6.6,6.7A6.7,6.7,0,0,1,166.1,306.1Z" style="fill:#636569"/><path d="M166.1,375.2a11.3,11.3,0,1,0-11.2-11.3A11.3,11.3,0,0,0,166.1,375.2Zm0-18a6.7,6.7,0,0,1,6.7,6.7,6.7,6.7,0,1,1-6.7-6.7Z" style="fill:#636569"/><circle cx="166.3" cy="363.7" r="2.9" style="fill:#40a2d3"/><circle cx="65.5" cy="363.7" r="2.9" style="fill:#40a2d3"/><line x1="65.5" y1="363.7" x2="65.5" y2="312.8" style="fill:none;stroke-miterlimit:10;stroke-width:6.1520928144455px;stroke:url(#i)"/><line x1="166.1" y1="363.7" x2="166.1" y2="312.8" style="fill:none;stroke-miterlimit:10;stroke-width:6.1520928144455px;stroke:url(#j)"/><line x1="65.5" y1="261.6" x2="65.5" y2="210.6" style="fill:none;stroke-miterlimit:10;stroke-width:6.1520928144455px;stroke:url(#k)"/><line x1="166.1" y1="261.6" x2="166.1" y2="210.6" style="fill:none;stroke-miterlimit:10;stroke-width:6.1520928144455px;stroke:url(#l)"/><line x1="65.5" y1="159.2" x2="65.5" y2="108.3" style="fill:none;stroke-miterlimit:10;stroke-width:6.1520928144455px;stroke:url(#m)"/><line x1="166.1" y1="159.2" x2="166.1" y2="108.3" style="fill:none;stroke-miterlimit:10;stroke-width:6.1520928144455px;stroke:url(#n)"/><circle cx="65.7" cy="312.7" r="3" style="fill:#40a2d3"/><circle cx="166" cy="312.7" r="3" style="fill:#40a2d3"/><circle cx="65.7" cy="262.2" r="3" style="fill:#40a2d3"/><circle cx="166" cy="262.2" r="3" style="fill:#40a2d3"/><circle cx="65.7" cy="210.5" r="3" style="fill:#40a2d3"/><circle cx="166" cy="210.5" r="3" style="fill:#40a2d3"/><circle cx="65.7" cy="159.4" r="3" style="fill:#40a2d3"/><circle cx="166" cy="159.4" r="3" style="fill:#40a2d3"/><circle cx="65.7" cy="108.3" r="3" style="fill:#40a2d3"/><circle cx="166" cy="108.3" r="3" style="fill:#40a2d3"/><path d="M46.2,9.8a4.2,4.2,0,0,0-2.3,5.4l8.5,20.6L60,32.7,51.6,12.1A4.2,4.2,0,0,0,46.2,9.8Z" style="fill:#aaa"/><path d="M173.1,2.5a4.2,4.2,0,0,1,3.4,4.7L172.7,29l-8.1-1.4,3.8-21.8A4,4,0,0,1,173.1,2.5Z" style="fill:#aaa"/><polygon points="115.9 290.7 122.7 287.2 129.9 290.8 124.4 295 115.9 290.7" style="fill:url(#o)"/><polygon points="115.9 283.7 109.1 287.2 101.9 283.6 107.3 279.4 115.9 283.7" style="fill:url(#p)"/><polygon points="115.9 188.7 122.7 185.3 129.9 188.9 124.4 193.1 115.9 188.7" style="fill:url(#q)"/><polygon points="115.9 181.8 109.1 185.3 101.9 181.7 107.3 177.4 115.9 181.8" style="fill:url(#r)"/><path d="M55.3,28.6l-2.2,2.5c-.1.1-.1.3,0,.3a.2.2,0,0,0,.3,0l.6-.8h1.8l-2,2.1a.4.4,0,0,0,.1.3c0,.1.2,0,.2,0l2.2-2.5v-.2h-2l1.2-1.5c.1,0,.1,0,.1-.2h-.4Z" style="fill:#5f5e6c"/><path d="M53.2,28.8h0c0,.1,0,.2-.2.2h-.9c-.1,0-.2,0-.2-.2s0-.2.2-.2H53Z" style="fill:url(#s)"/><path d="M168.1,24.3l3.2-1.4a.3.3,0,0,0,.1-.2c-.1-.1-.2-.2-.3-.1l-.9.4h0l-1.7-.7,2.7-1.1c.1-.1.2-.2.1-.3h-.2L168,22.1c-.1,0-.1,0-.1.2h0v.2l1.6.7-1.7.8v.2h0C167.9,24.2,168,24.3,168.1,24.3Z" style="fill:#5f5e6c"/><path d="M170.1,25h0c.1-.1.1-.2.3-.1l.8.4c.2,0,.2.1.1.2s-.1.2-.2.2l-.9-.4Z" style="fill:url(#t)"/></svg>