<svg xmlns="http://www.w3.org/2000/svg" xmlns:xlink="http://www.w3.org/1999/xlink" viewBox="0 0 231.8 404.5"><defs><linearGradient id="a" x1="2.89" y1="238.96" x2="231.15" y2="238.96" gradientUnits="userSpaceOnUse"><stop offset="0"/><stop offset="0.53" stop-color="#383642"/><stop offset="1"/></linearGradient><linearGradient id="b" x1="64.01" y1="236.1" x2="167.7" y2="236.1" gradientUnits="userSpaceOnUse"><stop offset="0" stop-color="#9352e8"/><stop offset="1" stop-color="#9352e8"/></linearGradient><linearGradient id="c" x1="64.11" y1="236.08" x2="167.7" y2="236.08" xlink:href="#b"/><linearGradient id="d" x1="64.01" y1="338.22" x2="167.7" y2="338.22" xlink:href="#b"/><linearGradient id="e" x1="64.11" y1="338.2" x2="167.7" y2="338.2" xlink:href="#b"/><linearGradient id="f" x1="65.5" y1="363.72" x2="166.31" y2="363.72" xlink:href="#b"/><linearGradient id="g" x1="64.01" y1="287.18" x2="167.7" y2="287.18" xlink:href="#b"/><linearGradient id="h" x1="64.11" y1="287.16" x2="167.7" y2="287.16" xlink:href="#b"/><linearGradient id="i" x1="136.97" y1="129.55" x2="184.67" y2="129.55" xlink:href="#b"/><linearGradient id="j" x1="39.94" y1="132.35" x2="86.41" y2="132.35" xlink:href="#b"/><linearGradient id="k" x1="117.14" y1="236.66" x2="124.28" y2="240.44" gradientUnits="userSpaceOnUse"><stop offset="0" stop-color="#383642"/><stop offset="1" stop-color="#383642" stop-opacity="0"/></linearGradient><linearGradient id="l" x1="-10313.16" y1="-4858.95" x2="-10306.02" y2="-4855.17" gradientTransform="translate(-10198.6 -4623.4) rotate(180)" xlink:href="#k"/><linearGradient id="m" x1="117.14" y1="287.75" x2="124.28" y2="291.53" xlink:href="#k"/><linearGradient id="n" x1="-10313.16" y1="-4910.04" x2="-10306.02" y2="-4906.26" gradientTransform="translate(-10198.6 -4623.4) rotate(180)" xlink:href="#k"/><linearGradient id="o" x1="117.14" y1="338.78" x2="124.28" y2="342.56" xlink:href="#k"/><linearGradient id="p" x1="-10313.16" y1="-4961.07" x2="-10306.02" y2="-4957.29" gradientTransform="translate(-10198.6 -4623.4) rotate(180)" xlink:href="#k"/><linearGradient id="q" x1="172.02" y1="28.2" x2="173.34" y2="28.2" gradientTransform="translate(246.8 197.7) rotate(-131.5)" xlink:href="#b"/><linearGradient id="r" x1="70.66" y1="61.18" x2="71.99" y2="61.18" gradientTransform="translate(-16.3 39.6) rotate(-28.1)" xlink:href="#b"/></defs><title>style--Artboard 1 copy 22</title><rect x="6.2" y="76.7" width="219.5" height="324.53" style="fill:url(#a)"/><line x1="166.3" y1="261.6" x2="65.4" y2="210.6" style="fill:none;stroke-miterlimit:10;stroke-width:6.1520928144455px;stroke:url(#b)"/><line x1="65.5" y1="261.6" x2="166.3" y2="210.6" style="fill:none;stroke-miterlimit:10;stroke-width:6.1520928144455px;stroke:url(#c)"/><line x1="166.3" y1="363.7" x2="65.4" y2="312.7" style="fill:none;stroke-miterlimit:10;stroke-width:6.1520928144455px;stroke:url(#d)"/><line x1="65.5" y1="363.7" x2="166.3" y2="312.7" style="fill:none;stroke-miterlimit:10;stroke-width:6.1520928144455px;stroke:url(#e)"/><path d="M0,67.7V404.5H86.4V67.7ZM65.7,370.5a6.6,6.6,0,0,1-6.7-6.6,6.7,6.7,0,1,1,13.3,0A6.6,6.6,0,0,1,65.7,370.5Zm0-51.1a6.7,6.7,0,1,1,6.6-6.6A6.7,6.7,0,0,1,65.7,319.4Zm0-51.1a6.7,6.7,0,1,1,6.6-6.7A6.7,6.7,0,0,1,65.7,268.3Zm0-51.1a6.7,6.7,0,0,1-6.7-6.7,6.7,6.7,0,1,1,6.7,6.7Zm0-51.1a6.7,6.7,0,1,1,6.6-6.7A6.7,6.7,0,0,1,65.7,166.1Zm0-51.2a6.6,6.6,0,0,1-6.7-6.6,6.7,6.7,0,1,1,13.3,0A6.6,6.6,0,0,1,65.7,114.9Z" style="fill:#383642"/><path d="M65.7,352.6a11.3,11.3,0,1,0,11.2,11.3A11.2,11.2,0,0,0,65.7,352.6Zm0,17.9a6.6,6.6,0,0,1-6.7-6.6,6.7,6.7,0,1,1,13.3,0A6.6,6.6,0,0,1,65.7,370.5Z" style="fill:#636569"/><path d="M65.7,301.5a11.3,11.3,0,1,0,11.2,11.3A11.2,11.2,0,0,0,65.7,301.5Zm0,17.9a6.7,6.7,0,1,1,6.6-6.6A6.7,6.7,0,0,1,65.7,319.4Z" style="fill:#636569"/><path d="M65.7,250.4a11.3,11.3,0,1,0,11.2,11.2A11.2,11.2,0,0,0,65.7,250.4Zm0,17.9a6.7,6.7,0,1,1,6.6-6.7A6.7,6.7,0,0,1,65.7,268.3Z" style="fill:#636569"/><path d="M65.7,199.2a11.3,11.3,0,1,0,11.2,11.3A11.3,11.3,0,0,0,65.7,199.2Zm0,18a6.7,6.7,0,0,1-6.7-6.7,6.7,6.7,0,1,1,6.7,6.7Z" style="fill:#636569"/><path d="M65.7,148.1a11.3,11.3,0,1,0,11.2,11.3A11.3,11.3,0,0,0,65.7,148.1Zm0,18a6.7,6.7,0,1,1,6.6-6.7A6.7,6.7,0,0,1,65.7,166.1Z" style="fill:#636569"/><path d="M65.7,97a11.3,11.3,0,1,0,11.2,11.3A11.2,11.2,0,0,0,65.7,97Zm0,17.9a6.6,6.6,0,0,1-6.7-6.6,6.7,6.7,0,1,1,13.3,0A6.6,6.6,0,0,1,65.7,114.9Z" style="fill:#636569"/><path d="M231.8,404.5V67.7H145.4V404.5ZM166.1,101.6a6.7,6.7,0,0,1,6.7,6.7,6.7,6.7,0,1,1-6.7-6.7Zm0,51.1a6.7,6.7,0,1,1-6.6,6.7A6.7,6.7,0,0,1,166.1,152.7Zm0,51.2a6.6,6.6,0,0,1,6.7,6.6,6.7,6.7,0,1,1-13.3,0A6.6,6.6,0,0,1,166.1,203.9Zm0,51.1a6.7,6.7,0,1,1-6.6,6.6A6.7,6.7,0,0,1,166.1,255Zm0,51.1a6.7,6.7,0,1,1-6.6,6.7A6.7,6.7,0,0,1,166.1,306.1Zm0,51.1a6.7,6.7,0,0,1,6.7,6.7,6.7,6.7,0,1,1-6.7-6.7Z" style="fill:#383642"/><path d="M166.1,119.6a11.3,11.3,0,1,0-11.2-11.3A11.3,11.3,0,0,0,166.1,119.6Zm0-18a6.7,6.7,0,0,1,6.7,6.7,6.7,6.7,0,1,1-6.7-6.7Z" style="fill:#636569"/><path d="M166.1,170.7a11.3,11.3,0,1,0-11.2-11.3A11.3,11.3,0,0,0,166.1,170.7Zm0-18a6.7,6.7,0,1,1-6.6,6.7A6.7,6.7,0,0,1,166.1,152.7Z" style="fill:#636569"/><path d="M166.1,221.8a11.3,11.3,0,1,0-11.2-11.3A11.3,11.3,0,0,0,166.1,221.8Zm0-17.9a6.6,6.6,0,0,1,6.7,6.6,6.7,6.7,0,1,1-13.3,0A6.6,6.6,0,0,1,166.1,203.9Z" style="fill:#636569"/><path d="M166.1,272.9a11.3,11.3,0,1,0-11.2-11.3A11.2,11.2,0,0,0,166.1,272.9Zm0-17.9a6.7,6.7,0,1,1-6.6,6.6A6.7,6.7,0,0,1,166.1,255Z" style="fill:#636569"/><path d="M166.1,324a11.3,11.3,0,1,0-11.2-11.2A11.2,11.2,0,0,0,166.1,324Zm0-17.9a6.7,6.7,0,1,1-6.6,6.7A6.7,6.7,0,0,1,166.1,306.1Z" style="fill:#636569"/><path d="M166.1,375.2a11.3,11.3,0,1,0-11.2-11.3A11.3,11.3,0,0,0,166.1,375.2Zm0-18a6.7,6.7,0,0,1,6.7,6.7,6.7,6.7,0,1,1-6.7-6.7Z" style="fill:#636569"/><circle cx="166.3" cy="363.7" r="2.9" style="fill:#9352e8"/><circle cx="166.3" cy="312.7" r="2.9" style="fill:#9352e8"/><circle cx="166.2" cy="261.6" r="3" style="fill:#9352e8"/><circle cx="65.5" cy="363.7" r="2.9" style="fill:#9352e8"/><circle cx="65.4" cy="312.7" r="3" style="fill:#9352e8"/><circle cx="65.4" cy="261.5" r="3" style="fill:#9352e8"/><circle cx="166.2" cy="210.6" r="3" style="fill:#9352e8"/><circle cx="65.4" cy="210.6" r="3" style="fill:#9352e8"/><line x1="65.5" y1="363.7" x2="166.3" y2="363.7" style="fill:none;stroke-miterlimit:10;stroke-width:6.1520928144455px;stroke:url(#f)"/><line x1="166.3" y1="312.7" x2="65.4" y2="261.7" style="fill:none;stroke-miterlimit:10;stroke-width:6.1520928144455px;stroke:url(#g)"/><line x1="65.5" y1="312.7" x2="166.3" y2="261.6" style="fill:none;stroke-miterlimit:10;stroke-width:6.1520928144455px;stroke:url(#h)"/><path d="M157.8,47.8l-1.3,1.3a54.5,54.5,0,0,0-4.7,72.8c18.1,23,49,70.3,13.5,89" style="fill:none;stroke-miterlimit:10;stroke-width:6.1520928144455px;stroke:url(#i)"/><path d="M167,35.1a4.3,4.3,0,0,0-5.9.6L147.1,53l6.4,5.2,14.1-17.3A4.2,4.2,0,0,0,167,35.1Z" style="fill:#aaa"/><path d="M68.1,54s23.3,14.6,12.2,54.1S12.1,183.7,65.4,210.6" style="fill:none;stroke-miterlimit:10;stroke-width:6.1520928144455px;stroke:url(#j)"/><path d="M58.3,44.2a4.1,4.1,0,0,1,5.8,0L79.7,60l-5.9,5.7L58.3,50A4.1,4.1,0,0,1,58.3,44.2Z" style="fill:#aaa"/><polygon points="115.8 239.6 122.6 236.1 129.8 239.8 124.4 244 115.8 239.6" style="fill:url(#k)"/><polygon points="115.9 232.7 109.1 236.1 101.9 232.5 107.3 228.3 115.9 232.7" style="fill:url(#l)"/><polygon points="115.8 290.7 122.6 287.2 129.8 290.8 124.4 295.1 115.8 290.7" style="fill:url(#m)"/><polygon points="115.9 283.8 109.1 287.2 101.9 283.6 107.3 279.4 115.9 283.8" style="fill:url(#n)"/><polygon points="115.8 341.7 122.6 338.3 129.8 341.9 124.4 346.1 115.8 341.7" style="fill:url(#o)"/><polygon points="115.9 334.8 109.1 338.3 101.9 334.6 107.3 330.4 115.9 334.8" style="fill:url(#p)"/><path d="M155,52.1l-3.4-.8a.2.2,0,1,0,0,.4l.9.2h0l1,1.5-2.8-.6c-.1,0-.3,0-.3.1s.1.3.2.3l3.2.7h.2v-.2l-1-1.6,1.9.4h0Z" style="fill:#5f5e6c"/><path d="M153.8,50.3h0q-.3.2-.3,0l-.5-.8c-.1-.2-.1-.3.1-.3a.2.2,0,0,1,.3,0l.4.8Z" style="fill:url(#q)"/><path d="M72.8,60.9l1.5-3.1c0-.1,0-.2-.1-.2s-.2,0-.3.1l-.4.9h0l-1.6.5,1.2-2.6c.1-.1,0-.2-.1-.2s-.2,0-.2.1l-1.5,2.9v.3h.2l1.8-.6-.8,1.8v.2h.1C72.7,61,72.8,61,72.8,60.9Z" style="fill:#5f5e6c"/><path d="M74.8,60.1h0c0-.1,0-.2.1-.2l.9-.3c.2-.1.2,0,.3.1a.4.4,0,0,1-.1.3l-.9.3Z" style="fill:url(#r)"/></svg>