<svg xmlns="http://www.w3.org/2000/svg" xmlns:xlink="http://www.w3.org/1999/xlink" viewBox="0 0 231.8 404.5"><defs><linearGradient id="a" x1="2.86" y1="238.28" x2="231.12" y2="238.28" gradientUnits="userSpaceOnUse"><stop offset="0"/><stop offset="0.53" stop-color="#383642"/><stop offset="1"/></linearGradient><linearGradient id="b" x1="65.66" y1="366.08" x2="166.14" y2="366.08" gradientUnits="userSpaceOnUse"><stop offset="0" stop-color="#3bd4ae"/><stop offset="1" stop-color="#3bd4ae"/></linearGradient><linearGradient id="c" x1="148.65" y1="366.09" x2="141.84" y2="366.09" gradientUnits="userSpaceOnUse"><stop offset="0" stop-color="#383642"/><stop offset="1" stop-color="#383642" stop-opacity="0"/></linearGradient><linearGradient id="d" x1="83.02" y1="366.07" x2="91.65" y2="366.07" xlink:href="#c"/><linearGradient id="e" x1="74.38" y1="365.66" x2="68.52" y2="366.45" xlink:href="#c"/><linearGradient id="f" x1="-6758.31" y1="365.66" x2="-6764.17" y2="366.45" gradientTransform="matrix(-1, 0, 0, 1, -6600.89, 0)" xlink:href="#c"/></defs><title>style--theCrossStichArtboard 1 copy 3</title><g style="isolation:isolate"><rect x="6.1" y="76" width="219.5" height="324.53" style="fill:url(#a)"/><rect x="65.7" y="363.3" width="100.5" height="5.54" style="fill:url(#b)"/><path d="M0,69.9V406.7H86.4V69.9ZM65.7,372.7a6.6,6.6,0,0,1-6.7-6.6,6.7,6.7,0,1,1,13.3,0A6.6,6.6,0,0,1,65.7,372.7Zm0-51.1a6.7,6.7,0,1,1,6.6-6.6A6.7,6.7,0,0,1,65.7,321.6Zm0-51.1a6.7,6.7,0,1,1,6.6-6.7A6.7,6.7,0,0,1,65.7,270.5Zm0-51.1a6.7,6.7,0,0,1-6.7-6.7,6.7,6.7,0,1,1,6.7,6.7Zm0-51.1a6.7,6.7,0,1,1,6.6-6.7A6.7,6.7,0,0,1,65.7,168.3Zm0-51.2a6.6,6.6,0,0,1-6.7-6.6,6.7,6.7,0,1,1,13.3,0A6.6,6.6,0,0,1,65.7,117.1Z" style="fill:#383642"/><path d="M65.7,354.8a11.3,11.3,0,1,0,11.2,11.3A11.2,11.2,0,0,0,65.7,354.8Zm0,17.9a6.6,6.6,0,0,1-6.7-6.6,6.7,6.7,0,1,1,13.3,0A6.6,6.6,0,0,1,65.7,372.7Z" style="fill:#636569"/><path d="M65.7,303.7A11.3,11.3,0,1,0,76.9,315,11.2,11.2,0,0,0,65.7,303.7Zm0,17.9a6.7,6.7,0,1,1,6.6-6.6A6.7,6.7,0,0,1,65.7,321.6Z" style="fill:#636569"/><path d="M65.7,252.6a11.3,11.3,0,1,0,11.2,11.2A11.2,11.2,0,0,0,65.7,252.6Zm0,17.9a6.7,6.7,0,1,1,6.6-6.7A6.7,6.7,0,0,1,65.7,270.5Z" style="fill:#636569"/><path d="M65.7,201.4a11.3,11.3,0,1,0,11.2,11.3A11.3,11.3,0,0,0,65.7,201.4Zm0,18a6.7,6.7,0,0,1-6.7-6.7,6.7,6.7,0,1,1,6.7,6.7Z" style="fill:#636569"/><path d="M65.7,150.3a11.3,11.3,0,1,0,11.2,11.3A11.3,11.3,0,0,0,65.7,150.3Zm0,18a6.7,6.7,0,1,1,6.6-6.7A6.7,6.7,0,0,1,65.7,168.3Z" style="fill:#636569"/><path d="M65.7,99.2a11.3,11.3,0,1,0,11.2,11.3A11.2,11.2,0,0,0,65.7,99.2Zm0,17.9a6.6,6.6,0,0,1-6.7-6.6,6.7,6.7,0,1,1,13.3,0A6.6,6.6,0,0,1,65.7,117.1Z" style="fill:#636569"/><path d="M231.8,406.7V69.9H145.4V406.7ZM166.1,103.8a6.7,6.7,0,0,1,6.7,6.7,6.7,6.7,0,1,1-6.7-6.7Zm0,51.1a6.7,6.7,0,1,1-6.6,6.7A6.7,6.7,0,0,1,166.1,154.9Zm0,51.2a6.6,6.6,0,0,1,6.7,6.6,6.7,6.7,0,1,1-13.3,0A6.6,6.6,0,0,1,166.1,206.1Zm0,51.1a6.7,6.7,0,1,1-6.6,6.6A6.7,6.7,0,0,1,166.1,257.2Zm0,51.1a6.7,6.7,0,1,1-6.6,6.7A6.7,6.7,0,0,1,166.1,308.3Zm0,51.1a6.7,6.7,0,0,1,6.7,6.7,6.7,6.7,0,1,1-6.7-6.7Z" style="fill:#383642"/><path d="M166.1,121.8a11.3,11.3,0,1,0-11.2-11.3A11.3,11.3,0,0,0,166.1,121.8Zm0-18a6.7,6.7,0,0,1,6.7,6.7,6.7,6.7,0,1,1-6.7-6.7Z" style="fill:#636569"/><path d="M166.1,172.9a11.3,11.3,0,1,0-11.2-11.3A11.3,11.3,0,0,0,166.1,172.9Zm0-18a6.7,6.7,0,1,1-6.6,6.7A6.7,6.7,0,0,1,166.1,154.9Z" style="fill:#636569"/><path d="M166.1,224a11.3,11.3,0,1,0-11.2-11.3A11.2,11.2,0,0,0,166.1,224Zm0-17.9a6.6,6.6,0,0,1,6.7,6.6,6.7,6.7,0,1,1-13.3,0A6.6,6.6,0,0,1,166.1,206.1Z" style="fill:#636569"/><path d="M166.1,275.1a11.3,11.3,0,1,0-11.2-11.3A11.2,11.2,0,0,0,166.1,275.1Zm0-17.9a6.7,6.7,0,1,1-6.6,6.6A6.7,6.7,0,0,1,166.1,257.2Z" style="fill:#636569"/><path d="M166.1,326.2A11.3,11.3,0,1,0,154.9,315,11.2,11.2,0,0,0,166.1,326.2Zm0-17.9a6.7,6.7,0,1,1-6.6,6.7A6.7,6.7,0,0,1,166.1,308.3Z" style="fill:#636569"/><path d="M166.1,377.4a11.3,11.3,0,1,0-11.2-11.3A11.3,11.3,0,0,0,166.1,377.4Zm0-18a6.7,6.7,0,0,1,6.7,6.7,6.7,6.7,0,1,1-6.7-6.7Z" style="fill:#636569"/><circle cx="65.7" cy="366.1" r="2.8" style="fill:#3bd4ae"/><circle cx="166.1" cy="366.1" r="2.8" style="fill:#3bd4ae"/><path d="M179.6,290.2c-.6,49.6-10.8,76.9-11,77.4l-6-2.4c.2-.4,10-26.7,10.6-75.1Z" style="fill:#3bd4ae"/><rect x="139.5" y="363.3" width="5.9" height="5.53" style="mix-blend-mode:multiply;fill:url(#c)"/><rect x="86.4" y="363.3" width="5.2" height="5.55" style="mix-blend-mode:multiply;fill:url(#d)"/><path d="M68,367.5v1.3h3.7a6,6,0,0,0,.6-2.7,6.4,6.4,0,0,0-.6-2.8h-.9Z" style="mix-blend-mode:multiply;fill:url(#e)"/><path d="M163.8,367.5v1.3h-3.7a6,6,0,0,1-.6-2.7,6.4,6.4,0,0,1,.6-2.8h.9Z" style="mix-blend-mode:multiply;fill:url(#f)"/><path d="M57.8,353.3a71.5,71.5,0,0,0,5.3,14.5l5.7-2.9L66,366.4l2.8-1.5c-.1-.2-12.2-24.1-3.5-42.1a271.9,271.9,0,0,0,15.4-40.1l-6.4-.4A296,296,0,0,1,59.5,320C54.1,331.2,55.4,343.8,57.8,353.3Z" style="fill:#3bd4ae"/><path d="M175,265a4,4,0,0,1,4.3,3.8l1.4,22.3-8.3.5-1.3-22.3A4.1,4.1,0,0,1,175,265Z" style="fill:#aaa"/><path d="M84.1,263.1a4.1,4.1,0,0,1,2.6,5.2l-7.2,21.1-7.8-2.7,7.2-21.1A4,4,0,0,1,84.1,263.1Z" style="fill:#aaa"/><path d="M78.8,283l-3.3.2-.2.2a.2.2,0,0,0,.2.2h1l1.3,1.2-2.9.2a.2.2,0,0,0,0,.4l3.4-.2c0-.1.1-.1.1-.2h0c.1,0,0-.1,0-.2L77,283.5l1.9-.2a.1.1,0,0,0,.1-.1h0C79,283,78.9,283,78.8,283Z" style="fill:#5f5e6c"/><path d="M77.2,281.6h-.3l-.6-.6a.4.4,0,0,1-.1-.3.2.2,0,0,1,.3,0l.7.6Z" style="fill:#3bd4ae"/><path d="M177.3,284.8l-2.9,1.6a.4.4,0,0,0-.1.3h.3l.8-.5h.1l1.6.5-2.6,1.4c0,.1-.1.2,0,.3s.1.1.2,0l3-1.5c0-.1.1-.1.1-.2h0a.2.2,0,0,0-.2-.2l-1.7-.6,1.6-.8a.3.3,0,0,0,.1-.2h-.3Z" style="fill:#5f5e6c"/><path d="M175.3,284.2h0c-.1.1-.2.2-.3.1l-.8-.2c-.1-.1-.2-.2-.2-.3h.3l.8.3Z" style="fill:#3bd4ae"/></g></svg>