<svg xmlns="http://www.w3.org/2000/svg" xmlns:xlink="http://www.w3.org/1999/xlink" viewBox="0 0 231.8 404.5"><defs><clipPath id="a"><rect x="6.1" y="73.8" width="219.5" height="324.53" style="fill:none"/></clipPath><linearGradient id="b" x1="65.5" y1="363.72" x2="166.31" y2="363.72" gradientUnits="userSpaceOnUse"><stop offset="0" stop-color="#f4b223"/><stop offset="1" stop-color="#f4b223"/></linearGradient><linearGradient id="c" x1="86.44" y1="339.93" x2="91.8" y2="339.93" gradientUnits="userSpaceOnUse"><stop offset="0" stop-color="#383642"/><stop offset="1" stop-color="#383642" stop-opacity="0"/></linearGradient><linearGradient id="d" x1="86.44" y1="288.9" x2="91.8" y2="288.9" xlink:href="#c"/><linearGradient id="e" x1="86.44" y1="237.61" x2="91.8" y2="237.61" xlink:href="#c"/><linearGradient id="f" x1="-5700.93" y1="-523.08" x2="-5695.57" y2="-523.08" gradientTransform="translate(-5555.6 -340.2) rotate(180)" xlink:href="#c"/><linearGradient id="g" x1="-5700.93" y1="-574.37" x2="-5695.57" y2="-574.37" gradientTransform="translate(-5555.6 -340.2) rotate(180)" xlink:href="#c"/><linearGradient id="h" x1="-5700.93" y1="-625.42" x2="-5695.57" y2="-625.42" gradientTransform="translate(-5555.6 -340.2) rotate(180)" xlink:href="#c"/><linearGradient id="i" x1="113.43" y1="310.32" x2="110.57" y2="318.63" xlink:href="#c"/><linearGradient id="j" x1="120.2" y1="313.52" x2="120.63" y2="307.2" xlink:href="#c"/><linearGradient id="k" x1="113.43" y1="259.3" x2="110.57" y2="267.61" xlink:href="#c"/><linearGradient id="l" x1="120.2" y1="262.49" x2="120.63" y2="256.17" xlink:href="#c"/><linearGradient id="m" x1="113.43" y1="208.01" x2="110.57" y2="216.32" xlink:href="#c"/><linearGradient id="n" x1="120.2" y1="211.2" x2="120.63" y2="204.88" xlink:href="#c"/></defs><title>style-hypotenuseArtboard 1 copy 6</title><g style="isolation:isolate"><g style="clip-path:url(#a)"><rect x="6.1" y="73.8" width="0.4" height="324.53" style="fill:#010101"/><rect x="6.5" y="73.8" width="1.8" height="324.53" style="fill:#020202"/><rect x="8.3" y="73.8" width="1.8" height="324.53" style="fill:#030203"/><rect x="10.2" y="73.8" width="1.8" height="324.53" style="fill:#030304"/><rect x="12" y="73.8" width="1.8" height="324.53" style="fill:#040405"/><rect x="13.8" y="73.8" width="1.8" height="324.53" style="fill:#050506"/><rect x="15.7" y="73.8" width="1.8" height="324.53" style="fill:#060607"/><rect x="17.5" y="73.8" width="1.8" height="324.53" style="fill:#070708"/><rect x="19.3" y="73.8" width="1.8" height="324.53" style="fill:#080709"/><rect x="21.2" y="73.8" width="1.8" height="324.53" style="fill:#09080a"/><rect x="23" y="73.8" width="1.8" height="324.53" style="fill:#09090b"/><rect x="24.8" y="73.8" width="1.8" height="324.53" style="fill:#0a0a0c"/><rect x="26.7" y="73.8" width="1.8" height="324.53" style="fill:#0b0b0d"/><rect x="28.5" y="73.8" width="1.8" height="324.53" style="fill:#0c0c0e"/><rect x="30.3" y="73.8" width="1.8" height="324.53" style="fill:#0d0c0f"/><rect x="32.2" y="73.8" width="1.8" height="324.53" style="fill:#0e0d10"/><rect x="34" y="73.8" width="1.8" height="324.53" style="fill:#0f0e11"/><rect x="35.8" y="73.8" width="1.8" height="324.53" style="fill:#100f12"/><rect x="37.7" y="73.8" width="1.8" height="324.53" style="fill:#101013"/><rect x="39.5" y="73.8" width="1.8" height="324.53" style="fill:#111114"/><rect x="41.3" y="73.8" width="1.8" height="324.53" style="fill:#121115"/><rect x="43.2" y="73.8" width="1.8" height="324.53" style="fill:#131216"/><rect x="45" y="73.8" width="1.8" height="324.53" style="fill:#141317"/><rect x="46.8" y="73.8" width="1.8" height="324.53" style="fill:#151418"/><rect x="48.7" y="73.8" width="1.8" height="324.53" style="fill:#161519"/><rect x="50.5" y="73.8" width="1.8" height="324.53" style="fill:#16161a"/><rect x="52.3" y="73.8" width="1.8" height="324.53" style="fill:#17161b"/><rect x="54.2" y="73.8" width="1.8" height="324.53" style="fill:#18171c"/><rect x="56" y="73.8" width="1.8" height="324.53" style="fill:#19181d"/><rect x="57.8" y="73.8" width="1.8" height="324.53" style="fill:#1a191e"/><rect x="59.7" y="73.8" width="1.8" height="324.53" style="fill:#1b1a1f"/><rect x="61.5" y="73.8" width="1.8" height="324.53" style="fill:#1c1b20"/><rect x="63.3" y="73.8" width="1.8" height="324.53" style="fill:#1c1b22"/><rect x="65.2" y="73.8" width="1.8" height="324.53" style="fill:#1d1c23"/><rect x="67" y="73.8" width="1.8" height="324.53" style="fill:#1e1d24"/><rect x="68.8" y="73.8" width="1.8" height="324.53" style="fill:#1f1e25"/><rect x="70.7" y="73.8" width="1.8" height="324.53" style="fill:#201f26"/><rect x="72.5" y="73.8" width="1.8" height="324.53" style="fill:#212027"/><rect x="74.3" y="73.8" width="1.8" height="324.53" style="fill:#222028"/><rect x="76.2" y="73.8" width="1.8" height="324.53" style="fill:#222129"/><rect x="78" y="73.8" width="1.8" height="324.53" style="fill:#23222a"/><rect x="79.8" y="73.8" width="1.8" height="324.53" style="fill:#24232b"/><rect x="81.7" y="73.8" width="1.8" height="324.53" style="fill:#25242c"/><rect x="83.5" y="73.8" width="1.8" height="324.53" style="fill:#26252d"/><rect x="85.3" y="73.8" width="1.8" height="324.53" style="fill:#27252e"/><rect x="87.2" y="73.8" width="1.8" height="324.53" style="fill:#28262f"/><rect x="89" y="73.8" width="1.8" height="324.53" style="fill:#282730"/><rect x="90.8" y="73.8" width="1.8" height="324.53" style="fill:#292831"/><rect x="92.7" y="73.8" width="1.8" height="324.53" style="fill:#2a2932"/><rect x="94.5" y="73.8" width="1.8" height="324.53" style="fill:#2b2a33"/><rect x="96.3" y="73.8" width="1.8" height="324.53" style="fill:#2c2a34"/><rect x="98.2" y="73.8" width="1.8" height="324.53" style="fill:#2d2b35"/><rect x="100" y="73.8" width="1.8" height="324.53" style="fill:#2e2c36"/><rect x="101.8" y="73.8" width="1.8" height="324.53" style="fill:#2f2d37"/><rect x="103.7" y="73.8" width="1.8" height="324.53" style="fill:#2f2e38"/><rect x="105.5" y="73.8" width="1.8" height="324.53" style="fill:#302f39"/><rect x="107.3" y="73.8" width="1.8" height="324.53" style="fill:#312f3a"/><rect x="109.2" y="73.8" width="1.8" height="324.53" style="fill:#32303b"/><rect x="111" y="73.8" width="1.8" height="324.53" style="fill:#33313c"/><rect x="112.9" y="73.8" width="1.8" height="324.53" style="fill:#34323d"/><rect x="114.7" y="73.8" width="1.8" height="324.53" style="fill:#35333e"/><rect x="116.5" y="73.8" width="1.8" height="324.53" style="fill:#35343f"/><rect x="118.4" y="73.8" width="1.8" height="324.53" style="fill:#363440"/><rect x="120.2" y="73.8" width="1.8" height="324.53" style="fill:#373541"/><rect x="122" y="73.8" width="1.8" height="324.53" style="fill:#383642"/><rect x="123.9" y="73.8" width="1.6" height="324.53" style="fill:#383642"/><rect x="125.5" y="73.8" width="1.6" height="324.53" style="fill:#373541"/><rect x="127.1" y="73.8" width="1.6" height="324.53" style="fill:#363440"/><rect x="128.7" y="73.8" width="1.6" height="324.53" style="fill:#35343f"/><rect x="130.4" y="73.8" width="1.6" height="324.53" style="fill:#35333e"/><rect x="132" y="73.8" width="1.6" height="324.53" style="fill:#34323d"/><rect x="133.6" y="73.8" width="1.6" height="324.53" style="fill:#33313c"/><rect x="135.2" y="73.8" width="1.6" height="324.53" style="fill:#32303b"/><rect x="136.8" y="73.8" width="1.6" height="324.53" style="fill:#312f3a"/><rect x="138.5" y="73.8" width="1.6" height="324.53" style="fill:#302f39"/><rect x="140.1" y="73.8" width="1.6" height="324.53" style="fill:#2f2e38"/><rect x="141.7" y="73.8" width="1.6" height="324.53" style="fill:#2f2d37"/><rect x="143.3" y="73.8" width="1.6" height="324.53" style="fill:#2e2c36"/><rect x="145" y="73.8" width="1.6" height="324.53" style="fill:#2d2b35"/><rect x="146.6" y="73.8" width="1.6" height="324.53" style="fill:#2c2a34"/><rect x="148.2" y="73.8" width="1.6" height="324.53" style="fill:#2b2a33"/><rect x="149.8" y="73.8" width="1.6" height="324.53" style="fill:#2a2932"/><rect x="151.5" y="73.8" width="1.6" height="324.53" style="fill:#292831"/><rect x="153.1" y="73.8" width="1.6" height="324.53" style="fill:#282730"/><rect x="154.7" y="73.8" width="1.6" height="324.53" style="fill:#28262f"/><rect x="156.3" y="73.8" width="1.6" height="324.53" style="fill:#27252e"/><rect x="158" y="73.8" width="1.6" height="324.53" style="fill:#26252d"/><rect x="159.6" y="73.8" width="1.6" height="324.53" style="fill:#25242c"/><rect x="161.2" y="73.8" width="1.6" height="324.53" style="fill:#24232b"/><rect x="162.8" y="73.8" width="1.6" height="324.53" style="fill:#23222a"/><rect x="164.5" y="73.8" width="1.6" height="324.53" style="fill:#222129"/><rect x="166.1" y="73.8" width="1.6" height="324.53" style="fill:#222028"/><rect x="167.7" y="73.8" width="1.6" height="324.53" style="fill:#212027"/><rect x="169.3" y="73.8" width="1.6" height="324.53" style="fill:#201f26"/><rect x="171" y="73.8" width="1.6" height="324.53" style="fill:#1f1e25"/><rect x="172.6" y="73.8" width="1.6" height="324.53" style="fill:#1e1d24"/><rect x="174.2" y="73.8" width="1.6" height="324.53" style="fill:#1d1c23"/><rect x="175.8" y="73.8" width="1.6" height="324.53" style="fill:#1c1b22"/><rect x="177.5" y="73.8" width="1.6" height="324.53" style="fill:#1c1b20"/><rect x="179.1" y="73.8" width="1.6" height="324.53" style="fill:#1b1a1f"/><rect x="180.7" y="73.8" width="1.6" height="324.53" style="fill:#1a191e"/><rect x="182.3" y="73.8" width="1.6" height="324.53" style="fill:#19181d"/><rect x="184" y="73.8" width="1.6" height="324.53" style="fill:#18171c"/><rect x="185.6" y="73.8" width="1.6" height="324.53" style="fill:#17161b"/><rect x="187.2" y="73.8" width="1.6" height="324.53" style="fill:#16161a"/><rect x="188.8" y="73.8" width="1.6" height="324.53" style="fill:#161519"/><rect x="190.5" y="73.8" width="1.6" height="324.53" style="fill:#151418"/><rect x="192.1" y="73.8" width="1.6" height="324.53" style="fill:#141317"/><rect x="193.7" y="73.8" width="1.6" height="324.53" style="fill:#131216"/><rect x="195.3" y="73.8" width="1.6" height="324.53" style="fill:#121115"/><rect x="197" y="73.8" width="1.6" height="324.53" style="fill:#111114"/><rect x="198.6" y="73.8" width="1.6" height="324.53" style="fill:#101013"/><rect x="200.2" y="73.8" width="1.6" height="324.53" style="fill:#100f12"/><rect x="201.8" y="73.8" width="1.6" height="324.53" style="fill:#0f0e11"/><rect x="203.5" y="73.8" width="1.6" height="324.53" style="fill:#0e0d10"/><rect x="205.1" y="73.8" width="1.6" height="324.53" style="fill:#0d0c0f"/><rect x="206.7" y="73.8" width="1.6" height="324.53" style="fill:#0c0c0e"/><rect x="208.3" y="73.8" width="1.6" height="324.53" style="fill:#0b0b0d"/><rect x="210" y="73.8" width="1.6" height="324.53" style="fill:#0a0a0c"/><rect x="211.6" y="73.8" width="1.6" height="324.53" style="fill:#09090b"/><rect x="213.2" y="73.8" width="1.6" height="324.53" style="fill:#09080a"/><rect x="214.8" y="73.8" width="1.6" height="324.53" style="fill:#080709"/><rect x="216.5" y="73.8" width="1.6" height="324.53" style="fill:#070708"/><rect x="218.1" y="73.8" width="1.6" height="324.53" style="fill:#060607"/><rect x="219.7" y="73.8" width="1.6" height="324.53" style="fill:#050506"/><rect x="221.3" y="73.8" width="1.6" height="324.53" style="fill:#040405"/><rect x="222.9" y="73.8" width="1.6" height="324.53" style="fill:#030304"/><rect x="224.6" y="73.8" width="1" height="324.53" style="fill:#030203"/></g><path d="M83.5,189.9l-3.9-5.2c.3-.3,33.6-25,42.1-61.9,4.8-20.8-.6-25.3-8.7-32.1-5.9-5-13.3-11.1-17.8-24.7l6.2-2c3.9,11.8,9.9,16.8,15.8,21.7,8.5,7.1,16.5,13.9,10.8,38.5C119,163.5,84.9,188.9,83.5,189.9Z" style="fill:#f4b223"/><path d="M92.4,52.2a4.1,4.1,0,0,1,5.4,2l8.9,20.3-7.5,3.3L90.3,57.6A4.1,4.1,0,0,1,92.4,52.2Z" style="fill:#aaa"/><rect x="44.2" y="207.3" width="143.3" height="6.15" transform="translate(-115.3 145.1) rotate(-45.4)" style="fill:#f4b223"/><rect x="44.2" y="309.6" width="143.3" height="6.15" transform="translate(-188.1 175.6) rotate(-45.4)" style="fill:#f4b223"/><rect x="44.2" y="258.6" width="143.3" height="6.15" transform="translate(-151.8 160.4) rotate(-45.4)" style="fill:#f4b223"/><rect x="163.1" y="312.8" width="6.2" height="51.12" style="fill:#f4b223"/><path d="M0,67.7V404.5H86.4V67.7ZM65.7,370.5a6.6,6.6,0,0,1-6.7-6.6,6.7,6.7,0,1,1,13.3,0A6.6,6.6,0,0,1,65.7,370.5Zm0-51.1a6.7,6.7,0,1,1,6.6-6.6A6.7,6.7,0,0,1,65.7,319.4Zm0-51.1a6.7,6.7,0,1,1,6.6-6.7A6.7,6.7,0,0,1,65.7,268.3Zm0-51.1a6.7,6.7,0,0,1-6.7-6.7,6.7,6.7,0,1,1,6.7,6.7Zm0-51.1a6.7,6.7,0,1,1,6.6-6.7A6.7,6.7,0,0,1,65.7,166.1Zm0-51.2a6.6,6.6,0,0,1-6.7-6.6,6.7,6.7,0,1,1,13.3,0A6.6,6.6,0,0,1,65.7,114.9Z" style="fill:#383642"/><path d="M65.7,352.6a11.3,11.3,0,1,0,11.2,11.3A11.2,11.2,0,0,0,65.7,352.6Zm0,17.9a6.6,6.6,0,0,1-6.7-6.6,6.7,6.7,0,1,1,13.3,0A6.6,6.6,0,0,1,65.7,370.5Z" style="fill:#636569"/><path d="M65.7,301.5a11.3,11.3,0,1,0,11.2,11.3A11.2,11.2,0,0,0,65.7,301.5Zm0,17.9a6.7,6.7,0,1,1,6.6-6.6A6.7,6.7,0,0,1,65.7,319.4Z" style="fill:#636569"/><path d="M65.7,250.4a11.3,11.3,0,1,0,11.2,11.2A11.2,11.2,0,0,0,65.7,250.4Zm0,17.9a6.7,6.7,0,1,1,6.6-6.7A6.7,6.7,0,0,1,65.7,268.3Z" style="fill:#636569"/><path d="M65.7,199.2a11.3,11.3,0,1,0,11.2,11.3A11.3,11.3,0,0,0,65.7,199.2Zm0,18a6.7,6.7,0,0,1-6.7-6.7,6.7,6.7,0,1,1,6.7,6.7Z" style="fill:#636569"/><path d="M65.7,148.1a11.3,11.3,0,1,0,11.2,11.3A11.3,11.3,0,0,0,65.7,148.1Zm0,18a6.7,6.7,0,1,1,6.6-6.7A6.7,6.7,0,0,1,65.7,166.1Z" style="fill:#636569"/><path d="M65.7,97a11.3,11.3,0,1,0,11.2,11.3A11.2,11.2,0,0,0,65.7,97Zm0,17.9a6.6,6.6,0,0,1-6.7-6.6,6.7,6.7,0,1,1,13.3,0A6.6,6.6,0,0,1,65.7,114.9Z" style="fill:#636569"/><path d="M231.8,404.5V67.7H145.4V404.5ZM166.1,101.6a6.7,6.7,0,0,1,6.7,6.7,6.7,6.7,0,1,1-6.7-6.7Zm0,51.1a6.7,6.7,0,1,1-6.6,6.7A6.7,6.7,0,0,1,166.1,152.7Zm0,51.2a6.6,6.6,0,0,1,6.7,6.6,6.7,6.7,0,1,1-13.3,0A6.6,6.6,0,0,1,166.1,203.9Zm0,51.1a6.7,6.7,0,1,1-6.6,6.6A6.7,6.7,0,0,1,166.1,255Zm0,51.1a6.7,6.7,0,1,1-6.6,6.7A6.7,6.7,0,0,1,166.1,306.1Zm0,51.1a6.7,6.7,0,0,1,6.7,6.7,6.7,6.7,0,1,1-6.7-6.7Z" style="fill:#383642"/><path d="M166.1,119.6a11.3,11.3,0,1,0-11.2-11.3A11.3,11.3,0,0,0,166.1,119.6Zm0-18a6.7,6.7,0,0,1,6.7,6.7,6.7,6.7,0,1,1-6.7-6.7Z" style="fill:#636569"/><path d="M166.1,170.7a11.3,11.3,0,1,0-11.2-11.3A11.3,11.3,0,0,0,166.1,170.7Zm0-18a6.7,6.7,0,1,1-6.6,6.7A6.7,6.7,0,0,1,166.1,152.7Z" style="fill:#636569"/><path d="M166.1,221.8a11.3,11.3,0,1,0-11.2-11.3A11.3,11.3,0,0,0,166.1,221.8Zm0-17.9a6.6,6.6,0,0,1,6.7,6.6,6.7,6.7,0,1,1-13.3,0A6.6,6.6,0,0,1,166.1,203.9Z" style="fill:#636569"/><path d="M166.1,272.9a11.3,11.3,0,1,0-11.2-11.3A11.2,11.2,0,0,0,166.1,272.9Zm0-17.9a6.7,6.7,0,1,1-6.6,6.6A6.7,6.7,0,0,1,166.1,255Z" style="fill:#636569"/><path d="M166.1,324a11.3,11.3,0,1,0-11.2-11.2A11.2,11.2,0,0,0,166.1,324Zm0-17.9a6.7,6.7,0,1,1-6.6,6.7A6.7,6.7,0,0,1,166.1,306.1Z" style="fill:#636569"/><path d="M166.1,375.2a11.3,11.3,0,1,0-11.2-11.3A11.3,11.3,0,0,0,166.1,375.2Zm0-18a6.7,6.7,0,0,1,6.7,6.7,6.7,6.7,0,1,1-6.7-6.7Z" style="fill:#636569"/><circle cx="166.3" cy="363.7" r="2.9" style="fill:#f4b223"/><circle cx="166.3" cy="312.7" r="2.9" style="fill:#f4b223"/><circle cx="166.2" cy="261.6" r="3" style="fill:#f4b223"/><circle cx="65.5" cy="363.7" r="2.9" style="fill:#f4b223"/><circle cx="65.4" cy="312.7" r="3" style="fill:#f4b223"/><circle cx="65.4" cy="261.5" r="3" style="fill:#f4b223"/><circle cx="166.2" cy="210.6" r="3" style="fill:#f4b223"/><circle cx="65.4" cy="210.6" r="3" style="fill:#f4b223"/><circle cx="166.2" cy="159.3" r="3" style="fill:#f4b223"/><rect x="65.5" y="309.6" width="100.6" height="6.15" style="fill:#f4b223"/><rect x="65.5" y="258.6" width="100.6" height="6.15" style="fill:#f4b223"/><rect x="65.5" y="207.3" width="100.6" height="6.15" style="fill:#f4b223"/><line x1="65.5" y1="363.7" x2="166.3" y2="363.7" style="fill:none;stroke-miterlimit:10;stroke-width:6.1520928144455px;stroke:url(#b)"/><polygon points="86.4 338.1 86.4 346.9 91.8 341.4 91.4 333 86.4 338.1" style="mix-blend-mode:multiply;fill:url(#c)"/><polygon points="86.4 287.1 86.4 295.8 91.8 290.4 91.4 282 86.4 287.1" style="mix-blend-mode:multiply;fill:url(#d)"/><polygon points="86.4 235.8 86.4 244.5 91.8 239.1 91.4 230.7 86.4 235.8" style="mix-blend-mode:multiply;fill:url(#e)"/><polygon points="145.4 184.8 145.4 176 140 181.4 140.4 189.9 145.4 184.8" style="mix-blend-mode:multiply;fill:url(#f)"/><polygon points="145.4 236.1 145.4 227.3 140 232.7 140.4 241.1 145.4 236.1" style="mix-blend-mode:multiply;fill:url(#g)"/><polygon points="145.4 287.1 145.4 278.3 140 283.8 140.4 292.2 145.4 287.1" style="mix-blend-mode:multiply;fill:url(#h)"/><polygon points="104.8 319.5 108.4 315.8 117 315.8 112.4 320.5 104.8 319.5" style="mix-blend-mode:multiply;fill:url(#i)"/><polygon points="114.5 309.6 118 306 126.7 306 123.2 309.6 114.5 309.6" style="mix-blend-mode:multiply;fill:url(#j)"/><polygon points="104.8 268.5 108.4 264.8 117 264.8 112.4 269.5 104.8 268.5" style="mix-blend-mode:multiply;fill:url(#k)"/><polygon points="114.5 258.6 118 255 126.7 255 123.2 258.6 114.5 258.6" style="mix-blend-mode:multiply;fill:url(#l)"/><polygon points="104.8 217.2 108.4 213.5 117 213.5 112.4 218.2 104.8 217.2" style="mix-blend-mode:multiply;fill:url(#m)"/><polygon points="114.5 207.3 118 203.7 126.7 203.7 123.2 207.3 114.5 207.3" style="mix-blend-mode:multiply;fill:url(#n)"/><path d="M167.6,163.3a8.1,8.1,0,0,1-2.2-.1,6.6,6.6,0,0,1-4-2.6c4.2-5.6,28.4-38.8,24.3-69.6C181,56.7,155.2,8.3,154.9,7.8l5.8-3.1c1.1,2,26.7,49.9,31.5,85.4,2.6,19.1-4.8,38.6-11.4,51.6A147.2,147.2,0,0,1,167.6,163.3Z" style="fill:#f4b223"/><path d="M157.3,3.6a4.2,4.2,0,0,1,5.5,2L172,25.9l-7.6,3.4L155.2,9.1A4.2,4.2,0,0,1,157.3,3.6Z" style="fill:#aaa"/><path d="M102.2,70.4l-2.4,2.4a.2.2,0,0,0,.3.3l.7-.7h1.7l-2,2.1c-.1,0-.1.2,0,.2h.2l2.4-2.3c.1-.1.1-.2,0-.2h0c0-.1,0-.1-.1-.1h-1.9l1.3-1.3v-.2h-.3Z" style="fill:#5f5e6c"/><path d="M100,70.5h0a.2.2,0,0,1-.2.2h-.9c-.1,0-.1-.1-.1-.2l.2-.2h.9Z" style="fill:#f4b223"/><path d="M167.6,22.2l-2.4,2.4v.3a.2.2,0,0,0,.3,0l.7-.7H168l-2.1,2.1a.2.2,0,0,0,0,.3h.3l2.3-2.4c.1-.1.1-.1.1-.2h0c0-.1-.1-.1-.2-.1h-1.8l1.3-1.3v-.2h-.3Z" style="fill:#5f5e6c"/><path d="M165.5,22.3h0c0,.1-.1.1-.2.1h-.9l-.2-.2c0-.1.1-.1.2-.1h1.1Z" style="fill:#f4b223"/></g></svg>