<svg xmlns="http://www.w3.org/2000/svg" xmlns:xlink="http://www.w3.org/1999/xlink" viewBox="0 0 231.8 404.5"><defs><linearGradient id="a" x1="2.89" y1="236.08" x2="231.15" y2="236.08" gradientUnits="userSpaceOnUse"><stop offset="0"/><stop offset="0.53" stop-color="#383642"/><stop offset="1"/></linearGradient><linearGradient id="b" x1="-1387.02" y1="-3596.39" x2="-1286.74" y2="-3596.39" gradientTransform="translate(-1221 -3437) rotate(180)" gradientUnits="userSpaceOnUse"><stop offset="0" stop-color="#ff595a"/><stop offset="1" stop-color="#ff595a"/></linearGradient><linearGradient id="c" x1="116.86" y1="209.65" x2="109.28" y2="216.88" gradientUnits="userSpaceOnUse"><stop offset="0" stop-color="#383642"/><stop offset="1" stop-color="#383642" stop-opacity="0"/></linearGradient><linearGradient id="d" x1="115.63" y1="210.32" x2="121.02" y2="205" xlink:href="#c"/><linearGradient id="e" x1="84.7" y1="177.69" x2="87.7" y2="181.56" xlink:href="#c"/><linearGradient id="f" x1="148.2" y1="178" x2="140.77" y2="184.66" xlink:href="#c"/><linearGradient id="g" x1="160.28" y1="113.5" x2="165.41" y2="109.69" xlink:href="#c"/><linearGradient id="h" x1="71.54" y1="114.53" x2="66.02" y2="108.86" xlink:href="#c"/><linearGradient id="i" x1="72.13" y1="165.56" x2="67.3" y2="162.84" xlink:href="#c"/><linearGradient id="j" x1="-4343.04" y1="165.56" x2="-4347.86" y2="162.84" gradientTransform="matrix(-1, 0, 0, 1, -4183.35, 0)" xlink:href="#c"/><linearGradient id="k" x1="-4134.89" y1="647.1" x2="-4130.13" y2="641.55" gradientTransform="translate(-656.3 -3903.9) rotate(-91.1)" xlink:href="#c"/><linearGradient id="l" x1="166.27" y1="355.83" x2="167.59" y2="359.69" xlink:href="#c"/><linearGradient id="m" x1="-4559.81" y1="355.83" x2="-4558.49" y2="359.69" gradientTransform="matrix(-1, 0, 0, 1, -4494.27, 0)" xlink:href="#c"/></defs><title>style--gentlemanArtboard 1 copy 8</title><g style="isolation:isolate"><rect x="6.2" y="73.8" width="219.5" height="324.53" style="fill:url(#a)"/><path d="M139.1,239,63.9,162.7a1.9,1.9,0,0,1,0-2.7l3-2.9,76.6,77.6" style="fill:#ff595a"/><rect x="140.8" y="166.8" width="29.6" height="6.15" transform="translate(-74.6 159.8) rotate(-45)" style="fill:#ff595a"/><path d="M0,67.7V404.5H86.4V67.7ZM65.7,370.5a6.6,6.6,0,0,1-6.7-6.6,6.7,6.7,0,1,1,13.3,0A6.6,6.6,0,0,1,65.7,370.5Zm0-51.1a6.7,6.7,0,1,1,6.6-6.6A6.7,6.7,0,0,1,65.7,319.4Zm0-51.1a6.7,6.7,0,1,1,6.6-6.7A6.7,6.7,0,0,1,65.7,268.3Zm0-51.1a6.7,6.7,0,0,1-6.7-6.7,6.7,6.7,0,1,1,6.7,6.7Zm0-51.1a6.7,6.7,0,1,1,6.6-6.7A6.7,6.7,0,0,1,65.7,166.1Zm0-51.2a6.6,6.6,0,0,1-6.7-6.6,6.7,6.7,0,1,1,13.3,0A6.6,6.6,0,0,1,65.7,114.9Z" style="fill:#383642"/><path d="M65.7,352.6a11.3,11.3,0,1,0,11.2,11.3A11.2,11.2,0,0,0,65.7,352.6Zm0,17.9a6.6,6.6,0,0,1-6.7-6.6,6.7,6.7,0,1,1,13.3,0A6.6,6.6,0,0,1,65.7,370.5Z" style="fill:#636569"/><path d="M65.7,301.5a11.3,11.3,0,1,0,11.2,11.3A11.2,11.2,0,0,0,65.7,301.5Zm0,17.9a6.7,6.7,0,1,1,6.6-6.6A6.7,6.7,0,0,1,65.7,319.4Z" style="fill:#636569"/><path d="M65.7,250.4a11.3,11.3,0,1,0,11.2,11.2A11.2,11.2,0,0,0,65.7,250.4Zm0,17.9a6.7,6.7,0,1,1,6.6-6.7A6.7,6.7,0,0,1,65.7,268.3Z" style="fill:#636569"/><path d="M65.7,199.2a11.3,11.3,0,1,0,11.2,11.3A11.3,11.3,0,0,0,65.7,199.2Zm0,18a6.7,6.7,0,0,1-6.7-6.7,6.7,6.7,0,1,1,6.7,6.7Z" style="fill:#636569"/><path d="M65.7,148.1a11.3,11.3,0,1,0,11.2,11.3A11.3,11.3,0,0,0,65.7,148.1Zm0,18a6.7,6.7,0,1,1,6.6-6.7A6.7,6.7,0,0,1,65.7,166.1Z" style="fill:#636569"/><path d="M65.7,97a11.3,11.3,0,1,0,11.2,11.3A11.2,11.2,0,0,0,65.7,97Zm0,17.9a6.6,6.6,0,0,1-6.7-6.6,6.7,6.7,0,1,1,13.3,0A6.6,6.6,0,0,1,65.7,114.9Z" style="fill:#636569"/><path d="M231.8,404.5V67.7H145.4V404.5ZM166.1,101.6a6.7,6.7,0,0,1,6.7,6.7,6.7,6.7,0,1,1-6.7-6.7Zm0,51.1a6.7,6.7,0,1,1-6.6,6.7A6.7,6.7,0,0,1,166.1,152.7Zm0,51.2a6.6,6.6,0,0,1,6.7,6.6,6.7,6.7,0,1,1-13.3,0A6.6,6.6,0,0,1,166.1,203.9Zm0,51.1a6.7,6.7,0,1,1-6.6,6.6A6.7,6.7,0,0,1,166.1,255Zm0,51.1a6.7,6.7,0,1,1-6.6,6.7A6.7,6.7,0,0,1,166.1,306.1Zm0,51.1a6.7,6.7,0,0,1,6.7,6.7,6.7,6.7,0,1,1-6.7-6.7Z" style="fill:#383642"/><path d="M166.1,119.6a11.3,11.3,0,1,0-11.2-11.3A11.3,11.3,0,0,0,166.1,119.6Zm0-18a6.7,6.7,0,0,1,6.7,6.7,6.7,6.7,0,1,1-6.7-6.7Z" style="fill:#636569"/><path d="M166.1,170.7a11.3,11.3,0,1,0-11.2-11.3A11.3,11.3,0,0,0,166.1,170.7Zm0-18a6.7,6.7,0,1,1-6.6,6.7A6.7,6.7,0,0,1,166.1,152.7Z" style="fill:#636569"/><path d="M166.1,221.8a11.3,11.3,0,1,0-11.2-11.3A11.3,11.3,0,0,0,166.1,221.8Zm0-17.9a6.6,6.6,0,0,1,6.7,6.6,6.7,6.7,0,1,1-13.3,0A6.6,6.6,0,0,1,166.1,203.9Z" style="fill:#636569"/><path d="M166.1,272.9a11.3,11.3,0,1,0-11.2-11.3A11.2,11.2,0,0,0,166.1,272.9Zm0-17.9a6.7,6.7,0,1,1-6.6,6.6A6.7,6.7,0,0,1,166.1,255Z" style="fill:#636569"/><path d="M166.1,324a11.3,11.3,0,1,0-11.2-11.2A11.2,11.2,0,0,0,166.1,324Zm0-17.9a6.7,6.7,0,1,1-6.6,6.7A6.7,6.7,0,0,1,166.1,306.1Z" style="fill:#636569"/><path d="M166.1,375.2a11.3,11.3,0,1,0-11.2-11.3A11.3,11.3,0,0,0,166.1,375.2Zm0-18a6.7,6.7,0,0,1,6.7,6.7,6.7,6.7,0,1,1-6.7-6.7Z" style="fill:#636569"/><polygon points="93.1 237.1 88.7 232.8 145.4 175.7 145.4 184.5 93.1 237.1" style="fill:#ff595a"/><rect x="65.7" y="156.4" width="100.3" height="6.15" style="fill:url(#b)"/><circle cx="166.1" cy="159.4" r="3" style="fill:#ff595a"/><ellipse cx="65.7" cy="159.8" rx="3.1" ry="3.5" style="fill:#ff595a"/><polygon points="111.5 210.4 115.8 214.8 110.6 220.1 106.2 215.8 111.5 210.4" style="mix-blend-mode:multiply;fill:url(#c)"/><polygon points="115.8 206 121.2 200.4 125.4 204.9 120.1 210.4 115.8 206" style="mix-blend-mode:multiply;fill:url(#d)"/><polygon points="86.4 184.9 90.7 180.5 86.4 176.2 86.4 184.9" style="mix-blend-mode:multiply;fill:url(#e)"/><polygon points="145.4 175.7 145.4 184.5 138.1 191.9 133.9 187.4 145.4 175.7" style="mix-blend-mode:multiply;fill:url(#f)"/><path d="M164,106.1l-4.2,4.1a6.5,6.5,0,0,0,5,4.6l3.5-4.4Z" style="mix-blend-mode:multiply;fill:url(#g)"/><path d="M66.4,104.9l-4.6,4.2,5.6,5.6a6.8,6.8,0,0,0,4.5-4.2Z" style="mix-blend-mode:multiply;fill:url(#h)"/><path d="M66.2,164.2l1.4,1.6a7.1,7.1,0,0,0,3.9-3.3H67.4Z" style="mix-blend-mode:multiply;fill:url(#i)"/><path d="M165.7,164.2l-1.5,1.6a7.1,7.1,0,0,1-3.9-3.3h4.1Z" style="mix-blend-mode:multiply;fill:url(#j)"/><path d="M65.7,214.9l1.8,2a6.4,6.4,0,0,0,4.6-4.7L69,209.5Z" style="mix-blend-mode:multiply;fill:url(#k)"/><path d="M164.3,357.5l2.9,3,2.4-2.3a6.8,6.8,0,0,0-3.5-1A5.7,5.7,0,0,0,164.3,357.5Z" style="mix-blend-mode:multiply;fill:url(#l)"/><path d="M67.5,357.5l-2.9,3-2.4-2.3a6.8,6.8,0,0,1,3.5-1A5.7,5.7,0,0,1,67.5,357.5Z" style="mix-blend-mode:multiply;fill:url(#m)"/><path d="M94.9,231.2s-27.3,22.9-22.8,46.1,18.7,48.2,18.7,48.2" style="fill:none;stroke:#ff595a;stroke-miterlimit:10;stroke-width:6px"/><path d="M135.1,230.5s30.9,27,22.5,51.1-22.5,37-22.5,37" style="fill:none;stroke:#ff595a;stroke-miterlimit:10;stroke-width:6px"/><path d="M122.1,335a4.1,4.1,0,0,1-.6-5.8l14.2-17,6.3,5.2-14.2,17A4,4,0,0,1,122.1,335Z" style="fill:#aaa"/><path d="M98.1,338.9a4.1,4.1,0,0,1-5.6-1.7L82,317.8l7.2-3.9,10.5,19.4A4.1,4.1,0,0,1,98.1,338.9Z" style="fill:#aaa"/><path d="M87.1,321.9l2.1-2.7c.1,0,.1-.1,0-.2a.2.2,0,0,0-.3,0l-.6.8H86.5l1.9-2.2c.1-.1,0-.2,0-.3h-.3L86,320c-.1.1-.1.2,0,.2h0c0,.1.1.1.2.1H88l-1.2,1.4v.2h.1C86.9,322,87.1,322,87.1,321.9Z" style="fill:#5f5e6c"/><path d="M89.3,321.6h-.1a.2.2,0,0,1,.2-.2h1.1a.2.2,0,0,1-.2.2h-1Z" style="fill:#ff595a"/><path d="M134.3,318l3.2.8c.1,0,.2,0,.2-.1s0-.2-.1-.2l-1-.3h0l-.9-1.5,2.9.7h.2a.4.4,0,0,0-.1-.3l-3.3-.8h-.2v.2l.9,1.6-1.8-.4h-.2A.2.2,0,0,0,134.3,318Z" style="fill:#5f5e6c"/><path d="M135.4,319.9h.3l.4.8c.1,0,.1.2,0,.2s-.2,0-.3-.1l-.4-.7C135.3,320,135.3,319.9,135.4,319.9Z" style="fill:#ff595a"/></g></svg>