<svg xmlns="http://www.w3.org/2000/svg" xmlns:xlink="http://www.w3.org/1999/xlink" viewBox="0 0 231.8 404.5"><defs><linearGradient id="a" x1="2.89" y1="238.96" x2="231.15" y2="238.96" gradientUnits="userSpaceOnUse"><stop offset="0"/><stop offset="0.53" stop-color="#383642"/><stop offset="1"/></linearGradient><linearGradient id="b" x1="147.11" y1="256.82" x2="167.78" y2="256.82" gradientUnits="userSpaceOnUse"><stop offset="0" stop-color="#9352e8"/><stop offset="1" stop-color="#9352e8"/></linearGradient><linearGradient id="c" x1="63.46" y1="255.15" x2="83.19" y2="255.15" xlink:href="#b"/><linearGradient id="d" x1="64.01" y1="338.22" x2="167.7" y2="338.22" xlink:href="#b"/><linearGradient id="e" x1="64.11" y1="338.2" x2="167.7" y2="338.2" xlink:href="#b"/><linearGradient id="f" x1="65.5" y1="363.72" x2="166.31" y2="363.72" xlink:href="#b"/><linearGradient id="g" x1="64.01" y1="287.18" x2="167.7" y2="287.18" xlink:href="#b"/><linearGradient id="h" x1="64.11" y1="287.16" x2="167.7" y2="287.16" xlink:href="#b"/><linearGradient id="i" x1="52.91" y1="167.43" x2="100.62" y2="167.43" xlink:href="#b"/><linearGradient id="j" x1="123.12" y1="173.75" x2="169.59" y2="173.75" xlink:href="#b"/><linearGradient id="k" x1="117.14" y1="287.75" x2="124.28" y2="291.53" gradientUnits="userSpaceOnUse"><stop offset="0" stop-color="#383642"/><stop offset="1" stop-color="#383642" stop-opacity="0"/></linearGradient><linearGradient id="l" x1="-9833.22" y1="-4910.04" x2="-9826.08" y2="-4906.26" gradientTransform="translate(-9718.7 -4623.4) rotate(180)" xlink:href="#k"/><linearGradient id="m" x1="117.14" y1="338.78" x2="124.28" y2="342.56" xlink:href="#k"/><linearGradient id="n" x1="-9833.22" y1="-4961.07" x2="-9826.08" y2="-4957.29" gradientTransform="translate(-9718.7 -4623.4) rotate(180)" xlink:href="#k"/><linearGradient id="o" x1="158.63" y1="94.7" x2="159.96" y2="94.7" gradientTransform="translate(-26.7 103.2) rotate(-31.3)" xlink:href="#b"/><linearGradient id="p" x1="67.98" y1="93.14" x2="69.31" y2="93.14" gradientTransform="translate(39.9 199.8) rotate(-128.7)" xlink:href="#b"/></defs><title>style--Artboard 1 copy 21</title><rect x="6.2" y="76.7" width="219.5" height="324.53" style="fill:url(#a)"/><line x1="148.6" y1="252" x2="166.3" y2="261.6" style="fill:none;stroke-miterlimit:10;stroke-width:6.1520928144455px;stroke:url(#b)"/><line x1="65.4" y1="261.5" x2="81.3" y2="248.8" style="fill:none;stroke-miterlimit:10;stroke-width:6.1520928144455px;stroke:url(#c)"/><line x1="166.3" y1="363.7" x2="65.4" y2="312.7" style="fill:none;stroke-miterlimit:10;stroke-width:6.1520928144455px;stroke:url(#d)"/><line x1="65.5" y1="363.7" x2="166.3" y2="312.7" style="fill:none;stroke-miterlimit:10;stroke-width:6.1520928144455px;stroke:url(#e)"/><path d="M0,67.7V404.5H86.4V67.7ZM65.7,370.5a6.6,6.6,0,0,1-6.7-6.6,6.7,6.7,0,1,1,13.3,0A6.6,6.6,0,0,1,65.7,370.5Zm0-51.1a6.7,6.7,0,1,1,6.6-6.6A6.7,6.7,0,0,1,65.7,319.4Zm0-51.1a6.7,6.7,0,1,1,6.6-6.7A6.7,6.7,0,0,1,65.7,268.3Zm0-51.1a6.7,6.7,0,0,1-6.7-6.7,6.7,6.7,0,1,1,6.7,6.7Zm0-51.1a6.7,6.7,0,1,1,6.6-6.7A6.7,6.7,0,0,1,65.7,166.1Zm0-51.2a6.6,6.6,0,0,1-6.7-6.6,6.7,6.7,0,1,1,13.3,0A6.6,6.6,0,0,1,65.7,114.9Z" style="fill:#383642"/><path d="M65.7,352.6a11.3,11.3,0,1,0,11.2,11.3A11.2,11.2,0,0,0,65.7,352.6Zm0,17.9a6.6,6.6,0,0,1-6.7-6.6,6.7,6.7,0,1,1,13.3,0A6.6,6.6,0,0,1,65.7,370.5Z" style="fill:#636569"/><path d="M65.7,301.5a11.3,11.3,0,1,0,11.2,11.3A11.2,11.2,0,0,0,65.7,301.5Zm0,17.9a6.7,6.7,0,1,1,6.6-6.6A6.7,6.7,0,0,1,65.7,319.4Z" style="fill:#636569"/><path d="M65.7,250.4a11.3,11.3,0,1,0,11.2,11.2A11.2,11.2,0,0,0,65.7,250.4Zm0,17.9a6.7,6.7,0,1,1,6.6-6.7A6.7,6.7,0,0,1,65.7,268.3Z" style="fill:#636569"/><path d="M65.7,199.2a11.3,11.3,0,1,0,11.2,11.3A11.3,11.3,0,0,0,65.7,199.2Zm0,18a6.7,6.7,0,0,1-6.7-6.7,6.7,6.7,0,1,1,6.7,6.7Z" style="fill:#636569"/><path d="M65.7,148.1a11.3,11.3,0,1,0,11.2,11.3A11.3,11.3,0,0,0,65.7,148.1Zm0,18a6.7,6.7,0,1,1,6.6-6.7A6.7,6.7,0,0,1,65.7,166.1Z" style="fill:#636569"/><path d="M65.7,97a11.3,11.3,0,1,0,11.2,11.3A11.2,11.2,0,0,0,65.7,97Zm0,17.9a6.6,6.6,0,0,1-6.7-6.6,6.7,6.7,0,1,1,13.3,0A6.6,6.6,0,0,1,65.7,114.9Z" style="fill:#636569"/><path d="M231.8,404.5V67.7H145.4V404.5ZM166.1,101.6a6.7,6.7,0,0,1,6.7,6.7,6.7,6.7,0,1,1-6.7-6.7Zm0,51.1a6.7,6.7,0,1,1-6.6,6.7A6.7,6.7,0,0,1,166.1,152.7Zm0,51.2a6.6,6.6,0,0,1,6.7,6.6,6.7,6.7,0,1,1-13.3,0A6.6,6.6,0,0,1,166.1,203.9Zm0,51.1a6.7,6.7,0,1,1-6.6,6.6A6.7,6.7,0,0,1,166.1,255Zm0,51.1a6.7,6.7,0,1,1-6.6,6.7A6.7,6.7,0,0,1,166.1,306.1Zm0,51.1a6.7,6.7,0,0,1,6.7,6.7,6.7,6.7,0,1,1-6.7-6.7Z" style="fill:#383642"/><path d="M166.1,119.6a11.3,11.3,0,1,0-11.2-11.3A11.3,11.3,0,0,0,166.1,119.6Zm0-18a6.7,6.7,0,0,1,6.7,6.7,6.7,6.7,0,1,1-6.7-6.7Z" style="fill:#636569"/><path d="M166.1,170.7a11.3,11.3,0,1,0-11.2-11.3A11.3,11.3,0,0,0,166.1,170.7Zm0-18a6.7,6.7,0,1,1-6.6,6.7A6.7,6.7,0,0,1,166.1,152.7Z" style="fill:#636569"/><path d="M166.1,221.8a11.3,11.3,0,1,0-11.2-11.3A11.3,11.3,0,0,0,166.1,221.8Zm0-17.9a6.6,6.6,0,0,1,6.7,6.6,6.7,6.7,0,1,1-13.3,0A6.6,6.6,0,0,1,166.1,203.9Z" style="fill:#636569"/><path d="M166.1,272.9a11.3,11.3,0,1,0-11.2-11.3A11.2,11.2,0,0,0,166.1,272.9Zm0-17.9a6.7,6.7,0,1,1-6.6,6.6A6.7,6.7,0,0,1,166.1,255Z" style="fill:#636569"/><path d="M166.1,324a11.3,11.3,0,1,0-11.2-11.2A11.2,11.2,0,0,0,166.1,324Zm0-17.9a6.7,6.7,0,1,1-6.6,6.7A6.7,6.7,0,0,1,166.1,306.1Z" style="fill:#636569"/><path d="M166.1,375.2a11.3,11.3,0,1,0-11.2-11.3A11.3,11.3,0,0,0,166.1,375.2Zm0-18a6.7,6.7,0,0,1,6.7,6.7,6.7,6.7,0,1,1-6.7-6.7Z" style="fill:#636569"/><circle cx="166.3" cy="363.7" r="2.9" style="fill:#9352e8"/><circle cx="166.3" cy="312.7" r="2.9" style="fill:#9352e8"/><circle cx="166.2" cy="261.6" r="3" style="fill:#9352e8"/><circle cx="65.5" cy="363.7" r="2.9" style="fill:#9352e8"/><circle cx="65.4" cy="312.7" r="3" style="fill:#9352e8"/><circle cx="65.4" cy="261.5" r="3" style="fill:#9352e8"/><line x1="65.5" y1="363.7" x2="166.3" y2="363.7" style="fill:none;stroke-miterlimit:10;stroke-width:6.1520928144455px;stroke:url(#f)"/><line x1="166.3" y1="312.7" x2="65.4" y2="261.7" style="fill:none;stroke-miterlimit:10;stroke-width:6.1520928144455px;stroke:url(#g)"/><line x1="65.5" y1="312.7" x2="166.3" y2="261.6" style="fill:none;stroke-miterlimit:10;stroke-width:6.1520928144455px;stroke:url(#h)"/><path d="M73.8,85.7l-1.4,1.2a54.7,54.7,0,0,0-4.7,72.9c18.1,22.9,49,70.3,13.6,89" style="fill:none;stroke-miterlimit:10;stroke-width:6.1520928144455px;stroke:url(#i)"/><path d="M82.9,73a4.1,4.1,0,0,0-5.8.6l-14,17.3,6.4,5.2,14-17.3A4.1,4.1,0,0,0,82.9,73Z" style="fill:#aaa"/><path d="M151.3,95.4s23.3,14.7,12.2,54.1S95.3,225.1,148.6,252" style="fill:none;stroke-miterlimit:10;stroke-width:6.1520928144455px;stroke:url(#j)"/><path d="M141.5,85.6a4.1,4.1,0,0,1,5.8,0l15.6,15.8-5.9,5.7L141.5,91.4A4.1,4.1,0,0,1,141.5,85.6Z" style="fill:#aaa"/><polygon points="115.8 290.7 122.6 287.2 129.8 290.8 124.4 295.1 115.8 290.7" style="fill:url(#k)"/><polygon points="115.9 283.8 109.1 287.2 101.9 283.6 107.3 279.4 115.9 283.8" style="fill:url(#l)"/><polygon points="115.8 341.7 122.6 338.3 129.8 341.9 124.4 346.1 115.8 341.7" style="fill:url(#m)"/><polygon points="115.9 334.8 109.1 338.3 101.9 334.6 107.3 330.4 115.9 334.8" style="fill:url(#n)"/><polygon points="145.4 240.7 145.4 261.5 156.1 244.5 145.4 240.7" style="fill:#383642"/><polygon points="86.4 236.1 86.4 258.5 69.7 244.5 86.4 236.1" style="fill:#383642"/><path d="M156,102.5l1.3-3.1a.2.2,0,0,0-.1-.3c-.1,0-.2,0-.2.1l-.4,1h0l-1.6.6,1.1-2.7c0-.1,0-.2-.1-.2a.2.2,0,0,0-.3.1l-1.3,3v.3h.1l1.8-.6-.7,1.8v.2h.1Z" style="fill:#5f5e6c"/><path d="M158,101.6h0c-.1-.1-.1-.2.1-.2l.8-.4c.2,0,.3,0,.3.2s0,.2-.1.2l-.9.3Z" style="fill:url(#o)"/><path d="M71.1,90.3l-3.3-.8c-.1-.1-.2,0-.3.1a.2.2,0,0,0,.2.2l1,.3h0l.8,1.5-2.8-.7c-.1-.1-.2,0-.2.1s0,.2.1.2l3.2.9H70v-.2l-.9-1.7,1.9.5h.2Z" style="fill:#5f5e6c"/><path d="M70,88.5h-.3l-.5-.9c0-.1,0-.2.1-.2a.2.2,0,0,1,.3,0l.4.8Z" style="fill:url(#p)"/></svg>