<svg xmlns="http://www.w3.org/2000/svg" xmlns:xlink="http://www.w3.org/1999/xlink" viewBox="0 0 231.8 404.5"><defs><linearGradient id="a" x1="2.82" y1="236.07" x2="231.07" y2="236.07" gradientUnits="userSpaceOnUse"><stop offset="0"/><stop offset="0.53" stop-color="#383642"/><stop offset="1"/></linearGradient><linearGradient id="b" x1="65.5" y1="-873.52" x2="166.3" y2="-873.52" gradientTransform="matrix(1, 0, 0, -1, 0, -509.82)" gradientUnits="userSpaceOnUse"><stop offset="0" stop-color="#f4b223"/><stop offset="1" stop-color="#f4b223"/></linearGradient><linearGradient id="c" x1="86.4" y1="-849.72" x2="91.76" y2="-849.72" gradientTransform="matrix(1, 0, 0, -1, 0, -509.82)" gradientUnits="userSpaceOnUse"><stop offset="0" stop-color="#383642"/><stop offset="1" stop-color="#383642" stop-opacity="0"/></linearGradient><linearGradient id="d" x1="86.4" y1="-798.67" x2="91.76" y2="-798.67" xlink:href="#c"/><linearGradient id="e" x1="86.4" y1="-747.42" x2="91.76" y2="-747.42" xlink:href="#c"/><linearGradient id="f" x1="86.4" y1="-696.37" x2="91.76" y2="-696.37" xlink:href="#c"/><linearGradient id="g" x1="-7949.46" y1="1557.05" x2="-7944.1" y2="1557.05" gradientTransform="matrix(-1, 0, 0, 1, -7804.14, -1425.2)" xlink:href="#c"/><linearGradient id="h" x1="-7949.46" y1="1608.1" x2="-7944.1" y2="1608.1" gradientTransform="matrix(-1, 0, 0, 1, -7804.14, -1425.2)" xlink:href="#c"/><linearGradient id="i" x1="-7949.46" y1="1659.4" x2="-7944.1" y2="1659.4" gradientTransform="matrix(-1, 0, 0, 1, -7804.14, -1425.2)" xlink:href="#c"/><linearGradient id="j" x1="-7949.46" y1="1710.45" x2="-7944.1" y2="1710.45" gradientTransform="matrix(-1, 0, 0, 1, -7804.14, -1425.2)" xlink:href="#c"/><linearGradient id="k" x1="113.38" y1="-820.11" x2="110.52" y2="-828.42" xlink:href="#c"/><linearGradient id="l" x1="120.16" y1="-823.31" x2="120.59" y2="-816.99" xlink:href="#c"/><linearGradient id="m" x1="113.38" y1="-769.08" x2="110.51" y2="-777.39" xlink:href="#c"/><linearGradient id="n" x1="120.16" y1="-772.29" x2="120.59" y2="-765.97" xlink:href="#c"/><linearGradient id="o" x1="113.39" y1="-717.79" x2="110.53" y2="-726.11" xlink:href="#c"/><linearGradient id="p" x1="120.16" y1="-720.99" x2="120.59" y2="-714.68" xlink:href="#c"/><linearGradient id="q" x1="113.48" y1="-666.67" x2="110.62" y2="-674.98" xlink:href="#c"/><linearGradient id="r" x1="120.26" y1="-669.87" x2="120.7" y2="-663.55" xlink:href="#c"/></defs><title>style--Artboard 1 copy 7</title><rect x="6.1" y="73.8" width="219.5" height="324.53" style="fill:url(#a)"/><polygon points="68.5 159.3 62.4 159.3 62.5 108.2 68.7 110.6 68.5 159.3" style="fill:#f4b223"/><rect x="44.1" y="156.2" width="143.3" height="6.2" transform="translate(-78.9 129.9) rotate(-45.4)" style="fill:#f4b223"/><rect x="44.2" y="207.3" width="143.3" height="6.2" transform="translate(-115.3 145.1) rotate(-45.4)" style="fill:#f4b223"/><rect x="44.2" y="309.6" width="143.3" height="6.2" transform="translate(-188.2 175.6) rotate(-45.4)" style="fill:#f4b223"/><rect x="44.1" y="258.5" width="143.3" height="6.2" transform="translate(-151.8 160.4) rotate(-45.4)" style="fill:#f4b223"/><rect x="163" y="312.7" width="6.2" height="51.1" style="fill:#f4b223"/><path d="M0,67.6V404.5H86.4V67.6ZM65.6,370.5a6.7,6.7,0,1,1,6.7-6.7A6.7,6.7,0,0,1,65.6,370.5Zm0-51.1a6.7,6.7,0,1,1,6.7-6.7A6.7,6.7,0,0,1,65.6,319.4Zm0-51.1a6.7,6.7,0,1,1,6.7-6.7A6.7,6.7,0,0,1,65.6,268.3Zm0-51.1a6.7,6.7,0,1,1,6.7-6.7A6.7,6.7,0,0,1,65.6,217.2Zm0-51.2a6.7,6.7,0,1,1,6.7-6.7A6.7,6.7,0,0,1,65.6,166Zm0-51.1a6.7,6.7,0,1,1,6.7-6.7A6.7,6.7,0,0,1,65.6,114.9Z" style="fill:#383642"/><path d="M65.6,352.6a11.3,11.3,0,1,0,11.3,11.3A11.4,11.4,0,0,0,65.6,352.6Zm0,17.9a6.7,6.7,0,1,1,6.7-6.7A6.7,6.7,0,0,1,65.6,370.5Z" style="fill:#636569"/><path d="M65.6,301.5a11.3,11.3,0,1,0,11.3,11.3A11.4,11.4,0,0,0,65.6,301.5Zm0,17.9a6.7,6.7,0,1,1,6.7-6.7A6.7,6.7,0,0,1,65.6,319.4Z" style="fill:#636569"/><path d="M65.6,250.3a11.3,11.3,0,1,0,11.3,11.3A11.4,11.4,0,0,0,65.6,250.3Zm0,18a6.7,6.7,0,1,1,6.7-6.7A6.7,6.7,0,0,1,65.6,268.3Z" style="fill:#636569"/><path d="M65.6,199.2a11.3,11.3,0,1,0,11.3,11.3A11.4,11.4,0,0,0,65.6,199.2Zm0,18a6.7,6.7,0,1,1,6.7-6.7A6.7,6.7,0,0,1,65.6,217.2Z" style="fill:#636569"/><path d="M65.6,148.1a11.3,11.3,0,1,0,11.3,11.3A11.4,11.4,0,0,0,65.6,148.1Zm0,17.9a6.7,6.7,0,1,1,6.7-6.7A6.7,6.7,0,0,1,65.6,166Z" style="fill:#636569"/><path d="M65.6,97a11.3,11.3,0,1,0,11.3,11.3A11.4,11.4,0,0,0,65.6,97Zm0,17.9a6.7,6.7,0,1,1,6.7-6.7A6.7,6.7,0,0,1,65.6,114.9Z" style="fill:#636569"/><path d="M231.8,404.5V67.6H145.4V404.5ZM166.1,101.6a6.7,6.7,0,1,1-6.7,6.7A6.7,6.7,0,0,1,166.1,101.6Zm0,51.1a6.7,6.7,0,1,1-6.7,6.7A6.7,6.7,0,0,1,166.1,152.7Zm0,51.1a6.7,6.7,0,1,1-6.7,6.7A6.7,6.7,0,0,1,166.1,203.8Zm0,51.1a6.7,6.7,0,1,1-6.7,6.7A6.7,6.7,0,0,1,166.1,254.9Zm0,51.2a6.7,6.7,0,1,1-6.7,6.7A6.7,6.7,0,0,1,166.1,306.1Zm0,51.1a6.7,6.7,0,1,1-6.7,6.7A6.7,6.7,0,0,1,166.1,357.2Z" style="fill:#383642"/><path d="M166.1,119.5a11.3,11.3,0,1,0-11.3-11.3A11.4,11.4,0,0,0,166.1,119.5Zm0-17.9a6.7,6.7,0,1,1-6.7,6.7A6.7,6.7,0,0,1,166.1,101.6Z" style="fill:#636569"/><path d="M166.1,170.7a11.3,11.3,0,1,0-11.3-11.3A11.4,11.4,0,0,0,166.1,170.7Zm0-18a6.7,6.7,0,1,1-6.7,6.7A6.7,6.7,0,0,1,166.1,152.7Z" style="fill:#636569"/><path d="M166.1,221.8a11.3,11.3,0,1,0-11.3-11.3A11.4,11.4,0,0,0,166.1,221.8Zm0-18a6.7,6.7,0,1,1-6.7,6.7A6.7,6.7,0,0,1,166.1,203.8Z" style="fill:#636569"/><path d="M166.1,272.9a11.3,11.3,0,1,0-11.3-11.3A11.4,11.4,0,0,0,166.1,272.9Zm0-18a6.7,6.7,0,1,1-6.7,6.7A6.7,6.7,0,0,1,166.1,254.9Z" style="fill:#636569"/><path d="M166.1,324a11.3,11.3,0,1,0-11.3-11.3A11.4,11.4,0,0,0,166.1,324Zm0-17.9a6.7,6.7,0,1,1-6.7,6.7A6.7,6.7,0,0,1,166.1,306.1Z" style="fill:#636569"/><path d="M166.1,375.1a11.3,11.3,0,1,0-11.3-11.3A11.4,11.4,0,0,0,166.1,375.1Zm0-17.9a6.7,6.7,0,1,1-6.7,6.7A6.7,6.7,0,0,1,166.1,357.2Z" style="fill:#636569"/><circle cx="166.3" cy="363.7" r="2.9" style="fill:#f4b223"/><circle cx="166.3" cy="312.7" r="2.9" style="fill:#f4b223"/><circle cx="166.2" cy="261.5" r="3" style="fill:#f4b223"/><circle cx="65.5" cy="363.7" r="2.9" style="fill:#f4b223"/><circle cx="65.4" cy="312.7" r="3" style="fill:#f4b223"/><circle cx="65.4" cy="261.5" r="3" style="fill:#f4b223"/><circle cx="166.2" cy="210.6" r="3" style="fill:#f4b223"/><circle cx="65.4" cy="210.5" r="3" style="fill:#f4b223"/><circle cx="166.2" cy="159.3" r="3" style="fill:#f4b223"/><circle cx="65.4" cy="159.3" r="3" style="fill:#f4b223"/><rect x="65.5" y="309.6" width="100.6" height="6.2" style="fill:#f4b223"/><rect x="65.5" y="258.5" width="100.6" height="6.2" style="fill:#f4b223"/><rect x="65.5" y="207.3" width="100.6" height="6.2" style="fill:#f4b223"/><rect x="65.5" y="156.2" width="100.6" height="6.2" style="fill:#f4b223"/><line x1="65.5" y1="363.7" x2="166.3" y2="363.7" style="fill:none;stroke-miterlimit:10;stroke-width:6.15210008621216px;stroke:url(#b)"/><path d="M197.9,17.4l-1.1-.9a10.8,10.8,0,0,1-1.2,3.9,3,3,0,0,1-2.4,1.6l.5.4c8.1,6.8,13.5,11.3,8.7,32.1-8.5,36.9-41.8,54.6-42.1,54.9l3.9,5.3c1.4-1.1,35.5-19.4,44.6-58.7C214.4,31.2,206.4,24.5,197.9,17.4Z" style="fill:#f4b223"/><path d="M61.1,40.1A148.7,148.7,0,0,1,68.8,23a3.8,3.8,0,0,1-1.8-.9c-.6-.5-.9-.9-1.7-.8a3,3,0,0,1-2.5-1.1,151.8,151.8,0,0,0-8,17.7C48.2,56,51.3,76.6,55,90.8a152.9,152.9,0,0,0,8.4,23.9,7.8,7.8,0,0,0,2.2.4,6.2,6.2,0,0,0,4.4-1.7C67.1,106.9,50.5,69.3,61.1,40.1Z" style="fill:#f4b223"/><polygon points="86.4 338.1 86.4 346.8 91.8 341.4 91.4 333 86.4 338.1" style="fill:url(#c)"/><polygon points="86.4 287 86.4 295.8 91.8 290.4 91.4 281.9 86.4 287" style="fill:url(#d)"/><polygon points="86.4 235.8 86.4 244.5 91.8 239.1 91.4 230.7 86.4 235.8" style="fill:url(#e)"/><polygon points="86.4 184.7 86.4 193.5 91.8 188 91.4 179.6 86.4 184.7" style="fill:url(#f)"/><polygon points="145.3 133.7 145.3 124.9 140 130.4 140.3 138.8 145.3 133.7" style="fill:url(#g)"/><polygon points="145.3 184.7 145.3 176 140 181.4 140.3 189.8 145.3 184.7" style="fill:url(#h)"/><polygon points="145.3 236 145.3 227.3 140 232.7 140.3 241.1 145.3 236" style="fill:url(#i)"/><polygon points="145.3 287.1 145.3 278.3 140 283.7 140.3 292.2 145.3 287.1" style="fill:url(#j)"/><polygon points="104.7 319.5 108.4 315.8 117 315.8 112.4 320.5 104.7 319.5" style="fill:url(#k)"/><polygon points="114.5 309.6 118 306 126.6 306 123.1 309.6 114.5 309.6" style="fill:url(#l)"/><polygon points="104.7 268.4 108.4 264.7 117 264.8 112.4 269.5 104.7 268.4" style="fill:url(#m)"/><polygon points="114.5 258.6 118 255 126.6 255 123.1 258.6 114.5 258.6" style="fill:url(#n)"/><polygon points="104.7 217.2 108.4 213.4 117 213.5 112.4 218.2 104.7 217.2" style="fill:url(#o)"/><polygon points="114.5 207.3 118 203.7 126.6 203.7 123.1 207.3 114.5 207.3" style="fill:url(#p)"/><polygon points="104.8 166 108.5 162.3 117.1 162.4 112.5 167 104.8 166" style="fill:url(#q)"/><polygon points="114.6 156.2 118.1 152.6 126.7 152.6 123.2 156.1 114.6 156.2" style="fill:url(#r)"/><path d="M78,4.1a4.1,4.1,0,0,0-5.7,1.2L60,23.8l6.9,4.6L79.2,9.8A4.2,4.2,0,0,0,78,4.1Z" style="fill:#aaa"/><path d="M182,4.4a4.2,4.2,0,0,1,5.8.2l15,16.3-6,5.6-15-16.3A4,4,0,0,1,182,4.4Z" style="fill:#aaa"/><path d="M68.2,22.1l-3.3-.7c-.1,0-.2,0-.2.1s0,.2.1.2l1,.2h0l.9,1.5-2.9-.6h-.2c0,.1,0,.2.1.2l3.3.7h.2v-.2l-.9-1.6,1.8.4h.1Z" style="fill:#5f5e6c"/><path d="M67,20.3h-.3l-.5-.8c-.1-.1,0-.2.1-.3s.2,0,.3.1l.5.8Z" style="fill:#f4b223"/><path d="M197.1,18.3l-1.5,3c0,.1,0,.2.1.2s.2,0,.2-.1l.4-.9h0L198,20l-1.3,2.6c0,.1,0,.2.1.2s.2,0,.2-.1l1.5-3v-.2h0c0-.1-.1-.1-.2-.1l-1.8.6.8-1.7v-.2h-.1C197.2,18.2,197.1,18.2,197.1,18.3Z" style="fill:#5f5e6c"/><path d="M195.1,19.1h0c.1.2,0,.3-.1.3l-.9.3h-.2c0-.1,0-.2.1-.2l.9-.3C194.9,19,195,19,195.1,19.1Z" style="fill:#f4b223"/></svg>