<svg xmlns="http://www.w3.org/2000/svg" xmlns:xlink="http://www.w3.org/1999/xlink" viewBox="0 0 231.8 404.5"><defs><linearGradient id="a" x1="2.89" y1="238.96" x2="231.15" y2="238.96" gradientUnits="userSpaceOnUse"><stop offset="0"/><stop offset="0.53" stop-color="#383642"/><stop offset="1"/></linearGradient><linearGradient id="b" x1="64.01" y1="236.1" x2="167.7" y2="236.1" gradientUnits="userSpaceOnUse"><stop offset="0" stop-color="#9352e8"/><stop offset="1" stop-color="#9352e8"/></linearGradient><linearGradient id="c" x1="64.11" y1="236.08" x2="167.7" y2="236.08" xlink:href="#b"/><linearGradient id="d" x1="64.01" y1="133.82" x2="167.7" y2="133.82" xlink:href="#b"/><linearGradient id="e" x1="64.11" y1="133.79" x2="167.7" y2="133.79" xlink:href="#b"/><linearGradient id="f" x1="64.01" y1="338.22" x2="167.7" y2="338.22" xlink:href="#b"/><linearGradient id="g" x1="64.11" y1="338.2" x2="167.7" y2="338.2" xlink:href="#b"/><linearGradient id="h" x1="65.5" y1="363.72" x2="166.31" y2="363.72" xlink:href="#b"/><linearGradient id="i" x1="64.01" y1="287.18" x2="167.7" y2="287.18" xlink:href="#b"/><linearGradient id="j" x1="64.11" y1="287.16" x2="167.7" y2="287.16" xlink:href="#b"/><linearGradient id="k" x1="64.01" y1="184.94" x2="167.7" y2="184.94" xlink:href="#b"/><linearGradient id="l" x1="64.11" y1="184.92" x2="167.7" y2="184.92" xlink:href="#b"/><linearGradient id="m" x1="158.95" y1="71.67" x2="189.97" y2="71.67" xlink:href="#b"/><linearGradient id="n" x1="47.59" y1="65.5" x2="67.64" y2="65.5" xlink:href="#b"/><linearGradient id="o" x1="117.14" y1="134.32" x2="124.28" y2="138.11" gradientUnits="userSpaceOnUse"><stop offset="0" stop-color="#383642"/><stop offset="1" stop-color="#383642" stop-opacity="0"/></linearGradient><linearGradient id="p" x1="-10793.09" y1="-4756.62" x2="-10785.95" y2="-4752.83" gradientTransform="translate(-10678.5 -4623.4) rotate(180)" xlink:href="#o"/><linearGradient id="q" x1="117.14" y1="185.34" x2="124.28" y2="189.12" xlink:href="#o"/><linearGradient id="r" x1="-10793.09" y1="-4807.63" x2="-10785.95" y2="-4803.85" gradientTransform="translate(-10678.5 -4623.4) rotate(180)" xlink:href="#o"/><linearGradient id="s" x1="117.14" y1="236.66" x2="124.28" y2="240.44" xlink:href="#o"/><linearGradient id="t" x1="-10793.09" y1="-4858.95" x2="-10785.95" y2="-4855.17" gradientTransform="translate(-10678.5 -4623.4) rotate(180)" xlink:href="#o"/><linearGradient id="u" x1="117.14" y1="287.75" x2="124.28" y2="291.53" xlink:href="#o"/><linearGradient id="v" x1="-10793.09" y1="-4910.04" x2="-10785.95" y2="-4906.26" gradientTransform="translate(-10678.5 -4623.4) rotate(180)" xlink:href="#o"/><linearGradient id="w" x1="117.14" y1="338.78" x2="124.28" y2="342.56" xlink:href="#o"/><linearGradient id="x" x1="-10793.09" y1="-4961.07" x2="-10785.95" y2="-4957.29" gradientTransform="translate(-10678.5 -4623.4) rotate(180)" xlink:href="#o"/><linearGradient id="y" x1="60.24" y1="30.69" x2="61.57" y2="30.69" xlink:href="#b"/><linearGradient id="z" x1="139.54" y1="5.78" x2="140.86" y2="5.78" gradientTransform="translate(299.8 34.6) rotate(180)" xlink:href="#b"/></defs><title>style--Artboard 1 copy 23</title><rect x="6.2" y="76.7" width="219.5" height="324.53" style="fill:url(#a)"/><line x1="166.3" y1="261.6" x2="65.4" y2="210.6" style="fill:none;stroke-miterlimit:10;stroke-width:6.1520928144455px;stroke:url(#b)"/><line x1="65.5" y1="261.6" x2="166.3" y2="210.6" style="fill:none;stroke-miterlimit:10;stroke-width:6.1520928144455px;stroke:url(#c)"/><line x1="166.3" y1="159.3" x2="65.4" y2="108.3" style="fill:none;stroke-miterlimit:10;stroke-width:6.1520928144455px;stroke:url(#d)"/><line x1="166.3" y1="108.3" x2="65.5" y2="159.3" style="fill:none;stroke-miterlimit:10;stroke-width:6.1520928144455px;stroke:url(#e)"/><line x1="166.3" y1="363.7" x2="65.4" y2="312.7" style="fill:none;stroke-miterlimit:10;stroke-width:6.1520928144455px;stroke:url(#f)"/><line x1="65.5" y1="363.7" x2="166.3" y2="312.7" style="fill:none;stroke-miterlimit:10;stroke-width:6.1520928144455px;stroke:url(#g)"/><path d="M0,67.7V404.5H86.4V67.7ZM65.7,370.5a6.6,6.6,0,0,1-6.7-6.6,6.7,6.7,0,1,1,13.3,0A6.6,6.6,0,0,1,65.7,370.5Zm0-51.1a6.7,6.7,0,1,1,6.6-6.6A6.7,6.7,0,0,1,65.7,319.4Zm0-51.1a6.7,6.7,0,1,1,6.6-6.7A6.7,6.7,0,0,1,65.7,268.3Zm0-51.1a6.7,6.7,0,0,1-6.7-6.7,6.7,6.7,0,1,1,6.7,6.7Zm0-51.1a6.7,6.7,0,1,1,6.6-6.7A6.7,6.7,0,0,1,65.7,166.1Zm0-51.2a6.6,6.6,0,0,1-6.7-6.6,6.7,6.7,0,1,1,13.3,0A6.6,6.6,0,0,1,65.7,114.9Z" style="fill:#383642"/><path d="M65.7,352.6a11.3,11.3,0,1,0,11.2,11.3A11.2,11.2,0,0,0,65.7,352.6Zm0,17.9a6.6,6.6,0,0,1-6.7-6.6,6.7,6.7,0,1,1,13.3,0A6.6,6.6,0,0,1,65.7,370.5Z" style="fill:#636569"/><path d="M65.7,301.5a11.3,11.3,0,1,0,11.2,11.3A11.2,11.2,0,0,0,65.7,301.5Zm0,17.9a6.7,6.7,0,1,1,6.6-6.6A6.7,6.7,0,0,1,65.7,319.4Z" style="fill:#636569"/><path d="M65.7,250.4a11.3,11.3,0,1,0,11.2,11.2A11.2,11.2,0,0,0,65.7,250.4Zm0,17.9a6.7,6.7,0,1,1,6.6-6.7A6.7,6.7,0,0,1,65.7,268.3Z" style="fill:#636569"/><path d="M65.7,199.2a11.3,11.3,0,1,0,11.2,11.3A11.3,11.3,0,0,0,65.7,199.2Zm0,18a6.7,6.7,0,0,1-6.7-6.7,6.7,6.7,0,1,1,6.7,6.7Z" style="fill:#636569"/><path d="M65.7,148.1a11.3,11.3,0,1,0,11.2,11.3A11.3,11.3,0,0,0,65.7,148.1Zm0,18a6.7,6.7,0,1,1,6.6-6.7A6.7,6.7,0,0,1,65.7,166.1Z" style="fill:#636569"/><path d="M65.7,97a11.3,11.3,0,1,0,11.2,11.3A11.2,11.2,0,0,0,65.7,97Zm0,17.9a6.6,6.6,0,0,1-6.7-6.6,6.7,6.7,0,1,1,13.3,0A6.6,6.6,0,0,1,65.7,114.9Z" style="fill:#636569"/><path d="M231.8,404.5V67.7H145.4V404.5ZM166.1,101.6a6.7,6.7,0,0,1,6.7,6.7,6.7,6.7,0,1,1-6.7-6.7Zm0,51.1a6.7,6.7,0,1,1-6.6,6.7A6.7,6.7,0,0,1,166.1,152.7Zm0,51.2a6.6,6.6,0,0,1,6.7,6.6,6.7,6.7,0,1,1-13.3,0A6.6,6.6,0,0,1,166.1,203.9Zm0,51.1a6.7,6.7,0,1,1-6.6,6.6A6.7,6.7,0,0,1,166.1,255Zm0,51.1a6.7,6.7,0,1,1-6.6,6.7A6.7,6.7,0,0,1,166.1,306.1Zm0,51.1a6.7,6.7,0,0,1,6.7,6.7,6.7,6.7,0,1,1-6.7-6.7Z" style="fill:#383642"/><path d="M166.1,119.6a11.3,11.3,0,1,0-11.2-11.3A11.3,11.3,0,0,0,166.1,119.6Zm0-18a6.7,6.7,0,0,1,6.7,6.7,6.7,6.7,0,1,1-6.7-6.7Z" style="fill:#636569"/><path d="M166.1,170.7a11.3,11.3,0,1,0-11.2-11.3A11.3,11.3,0,0,0,166.1,170.7Zm0-18a6.7,6.7,0,1,1-6.6,6.7A6.7,6.7,0,0,1,166.1,152.7Z" style="fill:#636569"/><path d="M166.1,221.8a11.3,11.3,0,1,0-11.2-11.3A11.3,11.3,0,0,0,166.1,221.8Zm0-17.9a6.6,6.6,0,0,1,6.7,6.6,6.7,6.7,0,1,1-13.3,0A6.6,6.6,0,0,1,166.1,203.9Z" style="fill:#636569"/><path d="M166.1,272.9a11.3,11.3,0,1,0-11.2-11.3A11.2,11.2,0,0,0,166.1,272.9Zm0-17.9a6.7,6.7,0,1,1-6.6,6.6A6.7,6.7,0,0,1,166.1,255Z" style="fill:#636569"/><path d="M166.1,324a11.3,11.3,0,1,0-11.2-11.2A11.2,11.2,0,0,0,166.1,324Zm0-17.9a6.7,6.7,0,1,1-6.6,6.7A6.7,6.7,0,0,1,166.1,306.1Z" style="fill:#636569"/><path d="M166.1,375.2a11.3,11.3,0,1,0-11.2-11.3A11.3,11.3,0,0,0,166.1,375.2Zm0-18a6.7,6.7,0,0,1,6.7,6.7,6.7,6.7,0,1,1-6.7-6.7Z" style="fill:#636569"/><circle cx="166.3" cy="363.7" r="2.9" style="fill:#9352e8"/><circle cx="166.3" cy="312.7" r="2.9" style="fill:#9352e8"/><circle cx="166.2" cy="261.6" r="3" style="fill:#9352e8"/><circle cx="65.5" cy="363.7" r="2.9" style="fill:#9352e8"/><circle cx="65.4" cy="312.7" r="3" style="fill:#9352e8"/><circle cx="166.3" cy="159.4" r="2.9" style="fill:#9352e8"/><circle cx="65.4" cy="159.4" r="3" style="fill:#9352e8"/><circle cx="65.4" cy="261.5" r="3" style="fill:#9352e8"/><circle cx="166.2" cy="210.6" r="3" style="fill:#9352e8"/><circle cx="65.4" cy="210.6" r="3" style="fill:#9352e8"/><line x1="65.5" y1="363.7" x2="166.3" y2="363.7" style="fill:none;stroke-miterlimit:10;stroke-width:6.1520928144455px;stroke:url(#h)"/><line x1="166.3" y1="312.7" x2="65.4" y2="261.7" style="fill:none;stroke-miterlimit:10;stroke-width:6.1520928144455px;stroke:url(#i)"/><line x1="65.5" y1="312.7" x2="166.3" y2="261.6" style="fill:none;stroke-miterlimit:10;stroke-width:6.1520928144455px;stroke:url(#j)"/><line x1="166.3" y1="210.4" x2="65.4" y2="159.4" style="fill:none;stroke-miterlimit:10;stroke-width:6.1520928144455px;stroke:url(#k)"/><line x1="65.5" y1="210.4" x2="166.3" y2="159.4" style="fill:none;stroke-miterlimit:10;stroke-width:6.1520928144455px;stroke:url(#l)"/><path d="M161.9,33c5.7,24.4,50.5,51.9,4.4,75.3" style="fill:none;stroke-miterlimit:10;stroke-width:6.1520928144455px;stroke:url(#m)"/><path d="M58.2,21.4s3.6,12.4-.8,30c-3,12.1-17.3,29.9,8,56.9" style="fill:none;stroke-miterlimit:10;stroke-width:6.1520928144455px;stroke:url(#n)"/><path d="M156.7,9.2a4.1,4.1,0,0,0-3.2,4.9l4.6,21.8,8-1.7-4.5-21.8A4.3,4.3,0,0,0,156.7,9.2Z" style="fill:#aaa"/><path d="M57.1,8a4,4,0,0,1,4.5,3.5l2.7,22-8.2,1-2.6-22A4,4,0,0,1,57.1,8Z" style="fill:#aaa"/><polygon points="115.8 137.3 122.6 133.8 129.8 137.4 124.4 141.6 115.8 137.3" style="fill:url(#o)"/><polygon points="115.9 130.3 109.1 133.8 101.9 130.2 107.3 126 115.9 130.3" style="fill:url(#p)"/><polygon points="115.8 188.3 122.6 184.8 129.8 188.4 124.4 192.6 115.8 188.3" style="fill:url(#q)"/><polygon points="115.9 181.3 109.1 184.8 101.9 181.2 107.3 177 115.9 181.3" style="fill:url(#r)"/><polygon points="115.8 239.6 122.6 236.1 129.8 239.8 124.4 244 115.8 239.6" style="fill:url(#s)"/><polygon points="115.9 232.7 109.1 236.1 101.9 232.5 107.3 228.3 115.9 232.7" style="fill:url(#t)"/><polygon points="115.8 290.7 122.6 287.2 129.8 290.8 124.4 295.1 115.8 290.7" style="fill:url(#u)"/><polygon points="115.9 283.8 109.1 287.2 101.9 283.6 107.3 279.4 115.9 283.8" style="fill:url(#v)"/><polygon points="115.8 341.7 122.6 338.3 129.8 341.9 124.4 346.1 115.8 341.7" style="fill:url(#w)"/><polygon points="115.9 334.8 109.1 338.3 101.9 334.6 107.3 330.4 115.9 334.8" style="fill:url(#x)"/><path d="M58.1,30.3l2.8-2a.2.2,0,0,0,0-.3c0-.1-.2-.1-.3,0l-.8.6h0l-1.7-.3,2.3-1.7a.4.4,0,0,0,.1-.3.2.2,0,0,0-.3,0l-2.7,1.9c0,.1,0,.1-.1.2h0l.2.2,1.8.4-1.5,1.1c-.1.1-.1.1-.1.2h.3Z" style="fill:#5f5e6c"/><path d="M60.2,30.6h0c.1-.2.1-.2.3-.2l.9.2a.2.2,0,0,1,.2.2c-.1.1-.1.2-.3.2l-.9-.2Z" style="fill:url(#y)"/><path d="M162.3,29.2l-2.7,2a.2.2,0,0,0,0,.3c0,.1.2.1.2,0l.8-.6h0l1.8.3L160,32.9c0,.1-.1.2,0,.3h.3l2.6-1.9v-.2h0v-.2l-1.8-.3,1.5-1.2c.1-.1.1-.1.1-.2h-.4Z" style="fill:#5f5e6c"/><path d="M160.2,29h0c0,.1-.1.2-.2.1h-.9c-.1-.1-.2-.1-.2-.3s.1-.2.3-.2l.9.2Z" style="fill:url(#z)"/></svg>