<svg xmlns="http://www.w3.org/2000/svg" xmlns:xlink="http://www.w3.org/1999/xlink" viewBox="0 0 231.8 404.5"><defs><linearGradient id="a" x1="2.9" y1="235.44" x2="231.16" y2="235.44" gradientUnits="userSpaceOnUse"><stop offset="0"/><stop offset="0.53" stop-color="#383642"/><stop offset="1"/></linearGradient><linearGradient id="b" x1="64.11" y1="287.2" x2="167.7" y2="287.2" gradientUnits="userSpaceOnUse"><stop offset="0" stop-color="#40a2d3"/><stop offset="1" stop-color="#40a2d3"/></linearGradient><linearGradient id="c" x1="64.11" y1="287.2" x2="167.54" y2="287.2" xlink:href="#b"/><linearGradient id="d" x1="65.5" y1="363.72" x2="166.31" y2="363.72" xlink:href="#b"/><linearGradient id="e" x1="62.43" y1="338.24" x2="68.58" y2="338.24" xlink:href="#b"/><linearGradient id="f" x1="163.07" y1="338.24" x2="169.22" y2="338.24" xlink:href="#b"/><linearGradient id="g" x1="117.18" y1="287.73" x2="124.32" y2="291.51" gradientUnits="userSpaceOnUse"><stop offset="0" stop-color="#383642"/><stop offset="1" stop-color="#383642" stop-opacity="0"/></linearGradient><linearGradient id="h" x1="-10313.2" y1="-4011.82" x2="-10306.05" y2="-4008.04" gradientTransform="translate(-10198.6 -3725.1) rotate(180)" xlink:href="#g"/><linearGradient id="i" x1="98.71" y1="-24.69" x2="139.38" y2="-24.69" gradientTransform="translate(38.6 142.5) rotate(2.4)" xlink:href="#b"/><linearGradient id="j" x1="38.27" y1="171.26" x2="106.44" y2="171.26" gradientTransform="translate(-2.9 -35.8) rotate(0.2)" xlink:href="#b"/><linearGradient id="k" x1="-123.01" y1="325.42" x2="-122.41" y2="325.42" gradientTransform="matrix(1, 0.01, -0.01, 1, 184.7, -261.88)" xlink:href="#b"/><linearGradient id="l" x1="62.43" y1="236.08" x2="68.58" y2="236.08" xlink:href="#b"/><linearGradient id="m" x1="163.07" y1="236.08" x2="169.22" y2="236.08" xlink:href="#b"/><linearGradient id="n" x1="-94.11" y1="430.44" x2="-93.51" y2="430.44" gradientTransform="translate(601.6 144.7) rotate(90.5)" xlink:href="#b"/></defs><title>style--Artboard 1 copy 18</title><rect x="6.2" y="73.2" width="219.5" height="324.53" style="fill:url(#a)"/><line x1="65.5" y1="312.8" x2="166.3" y2="261.6" style="fill:none;stroke-miterlimit:10;stroke-width:6.1520928144455px;stroke:url(#b)"/><line x1="65.5" y1="261.6" x2="166.1" y2="312.8" style="fill:none;stroke-miterlimit:10;stroke-width:6.1520928144455px;stroke:url(#c)"/><line x1="65.5" y1="363.7" x2="166.3" y2="363.7" style="fill:none;stroke-miterlimit:10;stroke-width:6.1520928144455px;stroke:url(#d)"/><path d="M0,67.7V404.5H86.4V67.7ZM65.7,370.5a6.6,6.6,0,0,1-6.7-6.6,6.7,6.7,0,1,1,13.3,0A6.6,6.6,0,0,1,65.7,370.5Zm0-51.1a6.7,6.7,0,1,1,6.6-6.6A6.7,6.7,0,0,1,65.7,319.4Zm0-51.1a6.7,6.7,0,1,1,6.6-6.7A6.7,6.7,0,0,1,65.7,268.3Zm0-51.1a6.7,6.7,0,0,1-6.7-6.7,6.7,6.7,0,1,1,6.7,6.7Zm0-51.1a6.7,6.7,0,1,1,6.6-6.7A6.7,6.7,0,0,1,65.7,166.1Zm0-51.2a6.6,6.6,0,0,1-6.7-6.6,6.7,6.7,0,1,1,13.3,0A6.6,6.6,0,0,1,65.7,114.9Z" style="fill:#383642"/><path d="M65.7,352.6a11.3,11.3,0,1,0,11.2,11.3A11.2,11.2,0,0,0,65.7,352.6Zm0,17.9a6.6,6.6,0,0,1-6.7-6.6,6.7,6.7,0,1,1,13.3,0A6.6,6.6,0,0,1,65.7,370.5Z" style="fill:#636569"/><path d="M65.7,301.5a11.3,11.3,0,1,0,11.2,11.3A11.2,11.2,0,0,0,65.7,301.5Zm0,17.9a6.7,6.7,0,1,1,6.6-6.6A6.7,6.7,0,0,1,65.7,319.4Z" style="fill:#636569"/><path d="M65.7,250.4a11.3,11.3,0,1,0,11.2,11.2A11.2,11.2,0,0,0,65.7,250.4Zm0,17.9a6.7,6.7,0,1,1,6.6-6.7A6.7,6.7,0,0,1,65.7,268.3Z" style="fill:#636569"/><path d="M65.7,148.1a11.3,11.3,0,1,0,11.2,11.3A11.3,11.3,0,0,0,65.7,148.1Zm0,18a6.7,6.7,0,1,1,6.6-6.7A6.7,6.7,0,0,1,65.7,166.1Z" style="fill:#636569"/><path d="M65.7,97a11.3,11.3,0,1,0,11.2,11.3A11.2,11.2,0,0,0,65.7,97Zm0,17.9a6.6,6.6,0,0,1-6.7-6.6,6.7,6.7,0,1,1,13.3,0A6.6,6.6,0,0,1,65.7,114.9Z" style="fill:#636569"/><path d="M231.8,404.5V67.7H145.4V404.5ZM166.1,101.6a6.7,6.7,0,0,1,6.7,6.7,6.7,6.7,0,1,1-6.7-6.7Zm0,51.1a6.7,6.7,0,1,1-6.6,6.7A6.7,6.7,0,0,1,166.1,152.7Zm0,51.2a6.6,6.6,0,0,1,6.7,6.6,6.7,6.7,0,1,1-13.3,0A6.6,6.6,0,0,1,166.1,203.9Zm0,51.1a6.7,6.7,0,1,1-6.6,6.6A6.7,6.7,0,0,1,166.1,255Zm0,51.1a6.7,6.7,0,1,1-6.6,6.7A6.7,6.7,0,0,1,166.1,306.1Zm0,51.1a6.7,6.7,0,0,1,6.7,6.7,6.7,6.7,0,1,1-6.7-6.7Z" style="fill:#383642"/><path d="M166.1,119.6a11.3,11.3,0,1,0-11.2-11.3A11.3,11.3,0,0,0,166.1,119.6Zm0-18a6.7,6.7,0,0,1,6.7,6.7,6.7,6.7,0,1,1-6.7-6.7Z" style="fill:#636569"/><path d="M166.1,170.7a11.3,11.3,0,1,0-11.2-11.3A11.3,11.3,0,0,0,166.1,170.7Zm0-18a6.7,6.7,0,1,1-6.6,6.7A6.7,6.7,0,0,1,166.1,152.7Z" style="fill:#636569"/><path d="M166.1,272.9a11.3,11.3,0,1,0-11.2-11.3A11.2,11.2,0,0,0,166.1,272.9Zm0-17.9a6.7,6.7,0,1,1-6.6,6.6A6.7,6.7,0,0,1,166.1,255Z" style="fill:#636569"/><path d="M166.1,324a11.3,11.3,0,1,0-11.2-11.2A11.2,11.2,0,0,0,166.1,324Zm0-17.9a6.7,6.7,0,1,1-6.6,6.7A6.7,6.7,0,0,1,166.1,306.1Z" style="fill:#636569"/><path d="M166.1,375.2a11.3,11.3,0,1,0-11.2-11.3A11.3,11.3,0,0,0,166.1,375.2Zm0-18a6.7,6.7,0,0,1,6.7,6.7,6.7,6.7,0,1,1-6.7-6.7Z" style="fill:#636569"/><circle cx="166.3" cy="363.7" r="2.9" style="fill:#40a2d3"/><circle cx="65.5" cy="363.7" r="2.9" style="fill:#40a2d3"/><line x1="65.5" y1="363.7" x2="65.5" y2="312.8" style="fill:none;stroke-miterlimit:10;stroke-width:6.1520928144455px;stroke:url(#e)"/><line x1="166.1" y1="363.7" x2="166.1" y2="312.8" style="fill:none;stroke-miterlimit:10;stroke-width:6.1520928144455px;stroke:url(#f)"/><circle cx="65.7" cy="312.7" r="3" style="fill:#40a2d3"/><circle cx="166" cy="312.7" r="3" style="fill:#40a2d3"/><circle cx="65.7" cy="262.2" r="3" style="fill:#40a2d3"/><circle cx="166" cy="262.2" r="3" style="fill:#40a2d3"/><circle cx="65.7" cy="210.5" r="3" style="fill:#40a2d3"/><circle cx="166" cy="210.5" r="3" style="fill:#40a2d3"/><polygon points="115.9 290.7 122.7 287.2 129.9 290.8 124.4 295 115.9 290.7" style="fill:url(#g)"/><polygon points="115.9 283.7 109.1 287.2 101.9 283.6 107.3 279.4 115.9 283.7" style="fill:url(#h)"/><path d="M164.7,210.2s-51.4-32.6-7.3-89.1S161,35.8,161,35.8" style="fill:none;stroke-miterlimit:10;stroke-width:6.1520928144455px;stroke:url(#i)"/><path d="M156.8,29a4.1,4.1,0,0,1,5.8.7l13.6,17.4-6.4,5.1L156.1,34.7A4.1,4.1,0,0,1,156.8,29Z" style="fill:#aaa"/><path d="M65.2,210.9s73.6-14.8,5.1-61.1-7.5-89.7-7.5-89.7" style="fill:none;stroke-miterlimit:10;stroke-width:6.1520928144455px;stroke:url(#j)"/><path d="M75.5,51.5a4.3,4.3,0,0,0-5.8-.9l-18,13.2,4.9,6.6,18-13.1A4.2,4.2,0,0,0,75.5,51.5Z" style="fill:#aaa"/><path d="M59.7,65.1l-2.9-1.8h-.3a.4.4,0,0,0,.1.3l.9.5h0l.4,1.7-2.5-1.5c-.1-.1-.2,0-.3.1s0,.2.1.2L58,66.4h.3v-.2L58,64.5l1.7.9h.2C59.8,65.3,59.8,65.2,59.7,65.1Z" style="fill:#5f5e6c"/><path d="M59.2,63.1h0c-.2,0-.3-.1-.3-.2l-.2-.9c0-.1,0-.2.2-.3a.2.2,0,0,1,.2.2l.2.9Z" style="fill:url(#k)"/><polygon points="73.3 197.9 74.8 214.9 86.4 210.5 86.4 193 73.3 197.9" style="fill:#383642"/><path d="M65.7,199.2a11.3,11.3,0,1,0,11.2,11.3A11.3,11.3,0,0,0,65.7,199.2Zm0,18a6.7,6.7,0,0,1-6.7-6.7,6.7,6.7,0,1,1,6.7,6.7Z" style="fill:#636569"/><line x1="65.5" y1="261.6" x2="65.5" y2="210.6" style="fill:none;stroke-miterlimit:10;stroke-width:6.1520928144455px;stroke:url(#l)"/><polygon points="145.4 172.3 145.4 207.5 157.1 210.9 164 199.4 145.4 172.3" style="fill:#383642"/><path d="M166.1,221.8a11.3,11.3,0,1,0-11.2-11.3A11.3,11.3,0,0,0,166.1,221.8Zm0-17.9a6.6,6.6,0,0,1,6.7,6.6,6.7,6.7,0,1,1-13.3,0A6.6,6.6,0,0,1,166.1,203.9Z" style="fill:#636569"/><line x1="166.1" y1="261.6" x2="166.1" y2="210.6" style="fill:none;stroke-miterlimit:10;stroke-width:6.1520928144455px;stroke:url(#m)"/><path d="M169.2,47.9,171,45a.2.2,0,0,0-.1-.3c0-.1-.2,0-.2.1l-.5.8h0l-1.8.4,1.6-2.4c0-.1,0-.3-.1-.3s-.2,0-.3.1l-1.7,2.8v.2h.2l1.8-.3-1,1.6V48h.1C169.1,48,169.2,48,169.2,47.9Z" style="fill:#5f5e6c"/><path d="M171.3,47.3h0a.4.4,0,0,1,.1-.3h.9c.2-.1.3,0,.3.1s0,.2-.1.3l-.9.2Z" style="fill:url(#n)"/></svg>