<svg xmlns="http://www.w3.org/2000/svg" xmlns:xlink="http://www.w3.org/1999/xlink" viewBox="0 0 231.8 404.5"><defs><linearGradient id="a" x1="2.9" y1="234.22" x2="231.16" y2="234.22" gradientUnits="userSpaceOnUse"><stop offset="0"/><stop offset="0.53" stop-color="#383642"/><stop offset="1"/></linearGradient><linearGradient id="b" x1="-3245.31" y1="3981.48" x2="-3187.02" y2="3981.48" gradientTransform="translate(-403.6 -4816.9) rotate(-45)" gradientUnits="userSpaceOnUse"><stop offset="0" stop-color="#ff7c24"/><stop offset="1" stop-color="#ff7c24"/></linearGradient><linearGradient id="c" x1="-3281.35" y1="4017.51" x2="-3223.06" y2="4017.51" xlink:href="#b"/><linearGradient id="d" x1="65.5" y1="363.72" x2="166.31" y2="363.72" gradientTransform="matrix(1, 0, 0, 1, 0, 0)" xlink:href="#b"/><linearGradient id="e" x1="-11880.73" y1="-4654.21" x2="-11822.44" y2="-4654.21" gradientTransform="matrix(-0.71, -0.71, -0.71, 0.71, -11577.07, -4816.9)" xlink:href="#b"/><linearGradient id="f" x1="-11916.76" y1="-4618.18" x2="-11858.47" y2="-4618.18" gradientTransform="matrix(-0.71, -0.71, -0.71, 0.71, -11577.07, -4816.9)" xlink:href="#b"/><linearGradient id="g" x1="107.5" y1="298.09" x2="167.71" y2="298.09" gradientTransform="matrix(1, 0, 0, 1, 0, 0)" xlink:href="#b"/><linearGradient id="h" x1="107.5" y1="349.04" x2="167.71" y2="349.04" gradientTransform="matrix(1, 0, 0, 1, 0, 0)" xlink:href="#b"/><linearGradient id="i" x1="118.89" y1="336.45" x2="123.53" y2="342.03" gradientUnits="userSpaceOnUse"><stop offset="0" stop-color="#383642"/><stop offset="1" stop-color="#383642" stop-opacity="0"/></linearGradient><linearGradient id="j" x1="-12105.02" y1="348.85" x2="-12044.81" y2="348.85" gradientTransform="matrix(-1, 0, 0, 1, -11980.7, 0)" xlink:href="#b"/><linearGradient id="k" x1="119.76" y1="339.27" x2="118.13" y2="330.63" xlink:href="#i"/><linearGradient id="l" x1="-12186.98" y1="-4197.4" x2="-12184.51" y2="-4206.97" gradientTransform="translate(-12063.7 -3871.6) rotate(180)" xlink:href="#i"/><linearGradient id="m" x1="117.21" y1="331.89" x2="108.16" y2="328.68" xlink:href="#i"/><linearGradient id="n" x1="118.89" y1="285.49" x2="123.53" y2="291.08" xlink:href="#i"/><linearGradient id="o" x1="-12105.02" y1="297.89" x2="-12044.81" y2="297.89" gradientTransform="matrix(-1, 0, 0, 1, -11980.7, 0)" xlink:href="#b"/><linearGradient id="p" x1="119.76" y1="288.31" x2="118.13" y2="279.68" xlink:href="#i"/><linearGradient id="q" x1="-12186.98" y1="-4146.45" x2="-12184.51" y2="-4156.01" gradientTransform="translate(-12063.7 -3871.6) rotate(180)" xlink:href="#i"/><linearGradient id="r" x1="117.21" y1="280.93" x2="108.16" y2="277.73" xlink:href="#i"/><linearGradient id="s" x1="129.34" y1="354.62" x2="167.71" y2="354.62" gradientTransform="matrix(1, 0, 0, 1, 0, 0)" xlink:href="#b"/><linearGradient id="t" x1="129.34" y1="303.67" x2="167.71" y2="303.67" gradientTransform="matrix(1, 0, 0, 1, 0, 0)" xlink:href="#b"/><linearGradient id="u" x1="163.46" y1="197.41" x2="202.05" y2="197.41" gradientTransform="matrix(1, 0, 0, 1, 0, 0)" xlink:href="#b"/><linearGradient id="v" x1="105.27" y1="53.19" x2="106.62" y2="53.19" gradientTransform="translate(170.8 11.9) rotate(51.7)" xlink:href="#b"/><linearGradient id="w" x1="44.35" y1="192.72" x2="76.55" y2="192.72" gradientTransform="matrix(1, 0, 0, 1, 0, 0)" xlink:href="#b"/><linearGradient id="x" x1="-24.57" y1="48.82" x2="-23.23" y2="48.82" gradientTransform="translate(84.5 69.4) rotate(-5.8)" xlink:href="#b"/></defs><title>style--Artboard 1 copy 14</title><g style="isolation:isolate"><rect x="6.2" y="72" width="219.5" height="324.53" style="fill:url(#a)"/><line x1="166.1" y1="261.8" x2="108.9" y2="283.4" style="fill:none;stroke-miterlimit:10;stroke-width:6.1520928144455px;stroke:url(#b)"/><line x1="166.1" y1="312.8" x2="108.9" y2="334.4" style="fill:none;stroke-miterlimit:10;stroke-width:6.1520928144455px;stroke:url(#c)"/><line x1="65.5" y1="363.7" x2="166.3" y2="363.7" style="fill:none;stroke-miterlimit:10;stroke-width:6.1520928144455px;stroke:url(#d)"/><line x1="65.7" y1="261.6" x2="122.9" y2="283.2" style="fill:none;stroke-miterlimit:10;stroke-width:6.1520928144455px;stroke:url(#e)"/><line x1="65.7" y1="312.6" x2="122.9" y2="334.2" style="fill:none;stroke-miterlimit:10;stroke-width:6.1520928144455px;stroke:url(#f)"/><line x1="166.3" y1="312.8" x2="108.9" y2="283.4" style="fill:none;stroke-miterlimit:10;stroke-width:6.1520928144455px;stroke:url(#g)"/><circle cx="122.9" cy="283.2" r="3" style="fill:#ff7c24"/><circle cx="108.9" cy="283.4" r="3" style="fill:#ff7c24"/><line x1="166.3" y1="363.7" x2="108.9" y2="334.4" style="fill:none;stroke-miterlimit:10;stroke-width:6.1520928144455px;stroke:url(#h)"/><path d="M0,67.7V404.5H86.4V67.7ZM65.7,370.5a6.6,6.6,0,0,1-6.7-6.6,6.7,6.7,0,1,1,13.3,0A6.6,6.6,0,0,1,65.7,370.5Zm0-51.1a6.7,6.7,0,1,1,6.6-6.6A6.7,6.7,0,0,1,65.7,319.4Zm0-51.1a6.7,6.7,0,1,1,6.6-6.7A6.7,6.7,0,0,1,65.7,268.3Zm0-51.1a6.7,6.7,0,0,1-6.7-6.7,6.7,6.7,0,1,1,6.7,6.7Zm0-51.1a6.7,6.7,0,1,1,6.6-6.7A6.7,6.7,0,0,1,65.7,166.1Zm0-51.2a6.6,6.6,0,0,1-6.7-6.6,6.7,6.7,0,1,1,13.3,0A6.6,6.6,0,0,1,65.7,114.9Z" style="fill:#383642"/><path d="M65.7,352.6a11.3,11.3,0,1,0,11.2,11.3A11.2,11.2,0,0,0,65.7,352.6Zm0,17.9a6.6,6.6,0,0,1-6.7-6.6,6.7,6.7,0,1,1,13.3,0A6.6,6.6,0,0,1,65.7,370.5Z" style="fill:#636569"/><path d="M65.7,301.5a11.3,11.3,0,1,0,11.2,11.3A11.2,11.2,0,0,0,65.7,301.5Zm0,17.9a6.7,6.7,0,1,1,6.6-6.6A6.7,6.7,0,0,1,65.7,319.4Z" style="fill:#636569"/><path d="M65.7,250.4a11.3,11.3,0,1,0,11.2,11.2A11.2,11.2,0,0,0,65.7,250.4Zm0,17.9a6.7,6.7,0,1,1,6.6-6.7A6.7,6.7,0,0,1,65.7,268.3Z" style="fill:#636569"/><path d="M65.7,199.2a11.3,11.3,0,1,0,11.2,11.3A11.3,11.3,0,0,0,65.7,199.2Zm0,18a6.7,6.7,0,0,1-6.7-6.7,6.7,6.7,0,1,1,6.7,6.7Z" style="fill:#636569"/><path d="M65.7,148.1a11.3,11.3,0,1,0,11.2,11.3A11.3,11.3,0,0,0,65.7,148.1Zm0,18a6.7,6.7,0,1,1,6.6-6.7A6.7,6.7,0,0,1,65.7,166.1Z" style="fill:#636569"/><path d="M65.7,97a11.3,11.3,0,1,0,11.2,11.3A11.2,11.2,0,0,0,65.7,97Zm0,17.9a6.6,6.6,0,0,1-6.7-6.6,6.7,6.7,0,1,1,13.3,0A6.6,6.6,0,0,1,65.7,114.9Z" style="fill:#636569"/><path d="M231.8,404.5V67.7H145.4V404.5ZM166.1,101.6a6.7,6.7,0,0,1,6.7,6.7,6.7,6.7,0,1,1-6.7-6.7Zm0,51.1a6.7,6.7,0,1,1-6.6,6.7A6.7,6.7,0,0,1,166.1,152.7Zm0,51.2a6.6,6.6,0,0,1,6.7,6.6,6.7,6.7,0,1,1-13.3,0A6.6,6.6,0,0,1,166.1,203.9Zm0,51.1a6.7,6.7,0,1,1-6.6,6.6A6.7,6.7,0,0,1,166.1,255Zm0,51.1a6.7,6.7,0,1,1-6.6,6.7A6.7,6.7,0,0,1,166.1,306.1Zm0,51.1a6.7,6.7,0,0,1,6.7,6.7,6.7,6.7,0,1,1-6.7-6.7Z" style="fill:#383642"/><path d="M166.1,119.6a11.3,11.3,0,1,0-11.2-11.3A11.3,11.3,0,0,0,166.1,119.6Zm0-18a6.7,6.7,0,0,1,6.7,6.7,6.7,6.7,0,1,1-6.7-6.7Z" style="fill:#636569"/><path d="M166.1,170.7a11.3,11.3,0,1,0-11.2-11.3A11.3,11.3,0,0,0,166.1,170.7Zm0-18a6.7,6.7,0,1,1-6.6,6.7A6.7,6.7,0,0,1,166.1,152.7Z" style="fill:#636569"/><path d="M166.1,221.8a11.3,11.3,0,1,0-11.2-11.3A11.3,11.3,0,0,0,166.1,221.8Zm0-17.9a6.6,6.6,0,0,1,6.7,6.6,6.7,6.7,0,1,1-13.3,0A6.6,6.6,0,0,1,166.1,203.9Z" style="fill:#636569"/><path d="M166.1,272.9a11.3,11.3,0,1,0-11.2-11.3A11.2,11.2,0,0,0,166.1,272.9Zm0-17.9a6.7,6.7,0,1,1-6.6,6.6A6.7,6.7,0,0,1,166.1,255Z" style="fill:#636569"/><path d="M166.1,324a11.3,11.3,0,1,0-11.2-11.2A11.2,11.2,0,0,0,166.1,324Zm0-17.9a6.7,6.7,0,1,1-6.6,6.7A6.7,6.7,0,0,1,166.1,306.1Z" style="fill:#636569"/><path d="M166.1,375.2a11.3,11.3,0,1,0-11.2-11.3A11.3,11.3,0,0,0,166.1,375.2Zm0-18a6.7,6.7,0,0,1,6.7,6.7,6.7,6.7,0,1,1-6.7-6.7Z" style="fill:#636569"/><polygon points="122.5 337.9 115.7 341.3 123.1 345.1 130.7 341.9 122.5 337.9" style="mix-blend-mode:multiply;fill:url(#i)"/><circle cx="166.3" cy="363.7" r="3" style="fill:#ff7c24"/><circle cx="65.5" cy="363.7" r="3" style="fill:#ff7c24"/><circle cx="166.1" cy="312.8" r="3" style="fill:#ff7c24"/><circle cx="65.6" cy="312.5" r="3" style="fill:#ff7c24"/><line x1="65.5" y1="363.5" x2="122.9" y2="334.2" style="fill:none;stroke-miterlimit:10;stroke-width:6.1520928144455px;stroke:url(#j)"/><circle cx="122.9" cy="334.2" r="3" style="fill:#ff7c24"/><circle cx="108.9" cy="334.4" r="3" style="fill:#ff7c24"/><path d="M116.2,328.3,107,332l-.2.2c-.6.2-.8,1.1-.9,1.6a3.3,3.3,0,0,0,.1,1.7l.3.5a2.8,2.8,0,0,0,.9,1l1.6.9,7.4-3.3,14.8-5.2Z" style="mix-blend-mode:multiply;fill:url(#k)"/><path d="M126,333.9a4.3,4.3,0,0,0-1.1-2.1h-.2l-8.8,2.8,6.9,3.4v-.2c1.1-.7,2.5-1.1,3-2.4a6.9,6.9,0,0,0,.2-1.3A.1.1,0,0,1,126,333.9Z" style="mix-blend-mode:multiply;fill:url(#l)"/><polygon points="106.8 324.8 99.3 328.6 107.3 331.8 116.2 328.3 106.8 324.8" style="mix-blend-mode:multiply;fill:url(#m)"/><polygon points="122.5 286.9 115.7 290.4 123.1 294.1 130.7 291 122.5 286.9" style="mix-blend-mode:multiply;fill:url(#n)"/><circle cx="166.3" cy="312.8" r="3" style="fill:#ff7c24"/><circle cx="166.1" cy="261.8" r="3" style="fill:#ff7c24"/><circle cx="65.4" cy="261.5" r="3" style="fill:#ff7c24"/><line x1="65.5" y1="312.6" x2="122.9" y2="283.2" style="fill:none;stroke-miterlimit:10;stroke-width:6.1520928144455px;stroke:url(#o)"/><path d="M116.2,277.4,107,281c-.1.1-.1.2-.2.2a2.2,2.2,0,0,0-.9,1.7,2.9,2.9,0,0,0,.1,1.6l.3.5a2.2,2.2,0,0,0,.9,1l1.6,1,7.4-3.4,14.8-5.1Z" style="mix-blend-mode:multiply;fill:url(#p)"/><path d="M126,282.9a3.6,3.6,0,0,0-1.1-2h-.2l-8.8,2.8,6.9,3.4h.1c1.1-.7,2.5-1.2,3-2.5a5,5,0,0,0,.2-1.2C126,283,126,283,126,282.9Z" style="mix-blend-mode:multiply;fill:url(#q)"/><polygon points="106.8 273.9 99.3 277.6 107.3 280.8 116.2 277.4 106.8 273.9" style="mix-blend-mode:multiply;fill:url(#r)"/><line x1="166.3" y1="363.7" x2="130.7" y2="345.5" style="fill:none;stroke-miterlimit:10;stroke-width:6.1520928144455px;stroke:url(#s)"/><line x1="166.3" y1="312.8" x2="130.7" y2="294.6" style="fill:none;stroke-miterlimit:10;stroke-width:6.1520928144455px;stroke:url(#t)"/><path d="M164.7,262.4s42.7-19.5,32.8-66.9-3.3-64.8-3.3-64.8" style="fill:none;stroke-miterlimit:10;stroke-width:6.1520928144455px;stroke:url(#u)"/><path d="M201.7,109.6a4.1,4.1,0,0,0-5.2,2.6l-7.1,21.1,7.9,2.6,7-21.1A4.1,4.1,0,0,0,201.7,109.6Z" style="fill:#aaa"/><path d="M196.7,130h-3.4a.2.2,0,1,0,0,.4h1l1.2,1.2h-2.9a.2.2,0,0,0-.2.2l.2.2h3.5v-.2l-1.2-1.3h1.8Z" style="fill:#5f5e6c"/><path d="M195.1,128.5h0c-.1.1-.2.2-.3.1l-.6-.7a.2.2,0,0,1,0-.3h.3l.6.6Z" style="fill:url(#v)"/><path d="M67.4,262.3S29.6,249,58,193.7s9-71.1,9-71.1" style="fill:none;stroke-miterlimit:10;stroke-width:6.1520928144455px;stroke:url(#w)"/><path d="M56.5,102.7a4.2,4.2,0,0,0-1.5,5.7l11,19.3,7.2-4.1-11-19.3A4.3,4.3,0,0,0,56.5,102.7Z" style="fill:#aaa"/><path d="M68.4,119.8l-1.9,2.8c0,.1,0,.3.1.3s.2,0,.3-.1l.5-.8h0l1.7-.4-1.5,2.5c-.1,0-.1.2,0,.2s.3,0,.3,0l1.8-2.8v-.2h-.2l-1.8.3,1-1.7v-.2h-.1Z" style="fill:#5f5e6c"/><path d="M66.3,120.3h0c0,.1,0,.2-.1.2l-1,.2c-.1,0-.2,0-.2-.1s0-.3.1-.3l1-.2Z" style="fill:url(#x)"/></g></svg>