<svg xmlns="http://www.w3.org/2000/svg" xmlns:xlink="http://www.w3.org/1999/xlink" viewBox="0 0 231.8 404.5"><defs><linearGradient id="a" x1="2.87" y1="-1615.89" x2="231.12" y2="-1615.89" gradientTransform="matrix(1, 0, 0, -1, 0, -1379.84)" gradientUnits="userSpaceOnUse"><stop offset="0"/><stop offset="0.53" stop-color="#383642"/><stop offset="1"/></linearGradient><linearGradient id="b" x1="-4118.58" y1="3825.4" x2="-4018.28" y2="3825.4" gradientTransform="matrix(-1, 0, 0, 1, -3952.58, -3666)" gradientUnits="userSpaceOnUse"><stop offset="0" stop-color="#ff595a"/><stop offset="1" stop-color="#ff595a"/></linearGradient><linearGradient id="c" x1="140.8" y1="-1616.4" x2="134.41" y2="-1622.39" gradientTransform="matrix(1, 0, 0, -1, 0, -1379.84)" gradientUnits="userSpaceOnUse"><stop offset="0" stop-color="#383642"/><stop offset="1" stop-color="#383642" stop-opacity="0"/></linearGradient><linearGradient id="d" x1="146.64" y1="-1617.6" x2="143.12" y2="-1609.3" xlink:href="#c"/><linearGradient id="e" x1="90.04" y1="-1616.87" x2="86.32" y2="-1608.09" xlink:href="#c"/><linearGradient id="f" x1="89.17" y1="-1615.9" x2="96.78" y2="-1621.22" xlink:href="#c"/><linearGradient id="g" x1="116.84" y1="-1589.47" x2="109.26" y2="-1596.7" xlink:href="#c"/><linearGradient id="h" x1="115.6" y1="-1590.13" x2="120.99" y2="-1584.81" xlink:href="#c"/><linearGradient id="i" x1="148.19" y1="-1557.83" x2="140.76" y2="-1564.48" xlink:href="#c"/><linearGradient id="j" x1="72.13" y1="-1545.35" x2="67.3" y2="-1542.62" xlink:href="#c"/><linearGradient id="k" x1="-7074.56" y1="-1545.32" x2="-7079.39" y2="-1542.59" gradientTransform="translate(-6914.9 -1379.8) rotate(180)" xlink:href="#c"/><linearGradient id="l" x1="159.22" y1="-1597.72" x2="163.97" y2="-1592.17" xlink:href="#c"/><linearGradient id="m" x1="-6332.22" y1="-2571.92" x2="-6327.46" y2="-2566.37" gradientTransform="matrix(-0.02, -1, -1, 0.02, -2624.62, -6062.33)" xlink:href="#c"/><linearGradient id="n" x1="159.18" y1="-1648.76" x2="163.94" y2="-1643.21" xlink:href="#c"/><linearGradient id="o" x1="-6383.29" y1="-2570.88" x2="-6378.54" y2="-2565.33" gradientTransform="matrix(-0.02, -1, -1, 0.02, -2624.62, -6062.33)" xlink:href="#c"/><linearGradient id="p" x1="-796.38" y1="4618" x2="-803.58" y2="4611.12" gradientTransform="matrix(0, 1, 1, 0, -4501.36, 1058.62)" xlink:href="#c"/><linearGradient id="q" x1="-797.29" y1="4617.25" x2="-791.83" y2="4622.63" gradientTransform="matrix(0, 1, 1, 0, -4501.36, 1058.62)" xlink:href="#c"/><linearGradient id="r" x1="65.95" y1="-1700.74" x2="65.95" y2="-1695.19" xlink:href="#c"/><linearGradient id="s" x1="-7066.31" y1="-1700.74" x2="-7066.31" y2="-1695.19" gradientTransform="translate(-6900.6 -1379.8) rotate(180)" xlink:href="#c"/><linearGradient id="t" x1="166.16" y1="-1735.68" x2="167.48" y2="-1739.53" xlink:href="#c"/><linearGradient id="u" x1="-7291.4" y1="-1735.66" x2="-7290.08" y2="-1739.52" gradientTransform="translate(-7225.9 -1379.8) rotate(180)" xlink:href="#c"/><linearGradient id="v" x1="91.55" y1="-1666.88" x2="85.99" y2="-1671.47" xlink:href="#c"/><linearGradient id="w" x1="83.84" y1="-1661.24" x2="87.71" y2="-1662.45" xlink:href="#c"/><linearGradient id="x" x1="90.19" y1="-1667.86" x2="97.1" y2="-1660.34" xlink:href="#c"/><linearGradient id="y" x1="144.87" y1="-1666.83" x2="142.74" y2="-1658.66" xlink:href="#c"/><linearGradient id="z" x1="141.62" y1="-1666.89" x2="134.96" y2="-1672.92" xlink:href="#c"/><linearGradient id="aa" x1="116.06" y1="-1693.84" x2="109.88" y2="-1685.87" xlink:href="#c"/><linearGradient id="ab" x1="115.76" y1="-1691.6" x2="120.4" y2="-1696.83" xlink:href="#c"/></defs><title>style--Artboard 1 copy 10</title><rect x="6.1" y="73.8" width="219.5" height="324.5" style="fill:url(#a)"/><rect x="140.9" y="269" width="29.5" height="6.2" transform="translate(-147.5 192.5) rotate(-45.5)" style="fill:#ff595a"/><rect x="62.6" y="312.6" width="6.2" height="51.1" style="fill:#ff595a"/><rect x="44.4" y="258.5" width="143.1" height="6.2" transform="translate(-151.9 161.1) rotate(-45.5)" style="fill:#ff595a"/><rect x="112.7" y="138.9" width="6.2" height="143.09" transform="translate(-114.2 141.4) rotate(-44.5)" style="fill:#ff595a"/><rect x="140.7" y="166.8" width="29.6" height="6.2" transform="translate(-74.6 159.7) rotate(-45)" style="fill:#ff595a"/><rect x="73.1" y="206.1" width="6.2" height="29.6" transform="translate(-133.9 118.6) rotate(-45)" style="fill:#ff595a"/><rect x="73.1" y="257.2" width="6.2" height="29.6" transform="translate(-170 133.5) rotate(-45)" style="fill:#ff595a"/><rect x="162.9" y="312.6" width="6.2" height="51.1" style="fill:#ff595a"/><path d="M0,67.6V404.5H86.4V67.6ZM65.6,370.5a6.7,6.7,0,1,1,6.7-6.7A6.7,6.7,0,0,1,65.6,370.5Zm0-51.1a6.7,6.7,0,1,1,6.7-6.7A6.7,6.7,0,0,1,65.6,319.4Zm0-51.1a6.7,6.7,0,1,1,6.7-6.7A6.7,6.7,0,0,1,65.6,268.3Zm0-51.1a6.7,6.7,0,1,1,6.7-6.7A6.7,6.7,0,0,1,65.6,217.2Zm0-51.2a6.7,6.7,0,1,1,6.7-6.7A6.7,6.7,0,0,1,65.6,166Zm0-51.1a6.7,6.7,0,1,1,6.7-6.7A6.7,6.7,0,0,1,65.6,114.9Z" style="fill:#383642"/><path d="M65.6,352.6a11.3,11.3,0,1,0,11.3,11.3A11.2,11.2,0,0,0,65.6,352.6Zm0,17.9a6.7,6.7,0,1,1,6.7-6.7A6.7,6.7,0,0,1,65.6,370.5Z" style="fill:#636569"/><path d="M65.6,301.5a11.3,11.3,0,1,0,11.3,11.3A11.2,11.2,0,0,0,65.6,301.5Zm0,17.9a6.7,6.7,0,1,1,6.7-6.7A6.7,6.7,0,0,1,65.6,319.4Z" style="fill:#636569"/><path d="M65.6,250.3a11.3,11.3,0,1,0,11.3,11.3A11.4,11.4,0,0,0,65.6,250.3Zm0,18a6.7,6.7,0,1,1,6.7-6.7A6.7,6.7,0,0,1,65.6,268.3Z" style="fill:#636569"/><path d="M65.6,199.2a11.3,11.3,0,1,0,11.3,11.3A11.4,11.4,0,0,0,65.6,199.2Zm0,18a6.7,6.7,0,1,1,6.7-6.7A6.7,6.7,0,0,1,65.6,217.2Z" style="fill:#636569"/><path d="M65.6,148.1a11.3,11.3,0,1,0,11.3,11.3A11.2,11.2,0,0,0,65.6,148.1Zm0,17.9a6.7,6.7,0,1,1,6.7-6.7A6.7,6.7,0,0,1,65.6,166Z" style="fill:#636569"/><path d="M65.6,97a11.3,11.3,0,1,0,11.3,11.3A11.4,11.4,0,0,0,65.6,97Zm0,17.9a6.7,6.7,0,1,1,6.7-6.7A6.7,6.7,0,0,1,65.6,114.9Z" style="fill:#636569"/><path d="M231.8,404.5V67.6H145.4V404.5ZM166.1,101.6a6.7,6.7,0,1,1-6.7,6.7A6.7,6.7,0,0,1,166.1,101.6Zm0,51.1a6.7,6.7,0,1,1-6.7,6.7A6.7,6.7,0,0,1,166.1,152.7Zm0,51.1a6.7,6.7,0,1,1-6.7,6.7A6.7,6.7,0,0,1,166.1,203.8Zm0,51.1a6.7,6.7,0,1,1-6.7,6.7A6.7,6.7,0,0,1,166.1,254.9Zm0,51.2a6.7,6.7,0,1,1-6.7,6.7A6.7,6.7,0,0,1,166.1,306.1Zm0,51.1a6.7,6.7,0,1,1-6.7,6.7A6.7,6.7,0,0,1,166.1,357.2Z" style="fill:#383642"/><path d="M166.1,119.5a11.3,11.3,0,1,0-11.3-11.3A11.4,11.4,0,0,0,166.1,119.5Zm0-17.9a6.7,6.7,0,1,1-6.7,6.7A6.7,6.7,0,0,1,166.1,101.6Z" style="fill:#636569"/><path d="M166.1,170.7a11.3,11.3,0,1,0-11.3-11.3A11.4,11.4,0,0,0,166.1,170.7Zm0-18a6.7,6.7,0,1,1-6.7,6.7A6.7,6.7,0,0,1,166.1,152.7Z" style="fill:#636569"/><path d="M166.1,221.8a11.3,11.3,0,1,0-11.3-11.3A11.4,11.4,0,0,0,166.1,221.8Zm0-18a6.7,6.7,0,1,1-6.7,6.7A6.7,6.7,0,0,1,166.1,203.8Z" style="fill:#636569"/><path d="M166.1,272.9a11.3,11.3,0,1,0-11.3-11.3A11.4,11.4,0,0,0,166.1,272.9Zm0-18a6.7,6.7,0,1,1-6.7,6.7A6.7,6.7,0,0,1,166.1,254.9Z" style="fill:#636569"/><path d="M166.1,324a11.3,11.3,0,1,0-11.3-11.3A11.4,11.4,0,0,0,166.1,324Zm0-17.9a6.7,6.7,0,1,1-6.7,6.7A6.7,6.7,0,0,1,166.1,306.1Z" style="fill:#636569"/><path d="M166.1,375.1a11.3,11.3,0,1,0-11.3-11.3A11.4,11.4,0,0,0,166.1,375.1Zm0-17.9a6.7,6.7,0,1,1-6.7,6.7A6.7,6.7,0,0,1,166.1,357.2Z" style="fill:#636569"/><polygon points="163.8 365.8 86.4 286.6 86.4 277.8 168.2 361.5 163.8 365.8" style="fill:#ff595a"/><polygon points="163.8 314.7 86.4 235.6 86.4 226.8 168.2 310.4 163.8 314.7" style="fill:#ff595a"/><polygon points="67.9 263.7 63.5 259.4 145.3 175.7 145.3 184.5 67.9 263.7" style="fill:#ff595a"/><rect x="65.7" y="156.3" width="100.3" height="6.2" style="fill:url(#b)"/><rect x="143.3" y="213.8" width="6.2" height="55.7" transform="translate(-127.3 171.8) rotate(-44.5)" style="fill:#ff595a"/><polygon points="67.9 314.8 63.5 310.4 130.5 242.1 134.9 246.4 67.9 314.8" style="fill:#ff595a"/><polygon points="67.9 365.8 63.5 361.5 145.3 278.2 145.3 287 67.9 365.8" style="fill:#ff595a"/><circle cx="65.7" cy="363.7" r="3.1" style="fill:#ff595a"/><circle cx="166" cy="363.7" r="3.1" style="fill:#ff595a"/><circle cx="166.1" cy="312.6" r="3" style="fill:#ff595a"/><circle cx="65.7" cy="312.6" r="3.1" style="fill:#ff595a"/><circle cx="65.6" cy="261.5" r="3" style="fill:#ff595a"/><circle cx="166" cy="261.5" r="3.1" style="fill:#ff595a"/><circle cx="65.6" cy="210.5" r="3" style="fill:#ff595a"/><circle cx="166" cy="210.5" r="3.1" style="fill:#ff595a"/><circle cx="166.1" cy="159.4" r="3" style="fill:#ff595a"/><circle cx="65.7" cy="159.4" r="3.1" style="fill:#ff595a"/><polygon points="130.5 242.1 136.6 236 140.9 240.4 135 246.5 130.5 242.1" style="fill:url(#c)"/><polygon points="140.9 231.6 145.3 236 145.3 227.2 140.9 231.6" style="fill:url(#d)"/><polygon points="86.4 236.1 90.9 231.4 86.4 226.8 86.4 236.1" style="fill:url(#e)"/><polygon points="90.9 240.2 95.2 235.8 100.5 241.2 95.7 245.1 90.9 240.2" style="fill:url(#f)"/><polygon points="111.4 210.4 115.7 214.7 110.5 220.1 106.2 215.7 111.4 210.4" style="fill:url(#g)"/><polygon points="115.7 206 121.1 200.4 125.4 204.9 120 210.4 115.7 206" style="fill:url(#h)"/><polygon points="145.3 175.7 145.3 184.5 138.1 191.9 133.9 187.4 145.3 175.7" style="fill:url(#i)"/><path d="M66.1,164.2l1.5,1.5a6.4,6.4,0,0,0,3.9-3.3H67.3Z" style="fill:url(#j)"/><path d="M165.6,164.2l-1.5,1.5a6.4,6.4,0,0,1-3.9-3.3h4.2Z" style="fill:url(#k)"/><path d="M161.7,210.5l-2,1.7a6.6,6.6,0,0,0,4.7,4.7l2.7-3.1Z" style="fill:url(#l)"/><path d="M65.7,214.9l1.7,2a6.4,6.4,0,0,0,4.6-4.8l-3.2-2.6Z" style="fill:url(#m)"/><path d="M161.7,261.5l-2,1.7a6.6,6.6,0,0,0,4.7,4.7l2.7-3.1Z" style="fill:url(#n)"/><path d="M65.7,266l1.7,2a6.4,6.4,0,0,0,4.6-4.8l-3.2-2.6Z" style="fill:url(#o)"/><polygon points="116 256.9 111.6 261.4 106.5 256.3 111 251.9 116 256.9" style="fill:url(#p)"/><polygon points="120.3 261.4 125.9 266.9 121.2 271.3 116 265.8 120.3 261.4" style="fill:url(#q)"/><path d="M69.5,318.2v-4l-7.1.6v3.8a7.4,7.4,0,0,0,3.3.9A8.2,8.2,0,0,0,69.5,318.2Z" style="fill:url(#r)"/><path d="M162.2,318.2v-4l7.1.6v3.8a7.4,7.4,0,0,1-3.3.9A8.2,8.2,0,0,1,162.2,318.2Z" style="fill:url(#s)"/><path d="M164.2,357.5l2.9,3,2.4-2.3a6.8,6.8,0,0,0-3.5-1Z" style="fill:url(#t)"/><path d="M67.5,357.5l-2.9,3-2.4-2.3a6.8,6.8,0,0,1,3.5-1A5.7,5.7,0,0,1,67.5,357.5Z" style="fill:url(#u)"/><polygon points="86.4 286.6 91.1 291.4 86 296.3 82.1 291.5 86.4 286.6" style="fill:url(#v)"/><polygon points="86.4 286.6 86.4 277.8 90.9 282.5 86.4 286.6" style="fill:url(#w)"/><polygon points="90.9 282.5 95.3 287 101.1 280.9 96.4 276.9 90.9 282.5" style="fill:url(#x)"/><polygon points="141 282.6 145.3 278.2 145.3 287 141 282.6" style="fill:url(#y)"/><polygon points="136.7 287 141 291.4 134.4 298.1 129.8 294 136.7 287" style="fill:url(#z)"/><polygon points="111.7 312.5 116 308.1 108.6 300.6 105.1 305.7 111.7 312.5" style="fill:url(#aa)"/><polygon points="116 316.9 120.3 312.5 125 317.3 121 322 116 316.9" style="fill:url(#ab)"/><path d="M65.6,212s.6-14.4-14.4-27.9-23.7-45.4-11-71.4" style="fill:none;stroke:#ff595a;stroke-miterlimit:10;stroke-width:6px"/><path d="M166,212s-5.5-20.1,18.5-34.2,20.7-38.8,12-51.6" style="fill:none;stroke:#ff595a;stroke-miterlimit:10;stroke-width:6px"/><path d="M49.2,93.4a4,4,0,0,1,2,5.4l-9.1,20.1-7.5-3.4,9.1-20.1A4.3,4.3,0,0,1,49.2,93.4Z" style="fill:#aaa"/><path d="M186.1,106.1a4,4,0,0,1,5.5,1.7L202,127.3l-7.3,3.8-10.4-19.5A4.2,4.2,0,0,1,186.1,106.1Z" style="fill:#aaa"/><path d="M42.3,112.3H38.9a.2.2,0,0,0-.2.2l.2.2h1l1.2,1.3H38.2a.2.2,0,1,0,0,.4h3.5V114l-1.2-1.4h1.8Z" style="fill:#5f5e6c"/><path d="M40.8,110.8h0a.2.2,0,0,1-.3,0l-.6-.7a.2.2,0,0,1,0-.3h.3l.6.7Z" style="fill:#ff595a"/><path d="M196.7,123.7l-2.1,2.6a.2.2,0,0,0,.3.3l.6-.8h1.7l-1.8,2.3a.2.2,0,0,0,0,.3h.3l2.1-2.6c0-.1.1-.1,0-.2h-2.1l1.2-1.4c0-.1.1-.1,0-.2h0C196.9,123.6,196.8,123.6,196.7,123.7Z" style="fill:#5f5e6c"/><path d="M194.6,123.9h0c0,.2,0,.3-.1.3h-.9a.2.2,0,0,1-.2-.2l.2-.2h1Z" style="fill:#ff595a"/></svg>