<svg xmlns="http://www.w3.org/2000/svg" xmlns:xlink="http://www.w3.org/1999/xlink" viewBox="0 0 231.8 404.5"><defs><linearGradient id="a" x1="2.84" y1="169.95" x2="231.09" y2="169.95" gradientTransform="matrix(1, 0, 0, -1, 0, 406)" gradientUnits="userSpaceOnUse"><stop offset="0"/><stop offset="0.53" stop-color="#383642"/><stop offset="1"/></linearGradient><linearGradient id="b" x1="65.6" y1="42.15" x2="166.1" y2="42.15" gradientTransform="matrix(1, 0, 0, -1, 0, 406)" gradientUnits="userSpaceOnUse"><stop offset="0" stop-color="#3bd4ae"/><stop offset="1" stop-color="#3bd4ae"/></linearGradient><linearGradient id="c" x1="148.63" y1="42.15" x2="141.81" y2="42.15" gradientTransform="matrix(1, 0, 0, -1, 0, 406)" gradientUnits="userSpaceOnUse"><stop offset="0" stop-color="#383642"/><stop offset="1" stop-color="#383642" stop-opacity="0"/></linearGradient><linearGradient id="d" x1="83" y1="42.15" x2="91.63" y2="42.15" xlink:href="#c"/><linearGradient id="e" x1="74.36" y1="42.52" x2="68.5" y2="41.73" xlink:href="#c"/><linearGradient id="f" x1="-7564" y1="42.52" x2="-7569.86" y2="41.72" gradientTransform="translate(-7406.6 406) rotate(180)" xlink:href="#c"/><linearGradient id="g" x1="116.17" y1="118.78" x2="120.41" y2="111.84" xlink:href="#c"/><linearGradient id="h" x1="115.45" y1="118.36" x2="111.61" y2="125.47" xlink:href="#c"/><linearGradient id="i" x1="-7718.92" y1="3711.26" x2="-7716.2" y2="3715.52" gradientTransform="matrix(-1, 0, 0, 1, -7550.08, -3508.87)" xlink:href="#c"/><linearGradient id="j" x1="131.6" y1="3711.23" x2="134.32" y2="3715.48" gradientTransform="translate(-68.7 -3508.9)" xlink:href="#c"/></defs><title>style--Artboard 1 copy</title><rect x="6.1" y="73.8" width="219.5" height="324.5" style="fill:url(#a)"/><path d="M165.7,213.3h.3a2.9,2.9,0,0,0,2.9-2.9V161.3h-5.5v51.2A3.6,3.6,0,0,0,165.7,213.3Z" style="fill:#3bd4ae"/><path d="M66,213.3h-.3a2.9,2.9,0,0,1-2.9-2.9V161.3h5.5v51.2A3.2,3.2,0,0,1,66,213.3Z" style="fill:#3bd4ae"/><path d="M66,158.5h-.3a2.9,2.9,0,0,0-2.9,2.9v49.1h5.5V159.3A3.2,3.2,0,0,0,66,158.5Z" style="fill:#3bd4ae"/><path d="M165.8,158.5a3.6,3.6,0,0,0-2.4.8v52l5.5-1.8V161.6A3.1,3.1,0,0,0,165.8,158.5Z" style="fill:#3bd4ae"/><rect x="65.6" y="361.1" width="100.5" height="5.5" style="fill:url(#b)"/><path d="M0,67.6V404.4H86.4V67.6ZM65.6,370.5a6.7,6.7,0,1,1,6.7-6.7A6.7,6.7,0,0,1,65.6,370.5Zm0-51.1a6.7,6.7,0,1,1,6.7-6.7A6.7,6.7,0,0,1,65.6,319.4Zm0-51.1a6.7,6.7,0,1,1,6.7-6.7A6.7,6.7,0,0,1,65.6,268.3Zm0-51.1a6.7,6.7,0,1,1,6.7-6.7A6.7,6.7,0,0,1,65.6,217.2Zm0-51.2a6.7,6.7,0,1,1,6.7-6.7A6.7,6.7,0,0,1,65.6,166Zm0-51.1a6.7,6.7,0,1,1,6.7-6.7A6.7,6.7,0,0,1,65.6,114.9Z" style="fill:#383642"/><path d="M65.6,352.6a11.3,11.3,0,1,0,11.3,11.3A11.4,11.4,0,0,0,65.6,352.6Zm0,17.9a6.7,6.7,0,1,1,6.7-6.7A6.7,6.7,0,0,1,65.6,370.5Z" style="fill:#636569"/><path d="M65.6,301.5a11.3,11.3,0,1,0,11.3,11.3A11.4,11.4,0,0,0,65.6,301.5Zm0,17.9a6.7,6.7,0,1,1,6.7-6.7A6.7,6.7,0,0,1,65.6,319.4Z" style="fill:#636569"/><path d="M65.6,250.3a11.3,11.3,0,1,0,11.3,11.3A11.4,11.4,0,0,0,65.6,250.3Zm0,18a6.7,6.7,0,1,1,6.7-6.7A6.7,6.7,0,0,1,65.6,268.3Z" style="fill:#636569"/><path d="M65.6,199.2a11.3,11.3,0,1,0,11.3,11.3A11.4,11.4,0,0,0,65.6,199.2Zm0,18a6.7,6.7,0,1,1,6.7-6.7A6.7,6.7,0,0,1,65.6,217.2Z" style="fill:#636569"/><path d="M65.6,148.1a11.3,11.3,0,1,0,11.3,11.3A11.4,11.4,0,0,0,65.6,148.1Zm0,17.9a6.7,6.7,0,1,1,6.7-6.7A6.7,6.7,0,0,1,65.6,166Z" style="fill:#636569"/><path d="M65.6,97a11.3,11.3,0,1,0,11.3,11.3A11.2,11.2,0,0,0,65.6,97Zm0,17.9a6.7,6.7,0,1,1,6.7-6.7A6.7,6.7,0,0,1,65.6,114.9Z" style="fill:#636569"/><path d="M231.8,404.5V67.6H145.4V404.4h86.4ZM166.1,101.6a6.7,6.7,0,1,1-6.7,6.7A6.7,6.7,0,0,1,166.1,101.6Zm0,51.1a6.7,6.7,0,1,1-6.7,6.7A6.7,6.7,0,0,1,166.1,152.7Zm0,51.1a6.7,6.7,0,1,1-6.7,6.7A6.7,6.7,0,0,1,166.1,203.8Zm0,51.2a6.7,6.7,0,1,1-6.7,6.7A6.7,6.7,0,0,1,166.1,255Zm0,51.1a6.7,6.7,0,1,1-6.7,6.7A6.7,6.7,0,0,1,166.1,306.1Zm0,51.1a6.7,6.7,0,1,1-6.7,6.7A6.7,6.7,0,0,1,166.1,357.2Z" style="fill:#383642"/><path d="M166.1,119.5a11.3,11.3,0,1,0-11.3-11.3A11.4,11.4,0,0,0,166.1,119.5Zm0-17.9a6.7,6.7,0,1,1-6.7,6.7A6.7,6.7,0,0,1,166.1,101.6Z" style="fill:#636569"/><path d="M166.1,170.7a11.3,11.3,0,1,0-11.3-11.3A11.4,11.4,0,0,0,166.1,170.7Zm0-18a6.7,6.7,0,1,1-6.7,6.7A6.7,6.7,0,0,1,166.1,152.7Z" style="fill:#636569"/><path d="M166.1,221.8a11.3,11.3,0,1,0-11.3-11.3A11.4,11.4,0,0,0,166.1,221.8Zm0-18a6.7,6.7,0,1,1-6.7,6.7A6.7,6.7,0,0,1,166.1,203.8Z" style="fill:#636569"/><path d="M166.1,272.9a11.3,11.3,0,1,0-11.3-11.3A11.4,11.4,0,0,0,166.1,272.9Zm0-17.9a6.7,6.7,0,1,1-6.7,6.7A6.7,6.7,0,0,1,166.1,255Z" style="fill:#636569"/><path d="M166.1,324a11.3,11.3,0,1,0-11.3-11.3A11.4,11.4,0,0,0,166.1,324Zm0-17.9a6.7,6.7,0,1,1-6.7,6.7A6.7,6.7,0,0,1,166.1,306.1Z" style="fill:#636569"/><path d="M166.1,375.2a11.3,11.3,0,1,0-11.3-11.3A11.4,11.4,0,0,0,166.1,375.2Zm0-18a6.7,6.7,0,1,1-6.7,6.7A6.7,6.7,0,0,1,166.1,357.2Z" style="fill:#636569"/><polygon points="67.9 365.4 63.3 362.3 164.3 208.2 168.4 212.1 67.9 365.4" style="fill:#3bd4ae"/><polygon points="163.8 365.4 115.9 292.2 119.2 287.2 168.4 362.3 163.8 365.4" style="fill:#3bd4ae"/><polygon points="112.6 287.2 63.3 212 67.9 209 115.9 282.1 112.6 287.2" style="fill:#3bd4ae"/><circle cx="65.6" cy="363.9" r="2.8" style="fill:#3bd4ae"/><circle cx="166.1" cy="363.9" r="2.8" style="fill:#3bd4ae"/><polygon points="112.6 287.2 82.3 241.2 85.7 236.1 115.9 282.1 112.6 287.2" style="fill:#3bd4ae"/><path d="M162.1,87.3c10.9,48.3,7.4,77.3,7.3,77.8l-6.3-.9c.1-.5,3.5-28.3-7.2-75.5Z" style="fill:#3bd4ae"/><rect x="139.5" y="361.1" width="5.9" height="5.5" style="fill:url(#c)"/><rect x="86.4" y="361.1" width="5.2" height="5.5" style="fill:url(#d)"/><path d="M68,365.3v1.4h3.7a6.4,6.4,0,0,0,.6-2.8,6.7,6.7,0,0,0-.6-2.8h-.9Z" style="fill:url(#e)"/><path d="M163.7,365.3v1.4H160a6.4,6.4,0,0,1-.6-2.8,6.7,6.7,0,0,1,.6-2.8h.9Z" style="fill:url(#f)"/><polygon points="115.9 292.2 119.2 287.2 123.2 293.3 120.1 298.6 115.9 292.2" style="fill:url(#g)"/><polygon points="115.9 282.1 112.6 287.2 108.1 280.4 111.5 275.5 115.9 282.1" style="fill:url(#h)"/><path d="M163.4,204.5v4.2h5.5v-4.2a6.4,6.4,0,0,0-2.8-.6A6,6,0,0,0,163.4,204.5Z" style="fill:url(#i)"/><path d="M68.4,204.5v4.2H62.9v-4.2a6.4,6.4,0,0,1,2.8-.6A6.3,6.3,0,0,1,68.4,204.5Z" style="fill:url(#j)"/><path d="M60.2,149.1a76.7,76.7,0,0,0,2.9,15.2l6.1-2-3,1,3-1c-.1-.3-8.2-25.7,3.2-42.1A265,265,0,0,0,94,83.1l-6.3-1.4a291.2,291.2,0,0,1-20.6,34.9C60.1,126.7,59.3,139.3,60.2,149.1Z" style="fill:#3bd4ae"/><path d="M151.7,63.9a4.2,4.2,0,0,1,5.2,2.7l6.5,21.3-7.9,2.4L149,69A4,4,0,0,1,151.7,63.9Z" style="fill:#aaa"/><path d="M100.5,64.2a4.1,4.1,0,0,1,1.7,5.6L91.7,89.5l-7.3-3.9L94.9,65.9A4.1,4.1,0,0,1,100.5,64.2Z" style="fill:#aaa"/><path d="M92.2,83.2l-3.3-.3-.2.2a.2.2,0,0,0,.2.2h1L91,84.8l-2.9-.3a.2.2,0,0,0-.2.2l.2.2,3.3.3h.2v-.2l-1.2-1.5,1.8.2h.2A.2.2,0,0,0,92.2,83.2Z" style="fill:#5f5e6c"/><path d="M90.8,81.6h0a.2.2,0,0,1-.3,0l-.6-.7a.2.2,0,0,1,0-.3h.3l.6.7Z" style="fill:#3bd4ae"/><path d="M159.2,82.9,156.6,85a.2.2,0,1,0,.3.3l.8-.6h0l1.7.3-2.3,1.8a.2.2,0,0,0,.3.3L160,85c.1,0,.1-.1.1-.2H160l-1.8-.3,1.4-1.2c.1,0,.1-.1.1-.2h-.5Z" style="fill:#5f5e6c"/><path d="M157.1,82.7h0c0,.2-.1.2-.2.2H156a.2.2,0,0,1-.2-.2l.2-.2h.9C157,82.6,157.1,82.6,157.1,82.7Z" style="fill:#3bd4ae"/></svg>