<svg xmlns="http://www.w3.org/2000/svg" xmlns:xlink="http://www.w3.org/1999/xlink" viewBox="0 0 231.8 404.5"><defs><linearGradient id="a" x1="2.9" y1="235.44" x2="231.16" y2="235.44" gradientUnits="userSpaceOnUse"><stop offset="0"/><stop offset="0.53" stop-color="#383642"/><stop offset="1"/></linearGradient><linearGradient id="b" x1="147.78" y1="304.55" x2="168.34" y2="304.55" gradientUnits="userSpaceOnUse"><stop offset="0" stop-color="#40a2d3"/><stop offset="1" stop-color="#40a2d3"/></linearGradient><linearGradient id="c" x1="64.74" y1="310.7" x2="82.45" y2="310.7" xlink:href="#b"/><linearGradient id="d" x1="65.5" y1="363.72" x2="166.31" y2="363.72" xlink:href="#b"/><linearGradient id="e" x1="62.43" y1="338.24" x2="68.58" y2="338.24" xlink:href="#b"/><linearGradient id="f" x1="163.07" y1="338.24" x2="169.22" y2="338.24" xlink:href="#b"/><linearGradient id="g" x1="48.44" y1="234.08" x2="116.61" y2="234.08" xlink:href="#b"/><linearGradient id="h" x1="66.87" y1="18.42" x2="107.54" y2="18.42" gradientTransform="translate(61.3 183.7) rotate(4.4)" xlink:href="#b"/><linearGradient id="i" x1="72.15" y1="160.81" x2="72.75" y2="160.81" xlink:href="#b"/><linearGradient id="j" x1="163.1" y1="131.95" x2="163.7" y2="131.95" gradientTransform="translate(287.6 -35.9) rotate(87.5)" xlink:href="#b"/></defs><title>style--Artboard 1 copy 16</title><rect x="6.2" y="73.2" width="219.5" height="324.53" style="fill:url(#a)"/><line x1="166.1" y1="312.8" x2="150" y2="296.3" style="fill:none;stroke-miterlimit:10;stroke-width:6.1520928144455px;stroke:url(#b)"/><line x1="65.5" y1="312.8" x2="81.7" y2="308.6" style="fill:none;stroke-miterlimit:10;stroke-width:6.1520928144455px;stroke:url(#c)"/><line x1="65.5" y1="363.7" x2="166.3" y2="363.7" style="fill:none;stroke-miterlimit:10;stroke-width:6.1520928144455px;stroke:url(#d)"/><path d="M0,67.7V404.5H86.4V67.7ZM65.7,370.5a6.6,6.6,0,0,1-6.7-6.6,6.7,6.7,0,1,1,13.3,0A6.6,6.6,0,0,1,65.7,370.5Zm0-51.1a6.7,6.7,0,1,1,6.6-6.6A6.7,6.7,0,0,1,65.7,319.4Zm0-51.1a6.7,6.7,0,1,1,6.6-6.7A6.7,6.7,0,0,1,65.7,268.3Zm0-51.1a6.7,6.7,0,0,1-6.7-6.7,6.7,6.7,0,1,1,6.7,6.7Zm0-51.1a6.7,6.7,0,1,1,6.6-6.7A6.7,6.7,0,0,1,65.7,166.1Zm0-51.2a6.6,6.6,0,0,1-6.7-6.6,6.7,6.7,0,1,1,13.3,0A6.6,6.6,0,0,1,65.7,114.9Z" style="fill:#383642"/><path d="M65.7,352.6a11.3,11.3,0,1,0,11.2,11.3A11.2,11.2,0,0,0,65.7,352.6Zm0,17.9a6.6,6.6,0,0,1-6.7-6.6,6.7,6.7,0,1,1,13.3,0A6.6,6.6,0,0,1,65.7,370.5Z" style="fill:#636569"/><path d="M65.7,301.5a11.3,11.3,0,1,0,11.2,11.3A11.2,11.2,0,0,0,65.7,301.5Zm0,17.9a6.7,6.7,0,1,1,6.6-6.6A6.7,6.7,0,0,1,65.7,319.4Z" style="fill:#636569"/><path d="M65.7,250.4a11.3,11.3,0,1,0,11.2,11.2A11.2,11.2,0,0,0,65.7,250.4Zm0,17.9a6.7,6.7,0,1,1,6.6-6.7A6.7,6.7,0,0,1,65.7,268.3Z" style="fill:#636569"/><path d="M65.7,199.2a11.3,11.3,0,1,0,11.2,11.3A11.3,11.3,0,0,0,65.7,199.2Zm0,18a6.7,6.7,0,0,1-6.7-6.7,6.7,6.7,0,1,1,6.7,6.7Z" style="fill:#636569"/><path d="M65.7,148.1a11.3,11.3,0,1,0,11.2,11.3A11.3,11.3,0,0,0,65.7,148.1Zm0,18a6.7,6.7,0,1,1,6.6-6.7A6.7,6.7,0,0,1,65.7,166.1Z" style="fill:#636569"/><path d="M65.7,97a11.3,11.3,0,1,0,11.2,11.3A11.2,11.2,0,0,0,65.7,97Zm0,17.9a6.6,6.6,0,0,1-6.7-6.6,6.7,6.7,0,1,1,13.3,0A6.6,6.6,0,0,1,65.7,114.9Z" style="fill:#636569"/><path d="M231.8,404.5V67.7H145.4V404.5ZM166.1,101.6a6.7,6.7,0,0,1,6.7,6.7,6.7,6.7,0,1,1-6.7-6.7Zm0,51.1a6.7,6.7,0,1,1-6.6,6.7A6.7,6.7,0,0,1,166.1,152.7Zm0,51.2a6.6,6.6,0,0,1,6.7,6.6,6.7,6.7,0,1,1-13.3,0A6.6,6.6,0,0,1,166.1,203.9Zm0,51.1a6.7,6.7,0,1,1-6.6,6.6A6.7,6.7,0,0,1,166.1,255Zm0,51.1a6.7,6.7,0,1,1-6.6,6.7A6.7,6.7,0,0,1,166.1,306.1Zm0,51.1a6.7,6.7,0,0,1,6.7,6.7,6.7,6.7,0,1,1-6.7-6.7Z" style="fill:#383642"/><path d="M166.1,119.6a11.3,11.3,0,1,0-11.2-11.3A11.3,11.3,0,0,0,166.1,119.6Zm0-18a6.7,6.7,0,0,1,6.7,6.7,6.7,6.7,0,1,1-6.7-6.7Z" style="fill:#636569"/><path d="M166.1,170.7a11.3,11.3,0,1,0-11.2-11.3A11.3,11.3,0,0,0,166.1,170.7Zm0-18a6.7,6.7,0,1,1-6.6,6.7A6.7,6.7,0,0,1,166.1,152.7Z" style="fill:#636569"/><path d="M166.1,221.8a11.3,11.3,0,1,0-11.2-11.3A11.3,11.3,0,0,0,166.1,221.8Zm0-17.9a6.6,6.6,0,0,1,6.7,6.6,6.7,6.7,0,1,1-13.3,0A6.6,6.6,0,0,1,166.1,203.9Z" style="fill:#636569"/><path d="M166.1,272.9a11.3,11.3,0,1,0-11.2-11.3A11.2,11.2,0,0,0,166.1,272.9Zm0-17.9a6.7,6.7,0,1,1-6.6,6.6A6.7,6.7,0,0,1,166.1,255Z" style="fill:#636569"/><path d="M166.1,324a11.3,11.3,0,1,0-11.2-11.2A11.2,11.2,0,0,0,166.1,324Zm0-17.9a6.7,6.7,0,1,1-6.6,6.7A6.7,6.7,0,0,1,166.1,306.1Z" style="fill:#636569"/><path d="M166.1,375.2a11.3,11.3,0,1,0-11.2-11.3A11.3,11.3,0,0,0,166.1,375.2Zm0-18a6.7,6.7,0,0,1,6.7,6.7,6.7,6.7,0,1,1-6.7-6.7Z" style="fill:#636569"/><circle cx="166.3" cy="363.7" r="2.9" style="fill:#40a2d3"/><circle cx="65.5" cy="363.7" r="2.9" style="fill:#40a2d3"/><line x1="65.5" y1="363.7" x2="65.5" y2="312.8" style="fill:none;stroke-miterlimit:10;stroke-width:6.1520928144455px;stroke:url(#e)"/><line x1="166.1" y1="363.7" x2="166.1" y2="312.8" style="fill:none;stroke-miterlimit:10;stroke-width:6.1520928144455px;stroke:url(#f)"/><circle cx="65.7" cy="312.7" r="3" style="fill:#40a2d3"/><circle cx="166" cy="312.7" r="3" style="fill:#40a2d3"/><path d="M79.4,309.2s73.5-15.1,4.8-61.1-7.9-89.7-7.9-89.7" style="fill:none;stroke-miterlimit:10;stroke-width:6.1520928144455px;stroke:url(#g)"/><path d="M88.9,149.8a4.1,4.1,0,0,0-5.7-.9l-18,13.2,4.9,6.7,18-13.2A4.1,4.1,0,0,0,88.9,149.8Z" style="fill:#aaa"/><path d="M150,296.3s-50.3-34.4-4.3-89.3,6.6-85.1,6.6-85.1" style="fill:none;stroke-miterlimit:10;stroke-width:6.1520928144455px;stroke:url(#h)"/><path d="M148.4,114.9a4.2,4.2,0,0,1,5.8.9l13,17.9-6.7,4.9-13-17.9A4.2,4.2,0,0,1,148.4,114.9Z" style="fill:#aaa"/><polygon points="145.4 282 145.4 306.1 159.5 290.3 145.4 282" style="fill:#383642"/><polygon points="86.4 294.1 86.4 322 78.5 314.7 76.9 303.6 86.4 294.1" style="fill:#383642"/><path d="M73.2,163.5l-2.9-1.7c-.1-.1-.3,0-.3,0a.2.2,0,0,0,.1.3l.8.5h0l.5,1.7-2.5-1.5h-.3a.4.4,0,0,0,.1.3l2.8,1.7h.2v-.2l-.3-1.8,1.6.9h.3Z" style="fill:#5f5e6c"/><path d="M72.6,161.5h0c-.1,0-.2,0-.3-.2v-.9c-.1-.1,0-.2.1-.2s.2,0,.3.1v1.2Z" style="fill:url(#i)"/><path d="M160.3,133.9l1.6-3s0-.2-.1-.2-.2,0-.3.1l-.4.9h0l-1.7.5,1.4-2.6a.4.4,0,0,0-.1-.3h-.3l-1.5,2.9c-.1.1-.1.1,0,.3h.1l1.8-.4-.8,1.7c-.1.1-.1.1,0,.2h.1Z" style="fill:#5f5e6c"/><path d="M162.3,133.3h0c0-.2,0-.2.1-.3l.9-.2c.2-.1.3,0,.3.1s0,.2-.1.3l-.9.2Z" style="fill:url(#j)"/></svg>