<svg xmlns="http://www.w3.org/2000/svg" xmlns:xlink="http://www.w3.org/1999/xlink" viewBox="0 0 231.8 404.5"><defs><linearGradient id="a" x1="2.86" y1="238.28" x2="231.12" y2="238.28" gradientUnits="userSpaceOnUse"><stop offset="0"/><stop offset="0.53" stop-color="#383642"/><stop offset="1"/></linearGradient><linearGradient id="b" x1="65.66" y1="366.08" x2="166.14" y2="366.08" gradientUnits="userSpaceOnUse"><stop offset="0" stop-color="#3bd4ae"/><stop offset="1" stop-color="#3bd4ae"/></linearGradient><linearGradient id="c" x1="148.65" y1="366.09" x2="141.84" y2="366.09" gradientUnits="userSpaceOnUse"><stop offset="0" stop-color="#383642"/><stop offset="1" stop-color="#383642" stop-opacity="0"/></linearGradient><linearGradient id="d" x1="83.02" y1="366.07" x2="91.65" y2="366.07" xlink:href="#c"/><linearGradient id="e" x1="74.38" y1="365.66" x2="68.52" y2="366.45" xlink:href="#c"/><linearGradient id="f" x1="-5795.36" y1="365.66" x2="-5801.22" y2="366.45" gradientTransform="matrix(-1, 0, 0, 1, -5637.94, 0)" xlink:href="#c"/><linearGradient id="g" x1="167.04" y1="307.57" x2="167.04" y2="311.58" xlink:href="#c"/><linearGradient id="h" x1="-5971.95" y1="307.55" x2="-5971.95" y2="311.56" gradientTransform="matrix(-1, 0, 0, 1, -5907.17, 0)" xlink:href="#c"/><linearGradient id="i" x1="116.17" y1="289.45" x2="120.42" y2="296.38" xlink:href="#c"/><linearGradient id="j" x1="115.46" y1="289.87" x2="111.62" y2="282.75" xlink:href="#c"/><linearGradient id="k" x1="98.23" y1="263.85" x2="95.5" y2="269.47" xlink:href="#c"/><linearGradient id="l" x1="98.98" y1="264.23" x2="102.54" y2="258.65" xlink:href="#c"/><linearGradient id="m" x1="62.97" y1="272" x2="65.69" y2="267.75" xlink:href="#c"/><linearGradient id="n" x1="-5881.58" y1="272.03" x2="-5878.86" y2="267.77" gradientTransform="matrix(-1, 0, 0, 1, -5712.75, 0)" xlink:href="#c"/><linearGradient id="o" x1="-5950.24" y1="-1713.46" x2="-5947.52" y2="-1717.72" gradientTransform="translate(-5781.4 -1508.9) rotate(180)" xlink:href="#c"/><linearGradient id="p" x1="131.63" y1="-1713.44" x2="134.35" y2="-1717.7" gradientTransform="matrix(1, 0, 0, -1, -68.66, -1508.87)" xlink:href="#c"/><linearGradient id="q" x1="132.04" y1="263.87" x2="129.21" y2="269.07" xlink:href="#c"/><linearGradient id="r" x1="132.66" y1="264.41" x2="136.14" y2="258.51" xlink:href="#c"/><linearGradient id="s" x1="115.7" y1="238.51" x2="120.69" y2="245.41" gradientUnits="userSpaceOnUse"><stop offset="0" stop-color="#383642"/><stop offset="0.69" stop-color="#383642" stop-opacity="0.31"/><stop offset="1" stop-color="#383642" stop-opacity="0"/></linearGradient><linearGradient id="t" x1="115.72" y1="239.43" x2="111.96" y2="232.2" xlink:href="#c"/><linearGradient id="u" x1="99.64" y1="212.05" x2="94.76" y2="219.42" xlink:href="#c"/><linearGradient id="v" x1="65.66" y1="169.13" x2="62.45" y2="164.74" xlink:href="#c"/><linearGradient id="w" x1="-5781.75" y1="169.13" x2="-5784.97" y2="164.74" gradientTransform="matrix(-1, 0, 0, 1, -5615.62, 0)" xlink:href="#c"/><linearGradient id="x" x1="148.09" y1="140.22" x2="143.59" y2="144.81" xlink:href="#c"/><linearGradient id="y" x1="160.92" y1="119.79" x2="164.8" y2="112.88" xlink:href="#c"/><linearGradient id="z" x1="70.64" y1="120.76" x2="66.9" y2="114.47" xlink:href="#c"/></defs><title>style--theCrossStichArtboard 1 copy</title><g style="isolation:isolate"><rect x="6.1" y="76" width="219.5" height="324.53" style="fill:url(#a)"/><path d="M165.7,215.6h.3a2.9,2.9,0,0,0,2.9-3V163.5h-5.5v51.2A4.3,4.3,0,0,0,165.7,215.6Z" style="fill:#3bd4ae"/><path d="M66.1,215.6h-.3a2.9,2.9,0,0,1-2.9-3V163.5h5.5v51.2A4.3,4.3,0,0,1,66.1,215.6Z" style="fill:#3bd4ae"/><path d="M66.1,160.7h-.3a2.9,2.9,0,0,0-2.9,2.9v49.1h5.5V161.5A4.2,4.2,0,0,0,66.1,160.7Z" style="fill:#3bd4ae"/><path d="M165.8,160.7a4.3,4.3,0,0,0-2.4.7v52l5.5-1.7V163.8A3.1,3.1,0,0,0,165.8,160.7Z" style="fill:#3bd4ae"/><rect x="62.9" y="263.8" width="5.5" height="51.12" style="fill:#3bd4ae"/><rect x="163.4" y="263.8" width="5.5" height="51.12" style="fill:#3bd4ae"/><rect x="65.7" y="363.3" width="100.5" height="5.54" style="fill:url(#b)"/><path d="M0,69.9V406.7H86.4V69.9ZM65.7,372.7a6.6,6.6,0,0,1-6.7-6.6,6.7,6.7,0,1,1,13.3,0A6.6,6.6,0,0,1,65.7,372.7Zm0-51.1a6.7,6.7,0,1,1,6.6-6.6A6.7,6.7,0,0,1,65.7,321.6Zm0-51.1a6.7,6.7,0,1,1,6.6-6.7A6.7,6.7,0,0,1,65.7,270.5Zm0-51.1a6.7,6.7,0,0,1-6.7-6.7,6.7,6.7,0,1,1,6.7,6.7Zm0-51.1a6.7,6.7,0,1,1,6.6-6.7A6.7,6.7,0,0,1,65.7,168.3Zm0-51.2a6.6,6.6,0,0,1-6.7-6.6,6.7,6.7,0,1,1,13.3,0A6.6,6.6,0,0,1,65.7,117.1Z" style="fill:#383642"/><path d="M65.7,354.8a11.3,11.3,0,1,0,11.2,11.3A11.2,11.2,0,0,0,65.7,354.8Zm0,17.9a6.6,6.6,0,0,1-6.7-6.6,6.7,6.7,0,1,1,13.3,0A6.6,6.6,0,0,1,65.7,372.7Z" style="fill:#636569"/><path d="M65.7,303.7A11.3,11.3,0,1,0,76.9,315,11.2,11.2,0,0,0,65.7,303.7Zm0,17.9a6.7,6.7,0,1,1,6.6-6.6A6.7,6.7,0,0,1,65.7,321.6Z" style="fill:#636569"/><path d="M65.7,252.6a11.3,11.3,0,1,0,11.2,11.2A11.2,11.2,0,0,0,65.7,252.6Zm0,17.9a6.7,6.7,0,1,1,6.6-6.7A6.7,6.7,0,0,1,65.7,270.5Z" style="fill:#636569"/><path d="M65.7,201.4a11.3,11.3,0,1,0,11.2,11.3A11.3,11.3,0,0,0,65.7,201.4Zm0,18a6.7,6.7,0,0,1-6.7-6.7,6.7,6.7,0,1,1,6.7,6.7Z" style="fill:#636569"/><path d="M65.7,150.3a11.3,11.3,0,1,0,11.2,11.3A11.3,11.3,0,0,0,65.7,150.3Zm0,18a6.7,6.7,0,1,1,6.6-6.7A6.7,6.7,0,0,1,65.7,168.3Z" style="fill:#636569"/><path d="M65.7,99.2a11.3,11.3,0,1,0,11.2,11.3A11.2,11.2,0,0,0,65.7,99.2Zm0,17.9a6.6,6.6,0,0,1-6.7-6.6,6.7,6.7,0,1,1,13.3,0A6.6,6.6,0,0,1,65.7,117.1Z" style="fill:#636569"/><path d="M231.8,406.7V69.9H145.4V406.7ZM166.1,103.8a6.7,6.7,0,0,1,6.7,6.7,6.7,6.7,0,1,1-6.7-6.7Zm0,51.1a6.7,6.7,0,1,1-6.6,6.7A6.7,6.7,0,0,1,166.1,154.9Zm0,51.2a6.6,6.6,0,0,1,6.7,6.6,6.7,6.7,0,1,1-13.3,0A6.6,6.6,0,0,1,166.1,206.1Zm0,51.1a6.7,6.7,0,1,1-6.6,6.6A6.7,6.7,0,0,1,166.1,257.2Zm0,51.1a6.7,6.7,0,1,1-6.6,6.7A6.7,6.7,0,0,1,166.1,308.3Zm0,51.1a6.7,6.7,0,0,1,6.7,6.7,6.7,6.7,0,1,1-6.7-6.7Z" style="fill:#383642"/><path d="M166.1,121.8a11.3,11.3,0,1,0-11.2-11.3A11.3,11.3,0,0,0,166.1,121.8Zm0-18a6.7,6.7,0,0,1,6.7,6.7,6.7,6.7,0,1,1-6.7-6.7Z" style="fill:#636569"/><path d="M166.1,172.9a11.3,11.3,0,1,0-11.2-11.3A11.3,11.3,0,0,0,166.1,172.9Zm0-18a6.7,6.7,0,1,1-6.6,6.7A6.7,6.7,0,0,1,166.1,154.9Z" style="fill:#636569"/><path d="M166.1,224a11.3,11.3,0,1,0-11.2-11.3A11.2,11.2,0,0,0,166.1,224Zm0-17.9a6.6,6.6,0,0,1,6.7,6.6,6.7,6.7,0,1,1-13.3,0A6.6,6.6,0,0,1,166.1,206.1Z" style="fill:#636569"/><path d="M166.1,275.1a11.3,11.3,0,1,0-11.2-11.3A11.2,11.2,0,0,0,166.1,275.1Zm0-17.9a6.7,6.7,0,1,1-6.6,6.6A6.7,6.7,0,0,1,166.1,257.2Z" style="fill:#636569"/><path d="M166.1,326.2A11.3,11.3,0,1,0,154.9,315,11.2,11.2,0,0,0,166.1,326.2Zm0-17.9a6.7,6.7,0,1,1-6.6,6.7A6.7,6.7,0,0,1,166.1,308.3Z" style="fill:#636569"/><path d="M166.1,377.4a11.3,11.3,0,1,0-11.2-11.3A11.3,11.3,0,0,0,166.1,377.4Zm0-18a6.7,6.7,0,0,1,6.7,6.7,6.7,6.7,0,1,1-6.7-6.7Z" style="fill:#636569"/><polygon points="68 367.6 63.3 364.6 164.3 210.5 168.4 214.3 68 367.6" style="fill:#3bd4ae"/><polygon points="163.8 367.6 115.9 294.5 119.2 289.4 168.5 364.6 163.8 367.6" style="fill:#3bd4ae"/><polygon points="112.6 289.4 63.3 214.2 68 211.2 115.9 284.3 112.6 289.4" style="fill:#3bd4ae"/><path d="M164.1,161a6.4,6.4,0,0,0-2.1,1.7l-.4.7h0l-41.3,63.1-57,86.9,4.7,3.1L168.5,163.1Z" style="fill:#3bd4ae"/><path d="M70.2,163.4h-.1l-.4-.6a4.8,4.8,0,0,0-2.8-2l-3.6,2.3L163.8,316.5l4.7-3.1Z" style="fill:#3bd4ae"/><path d="M62.9,263.8a2.4,2.4,0,0,1,.4-1.5l3.8.8-.7,1.8Z" style="fill:#3bd4ae"/><path d="M168.5,262.4a2,2,0,0,1,.4,1.4c0,1.1-3.5.6-3.5.6l-.2-1.7Z" style="fill:#3bd4ae"/><circle cx="65.7" cy="315" r="2.8" style="fill:#3bd4ae"/><circle cx="166.2" cy="315" r="2.8" style="fill:#3bd4ae"/><circle cx="65.7" cy="366.1" r="2.8" style="fill:#3bd4ae"/><circle cx="166.1" cy="366.1" r="2.8" style="fill:#3bd4ae"/><polygon points="112.6 289.4 82.4 243.5 85.7 238.3 115.9 284.3 112.6 289.4" style="fill:#3bd4ae"/><polygon points="120.5 226.2 124.2 230.6 112.1 249.1 108.7 244.2 120.5 226.2" style="fill:#3bd4ae"/><rect x="139.5" y="363.3" width="5.9" height="5.53" style="mix-blend-mode:multiply;fill:url(#c)"/><rect x="86.4" y="363.3" width="5.2" height="5.55" style="mix-blend-mode:multiply;fill:url(#d)"/><path d="M68,367.5v1.3h3.7a6,6,0,0,0,.6-2.7,6.4,6.4,0,0,0-.6-2.8h-.9Z" style="mix-blend-mode:multiply;fill:url(#e)"/><path d="M163.8,367.5v1.3h-3.7a6,6,0,0,1-.6-2.7,6.4,6.4,0,0,1,.6-2.8h.9Z" style="mix-blend-mode:multiply;fill:url(#f)"/><path d="M165.1,308.4l3.8,5.7v-5.2a6.4,6.4,0,0,0-2.8-.6Z" style="mix-blend-mode:multiply;fill:url(#g)"/><path d="M66.7,308.4l-3.8,5.7v-5.2a6.4,6.4,0,0,1,2.8-.6Z" style="mix-blend-mode:multiply;fill:url(#h)"/><polygon points="115.9 294.5 119.2 289.4 123.2 295.5 120.1 300.9 115.9 294.5" style="mix-blend-mode:multiply;fill:url(#i)"/><polygon points="115.9 284.3 112.6 289.4 108.1 282.6 111.5 277.7 115.9 284.3" style="mix-blend-mode:multiply;fill:url(#j)"/><polygon points="95.8 263.9 99.1 268.9 96.7 272.6 92.1 269.5 95.8 263.9" style="mix-blend-mode:multiply;fill:url(#k)"/><polygon points="99.2 258.7 102.5 263.8 106.1 258.3 102.5 253.6 99.2 258.7" style="mix-blend-mode:multiply;fill:url(#l)"/><path d="M68.4,269.9v-4.2H62.9v4.2a6.4,6.4,0,0,0,2.8.6A6.3,6.3,0,0,0,68.4,269.9Z" style="mix-blend-mode:multiply;fill:url(#m)"/><path d="M163.4,269.9v-4.2h5.5v4.2a6.4,6.4,0,0,1-2.8.6A6.3,6.3,0,0,1,163.4,269.9Z" style="mix-blend-mode:multiply;fill:url(#n)"/><path d="M163.4,206.7v4.2h5.5v-4.2a6.4,6.4,0,0,0-2.8-.6A6.3,6.3,0,0,0,163.4,206.7Z" style="mix-blend-mode:multiply;fill:url(#o)"/><path d="M68.4,206.7v4.2H62.9v-4.2a6.4,6.4,0,0,1,2.8-.6A6.3,6.3,0,0,1,68.4,206.7Z" style="mix-blend-mode:multiply;fill:url(#p)"/><polygon points="129.3 263.8 132.6 268.9 130.1 272.8 125.7 269.3 129.3 263.8" style="mix-blend-mode:multiply;fill:url(#q)"/><polygon points="132.6 258.8 135.9 263.8 139.9 257.8 135.9 253.8 132.6 258.8" style="mix-blend-mode:multiply;fill:url(#r)"/><polygon points="115.9 243.4 119.2 238.3 122.8 243.8 119.6 248.9 115.9 243.4" style="mix-blend-mode:multiply;fill:url(#s)"/><polygon points="115.9 233.2 112.6 238.3 108.4 231.9 111.9 227.2 115.9 233.2" style="mix-blend-mode:multiply;fill:url(#t)"/><polygon points="95.8 212.7 99.2 217.8 94.8 224.5 90.7 220.5 95.8 212.7" style="mix-blend-mode:multiply;fill:url(#u)"/><path d="M66.7,168.2l-3.8-4.7v4.2a8.2,8.2,0,0,0,2.8.6Z" style="mix-blend-mode:multiply;fill:url(#v)"/><path d="M165.1,168.2l3.8-4.7v4.2a8.2,8.2,0,0,1-2.8.6Z" style="mix-blend-mode:multiply;fill:url(#w)"/><polygon points="145.4 137.2 145.4 147.3 142.2 152.1 139.9 145.5 145.4 137.2" style="mix-blend-mode:multiply;fill:url(#x)"/><polygon points="162.7 110.3 159.4 115.6 165 119.3 169.3 111.7 162.7 110.3" style="mix-blend-mode:multiply;fill:url(#y)"/><path d="M174.4,111h-1.6a6.7,6.7,0,0,1-13.3-.4,6.8,6.8,0,0,1,4.3-6.3,12.4,12.4,0,0,1-1.2-4.4,11.3,11.3,0,1,0,14.8,10.8A15.4,15.4,0,0,1,174.4,111Z" style="fill:#636569"/><polygon points="69.4 111.9 72.8 117.3 65.9 119.8 63.5 114.5 69.4 111.9" style="mix-blend-mode:multiply;fill:url(#z)"/><path d="M70.2,100.1a12.8,12.8,0,0,1-1.9,4.3,6.5,6.5,0,0,1,4,6.1,6.7,6.7,0,0,1-13.3,0,3.8,3.8,0,0,1,.1-1h-.6a12.9,12.9,0,0,1-4-.7,8.1,8.1,0,0,0-.1,1.6,11.3,11.3,0,1,0,22.5,0A11.4,11.4,0,0,0,70.2,100.1Z" style="fill:#636569"/><path d="M41.6,190.5c22.8,44,26.8,72.9,26.8,73.4l-5.5.6c-.1-.4-4.7-28.1-27-71Z" style="fill:#3bd4ae"/><path d="M167,265.9l1.9-.2c0-.3-2-27.1,12.2-41.1,15.8-15.5,27.7-31.8,28-32.5l-5.9-2.5a301.7,301.7,0,0,1-26.6,30.5c-8.9,8.7-11.9,21-12.9,30.7a84.4,84.4,0,0,0-.3,14.9Z" style="fill:#3bd4ae"/><path d="M25.5,170.4a4.1,4.1,0,0,1,5.7,1.4l11.7,18.9-7,4.4-11.7-19A4.2,4.2,0,0,1,25.5,170.4Z" style="fill:#aaa"/><path d="M219,174.8a4,4,0,0,1,.6,5.8L205.7,198l-6.4-5.2,13.9-17.4A4.2,4.2,0,0,1,219,174.8Z" style="fill:#aaa"/><path d="M37.7,187.3l-2,2.7a.4.4,0,0,0,.1.3H36l.6-.9h0l1.8-.2-1.7,2.4c-.1,0-.1.2,0,.2H37l1.9-2.7v-.2h-.2l-1.8.2,1.1-1.5v-.2h-.1C37.8,187.2,37.7,187.2,37.7,187.3Z" style="fill:#5f5e6c"/><path d="M35.5,187.7h.1c0,.1-.1.2-.2.3h-.9l-.2-.2a.2.2,0,0,1,.2-.2h1Z" style="fill:#3bd4ae"/><path d="M207,191.9l-3.3-.6-.2.2c0,.1,0,.2.1.2l1,.2h0l1,1.5-2.9-.6-.2.2c0,.1,0,.2.1.2l3.3.6c.1,0,.2,0,.2-.1h0c.1,0,.1-.1,0-.2l-1-1.5,1.8.3c.1,0,.2,0,.2-.1h0C207.2,192.1,207.1,192,207,191.9Z" style="fill:#5f5e6c"/><path d="M205.8,190.2h-.1c-.1.1-.2.1-.2,0l-.5-.8c-.1,0-.1-.2,0-.2h.3l.5.8Z" style="fill:#3bd4ae"/></g></svg>