<svg xmlns="http://www.w3.org/2000/svg" xmlns:xlink="http://www.w3.org/1999/xlink" viewBox="0 0 231.8 404.5"><defs><linearGradient id="a" x1="2.76" y1="236.07" x2="231.02" y2="236.07" gradientUnits="userSpaceOnUse"><stop offset="0"/><stop offset="0.53" stop-color="#383642"/><stop offset="1"/></linearGradient><linearGradient id="b" x1="65.5" y1="-873.52" x2="166.3" y2="-873.52" gradientTransform="matrix(1, 0, 0, -1, 0, -509.82)" gradientUnits="userSpaceOnUse"><stop offset="0" stop-color="#f4b223"/><stop offset="1" stop-color="#f4b223"/></linearGradient><linearGradient id="c" x1="86.42" y1="-849.72" x2="91.78" y2="-849.72" gradientTransform="matrix(1, 0, 0, -1, 0, -509.82)" gradientUnits="userSpaceOnUse"><stop offset="0" stop-color="#383642"/><stop offset="1" stop-color="#383642" stop-opacity="0"/></linearGradient><linearGradient id="d" x1="86.42" y1="-798.67" x2="91.78" y2="-798.67" xlink:href="#c"/><linearGradient id="e" x1="86.42" y1="-747.42" x2="91.78" y2="-747.42" xlink:href="#c"/><linearGradient id="f" x1="-7469.54" y1="1608.1" x2="-7464.18" y2="1608.1" gradientTransform="matrix(-1, 0, 0, 1, -7324.2, -1425.2)" xlink:href="#c"/><linearGradient id="g" x1="-7469.54" y1="1659.4" x2="-7464.18" y2="1659.4" gradientTransform="matrix(-1, 0, 0, 1, -7324.2, -1425.2)" xlink:href="#c"/><linearGradient id="h" x1="-7469.54" y1="1710.45" x2="-7464.18" y2="1710.45" gradientTransform="matrix(-1, 0, 0, 1, -7324.2, -1425.2)" xlink:href="#c"/><linearGradient id="i" x1="113.43" y1="-820.12" x2="110.57" y2="-828.43" xlink:href="#c"/><linearGradient id="j" x1="120.21" y1="-823.31" x2="120.64" y2="-817" xlink:href="#c"/><linearGradient id="k" x1="113.42" y1="-769.09" x2="110.56" y2="-777.4" xlink:href="#c"/><linearGradient id="l" x1="120.21" y1="-772.29" x2="120.64" y2="-765.97" xlink:href="#c"/><linearGradient id="m" x1="113.43" y1="-717.81" x2="110.57" y2="-726.12" xlink:href="#c"/><linearGradient id="n" x1="120.21" y1="-721" x2="120.64" y2="-714.68" xlink:href="#c"/></defs><title>style--Artboard 1 copy 6</title><rect x="6" y="73.8" width="219.5" height="324.53" style="fill:url(#a)"/><path d="M83.4,189.9l-3.9-5.3c.3-.2,33.6-25,42.1-61.9,4.8-20.8-.6-25.3-8.7-32.1-5.9-5-13.3-11.1-17.7-24.7l6.2-2c3.9,11.8,9.9,16.8,15.7,21.7,8.5,7.1,16.6,13.9,10.9,38.6C119,163.5,84.9,188.8,83.4,189.9Z" style="fill:#f4b223"/><path d="M92.3,52.1a4.1,4.1,0,0,1,5.4,2.1l9,20.2-7.5,3.3-9-20.2A4.2,4.2,0,0,1,92.3,52.1Z" style="fill:#aaa"/><rect x="44.2" y="207.3" width="143.3" height="6.2" transform="translate(-115.3 145.2) rotate(-45.4)" style="fill:#f4b223"/><rect x="44.2" y="309.6" width="143.3" height="6.2" transform="translate(-188.2 175.6) rotate(-45.4)" style="fill:#f4b223"/><rect x="44.1" y="258.5" width="143.3" height="6.2" transform="translate(-151.8 160.4) rotate(-45.4)" style="fill:#f4b223"/><rect x="163" y="312.7" width="6.2" height="51.1" style="fill:#f4b223"/><path d="M0,67.6V404.5H86.4V67.6ZM65.6,370.5a6.7,6.7,0,1,1,6.7-6.7A6.7,6.7,0,0,1,65.6,370.5Zm0-51.1a6.7,6.7,0,1,1,6.7-6.7A6.7,6.7,0,0,1,65.6,319.4Zm0-51.1a6.7,6.7,0,1,1,6.7-6.7A6.7,6.7,0,0,1,65.6,268.3Zm0-51.1a6.7,6.7,0,1,1,6.7-6.7A6.7,6.7,0,0,1,65.6,217.2Zm0-51.2a6.7,6.7,0,1,1,6.7-6.7A6.7,6.7,0,0,1,65.6,166Zm0-51.1a6.7,6.7,0,1,1,6.7-6.7A6.7,6.7,0,0,1,65.6,114.9Z" style="fill:#383642"/><path d="M65.6,352.6a11.3,11.3,0,1,0,11.3,11.3A11.4,11.4,0,0,0,65.6,352.6Zm0,17.9a6.7,6.7,0,1,1,6.7-6.7A6.7,6.7,0,0,1,65.6,370.5Z" style="fill:#636569"/><path d="M65.6,301.5a11.3,11.3,0,1,0,11.3,11.3A11.4,11.4,0,0,0,65.6,301.5Zm0,17.9a6.7,6.7,0,1,1,6.7-6.7A6.7,6.7,0,0,1,65.6,319.4Z" style="fill:#636569"/><path d="M65.6,250.3a11.3,11.3,0,1,0,11.3,11.3A11.4,11.4,0,0,0,65.6,250.3Zm0,18a6.7,6.7,0,1,1,6.7-6.7A6.7,6.7,0,0,1,65.6,268.3Z" style="fill:#636569"/><path d="M65.6,199.2a11.3,11.3,0,1,0,11.3,11.3A11.4,11.4,0,0,0,65.6,199.2Zm0,18a6.7,6.7,0,1,1,6.7-6.7A6.7,6.7,0,0,1,65.6,217.2Z" style="fill:#636569"/><path d="M65.6,148.1a11.3,11.3,0,1,0,11.3,11.3A11.4,11.4,0,0,0,65.6,148.1Zm0,17.9a6.7,6.7,0,1,1,6.7-6.7A6.7,6.7,0,0,1,65.6,166Z" style="fill:#636569"/><path d="M65.6,97a11.3,11.3,0,1,0,11.3,11.3A11.4,11.4,0,0,0,65.6,97Zm0,17.9a6.7,6.7,0,1,1,6.7-6.7A6.7,6.7,0,0,1,65.6,114.9Z" style="fill:#636569"/><path d="M231.8,404.5V67.6H145.4V404.5ZM166.1,101.6a6.7,6.7,0,1,1-6.7,6.7A6.7,6.7,0,0,1,166.1,101.6Zm0,51.1a6.7,6.7,0,1,1-6.7,6.7A6.7,6.7,0,0,1,166.1,152.7Zm0,51.1a6.7,6.7,0,1,1-6.7,6.7A6.7,6.7,0,0,1,166.1,203.8Zm0,51.1a6.7,6.7,0,1,1-6.7,6.7A6.7,6.7,0,0,1,166.1,254.9Zm0,51.2a6.7,6.7,0,1,1-6.7,6.7A6.7,6.7,0,0,1,166.1,306.1Zm0,51.1a6.7,6.7,0,1,1-6.7,6.7A6.7,6.7,0,0,1,166.1,357.2Z" style="fill:#383642"/><path d="M166.1,119.5a11.3,11.3,0,1,0-11.3-11.3A11.4,11.4,0,0,0,166.1,119.5Zm0-17.9a6.7,6.7,0,1,1-6.7,6.7A6.7,6.7,0,0,1,166.1,101.6Z" style="fill:#636569"/><path d="M166.1,170.7a11.3,11.3,0,1,0-11.3-11.3A11.4,11.4,0,0,0,166.1,170.7Zm0-18a6.7,6.7,0,1,1-6.7,6.7A6.7,6.7,0,0,1,166.1,152.7Z" style="fill:#636569"/><path d="M166.1,221.8a11.3,11.3,0,1,0-11.3-11.3A11.4,11.4,0,0,0,166.1,221.8Zm0-18a6.7,6.7,0,1,1-6.7,6.7A6.7,6.7,0,0,1,166.1,203.8Z" style="fill:#636569"/><path d="M166.1,272.9a11.3,11.3,0,1,0-11.3-11.3A11.4,11.4,0,0,0,166.1,272.9Zm0-18a6.7,6.7,0,1,1-6.7,6.7A6.7,6.7,0,0,1,166.1,254.9Z" style="fill:#636569"/><path d="M166.1,324a11.3,11.3,0,1,0-11.3-11.3A11.4,11.4,0,0,0,166.1,324Zm0-17.9a6.7,6.7,0,1,1-6.7,6.7A6.7,6.7,0,0,1,166.1,306.1Z" style="fill:#636569"/><path d="M166.1,375.1a11.3,11.3,0,1,0-11.3-11.3A11.4,11.4,0,0,0,166.1,375.1Zm0-17.9a6.7,6.7,0,1,1-6.7,6.7A6.7,6.7,0,0,1,166.1,357.2Z" style="fill:#636569"/><circle cx="166.3" cy="363.7" r="2.9" style="fill:#f4b223"/><circle cx="166.3" cy="312.7" r="2.9" style="fill:#f4b223"/><circle cx="166.2" cy="261.5" r="3" style="fill:#f4b223"/><circle cx="65.5" cy="363.7" r="2.9" style="fill:#f4b223"/><circle cx="65.4" cy="312.7" r="3" style="fill:#f4b223"/><circle cx="65.4" cy="261.5" r="3" style="fill:#f4b223"/><circle cx="166.2" cy="210.6" r="3" style="fill:#f4b223"/><circle cx="65.4" cy="210.5" r="3" style="fill:#f4b223"/><circle cx="166.2" cy="159.3" r="3" style="fill:#f4b223"/><rect x="65.5" y="309.6" width="100.6" height="6.2" style="fill:#f4b223"/><rect x="65.5" y="258.5" width="100.6" height="6.2" style="fill:#f4b223"/><rect x="65.5" y="207.3" width="100.6" height="6.2" style="fill:#f4b223"/><line x1="65.5" y1="363.7" x2="166.3" y2="363.7" style="fill:none;stroke-miterlimit:10;stroke-width:6.15210008621216px;stroke:url(#b)"/><polygon points="86.4 338.1 86.4 346.8 91.8 341.4 91.4 333 86.4 338.1" style="fill:url(#c)"/><polygon points="86.4 287 86.4 295.8 91.8 290.4 91.4 281.9 86.4 287" style="fill:url(#d)"/><polygon points="86.4 235.8 86.4 244.5 91.8 239.1 91.4 230.7 86.4 235.8" style="fill:url(#e)"/><polygon points="145.3 184.7 145.3 176 140 181.4 140.3 189.8 145.3 184.7" style="fill:url(#f)"/><polygon points="145.3 236 145.3 227.3 140 232.7 140.3 241.1 145.3 236" style="fill:url(#g)"/><polygon points="145.3 287.1 145.3 278.3 140 283.7 140.3 292.2 145.3 287.1" style="fill:url(#h)"/><polygon points="104.8 319.5 108.4 315.8 117 315.8 112.4 320.5 104.8 319.5" style="fill:url(#i)"/><polygon points="114.5 309.6 118 306 126.7 306 123.2 309.6 114.5 309.6" style="fill:url(#j)"/><polygon points="104.8 268.4 108.4 264.7 117 264.8 112.4 269.5 104.8 268.4" style="fill:url(#k)"/><polygon points="114.5 258.6 118 255 126.7 255 123.2 258.6 114.5 258.6" style="fill:url(#l)"/><polygon points="104.8 217.2 108.4 213.4 117 213.5 112.4 218.2 104.8 217.2" style="fill:url(#m)"/><polygon points="114.5 207.3 118 203.7 126.7 203.7 123.2 207.3 114.5 207.3" style="fill:url(#n)"/><path d="M167.6,163.3a5.5,5.5,0,0,1-2.2-.1,6.9,6.9,0,0,1-4-2.6c4.2-5.5,28.4-38.8,24.3-69.6C181.1,56.7,155.2,8.3,155,7.8l5.8-3.1c1.1,2,26.7,49.9,31.5,85.4,2.6,19.1-4.7,38.6-11.3,51.6A182.5,182.5,0,0,1,167.6,163.3Z" style="fill:#f4b223"/><path d="M157.3,3.6a4.2,4.2,0,0,1,5.5,2.1L172,26l-7.5,3.4L155.3,9.1A4.1,4.1,0,0,1,157.3,3.6Z" style="fill:#aaa"/><path d="M102.1,70.4l-2.4,2.4a.2.2,0,0,0,.3.3l.7-.7h1.7l-1.9,2.1a.2.2,0,0,0,.3.3l2.4-2.4c.1-.1.1-.1,0-.2h0c0-.1-.1-.1-.2-.1h-1.9l1.3-1.3c.1-.1.1-.1,0-.2h0C102.3,70.3,102.2,70.3,102.1,70.4Z" style="fill:#5f5e6c"/><path d="M100,70.4h0c0,.2-.1.3-.2.3h-.9a.2.2,0,0,1,0-.4H100Z" style="fill:#f4b223"/><path d="M167.6,22.2l-2.4,2.4a.2.2,0,0,0,.3.3l.7-.7h1.7l-2.1,2.1a.2.2,0,0,0,0,.3h.3l2.4-2.4c.1-.1.1-.1,0-.2h0c0-.1-.1-.1-.2-.1h-1.9l1.3-1.3c.1-.1.1-.1,0-.2h0C167.8,22.2,167.6,22.2,167.6,22.2Z" style="fill:#5f5e6c"/><path d="M165.4,22.3h0c0,.2-.1.3-.2.3h-.9a.2.2,0,0,1,0-.4h.9C165.3,22.1,165.4,22.2,165.4,22.3Z" style="fill:#f4b223"/></svg>