<svg xmlns="http://www.w3.org/2000/svg" xmlns:xlink="http://www.w3.org/1999/xlink" viewBox="0 0 231.8 404.5"><defs><linearGradient id="a" x1="2.9" y1="235.44" x2="231.16" y2="235.44" gradientUnits="userSpaceOnUse"><stop offset="0"/><stop offset="0.53" stop-color="#383642"/><stop offset="1"/></linearGradient><linearGradient id="b" x1="64.11" y1="287.2" x2="167.7" y2="287.2" gradientUnits="userSpaceOnUse"><stop offset="0" stop-color="#40a2d3"/><stop offset="1" stop-color="#40a2d3"/></linearGradient><linearGradient id="c" x1="64.11" y1="287.2" x2="167.54" y2="287.2" xlink:href="#b"/><linearGradient id="d" x1="65.5" y1="363.72" x2="166.31" y2="363.72" xlink:href="#b"/><linearGradient id="e" x1="62.43" y1="338.24" x2="68.58" y2="338.24" xlink:href="#b"/><linearGradient id="f" x1="163.07" y1="338.24" x2="169.22" y2="338.24" xlink:href="#b"/><linearGradient id="g" x1="117.18" y1="287.73" x2="124.32" y2="291.51" gradientUnits="userSpaceOnUse"><stop offset="0" stop-color="#383642"/><stop offset="1" stop-color="#383642" stop-opacity="0"/></linearGradient><linearGradient id="h" x1="-9833.26" y1="-4011.82" x2="-9826.12" y2="-4008.04" gradientTransform="translate(-9718.7 -3725.1) rotate(180)" xlink:href="#g"/><linearGradient id="i" x1="204.95" y1="727.28" x2="273.12" y2="727.28" gradientTransform="translate(-240.5 -469.3) rotate(-12.6)" xlink:href="#b"/><linearGradient id="j" x1="-20.85" y1="-28.25" x2="19.82" y2="-28.25" gradientTransform="translate(60.6 202.5) rotate(4.4)" xlink:href="#b"/><linearGradient id="k" x1="78.61" y1="96.42" x2="79.22" y2="96.42" gradientTransform="matrix(0.03, -1, 1, 0.03, -23.91, 173.13)" xlink:href="#b"/><linearGradient id="l" x1="60.58" y1="148.71" x2="61.19" y2="148.71" gradientTransform="translate(37.4 -15.5) rotate(-11.2)" xlink:href="#b"/></defs><title>style--Artboard 1 copy 17</title><rect x="6.2" y="73.2" width="219.5" height="324.53" style="fill:url(#a)"/><line x1="65.5" y1="312.8" x2="166.3" y2="261.6" style="fill:none;stroke-miterlimit:10;stroke-width:6.1520928144455px;stroke:url(#b)"/><line x1="65.5" y1="261.6" x2="166.1" y2="312.8" style="fill:none;stroke-miterlimit:10;stroke-width:6.1520928144455px;stroke:url(#c)"/><line x1="65.5" y1="363.7" x2="166.3" y2="363.7" style="fill:none;stroke-miterlimit:10;stroke-width:6.1520928144455px;stroke:url(#d)"/><path d="M0,67.7V404.5H86.4V67.7ZM65.7,370.5a6.6,6.6,0,0,1-6.7-6.6,6.7,6.7,0,1,1,13.3,0A6.6,6.6,0,0,1,65.7,370.5Zm0-51.1a6.7,6.7,0,1,1,6.6-6.6A6.7,6.7,0,0,1,65.7,319.4Zm0-51.1a6.7,6.7,0,1,1,6.6-6.7A6.7,6.7,0,0,1,65.7,268.3Zm0-51.1a6.7,6.7,0,0,1-6.7-6.7,6.7,6.7,0,1,1,6.7,6.7Zm0-51.1a6.7,6.7,0,1,1,6.6-6.7A6.7,6.7,0,0,1,65.7,166.1Zm0-51.2a6.6,6.6,0,0,1-6.7-6.6,6.7,6.7,0,1,1,13.3,0A6.6,6.6,0,0,1,65.7,114.9Z" style="fill:#383642"/><path d="M65.7,352.6a11.3,11.3,0,1,0,11.2,11.3A11.2,11.2,0,0,0,65.7,352.6Zm0,17.9a6.6,6.6,0,0,1-6.7-6.6,6.7,6.7,0,1,1,13.3,0A6.6,6.6,0,0,1,65.7,370.5Z" style="fill:#636569"/><path d="M65.7,301.5a11.3,11.3,0,1,0,11.2,11.3A11.2,11.2,0,0,0,65.7,301.5Zm0,17.9a6.7,6.7,0,1,1,6.6-6.6A6.7,6.7,0,0,1,65.7,319.4Z" style="fill:#636569"/><path d="M65.7,250.4a11.3,11.3,0,1,0,11.2,11.2A11.2,11.2,0,0,0,65.7,250.4Zm0,17.9a6.7,6.7,0,1,1,6.6-6.7A6.7,6.7,0,0,1,65.7,268.3Z" style="fill:#636569"/><path d="M65.7,199.2a11.3,11.3,0,1,0,11.2,11.3A11.3,11.3,0,0,0,65.7,199.2Zm0,18a6.7,6.7,0,0,1-6.7-6.7,6.7,6.7,0,1,1,6.7,6.7Z" style="fill:#636569"/><path d="M65.7,148.1a11.3,11.3,0,1,0,11.2,11.3A11.3,11.3,0,0,0,65.7,148.1Zm0,18a6.7,6.7,0,1,1,6.6-6.7A6.7,6.7,0,0,1,65.7,166.1Z" style="fill:#636569"/><path d="M65.7,97a11.3,11.3,0,1,0,11.2,11.3A11.2,11.2,0,0,0,65.7,97Zm0,17.9a6.6,6.6,0,0,1-6.7-6.6,6.7,6.7,0,1,1,13.3,0A6.6,6.6,0,0,1,65.7,114.9Z" style="fill:#636569"/><path d="M231.8,404.5V67.7H145.4V404.5ZM166.1,101.6a6.7,6.7,0,0,1,6.7,6.7,6.7,6.7,0,1,1-6.7-6.7Zm0,51.1a6.7,6.7,0,1,1-6.6,6.7A6.7,6.7,0,0,1,166.1,152.7Zm0,51.2a6.6,6.6,0,0,1,6.7,6.6,6.7,6.7,0,1,1-13.3,0A6.6,6.6,0,0,1,166.1,203.9Zm0,51.1a6.7,6.7,0,1,1-6.6,6.6A6.7,6.7,0,0,1,166.1,255Zm0,51.1a6.7,6.7,0,1,1-6.6,6.7A6.7,6.7,0,0,1,166.1,306.1Zm0,51.1a6.7,6.7,0,0,1,6.7,6.7,6.7,6.7,0,1,1-6.7-6.7Z" style="fill:#383642"/><path d="M166.1,119.6a11.3,11.3,0,1,0-11.2-11.3A11.3,11.3,0,0,0,166.1,119.6Zm0-18a6.7,6.7,0,0,1,6.7,6.7,6.7,6.7,0,1,1-6.7-6.7Z" style="fill:#636569"/><path d="M166.1,170.7a11.3,11.3,0,1,0-11.2-11.3A11.3,11.3,0,0,0,166.1,170.7Zm0-18a6.7,6.7,0,1,1-6.6,6.7A6.7,6.7,0,0,1,166.1,152.7Z" style="fill:#636569"/><path d="M166.1,221.8a11.3,11.3,0,1,0-11.2-11.3A11.3,11.3,0,0,0,166.1,221.8Zm0-17.9a6.6,6.6,0,0,1,6.7,6.6,6.7,6.7,0,1,1-13.3,0A6.6,6.6,0,0,1,166.1,203.9Z" style="fill:#636569"/><path d="M166.1,272.9a11.3,11.3,0,1,0-11.2-11.3A11.2,11.2,0,0,0,166.1,272.9Zm0-17.9a6.7,6.7,0,1,1-6.6,6.6A6.7,6.7,0,0,1,166.1,255Z" style="fill:#636569"/><path d="M166.1,324a11.3,11.3,0,1,0-11.2-11.2A11.2,11.2,0,0,0,166.1,324Zm0-17.9a6.7,6.7,0,1,1-6.6,6.7A6.7,6.7,0,0,1,166.1,306.1Z" style="fill:#636569"/><path d="M166.1,375.2a11.3,11.3,0,1,0-11.2-11.3A11.3,11.3,0,0,0,166.1,375.2Zm0-18a6.7,6.7,0,0,1,6.7,6.7,6.7,6.7,0,1,1-6.7-6.7Z" style="fill:#636569"/><circle cx="166.3" cy="363.7" r="2.9" style="fill:#40a2d3"/><circle cx="65.5" cy="363.7" r="2.9" style="fill:#40a2d3"/><line x1="65.5" y1="363.7" x2="65.5" y2="312.8" style="fill:none;stroke-miterlimit:10;stroke-width:6.1520928144455px;stroke:url(#e)"/><line x1="166.1" y1="363.7" x2="166.1" y2="312.8" style="fill:none;stroke-miterlimit:10;stroke-width:6.1520928144455px;stroke:url(#f)"/><circle cx="65.7" cy="312.7" r="3" style="fill:#40a2d3"/><circle cx="166" cy="312.7" r="3" style="fill:#40a2d3"/><circle cx="65.7" cy="262.2" r="3" style="fill:#40a2d3"/><circle cx="166" cy="262.2" r="3" style="fill:#40a2d3"/><polygon points="115.9 290.7 122.7 287.2 129.9 290.8 124.4 295 115.9 290.7" style="fill:url(#g)"/><polygon points="115.9 283.7 109.1 287.2 101.9 283.6 107.3 279.4 115.9 283.7" style="fill:url(#h)"/><path d="M164.7,262.3s68.5-30.7-8.6-60.6-27.2-85.8-27.2-85.8" style="fill:none;stroke-miterlimit:10;stroke-width:6.1520928144455px;stroke:url(#i)"/><path d="M139.3,104.7a4.1,4.1,0,0,0-5.8.4l-14.6,16.8,6.2,5.4,14.6-16.8A4.1,4.1,0,0,0,139.3,104.7Z" style="fill:#aaa"/><path d="M65.4,261.8s-50.3-34.4-4.2-89.3,6.6-85.1,6.6-85.1" style="fill:none;stroke-miterlimit:10;stroke-width:6.1520928144455px;stroke:url(#j)"/><path d="M63.8,80.4a4.2,4.2,0,0,1,5.8.9l13,17.9L75.9,104l-13-17.9A4.1,4.1,0,0,1,63.8,80.4Z" style="fill:#aaa"/><path d="M77.9,96.9,76,99.8a.4.4,0,0,0,.1.3h.3l.5-.9h0l1.7-.3L77,101.2a.4.4,0,0,0,.1.3h.3l1.8-2.8v-.2H79l-1.8.3,1-1.6v-.2h-.1C78.1,96.8,77.9,96.8,77.9,96.9Z" style="fill:#5f5e6c"/><path d="M75.8,97.4h0c.1.2,0,.3-.1.3h-.9c-.2.1-.3,0-.3-.1s0-.2.2-.3h1.1Z" style="fill:url(#k)"/><path d="M127.2,121.1,124,120h-.2c-.1.1,0,.2.1.3l.9.3h0l.8,1.6-2.7-1c-.1,0-.3,0-.3.1a.4.4,0,0,0,.1.3l3.1,1.1h.3v-.2l-.7-1.7,1.8.6h.3Z" style="fill:#5f5e6c"/><path d="M126.3,119.2H126l-.4-.9a.4.4,0,0,1,.1-.3h.3l.3.9Z" style="fill:url(#l)"/></svg>