<svg xmlns="http://www.w3.org/2000/svg" xmlns:xlink="http://www.w3.org/1999/xlink" viewBox="0 0 231.8 404.5"><defs><linearGradient id="a" x1="2.86" y1="-1615.89" x2="231.11" y2="-1615.89" gradientTransform="matrix(1, 0, 0, -1, 0, -1379.84)" gradientUnits="userSpaceOnUse"><stop offset="0"/><stop offset="0.53" stop-color="#383642"/><stop offset="1"/></linearGradient><linearGradient id="b" x1="-4598.52" y1="3825.4" x2="-4498.22" y2="3825.4" gradientTransform="matrix(-1, 0, 0, 1, -4432.52, -3666)" gradientUnits="userSpaceOnUse"><stop offset="0" stop-color="#ff595a"/><stop offset="1" stop-color="#ff595a"/></linearGradient><linearGradient id="c" x1="116.34" y1="-1538.27" x2="110.23" y2="-1544.75" gradientTransform="matrix(1, 0, 0, -1, 0, -1379.84)" gradientUnits="userSpaceOnUse"><stop offset="0" stop-color="#383642"/><stop offset="1" stop-color="#383642" stop-opacity="0"/></linearGradient><linearGradient id="d" x1="140.8" y1="-1616.41" x2="134.4" y2="-1622.4" xlink:href="#c"/><linearGradient id="e" x1="146.64" y1="-1617.59" x2="143.12" y2="-1609.29" xlink:href="#c"/><linearGradient id="f" x1="90.04" y1="-1616.87" x2="86.32" y2="-1608.09" xlink:href="#c"/><linearGradient id="g" x1="89.16" y1="-1615.9" x2="96.78" y2="-1621.22" xlink:href="#c"/><linearGradient id="h" x1="116.83" y1="-1589.47" x2="109.26" y2="-1596.71" xlink:href="#c"/><linearGradient id="i" x1="115.59" y1="-1590.14" x2="120.98" y2="-1584.81" xlink:href="#c"/><linearGradient id="j" x1="87.09" y1="-1569.97" x2="88.68" y2="-1557.1" xlink:href="#c"/><linearGradient id="k" x1="90.19" y1="-1566.66" x2="96.08" y2="-1569.85" xlink:href="#c"/><linearGradient id="l" x1="139.65" y1="-1563.59" x2="134.4" y2="-1558.34" xlink:href="#c"/><linearGradient id="m" x1="148.18" y1="-1557.83" x2="140.75" y2="-1564.49" xlink:href="#c"/><linearGradient id="n" x1="115.8" y1="-1539.28" x2="115.38" y2="-1544.7" xlink:href="#c"/><linearGradient id="o" x1="143.98" y1="-1563.75" x2="145.29" y2="-1570.48" xlink:href="#c"/><linearGradient id="p" x1="116.5" y1="-1542.31" x2="115.95" y2="-1534.08" xlink:href="#c"/><linearGradient id="q" x1="83.27" y1="-1508.5" x2="91.57" y2="-1513.41" xlink:href="#c"/><linearGradient id="r" x1="147.08" y1="-1505.52" x2="140.3" y2="-1514" xlink:href="#c"/><linearGradient id="s" x1="160.24" y1="-1493.31" x2="165.37" y2="-1489.49" xlink:href="#c"/><linearGradient id="t" x1="71.52" y1="-1494.33" x2="66" y2="-1488.67" xlink:href="#c"/><linearGradient id="u" x1="72.12" y1="-1545.34" x2="67.29" y2="-1542.61" xlink:href="#c"/><linearGradient id="v" x1="-7554.48" y1="-1545.32" x2="-7559.31" y2="-1542.6" gradientTransform="translate(-7394.9 -1379.8) rotate(180)" xlink:href="#c"/><linearGradient id="w" x1="159.21" y1="-1597.73" x2="163.97" y2="-1592.18" xlink:href="#c"/><linearGradient id="x" x1="-6576.97" y1="-2811.83" x2="-6572.21" y2="-2806.28" gradientTransform="matrix(-0.02, -1, -1, 0.02, -2869.38, -6302.25)" xlink:href="#c"/><linearGradient id="y" x1="159.18" y1="-1648.76" x2="163.94" y2="-1643.21" xlink:href="#c"/><linearGradient id="z" x1="-6628.04" y1="-2810.79" x2="-6623.28" y2="-2805.24" gradientTransform="matrix(-0.02, -1, -1, 0.02, -2869.38, -6302.25)" xlink:href="#c"/><linearGradient id="aa" x1="-1036.35" y1="4857.96" x2="-1043.55" y2="4851.08" gradientTransform="matrix(0, 1, 1, 0, -4741.33, 1298.59)" xlink:href="#c"/><linearGradient id="ab" x1="-1037.26" y1="4857.21" x2="-1031.8" y2="4862.59" gradientTransform="matrix(0, 1, 1, 0, -4741.33, 1298.59)" xlink:href="#c"/><linearGradient id="ac" x1="65.95" y1="-1700.74" x2="65.95" y2="-1695.19" xlink:href="#c"/><linearGradient id="ad" x1="-7546.24" y1="-1700.74" x2="-7546.24" y2="-1695.19" gradientTransform="translate(-7380.5 -1379.8) rotate(180)" xlink:href="#c"/><linearGradient id="ae" x1="166.16" y1="-1735.67" x2="167.48" y2="-1739.53" xlink:href="#c"/><linearGradient id="af" x1="-7771.33" y1="-1735.66" x2="-7770.01" y2="-1739.52" gradientTransform="translate(-7705.8 -1379.8) rotate(180)" xlink:href="#c"/><linearGradient id="ag" x1="91.55" y1="-1666.88" x2="85.98" y2="-1671.47" xlink:href="#c"/><linearGradient id="ah" x1="83.83" y1="-1661.23" x2="87.69" y2="-1662.45" xlink:href="#c"/><linearGradient id="ai" x1="90.16" y1="-1667.84" x2="97.07" y2="-1660.32" xlink:href="#c"/><linearGradient id="aj" x1="144.87" y1="-1666.82" x2="142.73" y2="-1658.65" xlink:href="#c"/><linearGradient id="ak" x1="141.62" y1="-1666.89" x2="134.96" y2="-1672.93" xlink:href="#c"/><linearGradient id="al" x1="116.02" y1="-1693.85" x2="109.84" y2="-1685.89" xlink:href="#c"/><linearGradient id="am" x1="115.76" y1="-1691.59" x2="120.4" y2="-1696.82" xlink:href="#c"/><linearGradient id="an" x1="114.88" y1="-1540.1" x2="121.36" y2="-1533.38" xlink:href="#c"/></defs><title>style--Artboard 1 copy 11</title><rect x="6.1" y="73.8" width="219.5" height="324.5" style="fill:url(#a)"/><rect x="140.9" y="269" width="29.5" height="6.2" transform="translate(-147.5 192.5) rotate(-45.5)" style="fill:#ff595a"/><rect x="62.6" y="312.6" width="6.2" height="51.1" style="fill:#ff595a"/><rect x="44.4" y="258.5" width="143.1" height="6.2" transform="translate(-151.9 161.1) rotate(-45.5)" style="fill:#ff595a"/><polygon points="84.2 131.4 63.2 110.4 67.5 106.1 88.6 127.3 84.2 131.4" style="fill:#ff595a"/><rect x="112.7" y="138.9" width="6.2" height="143.09" transform="translate(-114.2 141.4) rotate(-44.5)" style="fill:#ff595a"/><rect x="140.7" y="166.8" width="29.6" height="6.2" transform="translate(-74.6 159.7) rotate(-45)" style="fill:#ff595a"/><rect x="140.7" y="115.7" width="29.7" height="6.2" transform="translate(-38.4 144.7) rotate(-45)" style="fill:#ff595a"/><rect x="73.1" y="206.1" width="6.2" height="29.6" transform="translate(-133.9 118.5) rotate(-45)" style="fill:#ff595a"/><rect x="73.1" y="257.2" width="6.2" height="29.6" transform="translate(-170 133.5) rotate(-45)" style="fill:#ff595a"/><rect x="162.9" y="312.6" width="6.2" height="51.1" style="fill:#ff595a"/><path d="M0,67.6V404.5H86.4V67.6ZM65.6,370.5a6.7,6.7,0,1,1,6.7-6.7A6.7,6.7,0,0,1,65.6,370.5Zm0-51.1a6.7,6.7,0,1,1,6.7-6.7A6.7,6.7,0,0,1,65.6,319.4Zm0-51.1a6.7,6.7,0,1,1,6.7-6.7A6.7,6.7,0,0,1,65.6,268.3Zm0-51.1a6.7,6.7,0,1,1,6.7-6.7A6.7,6.7,0,0,1,65.6,217.2Zm0-51.2a6.7,6.7,0,1,1,6.7-6.7A6.7,6.7,0,0,1,65.6,166Zm0-51.1a6.7,6.7,0,1,1,6.7-6.7A6.7,6.7,0,0,1,65.6,114.9Z" style="fill:#383642"/><path d="M65.6,352.6a11.3,11.3,0,1,0,11.3,11.3A11.2,11.2,0,0,0,65.6,352.6Zm0,17.9a6.7,6.7,0,1,1,6.7-6.7A6.7,6.7,0,0,1,65.6,370.5Z" style="fill:#636569"/><path d="M65.6,301.5a11.3,11.3,0,1,0,11.3,11.3A11.2,11.2,0,0,0,65.6,301.5Zm0,17.9a6.7,6.7,0,1,1,6.7-6.7A6.7,6.7,0,0,1,65.6,319.4Z" style="fill:#636569"/><path d="M65.6,250.3a11.3,11.3,0,1,0,11.3,11.3A11.4,11.4,0,0,0,65.6,250.3Zm0,18a6.7,6.7,0,1,1,6.7-6.7A6.7,6.7,0,0,1,65.6,268.3Z" style="fill:#636569"/><path d="M65.6,199.2a11.3,11.3,0,1,0,11.3,11.3A11.4,11.4,0,0,0,65.6,199.2Zm0,18a6.7,6.7,0,1,1,6.7-6.7A6.7,6.7,0,0,1,65.6,217.2Z" style="fill:#636569"/><path d="M65.6,148.1a11.3,11.3,0,1,0,11.3,11.3A11.2,11.2,0,0,0,65.6,148.1Zm0,17.9a6.7,6.7,0,1,1,6.7-6.7A6.7,6.7,0,0,1,65.6,166Z" style="fill:#636569"/><path d="M65.6,97a11.3,11.3,0,1,0,11.3,11.3A11.4,11.4,0,0,0,65.6,97Zm0,17.9a6.7,6.7,0,1,1,6.7-6.7A6.7,6.7,0,0,1,65.6,114.9Z" style="fill:#636569"/><path d="M231.8,404.5V67.6H145.4V404.5ZM166.1,101.6a6.7,6.7,0,1,1-6.7,6.7A6.7,6.7,0,0,1,166.1,101.6Zm0,51.1a6.7,6.7,0,1,1-6.7,6.7A6.7,6.7,0,0,1,166.1,152.7Zm0,51.1a6.7,6.7,0,1,1-6.7,6.7A6.7,6.7,0,0,1,166.1,203.8Zm0,51.1a6.7,6.7,0,1,1-6.7,6.7A6.7,6.7,0,0,1,166.1,254.9Zm0,51.2a6.7,6.7,0,1,1-6.7,6.7A6.7,6.7,0,0,1,166.1,306.1Zm0,51.1a6.7,6.7,0,1,1-6.7,6.7A6.7,6.7,0,0,1,166.1,357.2Z" style="fill:#383642"/><path d="M166.1,119.5a11.3,11.3,0,1,0-11.3-11.3A11.4,11.4,0,0,0,166.1,119.5Zm0-17.9a6.7,6.7,0,1,1-6.7,6.7A6.7,6.7,0,0,1,166.1,101.6Z" style="fill:#636569"/><path d="M166.1,170.7a11.3,11.3,0,1,0-11.3-11.3A11.4,11.4,0,0,0,166.1,170.7Zm0-18a6.7,6.7,0,1,1-6.7,6.7A6.7,6.7,0,0,1,166.1,152.7Z" style="fill:#636569"/><path d="M166.1,221.8a11.3,11.3,0,1,0-11.3-11.3A11.4,11.4,0,0,0,166.1,221.8Zm0-18a6.7,6.7,0,1,1-6.7,6.7A6.7,6.7,0,0,1,166.1,203.8Z" style="fill:#636569"/><path d="M166.1,272.9a11.3,11.3,0,1,0-11.3-11.3A11.4,11.4,0,0,0,166.1,272.9Zm0-18a6.7,6.7,0,1,1-6.7,6.7A6.7,6.7,0,0,1,166.1,254.9Z" style="fill:#636569"/><path d="M166.1,324a11.3,11.3,0,1,0-11.3-11.3A11.4,11.4,0,0,0,166.1,324Zm0-17.9a6.7,6.7,0,1,1-6.7,6.7A6.7,6.7,0,0,1,166.1,306.1Z" style="fill:#636569"/><path d="M166.1,375.1a11.3,11.3,0,1,0-11.3-11.3A11.4,11.4,0,0,0,166.1,375.1Zm0-17.9a6.7,6.7,0,1,1-6.7,6.7A6.7,6.7,0,0,1,166.1,357.2Z" style="fill:#636569"/><polygon points="163.8 365.8 86.4 286.6 86.4 277.8 168.2 361.5 163.8 365.8" style="fill:#ff595a"/><polygon points="163.8 314.7 86.4 235.6 86.4 226.8 168.2 310.4 163.8 314.7" style="fill:#ff595a"/><polygon points="67.9 212.6 63.5 208.3 145.3 124.6 145.3 133.4 67.9 212.6" style="fill:#ff595a"/><polygon points="67.9 263.7 63.5 259.4 145.3 175.7 145.3 184.5 67.9 263.7" style="fill:#ff595a"/><polygon points="163.8 212.6 86.4 133.8 86.4 125 168.2 208.3 163.8 212.6" style="fill:#ff595a"/><rect x="65.7" y="156.3" width="100.3" height="6.2" style="fill:url(#b)"/><rect x="143.3" y="213.8" width="6.2" height="55.7" transform="translate(-127.3 171.8) rotate(-44.5)" style="fill:#ff595a"/><polygon points="67.9 314.8 63.5 310.4 130.5 242.1 134.9 246.4 67.9 314.8" style="fill:#ff595a"/><polygon points="67.9 365.8 63.5 361.5 145.3 278.2 145.3 287 67.9 365.8" style="fill:#ff595a"/><circle cx="65.7" cy="363.7" r="3.1" style="fill:#ff595a"/><circle cx="166" cy="363.7" r="3.1" style="fill:#ff595a"/><circle cx="166.1" cy="312.6" r="3" style="fill:#ff595a"/><circle cx="65.7" cy="312.6" r="3.1" style="fill:#ff595a"/><circle cx="65.6" cy="261.5" r="3" style="fill:#ff595a"/><circle cx="166" cy="261.5" r="3.1" style="fill:#ff595a"/><circle cx="65.6" cy="210.5" r="3" style="fill:#ff595a"/><circle cx="166" cy="210.5" r="3.1" style="fill:#ff595a"/><circle cx="166.1" cy="159.4" r="3" style="fill:#ff595a"/><circle cx="65.7" cy="159.4" r="3.1" style="fill:#ff595a"/><polyline points="115.7 163.7 114.6 162.5 108.3 162.5 105.9 164.9 110.9 168.6 115.7 163.7" style="fill:url(#c)"/><path d="M163.6,109.5l2.2,1.8,1.2.5c2.7-3.4,26.4-33,31.5-49.6s8.2-17.9-9.7-54.9l-5.1,2.5c17,35.1,14.3,34.4,9.3,50.7s-27.2,43.6-30.3,47.5A6,6,0,0,0,163.6,109.5Z" style="fill:#ff595a"/><polygon points="130.5 242.1 136.6 236 140.9 240.4 135 246.5 130.5 242.1" style="fill:url(#d)"/><polygon points="140.9 231.6 145.3 236 145.3 227.2 140.9 231.6" style="fill:url(#e)"/><polygon points="86.4 236.1 90.9 231.4 86.4 226.8 86.4 236.1" style="fill:url(#f)"/><polygon points="90.9 240.2 95.2 235.8 100.5 241.2 95.7 245.1 90.9 240.2" style="fill:url(#g)"/><polygon points="111.4 210.4 115.7 214.7 110.5 220.1 106.1 215.7 111.4 210.4" style="fill:url(#h)"/><polygon points="115.7 206 121.1 200.4 125.4 204.9 120 210.4 115.7 206" style="fill:url(#i)"/><polygon points="86.4 184.9 90.7 180.5 86.4 176.2 86.4 184.9" style="fill:url(#j)"/><polygon points="90.7 189.3 95 184.9 99.1 189 94.9 193.9 90.7 189.3" style="fill:url(#k)"/><polygon points="140.7 180.4 136.3 184.9 131.6 179.9 136.1 175.7 140.7 180.4" style="fill:url(#l)"/><polygon points="145.3 175.7 145.3 184.5 138.1 191.9 133.9 187.4 145.3 175.7" style="fill:url(#m)"/><polygon points="123.2 162.5 126.6 165.9 121.5 169.6 115.7 163.7 109.8 169.7 103.9 167 108.3 162.5 123.2 162.5" style="fill:url(#n)"/><polygon points="145.3 184.5 149.6 189.4 145 193.5 140.5 189.4 145.3 184.5" style="fill:url(#o)"/><polygon points="108.5 156.3 122.9 156.3 125.9 153.3 120.5 150 115.7 154.9 110.7 149.8 105.9 153.7 108.5 156.3" style="fill:url(#p)"/><polygon points="86.4 125 86.4 133.8 91.6 139.1 95.1 133.9 86.4 125" style="fill:url(#q)"/><polygon points="145.3 124.6 145.3 133.4 139.2 139.6 135.8 134.3 145.3 124.6" style="fill:url(#r)"/><path d="M163.9,106.1l-4.2,4.1a6.7,6.7,0,0,0,5,4.6l3.5-4.4Z" style="fill:url(#s)"/><path d="M66.4,104.9,61.8,109l5.5,5.6a7.1,7.1,0,0,0,4.6-4.2Z" style="fill:url(#t)"/><path d="M66.1,164.2l1.5,1.5a6.4,6.4,0,0,0,3.9-3.3H67.3Z" style="fill:url(#u)"/><path d="M165.6,164.2l-1.5,1.5a6.4,6.4,0,0,1-3.9-3.3h4.2Z" style="fill:url(#v)"/><path d="M161.7,210.5l-2,1.7a6.6,6.6,0,0,0,4.7,4.7l2.7-3.1Z" style="fill:url(#w)"/><path d="M65.7,214.9l1.7,2a6.4,6.4,0,0,0,4.6-4.8l-3.2-2.6Z" style="fill:url(#x)"/><path d="M161.7,261.5l-2,1.7a6.6,6.6,0,0,0,4.7,4.7l2.7-3.1Z" style="fill:url(#y)"/><path d="M65.7,266l1.7,2a6.4,6.4,0,0,0,4.6-4.8l-3.2-2.6Z" style="fill:url(#z)"/><polygon points="116 256.9 111.6 261.4 106.5 256.3 111 251.9 116 256.9" style="fill:url(#aa)"/><polygon points="120.3 261.4 125.9 266.9 121.2 271.3 116 265.8 120.3 261.4" style="fill:url(#ab)"/><path d="M69.5,318.2v-4l-7.1.6v3.8a7.4,7.4,0,0,0,3.3.9A8.2,8.2,0,0,0,69.5,318.2Z" style="fill:url(#ac)"/><path d="M162.2,318.2v-4l7.1.6v3.8a7.4,7.4,0,0,1-3.3.9A8.2,8.2,0,0,1,162.2,318.2Z" style="fill:url(#ad)"/><path d="M164.2,357.5l2.9,3,2.4-2.3a6.8,6.8,0,0,0-3.5-1Z" style="fill:url(#ae)"/><path d="M67.5,357.5l-2.9,3-2.4-2.3a6.8,6.8,0,0,1,3.5-1A5.7,5.7,0,0,1,67.5,357.5Z" style="fill:url(#af)"/><polygon points="86.4 286.6 91.1 291.4 86 296.3 82.1 291.5 86.4 286.6" style="fill:url(#ag)"/><polygon points="86.4 286.6 86.4 277.8 90.9 282.5 86.4 286.6" style="fill:url(#ah)"/><polygon points="90.9 282.5 95.3 287 101 280.9 96.4 276.9 90.9 282.5" style="fill:url(#ai)"/><polygon points="141 282.6 145.3 278.2 145.3 287 141 282.6" style="fill:url(#aj)"/><polygon points="136.7 287 141 291.4 134.4 298.1 129.8 294 136.7 287" style="fill:url(#ak)"/><polygon points="111.7 312.5 116 308.1 108.6 300.6 105 305.7 111.7 312.5" style="fill:url(#al)"/><polygon points="116 316.9 120.3 312.5 125 317.3 121 322 116 316.9" style="fill:url(#am)"/><polygon points="115.7 154.9 117.1 156.3 122.9 156.3 127.3 151.9 121.8 148.7 115.7 154.9" style="fill:url(#an)"/><path d="M185,3.3a4.1,4.1,0,0,1,5.3,2.3l7.9,20.5L190.6,29,182.7,8.5A3.9,3.9,0,0,1,185,3.3Z" style="fill:#aaa"/><path d="M56.4,23.2S35.6,77.7,67.1,109.8" style="fill:none;stroke:#ff595a;stroke-miterlimit:10;stroke-width:6px"/><path d="M59.4,6.7a3.8,3.8,0,0,0-4.5,2.9l-4.2,20,7.4,1.6,4.2-20A3.9,3.9,0,0,0,59.4,6.7Z" style="fill:#aaa"/><path d="M57.3,25.1l-3.3.7c-.1,0-.2.1-.1.2s.1.2.2.1l1-.2h0l1.4,1-2.9.6c-.1,0-.2.1-.1.2s.1.2.2.1l3.3-.6h.1c0-.1,0-.1-.1-.2l-1.5-1.1,1.8-.4h0Z" style="fill:#5f5e6c"/><path d="M55.5,24h0c-.1.1-.2.2-.3.1l-.7-.5a.2.2,0,0,1,.3-.3l.7.5Z" style="fill:#ff595a"/><path d="M193.8,21.3l-2.4,2.4a.2.2,0,0,0,.3.3l.7-.7h1.7L192,25.5a.2.2,0,0,0,0,.3h.3l2.4-2.4c.1-.1.1-.1,0-.2h-2.1l1.3-1.3c.1-.1.1-.1,0-.2h0C194,21.3,193.9,21.3,193.8,21.3Z" style="fill:#5f5e6c"/><path d="M191.6,21.3h0c0,.2-.1.3-.2.3h-.9a.2.2,0,0,1-.2-.2l.2-.2h.9C191.6,21.2,191.6,21.3,191.6,21.3Z" style="fill:#ff595a"/></svg>