<svg xmlns="http://www.w3.org/2000/svg" xmlns:xlink="http://www.w3.org/1999/xlink" viewBox="0 0 231.8 404.5"><defs><linearGradient id="a" x1="2.89" y1="238.96" x2="231.15" y2="238.96" gradientUnits="userSpaceOnUse"><stop offset="0"/><stop offset="0.53" stop-color="#383642"/><stop offset="1"/></linearGradient><linearGradient id="b" x1="64.01" y1="338.22" x2="167.7" y2="338.22" gradientUnits="userSpaceOnUse"><stop offset="0" stop-color="#9352e8"/><stop offset="1" stop-color="#9352e8"/></linearGradient><linearGradient id="c" x1="64.11" y1="338.2" x2="167.7" y2="338.2" xlink:href="#b"/><linearGradient id="d" x1="65.5" y1="363.72" x2="166.31" y2="363.72" xlink:href="#b"/><linearGradient id="e" x1="136.97" y1="231.75" x2="184.67" y2="231.75" xlink:href="#b"/><linearGradient id="f" x1="40.34" y1="234.82" x2="86.81" y2="234.82" xlink:href="#b"/><linearGradient id="g" x1="117.14" y1="338.78" x2="124.28" y2="342.56" gradientUnits="userSpaceOnUse"><stop offset="0" stop-color="#383642"/><stop offset="1" stop-color="#383642" stop-opacity="0"/></linearGradient><linearGradient id="h" x1="-9347.57" y1="-4961.07" x2="-9340.43" y2="-4957.29" gradientTransform="translate(-9233 -4623.4) rotate(180)" xlink:href="#g"/><linearGradient id="i" x1="149.27" y1="154.45" x2="150.59" y2="154.45" gradientTransform="translate(125.6 365.2) rotate(-128.5)" xlink:href="#b"/><linearGradient id="j" x1="69.83" y1="164.99" x2="71.16" y2="164.99" gradientTransform="translate(-64.5 50.4) rotate(-28.3)" xlink:href="#b"/></defs><title>style--Artboard 1 copy 20</title><rect x="6.2" y="76.7" width="219.5" height="324.53" style="fill:url(#a)"/><line x1="166.3" y1="363.7" x2="65.4" y2="312.7" style="fill:none;stroke-miterlimit:10;stroke-width:6.1520928144455px;stroke:url(#b)"/><line x1="65.5" y1="363.7" x2="166.3" y2="312.7" style="fill:none;stroke-miterlimit:10;stroke-width:6.1520928144455px;stroke:url(#c)"/><path d="M0,67.7V404.5H86.4V67.7ZM65.7,370.5a6.6,6.6,0,0,1-6.7-6.6,6.7,6.7,0,1,1,13.3,0A6.6,6.6,0,0,1,65.7,370.5Zm0-51.1a6.7,6.7,0,1,1,6.6-6.6A6.7,6.7,0,0,1,65.7,319.4Zm0-51.1a6.7,6.7,0,1,1,6.6-6.7A6.7,6.7,0,0,1,65.7,268.3Zm0-51.1a6.7,6.7,0,0,1-6.7-6.7,6.7,6.7,0,1,1,6.7,6.7Zm0-51.1a6.7,6.7,0,1,1,6.6-6.7A6.7,6.7,0,0,1,65.7,166.1Zm0-51.2a6.6,6.6,0,0,1-6.7-6.6,6.7,6.7,0,1,1,13.3,0A6.6,6.6,0,0,1,65.7,114.9Z" style="fill:#383642"/><path d="M65.7,352.6a11.3,11.3,0,1,0,11.2,11.3A11.2,11.2,0,0,0,65.7,352.6Zm0,17.9a6.6,6.6,0,0,1-6.7-6.6,6.7,6.7,0,1,1,13.3,0A6.6,6.6,0,0,1,65.7,370.5Z" style="fill:#636569"/><path d="M65.7,301.5a11.3,11.3,0,1,0,11.2,11.3A11.2,11.2,0,0,0,65.7,301.5Zm0,17.9a6.7,6.7,0,1,1,6.6-6.6A6.7,6.7,0,0,1,65.7,319.4Z" style="fill:#636569"/><path d="M65.7,250.4a11.3,11.3,0,1,0,11.2,11.2A11.2,11.2,0,0,0,65.7,250.4Zm0,17.9a6.7,6.7,0,1,1,6.6-6.7A6.7,6.7,0,0,1,65.7,268.3Z" style="fill:#636569"/><path d="M65.7,199.2a11.3,11.3,0,1,0,11.2,11.3A11.3,11.3,0,0,0,65.7,199.2Zm0,18a6.7,6.7,0,0,1-6.7-6.7,6.7,6.7,0,1,1,6.7,6.7Z" style="fill:#636569"/><path d="M65.7,148.1a11.3,11.3,0,1,0,11.2,11.3A11.3,11.3,0,0,0,65.7,148.1Zm0,18a6.7,6.7,0,1,1,6.6-6.7A6.7,6.7,0,0,1,65.7,166.1Z" style="fill:#636569"/><path d="M65.7,97a11.3,11.3,0,1,0,11.2,11.3A11.2,11.2,0,0,0,65.7,97Zm0,17.9a6.6,6.6,0,0,1-6.7-6.6,6.7,6.7,0,1,1,13.3,0A6.6,6.6,0,0,1,65.7,114.9Z" style="fill:#636569"/><path d="M231.8,404.5V67.7H145.4V404.5ZM166.1,101.6a6.7,6.7,0,0,1,6.7,6.7,6.7,6.7,0,1,1-6.7-6.7Zm0,51.1a6.7,6.7,0,1,1-6.6,6.7A6.7,6.7,0,0,1,166.1,152.7Zm0,51.2a6.6,6.6,0,0,1,6.7,6.6,6.7,6.7,0,1,1-13.3,0A6.6,6.6,0,0,1,166.1,203.9Zm0,51.1a6.7,6.7,0,1,1-6.6,6.6A6.7,6.7,0,0,1,166.1,255Zm0,51.1a6.7,6.7,0,1,1-6.6,6.7A6.7,6.7,0,0,1,166.1,306.1Zm0,51.1a6.7,6.7,0,0,1,6.7,6.7,6.7,6.7,0,1,1-6.7-6.7Z" style="fill:#383642"/><path d="M166.1,119.6a11.3,11.3,0,1,0-11.2-11.3A11.3,11.3,0,0,0,166.1,119.6Zm0-18a6.7,6.7,0,0,1,6.7,6.7,6.7,6.7,0,1,1-6.7-6.7Z" style="fill:#636569"/><path d="M166.1,170.7a11.3,11.3,0,1,0-11.2-11.3A11.3,11.3,0,0,0,166.1,170.7Zm0-18a6.7,6.7,0,1,1-6.6,6.7A6.7,6.7,0,0,1,166.1,152.7Z" style="fill:#636569"/><path d="M166.1,221.8a11.3,11.3,0,1,0-11.2-11.3A11.3,11.3,0,0,0,166.1,221.8Zm0-17.9a6.6,6.6,0,0,1,6.7,6.6,6.7,6.7,0,1,1-13.3,0A6.6,6.6,0,0,1,166.1,203.9Z" style="fill:#636569"/><path d="M166.1,272.9a11.3,11.3,0,1,0-11.2-11.3A11.2,11.2,0,0,0,166.1,272.9Zm0-17.9a6.7,6.7,0,1,1-6.6,6.6A6.7,6.7,0,0,1,166.1,255Z" style="fill:#636569"/><path d="M166.1,324a11.3,11.3,0,1,0-11.2-11.2A11.2,11.2,0,0,0,166.1,324Zm0-17.9a6.7,6.7,0,1,1-6.6,6.7A6.7,6.7,0,0,1,166.1,306.1Z" style="fill:#636569"/><path d="M166.1,375.2a11.3,11.3,0,1,0-11.2-11.3A11.3,11.3,0,0,0,166.1,375.2Zm0-18a6.7,6.7,0,0,1,6.7,6.7,6.7,6.7,0,1,1-6.7-6.7Z" style="fill:#636569"/><circle cx="166.3" cy="363.7" r="2.9" style="fill:#9352e8"/><circle cx="166.3" cy="312.7" r="2.9" style="fill:#9352e8"/><circle cx="65.5" cy="363.7" r="2.9" style="fill:#9352e8"/><circle cx="65.4" cy="312.7" r="3" style="fill:#9352e8"/><line x1="65.5" y1="363.7" x2="166.3" y2="363.7" style="fill:none;stroke-miterlimit:10;stroke-width:6.1520928144455px;stroke:url(#d)"/><path d="M157.8,150l-1.3,1.3a54.5,54.5,0,0,0-4.7,72.8c18.1,23,49,70.3,13.5,89" style="fill:none;stroke-miterlimit:10;stroke-width:6.1520928144455px;stroke:url(#e)"/><path d="M167,137.3a4.3,4.3,0,0,0-5.9.6l-14,17.3,6.4,5.2,14.1-17.3A4.2,4.2,0,0,0,167,137.3Z" style="fill:#aaa"/><path d="M68.5,156.4s23.3,14.7,12.2,54.2S12.5,286.2,65.8,313.1" style="fill:none;stroke-miterlimit:10;stroke-width:6.1520928144455px;stroke:url(#f)"/><path d="M58.7,146.7a4.1,4.1,0,0,1,5.8,0l15.6,15.7-5.9,5.8L58.7,152.5A4.1,4.1,0,0,1,58.7,146.7Z" style="fill:#aaa"/><polygon points="115.8 341.7 122.6 338.3 129.8 341.9 124.4 346.1 115.8 341.7" style="fill:url(#g)"/><polygon points="115.9 334.8 109.1 338.3 101.9 334.6 107.3 330.4 115.9 334.8" style="fill:url(#h)"/><path d="M154.6,154.1l-3.3-.9a.2.2,0,0,0-.2.2c-.1.1,0,.2.1.2l1,.3h0l.8,1.5-2.7-.8c-.1,0-.3.1-.3.2l.2.2,3.1.9h.3v-.2l-.8-1.6,1.8.4h.3Z" style="fill:#5f5e6c"/><path d="M153.5,152.3h0c-.1.1-.2.1-.3-.1l-.4-.8a.2.2,0,0,1,0-.3h.3l.5.8Z" style="fill:url(#i)"/><path d="M73.1,163.3l1.5-3c0-.1,0-.3-.1-.3h-.3l-.4.9h0l-1.7.6,1.3-2.6a.4.4,0,0,0-.1-.3H73l-1.4,3v.2h.2l1.8-.5-.8,1.7c-.1.1-.1.1,0,.2h.1Z" style="fill:#5f5e6c"/><path d="M75.1,162.6h0c-.1-.2,0-.2.1-.3l.9-.3c.1,0,.2,0,.3.2s0,.2-.2.2l-.8.3Z" style="fill:url(#j)"/></svg>