<svg xmlns="http://www.w3.org/2000/svg" xmlns:xlink="http://www.w3.org/1999/xlink" viewBox="0 0 231.8 404.5"><defs><linearGradient id="a" x1="2.88" y1="-1615.89" x2="231.14" y2="-1615.89" gradientTransform="matrix(1, 0, 0, -1, 0, -1379.84)" gradientUnits="userSpaceOnUse"><stop offset="0"/><stop offset="0.53" stop-color="#383642"/><stop offset="1"/></linearGradient><linearGradient id="b" x1="-3638.65" y1="3825.4" x2="-3538.35" y2="3825.4" gradientTransform="matrix(-1, 0, 0, 1, -3472.65, -3666)" gradientUnits="userSpaceOnUse"><stop offset="0" stop-color="#ff595a"/><stop offset="1" stop-color="#ff595a"/></linearGradient><linearGradient id="c" x1="116.87" y1="-1589.49" x2="109.29" y2="-1596.72" gradientTransform="matrix(1, 0, 0, -1, 0, -1379.84)" gradientUnits="userSpaceOnUse"><stop offset="0" stop-color="#383642"/><stop offset="1" stop-color="#383642" stop-opacity="0"/></linearGradient><linearGradient id="d" x1="115.63" y1="-1590.15" x2="121.02" y2="-1584.83" xlink:href="#c"/><linearGradient id="e" x1="148.2" y1="-1557.82" x2="140.76" y2="-1564.48" xlink:href="#c"/><linearGradient id="f" x1="72.14" y1="-1545.35" x2="67.31" y2="-1542.62" xlink:href="#c"/><linearGradient id="g" x1="-6594.64" y1="-1545.31" x2="-6599.46" y2="-1542.59" gradientTransform="translate(-6435 -1379.8) rotate(180)" xlink:href="#c"/><linearGradient id="h" x1="159.19" y1="-1648.75" x2="163.95" y2="-1643.2" xlink:href="#c"/><linearGradient id="i" x1="-6138.54" y1="-2330.97" x2="-6133.79" y2="-2325.42" gradientTransform="matrix(-0.02, -1, -1, 0.02, -2379.87, -5822.42)" xlink:href="#c"/><linearGradient id="j" x1="65.95" y1="-1700.74" x2="65.95" y2="-1695.19" xlink:href="#c"/><linearGradient id="k" x1="-6586.37" y1="-1700.74" x2="-6586.37" y2="-1695.19" gradientTransform="translate(-6420.6 -1379.8) rotate(180)" xlink:href="#c"/><linearGradient id="l" x1="166.25" y1="-1735.65" x2="167.57" y2="-1739.51" xlink:href="#c"/><linearGradient id="m" x1="-6811.47" y1="-1735.66" x2="-6810.15" y2="-1739.51" gradientTransform="translate(-6745.9 -1379.8) rotate(180)" xlink:href="#c"/><linearGradient id="n" x1="83.86" y1="-1661.24" x2="87.72" y2="-1662.45" xlink:href="#c"/><linearGradient id="o" x1="116.06" y1="-1693.84" x2="109.88" y2="-1685.88" xlink:href="#c"/><linearGradient id="p" x1="115.77" y1="-1691.6" x2="120.41" y2="-1696.83" xlink:href="#c"/></defs><title>style--Artboard 1 copy 9</title><rect x="6.1" y="73.8" width="219.5" height="324.5" style="fill:url(#a)"/><rect x="140.9" y="269" width="29.5" height="6.2" transform="translate(-147.5 192.5) rotate(-45.5)" style="fill:#ff595a"/><rect x="62.7" y="312.6" width="6.2" height="51.1" style="fill:#ff595a"/><rect x="112.7" y="138.9" width="6.2" height="143.09" transform="translate(-114.2 141.4) rotate(-44.5)" style="fill:#ff595a"/><rect x="140.8" y="166.7" width="29.6" height="6.2" transform="translate(-74.5 159.8) rotate(-45)" style="fill:#ff595a"/><rect x="73.1" y="257.2" width="6.2" height="29.6" transform="translate(-170 133.5) rotate(-45)" style="fill:#ff595a"/><rect x="162.9" y="312.6" width="6.2" height="51.1" style="fill:#ff595a"/><path d="M0,67.6V404.5H86.4V67.6ZM65.6,370.5a6.7,6.7,0,1,1,6.7-6.7A6.7,6.7,0,0,1,65.6,370.5Zm0-51.1a6.7,6.7,0,1,1,6.7-6.7A6.7,6.7,0,0,1,65.6,319.4Zm0-51.1a6.7,6.7,0,1,1,6.7-6.7A6.7,6.7,0,0,1,65.6,268.3Zm0-51.1a6.7,6.7,0,1,1,6.7-6.7A6.7,6.7,0,0,1,65.6,217.2Zm0-51.2a6.7,6.7,0,1,1,6.7-6.7A6.7,6.7,0,0,1,65.6,166Zm0-51.1a6.7,6.7,0,1,1,6.7-6.7A6.7,6.7,0,0,1,65.6,114.9Z" style="fill:#383642"/><path d="M65.6,352.6a11.3,11.3,0,1,0,11.3,11.3A11.2,11.2,0,0,0,65.6,352.6Zm0,17.9a6.7,6.7,0,1,1,6.7-6.7A6.7,6.7,0,0,1,65.6,370.5Z" style="fill:#636569"/><path d="M65.6,301.5a11.3,11.3,0,1,0,11.3,11.3A11.2,11.2,0,0,0,65.6,301.5Zm0,17.9a6.7,6.7,0,1,1,6.7-6.7A6.7,6.7,0,0,1,65.6,319.4Z" style="fill:#636569"/><path d="M65.6,250.3a11.3,11.3,0,1,0,11.3,11.3A11.4,11.4,0,0,0,65.6,250.3Zm0,18a6.7,6.7,0,1,1,6.7-6.7A6.7,6.7,0,0,1,65.6,268.3Z" style="fill:#636569"/><path d="M65.6,199.2a11.3,11.3,0,1,0,11.3,11.3A11.4,11.4,0,0,0,65.6,199.2Zm0,18a6.7,6.7,0,1,1,6.7-6.7A6.7,6.7,0,0,1,65.6,217.2Z" style="fill:#636569"/><path d="M65.6,148.1a11.3,11.3,0,1,0,11.3,11.3A11.2,11.2,0,0,0,65.6,148.1Zm0,17.9a6.7,6.7,0,1,1,6.7-6.7A6.7,6.7,0,0,1,65.6,166Z" style="fill:#636569"/><path d="M65.6,97a11.3,11.3,0,1,0,11.3,11.3A11.4,11.4,0,0,0,65.6,97Zm0,17.9a6.7,6.7,0,1,1,6.7-6.7A6.7,6.7,0,0,1,65.6,114.9Z" style="fill:#636569"/><path d="M231.8,404.5V67.6H145.4V404.5ZM166.1,101.6a6.7,6.7,0,1,1-6.7,6.7A6.8,6.8,0,0,1,166.1,101.6Zm0,51.1a6.7,6.7,0,1,1-6.7,6.7A6.8,6.8,0,0,1,166.1,152.7Zm0,51.1a6.7,6.7,0,1,1-6.7,6.7A6.8,6.8,0,0,1,166.1,203.8Zm0,51.1a6.7,6.7,0,1,1-6.7,6.7A6.8,6.8,0,0,1,166.1,254.9Zm0,51.2a6.7,6.7,0,1,1-6.7,6.7A6.7,6.7,0,0,1,166.1,306.1Zm0,51.1a6.7,6.7,0,1,1-6.7,6.7A6.7,6.7,0,0,1,166.1,357.2Z" style="fill:#383642"/><path d="M166.1,119.5a11.3,11.3,0,1,0-11.3-11.3A11.4,11.4,0,0,0,166.1,119.5Zm0-17.9a6.7,6.7,0,1,1-6.7,6.7A6.8,6.8,0,0,1,166.1,101.6Z" style="fill:#636569"/><path d="M166.1,170.7a11.3,11.3,0,1,0-11.3-11.3A11.4,11.4,0,0,0,166.1,170.7Zm0-18a6.7,6.7,0,1,1-6.7,6.7A6.7,6.7,0,0,1,166.1,152.7Z" style="fill:#636569"/><path d="M166.1,221.8a11.3,11.3,0,1,0-11.3-11.3A11.4,11.4,0,0,0,166.1,221.8Zm0-18a6.7,6.7,0,1,1-6.7,6.7A6.8,6.8,0,0,1,166.1,203.8Z" style="fill:#636569"/><path d="M166.1,272.9a11.3,11.3,0,1,0-11.3-11.3A11.4,11.4,0,0,0,166.1,272.9Zm0-18a6.7,6.7,0,1,1-6.7,6.7A6.7,6.7,0,0,1,166.1,254.9Z" style="fill:#636569"/><path d="M166.1,324a11.3,11.3,0,1,0-11.3-11.3A11.4,11.4,0,0,0,166.1,324Zm0-17.9a6.7,6.7,0,1,1-6.7,6.7A6.7,6.7,0,0,1,166.1,306.1Z" style="fill:#636569"/><path d="M166.1,375.1a11.3,11.3,0,1,0-11.3-11.3A11.4,11.4,0,0,0,166.1,375.1Zm0-17.9a6.7,6.7,0,1,1-6.7,6.7A6.8,6.8,0,0,1,166.1,357.2Z" style="fill:#636569"/><polygon points="163.8 365.8 86.4 286.6 86.4 277.8 168.2 361.5 163.8 365.8" style="fill:#ff595a"/><polygon points="67.9 263.7 63.5 259.4 145.3 175.7 145.3 184.5 67.9 263.7" style="fill:#ff595a"/><rect x="65.7" y="156.3" width="100.3" height="6.2" style="fill:url(#b)"/><rect x="143.4" y="213.8" width="6.2" height="55.7" transform="translate(-127.3 171.8) rotate(-44.5)" style="fill:#ff595a"/><polygon points="67.9 365.8 63.5 361.5 145.3 278.2 145.3 287 67.9 365.8" style="fill:#ff595a"/><circle cx="65.7" cy="363.7" r="3.1" style="fill:#ff595a"/><circle cx="166" cy="363.7" r="3.1" style="fill:#ff595a"/><circle cx="166.1" cy="312.6" r="3" style="fill:#ff595a"/><circle cx="65.7" cy="312.6" r="3.1" style="fill:#ff595a"/><circle cx="65.6" cy="261.5" r="3" style="fill:#ff595a"/><circle cx="166" cy="261.5" r="3.1" style="fill:#ff595a"/><circle cx="166.1" cy="159.4" r="3" style="fill:#ff595a"/><circle cx="65.7" cy="159.4" r="3.1" style="fill:#ff595a"/><polygon points="111.4 210.4 115.8 214.7 110.6 220.1 106.2 215.7 111.4 210.4" style="fill:url(#c)"/><polygon points="115.7 206 121.2 200.4 125.4 204.9 120 210.4 115.7 206" style="fill:url(#d)"/><polygon points="145.3 175.7 145.3 184.5 138.1 191.9 133.9 187.4 145.3 175.7" style="fill:url(#e)"/><path d="M66.1,164.2l1.5,1.5a6.4,6.4,0,0,0,3.9-3.3H67.3Z" style="fill:url(#f)"/><path d="M165.6,164.2l-1.5,1.5a6.4,6.4,0,0,1-3.9-3.3h4.2Z" style="fill:url(#g)"/><path d="M161.7,261.5l-2,1.7a6.6,6.6,0,0,0,4.7,4.7l2.7-3.1Z" style="fill:url(#h)"/><path d="M65.7,266l1.7,2a6.4,6.4,0,0,0,4.6-4.8l-3.2-2.6Z" style="fill:url(#i)"/><path d="M69.5,318.2v-4l-7.1.6v3.8a7.4,7.4,0,0,0,3.3.9A8.2,8.2,0,0,0,69.5,318.2Z" style="fill:url(#j)"/><path d="M162.2,318.2v-4l7.1.6v3.8a7.4,7.4,0,0,1-3.3.9A8.6,8.6,0,0,1,162.2,318.2Z" style="fill:url(#k)"/><path d="M164.3,357.5l2.9,3,2.4-2.3a6.8,6.8,0,0,0-3.5-1A5.7,5.7,0,0,0,164.3,357.5Z" style="fill:url(#l)"/><path d="M67.5,357.5l-2.9,3-2.4-2.3a6.8,6.8,0,0,1,3.5-1A5.7,5.7,0,0,1,67.5,357.5Z" style="fill:url(#m)"/><polygon points="86.4 286.6 86.4 277.8 91 282.5 86.4 286.6" style="fill:url(#n)"/><polygon points="111.7 312.5 116 308.1 108.6 300.6 105.1 305.7 111.7 312.5" style="fill:url(#o)"/><polygon points="116 316.9 120.3 312.5 125 317.3 121 322 116 316.9" style="fill:url(#p)"/><path d="M65.7,312.6s.6-14.4-14.4-27.9-23.7-45.4-11-71.4" style="fill:none;stroke:#ff595a;stroke-miterlimit:10;stroke-width:6px"/><path d="M166.1,312.6s-5.5-20.1,18.5-34.2,20.7-38.8,12-51.6" style="fill:none;stroke:#ff595a;stroke-miterlimit:10;stroke-width:6px"/><path d="M49.3,194a4,4,0,0,1,2,5.4l-9.1,20.1-7.5-3.4L43.8,196A4.3,4.3,0,0,1,49.3,194Z" style="fill:#aaa"/><path d="M186.2,206.8a4,4,0,0,1,5.5,1.7L202.1,228l-7.3,3.8-10.4-19.5A4.1,4.1,0,0,1,186.2,206.8Z" style="fill:#aaa"/><path d="M42.1,213.3l-3.4.2-.2.2a.2.2,0,0,0,.2.2h1l1.2,1.2H38a.2.2,0,0,0-.2.2l.2.2h3.5v-.2l-1.3-1.3h2.1Z" style="fill:#5f5e6c"/><path d="M40.5,211.9h-.3l-.7-.6a.2.2,0,0,1,0-.3h.3l.7.6C40.5,211.8,40.6,211.8,40.5,211.9Z" style="fill:#ff595a"/><path d="M197.4,224.6l-2.2,2.5a.2.2,0,0,0,0,.3h.3l.7-.8h1.7l-2,2.2a.2.2,0,0,0,0,.3h.3l2.3-2.5c0-.1.1-.1,0-.2h-2.1l1.2-1.4c.1-.1.1-.1,0-.2h-.2Z" style="fill:#5f5e6c"/><path d="M195.2,224.7h0c0,.2-.1.3-.2.3h-.9l-.2-.2a.2.2,0,0,1,.2-.2h1.1Z" style="fill:#ff595a"/></svg>