<svg xmlns="http://www.w3.org/2000/svg" xmlns:xlink="http://www.w3.org/1999/xlink" viewBox="0 0 231.8 404.5"><defs><linearGradient id="a" x1="2.84" y1="236.07" x2="231.1" y2="236.07" gradientUnits="userSpaceOnUse"><stop offset="0"/><stop offset="0.53" stop-color="#383642"/><stop offset="1"/></linearGradient><linearGradient id="b" x1="65.5" y1="-873.52" x2="166.3" y2="-873.52" gradientTransform="matrix(1, 0, 0, -1, 0, -509.82)" gradientUnits="userSpaceOnUse"><stop offset="0" stop-color="#f4b223"/><stop offset="1" stop-color="#f4b223"/></linearGradient><linearGradient id="c" x1="86.44" y1="-846.62" x2="91.8" y2="-846.62" gradientTransform="matrix(1, 0, 0, -1, 0, -509.82)" gradientUnits="userSpaceOnUse"><stop offset="0" stop-color="#383642"/><stop offset="1" stop-color="#383642" stop-opacity="0"/></linearGradient></defs><title>style--Artboard 1 copy 4</title><rect x="6.1" y="73.8" width="219.5" height="324.53" style="fill:url(#a)"/><rect x="163.1" y="320.4" width="6.2" height="43.5" style="fill:#f4b223"/><path d="M231.8,404.5V67.6H145.4V404.5ZM166.1,101.6a6.7,6.7,0,1,1-6.7,6.7A6.8,6.8,0,0,1,166.1,101.6Zm0,51.1a6.7,6.7,0,1,1-6.7,6.7A6.8,6.8,0,0,1,166.1,152.7Zm0,51.1a6.7,6.7,0,1,1-6.7,6.7A6.8,6.8,0,0,1,166.1,203.8Zm0,51.1a6.7,6.7,0,1,1-6.7,6.7A6.8,6.8,0,0,1,166.1,254.9Zm0,51.2a6.7,6.7,0,1,1-6.7,6.7A6.8,6.8,0,0,1,166.1,306.1Zm0,51.1a6.7,6.7,0,1,1-6.7,6.7A6.8,6.8,0,0,1,166.1,357.2Z" style="fill:#383642"/><path d="M166.1,119.5a11.3,11.3,0,1,0-11.3-11.3A11.4,11.4,0,0,0,166.1,119.5Zm0-17.9a6.7,6.7,0,1,1-6.7,6.7A6.8,6.8,0,0,1,166.1,101.6Z" style="fill:#636569"/><path d="M166.1,170.7a11.3,11.3,0,1,0-11.3-11.3A11.4,11.4,0,0,0,166.1,170.7Zm0-18a6.7,6.7,0,1,1-6.7,6.7A6.8,6.8,0,0,1,166.1,152.7Z" style="fill:#636569"/><path d="M166.1,221.8a11.3,11.3,0,1,0-11.3-11.3A11.4,11.4,0,0,0,166.1,221.8Zm0-18a6.7,6.7,0,1,1-6.7,6.7A6.8,6.8,0,0,1,166.1,203.8Z" style="fill:#636569"/><path d="M166.1,272.9a11.3,11.3,0,1,0-11.3-11.3A11.4,11.4,0,0,0,166.1,272.9Zm0-18a6.7,6.7,0,1,1-6.7,6.7A6.8,6.8,0,0,1,166.1,254.9Z" style="fill:#636569"/><path d="M166.1,324a11.3,11.3,0,1,0-11.3-11.3A11.4,11.4,0,0,0,166.1,324Zm0-17.9a6.7,6.7,0,1,1-6.7,6.7A6.8,6.8,0,0,1,166.1,306.1Z" style="fill:#636569"/><path d="M166.1,375.1a11.3,11.3,0,1,0-11.3-11.3A11.4,11.4,0,0,0,166.1,375.1Zm0-17.9a6.7,6.7,0,1,1-6.7,6.7A6.8,6.8,0,0,1,166.1,357.2Z" style="fill:#636569"/><circle cx="166.3" cy="363.7" r="2.9" style="fill:#f4b223"/><circle cx="65.5" cy="363.7" r="2.9" style="fill:#f4b223"/><path d="M84.9,346.5a5.7,5.7,0,0,1-2.2-.4,6.9,6.9,0,0,1-3.6-3.1c4.9-4.9,33.2-34.8,33.1-65.8-.1-34.6-19.5-85.9-19.7-86.5l6.1-2.3c.8,2.1,20,52.9,20.1,88.8.1,19.3-9.7,37.7-18,49.7A159.5,159.5,0,0,1,84.9,346.5Z" style="fill:#f4b223"/><path d="M95.5,186.8a4.2,4.2,0,0,1,5.2,2.7l6.5,21.3-7.9,2.4-6.5-21.3A4.1,4.1,0,0,1,95.5,186.8Z" style="fill:#aaa"/><path d="M166,321.3l-5.4-3.7c.2-.3,23.2-34.9,18.8-72.4-2.5-21.2-9-23.6-19-27.3-7.2-2.7-16.3-6-25-17.3l5.1-4c7.6,9.8,15,12.5,22.1,15.2,10.4,3.9,20.3,7.5,23.2,32.7C190.6,284.5,167,319.8,166,321.3Z" style="fill:#f4b223"/><path d="M128,188.5a4.1,4.1,0,0,1,5.8.1l15.2,16-6,5.7-15.2-16A4.2,4.2,0,0,1,128,188.5Z" style="fill:#aaa"/><path d="M0,67.6V404.5H86.4V67.6ZM65.7,370.5a6.7,6.7,0,1,1,6.7-6.7A6.7,6.7,0,0,1,65.7,370.5Zm0-51.1a6.7,6.7,0,1,1,6.7-6.7A6.8,6.8,0,0,1,65.7,319.4Zm0-51.1a6.7,6.7,0,1,1,6.7-6.7A6.8,6.8,0,0,1,65.7,268.3Zm0-51.1a6.7,6.7,0,1,1,6.7-6.7A6.8,6.8,0,0,1,65.7,217.2Zm0-51.2a6.7,6.7,0,1,1,6.7-6.7A6.7,6.7,0,0,1,65.7,166Zm0-51.1a6.7,6.7,0,1,1,6.7-6.7A6.8,6.8,0,0,1,65.7,114.9Z" style="fill:#383642"/><path d="M65.7,352.6A11.3,11.3,0,1,0,77,363.9,11.4,11.4,0,0,0,65.7,352.6Zm0,17.9a6.7,6.7,0,1,1,6.7-6.7A6.8,6.8,0,0,1,65.7,370.5Z" style="fill:#636569"/><path d="M65.7,301.5A11.3,11.3,0,1,0,77,312.8,11.4,11.4,0,0,0,65.7,301.5Zm0,17.9a6.7,6.7,0,1,1,6.7-6.7A6.8,6.8,0,0,1,65.7,319.4Z" style="fill:#636569"/><path d="M65.7,250.3A11.3,11.3,0,1,0,77,261.6,11.4,11.4,0,0,0,65.7,250.3Zm0,18a6.7,6.7,0,1,1,6.7-6.7A6.8,6.8,0,0,1,65.7,268.3Z" style="fill:#636569"/><path d="M65.7,199.2A11.3,11.3,0,1,0,77,210.5,11.4,11.4,0,0,0,65.7,199.2Zm0,18a6.7,6.7,0,1,1,6.7-6.7A6.7,6.7,0,0,1,65.7,217.2Z" style="fill:#636569"/><path d="M65.7,148.1A11.3,11.3,0,1,0,77,159.4,11.4,11.4,0,0,0,65.7,148.1Zm0,17.9a6.7,6.7,0,1,1,6.7-6.7A6.7,6.7,0,0,1,65.7,166Z" style="fill:#636569"/><path d="M65.7,97a11.4,11.4,0,0,0-11.3,11.3,11.2,11.2,0,0,0,11.3,11.2,11.3,11.3,0,1,0,0-22.5Zm0,17.9a6.7,6.7,0,1,1,6.7-6.7A6.8,6.8,0,0,1,65.7,114.9Z" style="fill:#636569"/><line x1="65.5" y1="363.7" x2="166.3" y2="363.7" style="fill:none;stroke-miterlimit:10;stroke-width:6.15210008621216px;stroke:url(#b)"/><polygon points="86.6 334.2 86.4 345.4 91.8 340.3 91.5 328.2 86.6 334.2" style="fill:url(#c)"/><path d="M176.8,309a5.4,5.4,0,0,1-1.6,2.4,7,7,0,0,1-2.4,1.3h0a6.7,6.7,0,1,1-8.6-6.4,7.2,7.2,0,0,1,.4-4.8,11.3,11.3,0,1,0,12.8,11.2A11.5,11.5,0,0,0,176.8,309Z" style="fill:#636569"/><path d="M102.8,206l-2.5,2.3a.2.2,0,0,0,0,.3h.3l.7-.7H103l-2.2,2a.2.2,0,0,0,0,.3h.3l2.5-2.2c.1,0,.1-.1.1-.2h-2.1l1.4-1.3c.1-.1.1-.1,0-.2h-.2Z" style="fill:#5f5e6c"/><path d="M100.7,206h0c0,.2-.1.2-.2.2h-.9l-.2-.2a.2.2,0,0,1,.2-.2h.9Z" style="fill:#f4b223"/><path d="M142.8,202.3l-1.3,3.1c0,.1,0,.2.1.2h.2l.4-.9h0l1.6-.6-1.2,2.7c0,.1,0,.2.1.2h.2l1.4-3.1v-.2h-.2l-1.7.6.7-1.7v-.2H143C142.9,202.2,142.8,202.2,142.8,202.3Z" style="fill:#5f5e6c"/><path d="M140.8,203.1h0c.1.2,0,.3-.1.3l-.8.3h-.2c0-.1,0-.2.1-.2l.8-.3Z" style="fill:#f4b223"/></svg>