<svg xmlns="http://www.w3.org/2000/svg" xmlns:xlink="http://www.w3.org/1999/xlink" viewBox="0 0 231.8 404.5"><defs><linearGradient id="a" x1="2.9" y1="234.22" x2="231.16" y2="234.22" gradientUnits="userSpaceOnUse"><stop offset="0"/><stop offset="0.53" stop-color="#383642"/><stop offset="1"/></linearGradient><linearGradient id="b" x1="-3207.5" y1="4043.07" x2="-3149.21" y2="4043.07" gradientTransform="translate(-473.9 -4986.6) rotate(-45)" gradientUnits="userSpaceOnUse"><stop offset="0" stop-color="#ff7c24"/><stop offset="1" stop-color="#ff7c24"/></linearGradient><linearGradient id="c" x1="-3243.54" y1="4079.1" x2="-3185.25" y2="4079.1" xlink:href="#b"/><linearGradient id="d" x1="-3279.57" y1="4115.13" x2="-3221.28" y2="4115.13" xlink:href="#b"/><linearGradient id="e" x1="-3315.6" y1="4151.16" x2="-3257.31" y2="4151.16" xlink:href="#b"/><linearGradient id="f" x1="-3351.63" y1="4187.19" x2="-3293.34" y2="4187.19" xlink:href="#b"/><linearGradient id="g" x1="65.5" y1="363.72" x2="166.31" y2="363.72" gradientTransform="matrix(1, 0, 0, 1, 0, 0)" xlink:href="#b"/><linearGradient id="h" x1="-12182.28" y1="-4931.99" x2="-12123.99" y2="-4931.99" gradientTransform="matrix(-0.71, -0.71, -0.71, 0.71, -11986.72, -4986.58)" xlink:href="#b"/><linearGradient id="i" x1="-12218.31" y1="-4895.96" x2="-12160.02" y2="-4895.96" gradientTransform="matrix(-0.71, -0.71, -0.71, 0.71, -11986.72, -4986.58)" xlink:href="#b"/><linearGradient id="j" x1="-12254.35" y1="-4859.93" x2="-12196.06" y2="-4859.93" gradientTransform="matrix(-0.71, -0.71, -0.71, 0.71, -11986.72, -4986.58)" xlink:href="#b"/><linearGradient id="k" x1="-12290.38" y1="-4823.89" x2="-12232.09" y2="-4823.89" gradientTransform="matrix(-0.71, -0.71, -0.71, 0.71, -11986.72, -4986.58)" xlink:href="#b"/><linearGradient id="l" x1="-12326.41" y1="-4787.86" x2="-12268.12" y2="-4787.86" gradientTransform="matrix(-0.71, -0.71, -0.71, 0.71, -11986.72, -4986.58)" xlink:href="#b"/><linearGradient id="m" x1="107.5" y1="196.17" x2="167.71" y2="196.17" gradientTransform="matrix(1, 0, 0, 1, 0, 0)" xlink:href="#b"/><linearGradient id="n" x1="107.5" y1="145.22" x2="167.71" y2="145.22" gradientTransform="matrix(1, 0, 0, 1, 0, 0)" xlink:href="#b"/><linearGradient id="o" x1="107.5" y1="247.13" x2="167.71" y2="247.13" gradientTransform="matrix(1, 0, 0, 1, 0, 0)" xlink:href="#b"/><linearGradient id="p" x1="107.5" y1="298.09" x2="167.71" y2="298.09" gradientTransform="matrix(1, 0, 0, 1, 0, 0)" xlink:href="#b"/><linearGradient id="q" x1="107.5" y1="349.04" x2="167.71" y2="349.04" gradientTransform="matrix(1, 0, 0, 1, 0, 0)" xlink:href="#b"/><linearGradient id="r" x1="118.89" y1="336.45" x2="123.53" y2="342.03" gradientUnits="userSpaceOnUse"><stop offset="0" stop-color="#383642"/><stop offset="1" stop-color="#383642" stop-opacity="0"/></linearGradient><linearGradient id="s" x1="-12584.95" y1="348.85" x2="-12524.74" y2="348.85" gradientTransform="matrix(-1, 0, 0, 1, -12460.64, 0)" xlink:href="#b"/><linearGradient id="t" x1="119.76" y1="339.27" x2="118.13" y2="330.63" xlink:href="#r"/><linearGradient id="u" x1="-12666.91" y1="-4197.4" x2="-12664.44" y2="-4206.97" gradientTransform="translate(-12543.7 -3871.6) rotate(180)" xlink:href="#r"/><linearGradient id="v" x1="117.21" y1="331.89" x2="108.16" y2="328.68" xlink:href="#r"/><linearGradient id="w" x1="118.89" y1="285.49" x2="123.53" y2="291.08" xlink:href="#r"/><linearGradient id="x" x1="-12584.95" y1="297.89" x2="-12524.74" y2="297.89" gradientTransform="matrix(-1, 0, 0, 1, -12460.64, 0)" xlink:href="#b"/><linearGradient id="y" x1="119.76" y1="288.31" x2="118.13" y2="279.68" xlink:href="#r"/><linearGradient id="z" x1="-12666.91" y1="-4146.45" x2="-12664.44" y2="-4156.01" gradientTransform="translate(-12543.7 -3871.6) rotate(180)" xlink:href="#r"/><linearGradient id="aa" x1="117.21" y1="280.93" x2="108.16" y2="277.73" xlink:href="#r"/><linearGradient id="ab" x1="118.89" y1="234.54" x2="123.53" y2="240.12" xlink:href="#r"/><linearGradient id="ac" x1="-12584.95" y1="246.93" x2="-12524.74" y2="246.93" gradientTransform="matrix(-1, 0, 0, 1, -12460.64, 0)" xlink:href="#b"/><linearGradient id="ad" x1="119.76" y1="237.36" x2="118.13" y2="228.72" xlink:href="#r"/><linearGradient id="ae" x1="-12666.91" y1="-4095.49" x2="-12664.44" y2="-4105.06" gradientTransform="translate(-12543.7 -3871.6) rotate(180)" xlink:href="#r"/><linearGradient id="af" x1="117.21" y1="229.97" x2="108.16" y2="226.77" xlink:href="#r"/><linearGradient id="ag" x1="118.89" y1="183.58" x2="123.53" y2="189.16" xlink:href="#r"/><linearGradient id="ah" x1="-12584.95" y1="195.98" x2="-12524.74" y2="195.98" gradientTransform="matrix(-1, 0, 0, 1, -12460.64, 0)" xlink:href="#b"/><linearGradient id="ai" x1="119.76" y1="186.4" x2="118.13" y2="177.76" xlink:href="#r"/><linearGradient id="aj" x1="-12666.91" y1="-4044.53" x2="-12664.44" y2="-4054.1" gradientTransform="translate(-12543.7 -3871.6) rotate(180)" xlink:href="#r"/><linearGradient id="ak" x1="117.21" y1="179.02" x2="108.16" y2="175.82" xlink:href="#r"/><linearGradient id="al" x1="118.89" y1="132.62" x2="123.53" y2="138.21" xlink:href="#r"/><linearGradient id="am" x1="-12584.95" y1="145.02" x2="-12524.74" y2="145.02" gradientTransform="matrix(-1, 0, 0, 1, -12460.64, 0)" xlink:href="#b"/><linearGradient id="an" x1="119.76" y1="135.44" x2="118.13" y2="126.81" xlink:href="#r"/><linearGradient id="ao" x1="-12666.91" y1="-3993.58" x2="-12664.44" y2="-4003.14" gradientTransform="translate(-12543.7 -3871.6) rotate(180)" xlink:href="#r"/><linearGradient id="ap" x1="117.21" y1="128.06" x2="108.16" y2="124.86" xlink:href="#r"/><linearGradient id="aq" x1="129.34" y1="354.62" x2="167.71" y2="354.62" gradientTransform="matrix(1, 0, 0, 1, 0, 0)" xlink:href="#b"/><linearGradient id="ar" x1="129.34" y1="303.67" x2="167.71" y2="303.67" gradientTransform="matrix(1, 0, 0, 1, 0, 0)" xlink:href="#b"/><linearGradient id="as" x1="129.34" y1="252.71" x2="167.71" y2="252.71" gradientTransform="matrix(1, 0, 0, 1, 0, 0)" xlink:href="#b"/><linearGradient id="at" x1="129.34" y1="201.75" x2="167.71" y2="201.75" gradientTransform="matrix(1, 0, 0, 1, 0, 0)" xlink:href="#b"/><linearGradient id="au" x1="129.34" y1="150.8" x2="167.71" y2="150.8" gradientTransform="matrix(1, 0, 0, 1, 0, 0)" xlink:href="#b"/><linearGradient id="av" x1="163.68" y1="71.59" x2="202.16" y2="71.59" gradientTransform="matrix(1, 0, 0, 1, 0, 0)" xlink:href="#b"/><linearGradient id="aw" x1="46.07" y1="69.18" x2="68.32" y2="69.18" gradientTransform="matrix(1, 0, 0, 1, 0, 0)" xlink:href="#b"/><linearGradient id="ax" x1="-35.36" y1="-21.85" x2="-34.01" y2="-21.85" gradientTransform="translate(79.8 51.1) rotate(4.1)" xlink:href="#b"/><linearGradient id="ay" x1="114.7" y1="-13.15" x2="116.05" y2="-13.15" gradientTransform="translate(118.6 -60.2) rotate(57.2)" xlink:href="#b"/></defs><title>style--Artboard 1 copy 15</title><g style="isolation:isolate"><rect x="6.2" y="72" width="219.5" height="324.53" style="fill:url(#a)"/><line x1="166.1" y1="108.9" x2="108.9" y2="130.5" style="fill:none;stroke-miterlimit:10;stroke-width:6.1520928144455px;stroke:url(#b)"/><line x1="166.1" y1="159.9" x2="108.9" y2="181.5" style="fill:none;stroke-miterlimit:10;stroke-width:6.1520928144455px;stroke:url(#c)"/><line x1="166.1" y1="210.8" x2="108.9" y2="232.5" style="fill:none;stroke-miterlimit:10;stroke-width:6.1520928144455px;stroke:url(#d)"/><line x1="166.1" y1="261.8" x2="108.9" y2="283.4" style="fill:none;stroke-miterlimit:10;stroke-width:6.1520928144455px;stroke:url(#e)"/><line x1="166.1" y1="312.8" x2="108.9" y2="334.4" style="fill:none;stroke-miterlimit:10;stroke-width:6.1520928144455px;stroke:url(#f)"/><line x1="65.5" y1="363.7" x2="166.3" y2="363.7" style="fill:none;stroke-miterlimit:10;stroke-width:6.1520928144455px;stroke:url(#g)"/><line x1="65.7" y1="108.7" x2="122.9" y2="130.3" style="fill:none;stroke-miterlimit:10;stroke-width:6.1520928144455px;stroke:url(#h)"/><line x1="65.7" y1="159.7" x2="122.9" y2="181.3" style="fill:none;stroke-miterlimit:10;stroke-width:6.1520928144455px;stroke:url(#i)"/><line x1="65.7" y1="210.7" x2="122.9" y2="232.3" style="fill:none;stroke-miterlimit:10;stroke-width:6.1520928144455px;stroke:url(#j)"/><line x1="65.7" y1="261.6" x2="122.9" y2="283.2" style="fill:none;stroke-miterlimit:10;stroke-width:6.1520928144455px;stroke:url(#k)"/><line x1="65.7" y1="312.6" x2="122.9" y2="334.2" style="fill:none;stroke-miterlimit:10;stroke-width:6.1520928144455px;stroke:url(#l)"/><line x1="166.3" y1="210.8" x2="108.9" y2="181.5" style="fill:none;stroke-miterlimit:10;stroke-width:6.1520928144455px;stroke:url(#m)"/><line x1="166.3" y1="159.9" x2="108.9" y2="130.5" style="fill:none;stroke-miterlimit:10;stroke-width:6.1520928144455px;stroke:url(#n)"/><line x1="166.3" y1="261.8" x2="108.9" y2="232.5" style="fill:none;stroke-miterlimit:10;stroke-width:6.1520928144455px;stroke:url(#o)"/><line x1="166.3" y1="312.8" x2="108.9" y2="283.4" style="fill:none;stroke-miterlimit:10;stroke-width:6.1520928144455px;stroke:url(#p)"/><circle cx="122.9" cy="130.4" r="3" style="fill:#ff7c24"/><circle cx="108.9" cy="130.6" r="3" style="fill:#ff7c24"/><circle cx="122.9" cy="181.3" r="3" style="fill:#ff7c24"/><circle cx="108.9" cy="181.5" r="3" style="fill:#ff7c24"/><circle cx="122.9" cy="232.3" r="3" style="fill:#ff7c24"/><circle cx="108.9" cy="232.5" r="3" style="fill:#ff7c24"/><circle cx="122.9" cy="283.2" r="3" style="fill:#ff7c24"/><circle cx="108.9" cy="283.4" r="3" style="fill:#ff7c24"/><line x1="166.3" y1="363.7" x2="108.9" y2="334.4" style="fill:none;stroke-miterlimit:10;stroke-width:6.1520928144455px;stroke:url(#q)"/><path d="M0,67.7V404.5H86.4V67.7ZM65.7,370.5a6.6,6.6,0,0,1-6.7-6.6,6.7,6.7,0,1,1,13.3,0A6.6,6.6,0,0,1,65.7,370.5Zm0-51.1a6.7,6.7,0,1,1,6.6-6.6A6.7,6.7,0,0,1,65.7,319.4Zm0-51.1a6.7,6.7,0,1,1,6.6-6.7A6.7,6.7,0,0,1,65.7,268.3Zm0-51.1a6.7,6.7,0,0,1-6.7-6.7,6.7,6.7,0,1,1,6.7,6.7Zm0-51.1a6.7,6.7,0,1,1,6.6-6.7A6.7,6.7,0,0,1,65.7,166.1Zm0-51.2a6.6,6.6,0,0,1-6.7-6.6,6.7,6.7,0,1,1,13.3,0A6.6,6.6,0,0,1,65.7,114.9Z" style="fill:#383642"/><path d="M65.7,352.6a11.3,11.3,0,1,0,11.2,11.3A11.2,11.2,0,0,0,65.7,352.6Zm0,17.9a6.6,6.6,0,0,1-6.7-6.6,6.7,6.7,0,1,1,13.3,0A6.6,6.6,0,0,1,65.7,370.5Z" style="fill:#636569"/><path d="M65.7,301.5a11.3,11.3,0,1,0,11.2,11.3A11.2,11.2,0,0,0,65.7,301.5Zm0,17.9a6.7,6.7,0,1,1,6.6-6.6A6.7,6.7,0,0,1,65.7,319.4Z" style="fill:#636569"/><path d="M65.7,250.4a11.3,11.3,0,1,0,11.2,11.2A11.2,11.2,0,0,0,65.7,250.4Zm0,17.9a6.7,6.7,0,1,1,6.6-6.7A6.7,6.7,0,0,1,65.7,268.3Z" style="fill:#636569"/><path d="M65.7,199.2a11.3,11.3,0,1,0,11.2,11.3A11.3,11.3,0,0,0,65.7,199.2Zm0,18a6.7,6.7,0,0,1-6.7-6.7,6.7,6.7,0,1,1,6.7,6.7Z" style="fill:#636569"/><path d="M65.7,148.1a11.3,11.3,0,1,0,11.2,11.3A11.3,11.3,0,0,0,65.7,148.1Zm0,18a6.7,6.7,0,1,1,6.6-6.7A6.7,6.7,0,0,1,65.7,166.1Z" style="fill:#636569"/><path d="M65.7,97a11.3,11.3,0,1,0,11.2,11.3A11.2,11.2,0,0,0,65.7,97Zm0,17.9a6.6,6.6,0,0,1-6.7-6.6,6.7,6.7,0,1,1,13.3,0A6.6,6.6,0,0,1,65.7,114.9Z" style="fill:#636569"/><path d="M231.8,404.5V67.7H145.4V404.5ZM166.1,101.6a6.7,6.7,0,0,1,6.7,6.7,6.7,6.7,0,1,1-6.7-6.7Zm0,51.1a6.7,6.7,0,1,1-6.6,6.7A6.7,6.7,0,0,1,166.1,152.7Zm0,51.2a6.6,6.6,0,0,1,6.7,6.6,6.7,6.7,0,1,1-13.3,0A6.6,6.6,0,0,1,166.1,203.9Zm0,51.1a6.7,6.7,0,1,1-6.6,6.6A6.7,6.7,0,0,1,166.1,255Zm0,51.1a6.7,6.7,0,1,1-6.6,6.7A6.7,6.7,0,0,1,166.1,306.1Zm0,51.1a6.7,6.7,0,0,1,6.7,6.7,6.7,6.7,0,1,1-6.7-6.7Z" style="fill:#383642"/><path d="M166.1,119.6a11.3,11.3,0,1,0-11.2-11.3A11.3,11.3,0,0,0,166.1,119.6Zm0-18a6.7,6.7,0,0,1,6.7,6.7,6.7,6.7,0,1,1-6.7-6.7Z" style="fill:#636569"/><path d="M166.1,170.7a11.3,11.3,0,1,0-11.2-11.3A11.3,11.3,0,0,0,166.1,170.7Zm0-18a6.7,6.7,0,1,1-6.6,6.7A6.7,6.7,0,0,1,166.1,152.7Z" style="fill:#636569"/><path d="M166.1,221.8a11.3,11.3,0,1,0-11.2-11.3A11.3,11.3,0,0,0,166.1,221.8Zm0-17.9a6.6,6.6,0,0,1,6.7,6.6,6.7,6.7,0,1,1-13.3,0A6.6,6.6,0,0,1,166.1,203.9Z" style="fill:#636569"/><path d="M166.1,272.9a11.3,11.3,0,1,0-11.2-11.3A11.2,11.2,0,0,0,166.1,272.9Zm0-17.9a6.7,6.7,0,1,1-6.6,6.6A6.7,6.7,0,0,1,166.1,255Z" style="fill:#636569"/><path d="M166.1,324a11.3,11.3,0,1,0-11.2-11.2A11.2,11.2,0,0,0,166.1,324Zm0-17.9a6.7,6.7,0,1,1-6.6,6.7A6.7,6.7,0,0,1,166.1,306.1Z" style="fill:#636569"/><path d="M166.1,375.2a11.3,11.3,0,1,0-11.2-11.3A11.3,11.3,0,0,0,166.1,375.2Zm0-18a6.7,6.7,0,0,1,6.7,6.7,6.7,6.7,0,1,1-6.7-6.7Z" style="fill:#636569"/><polygon points="122.5 337.9 115.7 341.3 123.1 345.1 130.7 341.9 122.5 337.9" style="mix-blend-mode:multiply;fill:url(#r)"/><circle cx="166.3" cy="363.7" r="3" style="fill:#ff7c24"/><circle cx="65.5" cy="363.7" r="3" style="fill:#ff7c24"/><circle cx="166.1" cy="312.8" r="3" style="fill:#ff7c24"/><circle cx="65.6" cy="312.5" r="3" style="fill:#ff7c24"/><line x1="65.5" y1="363.5" x2="122.9" y2="334.2" style="fill:none;stroke-miterlimit:10;stroke-width:6.1520928144455px;stroke:url(#s)"/><circle cx="122.9" cy="334.2" r="3" style="fill:#ff7c24"/><circle cx="108.9" cy="334.4" r="3" style="fill:#ff7c24"/><path d="M116.2,328.3,107,332l-.2.2c-.6.2-.8,1.1-.9,1.6a3.3,3.3,0,0,0,.1,1.7l.3.5a2.8,2.8,0,0,0,.9,1l1.6.9,7.4-3.3,14.8-5.2Z" style="mix-blend-mode:multiply;fill:url(#t)"/><path d="M126,333.9a4.3,4.3,0,0,0-1.1-2.1h-.2l-8.8,2.8,6.9,3.4v-.2c1.1-.7,2.5-1.1,3-2.4a6.9,6.9,0,0,0,.2-1.3A.1.1,0,0,1,126,333.9Z" style="mix-blend-mode:multiply;fill:url(#u)"/><polygon points="106.8 324.8 99.3 328.6 107.3 331.8 116.2 328.3 106.8 324.8" style="mix-blend-mode:multiply;fill:url(#v)"/><polygon points="122.5 286.9 115.7 290.4 123.1 294.1 130.7 291 122.5 286.9" style="mix-blend-mode:multiply;fill:url(#w)"/><circle cx="166.3" cy="312.8" r="3" style="fill:#ff7c24"/><circle cx="166.1" cy="261.8" r="3" style="fill:#ff7c24"/><circle cx="65.4" cy="261.5" r="3" style="fill:#ff7c24"/><line x1="65.5" y1="312.6" x2="122.9" y2="283.2" style="fill:none;stroke-miterlimit:10;stroke-width:6.1520928144455px;stroke:url(#x)"/><path d="M116.2,277.4,107,281c-.1.1-.1.2-.2.2a2.2,2.2,0,0,0-.9,1.7,2.9,2.9,0,0,0,.1,1.6l.3.5a2.2,2.2,0,0,0,.9,1l1.6,1,7.4-3.4,14.8-5.1Z" style="mix-blend-mode:multiply;fill:url(#y)"/><path d="M126,282.9a3.6,3.6,0,0,0-1.1-2h-.2l-8.8,2.8,6.9,3.4h.1c1.1-.7,2.5-1.2,3-2.5a5,5,0,0,0,.2-1.2C126,283,126,283,126,282.9Z" style="mix-blend-mode:multiply;fill:url(#z)"/><polygon points="106.8 273.9 99.3 277.6 107.3 280.8 116.2 277.4 106.8 273.9" style="mix-blend-mode:multiply;fill:url(#aa)"/><polygon points="122.5 235.9 115.7 239.4 123.1 243.2 130.7 240 122.5 235.9" style="mix-blend-mode:multiply;fill:url(#ab)"/><circle cx="166.1" cy="210.8" r="3" style="fill:#ff7c24"/><circle cx="65.6" cy="210.6" r="3" style="fill:#ff7c24"/><line x1="65.5" y1="261.6" x2="122.9" y2="232.3" style="fill:none;stroke-miterlimit:10;stroke-width:6.1520928144455px;stroke:url(#ac)"/><path d="M116.2,226.4l-9.2,3.7-.2.2c-.6.2-.8,1.1-.9,1.6a3.3,3.3,0,0,0,.1,1.7l.3.5a2,2,0,0,0,.9.9l1.6,1,7.4-3.3,14.8-5.2Z" style="mix-blend-mode:multiply;fill:url(#ad)"/><path d="M126,232a4.3,4.3,0,0,0-1.1-2.1h-.2l-8.8,2.8,6.9,3.4v-.2c1.1-.7,2.5-1.1,3-2.4a6.9,6.9,0,0,0,.2-1.3Z" style="mix-blend-mode:multiply;fill:url(#ae)"/><polygon points="106.8 222.9 99.3 226.7 107.3 229.9 116.2 226.4 106.8 222.9" style="mix-blend-mode:multiply;fill:url(#af)"/><polygon points="122.5 185 115.7 188.5 123.1 192.2 130.7 189.1 122.5 185" style="mix-blend-mode:multiply;fill:url(#ag)"/><circle cx="166.1" cy="159.9" r="3" style="fill:#ff7c24"/><circle cx="65.6" cy="159.7" r="3" style="fill:#ff7c24"/><line x1="65.5" y1="210.7" x2="122.9" y2="181.3" style="fill:none;stroke-miterlimit:10;stroke-width:6.1520928144455px;stroke:url(#ah)"/><path d="M116.2,175.5l-9.2,3.6-.2.2a2.2,2.2,0,0,0-.9,1.7,2.9,2.9,0,0,0,.1,1.6l.3.5a2.2,2.2,0,0,0,.9,1l1.6.9,7.4-3.3,14.8-5.1Z" style="mix-blend-mode:multiply;fill:url(#ai)"/><path d="M126,181a3.6,3.6,0,0,0-1.1-2h-.2l-8.8,2.8,6.9,3.4h.1c1.1-.8,2.5-1.2,3-2.5a5.9,5.9,0,0,0,.2-1.3Z" style="mix-blend-mode:multiply;fill:url(#aj)"/><polygon points="106.8 172 99.3 175.7 107.3 178.9 116.2 175.5 106.8 172" style="mix-blend-mode:multiply;fill:url(#ak)"/><polygon points="122.5 134 115.7 137.5 123.1 141.3 130.7 138.1 122.5 134" style="mix-blend-mode:multiply;fill:url(#al)"/><circle cx="166.1" cy="108.9" r="3" style="fill:#ff7c24"/><circle cx="65.8" cy="108.8" r="3" style="fill:#ff7c24"/><line x1="65.5" y1="159.7" x2="122.9" y2="130.3" style="fill:none;stroke-miterlimit:10;stroke-width:6.1520928144455px;stroke:url(#am)"/><path d="M116.2,124.5l-9.2,3.6c-.1.1-.1.2-.2.2s-.8,1.2-.9,1.7a3.3,3.3,0,0,0,.1,1.7l.3.5a2,2,0,0,0,.9.9l1.6,1,7.4-3.4,14.8-5.1Z" style="mix-blend-mode:multiply;fill:url(#an)"/><path d="M126,130a4,4,0,0,0-1.1-2h-.2l-8.8,2.8,6.9,3.3h.1c1.1-.7,2.5-1.1,3-2.5a5,5,0,0,0,.2-1.2Z" style="mix-blend-mode:multiply;fill:url(#ao)"/><polygon points="106.8 121 99.3 124.8 107.3 128 116.2 124.5 106.8 121" style="mix-blend-mode:multiply;fill:url(#ap)"/><line x1="166.3" y1="363.7" x2="130.7" y2="345.5" style="fill:none;stroke-miterlimit:10;stroke-width:6.1520928144455px;stroke:url(#aq)"/><line x1="166.3" y1="312.8" x2="130.7" y2="294.6" style="fill:none;stroke-miterlimit:10;stroke-width:6.1520928144455px;stroke:url(#ar)"/><line x1="166.3" y1="261.8" x2="130.7" y2="243.6" style="fill:none;stroke-miterlimit:10;stroke-width:6.1520928144455px;stroke:url(#as)"/><line x1="166.3" y1="210.8" x2="130.7" y2="192.7" style="fill:none;stroke-miterlimit:10;stroke-width:6.1520928144455px;stroke:url(#at)"/><line x1="166.3" y1="159.9" x2="130.7" y2="141.7" style="fill:none;stroke-miterlimit:10;stroke-width:6.1520928144455px;stroke:url(#au)"/><path d="M164.7,108.9s53.9-19.7,26.7-62.1c-2.8-4.4,0-14.6,0-14.6" style="fill:none;stroke-miterlimit:10;stroke-width:6.1520928144455px;stroke:url(#av)"/><path d="M65.8,108.8S48.4,84.9,52.1,56.4a58.8,58.8,0,0,0-3.2-27.5" style="fill:none;stroke-miterlimit:10;stroke-width:6.1520928144455px;stroke:url(#aw)"/><path d="M198.9,11a4.1,4.1,0,0,0-5.2,2.7l-7.1,21.1,7.9,2.6,7-21.1A4.3,4.3,0,0,0,198.9,11Z" style="fill:#aaa"/><path d="M39.9,8.3a4.1,4.1,0,0,0-2.2,5.4l8.5,20.5,7.6-3.1L45.3,10.5A4.1,4.1,0,0,0,39.9,8.3Z" style="fill:#aaa"/><path d="M49.6,26.7l-2.3,2.5a.2.2,0,0,0,.3.3l.7-.8H50l-1.9,2.1a.2.2,0,0,0,0,.3h.3l2.2-2.4c.1-.1.1-.1,0-.2h-2l1.3-1.5v-.2h0Z" style="fill:#5f5e6c"/><path d="M47.5,26.9h0a.2.2,0,0,1-.2.2h-.9c-.2,0-.3-.1-.3-.2l.2-.2h.9Z" style="fill:url(#ax)"/><path d="M193.9,31.8l-3.4-.3a.2.2,0,0,0,0,.4h1l1.1,1.3-2.9-.3a.2.2,0,1,0,0,.4l3.2.4h.3v-.2L192.1,32h1.8Z" style="fill:#5f5e6c"/><path d="M192.5,30.2h0a.2.2,0,0,1-.3,0l-.6-.7a.2.2,0,0,1,0-.3h.3l.6.7Z" style="fill:url(#ay)"/></g></svg>