<svg xmlns="http://www.w3.org/2000/svg" xmlns:xlink="http://www.w3.org/1999/xlink" viewBox="0 0 231.8 404.5"><defs><linearGradient id="a" x1="2.85" y1="169.95" x2="231.1" y2="169.95" gradientTransform="matrix(1, 0, 0, -1, 0, 406)" gradientUnits="userSpaceOnUse"><stop offset="0"/><stop offset="0.53" stop-color="#383642"/><stop offset="1"/></linearGradient><linearGradient id="b" x1="65.6" y1="42.15" x2="166.1" y2="42.15" gradientTransform="matrix(1, 0, 0, -1, 0, 406)" gradientUnits="userSpaceOnUse"><stop offset="0" stop-color="#3bd4ae"/><stop offset="1" stop-color="#3bd4ae"/></linearGradient><linearGradient id="c" x1="148.64" y1="42.15" x2="141.83" y2="42.15" gradientTransform="matrix(1, 0, 0, -1, 0, 406)" gradientUnits="userSpaceOnUse"><stop offset="0" stop-color="#383642"/><stop offset="1" stop-color="#383642" stop-opacity="0"/></linearGradient><linearGradient id="d" x1="83.01" y1="42.15" x2="91.64" y2="42.15" xlink:href="#c"/><linearGradient id="e" x1="74.37" y1="42.52" x2="68.51" y2="41.73" xlink:href="#c"/><linearGradient id="f" x1="-8043.95" y1="42.53" x2="-8049.81" y2="41.73" gradientTransform="translate(-7886.5 406) rotate(180)" xlink:href="#c"/><linearGradient id="g" x1="167" y1="100.63" x2="167" y2="96.62" xlink:href="#c"/><linearGradient id="h" x1="-8220.57" y1="100.65" x2="-8220.57" y2="96.64" gradientTransform="translate(-8155.8 406) rotate(180)" xlink:href="#c"/><linearGradient id="i" x1="116.15" y1="118.75" x2="120.4" y2="111.81" xlink:href="#c"/><linearGradient id="j" x1="115.46" y1="118.34" x2="111.62" y2="125.45" xlink:href="#c"/><linearGradient id="k" x1="98.2" y1="144.36" x2="95.47" y2="138.74" xlink:href="#c"/><linearGradient id="l" x1="98.98" y1="143.96" x2="102.55" y2="149.54" xlink:href="#c"/><linearGradient id="m" x1="62.96" y1="136.19" x2="65.68" y2="140.45" xlink:href="#c"/><linearGradient id="n" x1="-8130.2" y1="136.19" x2="-8127.48" y2="140.44" gradientTransform="translate(-7961.4 406) rotate(180)" xlink:href="#c"/><linearGradient id="o" x1="-8198.85" y1="3711.27" x2="-8196.13" y2="3715.53" gradientTransform="matrix(-1, 0, 0, 1, -8030.01, -3508.87)" xlink:href="#c"/><linearGradient id="p" x1="131.61" y1="3711.24" x2="134.33" y2="3715.5" gradientTransform="translate(-68.7 -3508.9)" xlink:href="#c"/><linearGradient id="q" x1="132.01" y1="144.35" x2="129.17" y2="139.14" xlink:href="#c"/><linearGradient id="r" x1="132.64" y1="143.79" x2="136.13" y2="149.69" xlink:href="#c"/><linearGradient id="s" x1="115.71" y1="169.71" x2="120.7" y2="162.81" gradientTransform="matrix(1, 0, 0, -1, 0, 406)" gradientUnits="userSpaceOnUse"><stop offset="0" stop-color="#383642"/><stop offset="0.69" stop-color="#383642" stop-opacity="0.31"/><stop offset="1" stop-color="#383642" stop-opacity="0"/></linearGradient><linearGradient id="t" x1="115.72" y1="168.77" x2="111.96" y2="176.01" xlink:href="#c"/><linearGradient id="u" x1="99.6" y1="196.17" x2="94.72" y2="188.8" xlink:href="#c"/><linearGradient id="v" x1="65.62" y1="239.04" x2="62.41" y2="243.43" xlink:href="#c"/><linearGradient id="w" x1="-8030.33" y1="239.08" x2="-8033.54" y2="243.47" gradientTransform="translate(-7864.2 406) rotate(180)" xlink:href="#c"/><linearGradient id="x" x1="148.09" y1="267.97" x2="143.58" y2="263.38" xlink:href="#c"/><linearGradient id="y" x1="160.9" y1="288.42" x2="164.78" y2="295.32" xlink:href="#c"/><linearGradient id="z" x1="70.66" y1="287.45" x2="66.91" y2="293.75" xlink:href="#c"/></defs><title>style--Artboard 1 copy 2</title><rect x="6.1" y="73.8" width="219.5" height="324.5" style="fill:url(#a)"/><path d="M165.7,213.4h.3a2.9,2.9,0,0,0,2.9-2.9V161.4h-5.5v51.2A5.2,5.2,0,0,0,165.7,213.4Z" style="fill:#3bd4ae"/><path d="M66,213.4h-.3a2.9,2.9,0,0,1-2.9-2.9V161.4h5.5v51.2A4.4,4.4,0,0,1,66,213.4Z" style="fill:#3bd4ae"/><path d="M66,158.5h-.3a2.9,2.9,0,0,0-2.9,2.9v49.1h5.5V159.3A3.7,3.7,0,0,0,66,158.5Z" style="fill:#3bd4ae"/><path d="M165.8,158.5a3.6,3.6,0,0,0-2.4.8v52l5.5-1.8V161.6A3.1,3.1,0,0,0,165.8,158.5Z" style="fill:#3bd4ae"/><rect x="62.9" y="261.6" width="5.5" height="51.1" style="fill:#3bd4ae"/><rect x="163.4" y="261.6" width="5.5" height="51.1" style="fill:#3bd4ae"/><rect x="65.6" y="361.1" width="100.5" height="5.5" style="fill:url(#b)"/><path d="M0,67.7V404.5H86.4V67.7ZM65.6,370.5a6.7,6.7,0,1,1,6.7-6.7A6.7,6.7,0,0,1,65.6,370.5Zm0-51.1a6.7,6.7,0,1,1,6.7-6.7A6.7,6.7,0,0,1,65.6,319.4Zm0-51.1a6.7,6.7,0,1,1,6.7-6.7A6.7,6.7,0,0,1,65.6,268.3Zm0-51.1a6.7,6.7,0,1,1,6.7-6.7A6.7,6.7,0,0,1,65.6,217.2Zm0-51.1a6.7,6.7,0,1,1,6.7-6.7A6.7,6.7,0,0,1,65.6,166.1Zm0-51.2a6.7,6.7,0,1,1,6.7-6.7A6.7,6.7,0,0,1,65.6,114.9Z" style="fill:#383642"/><path d="M65.6,352.6a11.3,11.3,0,1,0,11.3,11.3A11.2,11.2,0,0,0,65.6,352.6Zm0,17.9a6.7,6.7,0,1,1,6.7-6.7A6.7,6.7,0,0,1,65.6,370.5Z" style="fill:#636569"/><path d="M65.6,301.5a11.3,11.3,0,1,0,11.3,11.3A11.2,11.2,0,0,0,65.6,301.5Zm0,17.9a6.7,6.7,0,1,1,6.7-6.7A6.7,6.7,0,0,1,65.6,319.4Z" style="fill:#636569"/><path d="M65.6,250.4a11.3,11.3,0,1,0,11.3,11.3A11.2,11.2,0,0,0,65.6,250.4Zm0,17.9a6.7,6.7,0,1,1,6.7-6.7A6.7,6.7,0,0,1,65.6,268.3Z" style="fill:#636569"/><path d="M65.6,199.2a11.3,11.3,0,1,0,11.3,11.3A11.4,11.4,0,0,0,65.6,199.2Zm0,18a6.7,6.7,0,1,1,6.7-6.7A6.7,6.7,0,0,1,65.6,217.2Z" style="fill:#636569"/><path d="M65.6,148.1a11.3,11.3,0,1,0,11.3,11.3A11.4,11.4,0,0,0,65.6,148.1Zm0,18a6.7,6.7,0,1,1,6.7-6.7A6.7,6.7,0,0,1,65.6,166.1Z" style="fill:#636569"/><path d="M65.6,97a11.3,11.3,0,1,0,11.3,11.3A11.4,11.4,0,0,0,65.6,97Zm0,17.9a6.7,6.7,0,1,1,6.7-6.7A6.7,6.7,0,0,1,65.6,114.9Z" style="fill:#636569"/><path d="M231.8,404.5V67.7H145.4V404.5ZM166.1,101.6a6.7,6.7,0,1,1-6.7,6.7A6.8,6.8,0,0,1,166.1,101.6Zm0,51.1a6.7,6.7,0,1,1-6.7,6.7A6.8,6.8,0,0,1,166.1,152.7Zm0,51.2a6.7,6.7,0,1,1-6.7,6.7A6.7,6.7,0,0,1,166.1,203.9Zm0,51.1a6.7,6.7,0,1,1-6.7,6.7A6.8,6.8,0,0,1,166.1,255Zm0,51.1a6.7,6.7,0,1,1-6.7,6.7A6.7,6.7,0,0,1,166.1,306.1Zm0,51.1a6.7,6.7,0,1,1-6.7,6.7A6.7,6.7,0,0,1,166.1,357.2Z" style="fill:#383642"/><path d="M166.1,119.6a11.3,11.3,0,1,0-11.3-11.3A11.4,11.4,0,0,0,166.1,119.6Zm0-18a6.7,6.7,0,1,1-6.7,6.7A6.7,6.7,0,0,1,166.1,101.6Z" style="fill:#636569"/><path d="M166.1,170.7a11.3,11.3,0,1,0-11.3-11.3A11.4,11.4,0,0,0,166.1,170.7Zm0-18a6.7,6.7,0,1,1-6.7,6.7A6.8,6.8,0,0,1,166.1,152.7Z" style="fill:#636569"/><path d="M166.1,221.8a11.3,11.3,0,1,0-11.3-11.3A11.4,11.4,0,0,0,166.1,221.8Zm0-17.9a6.7,6.7,0,1,1-6.7,6.7A6.7,6.7,0,0,1,166.1,203.9Z" style="fill:#636569"/><path d="M166.1,272.9a11.3,11.3,0,1,0-11.3-11.3A11.4,11.4,0,0,0,166.1,272.9Zm0-17.9a6.7,6.7,0,1,1-6.7,6.7A6.7,6.7,0,0,1,166.1,255Z" style="fill:#636569"/><path d="M166.1,324a11.3,11.3,0,1,0-11.3-11.3A11.4,11.4,0,0,0,166.1,324Zm0-17.9a6.7,6.7,0,1,1-6.7,6.7A6.7,6.7,0,0,1,166.1,306.1Z" style="fill:#636569"/><path d="M166.1,375.2a11.3,11.3,0,1,0-11.3-11.3A11.4,11.4,0,0,0,166.1,375.2Zm0-18a6.7,6.7,0,1,1-6.7,6.7A6.8,6.8,0,0,1,166.1,357.2Z" style="fill:#636569"/><polygon points="68 365.4 63.3 362.4 164.3 208.3 168.4 212.1 68 365.4" style="fill:#3bd4ae"/><polygon points="163.8 365.4 115.9 292.3 119.2 287.2 168.4 362.4 163.8 365.4" style="fill:#3bd4ae"/><polygon points="112.6 287.2 63.3 212 68 209 115.9 282.1 112.6 287.2" style="fill:#3bd4ae"/><path d="M164.1,158.8a4.6,4.6,0,0,0-2.1,1.7l-.5.7h0l-41.3,63.1-56.9,87,4.6,3L168.4,160.9Z" style="fill:#3bd4ae"/><path d="M70.1,161.2h0l-.4-.6a4.8,4.8,0,0,0-2.8-2l-3.5,2.3L163.9,314.3l4.6-3Z" style="fill:#3bd4ae"/><path d="M62.9,261.6a2.9,2.9,0,0,1,.5-1.5l3.7.8-.6,1.8Z" style="fill:#3bd4ae"/><path d="M168.5,260.2a2,2,0,0,1,.4,1.4c0,1-3.5.6-3.5.6l-.2-1.8Z" style="fill:#3bd4ae"/><circle cx="65.6" cy="312.8" r="2.8" style="fill:#3bd4ae"/><circle cx="166.2" cy="312.8" r="2.8" style="fill:#3bd4ae"/><circle cx="65.6" cy="363.9" r="2.8" style="fill:#3bd4ae"/><circle cx="166.1" cy="363.9" r="2.8" style="fill:#3bd4ae"/><polygon points="112.6 287.2 82.3 241.3 85.7 236.1 115.9 282.1 112.6 287.2" style="fill:#3bd4ae"/><polygon points="120.5 224 124.2 228.4 112.1 246.9 108.7 242 120.5 224" style="fill:#3bd4ae"/><rect x="139.5" y="361.1" width="5.9" height="5.5" style="fill:url(#c)"/><rect x="86.4" y="361.1" width="5.2" height="5.5" style="fill:url(#d)"/><path d="M68,365.3v1.4h3.7a6.4,6.4,0,0,0,.6-2.8,6.7,6.7,0,0,0-.6-2.8h-.9Z" style="fill:url(#e)"/><path d="M163.8,365.3v1.4h-3.7a6.4,6.4,0,0,1-.6-2.8,6.7,6.7,0,0,1,.6-2.8h.9Z" style="fill:url(#f)"/><path d="M165.1,306.2l3.8,5.7v-5.2a6.4,6.4,0,0,0-2.8-.6Z" style="fill:url(#g)"/><path d="M66.7,306.2l-3.8,5.7v-5.2a6.4,6.4,0,0,1,2.8-.6Z" style="fill:url(#h)"/><polygon points="115.9 292.3 119.2 287.2 123.2 293.3 120.1 298.7 115.9 292.3" style="fill:url(#i)"/><polygon points="115.9 282.1 112.6 287.2 108.1 280.4 111.5 275.5 115.9 282.1" style="fill:url(#j)"/><polygon points="95.8 261.7 99.1 266.7 96.7 270.4 92.1 267.3 95.8 261.7" style="fill:url(#k)"/><polygon points="99.2 256.5 102.5 261.6 106.1 256.1 102.5 251.4 99.2 256.5" style="fill:url(#l)"/><path d="M68.4,267.7v-4.2H62.9v4.2a6.4,6.4,0,0,0,2.8.6A6.3,6.3,0,0,0,68.4,267.7Z" style="fill:url(#m)"/><path d="M163.4,267.7v-4.2h5.5v4.2a6.4,6.4,0,0,1-2.8.6A6,6,0,0,1,163.4,267.7Z" style="fill:url(#n)"/><path d="M163.4,204.5v4.2h5.5v-4.2a6.4,6.4,0,0,0-2.8-.6A6,6,0,0,0,163.4,204.5Z" style="fill:url(#o)"/><path d="M68.4,204.5v4.2H62.9v-4.2a6.4,6.4,0,0,1,2.8-.6A6.3,6.3,0,0,1,68.4,204.5Z" style="fill:url(#p)"/><polygon points="129.3 261.6 132.6 266.7 130.1 270.6 125.7 267.1 129.3 261.6" style="fill:url(#q)"/><polygon points="132.6 256.6 135.9 261.6 139.9 255.6 135.9 251.6 132.6 256.6" style="fill:url(#r)"/><polygon points="115.9 241.2 119.2 236.1 122.8 241.6 119.6 246.7 115.9 241.2" style="fill:url(#s)"/><polygon points="115.9 231 112.5 236.1 108.4 229.7 111.9 225 115.9 231" style="fill:url(#t)"/><polygon points="95.8 210.5 99.1 215.6 94.7 222.3 90.7 218.3 95.8 210.5" style="fill:url(#u)"/><path d="M66.6,166l-3.8-4.7v4.1a6.4,6.4,0,0,0,2.8.6Z" style="fill:url(#v)"/><path d="M165.1,166l3.8-4.7v4.1a6.4,6.4,0,0,1-2.8.6Z" style="fill:url(#w)"/><polygon points="145.3 135 145.3 145.1 142.2 149.9 139.9 143.3 145.3 135" style="fill:url(#x)"/><polygon points="162.7 108.1 159.4 113.4 165 117.1 169.3 109.5 162.7 108.1" style="fill:url(#y)"/><path d="M174.4,108.8h-1.6a6.7,6.7,0,0,1-13.3-.4,6.5,6.5,0,0,1,4.3-6.2,11.6,11.6,0,0,1-1.2-4.5,11.2,11.2,0,0,0-7.7,10.7,11.3,11.3,0,0,0,22.6.1A17.6,17.6,0,0,1,174.4,108.8Z" style="fill:#636569"/><polygon points="69.4 109.7 72.8 115.1 65.9 117.6 63.5 112.3 69.4 109.7" style="fill:url(#z)"/><path d="M70.1,97.9a10.7,10.7,0,0,1-1.9,4.2,6.6,6.6,0,0,1,4,6.1,6.7,6.7,0,1,1-13.4,0,2.8,2.8,0,0,1,.1-.9h-.6a13.4,13.4,0,0,1-4-.7,8.6,8.6,0,0,0-.1,1.6,11.3,11.3,0,0,0,22.6,0A11.1,11.1,0,0,0,70.1,97.9Z" style="fill:#636569"/><path d="M41.5,188.3c22.9,44,26.8,72.9,26.9,73.3l-5.5.7c-.1-.5-4.7-28.2-27-71.1Z" style="fill:#3bd4ae"/><path d="M167,263.7h1.9c0-.3-2-27.1,12.2-41.1,15.8-15.6,27.7-31.8,28-32.5l-5.9-2.5A301.7,301.7,0,0,1,176.6,218c-8.8,8.7-11.9,21-12.8,30.7a106.2,106.2,0,0,0-.4,14.9Z" style="fill:#3bd4ae"/><path d="M25.5,168.2a4.2,4.2,0,0,1,5.7,1.3l11.7,18.9-7,4.3L24.2,173.8A4.1,4.1,0,0,1,25.5,168.2Z" style="fill:#aaa"/><path d="M219,172.6a4,4,0,0,1,.6,5.8l-13.9,17.4-6.5-5.2,13.9-17.4A4.3,4.3,0,0,1,219,172.6Z" style="fill:#aaa"/><path d="M37.6,185.1l-1.9,2.8c-.1.1,0,.2,0,.3s.2,0,.3,0l.6-.8h0l1.7-.2-1.7,2.4c-.1.1,0,.2,0,.3h.3l1.9-2.7V187h-.2l-1.8.3,1.1-1.5v-.2h-.1C37.8,185,37.7,185,37.6,185.1Z" style="fill:#5f5e6c"/><path d="M35.5,185.5h0c0,.2,0,.3-.1.3h-.9a.2.2,0,0,1-.2-.2l.2-.2h1Z" style="fill:#3bd4ae"/><path d="M207,189.7l-3.3-.6h-.2c0,.1,0,.2.1.2l1,.2h0l.9,1.5-2.9-.5h-.2c0,.1,0,.2.1.2l3.3.6h.2v-.2l-1-1.6,1.8.3h.2Z" style="fill:#5f5e6c"/><path d="M205.8,188h-.3l-.5-.8c-.1-.1,0-.2.1-.3s.2,0,.3.1l.5.8C205.8,187.8,205.8,187.9,205.8,188Z" style="fill:#3bd4ae"/></svg>