<svg xmlns="http://www.w3.org/2000/svg" xmlns:xlink="http://www.w3.org/1999/xlink" viewBox="0 0 231.8 404.5"><defs><linearGradient id="a" x1="2.9" y1="234.22" x2="231.16" y2="234.22" gradientUnits="userSpaceOnUse"><stop offset="0"/><stop offset="0.53" stop-color="#383642"/><stop offset="1"/></linearGradient><linearGradient id="b" x1="-3211.06" y1="3847.83" x2="-3152.77" y2="3847.83" gradientTransform="translate(-333.3 -4647.2) rotate(-45)" gradientUnits="userSpaceOnUse"><stop offset="0" stop-color="#ff7c24"/><stop offset="1" stop-color="#ff7c24"/></linearGradient><linearGradient id="c" x1="65.5" y1="363.72" x2="166.31" y2="363.72" gradientTransform="matrix(1, 0, 0, 1, 0, 0)" xlink:href="#b"/><linearGradient id="d" x1="-11507.11" y1="-4448.5" x2="-11448.82" y2="-4448.5" gradientTransform="matrix(-0.71, -0.71, -0.71, 0.71, -11167.42, -4647.22)" xlink:href="#b"/><linearGradient id="e" x1="107.5" y1="349.04" x2="167.71" y2="349.04" gradientTransform="matrix(1, 0, 0, 1, 0, 0)" xlink:href="#b"/><linearGradient id="f" x1="118.89" y1="336.45" x2="123.53" y2="342.03" gradientUnits="userSpaceOnUse"><stop offset="0" stop-color="#383642"/><stop offset="1" stop-color="#383642" stop-opacity="0"/></linearGradient><linearGradient id="g" x1="-11625.08" y1="348.85" x2="-11564.87" y2="348.85" gradientTransform="matrix(-1, 0, 0, 1, -11500.77, 0)" xlink:href="#b"/><linearGradient id="h" x1="119.76" y1="339.27" x2="118.13" y2="330.63" xlink:href="#f"/><linearGradient id="i" x1="-11707.04" y1="-4197.4" x2="-11704.58" y2="-4206.97" gradientTransform="translate(-11583.8 -3871.6) rotate(180)" xlink:href="#f"/><linearGradient id="j" x1="117.21" y1="331.89" x2="108.16" y2="328.68" xlink:href="#f"/><linearGradient id="k" x1="129.34" y1="354.62" x2="167.71" y2="354.62" gradientTransform="matrix(1, 0, 0, 1, 0, 0)" xlink:href="#b"/><linearGradient id="l" x1="162.86" y1="248.6" x2="201.46" y2="248.6" gradientTransform="matrix(1, 0, 0, 1, 0, 0)" xlink:href="#b"/><linearGradient id="m" x1="117.23" y1="517.86" x2="149.44" y2="517.86" gradientTransform="translate(-125.4 -259.9) rotate(-5.1)" xlink:href="#b"/><linearGradient id="n" x1="52.06" y1="171.95" x2="53.41" y2="171.95" gradientTransform="matrix(1, 0, 0, 1, 0, 0)" xlink:href="#b"/><linearGradient id="o" x1="181.64" y1="168.73" x2="182.99" y2="168.73" gradientTransform="translate(184.2 -68.7) rotate(45)" xlink:href="#b"/></defs><title>style--Artboard 1 copy 13</title><g style="isolation:isolate"><rect x="6.2" y="72" width="219.5" height="324.53" style="fill:url(#a)"/><line x1="166.1" y1="312.8" x2="108.9" y2="334.4" style="fill:none;stroke-miterlimit:10;stroke-width:6.1520928144455px;stroke:url(#b)"/><line x1="65.5" y1="363.7" x2="166.3" y2="363.7" style="fill:none;stroke-miterlimit:10;stroke-width:6.1520928144455px;stroke:url(#c)"/><line x1="65.7" y1="312.6" x2="122.9" y2="334.2" style="fill:none;stroke-miterlimit:10;stroke-width:6.1520928144455px;stroke:url(#d)"/><line x1="166.3" y1="363.7" x2="108.9" y2="334.4" style="fill:none;stroke-miterlimit:10;stroke-width:6.1520928144455px;stroke:url(#e)"/><path d="M0,67.7V404.5H86.4V67.7ZM65.7,370.5a6.6,6.6,0,0,1-6.7-6.6,6.7,6.7,0,1,1,13.3,0A6.6,6.6,0,0,1,65.7,370.5Zm0-51.1a6.7,6.7,0,1,1,6.6-6.6A6.7,6.7,0,0,1,65.7,319.4Zm0-51.1a6.7,6.7,0,1,1,6.6-6.7A6.7,6.7,0,0,1,65.7,268.3Zm0-51.1a6.7,6.7,0,0,1-6.7-6.7,6.7,6.7,0,1,1,6.7,6.7Zm0-51.1a6.7,6.7,0,1,1,6.6-6.7A6.7,6.7,0,0,1,65.7,166.1Zm0-51.2a6.6,6.6,0,0,1-6.7-6.6,6.7,6.7,0,1,1,13.3,0A6.6,6.6,0,0,1,65.7,114.9Z" style="fill:#383642"/><path d="M65.7,352.6a11.3,11.3,0,1,0,11.2,11.3A11.2,11.2,0,0,0,65.7,352.6Zm0,17.9a6.6,6.6,0,0,1-6.7-6.6,6.7,6.7,0,1,1,13.3,0A6.6,6.6,0,0,1,65.7,370.5Z" style="fill:#636569"/><path d="M65.7,301.5a11.3,11.3,0,1,0,11.2,11.3A11.2,11.2,0,0,0,65.7,301.5Zm0,17.9a6.7,6.7,0,1,1,6.6-6.6A6.7,6.7,0,0,1,65.7,319.4Z" style="fill:#636569"/><path d="M65.7,250.4a11.3,11.3,0,1,0,11.2,11.2A11.2,11.2,0,0,0,65.7,250.4Zm0,17.9a6.7,6.7,0,1,1,6.6-6.7A6.7,6.7,0,0,1,65.7,268.3Z" style="fill:#636569"/><path d="M65.7,199.2a11.3,11.3,0,1,0,11.2,11.3A11.3,11.3,0,0,0,65.7,199.2Zm0,18a6.7,6.7,0,0,1-6.7-6.7,6.7,6.7,0,1,1,6.7,6.7Z" style="fill:#636569"/><path d="M65.7,148.1a11.3,11.3,0,1,0,11.2,11.3A11.3,11.3,0,0,0,65.7,148.1Zm0,18a6.7,6.7,0,1,1,6.6-6.7A6.7,6.7,0,0,1,65.7,166.1Z" style="fill:#636569"/><path d="M65.7,97a11.3,11.3,0,1,0,11.2,11.3A11.2,11.2,0,0,0,65.7,97Zm0,17.9a6.6,6.6,0,0,1-6.7-6.6,6.7,6.7,0,1,1,13.3,0A6.6,6.6,0,0,1,65.7,114.9Z" style="fill:#636569"/><path d="M231.8,404.5V67.7H145.4V404.5ZM166.1,101.6a6.7,6.7,0,0,1,6.7,6.7,6.7,6.7,0,1,1-6.7-6.7Zm0,51.1a6.7,6.7,0,1,1-6.6,6.7A6.7,6.7,0,0,1,166.1,152.7Zm0,51.2a6.6,6.6,0,0,1,6.7,6.6,6.7,6.7,0,1,1-13.3,0A6.6,6.6,0,0,1,166.1,203.9Zm0,51.1a6.7,6.7,0,1,1-6.6,6.6A6.7,6.7,0,0,1,166.1,255Zm0,51.1a6.7,6.7,0,1,1-6.6,6.7A6.7,6.7,0,0,1,166.1,306.1Zm0,51.1a6.7,6.7,0,0,1,6.7,6.7,6.7,6.7,0,1,1-6.7-6.7Z" style="fill:#383642"/><path d="M166.1,119.6a11.3,11.3,0,1,0-11.2-11.3A11.3,11.3,0,0,0,166.1,119.6Zm0-18a6.7,6.7,0,0,1,6.7,6.7,6.7,6.7,0,1,1-6.7-6.7Z" style="fill:#636569"/><path d="M166.1,170.7a11.3,11.3,0,1,0-11.2-11.3A11.3,11.3,0,0,0,166.1,170.7Zm0-18a6.7,6.7,0,1,1-6.6,6.7A6.7,6.7,0,0,1,166.1,152.7Z" style="fill:#636569"/><path d="M166.1,221.8a11.3,11.3,0,1,0-11.2-11.3A11.3,11.3,0,0,0,166.1,221.8Zm0-17.9a6.6,6.6,0,0,1,6.7,6.6,6.7,6.7,0,1,1-13.3,0A6.6,6.6,0,0,1,166.1,203.9Z" style="fill:#636569"/><path d="M166.1,272.9a11.3,11.3,0,1,0-11.2-11.3A11.2,11.2,0,0,0,166.1,272.9Zm0-17.9a6.7,6.7,0,1,1-6.6,6.6A6.7,6.7,0,0,1,166.1,255Z" style="fill:#636569"/><path d="M166.1,324a11.3,11.3,0,1,0-11.2-11.2A11.2,11.2,0,0,0,166.1,324Zm0-17.9a6.7,6.7,0,1,1-6.6,6.7A6.7,6.7,0,0,1,166.1,306.1Z" style="fill:#636569"/><path d="M166.1,375.2a11.3,11.3,0,1,0-11.2-11.3A11.3,11.3,0,0,0,166.1,375.2Zm0-18a6.7,6.7,0,0,1,6.7,6.7,6.7,6.7,0,1,1-6.7-6.7Z" style="fill:#636569"/><polygon points="122.5 337.9 115.7 341.3 123.1 345.1 130.7 341.9 122.5 337.9" style="mix-blend-mode:multiply;fill:url(#f)"/><circle cx="166.3" cy="363.7" r="3" style="fill:#ff7c24"/><circle cx="65.5" cy="363.7" r="3" style="fill:#ff7c24"/><circle cx="166.1" cy="312.8" r="3" style="fill:#ff7c24"/><circle cx="65.6" cy="312.5" r="3" style="fill:#ff7c24"/><line x1="65.5" y1="363.5" x2="122.9" y2="334.2" style="fill:none;stroke-miterlimit:10;stroke-width:6.1520928144455px;stroke:url(#g)"/><circle cx="122.9" cy="334.2" r="3" style="fill:#ff7c24"/><circle cx="108.9" cy="334.4" r="3" style="fill:#ff7c24"/><path d="M116.2,328.3,107,332l-.2.2c-.6.2-.8,1.1-.9,1.6a3.3,3.3,0,0,0,.1,1.7l.3.5a2.8,2.8,0,0,0,.9,1l1.6.9,7.4-3.3,14.8-5.2Z" style="mix-blend-mode:multiply;fill:url(#h)"/><path d="M126,333.9a4.3,4.3,0,0,0-1.1-2.1h-.2l-8.8,2.8,6.9,3.4v-.2c1.1-.7,2.5-1.1,3-2.4a6.9,6.9,0,0,0,.2-1.3A.1.1,0,0,1,126,333.9Z" style="mix-blend-mode:multiply;fill:url(#i)"/><polygon points="106.8 324.8 99.3 328.6 107.3 331.8 116.2 328.3 106.8 324.8" style="mix-blend-mode:multiply;fill:url(#j)"/><line x1="166.3" y1="363.7" x2="130.7" y2="345.5" style="fill:none;stroke-miterlimit:10;stroke-width:6.1520928144455px;stroke:url(#k)"/><path d="M164.1,313.6s42.7-19.5,32.8-66.9-3.3-64.8-3.3-64.8" style="fill:none;stroke-miterlimit:10;stroke-width:6.1520928144455px;stroke:url(#l)"/><path d="M201.1,160.8a4,4,0,0,0-5.2,2.6l-7.1,21.1,7.9,2.6,7-21.1A4.1,4.1,0,0,0,201.1,160.8Z" style="fill:#aaa"/><path d="M66.6,312.8S27.7,303,51.1,245.3s2.7-71.6,2.7-71.6" style="fill:none;stroke-miterlimit:10;stroke-width:6.1520928144455px;stroke:url(#m)"/><path d="M41.5,154.8a4.2,4.2,0,0,0-1,5.8l12.7,18.3,6.8-4.8L47.3,155.9A4.2,4.2,0,0,0,41.5,154.8Z" style="fill:#aaa"/><path d="M55.5,171.6l-2.1,2.6c-.1.1,0,.3,0,.3h.3l.6-.8h0l1.8-.2-1.8,2.3c-.1,0-.1.2,0,.2h.3l2-2.6c.1-.1.1-.1.1-.2h-2l1.1-1.5c.1-.1.1-.1,0-.2h0Z" style="fill:#5f5e6c"/><path d="M53.4,171.9h0c0,.1,0,.2-.2.2h-.9c-.1,0-.2,0-.2-.2s0-.2.1-.2h1Z" style="fill:url(#n)"/><path d="M196.1,181.2l-3.4.4a.2.2,0,0,0-.2.2l.2.2,1-.2h0l1.4,1.1-2.9.4c-.1,0-.2.1-.1.2a.2.2,0,0,0,.2.2l3.3-.4c.1,0,.1,0,.1-.2h0l-1.4-1.3,1.9-.2.2-.2h-.3Z" style="fill:#5f5e6c"/><path d="M194.3,179.9H194l-.6-.6c-.2-.1-.2-.2-.1-.3s.2-.2.3-.1l.7.6Z" style="fill:url(#o)"/></g></svg>