<svg xmlns="http://www.w3.org/2000/svg" xmlns:xlink="http://www.w3.org/1999/xlink" viewBox="0 0 231.8 404.5"><defs><linearGradient id="a" x1="2.9" y1="234.22" x2="231.16" y2="234.22" gradientUnits="userSpaceOnUse"><stop offset="0"/><stop offset="0.53" stop-color="#383642"/><stop offset="1"/></linearGradient><linearGradient id="b" x1="165.87" y1="519.96" x2="198.07" y2="519.96" gradientTransform="translate(-124.4 -238.3) rotate(-5.1)" gradientUnits="userSpaceOnUse"><stop offset="0" stop-color="#ff7c24"/><stop offset="1" stop-color="#ff7c24"/></linearGradient><linearGradient id="c" x1="65.5" y1="363.72" x2="166.31" y2="363.72" gradientTransform="matrix(1, 0, 0, 1, 0, 0)" xlink:href="#b"/><linearGradient id="d" x1="114.36" y1="350.8" x2="167.71" y2="350.8" gradientTransform="matrix(1, 0, 0, 1, 0, 0)" xlink:href="#b"/><linearGradient id="e" x1="118.89" y1="336.45" x2="123.53" y2="342.03" gradientUnits="userSpaceOnUse"><stop offset="0" stop-color="#383642"/><stop offset="1" stop-color="#383642" stop-opacity="0"/></linearGradient><linearGradient id="f" x1="-11139.43" y1="348.85" x2="-11079.22" y2="348.85" gradientTransform="matrix(-1, 0, 0, 1, -11015.12, 0)" xlink:href="#b"/><linearGradient id="g" x1="110.76" y1="268.81" x2="151.87" y2="268.81" gradientTransform="matrix(1, 0, 0, 1, 0, 0)" xlink:href="#b"/><linearGradient id="h" x1="131.72" y1="188.56" x2="133.07" y2="188.56" gradientTransform="translate(105.1 429.5) rotate(-135)" xlink:href="#b"/><linearGradient id="i" x1="117.31" y1="332.1" x2="110.1" y2="329.54" xlink:href="#e"/><linearGradient id="j" x1="129.34" y1="354.62" x2="167.71" y2="354.62" gradientTransform="matrix(1, 0, 0, 1, 0, 0)" xlink:href="#b"/><linearGradient id="k" x1="113.48" y1="345.92" x2="117.32" y2="331.13" xlink:href="#e"/><linearGradient id="l" x1="-11265.33" y1="-4545.4" x2="-11262.86" y2="-4554.96" gradientTransform="matrix(-1.01, 0.11, -0.11, -1.06, -11805.75, -3242.59)" xlink:href="#e"/><linearGradient id="m" x1="101.52" y1="190.94" x2="102.86" y2="190.94" gradientTransform="matrix(1, 0, 0, 1, 0, 0)" xlink:href="#b"/></defs><title>style--Artboard 1 copy 12</title><g style="isolation:isolate"><rect x="6.2" y="72" width="219.5" height="324.53" style="fill:url(#a)"/><path d="M116.2,332.1s-38.9-9.8-15.5-67.5,2.7-71.5,2.7-71.5" style="fill:none;stroke-miterlimit:10;stroke-width:6.1520928144455px;stroke:url(#b)"/><path d="M91.1,174.2a4.1,4.1,0,0,0-1,5.7l12.7,18.3,6.8-4.7L96.9,175.2A4.2,4.2,0,0,0,91.1,174.2Z" style="fill:#aaa"/><line x1="65.5" y1="363.7" x2="166.3" y2="363.7" style="fill:none;stroke-miterlimit:10;stroke-width:6.1520928144455px;stroke:url(#c)"/><line x1="166.3" y1="363.7" x2="115.8" y2="337.9" style="fill:none;stroke-miterlimit:10;stroke-width:6.1520928144455px;stroke:url(#d)"/><path d="M0,67.7V404.5H86.4V67.7ZM65.7,370.5a6.6,6.6,0,0,1-6.7-6.6,6.7,6.7,0,1,1,13.3,0A6.6,6.6,0,0,1,65.7,370.5Zm0-51.1a6.7,6.7,0,1,1,6.6-6.6A6.7,6.7,0,0,1,65.7,319.4Zm0-51.1a6.7,6.7,0,1,1,6.6-6.7A6.7,6.7,0,0,1,65.7,268.3Zm0-51.1a6.7,6.7,0,0,1-6.7-6.7,6.7,6.7,0,1,1,6.7,6.7Zm0-51.1a6.7,6.7,0,1,1,6.6-6.7A6.7,6.7,0,0,1,65.7,166.1Zm0-51.2a6.6,6.6,0,0,1-6.7-6.6,6.7,6.7,0,1,1,13.3,0A6.6,6.6,0,0,1,65.7,114.9Z" style="fill:#383642"/><path d="M65.7,352.6a11.3,11.3,0,1,0,11.2,11.3A11.2,11.2,0,0,0,65.7,352.6Zm0,17.9a6.6,6.6,0,0,1-6.7-6.6,6.7,6.7,0,1,1,13.3,0A6.6,6.6,0,0,1,65.7,370.5Z" style="fill:#636569"/><path d="M65.7,301.5a11.3,11.3,0,1,0,11.2,11.3A11.2,11.2,0,0,0,65.7,301.5Zm0,17.9a6.7,6.7,0,1,1,6.6-6.6A6.7,6.7,0,0,1,65.7,319.4Z" style="fill:#636569"/><path d="M65.7,250.4a11.3,11.3,0,1,0,11.2,11.2A11.2,11.2,0,0,0,65.7,250.4Zm0,17.9a6.7,6.7,0,1,1,6.6-6.7A6.7,6.7,0,0,1,65.7,268.3Z" style="fill:#636569"/><path d="M65.7,199.2a11.3,11.3,0,1,0,11.2,11.3A11.3,11.3,0,0,0,65.7,199.2Zm0,18a6.7,6.7,0,0,1-6.7-6.7,6.7,6.7,0,1,1,6.7,6.7Z" style="fill:#636569"/><path d="M65.7,148.1a11.3,11.3,0,1,0,11.2,11.3A11.3,11.3,0,0,0,65.7,148.1Zm0,18a6.7,6.7,0,1,1,6.6-6.7A6.7,6.7,0,0,1,65.7,166.1Z" style="fill:#636569"/><path d="M65.7,97a11.3,11.3,0,1,0,11.2,11.3A11.2,11.2,0,0,0,65.7,97Zm0,17.9a6.6,6.6,0,0,1-6.7-6.6,6.7,6.7,0,1,1,13.3,0A6.6,6.6,0,0,1,65.7,114.9Z" style="fill:#636569"/><path d="M231.8,404.5V67.7H145.4V404.5ZM166.1,101.6a6.7,6.7,0,0,1,6.7,6.7,6.7,6.7,0,1,1-6.7-6.7Zm0,51.1a6.7,6.7,0,1,1-6.6,6.7A6.7,6.7,0,0,1,166.1,152.7Zm0,51.2a6.6,6.6,0,0,1,6.7,6.6,6.7,6.7,0,1,1-13.3,0A6.6,6.6,0,0,1,166.1,203.9Zm0,51.1a6.7,6.7,0,1,1-6.6,6.6A6.7,6.7,0,0,1,166.1,255Zm0,51.1a6.7,6.7,0,1,1-6.6,6.7A6.7,6.7,0,0,1,166.1,306.1Zm0,51.1a6.7,6.7,0,0,1,6.7,6.7,6.7,6.7,0,1,1-6.7-6.7Z" style="fill:#383642"/><path d="M166.1,119.6a11.3,11.3,0,1,0-11.2-11.3A11.3,11.3,0,0,0,166.1,119.6Zm0-18a6.7,6.7,0,0,1,6.7,6.7,6.7,6.7,0,1,1-6.7-6.7Z" style="fill:#636569"/><path d="M166.1,170.7a11.3,11.3,0,1,0-11.2-11.3A11.3,11.3,0,0,0,166.1,170.7Zm0-18a6.7,6.7,0,1,1-6.6,6.7A6.7,6.7,0,0,1,166.1,152.7Z" style="fill:#636569"/><path d="M166.1,221.8a11.3,11.3,0,1,0-11.2-11.3A11.3,11.3,0,0,0,166.1,221.8Zm0-17.9a6.6,6.6,0,0,1,6.7,6.6,6.7,6.7,0,1,1-13.3,0A6.6,6.6,0,0,1,166.1,203.9Z" style="fill:#636569"/><path d="M166.1,272.9a11.3,11.3,0,1,0-11.2-11.3A11.2,11.2,0,0,0,166.1,272.9Zm0-17.9a6.7,6.7,0,1,1-6.6,6.6A6.7,6.7,0,0,1,166.1,255Z" style="fill:#636569"/><path d="M166.1,324a11.3,11.3,0,1,0-11.2-11.2A11.2,11.2,0,0,0,166.1,324Zm0-17.9a6.7,6.7,0,1,1-6.6,6.7A6.7,6.7,0,0,1,166.1,306.1Z" style="fill:#636569"/><path d="M166.1,375.2a11.3,11.3,0,1,0-11.2-11.3A11.3,11.3,0,0,0,166.1,375.2Zm0-18a6.7,6.7,0,0,1,6.7,6.7,6.7,6.7,0,1,1-6.7-6.7Z" style="fill:#636569"/><polygon points="122.5 337.9 115.7 341.3 123.1 345.1 130.7 341.9 122.5 337.9" style="mix-blend-mode:multiply;fill:url(#e)"/><circle cx="166.3" cy="363.7" r="3" style="fill:#ff7c24"/><circle cx="65.5" cy="363.7" r="3" style="fill:#ff7c24"/><line x1="65.5" y1="363.5" x2="122.9" y2="334.2" style="fill:none;stroke-miterlimit:10;stroke-width:6.1520928144455px;stroke:url(#f)"/><circle cx="122.9" cy="334.2" r="3" style="fill:#ff7c24"/><path d="M112.1,335.2s45.2-22.2,35.3-69.6-3.3-64.8-3.3-64.8" style="fill:none;stroke-miterlimit:10;stroke-width:6.1520928144455px;stroke:url(#g)"/><path d="M151.6,179.7a4,4,0,0,0-5.2,2.6l-7.1,21.1,7.9,2.6,7-21.1A4.1,4.1,0,0,0,151.6,179.7Z" style="fill:#aaa"/><path d="M142.6,200.9l3.4-.4.2-.2a.2.2,0,0,0-.2-.2l-1,.2h0l-1.4-1.1,2.9-.4c.1,0,.2-.1.1-.2l-.2-.2-3.3.4H143v.2l1.4,1.2-1.9.3-.2.2h.3Z" style="fill:#5f5e6c"/><path d="M144.3,202.2h0c.1-.1.2-.2.3-.1l.7.6c.2.1.2.2.1.3s-.2.2-.3.1l-.7-.6Z" style="fill:url(#h)"/><circle cx="112.6" cy="336.3" r="3" style="fill:#ff7c24"/><polygon points="109.6 325.4 103.2 329 110.9 333.8 116.5 329.1 109.6 325.4" style="mix-blend-mode:multiply;fill:url(#i)"/><line x1="166.3" y1="363.7" x2="130.7" y2="345.5" style="fill:none;stroke-miterlimit:10;stroke-width:6.1520928144455px;stroke:url(#j)"/><path d="M118,327.8l-7.1,6-1.1.7a2.5,2.5,0,0,0-.6,1.8c0,.6-.3.1,0,.6s-.3.2-.1.3.2-.1.6,0-.6-.1,0,0l9.5-3.8,5-2.3Z" style="mix-blend-mode:multiply;fill:url(#k)"/><path d="M125.8,333.3a3.8,3.8,0,0,0-1.4-2.1h-.2l-8.5,3.9,7.3,2.8h.1c1-.9,2.4-1.5,2.7-2.9a2.3,2.3,0,0,0,.1-1.4Z" style="mix-blend-mode:multiply;fill:url(#l)"/><path d="M105,190.6l-2.1,2.6c-.1.1-.1.3,0,.3h.3l.6-.8h0l1.7-.2-1.8,2.2c0,.1,0,.3.1.3h.2l2.1-2.6v-.2h-2l1.2-1.5v-.3h-.1Z" style="fill:#5f5e6c"/><path d="M102.9,190.9h0l-.2.2h-.9c-.2,0-.3-.1-.3-.2l.2-.2h.9Z" style="fill:url(#m)"/></g></svg>