<svg xmlns="http://www.w3.org/2000/svg" xmlns:xlink="http://www.w3.org/1999/xlink" viewBox="0 0 231.8 404.5"><defs><linearGradient id="a" x1="2.89" y1="236.08" x2="231.15" y2="236.08" gradientUnits="userSpaceOnUse"><stop offset="0"/><stop offset="0.53" stop-color="#383642"/><stop offset="1"/></linearGradient><linearGradient id="b" x1="-1870" y1="-3596.39" x2="-1769.72" y2="-3596.39" gradientTransform="translate(-1704 -3437) rotate(180)" gradientUnits="userSpaceOnUse"><stop offset="0" stop-color="#ff595a"/><stop offset="1" stop-color="#ff595a"/></linearGradient><linearGradient id="c" x1="116.86" y1="209.65" x2="109.28" y2="216.88" gradientUnits="userSpaceOnUse"><stop offset="0" stop-color="#383642"/><stop offset="1" stop-color="#383642" stop-opacity="0"/></linearGradient><linearGradient id="d" x1="115.63" y1="210.32" x2="121.02" y2="205" xlink:href="#c"/><linearGradient id="e" x1="148.2" y1="178" x2="140.77" y2="184.66" xlink:href="#c"/><linearGradient id="f" x1="72.13" y1="165.56" x2="67.3" y2="162.84" xlink:href="#c"/><linearGradient id="g" x1="-4826.01" y1="165.56" x2="-4830.84" y2="162.84" gradientTransform="matrix(-1, 0, 0, 1, -4666.33, 0)" xlink:href="#c"/><linearGradient id="h" x1="159.21" y1="268.94" x2="163.96" y2="263.39" xlink:href="#c"/><linearGradient id="i" x1="-4432.24" y1="887.52" x2="-4427.49" y2="881.97" gradientTransform="translate(-902.6 -4145.3) rotate(-91.1)" xlink:href="#c"/><linearGradient id="j" x1="65.96" y1="320.92" x2="65.96" y2="315.37" xlink:href="#c"/><linearGradient id="k" x1="-4817.75" y1="320.92" x2="-4817.75" y2="315.37" gradientTransform="matrix(-1, 0, 0, 1, -4651.95, 0)" xlink:href="#c"/><linearGradient id="l" x1="166.27" y1="355.83" x2="167.59" y2="359.69" xlink:href="#c"/><linearGradient id="m" x1="-5042.78" y1="355.83" x2="-5041.46" y2="359.69" gradientTransform="matrix(-1, 0, 0, 1, -4977.25, 0)" xlink:href="#c"/><linearGradient id="n" x1="83.86" y1="281.44" x2="87.72" y2="282.66" xlink:href="#c"/><linearGradient id="o" x1="116.07" y1="314.03" x2="109.88" y2="306.07" xlink:href="#c"/><linearGradient id="p" x1="115.79" y1="311.78" x2="120.42" y2="317.01" xlink:href="#c"/></defs><title>style--gentlemanArtboard 1 copy 9</title><g style="isolation:isolate"><rect x="6.2" y="73.8" width="219.5" height="324.53" style="fill:url(#a)"/><rect x="140.9" y="269" width="29.5" height="6.15" transform="translate(-147.5 192.5) rotate(-45.5)" style="fill:#ff595a"/><rect x="62.7" y="312.6" width="6.2" height="51.06" style="fill:#ff595a"/><rect x="112.8" y="138.9" width="6.2" height="143.13" transform="translate(-114.3 141.5) rotate(-44.5)" style="fill:#ff595a"/><rect x="140.8" y="166.8" width="29.6" height="6.15" transform="translate(-74.6 159.8) rotate(-45)" style="fill:#ff595a"/><rect x="73.1" y="257.2" width="6.2" height="29.58" transform="translate(-170 133.6) rotate(-45)" style="fill:#ff595a"/><rect x="162.9" y="312.6" width="6.2" height="51.06" style="fill:#ff595a"/><path d="M0,67.7V404.5H86.4V67.7ZM65.7,370.5a6.6,6.6,0,0,1-6.7-6.6,6.7,6.7,0,1,1,13.3,0A6.6,6.6,0,0,1,65.7,370.5Zm0-51.1a6.7,6.7,0,1,1,6.6-6.6A6.7,6.7,0,0,1,65.7,319.4Zm0-51.1a6.7,6.7,0,1,1,6.6-6.7A6.7,6.7,0,0,1,65.7,268.3Zm0-51.1a6.7,6.7,0,0,1-6.7-6.7,6.7,6.7,0,1,1,6.7,6.7Zm0-51.1a6.7,6.7,0,1,1,6.6-6.7A6.7,6.7,0,0,1,65.7,166.1Zm0-51.2a6.6,6.6,0,0,1-6.7-6.6,6.7,6.7,0,1,1,13.3,0A6.6,6.6,0,0,1,65.7,114.9Z" style="fill:#383642"/><path d="M65.7,352.6a11.3,11.3,0,1,0,11.2,11.3A11.2,11.2,0,0,0,65.7,352.6Zm0,17.9a6.6,6.6,0,0,1-6.7-6.6,6.7,6.7,0,1,1,13.3,0A6.6,6.6,0,0,1,65.7,370.5Z" style="fill:#636569"/><path d="M65.7,301.5a11.3,11.3,0,1,0,11.2,11.3A11.2,11.2,0,0,0,65.7,301.5Zm0,17.9a6.7,6.7,0,1,1,6.6-6.6A6.7,6.7,0,0,1,65.7,319.4Z" style="fill:#636569"/><path d="M65.7,250.4a11.3,11.3,0,1,0,11.2,11.2A11.2,11.2,0,0,0,65.7,250.4Zm0,17.9a6.7,6.7,0,1,1,6.6-6.7A6.7,6.7,0,0,1,65.7,268.3Z" style="fill:#636569"/><path d="M65.7,199.2a11.3,11.3,0,1,0,11.2,11.3A11.3,11.3,0,0,0,65.7,199.2Zm0,18a6.7,6.7,0,0,1-6.7-6.7,6.7,6.7,0,1,1,6.7,6.7Z" style="fill:#636569"/><path d="M65.7,148.1a11.3,11.3,0,1,0,11.2,11.3A11.3,11.3,0,0,0,65.7,148.1Zm0,18a6.7,6.7,0,1,1,6.6-6.7A6.7,6.7,0,0,1,65.7,166.1Z" style="fill:#636569"/><path d="M65.7,97a11.3,11.3,0,1,0,11.2,11.3A11.2,11.2,0,0,0,65.7,97Zm0,17.9a6.6,6.6,0,0,1-6.7-6.6,6.7,6.7,0,1,1,13.3,0A6.6,6.6,0,0,1,65.7,114.9Z" style="fill:#636569"/><path d="M231.8,404.5V67.7H145.4V404.5ZM166.1,101.6a6.7,6.7,0,0,1,6.7,6.7,6.7,6.7,0,1,1-6.7-6.7Zm0,51.1a6.7,6.7,0,1,1-6.6,6.7A6.7,6.7,0,0,1,166.1,152.7Zm0,51.2a6.6,6.6,0,0,1,6.7,6.6,6.7,6.7,0,1,1-13.3,0A6.6,6.6,0,0,1,166.1,203.9Zm0,51.1a6.7,6.7,0,1,1-6.6,6.6A6.7,6.7,0,0,1,166.1,255Zm0,51.1a6.7,6.7,0,1,1-6.6,6.7A6.7,6.7,0,0,1,166.1,306.1Zm0,51.1a6.7,6.7,0,0,1,6.7,6.7,6.7,6.7,0,1,1-6.7-6.7Z" style="fill:#383642"/><path d="M166.1,119.6a11.3,11.3,0,1,0-11.2-11.3A11.3,11.3,0,0,0,166.1,119.6Zm0-18a6.7,6.7,0,0,1,6.7,6.7,6.7,6.7,0,1,1-6.7-6.7Z" style="fill:#636569"/><path d="M166.1,170.7a11.3,11.3,0,1,0-11.2-11.3A11.3,11.3,0,0,0,166.1,170.7Zm0-18a6.7,6.7,0,1,1-6.6,6.7A6.7,6.7,0,0,1,166.1,152.7Z" style="fill:#636569"/><path d="M166.1,221.8a11.3,11.3,0,1,0-11.2-11.3A11.3,11.3,0,0,0,166.1,221.8Zm0-17.9a6.6,6.6,0,0,1,6.7,6.6,6.7,6.7,0,1,1-13.3,0A6.6,6.6,0,0,1,166.1,203.9Z" style="fill:#636569"/><path d="M166.1,272.9a11.3,11.3,0,1,0-11.2-11.3A11.2,11.2,0,0,0,166.1,272.9Zm0-17.9a6.7,6.7,0,1,1-6.6,6.6A6.7,6.7,0,0,1,166.1,255Z" style="fill:#636569"/><path d="M166.1,324a11.3,11.3,0,1,0-11.2-11.2A11.2,11.2,0,0,0,166.1,324Zm0-17.9a6.7,6.7,0,1,1-6.6,6.7A6.7,6.7,0,0,1,166.1,306.1Z" style="fill:#636569"/><path d="M166.1,375.2a11.3,11.3,0,1,0-11.2-11.3A11.3,11.3,0,0,0,166.1,375.2Zm0-18a6.7,6.7,0,0,1,6.7,6.7,6.7,6.7,0,1,1-6.7-6.7Z" style="fill:#636569"/><polygon points="163.8 365.8 86.4 286.7 86.4 277.9 168.2 361.5 163.8 365.8" style="fill:#ff595a"/><polygon points="67.9 263.7 63.5 259.4 145.4 175.7 145.4 184.5 67.9 263.7" style="fill:#ff595a"/><rect x="65.7" y="156.4" width="100.3" height="6.15" style="fill:url(#b)"/><rect x="143.4" y="213.8" width="6.2" height="55.71" transform="translate(-127.4 171.9) rotate(-44.5)" style="fill:#ff595a"/><polygon points="67.9 365.8 63.5 361.5 145.4 278.2 145.3 287 67.9 365.8" style="fill:#ff595a"/><circle cx="65.7" cy="363.7" r="3.1" style="fill:#ff595a"/><circle cx="166" cy="363.7" r="3.1" style="fill:#ff595a"/><circle cx="166.1" cy="312.6" r="3" style="fill:#ff595a"/><circle cx="65.7" cy="312.6" r="3.1" style="fill:#ff595a"/><circle cx="65.6" cy="261.6" r="3" style="fill:#ff595a"/><circle cx="166" cy="261.6" r="3.1" style="fill:#ff595a"/><circle cx="166.1" cy="159.4" r="3" style="fill:#ff595a"/><circle cx="65.7" cy="159.4" r="3.1" style="fill:#ff595a"/><polygon points="111.5 210.4 115.8 214.8 110.6 220.1 106.2 215.8 111.5 210.4" style="mix-blend-mode:multiply;fill:url(#c)"/><polygon points="115.8 206 121.2 200.4 125.4 204.9 120.1 210.4 115.8 206" style="mix-blend-mode:multiply;fill:url(#d)"/><polygon points="145.4 175.7 145.4 184.5 138.1 191.9 133.9 187.4 145.4 175.7" style="mix-blend-mode:multiply;fill:url(#e)"/><path d="M66.2,164.2l1.4,1.6a7.1,7.1,0,0,0,3.9-3.3H67.4Z" style="mix-blend-mode:multiply;fill:url(#f)"/><path d="M165.7,164.2l-1.5,1.6a7.1,7.1,0,0,1-3.9-3.3h4.1Z" style="mix-blend-mode:multiply;fill:url(#g)"/><path d="M161.7,261.6l-2,1.7a6.6,6.6,0,0,0,4.7,4.7l2.6-3.1Z" style="mix-blend-mode:multiply;fill:url(#h)"/><path d="M65.7,266l1.8,2a6.7,6.7,0,0,0,4.6-4.8L69,260.6Z" style="mix-blend-mode:multiply;fill:url(#i)"/><path d="M69.5,318.2v-4l-7.1.6v3.8a7.3,7.3,0,0,0,3.3.8A6.4,6.4,0,0,0,69.5,318.2Z" style="mix-blend-mode:multiply;fill:url(#j)"/><path d="M162.2,318.2v-4l7.2.6v3.8a7.3,7.3,0,0,1-3.3.8A6.7,6.7,0,0,1,162.2,318.2Z" style="mix-blend-mode:multiply;fill:url(#k)"/><path d="M164.3,357.5l2.9,3,2.4-2.3a6.8,6.8,0,0,0-3.5-1A5.7,5.7,0,0,0,164.3,357.5Z" style="mix-blend-mode:multiply;fill:url(#l)"/><path d="M67.5,357.5l-2.9,3-2.4-2.3a6.8,6.8,0,0,1,3.5-1A5.7,5.7,0,0,1,67.5,357.5Z" style="mix-blend-mode:multiply;fill:url(#m)"/><polygon points="86.4 286.7 86.4 277.9 91 282.5 86.4 286.7" style="mix-blend-mode:multiply;fill:url(#n)"/><polygon points="111.7 312.5 116 308.1 108.7 300.6 105.1 305.7 111.7 312.5" style="mix-blend-mode:multiply;fill:url(#o)"/><polygon points="116 316.9 120.3 312.5 125 317.3 121 322 116 316.9" style="mix-blend-mode:multiply;fill:url(#p)"/><path d="M65.7,312.6s.6-14.4-14.4-27.8-23.6-45.5-11-71.5" style="fill:none;stroke:#ff595a;stroke-miterlimit:10;stroke-width:6px"/><path d="M166.1,312.6s-5.4-20,18.6-34.2,20.6-38.8,12-51.6" style="fill:none;stroke:#ff595a;stroke-miterlimit:10;stroke-width:6px"/><path d="M49.3,194.1a3.9,3.9,0,0,1,2,5.4l-9.1,20.1-7.5-3.3,9.2-20.2A4,4,0,0,1,49.3,194.1Z" style="fill:#aaa"/><path d="M186.2,206.8a4.1,4.1,0,0,1,5.6,1.7L202.1,228l-7.2,3.9-10.4-19.6A4.1,4.1,0,0,1,186.2,206.8Z" style="fill:#aaa"/><path d="M42.1,213.4H38.8l-.2.2a.2.2,0,0,0,.2.2h1l1.3,1.2H38.2a.2.2,0,0,0-.2.2l.2.2,3.3-.2h.2c0-.1,0-.1-.1-.2l-1.3-1.3h1.8Z" style="fill:#5f5e6c"/><path d="M40.5,211.9h-.3l-.6-.6a.2.2,0,0,1,0-.3h.2l.7.6C40.6,211.8,40.6,211.9,40.5,211.9Z" style="fill:#ff595a"/><path d="M197.4,224.6l-2.3,2.5c-.1.1,0,.2,0,.3h.3l.7-.8h1.7l-1.9,2.1a.2.2,0,0,0,0,.3h.2l2.3-2.5a.1.1,0,0,0,0-.2h0a.1.1,0,0,0-.1-.1h-1.9l1.2-1.3a.3.3,0,0,0,.1-.2h-.3Z" style="fill:#5f5e6c"/><path d="M195.2,224.7h0c0,.1,0,.2-.1.2h-.9l-.2-.2c0-.1,0-.1.2-.1h1Z" style="fill:#ff595a"/></g></svg>