<svg xmlns="http://www.w3.org/2000/svg" xmlns:xlink="http://www.w3.org/1999/xlink" viewBox="0 0 231.8 404.5"><defs><linearGradient id="a" x1="2.89" y1="-1615.89" x2="231.15" y2="-1615.89" gradientTransform="matrix(1, 0, 0, -1, 0, -1379.84)" gradientUnits="userSpaceOnUse"><stop offset="0"/><stop offset="0.53" stop-color="#383642"/><stop offset="1"/></linearGradient><linearGradient id="b" x1="-3153" y1="3825.4" x2="-3052.7" y2="3825.4" gradientTransform="matrix(-1, 0, 0, 1, -2987, -3666)" gradientUnits="userSpaceOnUse"><stop offset="0" stop-color="#ff595a"/><stop offset="1" stop-color="#ff595a"/></linearGradient><linearGradient id="c" x1="116.9" y1="-1589.51" x2="109.32" y2="-1596.74" gradientTransform="matrix(1, 0, 0, -1, 0, -1379.84)" gradientUnits="userSpaceOnUse"><stop offset="0" stop-color="#383642"/><stop offset="1" stop-color="#383642" stop-opacity="0"/></linearGradient><linearGradient id="d" x1="115.66" y1="-1590.17" x2="121.05" y2="-1584.84" xlink:href="#c"/><linearGradient id="e" x1="84.67" y1="-1557.53" x2="87.67" y2="-1561.4" xlink:href="#c"/><linearGradient id="f" x1="148.23" y1="-1557.84" x2="140.79" y2="-1564.5" xlink:href="#c"/><linearGradient id="g" x1="160.3" y1="-1493.34" x2="165.43" y2="-1489.53" xlink:href="#c"/><linearGradient id="h" x1="71.54" y1="-1494.35" x2="66.01" y2="-1488.68" xlink:href="#c"/><linearGradient id="i" x1="72.17" y1="-1545.31" x2="67.34" y2="-1542.59" xlink:href="#c"/><linearGradient id="j" x1="-6109.02" y1="-1545.35" x2="-6113.84" y2="-1542.63" gradientTransform="translate(-5949.4 -1379.8) rotate(180)" xlink:href="#c"/><linearGradient id="k" x1="-5839.77" y1="-2089.27" x2="-5835.01" y2="-2083.72" gradientTransform="matrix(-0.02, -1, -1, 0.02, -2132.2, -5579.64)" xlink:href="#c"/><linearGradient id="l" x1="166.25" y1="-1735.65" x2="167.57" y2="-1739.51" xlink:href="#c"/><linearGradient id="m" x1="-6325.82" y1="-1735.65" x2="-6324.5" y2="-1739.51" gradientTransform="translate(-6260.3 -1379.8) rotate(180)" xlink:href="#c"/></defs><title>style--Artboard 1 copy 8</title><rect x="6.2" y="73.8" width="219.5" height="324.5" style="fill:url(#a)"/><path d="M139.1,239,63.9,162.7a2,2,0,0,1,0-2.7l3-3,76.6,77.6" style="fill:#ff595a"/><rect x="140.8" y="166.8" width="29.6" height="6.2" transform="translate(-74.5 159.8) rotate(-45)" style="fill:#ff595a"/><path d="M0,67.6V404.5H86.4V67.6ZM65.7,370.5a6.7,6.7,0,1,1,6.7-6.7A6.8,6.8,0,0,1,65.7,370.5Zm0-51.1a6.7,6.7,0,1,1,6.7-6.7A6.8,6.8,0,0,1,65.7,319.4Zm0-51.1a6.7,6.7,0,1,1,6.7-6.7A6.8,6.8,0,0,1,65.7,268.3Zm0-51.1a6.7,6.7,0,1,1,6.7-6.7A6.8,6.8,0,0,1,65.7,217.2Zm0-51.2a6.7,6.7,0,1,1,6.7-6.7A6.7,6.7,0,0,1,65.7,166Zm0-51.1a6.7,6.7,0,1,1,6.7-6.7A6.8,6.8,0,0,1,65.7,114.9Z" style="fill:#383642"/><path d="M65.7,352.6A11.3,11.3,0,1,0,77,363.9,11.4,11.4,0,0,0,65.7,352.6Zm0,17.9a6.7,6.7,0,1,1,6.7-6.7A6.8,6.8,0,0,1,65.7,370.5Z" style="fill:#636569"/><path d="M65.7,301.5A11.3,11.3,0,1,0,77,312.8,11.4,11.4,0,0,0,65.7,301.5Zm0,17.9a6.7,6.7,0,1,1,6.7-6.7A6.7,6.7,0,0,1,65.7,319.4Z" style="fill:#636569"/><path d="M65.7,250.3A11.3,11.3,0,1,0,77,261.6,11.4,11.4,0,0,0,65.7,250.3Zm0,18a6.7,6.7,0,1,1,6.7-6.7A6.8,6.8,0,0,1,65.7,268.3Z" style="fill:#636569"/><path d="M65.7,199.2A11.3,11.3,0,1,0,77,210.5,11.4,11.4,0,0,0,65.7,199.2Zm0,18a6.7,6.7,0,1,1,6.7-6.7A6.7,6.7,0,0,1,65.7,217.2Z" style="fill:#636569"/><path d="M65.7,148.1A11.3,11.3,0,1,0,77,159.4,11.4,11.4,0,0,0,65.7,148.1Zm0,17.9a6.7,6.7,0,1,1,6.7-6.7A6.7,6.7,0,0,1,65.7,166Z" style="fill:#636569"/><path d="M65.7,97A11.3,11.3,0,1,0,77,108.3,11.4,11.4,0,0,0,65.7,97Zm0,17.9a6.7,6.7,0,1,1,6.7-6.7A6.8,6.8,0,0,1,65.7,114.9Z" style="fill:#636569"/><path d="M231.8,404.5V67.6H145.4V404.5ZM166.1,101.6a6.7,6.7,0,1,1-6.7,6.7A6.8,6.8,0,0,1,166.1,101.6Zm0,51.1a6.7,6.7,0,1,1-6.7,6.7A6.8,6.8,0,0,1,166.1,152.7Zm0,51.1a6.7,6.7,0,1,1-6.7,6.7A6.8,6.8,0,0,1,166.1,203.8Zm0,51.1a6.7,6.7,0,1,1-6.7,6.7A6.8,6.8,0,0,1,166.1,254.9Zm0,51.2a6.7,6.7,0,1,1-6.7,6.7A6.7,6.7,0,0,1,166.1,306.1Zm0,51.1a6.7,6.7,0,1,1-6.7,6.7A6.7,6.7,0,0,1,166.1,357.2Z" style="fill:#383642"/><path d="M166.1,119.5a11.3,11.3,0,1,0-11.3-11.3A11.4,11.4,0,0,0,166.1,119.5Zm0-17.9a6.7,6.7,0,1,1-6.7,6.7A6.8,6.8,0,0,1,166.1,101.6Z" style="fill:#636569"/><path d="M166.1,170.7a11.3,11.3,0,1,0-11.3-11.3A11.4,11.4,0,0,0,166.1,170.7Zm0-18a6.7,6.7,0,1,1-6.7,6.7A6.7,6.7,0,0,1,166.1,152.7Z" style="fill:#636569"/><path d="M166.1,221.8a11.3,11.3,0,1,0-11.3-11.3A11.4,11.4,0,0,0,166.1,221.8Zm0-18a6.7,6.7,0,1,1-6.7,6.7A6.8,6.8,0,0,1,166.1,203.8Z" style="fill:#636569"/><path d="M166.1,272.9a11.3,11.3,0,1,0-11.3-11.3A11.4,11.4,0,0,0,166.1,272.9Zm0-18a6.7,6.7,0,1,1-6.7,6.7A6.7,6.7,0,0,1,166.1,254.9Z" style="fill:#636569"/><path d="M166.1,324a11.3,11.3,0,1,0-11.3-11.3A11.4,11.4,0,0,0,166.1,324Zm0-17.9a6.7,6.7,0,1,1-6.7,6.7A6.7,6.7,0,0,1,166.1,306.1Z" style="fill:#636569"/><path d="M166.1,375.1a11.3,11.3,0,1,0-11.3-11.3A11.4,11.4,0,0,0,166.1,375.1Zm0-17.9a6.7,6.7,0,1,1-6.7,6.7A6.8,6.8,0,0,1,166.1,357.2Z" style="fill:#636569"/><polygon points="93.1 237.1 88.7 232.8 145.4 175.7 145.4 184.5 93.1 237.1" style="fill:#ff595a"/><rect x="65.7" y="156.3" width="100.3" height="6.2" style="fill:url(#b)"/><circle cx="166.1" cy="159.4" r="3" style="fill:#ff595a"/><ellipse cx="65.7" cy="159.8" rx="3.1" ry="3.5" style="fill:#ff595a"/><polygon points="111.5 210.4 115.8 214.7 110.6 220.1 106.2 215.7 111.5 210.4" style="fill:url(#c)"/><polygon points="115.8 206 121.2 200.4 125.4 204.9 120.1 210.4 115.8 206" style="fill:url(#d)"/><polygon points="86.4 184.9 90.7 180.5 86.4 176.2 86.4 184.9" style="fill:url(#e)"/><polygon points="145.4 175.7 145.4 184.5 138.1 191.9 133.9 187.4 145.4 175.7" style="fill:url(#f)"/><path d="M164,106.1l-4.2,4.1a6.7,6.7,0,0,0,5,4.6l3.5-4.4Z" style="fill:url(#g)"/><path d="M66.4,104.9,61.8,109l5.5,5.6a7.1,7.1,0,0,0,4.6-4.2Z" style="fill:url(#h)"/><path d="M66.2,164.2l1.5,1.5a6.4,6.4,0,0,0,3.9-3.3H67.4Z" style="fill:url(#i)"/><path d="M165.7,164.2l-1.5,1.5a6.4,6.4,0,0,1-3.9-3.3h4.2Z" style="fill:url(#j)"/><path d="M65.7,214.9l1.7,2a6.4,6.4,0,0,0,4.6-4.8l-3-2.6Z" style="fill:url(#k)"/><path d="M164.3,357.5l2.9,3,2.4-2.3a6.8,6.8,0,0,0-3.5-1A5.7,5.7,0,0,0,164.3,357.5Z" style="fill:url(#l)"/><path d="M67.5,357.5l-2.9,3-2.4-2.3a6.8,6.8,0,0,1,3.5-1A5.7,5.7,0,0,1,67.5,357.5Z" style="fill:url(#m)"/><path d="M94.9,231.2s-27.3,22.9-22.8,46.1,18.7,48.2,18.7,48.2" style="fill:none;stroke:#ff595a;stroke-miterlimit:10;stroke-width:6px"/><path d="M135.1,230.4s30.8,27,22.5,51.1-22.5,37-22.5,37" style="fill:none;stroke:#ff595a;stroke-miterlimit:10;stroke-width:6px"/><path d="M122.1,334.9a4.1,4.1,0,0,1-.5-5.8l14.2-17,6.3,5.3-14.2,17A4.1,4.1,0,0,1,122.1,334.9Z" style="fill:#aaa"/><path d="M98.1,338.9a4.1,4.1,0,0,1-5.6-1.7L82,317.8l7.2-3.9,10.5,19.4A4.1,4.1,0,0,1,98.1,338.9Z" style="fill:#aaa"/><path d="M87.1,321.8l2.1-2.6a.2.2,0,0,0,0-.3h-.3l-.6.8H86.6l1.8-2.3a.2.2,0,0,0,0-.3h-.3L86,319.8c0,.1-.1.1,0,.2h0c0,.1.1.1.2.1h1.9l-1.2,1.4c0,.1-.1.1,0,.2h0C86.9,321.9,87.1,321.9,87.1,321.8Z" style="fill:#5f5e6c"/><path d="M89.3,321.6h0c0-.2,0-.3.1-.3h.9a.2.2,0,0,1,0,.4h-1Z" style="fill:#ff595a"/><path d="M134.3,318l3.3.8c.1,0,.2,0,.2-.1s0-.2-.1-.2l-1-.2h0l-.9-1.5,2.8.7c.1,0,.2,0,.2-.1s0-.2-.1-.2l-3.3-.8h-.2v.2l.9,1.6-1.8-.4h-.2C134.1,317.9,134.2,318,134.3,318Z" style="fill:#5f5e6c"/><path d="M135.4,319.8h0c.1-.1.3-.1.3,0l.5.8c.1.1,0,.2-.1.2s-.2,0-.3-.1l-.5-.8C135.3,320,135.3,319.9,135.4,319.8Z" style="fill:#ff595a"/></svg>