<?xml version="1.0" encoding="utf-8"?>
<!-- Generator: Adobe Illustrator 21.1.0, SVG Export Plug-In . SVG Version: 6.00 Build 0)  -->
<svg version="1.1" id="Layer_1" xmlns="http://www.w3.org/2000/svg" xmlns:xlink="http://www.w3.org/1999/xlink" x="0px" y="0px"
	 viewBox="0 0 68.1 92.1" style="enable-background:new 0 0 68.1 92.1;" xml:space="preserve">
<style type="text/css">
	.st0{fill:#3FD5AE;}
</style>
<g id="vXDr5l.tif">
	<g>
		<path class="st0" d="M52.9,78.1c-2.9,3.2-5.5,6.8-8.7,9.6c-6.1,5.4-12.2,5.9-18.4,0.8C10.8,76.1,1,60.4,0.1,40.4
			c-0.4-8.8,1.7-17.5,6.3-25.3c6.7-11.6,17.5-15.7,30.2-15C49.3,0.8,59,7,63.7,19.1c2.4,6.1,2.9,12.8,4.3,19.3
			C67.6,38.4,71.6,57.8,52.9,78.1z M38.2,70.9c14.7,0,26.8-13.1,25-23.4C50.9,48.5,40.5,58,38.2,70.9z M30.7,70.9
			C29,58.4,16.3,47.1,5.4,48.1C5,60.1,17.5,71.4,30.7,70.9z"/>
	</g>
</g>
</svg>
