<?xml version="1.0" encoding="utf-8"?>
<!-- Generator: Adobe Illustrator 22.0.1, SVG Export Plug-In . SVG Version: 6.00 Build 0)  -->
<svg version="1.1" id="Layer_1" xmlns="http://www.w3.org/2000/svg" xmlns:xlink="http://www.w3.org/1999/xlink" x="0px" y="0px"
	 viewBox="0 0 26.3 38.7" style="enable-background:new 0 0 26.3 38.7;" xml:space="preserve">
<style type="text/css">
	.st0{fill:#FFDF3B;}
</style>
<path class="st0" d="M14.6,25.1c-0.3-0.3-1-0.9-1.6-0.9s-1.3,0.6-1.6,0.9c-1.5,1.6-3.6,8.6-3.8,9.6c-0.1,0.4-0.5,0.7-0.7,1.1
	c-0.4-0.3-0.8-0.4-1-0.8C4,31.6,3,28,4,24.2C4.5,22,4.5,20,3.9,17.9c-0.8-2.8-1.4-5.6-1.8-8.5C1.6,5.3,3.6,2.6,7.4,2.2
	C8.6,2.1,9.8,2.6,11,2.6c1.9,0,3.8,0,5.7-0.3c4.3-0.6,7.6,2,7.3,6.3c-0.2,2.6-0.8,5.2-1.5,7.7c-0.8,2.9-1.1,5.8-0.4,8.8
	c0.9,3.5-0.4,6.8-2.1,9.9c-0.2,0.3-0.7,0.5-1.1,0.8c-0.2-0.3-0.6-0.6-0.6-1C18.2,33.7,16,26.3,14.6,25.1z"/>
</svg>
