<?xml version="1.0" encoding="utf-8"?>
<!-- Generator: Adobe Illustrator 21.1.0, SVG Export Plug-In . SVG Version: 6.00 Build 0)  -->
<!DOCTYPE svg PUBLIC "-//W3C//DTD SVG 1.1//EN" "http://www.w3.org/Graphics/SVG/1.1/DTD/svg11.dtd">
<svg version="1.1" id="Layer_1" xmlns="http://www.w3.org/2000/svg" xmlns:xlink="http://www.w3.org/1999/xlink" x="0px" y="0px"
	 viewBox="0 0 26.3 38.7" style="enable-background:new 0 0 26.3 38.7;" xml:space="preserve">
<style type="text/css">
	.st0{fill:#0ED0AB;}
</style>
<path class="st0" d="M16.2,30.4C16.2,30.4,16.2,30.4,16.2,30.4c-0.2,1-0.4,1.2-1.4,1.2c-2.6,0-5.2,0-7.8,0c-0.3,0-0.7-0.1-1-0.2
	c-0.3,0-0.4,0.1-0.5,0.4c-0.1,1,0.1,2,1.1,2.5c0.5,0.2,1.4,0.5,2,0.6c0.9,0.1,1.6,0.4,2.5,0.1c0.5-0.1,0.7-0.5,0.5-0.9
	c-0.1-0.3-0.3-0.6-0.3-0.9c0-0.2,0-0.6,0.2-0.7c0.2-0.1,0.6-0.1,0.7,0c0.8,0.5,1.1,1.2,1.1,2.1c0,0.8-0.4,1.4-1.3,1.7
	c-0.7,0.3-2.4,0.5-3.9,0.1c-1.7-0.4-2.5-0.8-3.1-1.1c-0.7-0.4-1.2-1.4-1.3-2.2c-0.2-1.2,0-2.3,0.6-3.4c0.4-0.8,0.3-1.6,0.2-2.4
	c-0.1-1-0.3-2.5-0.4-3.5c0-1.4,0-2.3,0.2-3.7c0.1-0.8,0.6-1.6,1-2.3c0.6-1.2,1.3-2.3,2.2-3.3c0.6-0.7,1.3-1,2.2-1.2
	c1.3-0.4,2.3-1.2,3.1-2.3c0.3-0.4,0.4-0.7,0.4-1.2c0-1.4,0.5-2.6,1.4-3.7c0.2-0.2,0.4-0.5,0.7-0.6c0.9-0.3,1.2-1,1.6-1.7
	c0.2-0.3,0.4-0.6,0.6-0.9c0.2-0.3,0.6-0.7,0.8-0.4c0.1,0.3,0.3,0.7,0.3,1c0.1,0.5,0.2,0.9,0.2,1.4c0,0.5,0.2,0.7,0.7,0.8
	c0.6,0.1,1.2,0.4,1.5,1c0.2,0.3,0.6,0.7,1,0.8c0.8,0.2,0.7,0.6,0.5,1.2c-0.2,0.8-0.7,1.4-1.5,1.8c-0.7,0.4-0.9,0.8-0.8,1.6
	c0.2,1.2,0.2,2.5,0.3,3.7c0.1,1.2-0.4,2.3-1.1,3.2c-0.9,1.2-1.4,2.5-1.3,4c0.1,1.7,0,3.4,0,5.1c0,0.7,0.1,1.3,0.8,1.4
	c0.3,0,1.2,0.4,1.2,0.6c0.1,0.2,0.2,1.1-0.1,1.2c-0.1,0.1-0.5,0.1-0.9,0.1c-0.9,0.1-1.8,0.2-2.6-0.5C16.4,30.6,16.3,30.5,16.2,30.4z
	 M15.9,29.9c-0.3-0.6-0.4-1.4-0.6-2.2c-0.2,0.5-0.7,1.3-1.1,1.8C14.7,29.5,15.3,29.6,15.9,29.9z"/>
</svg>
