<?xml version="1.0" encoding="utf-8"?>
<!-- Generator: Adobe Illustrator 21.1.0, SVG Export Plug-In . SVG Version: 6.00 Build 0)  -->
<svg version="1.1" id="Layer_1" xmlns="http://www.w3.org/2000/svg" xmlns:xlink="http://www.w3.org/1999/xlink" x="0px" y="0px"
	 viewBox="0 0 26.3 38.7" style="enable-background:new 0 0 26.3 38.7;" xml:space="preserve">
<style type="text/css">
	.st0{fill:#CFF94B;}
</style>
<g id="mvIV5B.tif_100_">
	<g>
		<path class="st0" d="M10.8,16.8c0-1.5,0-3,0-4.5c0-1.8,0.6-2.4,2.3-2.4c1.8,0,2.4,0.6,2.5,2.5c0,1.4,0,2.9,0.1,4.3
			c0,0.1,0.1,0.1,0.4,0.3c0-0.6,0.1-1.1,0.1-1.6c0-1.1,0-2.1,0-3.2c0-2.1,2-3.2,3.8-2.1c0.5,0.3,0.9,1.2,1,1.8
			c0.1,1.5,0.1,3.1,0.1,4.6c0,0.1,0.1,0.2,0.3,0.6c0.1-0.8,0.2-1.2,0.2-1.6c0-3.2-0.1-6.4,0.1-9.6c0-0.8,0.6-1.8,1.3-2.2
			c0.5-0.4,1.7-0.3,2.3,0.1c0.6,0.3,1.1,1.3,1.1,1.9c0.1,8.4,0.1,16.8,0,25.1c0,3.8-3.4,7.2-7.3,7.5c-2.9,0.2-5.9,0.3-8.8,0
			c-4.8-0.6-7.6-3.8-9.1-8.1c-0.6-1.6-0.8-3.3-0.9-5c-0.1-3.1,0-6.3,0-9.4C3,15.6,5,17.4,5.1,20.2c0,1.4,0,2.8,0,4.2
			c0.1,0,0.3,0,0.4,0c0.1-0.5,0.1-0.9,0.1-1.4c0-6.8,0-13.6,0-20.4c0-1.6,0.7-2.5,2-2.7c1.6-0.3,2.8,0.8,2.8,2.7c0,4.2,0,8.4,0,12.6
			c0,0.5,0,1,0,1.5C10.4,16.8,10.6,16.8,10.8,16.8z"/>
	</g>
</g>
</svg>
