<?xml version="1.0" encoding="utf-8"?>
<!-- Generator: Adobe Illustrator 21.1.0, SVG Export Plug-In . SVG Version: 6.00 Build 0)  -->
<!DOCTYPE svg PUBLIC "-//W3C//DTD SVG 1.1//EN" "http://www.w3.org/Graphics/SVG/1.1/DTD/svg11.dtd">
<svg version="1.1" id="Layer_1" xmlns="http://www.w3.org/2000/svg" xmlns:xlink="http://www.w3.org/1999/xlink" x="0px" y="0px"
	 viewBox="0 0 26.3 38.7" style="enable-background:new 0 0 26.3 38.7;" xml:space="preserve">
<style type="text/css">
	.st0{fill:#B096DA;}
</style>
<path class="st0" d="M22.2,6.4c-3,3-6,5.9-9.1,8.9c-3-3-6-5.9-8.9-8.8C2.8,7.9,1.5,9.2,0,10.6c2.9,2.9,5.9,5.8,9,8.9
	c-3,2.9-6,5.9-8.9,8.7c1.4,1.3,2.7,2.7,4.2,4.1c2.9-2.9,5.9-5.8,9-8.9c3,2.9,5.9,5.9,8.9,8.7c1.3-1.3,2.6-2.6,4-4
	c-3-2.9-6-5.9-9.1-8.9c3.1-3,6.1-6,9.1-8.9C25,9.1,23.6,7.8,22.2,6.4z"/>
</svg>
