<?xml version="1.0" encoding="utf-8"?>
<!-- Generator: Adobe Illustrator 22.0.1, SVG Export Plug-In . SVG Version: 6.00 Build 0)  -->
<svg version="1.1" id="Layer_1" xmlns="http://www.w3.org/2000/svg" xmlns:xlink="http://www.w3.org/1999/xlink" x="0px" y="0px"
	 viewBox="0 0 26.3 38.7" style="enable-background:new 0 0 26.3 38.7;" xml:space="preserve">
<style type="text/css">
	.st0{fill:#FBCE00;}
</style>
<path class="st0" d="M4.4,31.6C4.4,31.4,4.5,31.6,4.4,31.6c0.3,0.5,0.8,0.7,1.3,1c0.2,0.1,0.6,0.5,0.6,0.5c0-0.3,0-0.7-0.1-1
	c-0.1-0.9-0.5-1.7-1-2.5c-0.3-0.4-0.4-0.9-0.2-1.3c0.3-0.9,0.5-1.9,0.8-2.9c0.5-1.6,1.3-3.2,2.4-4.5c1.1-1.5,2.6-2.8,4.2-3.8
	c0.6-0.4,2.2-1.1,2.5-1.3H15c0,0.4-0.2,0.8-0.4,1c-0.4,0.5-0.8,0.8-1.3,1.2c-0.3,0.3-0.6,0.5-0.9,0.7c0.8,0,1.4-0.1,1.9-0.2
	c0.8-0.2,1.5-0.6,2.2-1.2c0.5-0.5,1-1,1.5-1.5c0.2-0.2,0.4-0.5,0.6-0.6s0.5-0.2,0.8-0.2c1.1,0.1,2.1-0.3,3.1-0.7
	c0.5-0.2,1.1-0.4,1.7-0.6c0.4-0.1,0.8,0,1.3,0.1c0.1,0,0.2,0,0.3,0c0.4,0,0.6-0.2,0.3-0.6c-0.3-0.4-0.8-0.6-1.2-0.8
	c-0.2-0.1-0.3-0.3-0.5-0.4c-0.3-0.3-0.7-0.6-1-0.9c-0.8-0.6-1.6-1.1-2.6-1.5S18.7,9,17.6,8.9C16.8,8.8,16,9,15.2,9.1
	c-0.8,0.2-1.6,0.4-2.5,0.7c-0.4,0.2-1.1,0.5-1.5,0.7s-0.8,0.4-1.3,0.3c-1-0.1-2.1-0.2-3.1-0.1C6,10.8,5.4,11,4.6,11.4
	C4,11.7,3.6,12,3,12.7v0.1c0.3,0,0.7-0.1,1.8,0.2c0.8,0.2,0.9,0.5,0.9,1.2c0,0.5-0.2,1-0.5,1.5c-1.5,2.5-2.1,5.3-2,8.3
	c0.1,1.3,0.2,2.8,0.4,4.1c0.1,0.5-0.1,0.8-0.5,1.1c-0.7,0.5-1.3,1.1-1.7,1.9c-0.3,0.6-0.6,1.1-0.9,1.7c-0.1,0.2-0.2,0.4-0.4,0.6
	C0.2,33.6,3.2,32.6,4.4,31.6z"/>
</svg>
