<?xml version="1.0" encoding="utf-8"?>
<!-- Generator: Adobe Illustrator 21.1.0, SVG Export Plug-In . SVG Version: 6.00 Build 0)  -->
<svg version="1.1" id="Layer_1" xmlns="http://www.w3.org/2000/svg" xmlns:xlink="http://www.w3.org/1999/xlink" x="0px" y="0px"
	 viewBox="0 0 26.3 38.7" style="enable-background:new 0 0 26.3 38.7;" xml:space="preserve">
<style type="text/css">
	.st0{fill:#F3D301;}
</style>
<g>
	<g>
		<path class="st0" d="M25.1,12.8c-0.1-3.1-2.7-5.6-5.9-5.6s-5.8,2.5-5.9,5.6h0V13l0,0v13.1H18v8.6c0,0.6,0.5,1.2,1.2,1.2
			s1.2-0.5,1.2-1.2v-8.6h4.7V13l0,0L25.1,12.8L25.1,12.8z"/>
		<path class="st0" d="M6.4,7.2c-0.2,0-0.5,0-0.7,0C5.8,7.4,5.9,7.7,5.9,8c0,0.3-0.1,0.6-0.4,0.8c0.1,0.2,0.2,0.4,0.2,0.6
			c0,0.6-0.5,1-1.1,1l0,0c0,0.2-0.1,0.4-0.2,0.6c-0.3,0.4-0.9,0.5-1.3,0.2c0,0.2-0.1,0.3-0.2,0.5c-0.4,0.4-1,0.5-1.4,0.2
			c0,0,0,0,0,0c-0.2,0.3-0.6,0.4-0.9,0.4c0,0.2,0,0.4,0,0.6h0v13.3h4.7v8.6c0,0.6,0.5,1.2,1.2,1.2s1.2-0.5,1.2-1.2v-8.6h4.7V12.8h0
			C12.1,9.7,9.6,7.2,6.4,7.2z"/>
	</g>
</g>
</svg>
