<?xml version="1.0" encoding="utf-8"?>
<!-- Generator: Adobe Illustrator 22.0.1, SVG Export Plug-In . SVG Version: 6.00 Build 0)  -->
<svg version="1.1" id="Layer_1" xmlns="http://www.w3.org/2000/svg" xmlns:xlink="http://www.w3.org/1999/xlink" x="0px" y="0px"
	 viewBox="0 0 38.6 12.2" style="enable-background:new 0 0 38.6 12.2;" xml:space="preserve">
<style type="text/css">
	.st0{fill:#FBE800;}
</style>
<path class="st0" d="M24.5,0.8c-2.4,0.6-3.7,0.9-4.8,1c-0.2,0-0.4,0-0.6,0s-0.4,0-0.6,0c-1.2-0.1-2.4-0.3-4.8-1
	C10.1-0.2,3.6-0.4,0,0.7C0,1.4,0.2,2.3,0.3,3c0,0.1,0.3,0.1,0.4,0.1c0.6,0.2,0.7,0.8,0.8,1.4c0.4,1.4,0.8,2.9,1.2,4.3
	c0.5,1.5,1.4,2.5,3,2.9c1.7,0.4,3.3,0.6,5.1,0.4c2.4-0.3,4.2-1.3,5.4-3.4c0.7-1.3,1.2-2.6,1.9-3.9c0.1-0.3,0.3-0.6,0.6-0.7
	C18.9,4,19.1,4,19.3,4s0.4,0.1,0.6,0.1c0.3,0.1,0.5,0.5,0.6,0.7c0.6,1.3,1.2,2.7,1.9,3.9c1.1,2.1,3,3.1,5.4,3.4
	c1.7,0.2,3.4,0,5.1-0.4c1.6-0.4,2.6-1.4,3-2.9c0.4-1.4,0.8-2.9,1.2-4.3c0.2-0.6,0.2-1.2,0.8-1.4C38,3.1,38.3,3,38.3,3
	c0.1-0.7,0.2-1.6,0.3-2.3C34.6-0.4,28.1-0.2,24.5,0.8z"/>
</svg>
