<?xml version="1.0" encoding="utf-8"?>
<!-- Generator: Adobe Illustrator 23.0.1, SVG Export Plug-In . SVG Version: 6.00 Build 0)  -->
<svg version="1.1" id="Layer_1" xmlns="http://www.w3.org/2000/svg" xmlns:xlink="http://www.w3.org/1999/xlink" x="0px" y="0px"
	 viewBox="0 0 68.1 92.1" style="enable-background:new 0 0 68.1 92.1;" xml:space="preserve">
<g transform="matrix(1,0,0,-1,37.966102,1343.4237)">
	<path d="M-4,1269c-0.6,0-1.2,0.2-1.6,0.7l-22.8,22c-0.2,0.2-0.6,0.5-1,0.9c-0.4,0.4-1.1,1.2-2,2.4c-0.9,1.2-1.8,2.3-2.5,3.6
		c-0.7,1.2-1.4,2.7-2,4.4c-0.6,1.7-0.9,3.4-0.9,5c0,5.4,1.5,9.5,4.6,12.6s7.4,4.5,12.8,4.5c1.5,0,3-0.3,4.6-0.8s3-1.2,4.4-2.1
		c1.4-0.9,2.5-1.7,3.5-2.5s1.9-1.6,2.8-2.5c0.9,0.9,1.8,1.7,2.8,2.5s2.1,1.6,3.5,2.5c1.4,0.9,2.8,1.6,4.4,2.1s3.1,0.8,4.6,0.8
		c5.5,0,9.7-1.5,12.8-4.5s4.6-7.2,4.6-12.6c0-5.4-2.8-10.9-8.4-16.4l-22.8-21.9C-2.8,1269.2-3.4,1269-4,1269"/>
</g>
</svg>
