<?xml version="1.0" encoding="utf-8"?>
<!-- Generator: Adobe Illustrator 23.0.1, SVG Export Plug-In . SVG Version: 6.00 Build 0)  -->
<svg version="1.1" id="Layer_1" xmlns="http://www.w3.org/2000/svg" xmlns:xlink="http://www.w3.org/1999/xlink" x="0px" y="0px"
	 viewBox="0 0 22.2 22.2" style="enable-background:new 0 0 22.2 22.2;" xml:space="preserve">
<style type="text/css">
	.st0{fill:#A7A9AC;}
</style>
<g>
	<g>
		<path class="st0" d="M14.1,16c-4.4,0-8-3.6-8-8s3.6-8,8-8s8,3.6,8,8S18.5,16,14.1,16z M14.1,1c-3.9,0-7,3.1-7,7s3.1,7,7,7
			s7-3.1,7-7S18,1,14.1,1z"/>
	</g>
	<g>
		<path class="st0" d="M14.1,12.8c-0.3,0-0.5-0.2-0.5-0.5V3.8c0-0.3,0.2-0.5,0.5-0.5s0.5,0.2,0.5,0.5v8.5
			C14.6,12.6,14.4,12.8,14.1,12.8z"/>
	</g>
	<g>
		<path class="st0" d="M0.5,22.2c-0.1,0-0.3,0-0.4-0.1c-0.2-0.2-0.2-0.5,0-0.7L8.4,13c0.2-0.2,0.5-0.2,0.7,0s0.2,0.5,0,0.7l-8.3,8.3
			C0.8,22.2,0.6,22.2,0.5,22.2z"/>
	</g>
	<g>
		<path class="st0" d="M18.4,8.5H9.8C9.5,8.5,9.3,8.3,9.3,8c0-0.3,0.2-0.5,0.5-0.5h8.6c0.3,0,0.5,0.2,0.5,0.5
			C18.9,8.3,18.7,8.5,18.4,8.5z"/>
	</g>
</g>
</svg>
